%TF.GenerationSoftware,KiCad,Pcbnew,7.0.2*%
%TF.CreationDate,2023-10-27T14:15:15+02:00*%
%TF.ProjectId,testboard AL5801,74657374-626f-4617-9264-20414c353830,rev?*%
%TF.SameCoordinates,Original*%
%TF.FileFunction,Soldermask,Top*%
%TF.FilePolarity,Negative*%
%FSLAX46Y46*%
G04 Gerber Fmt 4.6, Leading zero omitted, Abs format (unit mm)*
G04 Created by KiCad (PCBNEW 7.0.2) date 2023-10-27 14:15:15*
%MOMM*%
%LPD*%
G01*
G04 APERTURE LIST*
G04 Aperture macros list*
%AMRoundRect*
0 Rectangle with rounded corners*
0 $1 Rounding radius*
0 $2 $3 $4 $5 $6 $7 $8 $9 X,Y pos of 4 corners*
0 Add a 4 corners polygon primitive as box body*
4,1,4,$2,$3,$4,$5,$6,$7,$8,$9,$2,$3,0*
0 Add four circle primitives for the rounded corners*
1,1,$1+$1,$2,$3*
1,1,$1+$1,$4,$5*
1,1,$1+$1,$6,$7*
1,1,$1+$1,$8,$9*
0 Add four rect primitives between the rounded corners*
20,1,$1+$1,$2,$3,$4,$5,0*
20,1,$1+$1,$4,$5,$6,$7,0*
20,1,$1+$1,$6,$7,$8,$9,0*
20,1,$1+$1,$8,$9,$2,$3,0*%
G04 Aperture macros list end*
%ADD10C,2.500000*%
%ADD11RoundRect,0.250000X0.450000X-0.350000X0.450000X0.350000X-0.450000X0.350000X-0.450000X-0.350000X0*%
%ADD12R,1.000000X1.500000*%
%ADD13R,1.500000X1.000000*%
%ADD14R,2.600000X2.600000*%
%ADD15C,2.600000*%
%ADD16RoundRect,0.250000X0.350000X0.450000X-0.350000X0.450000X-0.350000X-0.450000X0.350000X-0.450000X0*%
%ADD17RoundRect,0.137500X-0.262500X0.137500X-0.262500X-0.137500X0.262500X-0.137500X0.262500X0.137500X0*%
%ADD18RoundRect,0.250000X-0.450000X0.350000X-0.450000X-0.350000X0.450000X-0.350000X0.450000X0.350000X0*%
%ADD19RoundRect,0.150000X-0.512500X-0.150000X0.512500X-0.150000X0.512500X0.150000X-0.512500X0.150000X0*%
%ADD20RoundRect,0.375000X-0.375000X0.575000X-0.375000X-0.575000X0.375000X-0.575000X0.375000X0.575000X0*%
%ADD21RoundRect,0.250000X-0.350000X-0.450000X0.350000X-0.450000X0.350000X0.450000X-0.350000X0.450000X0*%
%ADD22R,1.700000X1.700000*%
%ADD23O,1.700000X1.700000*%
G04 APERTURE END LIST*
D10*
%TO.C,H2*%
X157480000Y-78181200D03*
%TD*%
D11*
%TO.C,R1*%
X148386800Y-69376800D03*
X148386800Y-67376800D03*
%TD*%
D12*
%TO.C,JP1*%
X148346400Y-59740800D03*
X149646400Y-59740800D03*
%TD*%
D13*
%TO.C,JP2*%
X148386800Y-72248000D03*
X148386800Y-73548000D03*
%TD*%
D14*
%TO.C,J3*%
X155778200Y-72110600D03*
D15*
X155778200Y-67110600D03*
%TD*%
D16*
%TO.C,R4*%
X143925800Y-72237600D03*
X141925800Y-72237600D03*
%TD*%
D10*
%TO.C,H1*%
X157580000Y-61281200D03*
%TD*%
D17*
%TO.C,U1*%
X148367600Y-64170600D03*
X148367600Y-63220600D03*
X148367600Y-62270600D03*
X145967600Y-62270600D03*
X145967600Y-63220600D03*
X145967600Y-64170600D03*
%TD*%
D18*
%TO.C,R3*%
X143789400Y-62322200D03*
X143789400Y-64322200D03*
%TD*%
D19*
%TO.C,U2*%
X141635900Y-67045800D03*
X141635900Y-67995800D03*
X141635900Y-68945800D03*
X143910900Y-68945800D03*
X143910900Y-67045800D03*
%TD*%
D20*
%TO.C,mosfet1*%
X134213600Y-68081804D03*
X136753600Y-68081804D03*
X136753600Y-59781804D03*
X134213600Y-59781804D03*
%TD*%
D21*
%TO.C,R5*%
X133950200Y-73736200D03*
X135950200Y-73736200D03*
%TD*%
D18*
%TO.C,R2*%
X140614400Y-62322200D03*
X140614400Y-64322200D03*
%TD*%
D22*
%TO.C,J1*%
X128575000Y-62145000D03*
D23*
X128575000Y-64685000D03*
X128575000Y-67225000D03*
X128575000Y-69765000D03*
X128575000Y-72305000D03*
X128575000Y-74845000D03*
X128575000Y-77385000D03*
%TD*%
M02*
