%TF.GenerationSoftware,KiCad,Pcbnew,7.0.2*%
%TF.CreationDate,2023-10-27T14:15:15+02:00*%
%TF.ProjectId,testboard AL5801,74657374-626f-4617-9264-20414c353830,rev?*%
%TF.SameCoordinates,Original*%
%TF.FileFunction,Copper,L1,Top*%
%TF.FilePolarity,Positive*%
%FSLAX46Y46*%
G04 Gerber Fmt 4.6, Leading zero omitted, Abs format (unit mm)*
G04 Created by KiCad (PCBNEW 7.0.2) date 2023-10-27 14:15:15*
%MOMM*%
%LPD*%
G01*
G04 APERTURE LIST*
G04 Aperture macros list*
%AMRoundRect*
0 Rectangle with rounded corners*
0 $1 Rounding radius*
0 $2 $3 $4 $5 $6 $7 $8 $9 X,Y pos of 4 corners*
0 Add a 4 corners polygon primitive as box body*
4,1,4,$2,$3,$4,$5,$6,$7,$8,$9,$2,$3,0*
0 Add four circle primitives for the rounded corners*
1,1,$1+$1,$2,$3*
1,1,$1+$1,$4,$5*
1,1,$1+$1,$6,$7*
1,1,$1+$1,$8,$9*
0 Add four rect primitives between the rounded corners*
20,1,$1+$1,$2,$3,$4,$5,0*
20,1,$1+$1,$4,$5,$6,$7,0*
20,1,$1+$1,$6,$7,$8,$9,0*
20,1,$1+$1,$8,$9,$2,$3,0*%
G04 Aperture macros list end*
%TA.AperFunction,SMDPad,CuDef*%
%ADD10RoundRect,0.250000X0.450000X-0.350000X0.450000X0.350000X-0.450000X0.350000X-0.450000X-0.350000X0*%
%TD*%
%TA.AperFunction,SMDPad,CuDef*%
%ADD11R,1.000000X1.500000*%
%TD*%
%TA.AperFunction,SMDPad,CuDef*%
%ADD12R,1.500000X1.000000*%
%TD*%
%TA.AperFunction,ComponentPad*%
%ADD13R,2.600000X2.600000*%
%TD*%
%TA.AperFunction,ComponentPad*%
%ADD14C,2.600000*%
%TD*%
%TA.AperFunction,SMDPad,CuDef*%
%ADD15RoundRect,0.250000X0.350000X0.450000X-0.350000X0.450000X-0.350000X-0.450000X0.350000X-0.450000X0*%
%TD*%
%TA.AperFunction,SMDPad,CuDef*%
%ADD16RoundRect,0.137500X-0.262500X0.137500X-0.262500X-0.137500X0.262500X-0.137500X0.262500X0.137500X0*%
%TD*%
%TA.AperFunction,SMDPad,CuDef*%
%ADD17RoundRect,0.250000X-0.450000X0.350000X-0.450000X-0.350000X0.450000X-0.350000X0.450000X0.350000X0*%
%TD*%
%TA.AperFunction,SMDPad,CuDef*%
%ADD18RoundRect,0.150000X-0.512500X-0.150000X0.512500X-0.150000X0.512500X0.150000X-0.512500X0.150000X0*%
%TD*%
%TA.AperFunction,SMDPad,CuDef*%
%ADD19RoundRect,0.375000X-0.375000X0.575000X-0.375000X-0.575000X0.375000X-0.575000X0.375000X0.575000X0*%
%TD*%
%TA.AperFunction,SMDPad,CuDef*%
%ADD20RoundRect,0.250000X-0.350000X-0.450000X0.350000X-0.450000X0.350000X0.450000X-0.350000X0.450000X0*%
%TD*%
%TA.AperFunction,ComponentPad*%
%ADD21R,1.700000X1.700000*%
%TD*%
%TA.AperFunction,ComponentPad*%
%ADD22O,1.700000X1.700000*%
%TD*%
%TA.AperFunction,ViaPad*%
%ADD23C,1.000000*%
%TD*%
%TA.AperFunction,ViaPad*%
%ADD24C,0.800000*%
%TD*%
%TA.AperFunction,Conductor*%
%ADD25C,0.500000*%
%TD*%
%TA.AperFunction,Conductor*%
%ADD26C,0.250000*%
%TD*%
%TA.AperFunction,Conductor*%
%ADD27C,0.200000*%
%TD*%
G04 APERTURE END LIST*
D10*
%TO.P,R1,1*%
%TO.N,/led+*%
X148386800Y-69376800D03*
%TO.P,R1,2*%
%TO.N,Net-(U1-BIAS)*%
X148386800Y-67376800D03*
%TD*%
D11*
%TO.P,JP1,1,A*%
%TO.N,/enable*%
X148346400Y-59740800D03*
%TO.P,JP1,2,B*%
%TO.N,/led+*%
X149646400Y-59740800D03*
%TD*%
D12*
%TO.P,JP2,1,A*%
%TO.N,/led-*%
X148386800Y-72248000D03*
%TO.P,JP2,2,B*%
%TO.N,GND*%
X148386800Y-73548000D03*
%TD*%
D13*
%TO.P,J3,1,Pin_1*%
%TO.N,/led+*%
X155778200Y-72110600D03*
D14*
%TO.P,J3,2,Pin_2*%
%TO.N,/led-*%
X155778200Y-67110600D03*
%TD*%
D15*
%TO.P,R4,1*%
%TO.N,/led+*%
X143925800Y-72237600D03*
%TO.P,R4,2*%
%TO.N,/enable*%
X141925800Y-72237600D03*
%TD*%
D16*
%TO.P,U1,1,BIAS*%
%TO.N,Net-(U1-BIAS)*%
X148367600Y-64170600D03*
%TO.P,U1,2,FB*%
%TO.N,Net-(U1-FB)*%
X148367600Y-63220600D03*
%TO.P,U1,3,OUT*%
%TO.N,/led-*%
X148367600Y-62270600D03*
%TO.P,U1,4,REXT*%
%TO.N,Net-(U1-FB)*%
X145967600Y-62270600D03*
%TO.P,U1,5,COMP*%
%TO.N,unconnected-(U1-COMP-Pad5)*%
X145967600Y-63220600D03*
%TO.P,U1,6,GND*%
%TO.N,GND*%
X145967600Y-64170600D03*
%TD*%
D17*
%TO.P,R3,1*%
%TO.N,Net-(U1-FB)*%
X143789400Y-62322200D03*
%TO.P,R3,2*%
%TO.N,GND*%
X143789400Y-64322200D03*
%TD*%
D18*
%TO.P,U2,1*%
%TO.N,/ad0*%
X141635900Y-67045800D03*
%TO.P,U2,2,GND*%
%TO.N,GND*%
X141635900Y-67995800D03*
%TO.P,U2,3,+*%
%TO.N,/enable*%
X141635900Y-68945800D03*
%TO.P,U2,4,-*%
%TO.N,/led+*%
X143910900Y-68945800D03*
%TO.P,U2,5,V+*%
%TO.N,+3V3*%
X143910900Y-67045800D03*
%TD*%
D19*
%TO.P,mosfet1,1*%
%TO.N,/I{slash}O*%
X134213600Y-68081804D03*
%TO.P,mosfet1,2*%
%TO.N,GND*%
X136753600Y-68081804D03*
%TO.P,mosfet1,3*%
%TO.N,/enable*%
X136753600Y-59781804D03*
%TO.P,mosfet1,4*%
%TO.N,VSS*%
X134213600Y-59781804D03*
%TD*%
D20*
%TO.P,R5,1*%
%TO.N,GND*%
X133950200Y-73736200D03*
%TO.P,R5,2*%
%TO.N,/ad0*%
X135950200Y-73736200D03*
%TD*%
D17*
%TO.P,R2,1*%
%TO.N,Net-(U1-FB)*%
X140614400Y-62322200D03*
%TO.P,R2,2*%
%TO.N,GND*%
X140614400Y-64322200D03*
%TD*%
D21*
%TO.P,J1,1,Pin_1*%
%TO.N,VSS*%
X128575000Y-62145000D03*
D22*
%TO.P,J1,2,Pin_2*%
%TO.N,+3V3*%
X128575000Y-64685000D03*
%TO.P,J1,3,Pin_3*%
%TO.N,/I{slash}O*%
X128575000Y-67225000D03*
%TO.P,J1,4,Pin_4*%
%TO.N,/scl*%
X128575000Y-69765000D03*
%TO.P,J1,5,Pin_5*%
%TO.N,/sda*%
X128575000Y-72305000D03*
%TO.P,J1,6,Pin_6*%
%TO.N,/ad0*%
X128575000Y-74845000D03*
%TO.P,J1,7,Pin_7*%
%TO.N,GND*%
X128575000Y-77385000D03*
%TD*%
D23*
%TO.N,/led+*%
X152450800Y-59766200D03*
D24*
%TO.N,/enable*%
X139950000Y-72825000D03*
X141475000Y-59740800D03*
%TD*%
D25*
%TO.N,VSS*%
X131613955Y-62145000D02*
X128575000Y-62145000D01*
X134213600Y-59781804D02*
X133977151Y-59781804D01*
X133977151Y-59781804D02*
X131613955Y-62145000D01*
%TO.N,/led-*%
X150938200Y-62270600D02*
X155778200Y-67110600D01*
X150640800Y-72248000D02*
X148386800Y-72248000D01*
X148367600Y-62270600D02*
X150938200Y-62270600D01*
X155778200Y-67110600D02*
X150640800Y-72248000D01*
D26*
%TO.N,Net-(U1-BIAS)*%
X148367600Y-67357600D02*
X148386800Y-67376800D01*
X148367600Y-64170600D02*
X148367600Y-67357600D01*
%TO.N,Net-(U1-FB)*%
X143841000Y-62270600D02*
X143789400Y-62322200D01*
X145967600Y-62270600D02*
X143841000Y-62270600D01*
X147971674Y-63220600D02*
X147021674Y-62270600D01*
X143789400Y-62322200D02*
X140614400Y-62322200D01*
X147021674Y-62270600D02*
X145967600Y-62270600D01*
X148367600Y-63220600D02*
X147971674Y-63220600D01*
%TO.N,+3V3*%
X142752700Y-65887600D02*
X129777600Y-65887600D01*
X129777600Y-65887600D02*
X128575000Y-64685000D01*
X143910900Y-67045800D02*
X142752700Y-65887600D01*
%TO.N,/I{slash}O*%
X129431804Y-68081804D02*
X128575000Y-67225000D01*
X134213600Y-68081804D02*
X129431804Y-68081804D01*
%TO.N,/ad0*%
X134841400Y-74845000D02*
X128575000Y-74845000D01*
X135950200Y-73736200D02*
X137083800Y-73736200D01*
X138861800Y-67665600D02*
X139481600Y-67045800D01*
X137083800Y-73736200D02*
X138861800Y-71958200D01*
X135950200Y-73736200D02*
X134841400Y-74845000D01*
X138861800Y-71958200D02*
X138861800Y-67665600D01*
X139481600Y-67045800D02*
X141635900Y-67045800D01*
D25*
%TO.N,/led+*%
X155778200Y-72110600D02*
X151358600Y-76530200D01*
X151358600Y-76530200D02*
X145211800Y-76530200D01*
D27*
X152425400Y-59740800D02*
X152450800Y-59766200D01*
D25*
X144341900Y-69376800D02*
X143910900Y-68945800D01*
X143925800Y-68960700D02*
X143910900Y-68945800D01*
X149646400Y-59740800D02*
X152425400Y-59740800D01*
X148386800Y-69376800D02*
X144341900Y-69376800D01*
X143925800Y-75244200D02*
X143925800Y-72237600D01*
X143925800Y-72237600D02*
X143925800Y-68960700D01*
X145211800Y-76530200D02*
X143925800Y-75244200D01*
%TO.N,/enable*%
X148346400Y-59740800D02*
X141475000Y-59740800D01*
X141925800Y-72237600D02*
X141635900Y-71947700D01*
X140537400Y-72237600D02*
X139950000Y-72825000D01*
X136794604Y-59740800D02*
X136753600Y-59781804D01*
X141635900Y-71947700D02*
X141635900Y-68945800D01*
X141925800Y-72237600D02*
X140537400Y-72237600D01*
X141475000Y-59740800D02*
X136794604Y-59740800D01*
%TD*%
%TA.AperFunction,Conductor*%
%TO.N,GND*%
G36*
X133306913Y-58301385D02*
G01*
X133352668Y-58354189D01*
X133362612Y-58423347D01*
X133333587Y-58486903D01*
X133317561Y-58502347D01*
X133215878Y-58584082D01*
X133096571Y-58732506D01*
X133011959Y-58903110D01*
X132965999Y-59087916D01*
X132963241Y-59128587D01*
X132963240Y-59128616D01*
X132963100Y-59130681D01*
X132963100Y-59132778D01*
X132963100Y-59683125D01*
X132943415Y-59750164D01*
X132926781Y-59770806D01*
X131339406Y-61358181D01*
X131278083Y-61391666D01*
X131251725Y-61394500D01*
X130049499Y-61394500D01*
X129982460Y-61374815D01*
X129936705Y-61322011D01*
X129925499Y-61270500D01*
X129925499Y-61250439D01*
X129925499Y-61247128D01*
X129919091Y-61187517D01*
X129868796Y-61052669D01*
X129782546Y-60937454D01*
X129667331Y-60851204D01*
X129532483Y-60800909D01*
X129472873Y-60794500D01*
X129469550Y-60794500D01*
X127680439Y-60794500D01*
X127680420Y-60794500D01*
X127677128Y-60794501D01*
X127673848Y-60794853D01*
X127673840Y-60794854D01*
X127617515Y-60800909D01*
X127482669Y-60851204D01*
X127367454Y-60937454D01*
X127281204Y-61052668D01*
X127230910Y-61187515D01*
X127230909Y-61187517D01*
X127224500Y-61247127D01*
X127224500Y-61250448D01*
X127224500Y-61250449D01*
X127224500Y-63039560D01*
X127224500Y-63039578D01*
X127224501Y-63042872D01*
X127224853Y-63046152D01*
X127224854Y-63046159D01*
X127230909Y-63102484D01*
X127246804Y-63145100D01*
X127281204Y-63237331D01*
X127367454Y-63352546D01*
X127482669Y-63438796D01*
X127594907Y-63480658D01*
X127614082Y-63487810D01*
X127670016Y-63529681D01*
X127694433Y-63595146D01*
X127679581Y-63663419D01*
X127658431Y-63691673D01*
X127536503Y-63813601D01*
X127400965Y-64007170D01*
X127301097Y-64221336D01*
X127239936Y-64449592D01*
X127219340Y-64684999D01*
X127239936Y-64920407D01*
X127258938Y-64991322D01*
X127301097Y-65148663D01*
X127400965Y-65362830D01*
X127536505Y-65556401D01*
X127703599Y-65723495D01*
X127889160Y-65853426D01*
X127932783Y-65908002D01*
X127939976Y-65977501D01*
X127908454Y-66039855D01*
X127889159Y-66056575D01*
X127703595Y-66186508D01*
X127536505Y-66353598D01*
X127400965Y-66547170D01*
X127301097Y-66761336D01*
X127239936Y-66989592D01*
X127219340Y-67225000D01*
X127239936Y-67460407D01*
X127274623Y-67589861D01*
X127301097Y-67688663D01*
X127400965Y-67902830D01*
X127536505Y-68096401D01*
X127703599Y-68263495D01*
X127889160Y-68393426D01*
X127932783Y-68448002D01*
X127939976Y-68517501D01*
X127908454Y-68579855D01*
X127889159Y-68596575D01*
X127858738Y-68617875D01*
X127704555Y-68725836D01*
X127703595Y-68726508D01*
X127536505Y-68893598D01*
X127400965Y-69087170D01*
X127301097Y-69301336D01*
X127239936Y-69529592D01*
X127219340Y-69765000D01*
X127239936Y-70000407D01*
X127252189Y-70046134D01*
X127301097Y-70228663D01*
X127400965Y-70442830D01*
X127536505Y-70636401D01*
X127703599Y-70803495D01*
X127889160Y-70933426D01*
X127932783Y-70988002D01*
X127939976Y-71057501D01*
X127908454Y-71119855D01*
X127889159Y-71136575D01*
X127703595Y-71266508D01*
X127536505Y-71433598D01*
X127400965Y-71627170D01*
X127301097Y-71841336D01*
X127239936Y-72069592D01*
X127219340Y-72305000D01*
X127239936Y-72540407D01*
X127280954Y-72693487D01*
X127301097Y-72768663D01*
X127400965Y-72982830D01*
X127536505Y-73176401D01*
X127703599Y-73343495D01*
X127889160Y-73473426D01*
X127932783Y-73528002D01*
X127939976Y-73597501D01*
X127908454Y-73659855D01*
X127889158Y-73676575D01*
X127715746Y-73798000D01*
X127703595Y-73806508D01*
X127536505Y-73973598D01*
X127400965Y-74167170D01*
X127301097Y-74381336D01*
X127239936Y-74609592D01*
X127219340Y-74844999D01*
X127239936Y-75080407D01*
X127277936Y-75222223D01*
X127301097Y-75308663D01*
X127400965Y-75522830D01*
X127536505Y-75716401D01*
X127703599Y-75883495D01*
X127889596Y-76013732D01*
X127933219Y-76068307D01*
X127940412Y-76137806D01*
X127908890Y-76200160D01*
X127889595Y-76216880D01*
X127703919Y-76346892D01*
X127536890Y-76513921D01*
X127401400Y-76707421D01*
X127301569Y-76921507D01*
X127244364Y-77134999D01*
X127244364Y-77135000D01*
X128141314Y-77135000D01*
X128115507Y-77175156D01*
X128075000Y-77313111D01*
X128075000Y-77456889D01*
X128115507Y-77594844D01*
X128141314Y-77635000D01*
X127244364Y-77635000D01*
X127301569Y-77848492D01*
X127401399Y-78062576D01*
X127536893Y-78256081D01*
X127703918Y-78423106D01*
X127897423Y-78558600D01*
X128111509Y-78658430D01*
X128325000Y-78715634D01*
X128325000Y-77820501D01*
X128432685Y-77869680D01*
X128539237Y-77885000D01*
X128610763Y-77885000D01*
X128717315Y-77869680D01*
X128825000Y-77820501D01*
X128825000Y-78715633D01*
X129038490Y-78658430D01*
X129252576Y-78558600D01*
X129446081Y-78423106D01*
X129563653Y-78305534D01*
X155979500Y-78305534D01*
X156020429Y-78550815D01*
X156077012Y-78715634D01*
X156101172Y-78786010D01*
X156219526Y-79004709D01*
X156219529Y-79004714D01*
X156355036Y-79178812D01*
X156372262Y-79200944D01*
X156555215Y-79369364D01*
X156763393Y-79505373D01*
X156991119Y-79605263D01*
X157232179Y-79666308D01*
X157417933Y-79681700D01*
X157420503Y-79681700D01*
X157539497Y-79681700D01*
X157542067Y-79681700D01*
X157727821Y-79666308D01*
X157968881Y-79605263D01*
X158196607Y-79505373D01*
X158404785Y-79369364D01*
X158587738Y-79200944D01*
X158740474Y-79004709D01*
X158858828Y-78786010D01*
X158939571Y-78550814D01*
X158980500Y-78305535D01*
X158980500Y-78056865D01*
X158939571Y-77811586D01*
X158858828Y-77576390D01*
X158740474Y-77357691D01*
X158740471Y-77357687D01*
X158740470Y-77357685D01*
X158622508Y-77206129D01*
X158587738Y-77161456D01*
X158404785Y-76993036D01*
X158196607Y-76857027D01*
X158196604Y-76857025D01*
X158071523Y-76802160D01*
X157968881Y-76757137D01*
X157772558Y-76707421D01*
X157727822Y-76696092D01*
X157693854Y-76693277D01*
X157542067Y-76680700D01*
X157417933Y-76680700D01*
X157300111Y-76690462D01*
X157232177Y-76696092D01*
X157110086Y-76727010D01*
X156991119Y-76757137D01*
X156991116Y-76757138D01*
X156991117Y-76757138D01*
X156763395Y-76857025D01*
X156624607Y-76947699D01*
X156555215Y-76993036D01*
X156425845Y-77112130D01*
X156372259Y-77161459D01*
X156219529Y-77357685D01*
X156101170Y-77576394D01*
X156020429Y-77811584D01*
X155979500Y-78056865D01*
X155979500Y-78305534D01*
X129563653Y-78305534D01*
X129613106Y-78256081D01*
X129748600Y-78062576D01*
X129848430Y-77848492D01*
X129905636Y-77635000D01*
X129008686Y-77635000D01*
X129034493Y-77594844D01*
X129075000Y-77456889D01*
X129075000Y-77313111D01*
X129034493Y-77175156D01*
X129008686Y-77135000D01*
X129905636Y-77135000D01*
X129905635Y-77134999D01*
X129848430Y-76921507D01*
X129748599Y-76707421D01*
X129613109Y-76513921D01*
X129446081Y-76346893D01*
X129260404Y-76216880D01*
X129216780Y-76162303D01*
X129209587Y-76092804D01*
X129241109Y-76030450D01*
X129260399Y-76013734D01*
X129446401Y-75883495D01*
X129613495Y-75716401D01*
X129748653Y-75523374D01*
X129803229Y-75479752D01*
X129850227Y-75470500D01*
X134758656Y-75470500D01*
X134779162Y-75472764D01*
X134782065Y-75472672D01*
X134782067Y-75472673D01*
X134849272Y-75470561D01*
X134853168Y-75470500D01*
X134876848Y-75470500D01*
X134880750Y-75470500D01*
X134884713Y-75469999D01*
X134896362Y-75469080D01*
X134940027Y-75467709D01*
X134959259Y-75462120D01*
X134978318Y-75458174D01*
X134984596Y-75457381D01*
X134998192Y-75455664D01*
X135038807Y-75439582D01*
X135049844Y-75435803D01*
X135091790Y-75423618D01*
X135109029Y-75413422D01*
X135126502Y-75404862D01*
X135145132Y-75397486D01*
X135180464Y-75371814D01*
X135190230Y-75365400D01*
X135227818Y-75343171D01*
X135227817Y-75343171D01*
X135227820Y-75343170D01*
X135241985Y-75329004D01*
X135256773Y-75316373D01*
X135272987Y-75304594D01*
X135300838Y-75270926D01*
X135308679Y-75262309D01*
X135597970Y-74973018D01*
X135659294Y-74939533D01*
X135685652Y-74936699D01*
X136347059Y-74936699D01*
X136350208Y-74936699D01*
X136452997Y-74926199D01*
X136619534Y-74871014D01*
X136768856Y-74778912D01*
X136892912Y-74654856D01*
X136985014Y-74505534D01*
X137004510Y-74446695D01*
X137044282Y-74389252D01*
X137108797Y-74362428D01*
X137120928Y-74361769D01*
X137115357Y-74361945D01*
X137119243Y-74361700D01*
X137123150Y-74361700D01*
X137127113Y-74361199D01*
X137138762Y-74360280D01*
X137182427Y-74358909D01*
X137201659Y-74353320D01*
X137220718Y-74349374D01*
X137226996Y-74348581D01*
X137240592Y-74346864D01*
X137281207Y-74330782D01*
X137292244Y-74327003D01*
X137334190Y-74314818D01*
X137351429Y-74304622D01*
X137368902Y-74296062D01*
X137387532Y-74288686D01*
X137422864Y-74263014D01*
X137432630Y-74256600D01*
X137470218Y-74234371D01*
X137470217Y-74234371D01*
X137470220Y-74234370D01*
X137484385Y-74220204D01*
X137499173Y-74207573D01*
X137515387Y-74195794D01*
X137543238Y-74162126D01*
X137551079Y-74153509D01*
X138845026Y-72859562D01*
X138906347Y-72826079D01*
X138976039Y-72831063D01*
X139031972Y-72872935D01*
X139056026Y-72934283D01*
X139064326Y-73013257D01*
X139122820Y-73193284D01*
X139217466Y-73357216D01*
X139344129Y-73497889D01*
X139497269Y-73609151D01*
X139670197Y-73686144D01*
X139855352Y-73725500D01*
X139855354Y-73725500D01*
X140044648Y-73725500D01*
X140168083Y-73699262D01*
X140229803Y-73686144D01*
X140402730Y-73609151D01*
X140480704Y-73552500D01*
X140555870Y-73497889D01*
X140591361Y-73458473D01*
X140682533Y-73357216D01*
X140726933Y-73280313D01*
X140783696Y-73181997D01*
X140786897Y-73183845D01*
X140813633Y-73144719D01*
X140877983Y-73117501D01*
X140946833Y-73129393D01*
X140979838Y-73153007D01*
X141107142Y-73280311D01*
X141116393Y-73286017D01*
X141256466Y-73372414D01*
X141367816Y-73409312D01*
X141423002Y-73427599D01*
X141522658Y-73437780D01*
X141522659Y-73437780D01*
X141525791Y-73438100D01*
X142325808Y-73438099D01*
X142428597Y-73427599D01*
X142595134Y-73372414D01*
X142744456Y-73280312D01*
X142838120Y-73186647D01*
X142899441Y-73153164D01*
X142969133Y-73158148D01*
X143013481Y-73186649D01*
X143107144Y-73280312D01*
X143116396Y-73286019D01*
X143163120Y-73337964D01*
X143175300Y-73391557D01*
X143175300Y-75180494D01*
X143173991Y-75198464D01*
X143170511Y-75222223D01*
X143174828Y-75271568D01*
X143175300Y-75282375D01*
X143175300Y-75287909D01*
X143175716Y-75291472D01*
X143175717Y-75291482D01*
X143178898Y-75318696D01*
X143179264Y-75322282D01*
X143185909Y-75398241D01*
X143190129Y-75417271D01*
X143190558Y-75418451D01*
X143190559Y-75418455D01*
X143216213Y-75488942D01*
X143217382Y-75492307D01*
X143241380Y-75564724D01*
X143249875Y-75582272D01*
X143291779Y-75645984D01*
X143293689Y-75648982D01*
X143333088Y-75712856D01*
X143333752Y-75713932D01*
X143346053Y-75729030D01*
X143346968Y-75729893D01*
X143346970Y-75729896D01*
X143396755Y-75776866D01*
X143401509Y-75781351D01*
X143404096Y-75783864D01*
X144636067Y-77015834D01*
X144647848Y-77029466D01*
X144662190Y-77048730D01*
X144668711Y-77054202D01*
X144700139Y-77080573D01*
X144708114Y-77087881D01*
X144712024Y-77091791D01*
X144733826Y-77109030D01*
X144736341Y-77111018D01*
X144739104Y-77113269D01*
X144796586Y-77161502D01*
X144796588Y-77161503D01*
X144797550Y-77162310D01*
X144813980Y-77172778D01*
X144815122Y-77173310D01*
X144815123Y-77173311D01*
X144883150Y-77205032D01*
X144886327Y-77206571D01*
X144952467Y-77239788D01*
X144954502Y-77240810D01*
X144972885Y-77247199D01*
X144974122Y-77247454D01*
X144974128Y-77247457D01*
X145047652Y-77262637D01*
X145051086Y-77263399D01*
X145079310Y-77270089D01*
X145125306Y-77280991D01*
X145144679Y-77282970D01*
X145145941Y-77282933D01*
X145145945Y-77282934D01*
X145218334Y-77280827D01*
X145220932Y-77280752D01*
X145224538Y-77280700D01*
X151294894Y-77280700D01*
X151312864Y-77282009D01*
X151316920Y-77282602D01*
X151336623Y-77285489D01*
X151385968Y-77281172D01*
X151396776Y-77280700D01*
X151398700Y-77280700D01*
X151402309Y-77280700D01*
X151433150Y-77277094D01*
X151436631Y-77276739D01*
X151511397Y-77270199D01*
X151511397Y-77270198D01*
X151512652Y-77270089D01*
X151531662Y-77265874D01*
X151532850Y-77265441D01*
X151532855Y-77265441D01*
X151603420Y-77239757D01*
X151606695Y-77238619D01*
X151677934Y-77215014D01*
X151677936Y-77215012D01*
X151679136Y-77214615D01*
X151696663Y-77206129D01*
X151697712Y-77205438D01*
X151697717Y-77205437D01*
X151760406Y-77164205D01*
X151763398Y-77162299D01*
X151827256Y-77122912D01*
X151827256Y-77122911D01*
X151828329Y-77122250D01*
X151843424Y-77109953D01*
X151844292Y-77109032D01*
X151844296Y-77109030D01*
X151895785Y-77054453D01*
X151898231Y-77051935D01*
X155002748Y-73947417D01*
X155064071Y-73913933D01*
X155090429Y-73911099D01*
X157122761Y-73911099D01*
X157126072Y-73911099D01*
X157185683Y-73904691D01*
X157320531Y-73854396D01*
X157435746Y-73768146D01*
X157521996Y-73652931D01*
X157572291Y-73518083D01*
X157578700Y-73458473D01*
X157578699Y-70762728D01*
X157572291Y-70703117D01*
X157521996Y-70568269D01*
X157435746Y-70453054D01*
X157320531Y-70366804D01*
X157185683Y-70316509D01*
X157126073Y-70310100D01*
X157122750Y-70310100D01*
X154433639Y-70310100D01*
X154433620Y-70310100D01*
X154430328Y-70310101D01*
X154427048Y-70310453D01*
X154427040Y-70310454D01*
X154370715Y-70316509D01*
X154235869Y-70366804D01*
X154120654Y-70453054D01*
X154034404Y-70568268D01*
X153984110Y-70703115D01*
X153984109Y-70703117D01*
X153977700Y-70762727D01*
X153977700Y-70766049D01*
X153977700Y-72798369D01*
X153958015Y-72865408D01*
X153941381Y-72886050D01*
X151084051Y-75743381D01*
X151022728Y-75776866D01*
X150996370Y-75779700D01*
X145574029Y-75779700D01*
X145506990Y-75760015D01*
X145486348Y-75743381D01*
X144712619Y-74969651D01*
X144679134Y-74908328D01*
X144676300Y-74881970D01*
X144676300Y-73798000D01*
X147136800Y-73798000D01*
X147136800Y-74092518D01*
X147137154Y-74099132D01*
X147143200Y-74155371D01*
X147193447Y-74290089D01*
X147279611Y-74405188D01*
X147394710Y-74491352D01*
X147529428Y-74541599D01*
X147585667Y-74547645D01*
X147592282Y-74548000D01*
X148136800Y-74548000D01*
X148136800Y-73798000D01*
X148636800Y-73798000D01*
X148636800Y-74548000D01*
X149181318Y-74548000D01*
X149187932Y-74547645D01*
X149244171Y-74541599D01*
X149378889Y-74491352D01*
X149493988Y-74405188D01*
X149580152Y-74290089D01*
X149630399Y-74155371D01*
X149636445Y-74099132D01*
X149636800Y-74092518D01*
X149636800Y-73798000D01*
X148636800Y-73798000D01*
X148136800Y-73798000D01*
X147136800Y-73798000D01*
X144676300Y-73798000D01*
X144676300Y-73391557D01*
X144695985Y-73324518D01*
X144735202Y-73286019D01*
X144744456Y-73280312D01*
X144868512Y-73156256D01*
X144960614Y-73006934D01*
X145015799Y-72840397D01*
X145026300Y-72737609D01*
X145026299Y-71737592D01*
X145015799Y-71634803D01*
X144960614Y-71468266D01*
X144903392Y-71375495D01*
X144868511Y-71318942D01*
X144744457Y-71194888D01*
X144735200Y-71189178D01*
X144688477Y-71137229D01*
X144676300Y-71083641D01*
X144676300Y-70251300D01*
X144695985Y-70184261D01*
X144748789Y-70138506D01*
X144800300Y-70127300D01*
X147232842Y-70127300D01*
X147299881Y-70146985D01*
X147338381Y-70186204D01*
X147344088Y-70195457D01*
X147468142Y-70319511D01*
X147468144Y-70319512D01*
X147617466Y-70411614D01*
X147728816Y-70448512D01*
X147784002Y-70466799D01*
X147883658Y-70476980D01*
X147883659Y-70476980D01*
X147886791Y-70477300D01*
X148886808Y-70477299D01*
X148989597Y-70466799D01*
X149156134Y-70411614D01*
X149305456Y-70319512D01*
X149429512Y-70195456D01*
X149521614Y-70046134D01*
X149576799Y-69879597D01*
X149587300Y-69776809D01*
X149587299Y-68976792D01*
X149576799Y-68874003D01*
X149521614Y-68707466D01*
X149449756Y-68590965D01*
X149429511Y-68558142D01*
X149335849Y-68464480D01*
X149302364Y-68403157D01*
X149307348Y-68333465D01*
X149335848Y-68289119D01*
X149429512Y-68195456D01*
X149521614Y-68046134D01*
X149576799Y-67879597D01*
X149587300Y-67776809D01*
X149587299Y-66976792D01*
X149576799Y-66874003D01*
X149521614Y-66707466D01*
X149442009Y-66578405D01*
X149429511Y-66558142D01*
X149305457Y-66434088D01*
X149156135Y-66341986D01*
X149078095Y-66316126D01*
X149020650Y-66276352D01*
X148993828Y-66211836D01*
X148993100Y-66198420D01*
X148993100Y-64898731D01*
X149012785Y-64831692D01*
X149029419Y-64811050D01*
X149029419Y-64811049D01*
X149138226Y-64702243D01*
X149220281Y-64563494D01*
X149265254Y-64408698D01*
X149268100Y-64372535D01*
X149268099Y-63968666D01*
X149265254Y-63932502D01*
X149220281Y-63777706D01*
X149209054Y-63758722D01*
X149191870Y-63690999D01*
X149209054Y-63632478D01*
X149212042Y-63627426D01*
X149220281Y-63613494D01*
X149265254Y-63458698D01*
X149268100Y-63422535D01*
X149268099Y-63145098D01*
X149287783Y-63078061D01*
X149340587Y-63032306D01*
X149392099Y-63021100D01*
X150575970Y-63021100D01*
X150643009Y-63040785D01*
X150663651Y-63057419D01*
X154032598Y-66426365D01*
X154066083Y-66487688D01*
X154061099Y-66557380D01*
X154060374Y-66559272D01*
X154054543Y-66574131D01*
X154052865Y-66578407D01*
X153992816Y-66841499D01*
X153972650Y-67110599D01*
X153992816Y-67379700D01*
X154052867Y-67642800D01*
X154060345Y-67661854D01*
X154066512Y-67731451D01*
X154034073Y-67793333D01*
X154032597Y-67794834D01*
X150366251Y-71461181D01*
X150304928Y-71494666D01*
X150278570Y-71497500D01*
X149636551Y-71497500D01*
X149569512Y-71477815D01*
X149537285Y-71447811D01*
X149494348Y-71390456D01*
X149494346Y-71390455D01*
X149494346Y-71390454D01*
X149379131Y-71304204D01*
X149244283Y-71253909D01*
X149184673Y-71247500D01*
X149181350Y-71247500D01*
X147592239Y-71247500D01*
X147592220Y-71247500D01*
X147588928Y-71247501D01*
X147585648Y-71247853D01*
X147585640Y-71247854D01*
X147529315Y-71253909D01*
X147394469Y-71304204D01*
X147279254Y-71390454D01*
X147193004Y-71505668D01*
X147142709Y-71640516D01*
X147140747Y-71658770D01*
X147136300Y-71700127D01*
X147136300Y-71703448D01*
X147136300Y-71703449D01*
X147136300Y-72792560D01*
X147136300Y-72792578D01*
X147136301Y-72795872D01*
X147136653Y-72799152D01*
X147136654Y-72799159D01*
X147144374Y-72870968D01*
X147143790Y-72871030D01*
X147147655Y-72925074D01*
X147143266Y-72940019D01*
X147137154Y-72996867D01*
X147136800Y-73003481D01*
X147136800Y-73298000D01*
X149636800Y-73298000D01*
X149636800Y-73122500D01*
X149656485Y-73055461D01*
X149709289Y-73009706D01*
X149760800Y-72998500D01*
X150577094Y-72998500D01*
X150595064Y-72999809D01*
X150599120Y-73000402D01*
X150618823Y-73003289D01*
X150668168Y-72998972D01*
X150678976Y-72998500D01*
X150680900Y-72998500D01*
X150684509Y-72998500D01*
X150715350Y-72994894D01*
X150718831Y-72994539D01*
X150793597Y-72987999D01*
X150793597Y-72987998D01*
X150794852Y-72987889D01*
X150813862Y-72983674D01*
X150815050Y-72983241D01*
X150815055Y-72983241D01*
X150885620Y-72957557D01*
X150888895Y-72956419D01*
X150960134Y-72932814D01*
X150960136Y-72932812D01*
X150961336Y-72932415D01*
X150978863Y-72923929D01*
X150979912Y-72923238D01*
X150979917Y-72923237D01*
X151042606Y-72882005D01*
X151045598Y-72880099D01*
X151109456Y-72840712D01*
X151109456Y-72840711D01*
X151110529Y-72840050D01*
X151125624Y-72827753D01*
X151126492Y-72826832D01*
X151126496Y-72826830D01*
X151177984Y-72772254D01*
X151180430Y-72769736D01*
X155096504Y-68853662D01*
X155157825Y-68820179D01*
X155220732Y-68822853D01*
X155376428Y-68870880D01*
X155643271Y-68911100D01*
X155913129Y-68911100D01*
X156179972Y-68870880D01*
X156437841Y-68791338D01*
X156680975Y-68674251D01*
X156903941Y-68522235D01*
X157101761Y-68338685D01*
X157270015Y-68127702D01*
X157404943Y-67893998D01*
X157503534Y-67642795D01*
X157563583Y-67379703D01*
X157583749Y-67110600D01*
X157563583Y-66841497D01*
X157503534Y-66578405D01*
X157404943Y-66327202D01*
X157270015Y-66093498D01*
X157101761Y-65882515D01*
X157076456Y-65859035D01*
X156903943Y-65698966D01*
X156808479Y-65633880D01*
X156680975Y-65546949D01*
X156437841Y-65429862D01*
X156338745Y-65399295D01*
X156179971Y-65350319D01*
X155913129Y-65310100D01*
X155643271Y-65310100D01*
X155376426Y-65350320D01*
X155220732Y-65398345D01*
X155150869Y-65399295D01*
X155096502Y-65367535D01*
X153324113Y-63595146D01*
X151513928Y-61784960D01*
X151502146Y-61771327D01*
X151501515Y-61770480D01*
X151487810Y-61752070D01*
X151486401Y-61750888D01*
X151449866Y-61720231D01*
X151441891Y-61712923D01*
X151440529Y-61711561D01*
X151437977Y-61709009D01*
X151413644Y-61689769D01*
X151410847Y-61687490D01*
X151352451Y-61638490D01*
X151336021Y-61628022D01*
X151266891Y-61595786D01*
X151263647Y-61594215D01*
X151195506Y-61559994D01*
X151177103Y-61553597D01*
X151102411Y-61538174D01*
X151098892Y-61537394D01*
X151024690Y-61519808D01*
X151005321Y-61517829D01*
X150929069Y-61520048D01*
X150925463Y-61520100D01*
X148824599Y-61520100D01*
X148790004Y-61515176D01*
X148767599Y-61508667D01*
X148730699Y-61497946D01*
X148696969Y-61495291D01*
X148696954Y-61495290D01*
X148694535Y-61495100D01*
X148692089Y-61495100D01*
X148043089Y-61495100D01*
X148043063Y-61495100D01*
X148040666Y-61495101D01*
X148038275Y-61495289D01*
X148038252Y-61495290D01*
X148004500Y-61497946D01*
X147849706Y-61542918D01*
X147710956Y-61624974D01*
X147596975Y-61738955D01*
X147594458Y-61743212D01*
X147543387Y-61790894D01*
X147474645Y-61803396D01*
X147410057Y-61776749D01*
X147402843Y-61770480D01*
X147392256Y-61760538D01*
X147374698Y-61750885D01*
X147358438Y-61740204D01*
X147342610Y-61727927D01*
X147302525Y-61710580D01*
X147292035Y-61705441D01*
X147253765Y-61684402D01*
X147234365Y-61679421D01*
X147215958Y-61673119D01*
X147197571Y-61665162D01*
X147154432Y-61658329D01*
X147142998Y-61655961D01*
X147100693Y-61645100D01*
X147080658Y-61645100D01*
X147061260Y-61643573D01*
X147053836Y-61642397D01*
X147041479Y-61640440D01*
X147041478Y-61640440D01*
X147008425Y-61643564D01*
X146997999Y-61644550D01*
X146986330Y-61645100D01*
X146692196Y-61645100D01*
X146629075Y-61627832D01*
X146624243Y-61624974D01*
X146503550Y-61553597D01*
X146485493Y-61542918D01*
X146330701Y-61497946D01*
X146296969Y-61495291D01*
X146296954Y-61495290D01*
X146294535Y-61495100D01*
X146292089Y-61495100D01*
X145643089Y-61495100D01*
X145643063Y-61495100D01*
X145640666Y-61495101D01*
X145638275Y-61495289D01*
X145638252Y-61495290D01*
X145604500Y-61497946D01*
X145449706Y-61542918D01*
X145362968Y-61594215D01*
X145310957Y-61624974D01*
X145310956Y-61624974D01*
X145306125Y-61627832D01*
X145243004Y-61645100D01*
X144988631Y-61645100D01*
X144921592Y-61625415D01*
X144883092Y-61586196D01*
X144832111Y-61503542D01*
X144734104Y-61405535D01*
X156079500Y-61405535D01*
X156097795Y-61515176D01*
X156120429Y-61650815D01*
X156178982Y-61821373D01*
X156201172Y-61886010D01*
X156222456Y-61925339D01*
X156319529Y-62104714D01*
X156455036Y-62278812D01*
X156472262Y-62300944D01*
X156655215Y-62469364D01*
X156863393Y-62605373D01*
X157091119Y-62705263D01*
X157332179Y-62766308D01*
X157517933Y-62781700D01*
X157520503Y-62781700D01*
X157639497Y-62781700D01*
X157642067Y-62781700D01*
X157827821Y-62766308D01*
X158068881Y-62705263D01*
X158296607Y-62605373D01*
X158504785Y-62469364D01*
X158687738Y-62300944D01*
X158840474Y-62104709D01*
X158958828Y-61886010D01*
X159039571Y-61650814D01*
X159080500Y-61405535D01*
X159080500Y-61156865D01*
X159039571Y-60911586D01*
X158958828Y-60676390D01*
X158840474Y-60457691D01*
X158840471Y-60457687D01*
X158840470Y-60457685D01*
X158687740Y-60261459D01*
X158687738Y-60261456D01*
X158504785Y-60093036D01*
X158296607Y-59957027D01*
X158296604Y-59957025D01*
X158171523Y-59902160D01*
X158068881Y-59857137D01*
X157888867Y-59811551D01*
X157827822Y-59796092D01*
X157793854Y-59793277D01*
X157642067Y-59780700D01*
X157517933Y-59780700D01*
X157400111Y-59790462D01*
X157332177Y-59796092D01*
X157210087Y-59827010D01*
X157091119Y-59857137D01*
X157091116Y-59857138D01*
X157091117Y-59857138D01*
X156863395Y-59957025D01*
X156724607Y-60047699D01*
X156655215Y-60093036D01*
X156655213Y-60093037D01*
X156655214Y-60093037D01*
X156472259Y-60261459D01*
X156319529Y-60457685D01*
X156201170Y-60676394D01*
X156120429Y-60911584D01*
X156107127Y-60991300D01*
X156079500Y-61156865D01*
X156079500Y-61405535D01*
X144734104Y-61405535D01*
X144708057Y-61379488D01*
X144558734Y-61287386D01*
X144392197Y-61232200D01*
X144292541Y-61222019D01*
X144292522Y-61222018D01*
X144289409Y-61221700D01*
X144286260Y-61221700D01*
X143292540Y-61221700D01*
X143292520Y-61221700D01*
X143289392Y-61221701D01*
X143286260Y-61222020D01*
X143286258Y-61222021D01*
X143186603Y-61232200D01*
X143020065Y-61287386D01*
X142870742Y-61379488D01*
X142746688Y-61503542D01*
X142663881Y-61637796D01*
X142611933Y-61684521D01*
X142558342Y-61696700D01*
X141845458Y-61696700D01*
X141778419Y-61677015D01*
X141739919Y-61637796D01*
X141657111Y-61503542D01*
X141533057Y-61379488D01*
X141383734Y-61287386D01*
X141217197Y-61232200D01*
X141117541Y-61222019D01*
X141117522Y-61222018D01*
X141114409Y-61221700D01*
X141111260Y-61221700D01*
X140117540Y-61221700D01*
X140117520Y-61221700D01*
X140114392Y-61221701D01*
X140111260Y-61222020D01*
X140111258Y-61222021D01*
X140011603Y-61232200D01*
X139845065Y-61287386D01*
X139695742Y-61379488D01*
X139571688Y-61503542D01*
X139479586Y-61652865D01*
X139424400Y-61819402D01*
X139414219Y-61919058D01*
X139414217Y-61919078D01*
X139413900Y-61922191D01*
X139413900Y-61925338D01*
X139413900Y-61925339D01*
X139413900Y-62719058D01*
X139413900Y-62719077D01*
X139413901Y-62722208D01*
X139414220Y-62725340D01*
X139414221Y-62725341D01*
X139424400Y-62824996D01*
X139479586Y-62991534D01*
X139571688Y-63140857D01*
X139665703Y-63234872D01*
X139699188Y-63296195D01*
X139694204Y-63365887D01*
X139665704Y-63410234D01*
X139572081Y-63503856D01*
X139480042Y-63653077D01*
X139424893Y-63819503D01*
X139414719Y-63919090D01*
X139414400Y-63925368D01*
X139414400Y-64072200D01*
X141814399Y-64072200D01*
X141814399Y-63925370D01*
X141814078Y-63919088D01*
X141803906Y-63819504D01*
X141748757Y-63653077D01*
X141656716Y-63503854D01*
X141563096Y-63410234D01*
X141529611Y-63348911D01*
X141534595Y-63279219D01*
X141563094Y-63234873D01*
X141657112Y-63140856D01*
X141739918Y-63006604D01*
X141791867Y-62959879D01*
X141845458Y-62947700D01*
X142558342Y-62947700D01*
X142625381Y-62967385D01*
X142663881Y-63006604D01*
X142746688Y-63140857D01*
X142840703Y-63234872D01*
X142874188Y-63296195D01*
X142869204Y-63365887D01*
X142840704Y-63410234D01*
X142747081Y-63503856D01*
X142655042Y-63653077D01*
X142599893Y-63819503D01*
X142589719Y-63919090D01*
X142589400Y-63925368D01*
X142589400Y-64072200D01*
X143915400Y-64072200D01*
X143982439Y-64091885D01*
X144028194Y-64144689D01*
X144039400Y-64196200D01*
X144039400Y-65422199D01*
X144286229Y-65422199D01*
X144292511Y-65421878D01*
X144392095Y-65411706D01*
X144558522Y-65356557D01*
X144707745Y-65264516D01*
X144831716Y-65140545D01*
X144923757Y-64991322D01*
X144943998Y-64930241D01*
X145561510Y-64930241D01*
X145604581Y-64942756D01*
X145638282Y-64945408D01*
X145643162Y-64945599D01*
X146292058Y-64945599D01*
X146296895Y-64945409D01*
X146330617Y-64942755D01*
X146373689Y-64930241D01*
X145967601Y-64524153D01*
X145967600Y-64524153D01*
X145561510Y-64930240D01*
X145561510Y-64930241D01*
X144943998Y-64930241D01*
X144978906Y-64824896D01*
X144987909Y-64736773D01*
X145014305Y-64672081D01*
X145071486Y-64631929D01*
X145126808Y-64626353D01*
X145154762Y-64629884D01*
X145752228Y-64032418D01*
X145813551Y-63998933D01*
X145839902Y-63996099D01*
X146095291Y-63996099D01*
X146162329Y-64015784D01*
X146182971Y-64032418D01*
X146780436Y-64629884D01*
X146819819Y-64563293D01*
X146864755Y-64408623D01*
X146867408Y-64374917D01*
X146867599Y-64370037D01*
X146867599Y-63971141D01*
X146867409Y-63966304D01*
X146864755Y-63932578D01*
X146819819Y-63777906D01*
X146808763Y-63759211D01*
X146791580Y-63691487D01*
X146808763Y-63632969D01*
X146820281Y-63613494D01*
X146835632Y-63560658D01*
X146865253Y-63458701D01*
X146865252Y-63458701D01*
X146865254Y-63458698D01*
X146868100Y-63422535D01*
X146868099Y-63300976D01*
X146887783Y-63233939D01*
X146940587Y-63188184D01*
X147009745Y-63178240D01*
X147073301Y-63207264D01*
X147079780Y-63213297D01*
X147470870Y-63604387D01*
X147483770Y-63620488D01*
X147491158Y-63627426D01*
X147526552Y-63687667D01*
X147523760Y-63757481D01*
X147515662Y-63775147D01*
X147469946Y-63932500D01*
X147467291Y-63966230D01*
X147467290Y-63966245D01*
X147467100Y-63968665D01*
X147467100Y-63971109D01*
X147467100Y-63971110D01*
X147467100Y-64370110D01*
X147467100Y-64370135D01*
X147467101Y-64372534D01*
X147467289Y-64374925D01*
X147467290Y-64374947D01*
X147469946Y-64408699D01*
X147514918Y-64563493D01*
X147596974Y-64702243D01*
X147705781Y-64811050D01*
X147739266Y-64872373D01*
X147742100Y-64898731D01*
X147742100Y-66211145D01*
X147722415Y-66278184D01*
X147669611Y-66323939D01*
X147657108Y-66328849D01*
X147648438Y-66331722D01*
X147617464Y-66341986D01*
X147468142Y-66434088D01*
X147344088Y-66558142D01*
X147251986Y-66707465D01*
X147196800Y-66874002D01*
X147186619Y-66973658D01*
X147186617Y-66973678D01*
X147186300Y-66976791D01*
X147186300Y-66979938D01*
X147186300Y-66979939D01*
X147186300Y-67773658D01*
X147186300Y-67773677D01*
X147186301Y-67776808D01*
X147186620Y-67779940D01*
X147186621Y-67779941D01*
X147196800Y-67879596D01*
X147251986Y-68046134D01*
X147344088Y-68195457D01*
X147437750Y-68289119D01*
X147471235Y-68350442D01*
X147466251Y-68420134D01*
X147437750Y-68464481D01*
X147344088Y-68558142D01*
X147338381Y-68567396D01*
X147286434Y-68614121D01*
X147232842Y-68626300D01*
X145144654Y-68626300D01*
X145077615Y-68606615D01*
X145031860Y-68553811D01*
X145025577Y-68536894D01*
X145025144Y-68535402D01*
X144941481Y-68393935D01*
X144825265Y-68277719D01*
X144815676Y-68272048D01*
X144683797Y-68194055D01*
X144525972Y-68148202D01*
X144491528Y-68145491D01*
X144491514Y-68145490D01*
X144489094Y-68145300D01*
X143332706Y-68145300D01*
X143330286Y-68145490D01*
X143330271Y-68145491D01*
X143295827Y-68148202D01*
X143138002Y-68194055D01*
X142983052Y-68285693D01*
X142982340Y-68284489D01*
X142937366Y-68309044D01*
X142867675Y-68304055D01*
X142819960Y-68272048D01*
X142795696Y-68245800D01*
X142530215Y-68245800D01*
X142467094Y-68228532D01*
X142408797Y-68194055D01*
X142250972Y-68148202D01*
X142216528Y-68145491D01*
X142216514Y-68145490D01*
X142214094Y-68145300D01*
X141057706Y-68145300D01*
X141055286Y-68145490D01*
X141055271Y-68145491D01*
X141020827Y-68148202D01*
X140863002Y-68194055D01*
X140804706Y-68228532D01*
X140741585Y-68245800D01*
X140476104Y-68245800D01*
X140476300Y-68248292D01*
X140522117Y-68405995D01*
X140522823Y-68407189D01*
X140525297Y-68416941D01*
X140526488Y-68421040D01*
X140526347Y-68421080D01*
X140540005Y-68474913D01*
X140522824Y-68533427D01*
X140521655Y-68535402D01*
X140475802Y-68693227D01*
X140473091Y-68727671D01*
X140473090Y-68727686D01*
X140472900Y-68730106D01*
X140472900Y-69161494D01*
X140473090Y-69163914D01*
X140473091Y-69163928D01*
X140475802Y-69198372D01*
X140521655Y-69356197D01*
X140576932Y-69449665D01*
X140605319Y-69497665D01*
X140721535Y-69613881D01*
X140824522Y-69674787D01*
X140872204Y-69725855D01*
X140885400Y-69781518D01*
X140885400Y-71363100D01*
X140865715Y-71430139D01*
X140812911Y-71475894D01*
X140761400Y-71487100D01*
X140601106Y-71487100D01*
X140583136Y-71485791D01*
X140569253Y-71483757D01*
X140559377Y-71482311D01*
X140559376Y-71482311D01*
X140510031Y-71486628D01*
X140499224Y-71487100D01*
X140493691Y-71487100D01*
X140490130Y-71487516D01*
X140490115Y-71487517D01*
X140462901Y-71490698D01*
X140459316Y-71491064D01*
X140383361Y-71497709D01*
X140364321Y-71501930D01*
X140292632Y-71528021D01*
X140289231Y-71529203D01*
X140216879Y-71553179D01*
X140199325Y-71561677D01*
X140135628Y-71603570D01*
X140132590Y-71605505D01*
X140067681Y-71645543D01*
X140052564Y-71657856D01*
X140000248Y-71713308D01*
X139997736Y-71715894D01*
X139797228Y-71916402D01*
X139735905Y-71949887D01*
X139735330Y-71950011D01*
X139670197Y-71963856D01*
X139661733Y-71967624D01*
X139592485Y-71976908D01*
X139529209Y-71947280D01*
X139491996Y-71888145D01*
X139487300Y-71854344D01*
X139487300Y-67976052D01*
X139506985Y-67909013D01*
X139523619Y-67888371D01*
X139704371Y-67707619D01*
X139765694Y-67674134D01*
X139792052Y-67671300D01*
X140352998Y-67671300D01*
X140420037Y-67690985D01*
X140444053Y-67711128D01*
X140476104Y-67745800D01*
X140741585Y-67745800D01*
X140804706Y-67763068D01*
X140863002Y-67797544D01*
X141020827Y-67843397D01*
X141020831Y-67843398D01*
X141057706Y-67846300D01*
X141060151Y-67846300D01*
X142211649Y-67846300D01*
X142214094Y-67846300D01*
X142250969Y-67843398D01*
X142408798Y-67797544D01*
X142467093Y-67763068D01*
X142530215Y-67745800D01*
X142795696Y-67745800D01*
X142819959Y-67719552D01*
X142879920Y-67683685D01*
X142949754Y-67685930D01*
X142982830Y-67706280D01*
X142983052Y-67705907D01*
X142996534Y-67713880D01*
X142996535Y-67713881D01*
X143079706Y-67763068D01*
X143138002Y-67797544D01*
X143295827Y-67843397D01*
X143295831Y-67843398D01*
X143332706Y-67846300D01*
X143335151Y-67846300D01*
X144486649Y-67846300D01*
X144489094Y-67846300D01*
X144525969Y-67843398D01*
X144683798Y-67797544D01*
X144825265Y-67713881D01*
X144941481Y-67597665D01*
X145025144Y-67456198D01*
X145070998Y-67298369D01*
X145073900Y-67261494D01*
X145073900Y-66830106D01*
X145070998Y-66793231D01*
X145062730Y-66764774D01*
X145025144Y-66635402D01*
X144991436Y-66578405D01*
X144941481Y-66493935D01*
X144825265Y-66377719D01*
X144784480Y-66353599D01*
X144683797Y-66294055D01*
X144525972Y-66248202D01*
X144491528Y-66245491D01*
X144491514Y-66245490D01*
X144489094Y-66245300D01*
X144486649Y-66245300D01*
X144046353Y-66245300D01*
X143979314Y-66225615D01*
X143958672Y-66208981D01*
X143383571Y-65633880D01*
X143350086Y-65572557D01*
X143355070Y-65502865D01*
X143396942Y-65446932D01*
X143462406Y-65422515D01*
X143471252Y-65422199D01*
X143539399Y-65422199D01*
X143539400Y-65422198D01*
X143539400Y-64572200D01*
X142589401Y-64572200D01*
X142589401Y-64719029D01*
X142589721Y-64725311D01*
X142599893Y-64824895D01*
X142655041Y-64991320D01*
X142705424Y-65073003D01*
X142723864Y-65140396D01*
X142702941Y-65207059D01*
X142649299Y-65251829D01*
X142599885Y-65262100D01*
X141803915Y-65262100D01*
X141736876Y-65242415D01*
X141691121Y-65189611D01*
X141681177Y-65120453D01*
X141698376Y-65073003D01*
X141748758Y-64991320D01*
X141803906Y-64824896D01*
X141814080Y-64725309D01*
X141814400Y-64719031D01*
X141814400Y-64572200D01*
X139414401Y-64572200D01*
X139414401Y-64719029D01*
X139414721Y-64725311D01*
X139424893Y-64824895D01*
X139480041Y-64991320D01*
X139530424Y-65073003D01*
X139548864Y-65140396D01*
X139527941Y-65207059D01*
X139474299Y-65251829D01*
X139424885Y-65262100D01*
X130088053Y-65262100D01*
X130021014Y-65242415D01*
X130000372Y-65225781D01*
X129915237Y-65140646D01*
X129881752Y-65079323D01*
X129883143Y-65020872D01*
X129910063Y-64920408D01*
X129918420Y-64824895D01*
X129930659Y-64684999D01*
X129910063Y-64449592D01*
X129899106Y-64408699D01*
X129848903Y-64221337D01*
X129749035Y-64007171D01*
X129613495Y-63813599D01*
X129491569Y-63691673D01*
X129458084Y-63630350D01*
X129463068Y-63560658D01*
X129504940Y-63504725D01*
X129535915Y-63487810D01*
X129667331Y-63438796D01*
X129782546Y-63352546D01*
X129868796Y-63237331D01*
X129919091Y-63102483D01*
X129925500Y-63042873D01*
X129925500Y-63019500D01*
X129945185Y-62952461D01*
X129997989Y-62906706D01*
X130049500Y-62895500D01*
X131550249Y-62895500D01*
X131568219Y-62896809D01*
X131572275Y-62897402D01*
X131591978Y-62900289D01*
X131641323Y-62895972D01*
X131652131Y-62895500D01*
X131654055Y-62895500D01*
X131657664Y-62895500D01*
X131688505Y-62891894D01*
X131691986Y-62891539D01*
X131766752Y-62884999D01*
X131766752Y-62884998D01*
X131768007Y-62884889D01*
X131787017Y-62880674D01*
X131788205Y-62880241D01*
X131788210Y-62880241D01*
X131858775Y-62854557D01*
X131862050Y-62853419D01*
X131933289Y-62829814D01*
X131933291Y-62829812D01*
X131934491Y-62829415D01*
X131952018Y-62820929D01*
X131953067Y-62820238D01*
X131953072Y-62820237D01*
X132015761Y-62779005D01*
X132018753Y-62777099D01*
X132082611Y-62737712D01*
X132082611Y-62737711D01*
X132083684Y-62737050D01*
X132098779Y-62724753D01*
X132099647Y-62723832D01*
X132099651Y-62723830D01*
X132151139Y-62669254D01*
X132153585Y-62666736D01*
X133566997Y-61253324D01*
X133628318Y-61219841D01*
X133684604Y-61220673D01*
X133719710Y-61229404D01*
X133758105Y-61232007D01*
X133762477Y-61232304D01*
X134664722Y-61232303D01*
X134707489Y-61229404D01*
X134892293Y-61183445D01*
X135062896Y-61098834D01*
X135211322Y-60979526D01*
X135330630Y-60831100D01*
X135372512Y-60746651D01*
X135419933Y-60695339D01*
X135487568Y-60677809D01*
X135553943Y-60699629D01*
X135594688Y-60746652D01*
X135636569Y-60831099D01*
X135636570Y-60831100D01*
X135755878Y-60979526D01*
X135904304Y-61098834D01*
X136074907Y-61183445D01*
X136259711Y-61229404D01*
X136302477Y-61232304D01*
X137204722Y-61232303D01*
X137247489Y-61229404D01*
X137432293Y-61183445D01*
X137602896Y-61098834D01*
X137751322Y-60979526D01*
X137870630Y-60831100D01*
X137955241Y-60660497D01*
X137973923Y-60585372D01*
X138009205Y-60525067D01*
X138071491Y-60493408D01*
X138094258Y-60491300D01*
X140935663Y-60491300D01*
X141002702Y-60510985D01*
X141008550Y-60514983D01*
X141022271Y-60524952D01*
X141195197Y-60601944D01*
X141380352Y-60641300D01*
X141380354Y-60641300D01*
X141569648Y-60641300D01*
X141693084Y-60615062D01*
X141754803Y-60601944D01*
X141899549Y-60537498D01*
X141927728Y-60524952D01*
X141927728Y-60524951D01*
X141927730Y-60524951D01*
X141941449Y-60514983D01*
X142007256Y-60491502D01*
X142014337Y-60491300D01*
X147229424Y-60491300D01*
X147296463Y-60510985D01*
X147342218Y-60563789D01*
X147349934Y-60591916D01*
X147352309Y-60598283D01*
X147402604Y-60733131D01*
X147488854Y-60848346D01*
X147604069Y-60934596D01*
X147738917Y-60984891D01*
X147798527Y-60991300D01*
X148894272Y-60991299D01*
X148953883Y-60984891D01*
X148953884Y-60984890D01*
X148969369Y-60983226D01*
X148969454Y-60984023D01*
X149022751Y-60980209D01*
X149038569Y-60984853D01*
X149038914Y-60984890D01*
X149038917Y-60984891D01*
X149098527Y-60991300D01*
X150194272Y-60991299D01*
X150253883Y-60984891D01*
X150388731Y-60934596D01*
X150503946Y-60848346D01*
X150590196Y-60733131D01*
X150640491Y-60598283D01*
X150640490Y-60598283D01*
X150645934Y-60583690D01*
X150647455Y-60584257D01*
X150666821Y-60537498D01*
X150724212Y-60497647D01*
X150763376Y-60491300D01*
X151712872Y-60491300D01*
X151779911Y-60510985D01*
X151791538Y-60519447D01*
X151892262Y-60602110D01*
X152066073Y-60695014D01*
X152254668Y-60752224D01*
X152450800Y-60771541D01*
X152646932Y-60752224D01*
X152835527Y-60695014D01*
X153009338Y-60602110D01*
X153161683Y-60477083D01*
X153286710Y-60324738D01*
X153379614Y-60150927D01*
X153436824Y-59962332D01*
X153456141Y-59766200D01*
X153436824Y-59570068D01*
X153379614Y-59381473D01*
X153286710Y-59207662D01*
X153161683Y-59055317D01*
X153009338Y-58930290D01*
X152958488Y-58903110D01*
X152835526Y-58837385D01*
X152646933Y-58780176D01*
X152548866Y-58770517D01*
X152450800Y-58760859D01*
X152450799Y-58760859D01*
X152254666Y-58780176D01*
X152066073Y-58837385D01*
X151892262Y-58930289D01*
X151853437Y-58962153D01*
X151789127Y-58989466D01*
X151774772Y-58990300D01*
X150763376Y-58990300D01*
X150696337Y-58970615D01*
X150650582Y-58917811D01*
X150642865Y-58889683D01*
X150640491Y-58883317D01*
X150590196Y-58748469D01*
X150503946Y-58633254D01*
X150388731Y-58547004D01*
X150321374Y-58521881D01*
X150265442Y-58480010D01*
X150241025Y-58414546D01*
X150255877Y-58346273D01*
X150305282Y-58296868D01*
X150364709Y-58281700D01*
X161455500Y-58281700D01*
X161522539Y-58301385D01*
X161568294Y-58354189D01*
X161579500Y-58405700D01*
X161579500Y-81156700D01*
X161559815Y-81223739D01*
X161507011Y-81269494D01*
X161455500Y-81280700D01*
X126724000Y-81280700D01*
X126656961Y-81261015D01*
X126611206Y-81208211D01*
X126600000Y-81156700D01*
X126600000Y-58405700D01*
X126619685Y-58338661D01*
X126672489Y-58292906D01*
X126724000Y-58281700D01*
X133239874Y-58281700D01*
X133306913Y-58301385D01*
G37*
%TD.AperFunction*%
%TA.AperFunction,Conductor*%
G36*
X135950814Y-66532785D02*
G01*
X135996569Y-66585589D01*
X136006513Y-66654747D01*
X135977488Y-66718303D01*
X135938870Y-66748188D01*
X135904573Y-66765197D01*
X135841358Y-66816009D01*
X136753599Y-67728250D01*
X137665839Y-66816010D01*
X137602627Y-66765197D01*
X137568330Y-66748188D01*
X137517017Y-66700767D01*
X137499489Y-66633132D01*
X137521308Y-66566756D01*
X137575550Y-66522715D01*
X137623425Y-66513100D01*
X138830347Y-66513100D01*
X138897386Y-66532785D01*
X138943141Y-66585589D01*
X138953085Y-66654747D01*
X138924060Y-66718303D01*
X138918028Y-66724781D01*
X138478008Y-67164799D01*
X138461910Y-67177696D01*
X138413896Y-67228825D01*
X138411192Y-67231616D01*
X138394428Y-67248380D01*
X138394421Y-67248387D01*
X138391680Y-67251129D01*
X138389299Y-67254197D01*
X138389290Y-67254208D01*
X138389211Y-67254311D01*
X138381642Y-67263172D01*
X138351735Y-67295020D01*
X138342085Y-67312574D01*
X138331409Y-67328828D01*
X138319126Y-67344663D01*
X138301775Y-67384758D01*
X138296638Y-67395244D01*
X138275602Y-67433507D01*
X138270621Y-67452909D01*
X138264320Y-67471311D01*
X138256361Y-67489703D01*
X138250073Y-67529405D01*
X138220143Y-67592540D01*
X138160831Y-67629470D01*
X138090969Y-67628472D01*
X138032736Y-67589861D01*
X138004622Y-67525897D01*
X138003600Y-67510006D01*
X138003600Y-67432803D01*
X138003458Y-67428612D01*
X138000703Y-67387979D01*
X137960924Y-67228031D01*
X137960923Y-67228031D01*
X137107153Y-68081803D01*
X137107153Y-68081804D01*
X137960923Y-68935575D01*
X137960924Y-68935575D01*
X137991966Y-68810760D01*
X138027248Y-68750453D01*
X138089534Y-68718795D01*
X138159048Y-68725836D01*
X138213720Y-68769342D01*
X138236191Y-68835500D01*
X138236300Y-68840687D01*
X138236300Y-71647746D01*
X138216615Y-71714785D01*
X138199981Y-71735427D01*
X137089621Y-72845786D01*
X137028298Y-72879271D01*
X136958606Y-72874287D01*
X136902673Y-72832415D01*
X136896399Y-72823198D01*
X136893103Y-72817854D01*
X136892912Y-72817544D01*
X136892910Y-72817542D01*
X136892909Y-72817540D01*
X136768857Y-72693488D01*
X136619534Y-72601386D01*
X136452997Y-72546200D01*
X136353341Y-72536019D01*
X136353322Y-72536018D01*
X136350209Y-72535700D01*
X136347060Y-72535700D01*
X135553341Y-72535700D01*
X135553321Y-72535700D01*
X135550192Y-72535701D01*
X135547060Y-72536020D01*
X135547058Y-72536021D01*
X135447403Y-72546200D01*
X135280865Y-72601386D01*
X135131544Y-72693487D01*
X135037527Y-72787504D01*
X134976204Y-72820988D01*
X134906512Y-72816004D01*
X134862165Y-72787503D01*
X134768545Y-72693883D01*
X134619322Y-72601842D01*
X134452896Y-72546693D01*
X134353309Y-72536519D01*
X134347032Y-72536200D01*
X134200200Y-72536200D01*
X134200200Y-73862200D01*
X134180515Y-73929239D01*
X134127711Y-73974994D01*
X134076200Y-73986200D01*
X132850201Y-73986200D01*
X132850201Y-74095500D01*
X132830516Y-74162539D01*
X132777712Y-74208294D01*
X132726201Y-74219500D01*
X129850226Y-74219500D01*
X129783187Y-74199815D01*
X129748651Y-74166623D01*
X129613495Y-73973599D01*
X129446401Y-73806505D01*
X129260839Y-73676573D01*
X129217216Y-73621998D01*
X129210022Y-73552500D01*
X129241545Y-73490145D01*
X129246098Y-73486200D01*
X132850200Y-73486200D01*
X133700200Y-73486200D01*
X133700200Y-72536200D01*
X133553371Y-72536200D01*
X133547088Y-72536521D01*
X133447504Y-72546693D01*
X133281077Y-72601842D01*
X133131854Y-72693883D01*
X133007883Y-72817854D01*
X132915842Y-72967077D01*
X132860693Y-73133503D01*
X132850519Y-73233090D01*
X132850200Y-73239368D01*
X132850200Y-73486200D01*
X129246098Y-73486200D01*
X129260837Y-73473428D01*
X129446401Y-73343495D01*
X129613495Y-73176401D01*
X129749035Y-72982830D01*
X129848903Y-72768663D01*
X129910063Y-72540408D01*
X129930659Y-72305000D01*
X129910063Y-72069592D01*
X129848903Y-71841337D01*
X129749035Y-71627171D01*
X129613495Y-71433599D01*
X129446401Y-71266505D01*
X129260839Y-71136573D01*
X129217216Y-71081998D01*
X129210022Y-71012500D01*
X129241545Y-70950145D01*
X129260837Y-70933428D01*
X129446401Y-70803495D01*
X129613495Y-70636401D01*
X129749035Y-70442830D01*
X129848903Y-70228663D01*
X129910063Y-70000408D01*
X129930659Y-69765000D01*
X129910063Y-69529592D01*
X129848903Y-69301337D01*
X129749035Y-69087171D01*
X129619675Y-68902425D01*
X129597349Y-68836221D01*
X129614359Y-68768454D01*
X129665307Y-68720641D01*
X129721251Y-68707304D01*
X132852053Y-68707304D01*
X132919092Y-68726989D01*
X132964847Y-68779793D01*
X132972386Y-68801374D01*
X132985391Y-68853664D01*
X133011959Y-68960498D01*
X133021602Y-68979941D01*
X133096570Y-69131100D01*
X133215878Y-69279526D01*
X133364304Y-69398834D01*
X133534907Y-69483445D01*
X133719711Y-69529404D01*
X133762477Y-69532304D01*
X134664722Y-69532303D01*
X134707489Y-69529404D01*
X134892293Y-69483445D01*
X135062896Y-69398834D01*
X135126638Y-69347597D01*
X135841359Y-69347597D01*
X135904572Y-69398410D01*
X136075078Y-69482972D01*
X136259780Y-69528907D01*
X136300408Y-69531662D01*
X136304600Y-69531804D01*
X137202600Y-69531804D01*
X137206791Y-69531662D01*
X137247419Y-69528907D01*
X137432123Y-69482972D01*
X137602626Y-69398411D01*
X137665839Y-69347597D01*
X137665840Y-69347596D01*
X136753600Y-68435357D01*
X135841359Y-69347597D01*
X135126638Y-69347597D01*
X135211322Y-69279526D01*
X135330630Y-69131100D01*
X135396439Y-68998407D01*
X135443856Y-68947099D01*
X135511491Y-68929569D01*
X135540698Y-68934026D01*
X135546275Y-68935574D01*
X136400047Y-68081804D01*
X135546274Y-67228031D01*
X135540697Y-67229580D01*
X135470835Y-67228548D01*
X135412621Y-67189909D01*
X135396436Y-67165194D01*
X135330630Y-67032508D01*
X135296133Y-66989592D01*
X135211322Y-66884082D01*
X135126635Y-66816009D01*
X135062897Y-66764774D01*
X135029453Y-66748188D01*
X134978140Y-66700767D01*
X134960612Y-66633131D01*
X134982432Y-66566756D01*
X135036673Y-66522715D01*
X135084548Y-66513100D01*
X135883775Y-66513100D01*
X135950814Y-66532785D01*
G37*
%TD.AperFunction*%
%TD*%
M02*
