%TF.GenerationSoftware,KiCad,Pcbnew,7.0.2*%
%TF.CreationDate,2023-10-27T14:15:15+02:00*%
%TF.ProjectId,testboard AL5801,74657374-626f-4617-9264-20414c353830,rev?*%
%TF.SameCoordinates,Original*%
%TF.FileFunction,Legend,Top*%
%TF.FilePolarity,Positive*%
%FSLAX46Y46*%
G04 Gerber Fmt 4.6, Leading zero omitted, Abs format (unit mm)*
G04 Created by KiCad (PCBNEW 7.0.2) date 2023-10-27 14:15:15*
%MOMM*%
%LPD*%
G01*
G04 APERTURE LIST*
%ADD10C,0.150000*%
%ADD11C,0.120000*%
G04 APERTURE END LIST*
D10*
%TO.C,H2*%
X152857295Y-78643819D02*
X152857295Y-77643819D01*
X152857295Y-78120009D02*
X153428723Y-78120009D01*
X153428723Y-78643819D02*
X153428723Y-77643819D01*
X153857295Y-77739057D02*
X153904914Y-77691438D01*
X153904914Y-77691438D02*
X154000152Y-77643819D01*
X154000152Y-77643819D02*
X154238247Y-77643819D01*
X154238247Y-77643819D02*
X154333485Y-77691438D01*
X154333485Y-77691438D02*
X154381104Y-77739057D01*
X154381104Y-77739057D02*
X154428723Y-77834295D01*
X154428723Y-77834295D02*
X154428723Y-77929533D01*
X154428723Y-77929533D02*
X154381104Y-78072390D01*
X154381104Y-78072390D02*
X153809676Y-78643819D01*
X153809676Y-78643819D02*
X154428723Y-78643819D01*
%TO.C,R1*%
X147199419Y-68543466D02*
X146723228Y-68876799D01*
X147199419Y-69114894D02*
X146199419Y-69114894D01*
X146199419Y-69114894D02*
X146199419Y-68733942D01*
X146199419Y-68733942D02*
X146247038Y-68638704D01*
X146247038Y-68638704D02*
X146294657Y-68591085D01*
X146294657Y-68591085D02*
X146389895Y-68543466D01*
X146389895Y-68543466D02*
X146532752Y-68543466D01*
X146532752Y-68543466D02*
X146627990Y-68591085D01*
X146627990Y-68591085D02*
X146675609Y-68638704D01*
X146675609Y-68638704D02*
X146723228Y-68733942D01*
X146723228Y-68733942D02*
X146723228Y-69114894D01*
X147199419Y-67591085D02*
X147199419Y-68162513D01*
X147199419Y-67876799D02*
X146199419Y-67876799D01*
X146199419Y-67876799D02*
X146342276Y-67972037D01*
X146342276Y-67972037D02*
X146437514Y-68067275D01*
X146437514Y-68067275D02*
X146485133Y-68162513D01*
%TO.C,JP1*%
X149814066Y-61184619D02*
X149814066Y-61898904D01*
X149814066Y-61898904D02*
X149766447Y-62041761D01*
X149766447Y-62041761D02*
X149671209Y-62137000D01*
X149671209Y-62137000D02*
X149528352Y-62184619D01*
X149528352Y-62184619D02*
X149433114Y-62184619D01*
X150290257Y-62184619D02*
X150290257Y-61184619D01*
X150290257Y-61184619D02*
X150671209Y-61184619D01*
X150671209Y-61184619D02*
X150766447Y-61232238D01*
X150766447Y-61232238D02*
X150814066Y-61279857D01*
X150814066Y-61279857D02*
X150861685Y-61375095D01*
X150861685Y-61375095D02*
X150861685Y-61517952D01*
X150861685Y-61517952D02*
X150814066Y-61613190D01*
X150814066Y-61613190D02*
X150766447Y-61660809D01*
X150766447Y-61660809D02*
X150671209Y-61708428D01*
X150671209Y-61708428D02*
X150290257Y-61708428D01*
X151814066Y-62184619D02*
X151242638Y-62184619D01*
X151528352Y-62184619D02*
X151528352Y-61184619D01*
X151528352Y-61184619D02*
X151433114Y-61327476D01*
X151433114Y-61327476D02*
X151337876Y-61422714D01*
X151337876Y-61422714D02*
X151242638Y-61470333D01*
%TO.C,JP2*%
X149649419Y-73731333D02*
X150363704Y-73731333D01*
X150363704Y-73731333D02*
X150506561Y-73778952D01*
X150506561Y-73778952D02*
X150601800Y-73874190D01*
X150601800Y-73874190D02*
X150649419Y-74017047D01*
X150649419Y-74017047D02*
X150649419Y-74112285D01*
X150649419Y-73255142D02*
X149649419Y-73255142D01*
X149649419Y-73255142D02*
X149649419Y-72874190D01*
X149649419Y-72874190D02*
X149697038Y-72778952D01*
X149697038Y-72778952D02*
X149744657Y-72731333D01*
X149744657Y-72731333D02*
X149839895Y-72683714D01*
X149839895Y-72683714D02*
X149982752Y-72683714D01*
X149982752Y-72683714D02*
X150077990Y-72731333D01*
X150077990Y-72731333D02*
X150125609Y-72778952D01*
X150125609Y-72778952D02*
X150173228Y-72874190D01*
X150173228Y-72874190D02*
X150173228Y-73255142D01*
X149744657Y-72302761D02*
X149697038Y-72255142D01*
X149697038Y-72255142D02*
X149649419Y-72159904D01*
X149649419Y-72159904D02*
X149649419Y-71921809D01*
X149649419Y-71921809D02*
X149697038Y-71826571D01*
X149697038Y-71826571D02*
X149744657Y-71778952D01*
X149744657Y-71778952D02*
X149839895Y-71731333D01*
X149839895Y-71731333D02*
X149935133Y-71731333D01*
X149935133Y-71731333D02*
X150077990Y-71778952D01*
X150077990Y-71778952D02*
X150649419Y-72350380D01*
X150649419Y-72350380D02*
X150649419Y-71731333D01*
%TO.C,J3*%
X150180819Y-69943933D02*
X150895104Y-69943933D01*
X150895104Y-69943933D02*
X151037961Y-69991552D01*
X151037961Y-69991552D02*
X151133200Y-70086790D01*
X151133200Y-70086790D02*
X151180819Y-70229647D01*
X151180819Y-70229647D02*
X151180819Y-70324885D01*
X150180819Y-69562980D02*
X150180819Y-68943933D01*
X150180819Y-68943933D02*
X150561771Y-69277266D01*
X150561771Y-69277266D02*
X150561771Y-69134409D01*
X150561771Y-69134409D02*
X150609390Y-69039171D01*
X150609390Y-69039171D02*
X150657009Y-68991552D01*
X150657009Y-68991552D02*
X150752247Y-68943933D01*
X150752247Y-68943933D02*
X150990342Y-68943933D01*
X150990342Y-68943933D02*
X151085580Y-68991552D01*
X151085580Y-68991552D02*
X151133200Y-69039171D01*
X151133200Y-69039171D02*
X151180819Y-69134409D01*
X151180819Y-69134409D02*
X151180819Y-69420123D01*
X151180819Y-69420123D02*
X151133200Y-69515361D01*
X151133200Y-69515361D02*
X151085580Y-69562980D01*
%TO.C,R4*%
X142759133Y-74350219D02*
X142425800Y-73874028D01*
X142187705Y-74350219D02*
X142187705Y-73350219D01*
X142187705Y-73350219D02*
X142568657Y-73350219D01*
X142568657Y-73350219D02*
X142663895Y-73397838D01*
X142663895Y-73397838D02*
X142711514Y-73445457D01*
X142711514Y-73445457D02*
X142759133Y-73540695D01*
X142759133Y-73540695D02*
X142759133Y-73683552D01*
X142759133Y-73683552D02*
X142711514Y-73778790D01*
X142711514Y-73778790D02*
X142663895Y-73826409D01*
X142663895Y-73826409D02*
X142568657Y-73874028D01*
X142568657Y-73874028D02*
X142187705Y-73874028D01*
X143616276Y-73683552D02*
X143616276Y-74350219D01*
X143378181Y-73302600D02*
X143140086Y-74016885D01*
X143140086Y-74016885D02*
X143759133Y-74016885D01*
%TO.C,H1*%
X153162095Y-61752819D02*
X153162095Y-60752819D01*
X153162095Y-61229009D02*
X153733523Y-61229009D01*
X153733523Y-61752819D02*
X153733523Y-60752819D01*
X154733523Y-61752819D02*
X154162095Y-61752819D01*
X154447809Y-61752819D02*
X154447809Y-60752819D01*
X154447809Y-60752819D02*
X154352571Y-60895676D01*
X154352571Y-60895676D02*
X154257333Y-60990914D01*
X154257333Y-60990914D02*
X154162095Y-61038533D01*
%TO.C,U1*%
X147853304Y-66170980D02*
X147853304Y-65361457D01*
X147853304Y-65361457D02*
X147805685Y-65266219D01*
X147805685Y-65266219D02*
X147758066Y-65218600D01*
X147758066Y-65218600D02*
X147662828Y-65170980D01*
X147662828Y-65170980D02*
X147472352Y-65170980D01*
X147472352Y-65170980D02*
X147377114Y-65218600D01*
X147377114Y-65218600D02*
X147329495Y-65266219D01*
X147329495Y-65266219D02*
X147281876Y-65361457D01*
X147281876Y-65361457D02*
X147281876Y-66170980D01*
X146281876Y-65170980D02*
X146853304Y-65170980D01*
X146567590Y-65170980D02*
X146567590Y-66170980D01*
X146567590Y-66170980D02*
X146662828Y-66028123D01*
X146662828Y-66028123D02*
X146758066Y-65932885D01*
X146758066Y-65932885D02*
X146853304Y-65885266D01*
%TO.C,R3*%
X142753419Y-63031666D02*
X142277228Y-63364999D01*
X142753419Y-63603094D02*
X141753419Y-63603094D01*
X141753419Y-63603094D02*
X141753419Y-63222142D01*
X141753419Y-63222142D02*
X141801038Y-63126904D01*
X141801038Y-63126904D02*
X141848657Y-63079285D01*
X141848657Y-63079285D02*
X141943895Y-63031666D01*
X141943895Y-63031666D02*
X142086752Y-63031666D01*
X142086752Y-63031666D02*
X142181990Y-63079285D01*
X142181990Y-63079285D02*
X142229609Y-63126904D01*
X142229609Y-63126904D02*
X142277228Y-63222142D01*
X142277228Y-63222142D02*
X142277228Y-63603094D01*
X141753419Y-62698332D02*
X141753419Y-62079285D01*
X141753419Y-62079285D02*
X142134371Y-62412618D01*
X142134371Y-62412618D02*
X142134371Y-62269761D01*
X142134371Y-62269761D02*
X142181990Y-62174523D01*
X142181990Y-62174523D02*
X142229609Y-62126904D01*
X142229609Y-62126904D02*
X142324847Y-62079285D01*
X142324847Y-62079285D02*
X142562942Y-62079285D01*
X142562942Y-62079285D02*
X142658180Y-62126904D01*
X142658180Y-62126904D02*
X142705800Y-62174523D01*
X142705800Y-62174523D02*
X142753419Y-62269761D01*
X142753419Y-62269761D02*
X142753419Y-62555475D01*
X142753419Y-62555475D02*
X142705800Y-62650713D01*
X142705800Y-62650713D02*
X142658180Y-62698332D01*
%TO.C,U2*%
X142011495Y-65058419D02*
X142011495Y-65867942D01*
X142011495Y-65867942D02*
X142059114Y-65963180D01*
X142059114Y-65963180D02*
X142106733Y-66010800D01*
X142106733Y-66010800D02*
X142201971Y-66058419D01*
X142201971Y-66058419D02*
X142392447Y-66058419D01*
X142392447Y-66058419D02*
X142487685Y-66010800D01*
X142487685Y-66010800D02*
X142535304Y-65963180D01*
X142535304Y-65963180D02*
X142582923Y-65867942D01*
X142582923Y-65867942D02*
X142582923Y-65058419D01*
X143011495Y-65153657D02*
X143059114Y-65106038D01*
X143059114Y-65106038D02*
X143154352Y-65058419D01*
X143154352Y-65058419D02*
X143392447Y-65058419D01*
X143392447Y-65058419D02*
X143487685Y-65106038D01*
X143487685Y-65106038D02*
X143535304Y-65153657D01*
X143535304Y-65153657D02*
X143582923Y-65248895D01*
X143582923Y-65248895D02*
X143582923Y-65344133D01*
X143582923Y-65344133D02*
X143535304Y-65486990D01*
X143535304Y-65486990D02*
X142963876Y-66058419D01*
X142963876Y-66058419D02*
X143582923Y-66058419D01*
%TO.C,mosfet1*%
X131534468Y-67227104D02*
X130867801Y-67227104D01*
X130963039Y-67227104D02*
X130915420Y-67179485D01*
X130915420Y-67179485D02*
X130867801Y-67084247D01*
X130867801Y-67084247D02*
X130867801Y-66941390D01*
X130867801Y-66941390D02*
X130915420Y-66846152D01*
X130915420Y-66846152D02*
X131010658Y-66798533D01*
X131010658Y-66798533D02*
X131534468Y-66798533D01*
X131010658Y-66798533D02*
X130915420Y-66750914D01*
X130915420Y-66750914D02*
X130867801Y-66655676D01*
X130867801Y-66655676D02*
X130867801Y-66512819D01*
X130867801Y-66512819D02*
X130915420Y-66417580D01*
X130915420Y-66417580D02*
X131010658Y-66369961D01*
X131010658Y-66369961D02*
X131534468Y-66369961D01*
X131534468Y-65750914D02*
X131486849Y-65846152D01*
X131486849Y-65846152D02*
X131439229Y-65893771D01*
X131439229Y-65893771D02*
X131343991Y-65941390D01*
X131343991Y-65941390D02*
X131058277Y-65941390D01*
X131058277Y-65941390D02*
X130963039Y-65893771D01*
X130963039Y-65893771D02*
X130915420Y-65846152D01*
X130915420Y-65846152D02*
X130867801Y-65750914D01*
X130867801Y-65750914D02*
X130867801Y-65608057D01*
X130867801Y-65608057D02*
X130915420Y-65512819D01*
X130915420Y-65512819D02*
X130963039Y-65465200D01*
X130963039Y-65465200D02*
X131058277Y-65417581D01*
X131058277Y-65417581D02*
X131343991Y-65417581D01*
X131343991Y-65417581D02*
X131439229Y-65465200D01*
X131439229Y-65465200D02*
X131486849Y-65512819D01*
X131486849Y-65512819D02*
X131534468Y-65608057D01*
X131534468Y-65608057D02*
X131534468Y-65750914D01*
X131486849Y-65036628D02*
X131534468Y-64941390D01*
X131534468Y-64941390D02*
X131534468Y-64750914D01*
X131534468Y-64750914D02*
X131486849Y-64655676D01*
X131486849Y-64655676D02*
X131391610Y-64608057D01*
X131391610Y-64608057D02*
X131343991Y-64608057D01*
X131343991Y-64608057D02*
X131248753Y-64655676D01*
X131248753Y-64655676D02*
X131201134Y-64750914D01*
X131201134Y-64750914D02*
X131201134Y-64893771D01*
X131201134Y-64893771D02*
X131153515Y-64989009D01*
X131153515Y-64989009D02*
X131058277Y-65036628D01*
X131058277Y-65036628D02*
X131010658Y-65036628D01*
X131010658Y-65036628D02*
X130915420Y-64989009D01*
X130915420Y-64989009D02*
X130867801Y-64893771D01*
X130867801Y-64893771D02*
X130867801Y-64750914D01*
X130867801Y-64750914D02*
X130915420Y-64655676D01*
X130867801Y-64322342D02*
X130867801Y-63941390D01*
X131534468Y-64179485D02*
X130677325Y-64179485D01*
X130677325Y-64179485D02*
X130582087Y-64131866D01*
X130582087Y-64131866D02*
X130534468Y-64036628D01*
X130534468Y-64036628D02*
X130534468Y-63941390D01*
X131486849Y-63227104D02*
X131534468Y-63322342D01*
X131534468Y-63322342D02*
X131534468Y-63512818D01*
X131534468Y-63512818D02*
X131486849Y-63608056D01*
X131486849Y-63608056D02*
X131391610Y-63655675D01*
X131391610Y-63655675D02*
X131010658Y-63655675D01*
X131010658Y-63655675D02*
X130915420Y-63608056D01*
X130915420Y-63608056D02*
X130867801Y-63512818D01*
X130867801Y-63512818D02*
X130867801Y-63322342D01*
X130867801Y-63322342D02*
X130915420Y-63227104D01*
X130915420Y-63227104D02*
X131010658Y-63179485D01*
X131010658Y-63179485D02*
X131105896Y-63179485D01*
X131105896Y-63179485D02*
X131201134Y-63655675D01*
X130867801Y-62893770D02*
X130867801Y-62512818D01*
X130534468Y-62750913D02*
X131391610Y-62750913D01*
X131391610Y-62750913D02*
X131486849Y-62703294D01*
X131486849Y-62703294D02*
X131534468Y-62608056D01*
X131534468Y-62608056D02*
X131534468Y-62512818D01*
X131534468Y-61655675D02*
X131534468Y-62227103D01*
X131534468Y-61941389D02*
X130534468Y-61941389D01*
X130534468Y-61941389D02*
X130677325Y-62036627D01*
X130677325Y-62036627D02*
X130772563Y-62131865D01*
X130772563Y-62131865D02*
X130820182Y-62227103D01*
%TO.C,R5*%
X134783533Y-72548819D02*
X134450200Y-72072628D01*
X134212105Y-72548819D02*
X134212105Y-71548819D01*
X134212105Y-71548819D02*
X134593057Y-71548819D01*
X134593057Y-71548819D02*
X134688295Y-71596438D01*
X134688295Y-71596438D02*
X134735914Y-71644057D01*
X134735914Y-71644057D02*
X134783533Y-71739295D01*
X134783533Y-71739295D02*
X134783533Y-71882152D01*
X134783533Y-71882152D02*
X134735914Y-71977390D01*
X134735914Y-71977390D02*
X134688295Y-72025009D01*
X134688295Y-72025009D02*
X134593057Y-72072628D01*
X134593057Y-72072628D02*
X134212105Y-72072628D01*
X135688295Y-71548819D02*
X135212105Y-71548819D01*
X135212105Y-71548819D02*
X135164486Y-72025009D01*
X135164486Y-72025009D02*
X135212105Y-71977390D01*
X135212105Y-71977390D02*
X135307343Y-71929771D01*
X135307343Y-71929771D02*
X135545438Y-71929771D01*
X135545438Y-71929771D02*
X135640676Y-71977390D01*
X135640676Y-71977390D02*
X135688295Y-72025009D01*
X135688295Y-72025009D02*
X135735914Y-72120247D01*
X135735914Y-72120247D02*
X135735914Y-72358342D01*
X135735914Y-72358342D02*
X135688295Y-72453580D01*
X135688295Y-72453580D02*
X135640676Y-72501200D01*
X135640676Y-72501200D02*
X135545438Y-72548819D01*
X135545438Y-72548819D02*
X135307343Y-72548819D01*
X135307343Y-72548819D02*
X135212105Y-72501200D01*
X135212105Y-72501200D02*
X135164486Y-72453580D01*
%TO.C,R2*%
X139375219Y-63057066D02*
X138899028Y-63390399D01*
X139375219Y-63628494D02*
X138375219Y-63628494D01*
X138375219Y-63628494D02*
X138375219Y-63247542D01*
X138375219Y-63247542D02*
X138422838Y-63152304D01*
X138422838Y-63152304D02*
X138470457Y-63104685D01*
X138470457Y-63104685D02*
X138565695Y-63057066D01*
X138565695Y-63057066D02*
X138708552Y-63057066D01*
X138708552Y-63057066D02*
X138803790Y-63104685D01*
X138803790Y-63104685D02*
X138851409Y-63152304D01*
X138851409Y-63152304D02*
X138899028Y-63247542D01*
X138899028Y-63247542D02*
X138899028Y-63628494D01*
X138470457Y-62676113D02*
X138422838Y-62628494D01*
X138422838Y-62628494D02*
X138375219Y-62533256D01*
X138375219Y-62533256D02*
X138375219Y-62295161D01*
X138375219Y-62295161D02*
X138422838Y-62199923D01*
X138422838Y-62199923D02*
X138470457Y-62152304D01*
X138470457Y-62152304D02*
X138565695Y-62104685D01*
X138565695Y-62104685D02*
X138660933Y-62104685D01*
X138660933Y-62104685D02*
X138803790Y-62152304D01*
X138803790Y-62152304D02*
X139375219Y-62723732D01*
X139375219Y-62723732D02*
X139375219Y-62104685D01*
D11*
%TO.C,R1*%
X147651800Y-68603864D02*
X147651800Y-68149736D01*
X149121800Y-68603864D02*
X149121800Y-68149736D01*
%TO.C,JP1*%
X147596400Y-58740800D02*
X150396400Y-58740800D01*
X147596400Y-60740800D02*
X147596400Y-58740800D01*
X150396400Y-58740800D02*
X150396400Y-60740800D01*
X150396400Y-60740800D02*
X147596400Y-60740800D01*
%TO.C,JP2*%
X149386800Y-71498000D02*
X149386800Y-74298000D01*
X147386800Y-71498000D02*
X149386800Y-71498000D01*
X149386800Y-74298000D02*
X147386800Y-74298000D01*
X147386800Y-74298000D02*
X147386800Y-71498000D01*
%TO.C,J3*%
X160438200Y-74910600D02*
X161078200Y-74910600D01*
X161078200Y-74910600D02*
X161078200Y-74510600D01*
X151718200Y-74670600D02*
X160838200Y-74670600D01*
X151718200Y-74670600D02*
X151718200Y-64550600D01*
X159278200Y-74670600D02*
X159278200Y-64550600D01*
X160378200Y-74670600D02*
X160378200Y-64550600D01*
X160838200Y-74670600D02*
X160838200Y-64550600D01*
X157059200Y-73658600D02*
X157166200Y-73764600D01*
X157325200Y-73392600D02*
X157432200Y-73498600D01*
X154124200Y-70722600D02*
X154231200Y-70829600D01*
X154390200Y-70456600D02*
X154497200Y-70563600D01*
X156770200Y-68368600D02*
X157166200Y-68763600D01*
X157052200Y-68117600D02*
X157432200Y-68497600D01*
X154124200Y-65722600D02*
X154504200Y-66102600D01*
X154390200Y-65456600D02*
X154786200Y-65851600D01*
X151718200Y-64550600D02*
X160838200Y-64550600D01*
X157958200Y-72110600D02*
G75*
G03*
X157958200Y-72110600I-2180000J0D01*
G01*
X157958200Y-67110600D02*
G75*
G03*
X157958200Y-67110600I-2180000J0D01*
G01*
%TO.C,R4*%
X143152864Y-72972600D02*
X142698736Y-72972600D01*
X143152864Y-71502600D02*
X142698736Y-71502600D01*
%TO.C,R3*%
X144524400Y-63095136D02*
X144524400Y-63549264D01*
X143054400Y-63095136D02*
X143054400Y-63549264D01*
%TO.C,U2*%
X142773400Y-66435800D02*
X140973400Y-66435800D01*
X142773400Y-66435800D02*
X143573400Y-66435800D01*
X142773400Y-69555800D02*
X141973400Y-69555800D01*
X142773400Y-69555800D02*
X143573400Y-69555800D01*
%TO.C,mosfet1*%
X137783600Y-69331800D02*
X133183600Y-69331800D01*
X133183600Y-69331800D02*
X133183600Y-58531800D01*
X133183600Y-58531800D02*
X137783600Y-58531800D01*
X137783600Y-58531800D02*
X137783600Y-69331800D01*
X132996301Y-67161800D02*
G75*
G03*
X132996301Y-67161800I-482701J0D01*
G01*
%TO.C,R5*%
X134723136Y-73001200D02*
X135177264Y-73001200D01*
X134723136Y-74471200D02*
X135177264Y-74471200D01*
%TO.C,R2*%
X141349400Y-63095136D02*
X141349400Y-63549264D01*
X139879400Y-63095136D02*
X139879400Y-63549264D01*
%TD*%
M02*
