G04 #@! TF.GenerationSoftware,KiCad,Pcbnew,7.0.2*
G04 #@! TF.CreationDate,2023-05-22T10:47:49+02:00*
G04 #@! TF.ProjectId,relaismsofet correctie,72656c61-6973-46d7-936f-66657420636f,rev?*
G04 #@! TF.SameCoordinates,Original*
G04 #@! TF.FileFunction,Copper,L1,Top*
G04 #@! TF.FilePolarity,Positive*
%FSLAX46Y46*%
G04 Gerber Fmt 4.6, Leading zero omitted, Abs format (unit mm)*
G04 Created by KiCad (PCBNEW 7.0.2) date 2023-05-22 10:47:49*
%MOMM*%
%LPD*%
G01*
G04 APERTURE LIST*
G04 Aperture macros list*
%AMRoundRect*
0 Rectangle with rounded corners*
0 $1 Rounding radius*
0 $2 $3 $4 $5 $6 $7 $8 $9 X,Y pos of 4 corners*
0 Add a 4 corners polygon primitive as box body*
4,1,4,$2,$3,$4,$5,$6,$7,$8,$9,$2,$3,0*
0 Add four circle primitives for the rounded corners*
1,1,$1+$1,$2,$3*
1,1,$1+$1,$4,$5*
1,1,$1+$1,$6,$7*
1,1,$1+$1,$8,$9*
0 Add four rect primitives between the rounded corners*
20,1,$1+$1,$2,$3,$4,$5,0*
20,1,$1+$1,$4,$5,$6,$7,0*
20,1,$1+$1,$6,$7,$8,$9,0*
20,1,$1+$1,$8,$9,$2,$3,0*%
G04 Aperture macros list end*
G04 #@! TA.AperFunction,SMDPad,CuDef*
%ADD10RoundRect,0.375000X0.575000X0.375000X-0.575000X0.375000X-0.575000X-0.375000X0.575000X-0.375000X0*%
G04 #@! TD*
G04 #@! TA.AperFunction,SMDPad,CuDef*
%ADD11RoundRect,0.041300X-0.643700X-0.253700X0.643700X-0.253700X0.643700X0.253700X-0.643700X0.253700X0*%
G04 #@! TD*
G04 #@! TA.AperFunction,SMDPad,CuDef*
%ADD12RoundRect,0.250000X-0.450000X0.350000X-0.450000X-0.350000X0.450000X-0.350000X0.450000X0.350000X0*%
G04 #@! TD*
G04 #@! TA.AperFunction,SMDPad,CuDef*
%ADD13RoundRect,0.250000X0.475000X-0.337500X0.475000X0.337500X-0.475000X0.337500X-0.475000X-0.337500X0*%
G04 #@! TD*
G04 #@! TA.AperFunction,ComponentPad*
%ADD14R,2.200000X2.200000*%
G04 #@! TD*
G04 #@! TA.AperFunction,ComponentPad*
%ADD15C,2.200000*%
G04 #@! TD*
G04 #@! TA.AperFunction,SMDPad,CuDef*
%ADD16RoundRect,0.250000X-0.475000X0.337500X-0.475000X-0.337500X0.475000X-0.337500X0.475000X0.337500X0*%
G04 #@! TD*
G04 #@! TA.AperFunction,SMDPad,CuDef*
%ADD17RoundRect,0.150000X0.825000X0.150000X-0.825000X0.150000X-0.825000X-0.150000X0.825000X-0.150000X0*%
G04 #@! TD*
G04 #@! TA.AperFunction,ComponentPad*
%ADD18R,1.700000X1.700000*%
G04 #@! TD*
G04 #@! TA.AperFunction,ComponentPad*
%ADD19O,1.700000X1.700000*%
G04 #@! TD*
G04 #@! TA.AperFunction,ViaPad*
%ADD20C,0.800000*%
G04 #@! TD*
G04 #@! TA.AperFunction,Conductor*
%ADD21C,0.250000*%
G04 #@! TD*
G04 #@! TA.AperFunction,Conductor*
%ADD22C,0.500000*%
G04 #@! TD*
G04 APERTURE END LIST*
D10*
X90274996Y-74805000D03*
X90274996Y-77345000D03*
X98574996Y-77345000D03*
X98574996Y-74805000D03*
D11*
X93550000Y-81650000D03*
X93550000Y-82600000D03*
X93550000Y-83550000D03*
X95900000Y-83550000D03*
X95900000Y-82600000D03*
X95900000Y-81650000D03*
D12*
X102325000Y-81625000D03*
X102325000Y-83625000D03*
X98725000Y-81625000D03*
X98725000Y-83625000D03*
D13*
X86207600Y-82774700D03*
X86207600Y-80699700D03*
D14*
X110000000Y-83500000D03*
D15*
X110000000Y-80960000D03*
D16*
X86868000Y-86962500D03*
X86868000Y-89037500D03*
D17*
X96450000Y-89505000D03*
X96450000Y-88235000D03*
X96450000Y-86965000D03*
X96450000Y-85695000D03*
X91500000Y-85695000D03*
X91500000Y-86965000D03*
X91500000Y-88235000D03*
X91500000Y-89505000D03*
D18*
X82000000Y-77000000D03*
D19*
X82000000Y-74460000D03*
D18*
X82000000Y-83500000D03*
D19*
X82000000Y-80960000D03*
D18*
X82000000Y-90000000D03*
D19*
X82000000Y-87460000D03*
D20*
X100500000Y-85425000D03*
X91200000Y-84250000D03*
D21*
X91525000Y-84575000D02*
X91200000Y-84250000D01*
X95900000Y-83550000D02*
X94875000Y-84575000D01*
X94875000Y-84575000D02*
X91525000Y-84575000D01*
X98574996Y-78600004D02*
X98574996Y-77345000D01*
X96975000Y-80200000D02*
X98574996Y-78600004D01*
X95000000Y-80200000D02*
X96975000Y-80200000D01*
X93550000Y-81650000D02*
X95000000Y-80200000D01*
X102325000Y-81625000D02*
X98725000Y-81625000D01*
X98700000Y-81650000D02*
X98725000Y-81625000D01*
X95900000Y-81650000D02*
X98700000Y-81650000D01*
X96365426Y-82600000D02*
X95900000Y-82600000D01*
X96910000Y-83144574D02*
X96365426Y-82600000D01*
X96910000Y-85235000D02*
X96910000Y-83144574D01*
X96450000Y-85695000D02*
X96910000Y-85235000D01*
X96450000Y-86965000D02*
X96450000Y-85695000D01*
X105265000Y-88235000D02*
X96450000Y-88235000D01*
X110000000Y-83500000D02*
X105265000Y-88235000D01*
X108160000Y-80960000D02*
X110000000Y-80960000D01*
X102005000Y-74805000D02*
X108160000Y-80960000D01*
X98574996Y-74805000D02*
X102005000Y-74805000D01*
X91500000Y-86965000D02*
X90397900Y-86965000D01*
X90397900Y-86965000D02*
X86207600Y-82774700D01*
X91500000Y-89505000D02*
X89410500Y-89505000D01*
X89410500Y-89505000D02*
X86868000Y-86962500D01*
X86370500Y-87460000D02*
X82000000Y-87460000D01*
X86868000Y-86962500D02*
X86370500Y-87460000D01*
X88145000Y-74805000D02*
X90274996Y-74805000D01*
X82000000Y-80960000D02*
X82000000Y-80950000D01*
X82000000Y-80950000D02*
X88145000Y-74805000D01*
X85307227Y-83500000D02*
X82000000Y-83500000D01*
X91500000Y-88235000D02*
X90042227Y-88235000D01*
X90042227Y-88235000D02*
X85307227Y-83500000D01*
X82850000Y-73610000D02*
X97379996Y-73610000D01*
X97379996Y-73610000D02*
X98574996Y-74805000D01*
X82000000Y-74460000D02*
X82850000Y-73610000D01*
D22*
X96450000Y-89505000D02*
X96450000Y-88235000D01*
G04 #@! TA.AperFunction,Conductor*
G36*
X101758273Y-75458185D02*
G01*
X101778915Y-75474819D01*
X107652910Y-81348814D01*
X107665959Y-81365101D01*
X107667999Y-81367016D01*
X107668000Y-81367018D01*
X107717701Y-81413690D01*
X107720465Y-81416369D01*
X107740230Y-81436134D01*
X107743484Y-81438658D01*
X107752367Y-81446244D01*
X107784679Y-81476586D01*
X107802572Y-81486422D01*
X107818831Y-81497103D01*
X107834959Y-81509613D01*
X107875625Y-81527210D01*
X107886106Y-81532346D01*
X107907567Y-81544144D01*
X107924940Y-81553695D01*
X107944710Y-81558771D01*
X107963115Y-81565071D01*
X107981855Y-81573181D01*
X108025618Y-81580111D01*
X108037045Y-81582478D01*
X108079970Y-81593500D01*
X108100391Y-81593500D01*
X108119788Y-81595026D01*
X108128555Y-81596415D01*
X108139942Y-81598219D01*
X108139942Y-81598218D01*
X108139943Y-81598219D01*
X108184049Y-81594049D01*
X108195718Y-81593500D01*
X108438522Y-81593500D01*
X108505561Y-81613185D01*
X108551316Y-81665989D01*
X108553071Y-81670018D01*
X108562384Y-81692502D01*
X108626588Y-81797273D01*
X108639891Y-81818981D01*
X108658135Y-81886427D01*
X108637018Y-81953030D01*
X108608474Y-81983038D01*
X108536737Y-82036739D01*
X108449110Y-82153796D01*
X108398011Y-82290794D01*
X108392463Y-82342403D01*
X108391500Y-82351362D01*
X108391499Y-82354652D01*
X108391499Y-82354671D01*
X108391499Y-84161232D01*
X108371814Y-84228272D01*
X108355180Y-84248913D01*
X105038914Y-87565181D01*
X104977591Y-87598666D01*
X104951233Y-87601500D01*
X97969718Y-87601500D01*
X97902679Y-87581815D01*
X97856924Y-87529011D01*
X97846980Y-87459853D01*
X97862986Y-87414379D01*
X97866101Y-87409111D01*
X97884145Y-87378601D01*
X97930562Y-87218831D01*
X97933500Y-87181502D01*
X97933500Y-86748498D01*
X97930562Y-86711169D01*
X97928043Y-86702500D01*
X97884145Y-86551399D01*
X97791479Y-86394709D01*
X97795197Y-86392510D01*
X97775456Y-86356357D01*
X97780440Y-86286665D01*
X97793440Y-86266450D01*
X97791479Y-86265291D01*
X97854080Y-86159438D01*
X97884145Y-86108601D01*
X97930562Y-85948831D01*
X97933500Y-85911502D01*
X97933500Y-85478498D01*
X97930562Y-85441169D01*
X97884145Y-85281399D01*
X97799453Y-85138193D01*
X97799452Y-85138191D01*
X97681809Y-85020548D01*
X97604378Y-84974755D01*
X97556695Y-84923685D01*
X97543500Y-84868023D01*
X97543500Y-84603524D01*
X97563185Y-84536485D01*
X97615989Y-84490730D01*
X97685147Y-84480786D01*
X97748703Y-84509811D01*
X97755181Y-84515843D01*
X97806654Y-84567316D01*
X97955877Y-84659357D01*
X98122303Y-84714506D01*
X98221890Y-84724680D01*
X98228168Y-84724999D01*
X98474999Y-84724999D01*
X98475000Y-84724998D01*
X98475000Y-83875000D01*
X98975000Y-83875000D01*
X98975000Y-84724999D01*
X99221829Y-84724999D01*
X99228111Y-84724678D01*
X99327695Y-84714506D01*
X99494122Y-84659357D01*
X99643345Y-84567316D01*
X99767316Y-84443345D01*
X99859357Y-84294122D01*
X99914506Y-84127696D01*
X99924680Y-84028109D01*
X99925000Y-84021831D01*
X99925000Y-83875000D01*
X101125001Y-83875000D01*
X101125001Y-84021829D01*
X101125321Y-84028111D01*
X101135493Y-84127695D01*
X101190642Y-84294122D01*
X101282683Y-84443345D01*
X101406654Y-84567316D01*
X101555877Y-84659357D01*
X101722303Y-84714506D01*
X101821890Y-84724680D01*
X101828168Y-84724999D01*
X102074999Y-84724999D01*
X102075000Y-84724998D01*
X102075000Y-83875000D01*
X102575000Y-83875000D01*
X102575000Y-84724999D01*
X102821829Y-84724999D01*
X102828111Y-84724678D01*
X102927695Y-84714506D01*
X103094122Y-84659357D01*
X103243345Y-84567316D01*
X103367316Y-84443345D01*
X103459357Y-84294122D01*
X103514506Y-84127696D01*
X103524680Y-84028109D01*
X103525000Y-84021831D01*
X103525000Y-83875000D01*
X102575000Y-83875000D01*
X102075000Y-83875000D01*
X101125001Y-83875000D01*
X99925000Y-83875000D01*
X98975000Y-83875000D01*
X98475000Y-83875000D01*
X98475000Y-83499000D01*
X98494685Y-83431961D01*
X98547489Y-83386206D01*
X98599000Y-83375000D01*
X99924999Y-83375000D01*
X99924999Y-83228170D01*
X99924678Y-83221888D01*
X99914506Y-83122304D01*
X99859357Y-82955877D01*
X99767316Y-82806654D01*
X99679353Y-82718691D01*
X99645868Y-82657368D01*
X99650852Y-82587676D01*
X99679351Y-82543330D01*
X99774030Y-82448652D01*
X99854986Y-82317402D01*
X99906933Y-82270679D01*
X99960524Y-82258500D01*
X101089476Y-82258500D01*
X101156515Y-82278185D01*
X101195013Y-82317401D01*
X101235797Y-82383521D01*
X101275971Y-82448654D01*
X101370646Y-82543329D01*
X101404131Y-82604652D01*
X101399147Y-82674344D01*
X101370647Y-82718691D01*
X101282681Y-82806656D01*
X101190642Y-82955877D01*
X101135493Y-83122303D01*
X101125319Y-83221890D01*
X101125000Y-83228168D01*
X101125000Y-83375000D01*
X103524999Y-83375000D01*
X103524999Y-83228170D01*
X103524678Y-83221888D01*
X103514506Y-83122304D01*
X103459357Y-82955877D01*
X103367316Y-82806654D01*
X103279353Y-82718691D01*
X103245868Y-82657368D01*
X103250852Y-82587676D01*
X103279351Y-82543330D01*
X103374030Y-82448652D01*
X103467115Y-82297738D01*
X103522887Y-82129426D01*
X103533500Y-82025545D01*
X103533499Y-81224456D01*
X103522887Y-81120574D01*
X103467115Y-80952262D01*
X103374030Y-80801348D01*
X103374029Y-80801347D01*
X103374028Y-80801345D01*
X103248654Y-80675971D01*
X103097736Y-80582884D01*
X102929426Y-80527112D01*
X102828675Y-80516819D01*
X102828659Y-80516818D01*
X102825545Y-80516500D01*
X102822397Y-80516500D01*
X101827604Y-80516500D01*
X101827584Y-80516500D01*
X101824456Y-80516501D01*
X101821325Y-80516820D01*
X101821321Y-80516821D01*
X101720574Y-80527112D01*
X101552263Y-80582884D01*
X101401345Y-80675971D01*
X101275971Y-80801345D01*
X101195015Y-80932597D01*
X101143067Y-80979321D01*
X101089476Y-80991500D01*
X99960524Y-80991500D01*
X99893485Y-80971815D01*
X99854985Y-80932597D01*
X99842622Y-80912554D01*
X99774030Y-80801348D01*
X99774029Y-80801347D01*
X99774028Y-80801345D01*
X99648654Y-80675971D01*
X99497736Y-80582884D01*
X99329426Y-80527112D01*
X99228675Y-80516819D01*
X99228659Y-80516818D01*
X99225545Y-80516500D01*
X99222397Y-80516500D01*
X98227604Y-80516500D01*
X98227584Y-80516500D01*
X98224456Y-80516501D01*
X98221325Y-80516820D01*
X98221321Y-80516821D01*
X98120574Y-80527112D01*
X97952263Y-80582884D01*
X97801345Y-80675971D01*
X97675971Y-80801345D01*
X97622135Y-80888626D01*
X97582885Y-80952262D01*
X97582885Y-80952263D01*
X97579595Y-80957597D01*
X97527647Y-81004321D01*
X97474056Y-81016500D01*
X97292136Y-81016500D01*
X97225097Y-80996815D01*
X97179342Y-80944011D01*
X97169398Y-80874853D01*
X97198423Y-80811297D01*
X97229008Y-80785772D01*
X97246165Y-80775625D01*
X97263632Y-80767068D01*
X97282617Y-80759552D01*
X97318475Y-80733498D01*
X97328223Y-80727096D01*
X97366362Y-80704542D01*
X97380800Y-80690103D01*
X97395588Y-80677472D01*
X97412107Y-80665472D01*
X97440359Y-80631319D01*
X97448203Y-80622699D01*
X98963813Y-79107089D01*
X98980093Y-79094048D01*
X98982010Y-79092006D01*
X98982014Y-79092004D01*
X99028687Y-79042299D01*
X99031305Y-79039598D01*
X99051131Y-79019774D01*
X99053656Y-79016517D01*
X99061247Y-79007628D01*
X99091582Y-78975325D01*
X99101415Y-78957436D01*
X99112096Y-78941176D01*
X99124610Y-78925045D01*
X99142203Y-78884385D01*
X99147339Y-78873899D01*
X99168691Y-78835064D01*
X99173769Y-78815281D01*
X99180066Y-78796889D01*
X99188177Y-78778149D01*
X99195108Y-78734380D01*
X99197474Y-78722957D01*
X99207307Y-78684661D01*
X99243047Y-78624626D01*
X99295317Y-78595728D01*
X99468358Y-78549362D01*
X99633835Y-78465047D01*
X99778166Y-78348170D01*
X99895043Y-78203839D01*
X99979358Y-78038362D01*
X100027426Y-77858971D01*
X100033496Y-77781843D01*
X100033495Y-76908158D01*
X100027426Y-76831029D01*
X99979358Y-76651638D01*
X99895043Y-76486161D01*
X99778166Y-76341830D01*
X99633835Y-76224953D01*
X99556372Y-76185483D01*
X99505578Y-76137510D01*
X99488783Y-76069689D01*
X99511320Y-76003555D01*
X99556372Y-75964516D01*
X99633835Y-75925047D01*
X99778166Y-75808170D01*
X99895043Y-75663839D01*
X99975361Y-75506205D01*
X100023337Y-75455409D01*
X100085847Y-75438500D01*
X101691234Y-75438500D01*
X101758273Y-75458185D01*
G37*
G04 #@! TD.AperFunction*
G04 #@! TA.AperFunction,Conductor*
G36*
X114942539Y-72020185D02*
G01*
X114988294Y-72072989D01*
X114999500Y-72124500D01*
X114999500Y-91875500D01*
X114979815Y-91942539D01*
X114927011Y-91988294D01*
X114875500Y-91999500D01*
X80134000Y-91999500D01*
X80066961Y-91979815D01*
X80021206Y-91927011D01*
X80010000Y-91875500D01*
X80010000Y-87460000D01*
X80636843Y-87460000D01*
X80655435Y-87684363D01*
X80655435Y-87684366D01*
X80655436Y-87684368D01*
X80687715Y-87811836D01*
X80710705Y-87902618D01*
X80801138Y-88108788D01*
X80801140Y-88108791D01*
X80924277Y-88297267D01*
X80924279Y-88297269D01*
X81075706Y-88461761D01*
X81106629Y-88524416D01*
X81098769Y-88593842D01*
X81054622Y-88647998D01*
X81027811Y-88661927D01*
X80907911Y-88706647D01*
X80792811Y-88792811D01*
X80706647Y-88907910D01*
X80656400Y-89042628D01*
X80650354Y-89098867D01*
X80650000Y-89105481D01*
X80650000Y-89750000D01*
X81566314Y-89750000D01*
X81540507Y-89790156D01*
X81500000Y-89928111D01*
X81500000Y-90071889D01*
X81540507Y-90209844D01*
X81566314Y-90250000D01*
X80650000Y-90250000D01*
X80650000Y-90894518D01*
X80650354Y-90901132D01*
X80656400Y-90957371D01*
X80706647Y-91092089D01*
X80792811Y-91207188D01*
X80907910Y-91293352D01*
X81042628Y-91343599D01*
X81098867Y-91349645D01*
X81105482Y-91350000D01*
X81750000Y-91350000D01*
X81750000Y-90435501D01*
X81857685Y-90484680D01*
X81964237Y-90500000D01*
X82035763Y-90500000D01*
X82142315Y-90484680D01*
X82250000Y-90435501D01*
X82250000Y-91350000D01*
X82894518Y-91350000D01*
X82901132Y-91349645D01*
X82957371Y-91343599D01*
X83092089Y-91293352D01*
X83207188Y-91207188D01*
X83293352Y-91092089D01*
X83343599Y-90957371D01*
X83349645Y-90901132D01*
X83350000Y-90894518D01*
X83350000Y-90250000D01*
X82433686Y-90250000D01*
X82459493Y-90209844D01*
X82500000Y-90071889D01*
X82500000Y-89928111D01*
X82459493Y-89790156D01*
X82433686Y-89750000D01*
X83350000Y-89750000D01*
X83350000Y-89287500D01*
X85643001Y-89287500D01*
X85643001Y-89421829D01*
X85643321Y-89428111D01*
X85653493Y-89527695D01*
X85708642Y-89694122D01*
X85800683Y-89843345D01*
X85924654Y-89967316D01*
X86073877Y-90059357D01*
X86240303Y-90114506D01*
X86339890Y-90124680D01*
X86346168Y-90124999D01*
X86617999Y-90124999D01*
X86618000Y-90124998D01*
X86618000Y-89287500D01*
X85643001Y-89287500D01*
X83350000Y-89287500D01*
X83350000Y-89105481D01*
X83349645Y-89098867D01*
X83343599Y-89042628D01*
X83293352Y-88907910D01*
X83207188Y-88792811D01*
X83092089Y-88706647D01*
X82972188Y-88661927D01*
X82916255Y-88620055D01*
X82891838Y-88554591D01*
X82906690Y-88486318D01*
X82924289Y-88461766D01*
X83075722Y-88297268D01*
X83116308Y-88235147D01*
X83172147Y-88149679D01*
X83225294Y-88104322D01*
X83275956Y-88093500D01*
X85663724Y-88093500D01*
X85730763Y-88113185D01*
X85776518Y-88165989D01*
X85786462Y-88235147D01*
X85769263Y-88282597D01*
X85708641Y-88380879D01*
X85653493Y-88547303D01*
X85643319Y-88646890D01*
X85643000Y-88653168D01*
X85643000Y-88787500D01*
X86994000Y-88787500D01*
X87061039Y-88807185D01*
X87106794Y-88859989D01*
X87118000Y-88911500D01*
X87118000Y-90124999D01*
X87389829Y-90124999D01*
X87396111Y-90124678D01*
X87495695Y-90114506D01*
X87662122Y-90059357D01*
X87811345Y-89967316D01*
X87935316Y-89843345D01*
X88027357Y-89694122D01*
X88082506Y-89527696D01*
X88092680Y-89428109D01*
X88092999Y-89421833D01*
X88092999Y-89382769D01*
X88112682Y-89315729D01*
X88165485Y-89269973D01*
X88234643Y-89260028D01*
X88298200Y-89289051D01*
X88304680Y-89295085D01*
X88903412Y-89893817D01*
X88916456Y-89910098D01*
X88918499Y-89912016D01*
X88918500Y-89912018D01*
X88968184Y-89958674D01*
X88970948Y-89961353D01*
X88990730Y-89981135D01*
X88993806Y-89983521D01*
X88994003Y-89983674D01*
X89002872Y-89991249D01*
X89035179Y-90021586D01*
X89053064Y-90031418D01*
X89069325Y-90042099D01*
X89085459Y-90054614D01*
X89126125Y-90072210D01*
X89136612Y-90077348D01*
X89175440Y-90098695D01*
X89195208Y-90103770D01*
X89213619Y-90110073D01*
X89232355Y-90118181D01*
X89276126Y-90125113D01*
X89287541Y-90127477D01*
X89330470Y-90138500D01*
X89350884Y-90138500D01*
X89370283Y-90140027D01*
X89390443Y-90143220D01*
X89434556Y-90139050D01*
X89446226Y-90138500D01*
X90175877Y-90138500D01*
X90242916Y-90158185D01*
X90263558Y-90174819D01*
X90268191Y-90179452D01*
X90411399Y-90264145D01*
X90571165Y-90310561D01*
X90571169Y-90310562D01*
X90608498Y-90313500D01*
X90610943Y-90313500D01*
X92389057Y-90313500D01*
X92391502Y-90313500D01*
X92428831Y-90310562D01*
X92588601Y-90264145D01*
X92731807Y-90179453D01*
X92849453Y-90061807D01*
X92934145Y-89918601D01*
X92980562Y-89758831D01*
X92983500Y-89721502D01*
X92983500Y-89288498D01*
X92980562Y-89251169D01*
X92934145Y-89091399D01*
X92849453Y-88948193D01*
X92841479Y-88934709D01*
X92845197Y-88932509D01*
X92825464Y-88896396D01*
X92830427Y-88826703D01*
X92843441Y-88806451D01*
X92841479Y-88805291D01*
X92888897Y-88725111D01*
X92934145Y-88648601D01*
X92980562Y-88488831D01*
X92983500Y-88451502D01*
X92983500Y-88018498D01*
X92980562Y-87981169D01*
X92957740Y-87902616D01*
X92934145Y-87821399D01*
X92841479Y-87664709D01*
X92845197Y-87662509D01*
X92825464Y-87626396D01*
X92830427Y-87556703D01*
X92843441Y-87536451D01*
X92841479Y-87535291D01*
X92912986Y-87414379D01*
X92934145Y-87378601D01*
X92980562Y-87218831D01*
X92983500Y-87181502D01*
X92983500Y-86748498D01*
X92980562Y-86711169D01*
X92978043Y-86702500D01*
X92934145Y-86551399D01*
X92841479Y-86394709D01*
X92843134Y-86393729D01*
X92819446Y-86350347D01*
X92824430Y-86280655D01*
X92836866Y-86261316D01*
X92834709Y-86260040D01*
X92926280Y-86105200D01*
X92972099Y-85947488D01*
X92972295Y-85945000D01*
X91374000Y-85945000D01*
X91306961Y-85925315D01*
X91261206Y-85872511D01*
X91250000Y-85821000D01*
X91250000Y-84895000D01*
X91750000Y-84895000D01*
X91750000Y-85445000D01*
X92972295Y-85445000D01*
X92972295Y-85444999D01*
X92972099Y-85442511D01*
X92926280Y-85284799D01*
X92842682Y-85143442D01*
X92726557Y-85027317D01*
X92585197Y-84943717D01*
X92427493Y-84897900D01*
X92393076Y-84895191D01*
X92388197Y-84895000D01*
X91750000Y-84895000D01*
X91250000Y-84895000D01*
X90611803Y-84895000D01*
X90606923Y-84895191D01*
X90572506Y-84897900D01*
X90414802Y-84943717D01*
X90273442Y-85027317D01*
X90157317Y-85143442D01*
X90073717Y-85284802D01*
X90028632Y-85439985D01*
X89991026Y-85498871D01*
X89927553Y-85528077D01*
X89858366Y-85518331D01*
X89821875Y-85493071D01*
X87477418Y-83148614D01*
X87443933Y-83087291D01*
X87441099Y-83060933D01*
X87441099Y-82389804D01*
X87441099Y-82389802D01*
X87441099Y-82386656D01*
X87430487Y-82282774D01*
X87374715Y-82114462D01*
X87281630Y-81963548D01*
X87281629Y-81963547D01*
X87281628Y-81963545D01*
X87156251Y-81838168D01*
X87155563Y-81837744D01*
X87153201Y-81835118D01*
X87146004Y-81827921D01*
X87146384Y-81827540D01*
X87108838Y-81785796D01*
X87097617Y-81716833D01*
X87125460Y-81652751D01*
X87142308Y-81638153D01*
X87274916Y-81505545D01*
X87366957Y-81356322D01*
X87422106Y-81189896D01*
X87432280Y-81090309D01*
X87432600Y-81084031D01*
X87432600Y-80949700D01*
X84982601Y-80949700D01*
X84982601Y-81084029D01*
X84982921Y-81090311D01*
X84993093Y-81189895D01*
X85048242Y-81356322D01*
X85140283Y-81505545D01*
X85274504Y-81639766D01*
X85272878Y-81641391D01*
X85306359Y-81678612D01*
X85317583Y-81747575D01*
X85289741Y-81811658D01*
X85259640Y-81837742D01*
X85258948Y-81838168D01*
X85133571Y-81963545D01*
X85040484Y-82114463D01*
X84984712Y-82282773D01*
X84974419Y-82383524D01*
X84974418Y-82383541D01*
X84974100Y-82386655D01*
X84974100Y-82604671D01*
X84974101Y-82742500D01*
X84954417Y-82809539D01*
X84901613Y-82855294D01*
X84850101Y-82866500D01*
X83482500Y-82866500D01*
X83415461Y-82846815D01*
X83369706Y-82794011D01*
X83358500Y-82742500D01*
X83358500Y-82604671D01*
X83358500Y-82601362D01*
X83351989Y-82540799D01*
X83351988Y-82540797D01*
X83351988Y-82540794D01*
X83300889Y-82403796D01*
X83213261Y-82286738D01*
X83096203Y-82199110D01*
X82978405Y-82155173D01*
X82922471Y-82113302D01*
X82898055Y-82047837D01*
X82912907Y-81979564D01*
X82930507Y-81955011D01*
X83075722Y-81797268D01*
X83198860Y-81608791D01*
X83289296Y-81402616D01*
X83344564Y-81184368D01*
X83363156Y-80960000D01*
X83344564Y-80735632D01*
X83314516Y-80616981D01*
X83317142Y-80547161D01*
X83347040Y-80498862D01*
X83396202Y-80449700D01*
X84982600Y-80449700D01*
X85957600Y-80449700D01*
X85957600Y-79612200D01*
X86457600Y-79612200D01*
X86457600Y-80449700D01*
X87432599Y-80449700D01*
X87432599Y-80315370D01*
X87432278Y-80309088D01*
X87422106Y-80209504D01*
X87366957Y-80043077D01*
X87274916Y-79893854D01*
X87150945Y-79769883D01*
X87001722Y-79677842D01*
X86835296Y-79622693D01*
X86735709Y-79612519D01*
X86729432Y-79612200D01*
X86457600Y-79612200D01*
X85957600Y-79612200D01*
X85685771Y-79612200D01*
X85679488Y-79612521D01*
X85579904Y-79622693D01*
X85413477Y-79677842D01*
X85264254Y-79769883D01*
X85140283Y-79893854D01*
X85048242Y-80043077D01*
X84993093Y-80209503D01*
X84982919Y-80309090D01*
X84982600Y-80315368D01*
X84982600Y-80449700D01*
X83396202Y-80449700D01*
X85293579Y-78552324D01*
X89421224Y-78552324D01*
X89581171Y-78592103D01*
X89621804Y-78594858D01*
X89625996Y-78595000D01*
X90923996Y-78595000D01*
X90928187Y-78594858D01*
X90968819Y-78592103D01*
X91128766Y-78552323D01*
X90274997Y-77698553D01*
X90274996Y-77698553D01*
X89421224Y-78552323D01*
X89421224Y-78552324D01*
X85293579Y-78552324D01*
X86051903Y-77794000D01*
X88824996Y-77794000D01*
X88825137Y-77798191D01*
X88827892Y-77838819D01*
X88873827Y-78023521D01*
X88958389Y-78194027D01*
X89009202Y-78257240D01*
X89921443Y-77345000D01*
X90628549Y-77345000D01*
X91540788Y-78257240D01*
X91540789Y-78257239D01*
X91591603Y-78194026D01*
X91676164Y-78023523D01*
X91722099Y-77838819D01*
X91724854Y-77798191D01*
X91724996Y-77794000D01*
X91724996Y-76895999D01*
X91724854Y-76891808D01*
X91722099Y-76851180D01*
X91676164Y-76666478D01*
X91591602Y-76495972D01*
X91540789Y-76432759D01*
X90628549Y-77344999D01*
X90628549Y-77345000D01*
X89921443Y-77345000D01*
X89009201Y-76432758D01*
X88958389Y-76495972D01*
X88873827Y-76666478D01*
X88827892Y-76851180D01*
X88825137Y-76891808D01*
X88824996Y-76895999D01*
X88824996Y-77794000D01*
X86051903Y-77794000D01*
X88371084Y-75474819D01*
X88432408Y-75441334D01*
X88458766Y-75438500D01*
X88764145Y-75438500D01*
X88831184Y-75458185D01*
X88874630Y-75506205D01*
X88954949Y-75663839D01*
X89071826Y-75808170D01*
X89216157Y-75925047D01*
X89357231Y-75996928D01*
X89408027Y-76044903D01*
X89424822Y-76112724D01*
X89420923Y-76137373D01*
X90274996Y-76991446D01*
X90274997Y-76991446D01*
X91129630Y-76136810D01*
X91130607Y-76070724D01*
X91169246Y-76012510D01*
X91192756Y-75996930D01*
X91333835Y-75925047D01*
X91478166Y-75808170D01*
X91595043Y-75663839D01*
X91679358Y-75498362D01*
X91727426Y-75318971D01*
X91733496Y-75241843D01*
X91733495Y-74368158D01*
X91733578Y-74372348D01*
X91750588Y-74304631D01*
X91801544Y-74256827D01*
X91857469Y-74243500D01*
X96992522Y-74243500D01*
X97059561Y-74263185D01*
X97105316Y-74315989D01*
X97116413Y-74372343D01*
X97116496Y-74368157D01*
X97116496Y-75239420D01*
X97116496Y-75239445D01*
X97116497Y-75241842D01*
X97116685Y-75244233D01*
X97116686Y-75244254D01*
X97122566Y-75318971D01*
X97170633Y-75498361D01*
X97224872Y-75604810D01*
X97254949Y-75663839D01*
X97371826Y-75808170D01*
X97516157Y-75925047D01*
X97588007Y-75961656D01*
X97593617Y-75964515D01*
X97644413Y-76012490D01*
X97661208Y-76080311D01*
X97638670Y-76146446D01*
X97593617Y-76185485D01*
X97516156Y-76224953D01*
X97371826Y-76341830D01*
X97254949Y-76486160D01*
X97170633Y-76651637D01*
X97122566Y-76831029D01*
X97116687Y-76905722D01*
X97116686Y-76905738D01*
X97116496Y-76908157D01*
X97116496Y-76910601D01*
X97116496Y-76910602D01*
X97116496Y-77779420D01*
X97116496Y-77779445D01*
X97116497Y-77781842D01*
X97116685Y-77784233D01*
X97116686Y-77784254D01*
X97122566Y-77858971D01*
X97170633Y-78038361D01*
X97254949Y-78203839D01*
X97371826Y-78348170D01*
X97493091Y-78446368D01*
X97516158Y-78465048D01*
X97561429Y-78488115D01*
X97612224Y-78536090D01*
X97629019Y-78603911D01*
X97606481Y-78670045D01*
X97592814Y-78686280D01*
X96748914Y-79530181D01*
X96687591Y-79563666D01*
X96661233Y-79566500D01*
X95083634Y-79566500D01*
X95062891Y-79564210D01*
X94991970Y-79566439D01*
X94988075Y-79566500D01*
X94960144Y-79566500D01*
X94956289Y-79566986D01*
X94956255Y-79566989D01*
X94956024Y-79567019D01*
X94944404Y-79567933D01*
X94900110Y-79569325D01*
X94880496Y-79575023D01*
X94861460Y-79578965D01*
X94841206Y-79581525D01*
X94800016Y-79597832D01*
X94788970Y-79601613D01*
X94746407Y-79613979D01*
X94728828Y-79624376D01*
X94711364Y-79632932D01*
X94702620Y-79636394D01*
X94692382Y-79640448D01*
X94656539Y-79666489D01*
X94646782Y-79672898D01*
X94608638Y-79695457D01*
X94594200Y-79709895D01*
X94579411Y-79722525D01*
X94562894Y-79734525D01*
X94534644Y-79768673D01*
X94526783Y-79777311D01*
X93493914Y-80810181D01*
X93432591Y-80843666D01*
X93406233Y-80846500D01*
X92863256Y-80846500D01*
X92859591Y-80846940D01*
X92859592Y-80846940D01*
X92774899Y-80857110D01*
X92634305Y-80912554D01*
X92513877Y-81003877D01*
X92422554Y-81124305D01*
X92367110Y-81264899D01*
X92367110Y-81264903D01*
X92356500Y-81353256D01*
X92356500Y-81946744D01*
X92356940Y-81950407D01*
X92367110Y-82035100D01*
X92384623Y-82079508D01*
X92390905Y-82149094D01*
X92384624Y-82170486D01*
X92367110Y-82214898D01*
X92357996Y-82290799D01*
X92356500Y-82303256D01*
X92356500Y-82896744D01*
X92356940Y-82900407D01*
X92367110Y-82985099D01*
X92384624Y-83029511D01*
X92390905Y-83099098D01*
X92384624Y-83120489D01*
X92367110Y-83164900D01*
X92367110Y-83164903D01*
X92356500Y-83253256D01*
X92356500Y-83846744D01*
X92356940Y-83850407D01*
X92367110Y-83935100D01*
X92422554Y-84075694D01*
X92422555Y-84075696D01*
X92453664Y-84116718D01*
X92513877Y-84196122D01*
X92574090Y-84241783D01*
X92634304Y-84287445D01*
X92691360Y-84309945D01*
X92774899Y-84342889D01*
X92774901Y-84342889D01*
X92774903Y-84342890D01*
X92863256Y-84353500D01*
X92866956Y-84353500D01*
X94233044Y-84353500D01*
X94236744Y-84353500D01*
X94325097Y-84342890D01*
X94465696Y-84287445D01*
X94586122Y-84196122D01*
X94631530Y-84136243D01*
X94687721Y-84094721D01*
X94757442Y-84090169D01*
X94818556Y-84124033D01*
X94829136Y-84136243D01*
X94869943Y-84190054D01*
X94988510Y-84279966D01*
X95126931Y-84334553D01*
X95210258Y-84344559D01*
X95217622Y-84345000D01*
X95650000Y-84345000D01*
X95650000Y-83527500D01*
X95669685Y-83460461D01*
X95722489Y-83414706D01*
X95774000Y-83403500D01*
X96026000Y-83403500D01*
X96093039Y-83423185D01*
X96138794Y-83475989D01*
X96150000Y-83527500D01*
X96150000Y-84345000D01*
X96152500Y-84345000D01*
X96219539Y-84364685D01*
X96265294Y-84417489D01*
X96276500Y-84469000D01*
X96276500Y-84762500D01*
X96256815Y-84829539D01*
X96204011Y-84875294D01*
X96152500Y-84886500D01*
X95558498Y-84886500D01*
X95556077Y-84886690D01*
X95556065Y-84886691D01*
X95521165Y-84889438D01*
X95361399Y-84935854D01*
X95218191Y-85020547D01*
X95100547Y-85138191D01*
X95015854Y-85281399D01*
X94969438Y-85441165D01*
X94969137Y-85444999D01*
X94966500Y-85478498D01*
X94966500Y-85911502D01*
X94966690Y-85913923D01*
X94966691Y-85913934D01*
X94969438Y-85948834D01*
X95015854Y-86108600D01*
X95108521Y-86265291D01*
X95104802Y-86267490D01*
X95124543Y-86303642D01*
X95119559Y-86373334D01*
X95106565Y-86393552D01*
X95108521Y-86394709D01*
X95015854Y-86551399D01*
X94969438Y-86711165D01*
X94969438Y-86711169D01*
X94966500Y-86748498D01*
X94966500Y-87181502D01*
X94966690Y-87183923D01*
X94966691Y-87183934D01*
X94969438Y-87218834D01*
X95015854Y-87378600D01*
X95015855Y-87378601D01*
X95096457Y-87514892D01*
X95108521Y-87535290D01*
X95104804Y-87537488D01*
X95124552Y-87573680D01*
X95119545Y-87643370D01*
X95106571Y-87663557D01*
X95108521Y-87664710D01*
X95015854Y-87821399D01*
X94969438Y-87981165D01*
X94969438Y-87981169D01*
X94966500Y-88018498D01*
X94966500Y-88451502D01*
X94966690Y-88453923D01*
X94966691Y-88453934D01*
X94969438Y-88488834D01*
X95015854Y-88648600D01*
X95108521Y-88805291D01*
X95104802Y-88807490D01*
X95124543Y-88843642D01*
X95119559Y-88913334D01*
X95106568Y-88933555D01*
X95108521Y-88934710D01*
X95015854Y-89091399D01*
X94969438Y-89251165D01*
X94968741Y-89260028D01*
X94966500Y-89288498D01*
X94966500Y-89721502D01*
X94966690Y-89723923D01*
X94966691Y-89723934D01*
X94969438Y-89758834D01*
X95015854Y-89918600D01*
X95100547Y-90061808D01*
X95218191Y-90179452D01*
X95361399Y-90264145D01*
X95521165Y-90310561D01*
X95521169Y-90310562D01*
X95558498Y-90313500D01*
X95560943Y-90313500D01*
X97339057Y-90313500D01*
X97341502Y-90313500D01*
X97378831Y-90310562D01*
X97538601Y-90264145D01*
X97681807Y-90179453D01*
X97799453Y-90061807D01*
X97884145Y-89918601D01*
X97930562Y-89758831D01*
X97933500Y-89721502D01*
X97933500Y-89288498D01*
X97930562Y-89251169D01*
X97893713Y-89124334D01*
X109499500Y-89124334D01*
X109540429Y-89369615D01*
X109621170Y-89604805D01*
X109621172Y-89604810D01*
X109739526Y-89823509D01*
X109739529Y-89823514D01*
X109866975Y-89987255D01*
X109892262Y-90019744D01*
X110075215Y-90188164D01*
X110283393Y-90324173D01*
X110511119Y-90424063D01*
X110752179Y-90485108D01*
X110937933Y-90500500D01*
X110940503Y-90500500D01*
X111059497Y-90500500D01*
X111062067Y-90500500D01*
X111247821Y-90485108D01*
X111488881Y-90424063D01*
X111716607Y-90324173D01*
X111924785Y-90188164D01*
X112107738Y-90019744D01*
X112260474Y-89823509D01*
X112378828Y-89604810D01*
X112459571Y-89369614D01*
X112500500Y-89124335D01*
X112500500Y-88875665D01*
X112459571Y-88630386D01*
X112378828Y-88395190D01*
X112260474Y-88176491D01*
X112260471Y-88176487D01*
X112260470Y-88176485D01*
X112135609Y-88016065D01*
X112107738Y-87980256D01*
X111924785Y-87811836D01*
X111716607Y-87675827D01*
X111716604Y-87675825D01*
X111591523Y-87620960D01*
X111488881Y-87575937D01*
X111275128Y-87521807D01*
X111247822Y-87514892D01*
X111213854Y-87512077D01*
X111062067Y-87499500D01*
X110937933Y-87499500D01*
X110820111Y-87509262D01*
X110752177Y-87514892D01*
X110630087Y-87545810D01*
X110511119Y-87575937D01*
X110511116Y-87575938D01*
X110511117Y-87575938D01*
X110283395Y-87675825D01*
X110144607Y-87766499D01*
X110075215Y-87811836D01*
X109976600Y-87902618D01*
X109892259Y-87980259D01*
X109739529Y-88176485D01*
X109621170Y-88395194D01*
X109540429Y-88630384D01*
X109499500Y-88875665D01*
X109499500Y-89124334D01*
X97893713Y-89124334D01*
X97884145Y-89091399D01*
X97862986Y-89055621D01*
X97845803Y-88987897D01*
X97867963Y-88921635D01*
X97922429Y-88877871D01*
X97969718Y-88868500D01*
X105181367Y-88868500D01*
X105202108Y-88870789D01*
X105204905Y-88870701D01*
X105204909Y-88870702D01*
X105273017Y-88868560D01*
X105276913Y-88868500D01*
X105300958Y-88868500D01*
X105304856Y-88868500D01*
X105308724Y-88868011D01*
X105308947Y-88867983D01*
X105320608Y-88867064D01*
X105364889Y-88865673D01*
X105384498Y-88859975D01*
X105403531Y-88856033D01*
X105423797Y-88853474D01*
X105465006Y-88837157D01*
X105476037Y-88833380D01*
X105518593Y-88821018D01*
X105536160Y-88810628D01*
X105553632Y-88802068D01*
X105572617Y-88794552D01*
X105608475Y-88768498D01*
X105618223Y-88762096D01*
X105656362Y-88739542D01*
X105670800Y-88725103D01*
X105685588Y-88712472D01*
X105702107Y-88700472D01*
X105730359Y-88666319D01*
X105738203Y-88657699D01*
X109251084Y-85144819D01*
X109312408Y-85111334D01*
X109338766Y-85108500D01*
X111145328Y-85108500D01*
X111148638Y-85108500D01*
X111209201Y-85101989D01*
X111209203Y-85101988D01*
X111209205Y-85101988D01*
X111287124Y-85072924D01*
X111346204Y-85050889D01*
X111463261Y-84963261D01*
X111550889Y-84846204D01*
X111596216Y-84724680D01*
X111601988Y-84709205D01*
X111601988Y-84709203D01*
X111601989Y-84709201D01*
X111608500Y-84648638D01*
X111608500Y-83952548D01*
X111628185Y-83885509D01*
X111680989Y-83839754D01*
X111750147Y-83829810D01*
X111813703Y-83858835D01*
X111837492Y-83886574D01*
X111867983Y-83935100D01*
X111910185Y-84002264D01*
X112037735Y-84129814D01*
X112037737Y-84129815D01*
X112037738Y-84129816D01*
X112190478Y-84225789D01*
X112360745Y-84285368D01*
X112495046Y-84300500D01*
X112498530Y-84300500D01*
X112581470Y-84300500D01*
X112584954Y-84300500D01*
X112719255Y-84285368D01*
X112889522Y-84225789D01*
X113042262Y-84129816D01*
X113169816Y-84002262D01*
X113265789Y-83849522D01*
X113325368Y-83679255D01*
X113345565Y-83500000D01*
X113325368Y-83320745D01*
X113265789Y-83150478D01*
X113169816Y-82997738D01*
X113169815Y-82997737D01*
X113169814Y-82997735D01*
X113042264Y-82870185D01*
X112941158Y-82806656D01*
X112889522Y-82774211D01*
X112719255Y-82714632D01*
X112719251Y-82714631D01*
X112719250Y-82714631D01*
X112588420Y-82699890D01*
X112588410Y-82699889D01*
X112584954Y-82699500D01*
X112495046Y-82699500D01*
X112491590Y-82699889D01*
X112491579Y-82699890D01*
X112360749Y-82714631D01*
X112360746Y-82714631D01*
X112360745Y-82714632D01*
X112190478Y-82774211D01*
X112190476Y-82774211D01*
X112190476Y-82774212D01*
X112037735Y-82870185D01*
X111910184Y-82997736D01*
X111837494Y-83113423D01*
X111785159Y-83159714D01*
X111716106Y-83170362D01*
X111652257Y-83141987D01*
X111613885Y-83083598D01*
X111608500Y-83047451D01*
X111608500Y-82354671D01*
X111608500Y-82351362D01*
X111601989Y-82290799D01*
X111601988Y-82290797D01*
X111601988Y-82290794D01*
X111550889Y-82153796D01*
X111463262Y-82036740D01*
X111461071Y-82035100D01*
X111391524Y-81983037D01*
X111349654Y-81927104D01*
X111344670Y-81857413D01*
X111360109Y-81818981D01*
X111437616Y-81692502D01*
X111534505Y-81458591D01*
X111571148Y-81305960D01*
X111605937Y-81245370D01*
X111667963Y-81213205D01*
X111737532Y-81219681D01*
X111792556Y-81262740D01*
X111808761Y-81293950D01*
X111814209Y-81309518D01*
X111814210Y-81309520D01*
X111814211Y-81309522D01*
X111844016Y-81356956D01*
X111910185Y-81462264D01*
X112037735Y-81589814D01*
X112037737Y-81589815D01*
X112037738Y-81589816D01*
X112190478Y-81685789D01*
X112360745Y-81745368D01*
X112495046Y-81760500D01*
X112498530Y-81760500D01*
X112581470Y-81760500D01*
X112584954Y-81760500D01*
X112719255Y-81745368D01*
X112889522Y-81685789D01*
X113042262Y-81589816D01*
X113169816Y-81462262D01*
X113265789Y-81309522D01*
X113325368Y-81139255D01*
X113345565Y-80960000D01*
X113325368Y-80780745D01*
X113265789Y-80610478D01*
X113169816Y-80457738D01*
X113169815Y-80457737D01*
X113169814Y-80457735D01*
X113042264Y-80330185D01*
X112961499Y-80279437D01*
X112889522Y-80234211D01*
X112719255Y-80174632D01*
X112719251Y-80174631D01*
X112719250Y-80174631D01*
X112588420Y-80159890D01*
X112588410Y-80159889D01*
X112584954Y-80159500D01*
X112495046Y-80159500D01*
X112491590Y-80159889D01*
X112491579Y-80159890D01*
X112360749Y-80174631D01*
X112360746Y-80174631D01*
X112360745Y-80174632D01*
X112190478Y-80234211D01*
X112190476Y-80234211D01*
X112190476Y-80234212D01*
X112037735Y-80330185D01*
X111910185Y-80457735D01*
X111814209Y-80610480D01*
X111808761Y-80626050D01*
X111768037Y-80682824D01*
X111703084Y-80708569D01*
X111634522Y-80695111D01*
X111584121Y-80646722D01*
X111571147Y-80614037D01*
X111570292Y-80610476D01*
X111534505Y-80461409D01*
X111437616Y-80227498D01*
X111305328Y-80011624D01*
X111140898Y-79819102D01*
X110948376Y-79654672D01*
X110732502Y-79522384D01*
X110615546Y-79473939D01*
X110498590Y-79425494D01*
X110252404Y-79366391D01*
X110000000Y-79346526D01*
X109747595Y-79366391D01*
X109501409Y-79425494D01*
X109267496Y-79522385D01*
X109051625Y-79654671D01*
X108859102Y-79819102D01*
X108694671Y-80011625D01*
X108557285Y-80235819D01*
X108555563Y-80234763D01*
X108519561Y-80279437D01*
X108453266Y-80301499D01*
X108385567Y-80284217D01*
X108361164Y-80265259D01*
X103220239Y-75124334D01*
X109499500Y-75124334D01*
X109540429Y-75369615D01*
X109619929Y-75601189D01*
X109621172Y-75604810D01*
X109739526Y-75823509D01*
X109739529Y-75823514D01*
X109818556Y-75925047D01*
X109892262Y-76019744D01*
X110075215Y-76188164D01*
X110283393Y-76324173D01*
X110511119Y-76424063D01*
X110752179Y-76485108D01*
X110937933Y-76500500D01*
X110940503Y-76500500D01*
X111059497Y-76500500D01*
X111062067Y-76500500D01*
X111247821Y-76485108D01*
X111488881Y-76424063D01*
X111716607Y-76324173D01*
X111924785Y-76188164D01*
X112107738Y-76019744D01*
X112260474Y-75823509D01*
X112378828Y-75604810D01*
X112459571Y-75369614D01*
X112500500Y-75124335D01*
X112500500Y-74875665D01*
X112459571Y-74630386D01*
X112378828Y-74395190D01*
X112260474Y-74176491D01*
X112260471Y-74176487D01*
X112260470Y-74176485D01*
X112136636Y-74017384D01*
X112107738Y-73980256D01*
X111924785Y-73811836D01*
X111716607Y-73675827D01*
X111716604Y-73675825D01*
X111591523Y-73620960D01*
X111488881Y-73575937D01*
X111294904Y-73526815D01*
X111247822Y-73514892D01*
X111213854Y-73512077D01*
X111062067Y-73499500D01*
X110937933Y-73499500D01*
X110820111Y-73509262D01*
X110752177Y-73514892D01*
X110630087Y-73545810D01*
X110511119Y-73575937D01*
X110511116Y-73575938D01*
X110511117Y-73575938D01*
X110283395Y-73675825D01*
X110144607Y-73766499D01*
X110075215Y-73811836D01*
X110075213Y-73811837D01*
X110075214Y-73811837D01*
X109892259Y-73980259D01*
X109739529Y-74176485D01*
X109690060Y-74267896D01*
X109630385Y-74378167D01*
X109621170Y-74395194D01*
X109540429Y-74630384D01*
X109499500Y-74875665D01*
X109499500Y-75124334D01*
X103220239Y-75124334D01*
X102512088Y-74416183D01*
X102499044Y-74399902D01*
X102497000Y-74397983D01*
X102497000Y-74397982D01*
X102447315Y-74351325D01*
X102444550Y-74348645D01*
X102427527Y-74331622D01*
X102424770Y-74328865D01*
X102421486Y-74326317D01*
X102412623Y-74318746D01*
X102380321Y-74288414D01*
X102362433Y-74278580D01*
X102346169Y-74267896D01*
X102330040Y-74255385D01*
X102289377Y-74237789D01*
X102278883Y-74232648D01*
X102240062Y-74211305D01*
X102228386Y-74208307D01*
X102220284Y-74206227D01*
X102201879Y-74199926D01*
X102183145Y-74191819D01*
X102183143Y-74191818D01*
X102183142Y-74191818D01*
X102139383Y-74184887D01*
X102127943Y-74182518D01*
X102085031Y-74171500D01*
X102085030Y-74171500D01*
X102064616Y-74171500D01*
X102045217Y-74169973D01*
X102025058Y-74166780D01*
X102025057Y-74166780D01*
X101992318Y-74169874D01*
X101980943Y-74170950D01*
X101969274Y-74171500D01*
X100085847Y-74171500D01*
X100018808Y-74151815D01*
X99975362Y-74103795D01*
X99931333Y-74017384D01*
X99895043Y-73946161D01*
X99778166Y-73801830D01*
X99633835Y-73684953D01*
X99615924Y-73675827D01*
X99468358Y-73600637D01*
X99326876Y-73562727D01*
X99288967Y-73552570D01*
X99279713Y-73551841D01*
X99214273Y-73546691D01*
X99214258Y-73546690D01*
X99211839Y-73546500D01*
X99209394Y-73546500D01*
X98263763Y-73546500D01*
X98196724Y-73526815D01*
X98176082Y-73510181D01*
X97887084Y-73221183D01*
X97874040Y-73204902D01*
X97871996Y-73202983D01*
X97871996Y-73202982D01*
X97822311Y-73156325D01*
X97819546Y-73153645D01*
X97802523Y-73136622D01*
X97799766Y-73133865D01*
X97796482Y-73131317D01*
X97787619Y-73123746D01*
X97755317Y-73093414D01*
X97737429Y-73083580D01*
X97721165Y-73072896D01*
X97705036Y-73060385D01*
X97664373Y-73042789D01*
X97653879Y-73037648D01*
X97615058Y-73016305D01*
X97603382Y-73013307D01*
X97595280Y-73011227D01*
X97576875Y-73004926D01*
X97558141Y-72996819D01*
X97558139Y-72996818D01*
X97558138Y-72996818D01*
X97514379Y-72989887D01*
X97502939Y-72987518D01*
X97460027Y-72976500D01*
X97460026Y-72976500D01*
X97439612Y-72976500D01*
X97420213Y-72974973D01*
X97400054Y-72971780D01*
X97400053Y-72971780D01*
X97373416Y-72974298D01*
X97355939Y-72975950D01*
X97344270Y-72976500D01*
X82933634Y-72976500D01*
X82912891Y-72974210D01*
X82841970Y-72976439D01*
X82838075Y-72976500D01*
X82810144Y-72976500D01*
X82806289Y-72976986D01*
X82806255Y-72976989D01*
X82806024Y-72977019D01*
X82794404Y-72977933D01*
X82750110Y-72979325D01*
X82730496Y-72985023D01*
X82711460Y-72988965D01*
X82691206Y-72991525D01*
X82650016Y-73007832D01*
X82638970Y-73011613D01*
X82596407Y-73023979D01*
X82578828Y-73034376D01*
X82561364Y-73042932D01*
X82552620Y-73046394D01*
X82542382Y-73050448D01*
X82506539Y-73076489D01*
X82496782Y-73082898D01*
X82458638Y-73105457D01*
X82457038Y-73107058D01*
X82395713Y-73140540D01*
X82345212Y-73137595D01*
X82344770Y-73140247D01*
X82112569Y-73101500D01*
X81887431Y-73101500D01*
X81665363Y-73138556D01*
X81452427Y-73211657D01*
X81254424Y-73318811D01*
X81076760Y-73457094D01*
X80924279Y-73622730D01*
X80801138Y-73811211D01*
X80726988Y-73980259D01*
X80710704Y-74017384D01*
X80670414Y-74176485D01*
X80655435Y-74235636D01*
X80636843Y-74460000D01*
X80655435Y-74684363D01*
X80655435Y-74684366D01*
X80655436Y-74684368D01*
X80703879Y-74875665D01*
X80710705Y-74902618D01*
X80801138Y-75108788D01*
X80801140Y-75108791D01*
X80924278Y-75297268D01*
X81072414Y-75458185D01*
X81075706Y-75461761D01*
X81106629Y-75524416D01*
X81098769Y-75593842D01*
X81054622Y-75647998D01*
X81027811Y-75661927D01*
X80907911Y-75706647D01*
X80792811Y-75792811D01*
X80706647Y-75907910D01*
X80656400Y-76042628D01*
X80650354Y-76098867D01*
X80650000Y-76105481D01*
X80650000Y-76750000D01*
X81566314Y-76750000D01*
X81540507Y-76790156D01*
X81500000Y-76928111D01*
X81500000Y-77071889D01*
X81540507Y-77209844D01*
X81566314Y-77250000D01*
X80650000Y-77250000D01*
X80650000Y-77894518D01*
X80650354Y-77901132D01*
X80656400Y-77957371D01*
X80706647Y-78092089D01*
X80792811Y-78207188D01*
X80907910Y-78293352D01*
X81042628Y-78343599D01*
X81098867Y-78349645D01*
X81105482Y-78350000D01*
X81750000Y-78350000D01*
X81750000Y-77435501D01*
X81857685Y-77484680D01*
X81964237Y-77500000D01*
X82035763Y-77500000D01*
X82142315Y-77484680D01*
X82250000Y-77435501D01*
X82250000Y-78350000D01*
X82894518Y-78350000D01*
X82901132Y-78349645D01*
X82957371Y-78343599D01*
X83092089Y-78293352D01*
X83207188Y-78207188D01*
X83293352Y-78092089D01*
X83343599Y-77957371D01*
X83349645Y-77901132D01*
X83350000Y-77894518D01*
X83350000Y-77250000D01*
X82433686Y-77250000D01*
X82459493Y-77209844D01*
X82500000Y-77071889D01*
X82500000Y-76928111D01*
X82459493Y-76790156D01*
X82433686Y-76750000D01*
X83350000Y-76750000D01*
X83350000Y-76105481D01*
X83349645Y-76098867D01*
X83343599Y-76042628D01*
X83293352Y-75907910D01*
X83207188Y-75792811D01*
X83092089Y-75706647D01*
X82972188Y-75661927D01*
X82916255Y-75620055D01*
X82891838Y-75554591D01*
X82906690Y-75486318D01*
X82924289Y-75461766D01*
X83075722Y-75297268D01*
X83198860Y-75108791D01*
X83289296Y-74902616D01*
X83344564Y-74684368D01*
X83363156Y-74460000D01*
X83357786Y-74395190D01*
X83356340Y-74377740D01*
X83370421Y-74309304D01*
X83419266Y-74259345D01*
X83479916Y-74243500D01*
X87511232Y-74243500D01*
X87578271Y-74263185D01*
X87624026Y-74315989D01*
X87633970Y-74385147D01*
X87604945Y-74448703D01*
X87598913Y-74455181D01*
X82449102Y-79604991D01*
X82387779Y-79638476D01*
X82341012Y-79639619D01*
X82112569Y-79601500D01*
X81887431Y-79601500D01*
X81665363Y-79638556D01*
X81452427Y-79711657D01*
X81254424Y-79818811D01*
X81076760Y-79957094D01*
X80924279Y-80122730D01*
X80801138Y-80311211D01*
X80711091Y-80516501D01*
X80710704Y-80517384D01*
X80670544Y-80675971D01*
X80655435Y-80735636D01*
X80636843Y-80960000D01*
X80655435Y-81184363D01*
X80655435Y-81184366D01*
X80655436Y-81184368D01*
X80701689Y-81367018D01*
X80710705Y-81402618D01*
X80801138Y-81608788D01*
X80924281Y-81797273D01*
X81069489Y-81955009D01*
X81100412Y-82017663D01*
X81092552Y-82087089D01*
X81048405Y-82141245D01*
X81021595Y-82155173D01*
X80903795Y-82199111D01*
X80786738Y-82286738D01*
X80699110Y-82403796D01*
X80648011Y-82540794D01*
X80644438Y-82574030D01*
X80641500Y-82601362D01*
X80641500Y-84398638D01*
X80641852Y-84401918D01*
X80641853Y-84401924D01*
X80648011Y-84459205D01*
X80699110Y-84596203D01*
X80786738Y-84713261D01*
X80903796Y-84800889D01*
X81040794Y-84851988D01*
X81040797Y-84851988D01*
X81040799Y-84851989D01*
X81101362Y-84858500D01*
X81104672Y-84858500D01*
X82895328Y-84858500D01*
X82898638Y-84858500D01*
X82959201Y-84851989D01*
X82959203Y-84851988D01*
X82959205Y-84851988D01*
X83037124Y-84822924D01*
X83096204Y-84800889D01*
X83213261Y-84713261D01*
X83300889Y-84596204D01*
X83323163Y-84536485D01*
X83351988Y-84459205D01*
X83351988Y-84459203D01*
X83351989Y-84459201D01*
X83358500Y-84398638D01*
X83358500Y-84257500D01*
X83378185Y-84190461D01*
X83430989Y-84144706D01*
X83482500Y-84133500D01*
X84993461Y-84133500D01*
X85060500Y-84153185D01*
X85081142Y-84169819D01*
X86566142Y-85654819D01*
X86599627Y-85716142D01*
X86594643Y-85785834D01*
X86552771Y-85841767D01*
X86487307Y-85866184D01*
X86478462Y-85866500D01*
X86345605Y-85866500D01*
X86345585Y-85866500D01*
X86342456Y-85866501D01*
X86339325Y-85866820D01*
X86339321Y-85866821D01*
X86238574Y-85877112D01*
X86070263Y-85932884D01*
X85919345Y-86025971D01*
X85793971Y-86151345D01*
X85700884Y-86302263D01*
X85645112Y-86470573D01*
X85634819Y-86571324D01*
X85634818Y-86571341D01*
X85634500Y-86574455D01*
X85634500Y-86577601D01*
X85634500Y-86577602D01*
X85634500Y-86702500D01*
X85614815Y-86769539D01*
X85562011Y-86815294D01*
X85510500Y-86826500D01*
X83275956Y-86826500D01*
X83208917Y-86806815D01*
X83172147Y-86770321D01*
X83075723Y-86622732D01*
X82999481Y-86539913D01*
X82923240Y-86457094D01*
X82745576Y-86318811D01*
X82547574Y-86211658D01*
X82547573Y-86211657D01*
X82547572Y-86211657D01*
X82334636Y-86138556D01*
X82112569Y-86101500D01*
X81887431Y-86101500D01*
X81665363Y-86138556D01*
X81452427Y-86211657D01*
X81254424Y-86318811D01*
X81076760Y-86457094D01*
X80924279Y-86622730D01*
X80801138Y-86811211D01*
X80710705Y-87017381D01*
X80655435Y-87235636D01*
X80636843Y-87460000D01*
X80010000Y-87460000D01*
X80010000Y-72124500D01*
X80029685Y-72057461D01*
X80082489Y-72011706D01*
X80134000Y-72000500D01*
X114875500Y-72000500D01*
X114942539Y-72020185D01*
G37*
G04 #@! TD.AperFunction*
M02*
