G04 #@! TF.GenerationSoftware,KiCad,Pcbnew,7.0.2*
G04 #@! TF.CreationDate,2023-12-12T16:52:55+01:00*
G04 #@! TF.ProjectId,board_TEMT6000_waterclosedcase,626f6172-645f-4544-954d-54363030305f,rev?*
G04 #@! TF.SameCoordinates,Original*
G04 #@! TF.FileFunction,Copper,L1,Top*
G04 #@! TF.FilePolarity,Positive*
%FSLAX46Y46*%
G04 Gerber Fmt 4.6, Leading zero omitted, Abs format (unit mm)*
G04 Created by KiCad (PCBNEW 7.0.2) date 2023-12-12 16:52:55*
%MOMM*%
%LPD*%
G01*
G04 APERTURE LIST*
G04 Aperture macros list*
%AMRoundRect*
0 Rectangle with rounded corners*
0 $1 Rounding radius*
0 $2 $3 $4 $5 $6 $7 $8 $9 X,Y pos of 4 corners*
0 Add a 4 corners polygon primitive as box body*
4,1,4,$2,$3,$4,$5,$6,$7,$8,$9,$2,$3,0*
0 Add four circle primitives for the rounded corners*
1,1,$1+$1,$2,$3*
1,1,$1+$1,$4,$5*
1,1,$1+$1,$6,$7*
1,1,$1+$1,$8,$9*
0 Add four rect primitives between the rounded corners*
20,1,$1+$1,$2,$3,$4,$5,0*
20,1,$1+$1,$4,$5,$6,$7,0*
20,1,$1+$1,$6,$7,$8,$9,0*
20,1,$1+$1,$8,$9,$2,$3,0*%
G04 Aperture macros list end*
G04 #@! TA.AperFunction,SMDPad,CuDef*
%ADD10R,1.100000X0.800000*%
G04 #@! TD*
G04 #@! TA.AperFunction,SMDPad,CuDef*
%ADD11R,1.100000X1.000000*%
G04 #@! TD*
G04 #@! TA.AperFunction,SMDPad,CuDef*
%ADD12RoundRect,0.250000X-0.350000X-0.450000X0.350000X-0.450000X0.350000X0.450000X-0.350000X0.450000X0*%
G04 #@! TD*
G04 #@! TA.AperFunction,ComponentPad*
%ADD13C,3.600000*%
G04 #@! TD*
G04 #@! TA.AperFunction,ConnectorPad*
%ADD14C,5.600000*%
G04 #@! TD*
G04 #@! TA.AperFunction,ComponentPad*
%ADD15RoundRect,0.250000X0.550000X-0.550000X0.550000X0.550000X-0.550000X0.550000X-0.550000X-0.550000X0*%
G04 #@! TD*
G04 #@! TA.AperFunction,ComponentPad*
%ADD16C,1.600000*%
G04 #@! TD*
G04 #@! TA.AperFunction,Conductor*
%ADD17C,0.250000*%
G04 #@! TD*
G04 APERTURE END LIST*
D10*
X119420000Y-83350000D03*
D11*
X115690000Y-84010000D03*
D10*
X119420000Y-84650000D03*
D12*
X119425000Y-86475000D03*
X121425000Y-86475000D03*
D13*
X99000000Y-84000000D03*
D14*
X99000000Y-84000000D03*
D15*
X124950000Y-87600000D03*
D16*
X124950000Y-84000000D03*
X124950000Y-80400000D03*
D13*
X139000000Y-84000000D03*
D14*
X139000000Y-84000000D03*
D17*
X115690000Y-86690000D02*
X115690000Y-84010000D01*
X117725000Y-88725000D02*
X115690000Y-86690000D01*
X124950000Y-87600000D02*
X123825000Y-88725000D01*
X123825000Y-88725000D02*
X117725000Y-88725000D01*
X119425000Y-86475000D02*
X119425000Y-84655000D01*
X119425000Y-84655000D02*
X119420000Y-84650000D01*
X124300000Y-84650000D02*
X119420000Y-84650000D01*
X124950000Y-84000000D02*
X124300000Y-84650000D01*
G04 #@! TA.AperFunction,Conductor*
G36*
X147942539Y-77020185D02*
G01*
X147988294Y-77072989D01*
X147999500Y-77124500D01*
X147999500Y-90851000D01*
X147979815Y-90918039D01*
X147927011Y-90963794D01*
X147875500Y-90975000D01*
X90149000Y-90975000D01*
X90081961Y-90955315D01*
X90036206Y-90902511D01*
X90025000Y-90851000D01*
X90025000Y-84000000D01*
X95694652Y-84000000D01*
X95694834Y-84003356D01*
X95713845Y-84354007D01*
X95713846Y-84354018D01*
X95714028Y-84357371D01*
X95714572Y-84360692D01*
X95714573Y-84360697D01*
X95771384Y-84707233D01*
X95771387Y-84707248D01*
X95771929Y-84710552D01*
X95772827Y-84713789D01*
X95772828Y-84713790D01*
X95852306Y-85000047D01*
X95867676Y-85055403D01*
X95868924Y-85058535D01*
X95955496Y-85275816D01*
X96000147Y-85387880D01*
X96001721Y-85390849D01*
X96001722Y-85390851D01*
X96052793Y-85487181D01*
X96167789Y-85704085D01*
X96368635Y-86000311D01*
X96600332Y-86273086D01*
X96602763Y-86275389D01*
X96602769Y-86275395D01*
X96740547Y-86405905D01*
X96860163Y-86519211D01*
X97145081Y-86735800D01*
X97451747Y-86920315D01*
X97776565Y-87070591D01*
X98115726Y-87184868D01*
X98465254Y-87261805D01*
X98821052Y-87300500D01*
X98824410Y-87300500D01*
X99175590Y-87300500D01*
X99178948Y-87300500D01*
X99534746Y-87261805D01*
X99884274Y-87184868D01*
X100223435Y-87070591D01*
X100548253Y-86920315D01*
X100854919Y-86735800D01*
X101139837Y-86519211D01*
X101399668Y-86273086D01*
X101631365Y-86000311D01*
X101832211Y-85704085D01*
X101999853Y-85387880D01*
X102132324Y-85055403D01*
X102228071Y-84710552D01*
X102253642Y-84554578D01*
X114639500Y-84554578D01*
X114639501Y-84557872D01*
X114645909Y-84617483D01*
X114696204Y-84752331D01*
X114782454Y-84867546D01*
X114897669Y-84953796D01*
X114983833Y-84985933D01*
X115039766Y-85027803D01*
X115064183Y-85093267D01*
X115064499Y-85102114D01*
X115064499Y-86607256D01*
X115062235Y-86627763D01*
X115064439Y-86697872D01*
X115064500Y-86701767D01*
X115064500Y-86729350D01*
X115064988Y-86733219D01*
X115064989Y-86733225D01*
X115065004Y-86733343D01*
X115065918Y-86744967D01*
X115067290Y-86788626D01*
X115072879Y-86807860D01*
X115076825Y-86826916D01*
X115079335Y-86846792D01*
X115095414Y-86887404D01*
X115099197Y-86898451D01*
X115111382Y-86940391D01*
X115121580Y-86957635D01*
X115130136Y-86975100D01*
X115137514Y-86993732D01*
X115142062Y-86999992D01*
X115163180Y-87029059D01*
X115169593Y-87038822D01*
X115191826Y-87076416D01*
X115191829Y-87076419D01*
X115191830Y-87076420D01*
X115205995Y-87090585D01*
X115218627Y-87105375D01*
X115230406Y-87121587D01*
X115264058Y-87149426D01*
X115272699Y-87157289D01*
X117224197Y-89108787D01*
X117237098Y-89124889D01*
X117239212Y-89126874D01*
X117239214Y-89126877D01*
X117286561Y-89171339D01*
X117288240Y-89172916D01*
X117291036Y-89175626D01*
X117310530Y-89195120D01*
X117313615Y-89197513D01*
X117313701Y-89197580D01*
X117322573Y-89205158D01*
X117354418Y-89235062D01*
X117371974Y-89244714D01*
X117388231Y-89255392D01*
X117404064Y-89267674D01*
X117420185Y-89274649D01*
X117444156Y-89285023D01*
X117454643Y-89290160D01*
X117492908Y-89311197D01*
X117512316Y-89316180D01*
X117530710Y-89322478D01*
X117549105Y-89330438D01*
X117592254Y-89337271D01*
X117603680Y-89339638D01*
X117619222Y-89343629D01*
X117645980Y-89350500D01*
X117645981Y-89350500D01*
X117666016Y-89350500D01*
X117685413Y-89352026D01*
X117705196Y-89355160D01*
X117748674Y-89351050D01*
X117760344Y-89350500D01*
X123742256Y-89350500D01*
X123762762Y-89352764D01*
X123765665Y-89352672D01*
X123765667Y-89352673D01*
X123832872Y-89350561D01*
X123836768Y-89350500D01*
X123860448Y-89350500D01*
X123864350Y-89350500D01*
X123868313Y-89349999D01*
X123879962Y-89349080D01*
X123923627Y-89347709D01*
X123942859Y-89342120D01*
X123961918Y-89338174D01*
X123969091Y-89337268D01*
X123981792Y-89335664D01*
X124022407Y-89319582D01*
X124033444Y-89315803D01*
X124075390Y-89303618D01*
X124092629Y-89293422D01*
X124110102Y-89284862D01*
X124128732Y-89277486D01*
X124164064Y-89251814D01*
X124173830Y-89245400D01*
X124211418Y-89223171D01*
X124211417Y-89223171D01*
X124211420Y-89223170D01*
X124225585Y-89209004D01*
X124240373Y-89196373D01*
X124256587Y-89184594D01*
X124284438Y-89150926D01*
X124292279Y-89142309D01*
X124497771Y-88936818D01*
X124559094Y-88903333D01*
X124585452Y-88900499D01*
X125546859Y-88900499D01*
X125550008Y-88900499D01*
X125652797Y-88889999D01*
X125819334Y-88834814D01*
X125968656Y-88742712D01*
X126092712Y-88618656D01*
X126184814Y-88469334D01*
X126239999Y-88302797D01*
X126250500Y-88200009D01*
X126250500Y-87650937D01*
X129945630Y-87650937D01*
X129976443Y-87852071D01*
X130047113Y-88042886D01*
X130154745Y-88215568D01*
X130154748Y-88215571D01*
X130294941Y-88363053D01*
X130461951Y-88479295D01*
X130648942Y-88559540D01*
X130848259Y-88600500D01*
X130848261Y-88600500D01*
X130997600Y-88600500D01*
X131000742Y-88600500D01*
X131152438Y-88585074D01*
X131346588Y-88524159D01*
X131524502Y-88425409D01*
X131678895Y-88292866D01*
X131803448Y-88131958D01*
X131893060Y-87949271D01*
X131944063Y-87752285D01*
X131954369Y-87549064D01*
X131949505Y-87517316D01*
X131923556Y-87347928D01*
X131852886Y-87157113D01*
X131745254Y-86984431D01*
X131703390Y-86940391D01*
X131605059Y-86836947D01*
X131438049Y-86720705D01*
X131251058Y-86640460D01*
X131051741Y-86599500D01*
X130899258Y-86599500D01*
X130896147Y-86599816D01*
X130896134Y-86599817D01*
X130747559Y-86614926D01*
X130553412Y-86675841D01*
X130375500Y-86774589D01*
X130272569Y-86862953D01*
X130231220Y-86898451D01*
X130221104Y-86907135D01*
X130096551Y-87068042D01*
X130006940Y-87250727D01*
X129955937Y-87447716D01*
X129945630Y-87650937D01*
X126250500Y-87650937D01*
X126250499Y-86999992D01*
X126239999Y-86897203D01*
X126184814Y-86730666D01*
X126127592Y-86637895D01*
X126092711Y-86581342D01*
X125968657Y-86457288D01*
X125819334Y-86365186D01*
X125652797Y-86310000D01*
X125553141Y-86299819D01*
X125553122Y-86299818D01*
X125550009Y-86299500D01*
X125546860Y-86299500D01*
X124353140Y-86299500D01*
X124353120Y-86299500D01*
X124349992Y-86299501D01*
X124346860Y-86299820D01*
X124346858Y-86299821D01*
X124247203Y-86310000D01*
X124080665Y-86365186D01*
X123931342Y-86457288D01*
X123807288Y-86581342D01*
X123715186Y-86730665D01*
X123660000Y-86897202D01*
X123649819Y-86996858D01*
X123649817Y-86996878D01*
X123649500Y-86999991D01*
X123649500Y-87003119D01*
X123649499Y-87003139D01*
X123649499Y-87964545D01*
X123629814Y-88031585D01*
X123613188Y-88052218D01*
X123602235Y-88063173D01*
X123540915Y-88096664D01*
X123514546Y-88099500D01*
X118035452Y-88099500D01*
X117968413Y-88079815D01*
X117947771Y-88063181D01*
X116856469Y-86971878D01*
X118324500Y-86971878D01*
X118324501Y-86975008D01*
X118324820Y-86978140D01*
X118324821Y-86978141D01*
X118335000Y-87077796D01*
X118390186Y-87244334D01*
X118482288Y-87393657D01*
X118606342Y-87517711D01*
X118657171Y-87549062D01*
X118755666Y-87609814D01*
X118867016Y-87646712D01*
X118922202Y-87664999D01*
X119021858Y-87675180D01*
X119021859Y-87675180D01*
X119024991Y-87675500D01*
X119825008Y-87675499D01*
X119927797Y-87664999D01*
X120094334Y-87609814D01*
X120243656Y-87517712D01*
X120337673Y-87423694D01*
X120398994Y-87390211D01*
X120468686Y-87395195D01*
X120513034Y-87423696D01*
X120606654Y-87517316D01*
X120755877Y-87609357D01*
X120922303Y-87664506D01*
X121021890Y-87674680D01*
X121028168Y-87674999D01*
X121174999Y-87674999D01*
X121174999Y-87674998D01*
X121674999Y-87674998D01*
X121675000Y-87674999D01*
X121821829Y-87674999D01*
X121828111Y-87674678D01*
X121927695Y-87664506D01*
X122094122Y-87609357D01*
X122243345Y-87517316D01*
X122367316Y-87393345D01*
X122459357Y-87244122D01*
X122514506Y-87077696D01*
X122524680Y-86978109D01*
X122525000Y-86971831D01*
X122525000Y-86725000D01*
X121675000Y-86725000D01*
X121674999Y-87674998D01*
X121174999Y-87674998D01*
X121175000Y-86349000D01*
X121194685Y-86281961D01*
X121247489Y-86236206D01*
X121299000Y-86225000D01*
X122524999Y-86225000D01*
X122524999Y-85978170D01*
X122524678Y-85971888D01*
X122514506Y-85872304D01*
X122459357Y-85705877D01*
X122367316Y-85556654D01*
X122297843Y-85487181D01*
X122264358Y-85425858D01*
X122269342Y-85356166D01*
X122311214Y-85300233D01*
X122376678Y-85275816D01*
X122385524Y-85275500D01*
X124217256Y-85275500D01*
X124237762Y-85277764D01*
X124240665Y-85277672D01*
X124240667Y-85277673D01*
X124307872Y-85275561D01*
X124311768Y-85275500D01*
X124335448Y-85275500D01*
X124339350Y-85275500D01*
X124343313Y-85274999D01*
X124354962Y-85274080D01*
X124398627Y-85272709D01*
X124417859Y-85267120D01*
X124436918Y-85263174D01*
X124456792Y-85260664D01*
X124488615Y-85248064D01*
X124558193Y-85241686D01*
X124566355Y-85243579D01*
X124723308Y-85285635D01*
X124950000Y-85305468D01*
X125176692Y-85285635D01*
X125396496Y-85226739D01*
X125602734Y-85130568D01*
X125789139Y-85000047D01*
X125950047Y-84839139D01*
X126080568Y-84652734D01*
X126176739Y-84446496D01*
X126235635Y-84226692D01*
X126251012Y-84050937D01*
X129945630Y-84050937D01*
X129976443Y-84252071D01*
X130047113Y-84442886D01*
X130154745Y-84615568D01*
X130156566Y-84617484D01*
X130294941Y-84763053D01*
X130461951Y-84879295D01*
X130648942Y-84959540D01*
X130848259Y-85000500D01*
X130848261Y-85000500D01*
X130997600Y-85000500D01*
X131000742Y-85000500D01*
X131152438Y-84985074D01*
X131346588Y-84924159D01*
X131524502Y-84825409D01*
X131678895Y-84692866D01*
X131803448Y-84531958D01*
X131893060Y-84349271D01*
X131944063Y-84152285D01*
X131951786Y-84000000D01*
X135694652Y-84000000D01*
X135694834Y-84003356D01*
X135713845Y-84354007D01*
X135713846Y-84354018D01*
X135714028Y-84357371D01*
X135714572Y-84360692D01*
X135714573Y-84360697D01*
X135771384Y-84707233D01*
X135771387Y-84707248D01*
X135771929Y-84710552D01*
X135772827Y-84713789D01*
X135772828Y-84713790D01*
X135852306Y-85000047D01*
X135867676Y-85055403D01*
X135868924Y-85058535D01*
X135955496Y-85275816D01*
X136000147Y-85387880D01*
X136001721Y-85390849D01*
X136001722Y-85390851D01*
X136052793Y-85487181D01*
X136167789Y-85704085D01*
X136368635Y-86000311D01*
X136600332Y-86273086D01*
X136602763Y-86275389D01*
X136602769Y-86275395D01*
X136740547Y-86405905D01*
X136860163Y-86519211D01*
X137145081Y-86735800D01*
X137451747Y-86920315D01*
X137776565Y-87070591D01*
X138115726Y-87184868D01*
X138465254Y-87261805D01*
X138821052Y-87300500D01*
X138824410Y-87300500D01*
X139175590Y-87300500D01*
X139178948Y-87300500D01*
X139534746Y-87261805D01*
X139884274Y-87184868D01*
X140223435Y-87070591D01*
X140548253Y-86920315D01*
X140854919Y-86735800D01*
X141139837Y-86519211D01*
X141399668Y-86273086D01*
X141631365Y-86000311D01*
X141832211Y-85704085D01*
X141999853Y-85387880D01*
X142132324Y-85055403D01*
X142228071Y-84710552D01*
X142285972Y-84357371D01*
X142305348Y-84000000D01*
X142285972Y-83642629D01*
X142228071Y-83289448D01*
X142132324Y-82944597D01*
X141999853Y-82612120D01*
X141832211Y-82295915D01*
X141631365Y-81999689D01*
X141399668Y-81726914D01*
X141397235Y-81724609D01*
X141397230Y-81724604D01*
X141142267Y-81483091D01*
X141139837Y-81480789D01*
X140933794Y-81324159D01*
X140857587Y-81266228D01*
X140857585Y-81266226D01*
X140854919Y-81264200D01*
X140852045Y-81262471D01*
X140852041Y-81262468D01*
X140551135Y-81081419D01*
X140551134Y-81081418D01*
X140548253Y-81079685D01*
X140489450Y-81052480D01*
X140226490Y-80930822D01*
X140226483Y-80930819D01*
X140223435Y-80929409D01*
X140135005Y-80899613D01*
X139887457Y-80816204D01*
X139887448Y-80816201D01*
X139884274Y-80815132D01*
X139881006Y-80814412D01*
X139880993Y-80814409D01*
X139538033Y-80738918D01*
X139538023Y-80738916D01*
X139534746Y-80738195D01*
X139477318Y-80731949D01*
X139182286Y-80699863D01*
X139182285Y-80699862D01*
X139178948Y-80699500D01*
X138821052Y-80699500D01*
X138817715Y-80699862D01*
X138817713Y-80699863D01*
X138468600Y-80737831D01*
X138468598Y-80737831D01*
X138465254Y-80738195D01*
X138461979Y-80738915D01*
X138461966Y-80738918D01*
X138119006Y-80814409D01*
X138118988Y-80814413D01*
X138115726Y-80815132D01*
X138112555Y-80816200D01*
X138112542Y-80816204D01*
X137779752Y-80928335D01*
X137779749Y-80928336D01*
X137776565Y-80929409D01*
X137773522Y-80930816D01*
X137773509Y-80930822D01*
X137454802Y-81078271D01*
X137454792Y-81078275D01*
X137451747Y-81079685D01*
X137448873Y-81081414D01*
X137448864Y-81081419D01*
X137147958Y-81262468D01*
X137147945Y-81262476D01*
X137145081Y-81264200D01*
X137142423Y-81266220D01*
X137142412Y-81266228D01*
X136862822Y-81478767D01*
X136862814Y-81478773D01*
X136860163Y-81480789D01*
X136857739Y-81483084D01*
X136857732Y-81483091D01*
X136602769Y-81724604D01*
X136602754Y-81724619D01*
X136600332Y-81726914D01*
X136598169Y-81729459D01*
X136598158Y-81729472D01*
X136370808Y-81997130D01*
X136370802Y-81997137D01*
X136368635Y-81999689D01*
X136366755Y-82002461D01*
X136366748Y-82002471D01*
X136169679Y-82293126D01*
X136169671Y-82293138D01*
X136167789Y-82295915D01*
X136166214Y-82298885D01*
X136166212Y-82298889D01*
X136001722Y-82609148D01*
X136001717Y-82609157D01*
X136000147Y-82612120D01*
X135998906Y-82615232D01*
X135998902Y-82615243D01*
X135884597Y-82902128D01*
X135867676Y-82944597D01*
X135866775Y-82947841D01*
X135866773Y-82947848D01*
X135777976Y-83267668D01*
X135771929Y-83289448D01*
X135771388Y-83292747D01*
X135771384Y-83292766D01*
X135714573Y-83639302D01*
X135714028Y-83642629D01*
X135713846Y-83645979D01*
X135713845Y-83645992D01*
X135702379Y-83857483D01*
X135694652Y-84000000D01*
X131951786Y-84000000D01*
X131954369Y-83949064D01*
X131940339Y-83857484D01*
X131923556Y-83747928D01*
X131852886Y-83557113D01*
X131745254Y-83384431D01*
X131738803Y-83377644D01*
X131605059Y-83236947D01*
X131438049Y-83120705D01*
X131251058Y-83040460D01*
X131051741Y-82999500D01*
X130899258Y-82999500D01*
X130896147Y-82999816D01*
X130896134Y-82999817D01*
X130747559Y-83014926D01*
X130553412Y-83075841D01*
X130375500Y-83174589D01*
X130221104Y-83307135D01*
X130096551Y-83468042D01*
X130006940Y-83650727D01*
X129955937Y-83847716D01*
X129945630Y-84050937D01*
X126251012Y-84050937D01*
X126255468Y-84000000D01*
X126235635Y-83773308D01*
X126176739Y-83553504D01*
X126080568Y-83347266D01*
X126052469Y-83307135D01*
X125950046Y-83160859D01*
X125789140Y-82999953D01*
X125602735Y-82869432D01*
X125396497Y-82773261D01*
X125176689Y-82714364D01*
X124950000Y-82694531D01*
X124723310Y-82714364D01*
X124503502Y-82773261D01*
X124297264Y-82869432D01*
X124110859Y-82999953D01*
X123949953Y-83160859D01*
X123819432Y-83347264D01*
X123723261Y-83553502D01*
X123664364Y-83773310D01*
X123652291Y-83911307D01*
X123626839Y-83976376D01*
X123570248Y-84017355D01*
X123528763Y-84024500D01*
X120580391Y-84024500D01*
X120513352Y-84004815D01*
X120467597Y-83952011D01*
X120457653Y-83882853D01*
X120464063Y-83857737D01*
X120464090Y-83857485D01*
X120464091Y-83857483D01*
X120470500Y-83797873D01*
X120470499Y-82902128D01*
X120464091Y-82842517D01*
X120413796Y-82707669D01*
X120327546Y-82592454D01*
X120212331Y-82506204D01*
X120077483Y-82455909D01*
X120017873Y-82449500D01*
X120014550Y-82449500D01*
X118825439Y-82449500D01*
X118825420Y-82449500D01*
X118822128Y-82449501D01*
X118818848Y-82449853D01*
X118818840Y-82449854D01*
X118762515Y-82455909D01*
X118627669Y-82506204D01*
X118512454Y-82592454D01*
X118426204Y-82707668D01*
X118375910Y-82842515D01*
X118375909Y-82842517D01*
X118369500Y-82902127D01*
X118369500Y-82905448D01*
X118369500Y-82905449D01*
X118369500Y-83794560D01*
X118369500Y-83794578D01*
X118369501Y-83797872D01*
X118369853Y-83801152D01*
X118369854Y-83801159D01*
X118375909Y-83857484D01*
X118385371Y-83882853D01*
X118410066Y-83949064D01*
X118412902Y-83956666D01*
X118417886Y-84026357D01*
X118412902Y-84043332D01*
X118375909Y-84142514D01*
X118369854Y-84198833D01*
X118369500Y-84202127D01*
X118369500Y-84205448D01*
X118369500Y-84205449D01*
X118369500Y-85094560D01*
X118369500Y-85094578D01*
X118369501Y-85097872D01*
X118369853Y-85101152D01*
X118369854Y-85101159D01*
X118373016Y-85130568D01*
X118375909Y-85157483D01*
X118426204Y-85292331D01*
X118498851Y-85389375D01*
X118523268Y-85454838D01*
X118508416Y-85523111D01*
X118487268Y-85551363D01*
X118482289Y-85556341D01*
X118390186Y-85705665D01*
X118335000Y-85872202D01*
X118324819Y-85971858D01*
X118324817Y-85971878D01*
X118324500Y-85974991D01*
X118324500Y-85978138D01*
X118324500Y-85978139D01*
X118324500Y-86971859D01*
X118324500Y-86971878D01*
X116856469Y-86971878D01*
X116351819Y-86467228D01*
X116318334Y-86405905D01*
X116315500Y-86379547D01*
X116315500Y-85102114D01*
X116335185Y-85035075D01*
X116387989Y-84989320D01*
X116396151Y-84985938D01*
X116482331Y-84953796D01*
X116597546Y-84867546D01*
X116683796Y-84752331D01*
X116734091Y-84617483D01*
X116740500Y-84557873D01*
X116740499Y-83462128D01*
X116734091Y-83402517D01*
X116683796Y-83267669D01*
X116597546Y-83152454D01*
X116482331Y-83066204D01*
X116347483Y-83015909D01*
X116287873Y-83009500D01*
X116284550Y-83009500D01*
X115095439Y-83009500D01*
X115095420Y-83009500D01*
X115092128Y-83009501D01*
X115088848Y-83009853D01*
X115088840Y-83009854D01*
X115032515Y-83015909D01*
X114897669Y-83066204D01*
X114782454Y-83152454D01*
X114696204Y-83267668D01*
X114645910Y-83402515D01*
X114645909Y-83402517D01*
X114639500Y-83462127D01*
X114639500Y-83465448D01*
X114639500Y-83465449D01*
X114639500Y-84554560D01*
X114639500Y-84554578D01*
X102253642Y-84554578D01*
X102285972Y-84357371D01*
X102305348Y-84000000D01*
X102285972Y-83642629D01*
X102228071Y-83289448D01*
X102132324Y-82944597D01*
X101999853Y-82612120D01*
X101832211Y-82295915D01*
X101631365Y-81999689D01*
X101399668Y-81726914D01*
X101397235Y-81724609D01*
X101397230Y-81724604D01*
X101142267Y-81483091D01*
X101139837Y-81480789D01*
X101137518Y-81479026D01*
X124224526Y-81479026D01*
X124297515Y-81530133D01*
X124503673Y-81626266D01*
X124723397Y-81685141D01*
X124950000Y-81704966D01*
X125176602Y-81685141D01*
X125396326Y-81626266D01*
X125602480Y-81530134D01*
X125675472Y-81479025D01*
X124950001Y-80753553D01*
X124950000Y-80753553D01*
X124224526Y-81479025D01*
X124224526Y-81479026D01*
X101137518Y-81479026D01*
X100933794Y-81324159D01*
X100857587Y-81266228D01*
X100857585Y-81266226D01*
X100854919Y-81264200D01*
X100852045Y-81262471D01*
X100852041Y-81262468D01*
X100551135Y-81081419D01*
X100551134Y-81081418D01*
X100548253Y-81079685D01*
X100489450Y-81052480D01*
X100226490Y-80930822D01*
X100226483Y-80930819D01*
X100223435Y-80929409D01*
X100135005Y-80899613D01*
X99887457Y-80816204D01*
X99887448Y-80816201D01*
X99884274Y-80815132D01*
X99881006Y-80814412D01*
X99880993Y-80814409D01*
X99538033Y-80738918D01*
X99538023Y-80738916D01*
X99534746Y-80738195D01*
X99477318Y-80731949D01*
X99182286Y-80699863D01*
X99182285Y-80699862D01*
X99178948Y-80699500D01*
X98821052Y-80699500D01*
X98817715Y-80699862D01*
X98817713Y-80699863D01*
X98468600Y-80737831D01*
X98468598Y-80737831D01*
X98465254Y-80738195D01*
X98461979Y-80738915D01*
X98461966Y-80738918D01*
X98119006Y-80814409D01*
X98118988Y-80814413D01*
X98115726Y-80815132D01*
X98112555Y-80816200D01*
X98112542Y-80816204D01*
X97779752Y-80928335D01*
X97779749Y-80928336D01*
X97776565Y-80929409D01*
X97773522Y-80930816D01*
X97773509Y-80930822D01*
X97454802Y-81078271D01*
X97454792Y-81078275D01*
X97451747Y-81079685D01*
X97448873Y-81081414D01*
X97448864Y-81081419D01*
X97147958Y-81262468D01*
X97147945Y-81262476D01*
X97145081Y-81264200D01*
X97142423Y-81266220D01*
X97142412Y-81266228D01*
X96862822Y-81478767D01*
X96862814Y-81478773D01*
X96860163Y-81480789D01*
X96857739Y-81483084D01*
X96857732Y-81483091D01*
X96602769Y-81724604D01*
X96602754Y-81724619D01*
X96600332Y-81726914D01*
X96598169Y-81729459D01*
X96598158Y-81729472D01*
X96370808Y-81997130D01*
X96370802Y-81997137D01*
X96368635Y-81999689D01*
X96366755Y-82002461D01*
X96366748Y-82002471D01*
X96169679Y-82293126D01*
X96169671Y-82293138D01*
X96167789Y-82295915D01*
X96166214Y-82298885D01*
X96166212Y-82298889D01*
X96001722Y-82609148D01*
X96001717Y-82609157D01*
X96000147Y-82612120D01*
X95998906Y-82615232D01*
X95998902Y-82615243D01*
X95884597Y-82902128D01*
X95867676Y-82944597D01*
X95866775Y-82947841D01*
X95866773Y-82947848D01*
X95777976Y-83267668D01*
X95771929Y-83289448D01*
X95771388Y-83292747D01*
X95771384Y-83292766D01*
X95714573Y-83639302D01*
X95714028Y-83642629D01*
X95713846Y-83645979D01*
X95713845Y-83645992D01*
X95702379Y-83857483D01*
X95694652Y-84000000D01*
X90025000Y-84000000D01*
X90025000Y-80400000D01*
X123645033Y-80400000D01*
X123664858Y-80626602D01*
X123723733Y-80846326D01*
X123819866Y-81052484D01*
X123870972Y-81125471D01*
X123870974Y-81125472D01*
X124596445Y-80400000D01*
X124596445Y-80399999D01*
X124568286Y-80371840D01*
X124646105Y-80371840D01*
X124656454Y-80483521D01*
X124706448Y-80583922D01*
X124789334Y-80659484D01*
X124893920Y-80700000D01*
X124977802Y-80700000D01*
X125060250Y-80684588D01*
X125155610Y-80625543D01*
X125223201Y-80536038D01*
X125253895Y-80428160D01*
X125251286Y-80400000D01*
X125303552Y-80400000D01*
X126029025Y-81125472D01*
X126080134Y-81052480D01*
X126176266Y-80846326D01*
X126235141Y-80626602D01*
X126250510Y-80450937D01*
X129945630Y-80450937D01*
X129976443Y-80652071D01*
X130047113Y-80842886D01*
X130154745Y-81015568D01*
X130154748Y-81015571D01*
X130294941Y-81163053D01*
X130461951Y-81279295D01*
X130648942Y-81359540D01*
X130848259Y-81400500D01*
X130848261Y-81400500D01*
X130997600Y-81400500D01*
X131000742Y-81400500D01*
X131152438Y-81385074D01*
X131346588Y-81324159D01*
X131524502Y-81225409D01*
X131678895Y-81092866D01*
X131803448Y-80931958D01*
X131893060Y-80749271D01*
X131944063Y-80552285D01*
X131954369Y-80349064D01*
X131923556Y-80147929D01*
X131887557Y-80050729D01*
X131852886Y-79957113D01*
X131745254Y-79784431D01*
X131710162Y-79747515D01*
X131605059Y-79636947D01*
X131438049Y-79520705D01*
X131251058Y-79440460D01*
X131051741Y-79399500D01*
X130899258Y-79399500D01*
X130896147Y-79399816D01*
X130896134Y-79399817D01*
X130747559Y-79414926D01*
X130553412Y-79475841D01*
X130375500Y-79574589D01*
X130375497Y-79574591D01*
X130375498Y-79574591D01*
X130259089Y-79674526D01*
X130221104Y-79707135D01*
X130096551Y-79868042D01*
X130006940Y-80050727D01*
X129955937Y-80247716D01*
X129945630Y-80450937D01*
X126250510Y-80450937D01*
X126254966Y-80400000D01*
X126235141Y-80173397D01*
X126176266Y-79953673D01*
X126080133Y-79747515D01*
X126029025Y-79674526D01*
X125303552Y-80399999D01*
X125303552Y-80400000D01*
X125251286Y-80400000D01*
X125243546Y-80316479D01*
X125193552Y-80216078D01*
X125110666Y-80140516D01*
X125006080Y-80100000D01*
X124922198Y-80100000D01*
X124839750Y-80115412D01*
X124744390Y-80174457D01*
X124676799Y-80263962D01*
X124646105Y-80371840D01*
X124568286Y-80371840D01*
X123870973Y-79674526D01*
X123870973Y-79674527D01*
X123819865Y-79747516D01*
X123723733Y-79953672D01*
X123664858Y-80173397D01*
X123645033Y-80400000D01*
X90025000Y-80400000D01*
X90025000Y-79320973D01*
X124224526Y-79320973D01*
X124950000Y-80046446D01*
X124950001Y-80046446D01*
X125675472Y-79320974D01*
X125675471Y-79320972D01*
X125602484Y-79269866D01*
X125396326Y-79173733D01*
X125176602Y-79114858D01*
X124950000Y-79095033D01*
X124723397Y-79114858D01*
X124503672Y-79173733D01*
X124297516Y-79269865D01*
X124224527Y-79320973D01*
X124224526Y-79320973D01*
X90025000Y-79320973D01*
X90025000Y-77124500D01*
X90044685Y-77057461D01*
X90097489Y-77011706D01*
X90149000Y-77000500D01*
X147875500Y-77000500D01*
X147942539Y-77020185D01*
G37*
G04 #@! TD.AperFunction*
M02*
