G04 #@! TF.GenerationSoftware,KiCad,Pcbnew,7.0.2*
G04 #@! TF.CreationDate,2023-12-12T16:52:56+01:00*
G04 #@! TF.ProjectId,board_TEMT6000_waterclosedcase,626f6172-645f-4544-954d-54363030305f,rev?*
G04 #@! TF.SameCoordinates,Original*
G04 #@! TF.FileFunction,Legend,Top*
G04 #@! TF.FilePolarity,Positive*
%FSLAX46Y46*%
G04 Gerber Fmt 4.6, Leading zero omitted, Abs format (unit mm)*
G04 Created by KiCad (PCBNEW 7.0.2) date 2023-12-12 16:52:56*
%MOMM*%
%LPD*%
G01*
G04 APERTURE LIST*
G04 Aperture macros list*
%AMRoundRect*
0 Rectangle with rounded corners*
0 $1 Rounding radius*
0 $2 $3 $4 $5 $6 $7 $8 $9 X,Y pos of 4 corners*
0 Add a 4 corners polygon primitive as box body*
4,1,4,$2,$3,$4,$5,$6,$7,$8,$9,$2,$3,0*
0 Add four circle primitives for the rounded corners*
1,1,$1+$1,$2,$3*
1,1,$1+$1,$4,$5*
1,1,$1+$1,$6,$7*
1,1,$1+$1,$8,$9*
0 Add four rect primitives between the rounded corners*
20,1,$1+$1,$2,$3,$4,$5,0*
20,1,$1+$1,$4,$5,$6,$7,0*
20,1,$1+$1,$6,$7,$8,$9,0*
20,1,$1+$1,$8,$9,$2,$3,0*%
G04 Aperture macros list end*
%ADD10C,0.080091*%
%ADD11C,0.150000*%
%ADD12C,0.127000*%
%ADD13C,0.120000*%
%ADD14R,1.100000X0.800000*%
%ADD15R,1.100000X1.000000*%
%ADD16RoundRect,0.250000X-0.350000X-0.450000X0.350000X-0.450000X0.350000X0.450000X-0.350000X0.450000X0*%
%ADD17C,3.600000*%
%ADD18C,5.600000*%
%ADD19C,1.500000*%
%ADD20RoundRect,0.250000X0.550000X-0.550000X0.550000X0.550000X-0.550000X0.550000X-0.550000X-0.550000X0*%
%ADD21C,1.600000*%
G04 APERTURE END LIST*
D10*
X117305915Y-84412708D02*
X117305915Y-84672051D01*
X117305915Y-84672051D02*
X117321170Y-84702562D01*
X117321170Y-84702562D02*
X117336426Y-84717818D01*
X117336426Y-84717818D02*
X117366937Y-84733073D01*
X117366937Y-84733073D02*
X117427959Y-84733073D01*
X117427959Y-84733073D02*
X117458470Y-84717818D01*
X117458470Y-84717818D02*
X117473725Y-84702562D01*
X117473725Y-84702562D02*
X117488981Y-84672051D01*
X117488981Y-84672051D02*
X117488981Y-84412708D01*
X117809345Y-84733073D02*
X117626279Y-84733073D01*
X117717812Y-84733073D02*
X117717812Y-84412708D01*
X117717812Y-84412708D02*
X117687301Y-84458474D01*
X117687301Y-84458474D02*
X117656790Y-84488985D01*
X117656790Y-84488985D02*
X117626279Y-84504241D01*
D11*
X120308333Y-88412619D02*
X119975000Y-87936428D01*
X119736905Y-88412619D02*
X119736905Y-87412619D01*
X119736905Y-87412619D02*
X120117857Y-87412619D01*
X120117857Y-87412619D02*
X120213095Y-87460238D01*
X120213095Y-87460238D02*
X120260714Y-87507857D01*
X120260714Y-87507857D02*
X120308333Y-87603095D01*
X120308333Y-87603095D02*
X120308333Y-87745952D01*
X120308333Y-87745952D02*
X120260714Y-87841190D01*
X120260714Y-87841190D02*
X120213095Y-87888809D01*
X120213095Y-87888809D02*
X120117857Y-87936428D01*
X120117857Y-87936428D02*
X119736905Y-87936428D01*
X121260714Y-88412619D02*
X120689286Y-88412619D01*
X120975000Y-88412619D02*
X120975000Y-87412619D01*
X120975000Y-87412619D02*
X120879762Y-87555476D01*
X120879762Y-87555476D02*
X120784524Y-87650714D01*
X120784524Y-87650714D02*
X120689286Y-87698333D01*
X98238095Y-80662619D02*
X98238095Y-79662619D01*
X98238095Y-80138809D02*
X98809523Y-80138809D01*
X98809523Y-80662619D02*
X98809523Y-79662619D01*
X99809523Y-80662619D02*
X99238095Y-80662619D01*
X99523809Y-80662619D02*
X99523809Y-79662619D01*
X99523809Y-79662619D02*
X99428571Y-79805476D01*
X99428571Y-79805476D02*
X99333333Y-79900714D01*
X99333333Y-79900714D02*
X99238095Y-79948333D01*
X122537619Y-83558333D02*
X123251904Y-83558333D01*
X123251904Y-83558333D02*
X123394761Y-83605952D01*
X123394761Y-83605952D02*
X123490000Y-83701190D01*
X123490000Y-83701190D02*
X123537619Y-83844047D01*
X123537619Y-83844047D02*
X123537619Y-83939285D01*
X123537619Y-82558333D02*
X123537619Y-83129761D01*
X123537619Y-82844047D02*
X122537619Y-82844047D01*
X122537619Y-82844047D02*
X122680476Y-82939285D01*
X122680476Y-82939285D02*
X122775714Y-83034523D01*
X122775714Y-83034523D02*
X122823333Y-83129761D01*
X138238095Y-80662619D02*
X138238095Y-79662619D01*
X138238095Y-80138809D02*
X138809523Y-80138809D01*
X138809523Y-80662619D02*
X138809523Y-79662619D01*
X139238095Y-79757857D02*
X139285714Y-79710238D01*
X139285714Y-79710238D02*
X139380952Y-79662619D01*
X139380952Y-79662619D02*
X139619047Y-79662619D01*
X139619047Y-79662619D02*
X139714285Y-79710238D01*
X139714285Y-79710238D02*
X139761904Y-79757857D01*
X139761904Y-79757857D02*
X139809523Y-79853095D01*
X139809523Y-79853095D02*
X139809523Y-79948333D01*
X139809523Y-79948333D02*
X139761904Y-80091190D01*
X139761904Y-80091190D02*
X139190476Y-80662619D01*
X139190476Y-80662619D02*
X139809523Y-80662619D01*
D12*
X115550000Y-84970000D02*
X118510000Y-84970000D01*
X115550000Y-84760000D02*
X115550000Y-84970000D01*
X115550000Y-83240000D02*
X115550000Y-83010000D01*
X115550000Y-83010000D02*
X118540000Y-83010000D01*
D13*
X120197936Y-85740000D02*
X120652064Y-85740000D01*
X120197936Y-87210000D02*
X120652064Y-87210000D01*
X126010000Y-88210000D02*
X130340000Y-88210000D01*
X126010000Y-86990000D02*
X130340000Y-86990000D01*
X126010000Y-84610000D02*
X130340000Y-84610000D01*
X126010000Y-83390000D02*
X130340000Y-83390000D01*
X126010000Y-81010000D02*
X130340000Y-81010000D01*
X126010000Y-79790000D02*
X130340000Y-79790000D01*
%LPC*%
D14*
X119420000Y-83350000D03*
D15*
X115690000Y-84010000D03*
D14*
X119420000Y-84650000D03*
D16*
X119425000Y-86475000D03*
X121425000Y-86475000D03*
D17*
X99000000Y-84000000D03*
D18*
X99000000Y-84000000D03*
D19*
X130950000Y-87600000D03*
X130950000Y-84000000D03*
X130950000Y-80400000D03*
D20*
X124950000Y-87600000D03*
D21*
X124950000Y-84000000D03*
X124950000Y-80400000D03*
D17*
X139000000Y-84000000D03*
D18*
X139000000Y-84000000D03*
%LPD*%
M02*
