G04 #@! TF.GenerationSoftware,KiCad,Pcbnew,7.0.2*
G04 #@! TF.CreationDate,2023-10-12T11:21:26+02:00*
G04 #@! TF.ProjectId,aansturing lamp pcb,61616e73-7475-4726-996e-67206c616d70,rev?*
G04 #@! TF.SameCoordinates,Original*
G04 #@! TF.FileFunction,Legend,Top*
G04 #@! TF.FilePolarity,Positive*
%FSLAX46Y46*%
G04 Gerber Fmt 4.6, Leading zero omitted, Abs format (unit mm)*
G04 Created by KiCad (PCBNEW 7.0.2) date 2023-10-12 11:21:26*
%MOMM*%
%LPD*%
G01*
G04 APERTURE LIST*
G04 Aperture macros list*
%AMRoundRect*
0 Rectangle with rounded corners*
0 $1 Rounding radius*
0 $2 $3 $4 $5 $6 $7 $8 $9 X,Y pos of 4 corners*
0 Add a 4 corners polygon primitive as box body*
4,1,4,$2,$3,$4,$5,$6,$7,$8,$9,$2,$3,0*
0 Add four circle primitives for the rounded corners*
1,1,$1+$1,$2,$3*
1,1,$1+$1,$4,$5*
1,1,$1+$1,$6,$7*
1,1,$1+$1,$8,$9*
0 Add four rect primitives between the rounded corners*
20,1,$1+$1,$2,$3,$4,$5,0*
20,1,$1+$1,$4,$5,$6,$7,0*
20,1,$1+$1,$6,$7,$8,$9,0*
20,1,$1+$1,$8,$9,$2,$3,0*%
G04 Aperture macros list end*
%ADD10C,0.200000*%
%ADD11C,0.150000*%
%ADD12C,0.120000*%
%ADD13RoundRect,0.375000X0.575000X0.375000X-0.575000X0.375000X-0.575000X-0.375000X0.575000X-0.375000X0*%
%ADD14C,2.500000*%
%ADD15RoundRect,0.250000X0.337500X0.475000X-0.337500X0.475000X-0.337500X-0.475000X0.337500X-0.475000X0*%
%ADD16R,1.500000X1.500000*%
%ADD17R,1.500000X2.000000*%
%ADD18R,3.800000X2.000000*%
%ADD19RoundRect,0.250000X0.350000X0.450000X-0.350000X0.450000X-0.350000X-0.450000X0.350000X-0.450000X0*%
%ADD20RoundRect,0.250000X0.475000X-0.337500X0.475000X0.337500X-0.475000X0.337500X-0.475000X-0.337500X0*%
%ADD21R,2.600000X2.600000*%
%ADD22C,2.600000*%
%ADD23RoundRect,0.250000X-0.475000X0.337500X-0.475000X-0.337500X0.475000X-0.337500X0.475000X0.337500X0*%
%ADD24RoundRect,0.150000X0.825000X0.150000X-0.825000X0.150000X-0.825000X-0.150000X0.825000X-0.150000X0*%
%ADD25R,1.700000X1.700000*%
%ADD26O,1.700000X1.700000*%
G04 APERTURE END LIST*
D10*
X114837095Y-81610238D02*
X114799000Y-81686428D01*
X114799000Y-81686428D02*
X114722809Y-81724523D01*
X114722809Y-81724523D02*
X114037095Y-81724523D01*
X114799000Y-81000713D02*
X114837095Y-81076904D01*
X114837095Y-81076904D02*
X114837095Y-81229285D01*
X114837095Y-81229285D02*
X114799000Y-81305475D01*
X114799000Y-81305475D02*
X114722809Y-81343571D01*
X114722809Y-81343571D02*
X114418047Y-81343571D01*
X114418047Y-81343571D02*
X114341857Y-81305475D01*
X114341857Y-81305475D02*
X114303761Y-81229285D01*
X114303761Y-81229285D02*
X114303761Y-81076904D01*
X114303761Y-81076904D02*
X114341857Y-81000713D01*
X114341857Y-81000713D02*
X114418047Y-80962618D01*
X114418047Y-80962618D02*
X114494238Y-80962618D01*
X114494238Y-80962618D02*
X114570428Y-81343571D01*
X114837095Y-80276904D02*
X114037095Y-80276904D01*
X114799000Y-80276904D02*
X114837095Y-80353095D01*
X114837095Y-80353095D02*
X114837095Y-80505476D01*
X114837095Y-80505476D02*
X114799000Y-80581666D01*
X114799000Y-80581666D02*
X114760904Y-80619761D01*
X114760904Y-80619761D02*
X114684714Y-80657857D01*
X114684714Y-80657857D02*
X114456142Y-80657857D01*
X114456142Y-80657857D02*
X114379952Y-80619761D01*
X114379952Y-80619761D02*
X114341857Y-80581666D01*
X114341857Y-80581666D02*
X114303761Y-80505476D01*
X114303761Y-80505476D02*
X114303761Y-80353095D01*
X114303761Y-80353095D02*
X114341857Y-80276904D01*
X114532333Y-79286427D02*
X114532333Y-78676904D01*
X114837095Y-78981665D02*
X114227571Y-78981665D01*
X114837095Y-87198238D02*
X114799000Y-87274428D01*
X114799000Y-87274428D02*
X114722809Y-87312523D01*
X114722809Y-87312523D02*
X114037095Y-87312523D01*
X114799000Y-86588713D02*
X114837095Y-86664904D01*
X114837095Y-86664904D02*
X114837095Y-86817285D01*
X114837095Y-86817285D02*
X114799000Y-86893475D01*
X114799000Y-86893475D02*
X114722809Y-86931571D01*
X114722809Y-86931571D02*
X114418047Y-86931571D01*
X114418047Y-86931571D02*
X114341857Y-86893475D01*
X114341857Y-86893475D02*
X114303761Y-86817285D01*
X114303761Y-86817285D02*
X114303761Y-86664904D01*
X114303761Y-86664904D02*
X114341857Y-86588713D01*
X114341857Y-86588713D02*
X114418047Y-86550618D01*
X114418047Y-86550618D02*
X114494238Y-86550618D01*
X114494238Y-86550618D02*
X114570428Y-86931571D01*
X114837095Y-85864904D02*
X114037095Y-85864904D01*
X114799000Y-85864904D02*
X114837095Y-85941095D01*
X114837095Y-85941095D02*
X114837095Y-86093476D01*
X114837095Y-86093476D02*
X114799000Y-86169666D01*
X114799000Y-86169666D02*
X114760904Y-86207761D01*
X114760904Y-86207761D02*
X114684714Y-86245857D01*
X114684714Y-86245857D02*
X114456142Y-86245857D01*
X114456142Y-86245857D02*
X114379952Y-86207761D01*
X114379952Y-86207761D02*
X114341857Y-86169666D01*
X114341857Y-86169666D02*
X114303761Y-86093476D01*
X114303761Y-86093476D02*
X114303761Y-85941095D01*
X114303761Y-85941095D02*
X114341857Y-85864904D01*
X114532333Y-84874427D02*
X114532333Y-84264904D01*
D11*
X87408095Y-80218619D02*
X87408095Y-79551952D01*
X87408095Y-79647190D02*
X87455714Y-79599571D01*
X87455714Y-79599571D02*
X87550952Y-79551952D01*
X87550952Y-79551952D02*
X87693809Y-79551952D01*
X87693809Y-79551952D02*
X87789047Y-79599571D01*
X87789047Y-79599571D02*
X87836666Y-79694809D01*
X87836666Y-79694809D02*
X87836666Y-80218619D01*
X87836666Y-79694809D02*
X87884285Y-79599571D01*
X87884285Y-79599571D02*
X87979523Y-79551952D01*
X87979523Y-79551952D02*
X88122380Y-79551952D01*
X88122380Y-79551952D02*
X88217619Y-79599571D01*
X88217619Y-79599571D02*
X88265238Y-79694809D01*
X88265238Y-79694809D02*
X88265238Y-80218619D01*
X88884285Y-80218619D02*
X88789047Y-80171000D01*
X88789047Y-80171000D02*
X88741428Y-80123380D01*
X88741428Y-80123380D02*
X88693809Y-80028142D01*
X88693809Y-80028142D02*
X88693809Y-79742428D01*
X88693809Y-79742428D02*
X88741428Y-79647190D01*
X88741428Y-79647190D02*
X88789047Y-79599571D01*
X88789047Y-79599571D02*
X88884285Y-79551952D01*
X88884285Y-79551952D02*
X89027142Y-79551952D01*
X89027142Y-79551952D02*
X89122380Y-79599571D01*
X89122380Y-79599571D02*
X89169999Y-79647190D01*
X89169999Y-79647190D02*
X89217618Y-79742428D01*
X89217618Y-79742428D02*
X89217618Y-80028142D01*
X89217618Y-80028142D02*
X89169999Y-80123380D01*
X89169999Y-80123380D02*
X89122380Y-80171000D01*
X89122380Y-80171000D02*
X89027142Y-80218619D01*
X89027142Y-80218619D02*
X88884285Y-80218619D01*
X89598571Y-80171000D02*
X89693809Y-80218619D01*
X89693809Y-80218619D02*
X89884285Y-80218619D01*
X89884285Y-80218619D02*
X89979523Y-80171000D01*
X89979523Y-80171000D02*
X90027142Y-80075761D01*
X90027142Y-80075761D02*
X90027142Y-80028142D01*
X90027142Y-80028142D02*
X89979523Y-79932904D01*
X89979523Y-79932904D02*
X89884285Y-79885285D01*
X89884285Y-79885285D02*
X89741428Y-79885285D01*
X89741428Y-79885285D02*
X89646190Y-79837666D01*
X89646190Y-79837666D02*
X89598571Y-79742428D01*
X89598571Y-79742428D02*
X89598571Y-79694809D01*
X89598571Y-79694809D02*
X89646190Y-79599571D01*
X89646190Y-79599571D02*
X89741428Y-79551952D01*
X89741428Y-79551952D02*
X89884285Y-79551952D01*
X89884285Y-79551952D02*
X89979523Y-79599571D01*
X90312857Y-79551952D02*
X90693809Y-79551952D01*
X90455714Y-80218619D02*
X90455714Y-79361476D01*
X90455714Y-79361476D02*
X90503333Y-79266238D01*
X90503333Y-79266238D02*
X90598571Y-79218619D01*
X90598571Y-79218619D02*
X90693809Y-79218619D01*
X91408095Y-80171000D02*
X91312857Y-80218619D01*
X91312857Y-80218619D02*
X91122381Y-80218619D01*
X91122381Y-80218619D02*
X91027143Y-80171000D01*
X91027143Y-80171000D02*
X90979524Y-80075761D01*
X90979524Y-80075761D02*
X90979524Y-79694809D01*
X90979524Y-79694809D02*
X91027143Y-79599571D01*
X91027143Y-79599571D02*
X91122381Y-79551952D01*
X91122381Y-79551952D02*
X91312857Y-79551952D01*
X91312857Y-79551952D02*
X91408095Y-79599571D01*
X91408095Y-79599571D02*
X91455714Y-79694809D01*
X91455714Y-79694809D02*
X91455714Y-79790047D01*
X91455714Y-79790047D02*
X90979524Y-79885285D01*
X91741429Y-79551952D02*
X92122381Y-79551952D01*
X91884286Y-79218619D02*
X91884286Y-80075761D01*
X91884286Y-80075761D02*
X91931905Y-80171000D01*
X91931905Y-80171000D02*
X92027143Y-80218619D01*
X92027143Y-80218619D02*
X92122381Y-80218619D01*
X92979524Y-80218619D02*
X92408096Y-80218619D01*
X92693810Y-80218619D02*
X92693810Y-79218619D01*
X92693810Y-79218619D02*
X92598572Y-79361476D01*
X92598572Y-79361476D02*
X92503334Y-79456714D01*
X92503334Y-79456714D02*
X92408096Y-79504333D01*
X106172095Y-92516619D02*
X106172095Y-91516619D01*
X106172095Y-91992809D02*
X106743523Y-91992809D01*
X106743523Y-92516619D02*
X106743523Y-91516619D01*
X107172095Y-91611857D02*
X107219714Y-91564238D01*
X107219714Y-91564238D02*
X107314952Y-91516619D01*
X107314952Y-91516619D02*
X107553047Y-91516619D01*
X107553047Y-91516619D02*
X107648285Y-91564238D01*
X107648285Y-91564238D02*
X107695904Y-91611857D01*
X107695904Y-91611857D02*
X107743523Y-91707095D01*
X107743523Y-91707095D02*
X107743523Y-91802333D01*
X107743523Y-91802333D02*
X107695904Y-91945190D01*
X107695904Y-91945190D02*
X107124476Y-92516619D01*
X107124476Y-92516619D02*
X107743523Y-92516619D01*
X96607333Y-85965380D02*
X96559714Y-86013000D01*
X96559714Y-86013000D02*
X96416857Y-86060619D01*
X96416857Y-86060619D02*
X96321619Y-86060619D01*
X96321619Y-86060619D02*
X96178762Y-86013000D01*
X96178762Y-86013000D02*
X96083524Y-85917761D01*
X96083524Y-85917761D02*
X96035905Y-85822523D01*
X96035905Y-85822523D02*
X95988286Y-85632047D01*
X95988286Y-85632047D02*
X95988286Y-85489190D01*
X95988286Y-85489190D02*
X96035905Y-85298714D01*
X96035905Y-85298714D02*
X96083524Y-85203476D01*
X96083524Y-85203476D02*
X96178762Y-85108238D01*
X96178762Y-85108238D02*
X96321619Y-85060619D01*
X96321619Y-85060619D02*
X96416857Y-85060619D01*
X96416857Y-85060619D02*
X96559714Y-85108238D01*
X96559714Y-85108238D02*
X96607333Y-85155857D01*
X97464476Y-85393952D02*
X97464476Y-86060619D01*
X97226381Y-85013000D02*
X96988286Y-85727285D01*
X96988286Y-85727285D02*
X97607333Y-85727285D01*
X80232666Y-91032619D02*
X80804094Y-91032619D01*
X80518380Y-92032619D02*
X80518380Y-91032619D01*
X81565999Y-91365952D02*
X81565999Y-92175476D01*
X81565999Y-92175476D02*
X81518380Y-92270714D01*
X81518380Y-92270714D02*
X81470761Y-92318333D01*
X81470761Y-92318333D02*
X81375523Y-92365952D01*
X81375523Y-92365952D02*
X81232666Y-92365952D01*
X81232666Y-92365952D02*
X81137428Y-92318333D01*
X81565999Y-91985000D02*
X81470761Y-92032619D01*
X81470761Y-92032619D02*
X81280285Y-92032619D01*
X81280285Y-92032619D02*
X81185047Y-91985000D01*
X81185047Y-91985000D02*
X81137428Y-91937380D01*
X81137428Y-91937380D02*
X81089809Y-91842142D01*
X81089809Y-91842142D02*
X81089809Y-91556428D01*
X81089809Y-91556428D02*
X81137428Y-91461190D01*
X81137428Y-91461190D02*
X81185047Y-91413571D01*
X81185047Y-91413571D02*
X81280285Y-91365952D01*
X81280285Y-91365952D02*
X81470761Y-91365952D01*
X81470761Y-91365952D02*
X81565999Y-91413571D01*
X82042190Y-92032619D02*
X82042190Y-91365952D01*
X82042190Y-91556428D02*
X82089809Y-91461190D01*
X82089809Y-91461190D02*
X82137428Y-91413571D01*
X82137428Y-91413571D02*
X82232666Y-91365952D01*
X82232666Y-91365952D02*
X82327904Y-91365952D01*
X82804095Y-92032619D02*
X82708857Y-91985000D01*
X82708857Y-91985000D02*
X82661238Y-91937380D01*
X82661238Y-91937380D02*
X82613619Y-91842142D01*
X82613619Y-91842142D02*
X82613619Y-91556428D01*
X82613619Y-91556428D02*
X82661238Y-91461190D01*
X82661238Y-91461190D02*
X82708857Y-91413571D01*
X82708857Y-91413571D02*
X82804095Y-91365952D01*
X82804095Y-91365952D02*
X82946952Y-91365952D01*
X82946952Y-91365952D02*
X83042190Y-91413571D01*
X83042190Y-91413571D02*
X83089809Y-91461190D01*
X83089809Y-91461190D02*
X83137428Y-91556428D01*
X83137428Y-91556428D02*
X83137428Y-91842142D01*
X83137428Y-91842142D02*
X83089809Y-91937380D01*
X83089809Y-91937380D02*
X83042190Y-91985000D01*
X83042190Y-91985000D02*
X82946952Y-92032619D01*
X82946952Y-92032619D02*
X82804095Y-92032619D01*
X83994571Y-91365952D02*
X83994571Y-92032619D01*
X83566000Y-91365952D02*
X83566000Y-91889761D01*
X83566000Y-91889761D02*
X83613619Y-91985000D01*
X83613619Y-91985000D02*
X83708857Y-92032619D01*
X83708857Y-92032619D02*
X83851714Y-92032619D01*
X83851714Y-92032619D02*
X83946952Y-91985000D01*
X83946952Y-91985000D02*
X83994571Y-91937380D01*
X84470762Y-91365952D02*
X84470762Y-92032619D01*
X84470762Y-91461190D02*
X84518381Y-91413571D01*
X84518381Y-91413571D02*
X84613619Y-91365952D01*
X84613619Y-91365952D02*
X84756476Y-91365952D01*
X84756476Y-91365952D02*
X84851714Y-91413571D01*
X84851714Y-91413571D02*
X84899333Y-91508809D01*
X84899333Y-91508809D02*
X84899333Y-92032619D01*
X85804095Y-92032619D02*
X85804095Y-91032619D01*
X85804095Y-91985000D02*
X85708857Y-92032619D01*
X85708857Y-92032619D02*
X85518381Y-92032619D01*
X85518381Y-92032619D02*
X85423143Y-91985000D01*
X85423143Y-91985000D02*
X85375524Y-91937380D01*
X85375524Y-91937380D02*
X85327905Y-91842142D01*
X85327905Y-91842142D02*
X85327905Y-91556428D01*
X85327905Y-91556428D02*
X85375524Y-91461190D01*
X85375524Y-91461190D02*
X85423143Y-91413571D01*
X85423143Y-91413571D02*
X85518381Y-91365952D01*
X85518381Y-91365952D02*
X85708857Y-91365952D01*
X85708857Y-91365952D02*
X85804095Y-91413571D01*
X86804095Y-92032619D02*
X86232667Y-92032619D01*
X86518381Y-92032619D02*
X86518381Y-91032619D01*
X86518381Y-91032619D02*
X86423143Y-91175476D01*
X86423143Y-91175476D02*
X86327905Y-91270714D01*
X86327905Y-91270714D02*
X86232667Y-91318333D01*
X99030619Y-86613904D02*
X99840142Y-86613904D01*
X99840142Y-86613904D02*
X99935380Y-86566285D01*
X99935380Y-86566285D02*
X99983000Y-86518666D01*
X99983000Y-86518666D02*
X100030619Y-86423428D01*
X100030619Y-86423428D02*
X100030619Y-86232952D01*
X100030619Y-86232952D02*
X99983000Y-86137714D01*
X99983000Y-86137714D02*
X99935380Y-86090095D01*
X99935380Y-86090095D02*
X99840142Y-86042476D01*
X99840142Y-86042476D02*
X99030619Y-86042476D01*
X100030619Y-85042476D02*
X100030619Y-85613904D01*
X100030619Y-85328190D02*
X99030619Y-85328190D01*
X99030619Y-85328190D02*
X99173476Y-85423428D01*
X99173476Y-85423428D02*
X99268714Y-85518666D01*
X99268714Y-85518666D02*
X99316333Y-85613904D01*
X86677904Y-81758619D02*
X87249332Y-81758619D01*
X86963618Y-82758619D02*
X86963618Y-81758619D01*
X87963618Y-82711000D02*
X87868380Y-82758619D01*
X87868380Y-82758619D02*
X87677904Y-82758619D01*
X87677904Y-82758619D02*
X87582666Y-82711000D01*
X87582666Y-82711000D02*
X87535047Y-82615761D01*
X87535047Y-82615761D02*
X87535047Y-82234809D01*
X87535047Y-82234809D02*
X87582666Y-82139571D01*
X87582666Y-82139571D02*
X87677904Y-82091952D01*
X87677904Y-82091952D02*
X87868380Y-82091952D01*
X87868380Y-82091952D02*
X87963618Y-82139571D01*
X87963618Y-82139571D02*
X88011237Y-82234809D01*
X88011237Y-82234809D02*
X88011237Y-82330047D01*
X88011237Y-82330047D02*
X87535047Y-82425285D01*
X88439809Y-82091952D02*
X88439809Y-82758619D01*
X88439809Y-82187190D02*
X88487428Y-82139571D01*
X88487428Y-82139571D02*
X88582666Y-82091952D01*
X88582666Y-82091952D02*
X88725523Y-82091952D01*
X88725523Y-82091952D02*
X88820761Y-82139571D01*
X88820761Y-82139571D02*
X88868380Y-82234809D01*
X88868380Y-82234809D02*
X88868380Y-82758619D01*
X89773142Y-82758619D02*
X89773142Y-82234809D01*
X89773142Y-82234809D02*
X89725523Y-82139571D01*
X89725523Y-82139571D02*
X89630285Y-82091952D01*
X89630285Y-82091952D02*
X89439809Y-82091952D01*
X89439809Y-82091952D02*
X89344571Y-82139571D01*
X89773142Y-82711000D02*
X89677904Y-82758619D01*
X89677904Y-82758619D02*
X89439809Y-82758619D01*
X89439809Y-82758619D02*
X89344571Y-82711000D01*
X89344571Y-82711000D02*
X89296952Y-82615761D01*
X89296952Y-82615761D02*
X89296952Y-82520523D01*
X89296952Y-82520523D02*
X89344571Y-82425285D01*
X89344571Y-82425285D02*
X89439809Y-82377666D01*
X89439809Y-82377666D02*
X89677904Y-82377666D01*
X89677904Y-82377666D02*
X89773142Y-82330047D01*
X90249333Y-82758619D02*
X90249333Y-81758619D01*
X90249333Y-82139571D02*
X90344571Y-82091952D01*
X90344571Y-82091952D02*
X90535047Y-82091952D01*
X90535047Y-82091952D02*
X90630285Y-82139571D01*
X90630285Y-82139571D02*
X90677904Y-82187190D01*
X90677904Y-82187190D02*
X90725523Y-82282428D01*
X90725523Y-82282428D02*
X90725523Y-82568142D01*
X90725523Y-82568142D02*
X90677904Y-82663380D01*
X90677904Y-82663380D02*
X90630285Y-82711000D01*
X90630285Y-82711000D02*
X90535047Y-82758619D01*
X90535047Y-82758619D02*
X90344571Y-82758619D01*
X90344571Y-82758619D02*
X90249333Y-82711000D01*
X91296952Y-82758619D02*
X91201714Y-82711000D01*
X91201714Y-82711000D02*
X91154095Y-82615761D01*
X91154095Y-82615761D02*
X91154095Y-81758619D01*
X92058857Y-82711000D02*
X91963619Y-82758619D01*
X91963619Y-82758619D02*
X91773143Y-82758619D01*
X91773143Y-82758619D02*
X91677905Y-82711000D01*
X91677905Y-82711000D02*
X91630286Y-82615761D01*
X91630286Y-82615761D02*
X91630286Y-82234809D01*
X91630286Y-82234809D02*
X91677905Y-82139571D01*
X91677905Y-82139571D02*
X91773143Y-82091952D01*
X91773143Y-82091952D02*
X91963619Y-82091952D01*
X91963619Y-82091952D02*
X92058857Y-82139571D01*
X92058857Y-82139571D02*
X92106476Y-82234809D01*
X92106476Y-82234809D02*
X92106476Y-82330047D01*
X92106476Y-82330047D02*
X91630286Y-82425285D01*
X93058857Y-82758619D02*
X92487429Y-82758619D01*
X92773143Y-82758619D02*
X92773143Y-81758619D01*
X92773143Y-81758619D02*
X92677905Y-81901476D01*
X92677905Y-81901476D02*
X92582667Y-81996714D01*
X92582667Y-81996714D02*
X92487429Y-82044333D01*
X99076190Y-88870619D02*
X99647618Y-88870619D01*
X99361904Y-89870619D02*
X99361904Y-88870619D01*
X100123809Y-89870619D02*
X100028571Y-89823000D01*
X100028571Y-89823000D02*
X99980952Y-89727761D01*
X99980952Y-89727761D02*
X99980952Y-88870619D01*
X100885714Y-89823000D02*
X100790476Y-89870619D01*
X100790476Y-89870619D02*
X100600000Y-89870619D01*
X100600000Y-89870619D02*
X100504762Y-89823000D01*
X100504762Y-89823000D02*
X100457143Y-89727761D01*
X100457143Y-89727761D02*
X100457143Y-89346809D01*
X100457143Y-89346809D02*
X100504762Y-89251571D01*
X100504762Y-89251571D02*
X100600000Y-89203952D01*
X100600000Y-89203952D02*
X100790476Y-89203952D01*
X100790476Y-89203952D02*
X100885714Y-89251571D01*
X100885714Y-89251571D02*
X100933333Y-89346809D01*
X100933333Y-89346809D02*
X100933333Y-89442047D01*
X100933333Y-89442047D02*
X100457143Y-89537285D01*
X101790476Y-89870619D02*
X101790476Y-88870619D01*
X101790476Y-89823000D02*
X101695238Y-89870619D01*
X101695238Y-89870619D02*
X101504762Y-89870619D01*
X101504762Y-89870619D02*
X101409524Y-89823000D01*
X101409524Y-89823000D02*
X101361905Y-89775380D01*
X101361905Y-89775380D02*
X101314286Y-89680142D01*
X101314286Y-89680142D02*
X101314286Y-89394428D01*
X101314286Y-89394428D02*
X101361905Y-89299190D01*
X101361905Y-89299190D02*
X101409524Y-89251571D01*
X101409524Y-89251571D02*
X101504762Y-89203952D01*
X101504762Y-89203952D02*
X101695238Y-89203952D01*
X101695238Y-89203952D02*
X101790476Y-89251571D01*
X102266667Y-89489666D02*
X103028572Y-89489666D01*
X102647619Y-89870619D02*
X102647619Y-89108714D01*
X104028571Y-89870619D02*
X103457143Y-89870619D01*
X103742857Y-89870619D02*
X103742857Y-88870619D01*
X103742857Y-88870619D02*
X103647619Y-89013476D01*
X103647619Y-89013476D02*
X103552381Y-89108714D01*
X103552381Y-89108714D02*
X103457143Y-89156333D01*
X100671333Y-75264619D02*
X100338000Y-74788428D01*
X100099905Y-75264619D02*
X100099905Y-74264619D01*
X100099905Y-74264619D02*
X100480857Y-74264619D01*
X100480857Y-74264619D02*
X100576095Y-74312238D01*
X100576095Y-74312238D02*
X100623714Y-74359857D01*
X100623714Y-74359857D02*
X100671333Y-74455095D01*
X100671333Y-74455095D02*
X100671333Y-74597952D01*
X100671333Y-74597952D02*
X100623714Y-74693190D01*
X100623714Y-74693190D02*
X100576095Y-74740809D01*
X100576095Y-74740809D02*
X100480857Y-74788428D01*
X100480857Y-74788428D02*
X100099905Y-74788428D01*
X101004667Y-74264619D02*
X101623714Y-74264619D01*
X101623714Y-74264619D02*
X101290381Y-74645571D01*
X101290381Y-74645571D02*
X101433238Y-74645571D01*
X101433238Y-74645571D02*
X101528476Y-74693190D01*
X101528476Y-74693190D02*
X101576095Y-74740809D01*
X101576095Y-74740809D02*
X101623714Y-74836047D01*
X101623714Y-74836047D02*
X101623714Y-75074142D01*
X101623714Y-75074142D02*
X101576095Y-75169380D01*
X101576095Y-75169380D02*
X101528476Y-75217000D01*
X101528476Y-75217000D02*
X101433238Y-75264619D01*
X101433238Y-75264619D02*
X101147524Y-75264619D01*
X101147524Y-75264619D02*
X101052286Y-75217000D01*
X101052286Y-75217000D02*
X101004667Y-75169380D01*
X88759380Y-85256666D02*
X88807000Y-85304285D01*
X88807000Y-85304285D02*
X88854619Y-85447142D01*
X88854619Y-85447142D02*
X88854619Y-85542380D01*
X88854619Y-85542380D02*
X88807000Y-85685237D01*
X88807000Y-85685237D02*
X88711761Y-85780475D01*
X88711761Y-85780475D02*
X88616523Y-85828094D01*
X88616523Y-85828094D02*
X88426047Y-85875713D01*
X88426047Y-85875713D02*
X88283190Y-85875713D01*
X88283190Y-85875713D02*
X88092714Y-85828094D01*
X88092714Y-85828094D02*
X87997476Y-85780475D01*
X87997476Y-85780475D02*
X87902238Y-85685237D01*
X87902238Y-85685237D02*
X87854619Y-85542380D01*
X87854619Y-85542380D02*
X87854619Y-85447142D01*
X87854619Y-85447142D02*
X87902238Y-85304285D01*
X87902238Y-85304285D02*
X87949857Y-85256666D01*
X88854619Y-84304285D02*
X88854619Y-84875713D01*
X88854619Y-84589999D02*
X87854619Y-84589999D01*
X87854619Y-84589999D02*
X87997476Y-84685237D01*
X87997476Y-84685237D02*
X88092714Y-84780475D01*
X88092714Y-84780475D02*
X88140333Y-84875713D01*
X104114619Y-84590095D02*
X104067000Y-84685333D01*
X104067000Y-84685333D02*
X103971761Y-84732952D01*
X103971761Y-84732952D02*
X103114619Y-84732952D01*
X104067000Y-83828190D02*
X104114619Y-83923428D01*
X104114619Y-83923428D02*
X104114619Y-84113904D01*
X104114619Y-84113904D02*
X104067000Y-84209142D01*
X104067000Y-84209142D02*
X103971761Y-84256761D01*
X103971761Y-84256761D02*
X103590809Y-84256761D01*
X103590809Y-84256761D02*
X103495571Y-84209142D01*
X103495571Y-84209142D02*
X103447952Y-84113904D01*
X103447952Y-84113904D02*
X103447952Y-83923428D01*
X103447952Y-83923428D02*
X103495571Y-83828190D01*
X103495571Y-83828190D02*
X103590809Y-83780571D01*
X103590809Y-83780571D02*
X103686047Y-83780571D01*
X103686047Y-83780571D02*
X103781285Y-84256761D01*
X104114619Y-82923428D02*
X103114619Y-82923428D01*
X104067000Y-82923428D02*
X104114619Y-83018666D01*
X104114619Y-83018666D02*
X104114619Y-83209142D01*
X104114619Y-83209142D02*
X104067000Y-83304380D01*
X104067000Y-83304380D02*
X104019380Y-83351999D01*
X104019380Y-83351999D02*
X103924142Y-83399618D01*
X103924142Y-83399618D02*
X103638428Y-83399618D01*
X103638428Y-83399618D02*
X103543190Y-83351999D01*
X103543190Y-83351999D02*
X103495571Y-83304380D01*
X103495571Y-83304380D02*
X103447952Y-83209142D01*
X103447952Y-83209142D02*
X103447952Y-83018666D01*
X103447952Y-83018666D02*
X103495571Y-82923428D01*
X104114619Y-81923428D02*
X104114619Y-82494856D01*
X104114619Y-82209142D02*
X103114619Y-82209142D01*
X103114619Y-82209142D02*
X103257476Y-82304380D01*
X103257476Y-82304380D02*
X103352714Y-82399618D01*
X103352714Y-82399618D02*
X103400333Y-82494856D01*
X88661380Y-88558666D02*
X88709000Y-88606285D01*
X88709000Y-88606285D02*
X88756619Y-88749142D01*
X88756619Y-88749142D02*
X88756619Y-88844380D01*
X88756619Y-88844380D02*
X88709000Y-88987237D01*
X88709000Y-88987237D02*
X88613761Y-89082475D01*
X88613761Y-89082475D02*
X88518523Y-89130094D01*
X88518523Y-89130094D02*
X88328047Y-89177713D01*
X88328047Y-89177713D02*
X88185190Y-89177713D01*
X88185190Y-89177713D02*
X87994714Y-89130094D01*
X87994714Y-89130094D02*
X87899476Y-89082475D01*
X87899476Y-89082475D02*
X87804238Y-88987237D01*
X87804238Y-88987237D02*
X87756619Y-88844380D01*
X87756619Y-88844380D02*
X87756619Y-88749142D01*
X87756619Y-88749142D02*
X87804238Y-88606285D01*
X87804238Y-88606285D02*
X87851857Y-88558666D01*
X87851857Y-88177713D02*
X87804238Y-88130094D01*
X87804238Y-88130094D02*
X87756619Y-88034856D01*
X87756619Y-88034856D02*
X87756619Y-87796761D01*
X87756619Y-87796761D02*
X87804238Y-87701523D01*
X87804238Y-87701523D02*
X87851857Y-87653904D01*
X87851857Y-87653904D02*
X87947095Y-87606285D01*
X87947095Y-87606285D02*
X88042333Y-87606285D01*
X88042333Y-87606285D02*
X88185190Y-87653904D01*
X88185190Y-87653904D02*
X88756619Y-88225332D01*
X88756619Y-88225332D02*
X88756619Y-87606285D01*
X113284095Y-73360619D02*
X113284095Y-72360619D01*
X113284095Y-72836809D02*
X113855523Y-72836809D01*
X113855523Y-73360619D02*
X113855523Y-72360619D01*
X114855523Y-73360619D02*
X114284095Y-73360619D01*
X114569809Y-73360619D02*
X114569809Y-72360619D01*
X114569809Y-72360619D02*
X114474571Y-72503476D01*
X114474571Y-72503476D02*
X114379333Y-72598714D01*
X114379333Y-72598714D02*
X114284095Y-72646333D01*
X104608333Y-75264619D02*
X104275000Y-74788428D01*
X104036905Y-75264619D02*
X104036905Y-74264619D01*
X104036905Y-74264619D02*
X104417857Y-74264619D01*
X104417857Y-74264619D02*
X104513095Y-74312238D01*
X104513095Y-74312238D02*
X104560714Y-74359857D01*
X104560714Y-74359857D02*
X104608333Y-74455095D01*
X104608333Y-74455095D02*
X104608333Y-74597952D01*
X104608333Y-74597952D02*
X104560714Y-74693190D01*
X104560714Y-74693190D02*
X104513095Y-74740809D01*
X104513095Y-74740809D02*
X104417857Y-74788428D01*
X104417857Y-74788428D02*
X104036905Y-74788428D01*
X105465476Y-74597952D02*
X105465476Y-75264619D01*
X105227381Y-74217000D02*
X104989286Y-74931285D01*
X104989286Y-74931285D02*
X105608333Y-74931285D01*
X90321427Y-92617000D02*
X90226189Y-92664619D01*
X90226189Y-92664619D02*
X90035713Y-92664619D01*
X90035713Y-92664619D02*
X89940475Y-92617000D01*
X89940475Y-92617000D02*
X89892856Y-92569380D01*
X89892856Y-92569380D02*
X89845237Y-92474142D01*
X89845237Y-92474142D02*
X89845237Y-92188428D01*
X89845237Y-92188428D02*
X89892856Y-92093190D01*
X89892856Y-92093190D02*
X89940475Y-92045571D01*
X89940475Y-92045571D02*
X90035713Y-91997952D01*
X90035713Y-91997952D02*
X90226189Y-91997952D01*
X90226189Y-91997952D02*
X90321427Y-92045571D01*
X91178570Y-91997952D02*
X91178570Y-92664619D01*
X90749999Y-91997952D02*
X90749999Y-92521761D01*
X90749999Y-92521761D02*
X90797618Y-92617000D01*
X90797618Y-92617000D02*
X90892856Y-92664619D01*
X90892856Y-92664619D02*
X91035713Y-92664619D01*
X91035713Y-92664619D02*
X91130951Y-92617000D01*
X91130951Y-92617000D02*
X91178570Y-92569380D01*
X91654761Y-92664619D02*
X91654761Y-91997952D01*
X91654761Y-92188428D02*
X91702380Y-92093190D01*
X91702380Y-92093190D02*
X91749999Y-92045571D01*
X91749999Y-92045571D02*
X91845237Y-91997952D01*
X91845237Y-91997952D02*
X91940475Y-91997952D01*
X92273809Y-92664619D02*
X92273809Y-91997952D01*
X92273809Y-92188428D02*
X92321428Y-92093190D01*
X92321428Y-92093190D02*
X92369047Y-92045571D01*
X92369047Y-92045571D02*
X92464285Y-91997952D01*
X92464285Y-91997952D02*
X92559523Y-91997952D01*
X93273809Y-92617000D02*
X93178571Y-92664619D01*
X93178571Y-92664619D02*
X92988095Y-92664619D01*
X92988095Y-92664619D02*
X92892857Y-92617000D01*
X92892857Y-92617000D02*
X92845238Y-92521761D01*
X92845238Y-92521761D02*
X92845238Y-92140809D01*
X92845238Y-92140809D02*
X92892857Y-92045571D01*
X92892857Y-92045571D02*
X92988095Y-91997952D01*
X92988095Y-91997952D02*
X93178571Y-91997952D01*
X93178571Y-91997952D02*
X93273809Y-92045571D01*
X93273809Y-92045571D02*
X93321428Y-92140809D01*
X93321428Y-92140809D02*
X93321428Y-92236047D01*
X93321428Y-92236047D02*
X92845238Y-92331285D01*
X93750000Y-91997952D02*
X93750000Y-92664619D01*
X93750000Y-92093190D02*
X93797619Y-92045571D01*
X93797619Y-92045571D02*
X93892857Y-91997952D01*
X93892857Y-91997952D02*
X94035714Y-91997952D01*
X94035714Y-91997952D02*
X94130952Y-92045571D01*
X94130952Y-92045571D02*
X94178571Y-92140809D01*
X94178571Y-92140809D02*
X94178571Y-92664619D01*
X94511905Y-91997952D02*
X94892857Y-91997952D01*
X94654762Y-91664619D02*
X94654762Y-92521761D01*
X94654762Y-92521761D02*
X94702381Y-92617000D01*
X94702381Y-92617000D02*
X94797619Y-92664619D01*
X94797619Y-92664619D02*
X94892857Y-92664619D01*
X95178572Y-92617000D02*
X95273810Y-92664619D01*
X95273810Y-92664619D02*
X95464286Y-92664619D01*
X95464286Y-92664619D02*
X95559524Y-92617000D01*
X95559524Y-92617000D02*
X95607143Y-92521761D01*
X95607143Y-92521761D02*
X95607143Y-92474142D01*
X95607143Y-92474142D02*
X95559524Y-92378904D01*
X95559524Y-92378904D02*
X95464286Y-92331285D01*
X95464286Y-92331285D02*
X95321429Y-92331285D01*
X95321429Y-92331285D02*
X95226191Y-92283666D01*
X95226191Y-92283666D02*
X95178572Y-92188428D01*
X95178572Y-92188428D02*
X95178572Y-92140809D01*
X95178572Y-92140809D02*
X95226191Y-92045571D01*
X95226191Y-92045571D02*
X95321429Y-91997952D01*
X95321429Y-91997952D02*
X95464286Y-91997952D01*
X95464286Y-91997952D02*
X95559524Y-92045571D01*
X96416667Y-92617000D02*
X96321429Y-92664619D01*
X96321429Y-92664619D02*
X96130953Y-92664619D01*
X96130953Y-92664619D02*
X96035715Y-92617000D01*
X96035715Y-92617000D02*
X95988096Y-92521761D01*
X95988096Y-92521761D02*
X95988096Y-92140809D01*
X95988096Y-92140809D02*
X96035715Y-92045571D01*
X96035715Y-92045571D02*
X96130953Y-91997952D01*
X96130953Y-91997952D02*
X96321429Y-91997952D01*
X96321429Y-91997952D02*
X96416667Y-92045571D01*
X96416667Y-92045571D02*
X96464286Y-92140809D01*
X96464286Y-92140809D02*
X96464286Y-92236047D01*
X96464286Y-92236047D02*
X95988096Y-92331285D01*
X96892858Y-91997952D02*
X96892858Y-92664619D01*
X96892858Y-92093190D02*
X96940477Y-92045571D01*
X96940477Y-92045571D02*
X97035715Y-91997952D01*
X97035715Y-91997952D02*
X97178572Y-91997952D01*
X97178572Y-91997952D02*
X97273810Y-92045571D01*
X97273810Y-92045571D02*
X97321429Y-92140809D01*
X97321429Y-92140809D02*
X97321429Y-92664619D01*
X97750001Y-92617000D02*
X97845239Y-92664619D01*
X97845239Y-92664619D02*
X98035715Y-92664619D01*
X98035715Y-92664619D02*
X98130953Y-92617000D01*
X98130953Y-92617000D02*
X98178572Y-92521761D01*
X98178572Y-92521761D02*
X98178572Y-92474142D01*
X98178572Y-92474142D02*
X98130953Y-92378904D01*
X98130953Y-92378904D02*
X98035715Y-92331285D01*
X98035715Y-92331285D02*
X97892858Y-92331285D01*
X97892858Y-92331285D02*
X97797620Y-92283666D01*
X97797620Y-92283666D02*
X97750001Y-92188428D01*
X97750001Y-92188428D02*
X97750001Y-92140809D01*
X97750001Y-92140809D02*
X97797620Y-92045571D01*
X97797620Y-92045571D02*
X97892858Y-91997952D01*
X97892858Y-91997952D02*
X98035715Y-91997952D01*
X98035715Y-91997952D02*
X98130953Y-92045571D01*
X98750001Y-92664619D02*
X98654763Y-92617000D01*
X98654763Y-92617000D02*
X98607144Y-92569380D01*
X98607144Y-92569380D02*
X98559525Y-92474142D01*
X98559525Y-92474142D02*
X98559525Y-92188428D01*
X98559525Y-92188428D02*
X98607144Y-92093190D01*
X98607144Y-92093190D02*
X98654763Y-92045571D01*
X98654763Y-92045571D02*
X98750001Y-91997952D01*
X98750001Y-91997952D02*
X98892858Y-91997952D01*
X98892858Y-91997952D02*
X98988096Y-92045571D01*
X98988096Y-92045571D02*
X99035715Y-92093190D01*
X99035715Y-92093190D02*
X99083334Y-92188428D01*
X99083334Y-92188428D02*
X99083334Y-92474142D01*
X99083334Y-92474142D02*
X99035715Y-92569380D01*
X99035715Y-92569380D02*
X98988096Y-92617000D01*
X98988096Y-92617000D02*
X98892858Y-92664619D01*
X98892858Y-92664619D02*
X98750001Y-92664619D01*
X99511906Y-92664619D02*
X99511906Y-91997952D01*
X99511906Y-92188428D02*
X99559525Y-92093190D01*
X99559525Y-92093190D02*
X99607144Y-92045571D01*
X99607144Y-92045571D02*
X99702382Y-91997952D01*
X99702382Y-91997952D02*
X99797620Y-91997952D01*
X100654763Y-92664619D02*
X100083335Y-92664619D01*
X100369049Y-92664619D02*
X100369049Y-91664619D01*
X100369049Y-91664619D02*
X100273811Y-91807476D01*
X100273811Y-91807476D02*
X100178573Y-91902714D01*
X100178573Y-91902714D02*
X100083335Y-91950333D01*
X96734333Y-75199380D02*
X96686714Y-75247000D01*
X96686714Y-75247000D02*
X96543857Y-75294619D01*
X96543857Y-75294619D02*
X96448619Y-75294619D01*
X96448619Y-75294619D02*
X96305762Y-75247000D01*
X96305762Y-75247000D02*
X96210524Y-75151761D01*
X96210524Y-75151761D02*
X96162905Y-75056523D01*
X96162905Y-75056523D02*
X96115286Y-74866047D01*
X96115286Y-74866047D02*
X96115286Y-74723190D01*
X96115286Y-74723190D02*
X96162905Y-74532714D01*
X96162905Y-74532714D02*
X96210524Y-74437476D01*
X96210524Y-74437476D02*
X96305762Y-74342238D01*
X96305762Y-74342238D02*
X96448619Y-74294619D01*
X96448619Y-74294619D02*
X96543857Y-74294619D01*
X96543857Y-74294619D02*
X96686714Y-74342238D01*
X96686714Y-74342238D02*
X96734333Y-74389857D01*
X97067667Y-74294619D02*
X97686714Y-74294619D01*
X97686714Y-74294619D02*
X97353381Y-74675571D01*
X97353381Y-74675571D02*
X97496238Y-74675571D01*
X97496238Y-74675571D02*
X97591476Y-74723190D01*
X97591476Y-74723190D02*
X97639095Y-74770809D01*
X97639095Y-74770809D02*
X97686714Y-74866047D01*
X97686714Y-74866047D02*
X97686714Y-75104142D01*
X97686714Y-75104142D02*
X97639095Y-75199380D01*
X97639095Y-75199380D02*
X97591476Y-75247000D01*
X97591476Y-75247000D02*
X97496238Y-75294619D01*
X97496238Y-75294619D02*
X97210524Y-75294619D01*
X97210524Y-75294619D02*
X97115286Y-75247000D01*
X97115286Y-75247000D02*
X97067667Y-75199380D01*
D12*
X84770000Y-79008000D02*
X95570000Y-79008000D01*
X95570000Y-79008000D02*
X95570000Y-74408000D01*
X95570000Y-74408000D02*
X84770000Y-74408000D01*
X84770000Y-74408000D02*
X84770000Y-79008000D01*
X87422701Y-73738000D02*
G75*
G03*
X87422701Y-73738000I-482701J0D01*
G01*
X94241252Y-85063000D02*
X93718748Y-85063000D01*
X94241252Y-83593000D02*
X93718748Y-83593000D01*
X82616000Y-92268000D02*
X84516000Y-92268000D01*
X82616000Y-94168000D02*
X82616000Y-92268000D01*
X84516000Y-92268000D02*
X84516000Y-94168000D01*
X84516000Y-94168000D02*
X82616000Y-94168000D01*
X102978000Y-76164000D02*
X102978000Y-82174000D01*
X96158000Y-78414000D02*
X96158000Y-82174000D01*
X102978000Y-82174000D02*
X101718000Y-82174000D01*
X96158000Y-82174000D02*
X97418000Y-82174000D01*
X93284000Y-80584000D02*
X95184000Y-80584000D01*
X93284000Y-82484000D02*
X93284000Y-80584000D01*
X95184000Y-80584000D02*
X95184000Y-82484000D01*
X95184000Y-82484000D02*
X93284000Y-82484000D01*
X100650000Y-86426000D02*
X102550000Y-86426000D01*
X100650000Y-88326000D02*
X100650000Y-86426000D01*
X102550000Y-86426000D02*
X102550000Y-88326000D01*
X102550000Y-88326000D02*
X100650000Y-88326000D01*
X101065064Y-73887000D02*
X100610936Y-73887000D01*
X101065064Y-72417000D02*
X100610936Y-72417000D01*
X89435000Y-85605252D02*
X89435000Y-85082748D01*
X90905000Y-85605252D02*
X90905000Y-85082748D01*
X113372000Y-88652000D02*
X114012000Y-88652000D01*
X114012000Y-88652000D02*
X114012000Y-88252000D01*
X104652000Y-88412000D02*
X113772000Y-88412000D01*
X104652000Y-88412000D02*
X104652000Y-78292000D01*
X112212000Y-88412000D02*
X112212000Y-78292000D01*
X113312000Y-88412000D02*
X113312000Y-78292000D01*
X113772000Y-88412000D02*
X113772000Y-78292000D01*
X109993000Y-87400000D02*
X110100000Y-87506000D01*
X110259000Y-87134000D02*
X110366000Y-87240000D01*
X107058000Y-84464000D02*
X107165000Y-84571000D01*
X107324000Y-84198000D02*
X107431000Y-84305000D01*
X109704000Y-82110000D02*
X110100000Y-82505000D01*
X109986000Y-81859000D02*
X110366000Y-82239000D01*
X107058000Y-79464000D02*
X107438000Y-79844000D01*
X107324000Y-79198000D02*
X107720000Y-79593000D01*
X104652000Y-78292000D02*
X113772000Y-78292000D01*
X110892000Y-85852000D02*
G75*
G03*
X110892000Y-85852000I-2180000J0D01*
G01*
X110892000Y-80852000D02*
G75*
G03*
X110892000Y-80852000I-2180000J0D01*
G01*
X87349000Y-88130748D02*
X87349000Y-88653252D01*
X85879000Y-88130748D02*
X85879000Y-88653252D01*
X105002064Y-73887000D02*
X104547936Y-73887000D01*
X105002064Y-72417000D02*
X104547936Y-72417000D01*
X94996000Y-91460000D02*
X98446000Y-91460000D01*
X94996000Y-91460000D02*
X93046000Y-91460000D01*
X94996000Y-86340000D02*
X96946000Y-86340000D01*
X94996000Y-86340000D02*
X93046000Y-86340000D01*
X97162252Y-73887000D02*
X96639748Y-73887000D01*
X97162252Y-72417000D02*
X96639748Y-72417000D01*
%LPC*%
D13*
X86019996Y-75438000D03*
X86019996Y-77978000D03*
X94319996Y-77978000D03*
X94319996Y-75438000D03*
D14*
X110800000Y-91900000D03*
D15*
X95017500Y-84328000D03*
X92942500Y-84328000D03*
D16*
X83566000Y-93218000D03*
D17*
X101868000Y-77114000D03*
X99568000Y-77114000D03*
D18*
X99568000Y-83414000D03*
D17*
X97268000Y-77114000D03*
D16*
X94234000Y-81534000D03*
X101600000Y-87376000D03*
D19*
X101838000Y-73152000D03*
X99838000Y-73152000D03*
D20*
X90170000Y-86381500D03*
X90170000Y-84306500D03*
D21*
X108712000Y-85852000D03*
D22*
X108712000Y-80852000D03*
D23*
X86614000Y-87354500D03*
X86614000Y-89429500D03*
D14*
X111000000Y-75000000D03*
D19*
X105775000Y-73152000D03*
X103775000Y-73152000D03*
D24*
X97471000Y-90805000D03*
X97471000Y-89535000D03*
X97471000Y-88265000D03*
X97471000Y-86995000D03*
X92521000Y-86995000D03*
X92521000Y-88265000D03*
X92521000Y-89535000D03*
X92521000Y-90805000D03*
D15*
X97938500Y-73152000D03*
X95863500Y-73152000D03*
D25*
X82042000Y-76200000D03*
D26*
X82042000Y-78740000D03*
X82042000Y-81280000D03*
X82042000Y-83820000D03*
X82042000Y-86360000D03*
X82042000Y-88900000D03*
%LPD*%
M02*
