G04 #@! TF.GenerationSoftware,KiCad,Pcbnew,7.0.2*
G04 #@! TF.CreationDate,2023-10-12T11:21:25+02:00*
G04 #@! TF.ProjectId,aansturing lamp pcb,61616e73-7475-4726-996e-67206c616d70,rev?*
G04 #@! TF.SameCoordinates,Original*
G04 #@! TF.FileFunction,Copper,L1,Top*
G04 #@! TF.FilePolarity,Positive*
%FSLAX46Y46*%
G04 Gerber Fmt 4.6, Leading zero omitted, Abs format (unit mm)*
G04 Created by KiCad (PCBNEW 7.0.2) date 2023-10-12 11:21:25*
%MOMM*%
%LPD*%
G01*
G04 APERTURE LIST*
G04 Aperture macros list*
%AMRoundRect*
0 Rectangle with rounded corners*
0 $1 Rounding radius*
0 $2 $3 $4 $5 $6 $7 $8 $9 X,Y pos of 4 corners*
0 Add a 4 corners polygon primitive as box body*
4,1,4,$2,$3,$4,$5,$6,$7,$8,$9,$2,$3,0*
0 Add four circle primitives for the rounded corners*
1,1,$1+$1,$2,$3*
1,1,$1+$1,$4,$5*
1,1,$1+$1,$6,$7*
1,1,$1+$1,$8,$9*
0 Add four rect primitives between the rounded corners*
20,1,$1+$1,$2,$3,$4,$5,0*
20,1,$1+$1,$4,$5,$6,$7,0*
20,1,$1+$1,$6,$7,$8,$9,0*
20,1,$1+$1,$8,$9,$2,$3,0*%
G04 Aperture macros list end*
G04 #@! TA.AperFunction,SMDPad,CuDef*
%ADD10RoundRect,0.375000X0.575000X0.375000X-0.575000X0.375000X-0.575000X-0.375000X0.575000X-0.375000X0*%
G04 #@! TD*
G04 #@! TA.AperFunction,SMDPad,CuDef*
%ADD11RoundRect,0.250000X0.337500X0.475000X-0.337500X0.475000X-0.337500X-0.475000X0.337500X-0.475000X0*%
G04 #@! TD*
G04 #@! TA.AperFunction,SMDPad,CuDef*
%ADD12R,1.500000X1.500000*%
G04 #@! TD*
G04 #@! TA.AperFunction,SMDPad,CuDef*
%ADD13R,1.500000X2.000000*%
G04 #@! TD*
G04 #@! TA.AperFunction,SMDPad,CuDef*
%ADD14R,3.800000X2.000000*%
G04 #@! TD*
G04 #@! TA.AperFunction,SMDPad,CuDef*
%ADD15RoundRect,0.250000X0.350000X0.450000X-0.350000X0.450000X-0.350000X-0.450000X0.350000X-0.450000X0*%
G04 #@! TD*
G04 #@! TA.AperFunction,SMDPad,CuDef*
%ADD16RoundRect,0.250000X0.475000X-0.337500X0.475000X0.337500X-0.475000X0.337500X-0.475000X-0.337500X0*%
G04 #@! TD*
G04 #@! TA.AperFunction,ComponentPad*
%ADD17R,2.600000X2.600000*%
G04 #@! TD*
G04 #@! TA.AperFunction,ComponentPad*
%ADD18C,2.600000*%
G04 #@! TD*
G04 #@! TA.AperFunction,SMDPad,CuDef*
%ADD19RoundRect,0.250000X-0.475000X0.337500X-0.475000X-0.337500X0.475000X-0.337500X0.475000X0.337500X0*%
G04 #@! TD*
G04 #@! TA.AperFunction,SMDPad,CuDef*
%ADD20RoundRect,0.150000X0.825000X0.150000X-0.825000X0.150000X-0.825000X-0.150000X0.825000X-0.150000X0*%
G04 #@! TD*
G04 #@! TA.AperFunction,ComponentPad*
%ADD21R,1.700000X1.700000*%
G04 #@! TD*
G04 #@! TA.AperFunction,ComponentPad*
%ADD22O,1.700000X1.700000*%
G04 #@! TD*
G04 #@! TA.AperFunction,ViaPad*
%ADD23C,0.800000*%
G04 #@! TD*
G04 #@! TA.AperFunction,Conductor*
%ADD24C,0.500000*%
G04 #@! TD*
G04 #@! TA.AperFunction,Conductor*
%ADD25C,0.250000*%
G04 #@! TD*
G04 APERTURE END LIST*
D10*
X86019996Y-75438000D03*
X86019996Y-77978000D03*
X94319996Y-77978000D03*
X94319996Y-75438000D03*
D11*
X95017500Y-84328000D03*
X92942500Y-84328000D03*
D12*
X83566000Y-93218000D03*
D13*
X101868000Y-77114000D03*
X99568000Y-77114000D03*
D14*
X99568000Y-83414000D03*
D13*
X97268000Y-77114000D03*
D12*
X94234000Y-81534000D03*
X101600000Y-87376000D03*
D15*
X101838000Y-73152000D03*
X99838000Y-73152000D03*
D16*
X90170000Y-86381500D03*
X90170000Y-84306500D03*
D17*
X108712000Y-85852000D03*
D18*
X108712000Y-80852000D03*
D19*
X86614000Y-87354500D03*
X86614000Y-89429500D03*
D15*
X105775000Y-73152000D03*
X103775000Y-73152000D03*
D20*
X97471000Y-90805000D03*
X97471000Y-89535000D03*
X97471000Y-88265000D03*
X97471000Y-86995000D03*
X92521000Y-86995000D03*
X92521000Y-88265000D03*
X92521000Y-89535000D03*
X92521000Y-90805000D03*
D11*
X97938500Y-73152000D03*
X95863500Y-73152000D03*
D21*
X82042000Y-76200000D03*
D22*
X82042000Y-78740000D03*
X82042000Y-81280000D03*
X82042000Y-83820000D03*
X82042000Y-86360000D03*
X82042000Y-88900000D03*
D23*
X93980000Y-73279000D03*
D24*
X99568000Y-83414000D02*
X95931500Y-83414000D01*
X95931500Y-83414000D02*
X95017500Y-84328000D01*
D25*
X90170000Y-86737100D02*
X90170000Y-86381500D01*
X91697900Y-88265000D02*
X90170000Y-86737100D01*
X92521000Y-88265000D02*
X91697900Y-88265000D01*
D24*
X97471000Y-88265000D02*
X97471000Y-86995000D01*
D25*
X94107000Y-73152000D02*
X93980000Y-73279000D01*
D24*
X95863500Y-73152000D02*
X94107000Y-73152000D01*
D25*
X80518000Y-84328000D02*
X80518000Y-80264000D01*
X84349500Y-85090000D02*
X81280000Y-85090000D01*
X90710500Y-90805000D02*
X87260000Y-87354500D01*
X81280000Y-85090000D02*
X80518000Y-84328000D01*
X87260000Y-87354500D02*
X86614000Y-87354500D01*
X80518000Y-80264000D02*
X82042000Y-78740000D01*
X92521000Y-90805000D02*
X90710500Y-90805000D01*
X86614000Y-87354500D02*
X84349500Y-85090000D01*
X85852000Y-75438000D02*
X86019996Y-75438000D01*
X82042000Y-81280000D02*
X84582000Y-78740000D01*
X84582000Y-78740000D02*
X84582000Y-76708000D01*
X84582000Y-76708000D02*
X85852000Y-75438000D01*
X82042000Y-83820000D02*
X85351173Y-83820000D01*
X85351173Y-83820000D02*
X91066173Y-89535000D01*
X91066173Y-89535000D02*
X92521000Y-89535000D01*
D24*
X82042000Y-75946000D02*
X85344000Y-72644000D01*
X82042000Y-76200000D02*
X82042000Y-75946000D01*
X91525996Y-72644000D02*
X94319996Y-75438000D01*
X85344000Y-72644000D02*
X91525996Y-72644000D01*
X103759000Y-90805000D02*
X97471000Y-90805000D01*
X108712000Y-85852000D02*
X103759000Y-90805000D01*
X97471000Y-90805000D02*
X97471000Y-89535000D01*
X95183996Y-77114000D02*
X97268000Y-77114000D01*
X97268000Y-77114000D02*
X97268000Y-73822500D01*
X94234000Y-78063996D02*
X94234000Y-81534000D01*
X94319996Y-77978000D02*
X95183996Y-77114000D01*
X94319996Y-77978000D02*
X94234000Y-78063996D01*
X97268000Y-73822500D02*
X97938500Y-73152000D01*
X101600000Y-85090000D02*
X101600000Y-87376000D01*
X99568000Y-73422000D02*
X99838000Y-73152000D01*
X99568000Y-83414000D02*
X99924000Y-83414000D01*
X99568000Y-77114000D02*
X99568000Y-73422000D01*
X99568000Y-77114000D02*
X99568000Y-83414000D01*
X102130000Y-80852000D02*
X99568000Y-83414000D01*
X99924000Y-83414000D02*
X101600000Y-85090000D01*
X108712000Y-80852000D02*
X102130000Y-80852000D01*
X101838000Y-73152000D02*
X103775000Y-73152000D01*
X102632000Y-74295000D02*
X102632000Y-76350000D01*
X102632000Y-76350000D02*
X101868000Y-77114000D01*
X103775000Y-73152000D02*
X102632000Y-74295000D01*
G04 #@! TA.AperFunction,Conductor*
G36*
X94909515Y-72020185D02*
G01*
X94955270Y-72072989D01*
X94965214Y-72142147D01*
X94940654Y-72195925D01*
X94941292Y-72196319D01*
X94938142Y-72201424D01*
X94936189Y-72205703D01*
X94934159Y-72207882D01*
X94841642Y-72357877D01*
X94786493Y-72524303D01*
X94776319Y-72623890D01*
X94776000Y-72630168D01*
X94776000Y-72902000D01*
X95989500Y-72902000D01*
X96056539Y-72921685D01*
X96102294Y-72974489D01*
X96113500Y-73026000D01*
X96113500Y-74376999D01*
X96247829Y-74376999D01*
X96254111Y-74376678D01*
X96367207Y-74365126D01*
X96367517Y-74368169D01*
X96416308Y-74366485D01*
X96476355Y-74402209D01*
X96507556Y-74464725D01*
X96509500Y-74486597D01*
X96509500Y-75489800D01*
X96489815Y-75556839D01*
X96437011Y-75602594D01*
X96423312Y-75606353D01*
X96423392Y-75606567D01*
X96271796Y-75663110D01*
X96154738Y-75750738D01*
X96067110Y-75867796D01*
X96016011Y-76004794D01*
X96014404Y-76019744D01*
X96009500Y-76065362D01*
X96009500Y-76068670D01*
X96009500Y-76068671D01*
X96009500Y-76231500D01*
X95989815Y-76298539D01*
X95937011Y-76344294D01*
X95885500Y-76355500D01*
X95812504Y-76355500D01*
X95745465Y-76335815D01*
X95699710Y-76283011D01*
X95689766Y-76213853D01*
X95702019Y-76175205D01*
X95724358Y-76131362D01*
X95741156Y-76068671D01*
X95772426Y-75951971D01*
X95778496Y-75874843D01*
X95778495Y-75001158D01*
X95772426Y-74924029D01*
X95724358Y-74744638D01*
X95640043Y-74579161D01*
X95607972Y-74539557D01*
X95581081Y-74475070D01*
X95593323Y-74406281D01*
X95613500Y-74378231D01*
X95613500Y-73402000D01*
X94776001Y-73402000D01*
X94776001Y-73673829D01*
X94776321Y-73680111D01*
X94786493Y-73779695D01*
X94841642Y-73946122D01*
X94868955Y-73990404D01*
X94887395Y-74057797D01*
X94866472Y-74124460D01*
X94812830Y-74169229D01*
X94763416Y-74179500D01*
X94185539Y-74179500D01*
X94118500Y-74159815D01*
X94097858Y-74143181D01*
X92166858Y-72212181D01*
X92133373Y-72150858D01*
X92138357Y-72081166D01*
X92180229Y-72025233D01*
X92245693Y-72000816D01*
X92254539Y-72000500D01*
X94842476Y-72000500D01*
X94909515Y-72020185D01*
G37*
G04 #@! TD.AperFunction*
G04 #@! TA.AperFunction,Conductor*
G36*
X114942539Y-72020185D02*
G01*
X114988294Y-72072989D01*
X114999500Y-72124500D01*
X114999500Y-94872000D01*
X114979815Y-94939039D01*
X114927011Y-94984794D01*
X114875500Y-94996000D01*
X80134000Y-94996000D01*
X80066961Y-94976315D01*
X80021206Y-94923511D01*
X80010000Y-94872000D01*
X80010000Y-93468000D01*
X82316000Y-93468000D01*
X82316000Y-94012518D01*
X82316354Y-94019132D01*
X82322400Y-94075371D01*
X82372647Y-94210089D01*
X82458811Y-94325188D01*
X82573910Y-94411352D01*
X82708628Y-94461599D01*
X82764867Y-94467645D01*
X82771482Y-94468000D01*
X83316000Y-94468000D01*
X83316000Y-93468000D01*
X83816000Y-93468000D01*
X83816000Y-94468000D01*
X84360518Y-94468000D01*
X84367132Y-94467645D01*
X84423371Y-94461599D01*
X84558089Y-94411352D01*
X84673188Y-94325188D01*
X84759352Y-94210089D01*
X84809599Y-94075371D01*
X84815645Y-94019132D01*
X84816000Y-94012518D01*
X84816000Y-93468000D01*
X83816000Y-93468000D01*
X83316000Y-93468000D01*
X82316000Y-93468000D01*
X80010000Y-93468000D01*
X80010000Y-92968000D01*
X82316000Y-92968000D01*
X83316000Y-92968000D01*
X83316000Y-91968000D01*
X83816000Y-91968000D01*
X83816000Y-92968000D01*
X84816000Y-92968000D01*
X84816000Y-92423481D01*
X84815645Y-92416867D01*
X84809599Y-92360628D01*
X84759352Y-92225910D01*
X84673188Y-92110811D01*
X84558089Y-92024647D01*
X84557250Y-92024334D01*
X109299500Y-92024334D01*
X109340429Y-92269615D01*
X109421170Y-92504805D01*
X109421172Y-92504810D01*
X109539526Y-92723509D01*
X109539529Y-92723514D01*
X109675036Y-92897612D01*
X109692262Y-92919744D01*
X109875215Y-93088164D01*
X110083393Y-93224173D01*
X110311119Y-93324063D01*
X110552179Y-93385108D01*
X110737933Y-93400500D01*
X110740503Y-93400500D01*
X110859497Y-93400500D01*
X110862067Y-93400500D01*
X111047821Y-93385108D01*
X111288881Y-93324063D01*
X111516607Y-93224173D01*
X111724785Y-93088164D01*
X111907738Y-92919744D01*
X112060474Y-92723509D01*
X112178828Y-92504810D01*
X112259571Y-92269614D01*
X112300500Y-92024335D01*
X112300500Y-91775665D01*
X112259571Y-91530386D01*
X112178828Y-91295190D01*
X112060474Y-91076491D01*
X112060471Y-91076487D01*
X112060470Y-91076485D01*
X111907740Y-90880259D01*
X111907738Y-90880256D01*
X111724785Y-90711836D01*
X111516607Y-90575827D01*
X111516604Y-90575825D01*
X111382493Y-90516999D01*
X111288881Y-90475937D01*
X111108867Y-90430351D01*
X111047822Y-90414892D01*
X111013854Y-90412077D01*
X110862067Y-90399500D01*
X110737933Y-90399500D01*
X110620111Y-90409262D01*
X110552177Y-90414892D01*
X110430087Y-90445810D01*
X110311119Y-90475937D01*
X110311116Y-90475938D01*
X110311117Y-90475938D01*
X110083395Y-90575825D01*
X109944607Y-90666499D01*
X109875215Y-90711836D01*
X109875213Y-90711837D01*
X109875214Y-90711837D01*
X109692259Y-90880259D01*
X109539529Y-91076485D01*
X109539526Y-91076491D01*
X109423300Y-91291259D01*
X109421170Y-91295194D01*
X109340429Y-91530384D01*
X109299500Y-91775665D01*
X109299500Y-92024334D01*
X84557250Y-92024334D01*
X84423371Y-91974400D01*
X84367132Y-91968354D01*
X84360518Y-91968000D01*
X83816000Y-91968000D01*
X83316000Y-91968000D01*
X82771482Y-91968000D01*
X82764867Y-91968354D01*
X82708628Y-91974400D01*
X82573910Y-92024647D01*
X82458811Y-92110811D01*
X82372647Y-92225910D01*
X82322400Y-92360628D01*
X82316354Y-92416867D01*
X82316000Y-92423481D01*
X82316000Y-92968000D01*
X80010000Y-92968000D01*
X80010000Y-85015266D01*
X80029685Y-84948227D01*
X80082489Y-84902472D01*
X80151647Y-84892528D01*
X80215203Y-84921553D01*
X80221681Y-84927585D01*
X80772909Y-85478813D01*
X80785958Y-85495100D01*
X80787999Y-85497016D01*
X80788000Y-85497018D01*
X80837685Y-85543675D01*
X80840449Y-85546354D01*
X80841387Y-85547292D01*
X80874872Y-85608615D01*
X80869888Y-85678307D01*
X80866088Y-85687378D01*
X80768569Y-85896506D01*
X80711364Y-86109999D01*
X80711364Y-86110000D01*
X81608314Y-86110000D01*
X81582507Y-86150156D01*
X81542000Y-86288111D01*
X81542000Y-86431889D01*
X81582507Y-86569844D01*
X81608314Y-86610000D01*
X80711364Y-86610000D01*
X80768569Y-86823492D01*
X80868399Y-87037576D01*
X81003893Y-87231081D01*
X81170918Y-87398106D01*
X81351802Y-87524763D01*
X81395426Y-87579340D01*
X81402619Y-87648839D01*
X81371097Y-87711193D01*
X81339698Y-87735392D01*
X81296422Y-87758812D01*
X81118760Y-87897094D01*
X80966279Y-88062730D01*
X80843138Y-88251211D01*
X80752705Y-88457381D01*
X80752704Y-88457384D01*
X80737143Y-88518834D01*
X80697435Y-88675636D01*
X80678843Y-88900000D01*
X80697435Y-89124363D01*
X80697435Y-89124366D01*
X80697436Y-89124368D01*
X80746596Y-89318498D01*
X80752705Y-89342618D01*
X80843138Y-89548788D01*
X80843140Y-89548791D01*
X80966278Y-89737268D01*
X81118760Y-89902906D01*
X81296424Y-90041189D01*
X81494426Y-90148342D01*
X81707365Y-90221444D01*
X81929431Y-90258500D01*
X82154569Y-90258500D01*
X82376635Y-90221444D01*
X82589574Y-90148342D01*
X82787576Y-90041189D01*
X82965240Y-89902906D01*
X83117722Y-89737268D01*
X83155464Y-89679500D01*
X85389001Y-89679500D01*
X85389001Y-89813829D01*
X85389321Y-89820111D01*
X85399493Y-89919695D01*
X85454642Y-90086122D01*
X85546683Y-90235345D01*
X85670654Y-90359316D01*
X85819877Y-90451357D01*
X85986303Y-90506506D01*
X86085890Y-90516680D01*
X86092168Y-90516999D01*
X86363999Y-90516999D01*
X86364000Y-90516998D01*
X86364000Y-89679500D01*
X86864000Y-89679500D01*
X86864000Y-90516999D01*
X87135829Y-90516999D01*
X87142111Y-90516678D01*
X87241695Y-90506506D01*
X87408122Y-90451357D01*
X87557345Y-90359316D01*
X87681316Y-90235345D01*
X87773357Y-90086122D01*
X87828506Y-89919696D01*
X87838680Y-89820109D01*
X87839000Y-89813831D01*
X87839000Y-89679500D01*
X86864000Y-89679500D01*
X86364000Y-89679500D01*
X85389001Y-89679500D01*
X83155464Y-89679500D01*
X83240860Y-89548791D01*
X83331296Y-89342616D01*
X83386564Y-89124368D01*
X83405156Y-88900000D01*
X83386564Y-88675632D01*
X83331296Y-88457384D01*
X83240860Y-88251209D01*
X83117722Y-88062732D01*
X82965240Y-87897094D01*
X82826956Y-87789462D01*
X82787575Y-87758810D01*
X82744302Y-87735392D01*
X82694712Y-87686172D01*
X82679605Y-87617955D01*
X82703776Y-87552400D01*
X82732198Y-87524763D01*
X82913078Y-87398109D01*
X83080106Y-87231081D01*
X83215600Y-87037576D01*
X83315430Y-86823492D01*
X83372636Y-86610000D01*
X82475686Y-86610000D01*
X82501493Y-86569844D01*
X82542000Y-86431889D01*
X82542000Y-86288111D01*
X82501493Y-86150156D01*
X82475686Y-86110000D01*
X83372636Y-86110000D01*
X83372635Y-86109999D01*
X83312623Y-85886030D01*
X83314817Y-85885441D01*
X83306523Y-85830825D01*
X83335044Y-85767041D01*
X83393522Y-85728803D01*
X83429397Y-85723500D01*
X84035734Y-85723500D01*
X84102773Y-85743185D01*
X84123415Y-85759819D01*
X85344181Y-86980585D01*
X85377666Y-87041908D01*
X85380500Y-87068266D01*
X85380500Y-87739395D01*
X85380500Y-87739414D01*
X85380501Y-87742544D01*
X85380820Y-87745675D01*
X85380821Y-87745678D01*
X85391112Y-87846425D01*
X85393887Y-87854799D01*
X85446885Y-88014738D01*
X85469217Y-88050943D01*
X85539971Y-88165654D01*
X85665345Y-88291028D01*
X85666034Y-88291453D01*
X85668396Y-88294079D01*
X85675596Y-88301279D01*
X85675214Y-88301660D01*
X85712760Y-88343401D01*
X85723983Y-88412363D01*
X85696140Y-88476445D01*
X85679296Y-88491041D01*
X85546683Y-88623654D01*
X85454642Y-88772877D01*
X85399493Y-88939303D01*
X85389319Y-89038890D01*
X85389000Y-89045168D01*
X85389000Y-89179500D01*
X87838999Y-89179500D01*
X87838999Y-89128765D01*
X87858684Y-89061726D01*
X87911488Y-89015971D01*
X87980646Y-89006027D01*
X88044202Y-89035052D01*
X88050676Y-89041080D01*
X89136298Y-90126703D01*
X90203412Y-91193817D01*
X90216456Y-91210098D01*
X90218499Y-91212016D01*
X90218500Y-91212018D01*
X90268184Y-91258674D01*
X90270948Y-91261353D01*
X90290730Y-91281135D01*
X90293806Y-91283521D01*
X90294003Y-91283674D01*
X90302872Y-91291249D01*
X90335179Y-91321586D01*
X90353064Y-91331418D01*
X90369325Y-91342099D01*
X90385459Y-91354614D01*
X90426125Y-91372210D01*
X90436612Y-91377348D01*
X90475440Y-91398695D01*
X90495208Y-91403770D01*
X90513619Y-91410073D01*
X90532355Y-91418181D01*
X90576126Y-91425113D01*
X90587541Y-91427477D01*
X90630470Y-91438500D01*
X90650884Y-91438500D01*
X90670283Y-91440027D01*
X90690443Y-91443220D01*
X90734556Y-91439050D01*
X90746226Y-91438500D01*
X91196877Y-91438500D01*
X91263916Y-91458185D01*
X91284558Y-91474819D01*
X91289191Y-91479452D01*
X91432399Y-91564145D01*
X91592165Y-91610561D01*
X91592169Y-91610562D01*
X91629498Y-91613500D01*
X91631943Y-91613500D01*
X93410057Y-91613500D01*
X93412502Y-91613500D01*
X93449831Y-91610562D01*
X93609601Y-91564145D01*
X93752807Y-91479453D01*
X93870453Y-91361807D01*
X93955145Y-91218601D01*
X94001562Y-91058831D01*
X94004500Y-91021502D01*
X95987500Y-91021502D01*
X95987690Y-91023923D01*
X95987691Y-91023934D01*
X95990438Y-91058834D01*
X96036854Y-91218600D01*
X96121547Y-91361808D01*
X96239191Y-91479452D01*
X96382399Y-91564145D01*
X96542165Y-91610561D01*
X96542169Y-91610562D01*
X96579498Y-91613500D01*
X96581943Y-91613500D01*
X98360057Y-91613500D01*
X98362502Y-91613500D01*
X98399831Y-91610562D01*
X98544875Y-91568423D01*
X98579470Y-91563500D01*
X103694706Y-91563500D01*
X103712676Y-91564809D01*
X103716114Y-91565312D01*
X103736789Y-91568341D01*
X103786726Y-91563971D01*
X103797533Y-91563500D01*
X103799571Y-91563500D01*
X103803180Y-91563500D01*
X103834370Y-91559853D01*
X103837851Y-91559498D01*
X103913426Y-91552887D01*
X103913429Y-91552885D01*
X103914594Y-91552784D01*
X103934015Y-91548478D01*
X103935110Y-91548079D01*
X103935113Y-91548079D01*
X104006414Y-91522126D01*
X104009708Y-91520981D01*
X104081738Y-91497114D01*
X104081742Y-91497111D01*
X104082863Y-91496740D01*
X104100751Y-91488080D01*
X104101732Y-91487435D01*
X104165103Y-91445753D01*
X104168129Y-91443826D01*
X104232651Y-91404030D01*
X104232655Y-91404025D01*
X104233650Y-91403412D01*
X104249069Y-91390853D01*
X104249870Y-91390003D01*
X104249874Y-91390001D01*
X104301962Y-91334789D01*
X104304408Y-91332271D01*
X107939861Y-87696819D01*
X108001185Y-87663334D01*
X108027543Y-87660500D01*
X110057328Y-87660500D01*
X110060638Y-87660500D01*
X110121201Y-87653989D01*
X110121203Y-87653988D01*
X110121205Y-87653988D01*
X110217811Y-87617955D01*
X110258204Y-87602889D01*
X110375261Y-87515261D01*
X110462889Y-87398204D01*
X110513989Y-87261201D01*
X110520500Y-87200638D01*
X110520500Y-84503362D01*
X110513989Y-84442799D01*
X110513988Y-84442797D01*
X110513988Y-84442794D01*
X110462889Y-84305796D01*
X110375261Y-84188738D01*
X110258203Y-84101110D01*
X110121205Y-84050011D01*
X110063924Y-84043853D01*
X110063918Y-84043852D01*
X110060638Y-84043500D01*
X107363362Y-84043500D01*
X107360082Y-84043852D01*
X107360075Y-84043853D01*
X107302794Y-84050011D01*
X107165796Y-84101110D01*
X107048738Y-84188738D01*
X106961110Y-84305796D01*
X106910011Y-84442794D01*
X106903853Y-84500075D01*
X106903500Y-84503362D01*
X106903499Y-84506652D01*
X106903499Y-84506671D01*
X106903499Y-86536456D01*
X106883814Y-86603496D01*
X106867180Y-86624137D01*
X103481138Y-90010181D01*
X103419815Y-90043666D01*
X103393457Y-90046500D01*
X99041855Y-90046500D01*
X98974816Y-90026815D01*
X98929061Y-89974011D01*
X98919117Y-89904853D01*
X98922779Y-89887905D01*
X98951561Y-89788834D01*
X98951560Y-89788834D01*
X98951562Y-89788831D01*
X98954500Y-89751502D01*
X98954500Y-89318498D01*
X98951562Y-89281169D01*
X98905145Y-89121399D01*
X98812479Y-88964709D01*
X98814134Y-88963729D01*
X98790446Y-88920347D01*
X98795430Y-88850655D01*
X98807866Y-88831316D01*
X98805709Y-88830040D01*
X98897280Y-88675200D01*
X98943099Y-88517488D01*
X98943295Y-88515000D01*
X95998704Y-88515000D01*
X95998900Y-88517488D01*
X96044719Y-88675200D01*
X96136291Y-88830040D01*
X96132311Y-88832393D01*
X96151553Y-88867631D01*
X96146569Y-88937323D01*
X96129122Y-88964474D01*
X96129521Y-88964710D01*
X96036854Y-89121399D01*
X95990438Y-89281165D01*
X95990438Y-89281169D01*
X95987500Y-89318498D01*
X95987500Y-89751502D01*
X95987690Y-89753923D01*
X95987691Y-89753934D01*
X95990438Y-89788834D01*
X96036854Y-89948600D01*
X96129521Y-90105291D01*
X96125802Y-90107490D01*
X96145543Y-90143642D01*
X96140559Y-90213334D01*
X96127565Y-90233552D01*
X96129521Y-90234709D01*
X96036854Y-90391399D01*
X95990438Y-90551165D01*
X95990438Y-90551169D01*
X95987500Y-90588498D01*
X95987500Y-91021502D01*
X94004500Y-91021502D01*
X94004500Y-90588498D01*
X94001562Y-90551169D01*
X93955145Y-90391399D01*
X93870453Y-90248193D01*
X93862479Y-90234709D01*
X93866197Y-90232509D01*
X93846464Y-90196396D01*
X93851427Y-90126703D01*
X93864441Y-90106451D01*
X93862479Y-90105291D01*
X93908889Y-90026815D01*
X93955145Y-89948601D01*
X94001562Y-89788831D01*
X94004500Y-89751502D01*
X94004500Y-89318498D01*
X94001562Y-89281169D01*
X93955145Y-89121399D01*
X93862479Y-88964709D01*
X93866197Y-88962509D01*
X93846464Y-88926396D01*
X93851427Y-88856703D01*
X93864441Y-88836451D01*
X93862479Y-88835291D01*
X93925080Y-88729438D01*
X93955145Y-88678601D01*
X94001562Y-88518831D01*
X94004500Y-88481502D01*
X94004500Y-88048498D01*
X94001562Y-88011169D01*
X93968420Y-87897094D01*
X93955145Y-87851399D01*
X93862479Y-87694709D01*
X93864134Y-87693729D01*
X93840446Y-87650347D01*
X93845430Y-87580655D01*
X93857866Y-87561316D01*
X93855709Y-87560040D01*
X93947280Y-87405200D01*
X93993099Y-87247488D01*
X93993295Y-87245000D01*
X95998704Y-87245000D01*
X95998900Y-87247488D01*
X96044719Y-87405200D01*
X96136291Y-87560040D01*
X96134374Y-87561173D01*
X96157564Y-87603642D01*
X96152580Y-87673334D01*
X96135695Y-87699608D01*
X96136291Y-87699961D01*
X96044719Y-87854799D01*
X95998900Y-88012511D01*
X95998704Y-88014999D01*
X95998705Y-88015000D01*
X97221000Y-88015000D01*
X97221000Y-87245000D01*
X97721000Y-87245000D01*
X97721000Y-88015000D01*
X98943295Y-88015000D01*
X98943295Y-88014999D01*
X98943099Y-88012511D01*
X98897280Y-87854799D01*
X98805709Y-87699961D01*
X98807625Y-87698827D01*
X98784435Y-87656358D01*
X98789419Y-87586666D01*
X98806305Y-87560392D01*
X98805709Y-87560040D01*
X98897280Y-87405200D01*
X98943099Y-87247488D01*
X98943295Y-87245000D01*
X97721000Y-87245000D01*
X97221000Y-87245000D01*
X95998704Y-87245000D01*
X93993295Y-87245000D01*
X92395000Y-87245000D01*
X92327961Y-87225315D01*
X92282206Y-87172511D01*
X92271000Y-87121000D01*
X92271000Y-86195000D01*
X92771000Y-86195000D01*
X92771000Y-86745000D01*
X93993295Y-86745000D01*
X93993295Y-86744999D01*
X95998704Y-86744999D01*
X95998705Y-86745000D01*
X97221000Y-86745000D01*
X97221000Y-86195000D01*
X97721000Y-86195000D01*
X97721000Y-86745000D01*
X98943295Y-86745000D01*
X98943295Y-86744999D01*
X98943099Y-86742511D01*
X98897280Y-86584799D01*
X98813682Y-86443442D01*
X98697557Y-86327317D01*
X98556197Y-86243717D01*
X98398493Y-86197900D01*
X98364076Y-86195191D01*
X98359197Y-86195000D01*
X97721000Y-86195000D01*
X97221000Y-86195000D01*
X96582803Y-86195000D01*
X96577923Y-86195191D01*
X96543506Y-86197900D01*
X96385802Y-86243717D01*
X96244442Y-86327317D01*
X96128317Y-86443442D01*
X96044719Y-86584799D01*
X95998900Y-86742511D01*
X95998704Y-86744999D01*
X93993295Y-86744999D01*
X93993099Y-86742511D01*
X93947280Y-86584799D01*
X93863682Y-86443442D01*
X93747557Y-86327317D01*
X93606197Y-86243717D01*
X93448493Y-86197900D01*
X93414076Y-86195191D01*
X93409197Y-86195000D01*
X92771000Y-86195000D01*
X92271000Y-86195000D01*
X91632803Y-86195000D01*
X91627923Y-86195191D01*
X91593507Y-86197900D01*
X91562092Y-86207027D01*
X91492223Y-86206826D01*
X91433553Y-86168884D01*
X91404711Y-86105245D01*
X91403499Y-86087950D01*
X91403499Y-85996604D01*
X91403499Y-85996602D01*
X91403499Y-85993456D01*
X91392887Y-85889574D01*
X91337115Y-85721262D01*
X91244030Y-85570348D01*
X91244029Y-85570347D01*
X91244028Y-85570345D01*
X91118651Y-85444968D01*
X91117963Y-85444544D01*
X91115601Y-85441918D01*
X91108404Y-85434721D01*
X91108784Y-85434340D01*
X91071238Y-85392596D01*
X91060017Y-85323633D01*
X91087860Y-85259551D01*
X91104708Y-85244953D01*
X91237316Y-85112345D01*
X91329357Y-84963122D01*
X91384506Y-84796696D01*
X91394680Y-84697109D01*
X91395000Y-84690831D01*
X91395000Y-84578000D01*
X91855001Y-84578000D01*
X91855001Y-84849829D01*
X91855321Y-84856111D01*
X91865493Y-84955695D01*
X91920642Y-85122122D01*
X92012683Y-85271345D01*
X92136654Y-85395316D01*
X92285877Y-85487357D01*
X92452303Y-85542506D01*
X92551890Y-85552680D01*
X92558168Y-85552999D01*
X92692499Y-85552999D01*
X92692500Y-85552998D01*
X92692500Y-84578000D01*
X91855001Y-84578000D01*
X91395000Y-84578000D01*
X91395000Y-84556500D01*
X88945001Y-84556500D01*
X88945001Y-84690829D01*
X88945321Y-84697111D01*
X88955493Y-84796695D01*
X89010642Y-84963122D01*
X89102683Y-85112345D01*
X89236904Y-85246566D01*
X89235278Y-85248191D01*
X89268759Y-85285412D01*
X89279983Y-85354375D01*
X89252141Y-85418458D01*
X89222040Y-85444542D01*
X89221348Y-85444968D01*
X89095971Y-85570345D01*
X89002884Y-85721263D01*
X88947112Y-85889573D01*
X88936819Y-85990324D01*
X88936818Y-85990341D01*
X88936500Y-85993455D01*
X88936500Y-85996602D01*
X88936500Y-86210060D01*
X88916815Y-86277099D01*
X88864011Y-86322854D01*
X88794853Y-86332798D01*
X88731297Y-86303773D01*
X88724819Y-86297741D01*
X86505078Y-84078000D01*
X91855000Y-84078000D01*
X92692500Y-84078000D01*
X92692500Y-83103000D01*
X92558171Y-83103000D01*
X92551888Y-83103321D01*
X92452304Y-83113493D01*
X92285877Y-83168642D01*
X92136654Y-83260683D01*
X92012683Y-83384654D01*
X91920642Y-83533877D01*
X91865493Y-83700303D01*
X91855319Y-83799890D01*
X91855000Y-83806168D01*
X91855000Y-84078000D01*
X86505078Y-84078000D01*
X86483578Y-84056500D01*
X88945000Y-84056500D01*
X89920000Y-84056500D01*
X89920000Y-83219000D01*
X90420000Y-83219000D01*
X90420000Y-84056500D01*
X91394999Y-84056500D01*
X91394999Y-83922170D01*
X91394678Y-83915888D01*
X91384506Y-83816304D01*
X91329357Y-83649877D01*
X91237316Y-83500654D01*
X91113345Y-83376683D01*
X90964122Y-83284642D01*
X90797696Y-83229493D01*
X90698109Y-83219319D01*
X90691832Y-83219000D01*
X90420000Y-83219000D01*
X89920000Y-83219000D01*
X89648171Y-83219000D01*
X89641888Y-83219321D01*
X89542304Y-83229493D01*
X89375877Y-83284642D01*
X89226654Y-83376683D01*
X89102683Y-83500654D01*
X89010642Y-83649877D01*
X88955493Y-83816303D01*
X88945319Y-83915890D01*
X88945000Y-83922168D01*
X88945000Y-84056500D01*
X86483578Y-84056500D01*
X85858261Y-83431183D01*
X85845217Y-83414902D01*
X85843173Y-83412983D01*
X85843173Y-83412982D01*
X85793488Y-83366325D01*
X85790723Y-83363645D01*
X85773700Y-83346622D01*
X85770943Y-83343865D01*
X85767659Y-83341317D01*
X85758796Y-83333746D01*
X85726494Y-83303414D01*
X85708606Y-83293580D01*
X85692342Y-83282896D01*
X85676213Y-83270385D01*
X85635550Y-83252789D01*
X85625056Y-83247648D01*
X85586235Y-83226305D01*
X85574559Y-83223307D01*
X85566457Y-83221227D01*
X85548052Y-83214926D01*
X85529318Y-83206819D01*
X85529316Y-83206818D01*
X85529315Y-83206818D01*
X85485556Y-83199887D01*
X85474116Y-83197518D01*
X85431204Y-83186500D01*
X85431203Y-83186500D01*
X85410789Y-83186500D01*
X85391390Y-83184973D01*
X85371231Y-83181780D01*
X85371230Y-83181780D01*
X85338491Y-83184874D01*
X85327116Y-83185950D01*
X85315447Y-83186500D01*
X83317956Y-83186500D01*
X83250917Y-83166815D01*
X83214147Y-83130321D01*
X83117723Y-82982732D01*
X83028196Y-82885482D01*
X82965240Y-82817094D01*
X82787576Y-82678811D01*
X82751067Y-82659053D01*
X82701478Y-82609836D01*
X82686370Y-82541619D01*
X82710540Y-82476063D01*
X82751067Y-82440946D01*
X82787576Y-82421189D01*
X82965240Y-82282906D01*
X83117722Y-82117268D01*
X83240860Y-81928791D01*
X83331296Y-81722616D01*
X83386564Y-81504368D01*
X83405156Y-81280000D01*
X83386564Y-81055632D01*
X83358538Y-80944960D01*
X83361162Y-80875142D01*
X83391060Y-80826842D01*
X84970816Y-79247086D01*
X84987097Y-79234044D01*
X84989014Y-79232002D01*
X84989018Y-79232000D01*
X85008332Y-79211431D01*
X85068570Y-79176037D01*
X85128651Y-79175980D01*
X85326176Y-79225103D01*
X85366804Y-79227858D01*
X85370996Y-79228000D01*
X86668996Y-79228000D01*
X86673187Y-79227858D01*
X86713819Y-79225103D01*
X86873766Y-79185323D01*
X85754124Y-78065681D01*
X85720639Y-78004358D01*
X85722524Y-77978000D01*
X86373548Y-77978000D01*
X87285788Y-78890240D01*
X87285789Y-78890239D01*
X87336603Y-78827026D01*
X87421164Y-78656523D01*
X87467099Y-78471819D01*
X87469854Y-78431191D01*
X87469996Y-78427000D01*
X87469996Y-77528999D01*
X87469854Y-77524808D01*
X87467099Y-77484180D01*
X87421164Y-77299478D01*
X87336602Y-77128972D01*
X87285789Y-77065759D01*
X86373548Y-77977999D01*
X86373548Y-77978000D01*
X85722524Y-77978000D01*
X85725623Y-77934666D01*
X85754124Y-77890319D01*
X86019996Y-77624447D01*
X86874630Y-76769810D01*
X86875607Y-76703724D01*
X86914246Y-76645510D01*
X86937756Y-76629930D01*
X87078835Y-76558047D01*
X87223166Y-76441170D01*
X87340043Y-76296839D01*
X87424358Y-76131362D01*
X87472426Y-75951971D01*
X87478496Y-75874843D01*
X87478495Y-75001158D01*
X87472426Y-74924029D01*
X87424358Y-74744638D01*
X87340043Y-74579161D01*
X87223166Y-74434830D01*
X87078835Y-74317953D01*
X86913358Y-74233637D01*
X86766607Y-74194316D01*
X86733967Y-74185570D01*
X86724713Y-74184841D01*
X86659273Y-74179691D01*
X86659258Y-74179690D01*
X86656839Y-74179500D01*
X86654393Y-74179500D01*
X85385575Y-74179500D01*
X85385549Y-74179500D01*
X85383154Y-74179501D01*
X85380763Y-74179689D01*
X85380741Y-74179690D01*
X85306024Y-74185570D01*
X85164390Y-74223520D01*
X85094540Y-74221857D01*
X85036678Y-74182694D01*
X85009174Y-74118465D01*
X85020761Y-74049563D01*
X85044613Y-74016067D01*
X85621861Y-73438819D01*
X85683185Y-73405334D01*
X85709543Y-73402500D01*
X91160453Y-73402500D01*
X91227492Y-73422185D01*
X91248134Y-73438819D01*
X92825177Y-75015862D01*
X92858662Y-75077185D01*
X92861496Y-75103543D01*
X92861496Y-75872420D01*
X92861496Y-75872445D01*
X92861497Y-75874842D01*
X92861685Y-75877233D01*
X92861686Y-75877254D01*
X92867566Y-75951971D01*
X92915633Y-76131361D01*
X92984785Y-76267078D01*
X92999949Y-76296839D01*
X93116826Y-76441170D01*
X93261157Y-76558047D01*
X93338617Y-76597514D01*
X93389413Y-76645488D01*
X93406208Y-76713309D01*
X93383671Y-76779444D01*
X93338618Y-76818483D01*
X93261159Y-76857951D01*
X93116826Y-76974830D01*
X92999949Y-77119160D01*
X92915633Y-77284637D01*
X92867566Y-77464029D01*
X92861687Y-77538722D01*
X92861686Y-77538738D01*
X92861496Y-77541157D01*
X92861496Y-77543601D01*
X92861496Y-77543602D01*
X92861496Y-78412420D01*
X92861496Y-78412445D01*
X92861497Y-78414842D01*
X92861685Y-78417233D01*
X92861686Y-78417254D01*
X92867566Y-78491971D01*
X92915633Y-78671361D01*
X92986413Y-78810274D01*
X92999949Y-78836839D01*
X93116826Y-78981170D01*
X93261157Y-79098047D01*
X93407797Y-79172764D01*
X93458591Y-79220736D01*
X93475500Y-79283247D01*
X93475500Y-80159800D01*
X93455815Y-80226839D01*
X93403011Y-80272594D01*
X93389312Y-80276353D01*
X93389392Y-80276567D01*
X93237796Y-80333110D01*
X93120738Y-80420738D01*
X93033110Y-80537796D01*
X92982011Y-80674794D01*
X92975853Y-80732075D01*
X92975500Y-80735362D01*
X92975500Y-82332638D01*
X92975852Y-82335918D01*
X92975853Y-82335924D01*
X92982011Y-82393205D01*
X93033110Y-82530203D01*
X93120738Y-82647261D01*
X93237796Y-82734889D01*
X93374794Y-82785988D01*
X93374797Y-82785988D01*
X93374799Y-82785989D01*
X93435362Y-82792500D01*
X93438672Y-82792500D01*
X95029328Y-82792500D01*
X95032638Y-82792500D01*
X95093201Y-82785989D01*
X95186899Y-82751040D01*
X95256590Y-82746055D01*
X95317913Y-82779540D01*
X95351399Y-82840862D01*
X95346415Y-82910554D01*
X95317914Y-82954903D01*
X95214636Y-83058181D01*
X95153313Y-83091666D01*
X95126955Y-83094500D01*
X94632604Y-83094500D01*
X94632584Y-83094500D01*
X94629456Y-83094501D01*
X94626325Y-83094820D01*
X94626321Y-83094821D01*
X94525574Y-83105112D01*
X94357263Y-83160884D01*
X94206345Y-83253971D01*
X94080968Y-83379348D01*
X94080542Y-83380040D01*
X94077908Y-83382408D01*
X94070721Y-83389596D01*
X94070340Y-83389215D01*
X94028592Y-83426763D01*
X93959629Y-83437982D01*
X93895548Y-83410136D01*
X93880953Y-83393291D01*
X93748345Y-83260683D01*
X93599122Y-83168642D01*
X93432696Y-83113493D01*
X93333109Y-83103319D01*
X93326832Y-83103000D01*
X93192500Y-83103000D01*
X93192500Y-85552999D01*
X93326829Y-85552999D01*
X93333111Y-85552678D01*
X93432695Y-85542506D01*
X93599122Y-85487357D01*
X93748345Y-85395316D01*
X93882566Y-85261096D01*
X93884191Y-85262721D01*
X93921406Y-85229243D01*
X93990368Y-85218015D01*
X94054452Y-85245853D01*
X94080544Y-85275963D01*
X94080968Y-85276651D01*
X94206345Y-85402028D01*
X94206347Y-85402029D01*
X94206348Y-85402030D01*
X94357262Y-85495115D01*
X94441417Y-85523001D01*
X94525573Y-85550887D01*
X94546246Y-85552999D01*
X94629455Y-85561500D01*
X95405544Y-85561499D01*
X95509426Y-85550887D01*
X95677738Y-85495115D01*
X95828652Y-85402030D01*
X95954030Y-85276652D01*
X96047115Y-85125738D01*
X96102887Y-84957426D01*
X96113500Y-84853545D01*
X96113499Y-84356043D01*
X96133183Y-84289005D01*
X96149818Y-84268362D01*
X96209363Y-84208818D01*
X96270687Y-84175334D01*
X96297044Y-84172500D01*
X97035500Y-84172500D01*
X97102539Y-84192185D01*
X97148294Y-84244989D01*
X97159500Y-84296500D01*
X97159500Y-84462638D01*
X97159852Y-84465918D01*
X97159853Y-84465924D01*
X97166011Y-84523205D01*
X97217110Y-84660203D01*
X97304738Y-84777261D01*
X97421796Y-84864889D01*
X97558794Y-84915988D01*
X97558797Y-84915988D01*
X97558799Y-84915989D01*
X97619362Y-84922500D01*
X100308457Y-84922500D01*
X100375496Y-84942185D01*
X100396138Y-84958819D01*
X100805181Y-85367861D01*
X100838666Y-85429184D01*
X100841500Y-85455542D01*
X100841500Y-86001800D01*
X100821815Y-86068839D01*
X100769011Y-86114594D01*
X100755312Y-86118353D01*
X100755392Y-86118567D01*
X100603796Y-86175110D01*
X100486738Y-86262738D01*
X100399110Y-86379796D01*
X100348011Y-86516794D01*
X100342308Y-86569844D01*
X100341500Y-86577362D01*
X100341500Y-88174638D01*
X100341852Y-88177918D01*
X100341853Y-88177924D01*
X100348011Y-88235205D01*
X100399110Y-88372203D01*
X100486738Y-88489261D01*
X100603796Y-88576889D01*
X100740794Y-88627988D01*
X100740797Y-88627988D01*
X100740799Y-88627989D01*
X100801362Y-88634500D01*
X100804672Y-88634500D01*
X102395328Y-88634500D01*
X102398638Y-88634500D01*
X102459201Y-88627989D01*
X102459203Y-88627988D01*
X102459205Y-88627988D01*
X102537124Y-88598924D01*
X102596204Y-88576889D01*
X102713261Y-88489261D01*
X102800889Y-88372204D01*
X102827343Y-88301279D01*
X102851988Y-88235205D01*
X102851988Y-88235203D01*
X102851989Y-88235201D01*
X102858500Y-88174638D01*
X102858500Y-86577362D01*
X102851989Y-86516799D01*
X102851988Y-86516797D01*
X102851988Y-86516794D01*
X102800889Y-86379796D01*
X102713261Y-86262738D01*
X102596203Y-86175110D01*
X102444608Y-86118567D01*
X102445797Y-86115378D01*
X102404678Y-86098338D01*
X102364839Y-86040939D01*
X102358500Y-86001800D01*
X102358500Y-85606586D01*
X102358500Y-85154280D01*
X102359809Y-85136321D01*
X102363341Y-85112211D01*
X102358971Y-85062273D01*
X102358500Y-85051467D01*
X102358500Y-85049429D01*
X102358500Y-85045820D01*
X102354862Y-85014700D01*
X102354495Y-85011108D01*
X102347785Y-84934408D01*
X102343481Y-84914994D01*
X102343079Y-84913890D01*
X102343079Y-84913887D01*
X102317120Y-84842566D01*
X102315981Y-84839290D01*
X102292114Y-84767262D01*
X102292113Y-84767261D01*
X102291742Y-84766140D01*
X102283078Y-84748245D01*
X102240754Y-84683895D01*
X102238815Y-84680852D01*
X102198412Y-84615347D01*
X102185849Y-84599925D01*
X102129826Y-84547071D01*
X102127238Y-84544557D01*
X102012819Y-84430138D01*
X101979334Y-84368815D01*
X101976500Y-84342457D01*
X101976500Y-82368671D01*
X101976499Y-82368670D01*
X101976500Y-82365362D01*
X101969989Y-82304799D01*
X101938042Y-82219149D01*
X101933059Y-82149459D01*
X101966540Y-82088139D01*
X102407861Y-81646819D01*
X102469185Y-81613334D01*
X102495543Y-81610500D01*
X106990053Y-81610500D01*
X107057092Y-81630185D01*
X107097440Y-81672500D01*
X107213557Y-81873621D01*
X107382558Y-82085542D01*
X107581257Y-82269907D01*
X107805215Y-82422599D01*
X108049428Y-82540206D01*
X108238540Y-82598539D01*
X108308442Y-82620101D01*
X108576471Y-82660500D01*
X108576472Y-82660500D01*
X108847529Y-82660500D01*
X108981543Y-82640300D01*
X109115558Y-82620101D01*
X109374572Y-82540206D01*
X109618786Y-82422599D01*
X109842743Y-82269907D01*
X109842746Y-82269903D01*
X109842749Y-82269902D01*
X109972519Y-82149493D01*
X110041442Y-82085542D01*
X110210443Y-81873621D01*
X110345971Y-81638879D01*
X110444999Y-81386559D01*
X110505315Y-81122299D01*
X110525571Y-80852000D01*
X110505315Y-80581701D01*
X110444999Y-80317441D01*
X110428538Y-80275500D01*
X110403319Y-80211241D01*
X110345971Y-80065121D01*
X110210443Y-79830379D01*
X110041442Y-79618458D01*
X110006006Y-79585578D01*
X109842749Y-79434097D01*
X109824859Y-79421900D01*
X109618786Y-79281401D01*
X109374572Y-79163794D01*
X109294676Y-79139149D01*
X109115557Y-79083898D01*
X108847529Y-79043500D01*
X108847528Y-79043500D01*
X108576472Y-79043500D01*
X108576471Y-79043500D01*
X108308442Y-79083898D01*
X108049428Y-79163794D01*
X107805217Y-79281399D01*
X107581255Y-79434094D01*
X107382558Y-79618458D01*
X107213556Y-79830380D01*
X107097440Y-80031500D01*
X107046873Y-80079716D01*
X106990053Y-80093500D01*
X102194294Y-80093500D01*
X102176324Y-80092191D01*
X102163501Y-80090312D01*
X102152211Y-80088659D01*
X102152210Y-80088659D01*
X102102274Y-80093028D01*
X102091467Y-80093500D01*
X102085820Y-80093500D01*
X102082261Y-80093915D01*
X102082243Y-80093917D01*
X102054678Y-80097139D01*
X102051093Y-80097505D01*
X101974410Y-80104214D01*
X101954989Y-80108519D01*
X101882604Y-80134864D01*
X101879224Y-80136038D01*
X101847680Y-80146491D01*
X101806156Y-80160252D01*
X101788239Y-80168925D01*
X101723901Y-80211241D01*
X101720861Y-80213178D01*
X101655359Y-80253580D01*
X101639916Y-80266160D01*
X101587052Y-80322191D01*
X101584541Y-80324776D01*
X100538181Y-81371136D01*
X100476858Y-81404621D01*
X100407166Y-81399637D01*
X100351233Y-81357765D01*
X100326816Y-81292301D01*
X100326500Y-81283455D01*
X100326500Y-78738199D01*
X100346185Y-78671160D01*
X100398989Y-78625405D01*
X100412687Y-78621646D01*
X100412608Y-78621433D01*
X100524093Y-78579849D01*
X100564204Y-78564889D01*
X100643690Y-78505386D01*
X100709152Y-78480969D01*
X100777425Y-78495820D01*
X100792309Y-78505386D01*
X100871796Y-78564889D01*
X101008794Y-78615988D01*
X101008797Y-78615988D01*
X101008799Y-78615989D01*
X101069362Y-78622500D01*
X101072672Y-78622500D01*
X102663328Y-78622500D01*
X102666638Y-78622500D01*
X102727201Y-78615989D01*
X102727203Y-78615988D01*
X102727205Y-78615988D01*
X102805124Y-78586924D01*
X102864204Y-78564889D01*
X102981261Y-78477261D01*
X103068889Y-78360204D01*
X103119989Y-78223201D01*
X103126500Y-78162638D01*
X103126500Y-76985827D01*
X103146185Y-76918788D01*
X103155509Y-76906123D01*
X103188273Y-76867075D01*
X103195594Y-76859087D01*
X103196210Y-76858469D01*
X103199580Y-76855101D01*
X103219049Y-76830477D01*
X103221250Y-76827774D01*
X103270032Y-76769640D01*
X103270033Y-76769636D01*
X103270791Y-76768734D01*
X103281468Y-76751975D01*
X103281965Y-76750907D01*
X103281967Y-76750906D01*
X103314040Y-76682121D01*
X103315538Y-76679026D01*
X103349609Y-76611188D01*
X103349610Y-76611180D01*
X103350140Y-76610127D01*
X103356662Y-76591363D01*
X103356900Y-76590210D01*
X103356902Y-76590206D01*
X103372251Y-76515865D01*
X103372996Y-76512503D01*
X103390500Y-76438656D01*
X103390500Y-76438651D01*
X103390770Y-76437512D01*
X103392791Y-76417730D01*
X103392757Y-76416562D01*
X103392758Y-76416558D01*
X103390552Y-76340741D01*
X103390500Y-76337135D01*
X103390500Y-75124334D01*
X109499500Y-75124334D01*
X109540429Y-75369615D01*
X109617562Y-75594294D01*
X109621172Y-75604810D01*
X109700145Y-75750739D01*
X109739529Y-75823514D01*
X109781357Y-75877254D01*
X109892262Y-76019744D01*
X110075215Y-76188164D01*
X110283393Y-76324173D01*
X110511119Y-76424063D01*
X110752179Y-76485108D01*
X110937933Y-76500500D01*
X110940503Y-76500500D01*
X111059497Y-76500500D01*
X111062067Y-76500500D01*
X111247821Y-76485108D01*
X111488881Y-76424063D01*
X111716607Y-76324173D01*
X111924785Y-76188164D01*
X112107738Y-76019744D01*
X112260474Y-75823509D01*
X112378828Y-75604810D01*
X112459571Y-75369614D01*
X112500500Y-75124335D01*
X112500500Y-74875665D01*
X112459571Y-74630386D01*
X112378828Y-74395190D01*
X112260474Y-74176491D01*
X112260471Y-74176487D01*
X112260470Y-74176485D01*
X112158650Y-74045667D01*
X112107738Y-73980256D01*
X111924785Y-73811836D01*
X111716607Y-73675827D01*
X111716604Y-73675825D01*
X111591523Y-73620960D01*
X111488881Y-73575937D01*
X111308867Y-73530351D01*
X111247822Y-73514892D01*
X111213854Y-73512077D01*
X111062067Y-73499500D01*
X110937933Y-73499500D01*
X110820111Y-73509262D01*
X110752177Y-73514892D01*
X110630087Y-73545810D01*
X110511119Y-73575937D01*
X110511116Y-73575938D01*
X110511117Y-73575938D01*
X110283395Y-73675825D01*
X110144607Y-73766499D01*
X110075215Y-73811836D01*
X109929342Y-73946122D01*
X109892259Y-73980259D01*
X109739529Y-74176485D01*
X109680069Y-74286357D01*
X109629294Y-74380183D01*
X109621170Y-74395194D01*
X109540429Y-74630384D01*
X109499500Y-74875665D01*
X109499500Y-75124334D01*
X103390500Y-75124334D01*
X103390500Y-74660542D01*
X103410185Y-74593503D01*
X103426815Y-74572865D01*
X103602862Y-74396817D01*
X103664185Y-74363333D01*
X103690543Y-74360499D01*
X104172395Y-74360499D01*
X104175544Y-74360499D01*
X104279426Y-74349887D01*
X104447738Y-74294115D01*
X104598652Y-74201030D01*
X104693330Y-74106351D01*
X104754651Y-74072868D01*
X104824343Y-74077852D01*
X104868691Y-74106353D01*
X104956654Y-74194316D01*
X105105877Y-74286357D01*
X105272303Y-74341506D01*
X105371890Y-74351680D01*
X105378168Y-74351999D01*
X105524999Y-74351999D01*
X105525000Y-74351998D01*
X105525000Y-73402000D01*
X106025000Y-73402000D01*
X106025000Y-74351999D01*
X106171829Y-74351999D01*
X106178111Y-74351678D01*
X106277695Y-74341506D01*
X106444122Y-74286357D01*
X106593345Y-74194316D01*
X106717316Y-74070345D01*
X106809357Y-73921122D01*
X106864506Y-73754696D01*
X106874680Y-73655109D01*
X106875000Y-73648831D01*
X106875000Y-73402000D01*
X106025000Y-73402000D01*
X105525000Y-73402000D01*
X105525000Y-73026000D01*
X105544685Y-72958961D01*
X105597489Y-72913206D01*
X105649000Y-72902000D01*
X106874998Y-72902000D01*
X106874999Y-72655170D01*
X106874678Y-72648888D01*
X106864506Y-72549304D01*
X106809357Y-72382877D01*
X106717316Y-72233654D01*
X106695843Y-72212181D01*
X106662358Y-72150858D01*
X106667342Y-72081166D01*
X106709214Y-72025233D01*
X106774678Y-72000816D01*
X106783524Y-72000500D01*
X114875500Y-72000500D01*
X114942539Y-72020185D01*
G37*
G04 #@! TD.AperFunction*
M02*
