G04 #@! TF.GenerationSoftware,KiCad,Pcbnew,7.0.2*
G04 #@! TF.CreationDate,2023-05-22T14:58:51+02:00*
G04 #@! TF.ProjectId,relaismsofet correctie,72656c61-6973-46d7-936f-66657420636f,rev?*
G04 #@! TF.SameCoordinates,Original*
G04 #@! TF.FileFunction,Legend,Top*
G04 #@! TF.FilePolarity,Positive*
%FSLAX46Y46*%
G04 Gerber Fmt 4.6, Leading zero omitted, Abs format (unit mm)*
G04 Created by KiCad (PCBNEW 7.0.2) date 2023-05-22 14:58:51*
%MOMM*%
%LPD*%
G01*
G04 APERTURE LIST*
G04 Aperture macros list*
%AMRoundRect*
0 Rectangle with rounded corners*
0 $1 Rounding radius*
0 $2 $3 $4 $5 $6 $7 $8 $9 X,Y pos of 4 corners*
0 Add a 4 corners polygon primitive as box body*
4,1,4,$2,$3,$4,$5,$6,$7,$8,$9,$2,$3,0*
0 Add four circle primitives for the rounded corners*
1,1,$1+$1,$2,$3*
1,1,$1+$1,$4,$5*
1,1,$1+$1,$6,$7*
1,1,$1+$1,$8,$9*
0 Add four rect primitives between the rounded corners*
20,1,$1+$1,$2,$3,$4,$5,0*
20,1,$1+$1,$4,$5,$6,$7,0*
20,1,$1+$1,$6,$7,$8,$9,0*
20,1,$1+$1,$8,$9,$2,$3,0*%
G04 Aperture macros list end*
%ADD10C,0.200000*%
%ADD11C,0.150000*%
%ADD12C,0.120000*%
%ADD13C,0.127000*%
%ADD14R,1.000000X1.500000*%
%ADD15RoundRect,0.375000X0.575000X0.375000X-0.575000X0.375000X-0.575000X-0.375000X0.575000X-0.375000X0*%
%ADD16C,2.500000*%
%ADD17RoundRect,0.041300X-0.643700X-0.253700X0.643700X-0.253700X0.643700X0.253700X-0.643700X0.253700X0*%
%ADD18RoundRect,0.250000X-0.450000X0.350000X-0.450000X-0.350000X0.450000X-0.350000X0.450000X0.350000X0*%
%ADD19RoundRect,0.250000X0.475000X-0.337500X0.475000X0.337500X-0.475000X0.337500X-0.475000X-0.337500X0*%
%ADD20C,1.100000*%
%ADD21R,2.200000X2.200000*%
%ADD22C,2.200000*%
%ADD23RoundRect,0.250000X-0.475000X0.337500X-0.475000X-0.337500X0.475000X-0.337500X0.475000X0.337500X0*%
%ADD24RoundRect,0.150000X0.825000X0.150000X-0.825000X0.150000X-0.825000X-0.150000X0.825000X-0.150000X0*%
%ADD25R,1.700000X1.700000*%
%ADD26O,1.700000X1.700000*%
G04 APERTURE END LIST*
D10*
X114652095Y-85195238D02*
X114614000Y-85271428D01*
X114614000Y-85271428D02*
X114537809Y-85309523D01*
X114537809Y-85309523D02*
X113852095Y-85309523D01*
X114614000Y-84585713D02*
X114652095Y-84661904D01*
X114652095Y-84661904D02*
X114652095Y-84814285D01*
X114652095Y-84814285D02*
X114614000Y-84890475D01*
X114614000Y-84890475D02*
X114537809Y-84928571D01*
X114537809Y-84928571D02*
X114233047Y-84928571D01*
X114233047Y-84928571D02*
X114156857Y-84890475D01*
X114156857Y-84890475D02*
X114118761Y-84814285D01*
X114118761Y-84814285D02*
X114118761Y-84661904D01*
X114118761Y-84661904D02*
X114156857Y-84585713D01*
X114156857Y-84585713D02*
X114233047Y-84547618D01*
X114233047Y-84547618D02*
X114309238Y-84547618D01*
X114309238Y-84547618D02*
X114385428Y-84928571D01*
X114652095Y-83861904D02*
X113852095Y-83861904D01*
X114614000Y-83861904D02*
X114652095Y-83938095D01*
X114652095Y-83938095D02*
X114652095Y-84090476D01*
X114652095Y-84090476D02*
X114614000Y-84166666D01*
X114614000Y-84166666D02*
X114575904Y-84204761D01*
X114575904Y-84204761D02*
X114499714Y-84242857D01*
X114499714Y-84242857D02*
X114271142Y-84242857D01*
X114271142Y-84242857D02*
X114194952Y-84204761D01*
X114194952Y-84204761D02*
X114156857Y-84166666D01*
X114156857Y-84166666D02*
X114118761Y-84090476D01*
X114118761Y-84090476D02*
X114118761Y-83938095D01*
X114118761Y-83938095D02*
X114156857Y-83861904D01*
X114347333Y-82871427D02*
X114347333Y-82261904D01*
X114652095Y-80470238D02*
X114614000Y-80546428D01*
X114614000Y-80546428D02*
X114537809Y-80584523D01*
X114537809Y-80584523D02*
X113852095Y-80584523D01*
X114614000Y-79860713D02*
X114652095Y-79936904D01*
X114652095Y-79936904D02*
X114652095Y-80089285D01*
X114652095Y-80089285D02*
X114614000Y-80165475D01*
X114614000Y-80165475D02*
X114537809Y-80203571D01*
X114537809Y-80203571D02*
X114233047Y-80203571D01*
X114233047Y-80203571D02*
X114156857Y-80165475D01*
X114156857Y-80165475D02*
X114118761Y-80089285D01*
X114118761Y-80089285D02*
X114118761Y-79936904D01*
X114118761Y-79936904D02*
X114156857Y-79860713D01*
X114156857Y-79860713D02*
X114233047Y-79822618D01*
X114233047Y-79822618D02*
X114309238Y-79822618D01*
X114309238Y-79822618D02*
X114385428Y-80203571D01*
X114652095Y-79136904D02*
X113852095Y-79136904D01*
X114614000Y-79136904D02*
X114652095Y-79213095D01*
X114652095Y-79213095D02*
X114652095Y-79365476D01*
X114652095Y-79365476D02*
X114614000Y-79441666D01*
X114614000Y-79441666D02*
X114575904Y-79479761D01*
X114575904Y-79479761D02*
X114499714Y-79517857D01*
X114499714Y-79517857D02*
X114271142Y-79517857D01*
X114271142Y-79517857D02*
X114194952Y-79479761D01*
X114194952Y-79479761D02*
X114156857Y-79441666D01*
X114156857Y-79441666D02*
X114118761Y-79365476D01*
X114118761Y-79365476D02*
X114118761Y-79213095D01*
X114118761Y-79213095D02*
X114156857Y-79136904D01*
X114347333Y-78146427D02*
X114347333Y-77536904D01*
X114652095Y-77841665D02*
X114042571Y-77841665D01*
D11*
X99716666Y-87537619D02*
X99716666Y-88251904D01*
X99716666Y-88251904D02*
X99669047Y-88394761D01*
X99669047Y-88394761D02*
X99573809Y-88490000D01*
X99573809Y-88490000D02*
X99430952Y-88537619D01*
X99430952Y-88537619D02*
X99335714Y-88537619D01*
X100192857Y-88537619D02*
X100192857Y-87537619D01*
X100192857Y-87537619D02*
X100573809Y-87537619D01*
X100573809Y-87537619D02*
X100669047Y-87585238D01*
X100669047Y-87585238D02*
X100716666Y-87632857D01*
X100716666Y-87632857D02*
X100764285Y-87728095D01*
X100764285Y-87728095D02*
X100764285Y-87870952D01*
X100764285Y-87870952D02*
X100716666Y-87966190D01*
X100716666Y-87966190D02*
X100669047Y-88013809D01*
X100669047Y-88013809D02*
X100573809Y-88061428D01*
X100573809Y-88061428D02*
X100192857Y-88061428D01*
X101145238Y-87632857D02*
X101192857Y-87585238D01*
X101192857Y-87585238D02*
X101288095Y-87537619D01*
X101288095Y-87537619D02*
X101526190Y-87537619D01*
X101526190Y-87537619D02*
X101621428Y-87585238D01*
X101621428Y-87585238D02*
X101669047Y-87632857D01*
X101669047Y-87632857D02*
X101716666Y-87728095D01*
X101716666Y-87728095D02*
X101716666Y-87823333D01*
X101716666Y-87823333D02*
X101669047Y-87966190D01*
X101669047Y-87966190D02*
X101097619Y-88537619D01*
X101097619Y-88537619D02*
X101716666Y-88537619D01*
X101791666Y-72462619D02*
X101791666Y-73176904D01*
X101791666Y-73176904D02*
X101744047Y-73319761D01*
X101744047Y-73319761D02*
X101648809Y-73415000D01*
X101648809Y-73415000D02*
X101505952Y-73462619D01*
X101505952Y-73462619D02*
X101410714Y-73462619D01*
X102267857Y-73462619D02*
X102267857Y-72462619D01*
X102267857Y-72462619D02*
X102648809Y-72462619D01*
X102648809Y-72462619D02*
X102744047Y-72510238D01*
X102744047Y-72510238D02*
X102791666Y-72557857D01*
X102791666Y-72557857D02*
X102839285Y-72653095D01*
X102839285Y-72653095D02*
X102839285Y-72795952D01*
X102839285Y-72795952D02*
X102791666Y-72891190D01*
X102791666Y-72891190D02*
X102744047Y-72938809D01*
X102744047Y-72938809D02*
X102648809Y-72986428D01*
X102648809Y-72986428D02*
X102267857Y-72986428D01*
X103172619Y-72462619D02*
X103791666Y-72462619D01*
X103791666Y-72462619D02*
X103458333Y-72843571D01*
X103458333Y-72843571D02*
X103601190Y-72843571D01*
X103601190Y-72843571D02*
X103696428Y-72891190D01*
X103696428Y-72891190D02*
X103744047Y-72938809D01*
X103744047Y-72938809D02*
X103791666Y-73034047D01*
X103791666Y-73034047D02*
X103791666Y-73272142D01*
X103791666Y-73272142D02*
X103744047Y-73367380D01*
X103744047Y-73367380D02*
X103696428Y-73415000D01*
X103696428Y-73415000D02*
X103601190Y-73462619D01*
X103601190Y-73462619D02*
X103315476Y-73462619D01*
X103315476Y-73462619D02*
X103220238Y-73415000D01*
X103220238Y-73415000D02*
X103172619Y-73367380D01*
X91638095Y-79662619D02*
X91638095Y-78995952D01*
X91638095Y-79091190D02*
X91685714Y-79043571D01*
X91685714Y-79043571D02*
X91780952Y-78995952D01*
X91780952Y-78995952D02*
X91923809Y-78995952D01*
X91923809Y-78995952D02*
X92019047Y-79043571D01*
X92019047Y-79043571D02*
X92066666Y-79138809D01*
X92066666Y-79138809D02*
X92066666Y-79662619D01*
X92066666Y-79138809D02*
X92114285Y-79043571D01*
X92114285Y-79043571D02*
X92209523Y-78995952D01*
X92209523Y-78995952D02*
X92352380Y-78995952D01*
X92352380Y-78995952D02*
X92447619Y-79043571D01*
X92447619Y-79043571D02*
X92495238Y-79138809D01*
X92495238Y-79138809D02*
X92495238Y-79662619D01*
X93114285Y-79662619D02*
X93019047Y-79615000D01*
X93019047Y-79615000D02*
X92971428Y-79567380D01*
X92971428Y-79567380D02*
X92923809Y-79472142D01*
X92923809Y-79472142D02*
X92923809Y-79186428D01*
X92923809Y-79186428D02*
X92971428Y-79091190D01*
X92971428Y-79091190D02*
X93019047Y-79043571D01*
X93019047Y-79043571D02*
X93114285Y-78995952D01*
X93114285Y-78995952D02*
X93257142Y-78995952D01*
X93257142Y-78995952D02*
X93352380Y-79043571D01*
X93352380Y-79043571D02*
X93399999Y-79091190D01*
X93399999Y-79091190D02*
X93447618Y-79186428D01*
X93447618Y-79186428D02*
X93447618Y-79472142D01*
X93447618Y-79472142D02*
X93399999Y-79567380D01*
X93399999Y-79567380D02*
X93352380Y-79615000D01*
X93352380Y-79615000D02*
X93257142Y-79662619D01*
X93257142Y-79662619D02*
X93114285Y-79662619D01*
X93828571Y-79615000D02*
X93923809Y-79662619D01*
X93923809Y-79662619D02*
X94114285Y-79662619D01*
X94114285Y-79662619D02*
X94209523Y-79615000D01*
X94209523Y-79615000D02*
X94257142Y-79519761D01*
X94257142Y-79519761D02*
X94257142Y-79472142D01*
X94257142Y-79472142D02*
X94209523Y-79376904D01*
X94209523Y-79376904D02*
X94114285Y-79329285D01*
X94114285Y-79329285D02*
X93971428Y-79329285D01*
X93971428Y-79329285D02*
X93876190Y-79281666D01*
X93876190Y-79281666D02*
X93828571Y-79186428D01*
X93828571Y-79186428D02*
X93828571Y-79138809D01*
X93828571Y-79138809D02*
X93876190Y-79043571D01*
X93876190Y-79043571D02*
X93971428Y-78995952D01*
X93971428Y-78995952D02*
X94114285Y-78995952D01*
X94114285Y-78995952D02*
X94209523Y-79043571D01*
X94542857Y-78995952D02*
X94923809Y-78995952D01*
X94685714Y-79662619D02*
X94685714Y-78805476D01*
X94685714Y-78805476D02*
X94733333Y-78710238D01*
X94733333Y-78710238D02*
X94828571Y-78662619D01*
X94828571Y-78662619D02*
X94923809Y-78662619D01*
X95638095Y-79615000D02*
X95542857Y-79662619D01*
X95542857Y-79662619D02*
X95352381Y-79662619D01*
X95352381Y-79662619D02*
X95257143Y-79615000D01*
X95257143Y-79615000D02*
X95209524Y-79519761D01*
X95209524Y-79519761D02*
X95209524Y-79138809D01*
X95209524Y-79138809D02*
X95257143Y-79043571D01*
X95257143Y-79043571D02*
X95352381Y-78995952D01*
X95352381Y-78995952D02*
X95542857Y-78995952D01*
X95542857Y-78995952D02*
X95638095Y-79043571D01*
X95638095Y-79043571D02*
X95685714Y-79138809D01*
X95685714Y-79138809D02*
X95685714Y-79234047D01*
X95685714Y-79234047D02*
X95209524Y-79329285D01*
X95971429Y-78995952D02*
X96352381Y-78995952D01*
X96114286Y-78662619D02*
X96114286Y-79519761D01*
X96114286Y-79519761D02*
X96161905Y-79615000D01*
X96161905Y-79615000D02*
X96257143Y-79662619D01*
X96257143Y-79662619D02*
X96352381Y-79662619D01*
X97209524Y-79662619D02*
X96638096Y-79662619D01*
X96923810Y-79662619D02*
X96923810Y-78662619D01*
X96923810Y-78662619D02*
X96828572Y-78805476D01*
X96828572Y-78805476D02*
X96733334Y-78900714D01*
X96733334Y-78900714D02*
X96638096Y-78948333D01*
X106430095Y-89616619D02*
X106430095Y-88616619D01*
X106430095Y-89092809D02*
X107001523Y-89092809D01*
X107001523Y-89616619D02*
X107001523Y-88616619D01*
X107430095Y-88711857D02*
X107477714Y-88664238D01*
X107477714Y-88664238D02*
X107572952Y-88616619D01*
X107572952Y-88616619D02*
X107811047Y-88616619D01*
X107811047Y-88616619D02*
X107906285Y-88664238D01*
X107906285Y-88664238D02*
X107953904Y-88711857D01*
X107953904Y-88711857D02*
X108001523Y-88807095D01*
X108001523Y-88807095D02*
X108001523Y-88902333D01*
X108001523Y-88902333D02*
X107953904Y-89045190D01*
X107953904Y-89045190D02*
X107382476Y-89616619D01*
X107382476Y-89616619D02*
X108001523Y-89616619D01*
X101816666Y-79212619D02*
X101816666Y-79926904D01*
X101816666Y-79926904D02*
X101769047Y-80069761D01*
X101769047Y-80069761D02*
X101673809Y-80165000D01*
X101673809Y-80165000D02*
X101530952Y-80212619D01*
X101530952Y-80212619D02*
X101435714Y-80212619D01*
X102292857Y-80212619D02*
X102292857Y-79212619D01*
X102292857Y-79212619D02*
X102673809Y-79212619D01*
X102673809Y-79212619D02*
X102769047Y-79260238D01*
X102769047Y-79260238D02*
X102816666Y-79307857D01*
X102816666Y-79307857D02*
X102864285Y-79403095D01*
X102864285Y-79403095D02*
X102864285Y-79545952D01*
X102864285Y-79545952D02*
X102816666Y-79641190D01*
X102816666Y-79641190D02*
X102769047Y-79688809D01*
X102769047Y-79688809D02*
X102673809Y-79736428D01*
X102673809Y-79736428D02*
X102292857Y-79736428D01*
X103816666Y-80212619D02*
X103245238Y-80212619D01*
X103530952Y-80212619D02*
X103530952Y-79212619D01*
X103530952Y-79212619D02*
X103435714Y-79355476D01*
X103435714Y-79355476D02*
X103340476Y-79450714D01*
X103340476Y-79450714D02*
X103245238Y-79498333D01*
X92155238Y-80770095D02*
X92094286Y-80732000D01*
X92094286Y-80732000D02*
X92063809Y-80655809D01*
X92063809Y-80655809D02*
X92063809Y-79970095D01*
X92642857Y-80732000D02*
X92581905Y-80770095D01*
X92581905Y-80770095D02*
X92460000Y-80770095D01*
X92460000Y-80770095D02*
X92399047Y-80732000D01*
X92399047Y-80732000D02*
X92368571Y-80655809D01*
X92368571Y-80655809D02*
X92368571Y-80351047D01*
X92368571Y-80351047D02*
X92399047Y-80274857D01*
X92399047Y-80274857D02*
X92460000Y-80236761D01*
X92460000Y-80236761D02*
X92581905Y-80236761D01*
X92581905Y-80236761D02*
X92642857Y-80274857D01*
X92642857Y-80274857D02*
X92673333Y-80351047D01*
X92673333Y-80351047D02*
X92673333Y-80427238D01*
X92673333Y-80427238D02*
X92368571Y-80503428D01*
X93221904Y-80770095D02*
X93221904Y-79970095D01*
X93221904Y-80732000D02*
X93160952Y-80770095D01*
X93160952Y-80770095D02*
X93039047Y-80770095D01*
X93039047Y-80770095D02*
X92978095Y-80732000D01*
X92978095Y-80732000D02*
X92947618Y-80693904D01*
X92947618Y-80693904D02*
X92917142Y-80617714D01*
X92917142Y-80617714D02*
X92917142Y-80389142D01*
X92917142Y-80389142D02*
X92947618Y-80312952D01*
X92947618Y-80312952D02*
X92978095Y-80274857D01*
X92978095Y-80274857D02*
X93039047Y-80236761D01*
X93039047Y-80236761D02*
X93160952Y-80236761D01*
X93160952Y-80236761D02*
X93221904Y-80274857D01*
X93526666Y-80465333D02*
X94014286Y-80465333D01*
X94593333Y-80770095D02*
X94593333Y-79970095D01*
X94593333Y-80732000D02*
X94532381Y-80770095D01*
X94532381Y-80770095D02*
X94410476Y-80770095D01*
X94410476Y-80770095D02*
X94349524Y-80732000D01*
X94349524Y-80732000D02*
X94319047Y-80693904D01*
X94319047Y-80693904D02*
X94288571Y-80617714D01*
X94288571Y-80617714D02*
X94288571Y-80389142D01*
X94288571Y-80389142D02*
X94319047Y-80312952D01*
X94319047Y-80312952D02*
X94349524Y-80274857D01*
X94349524Y-80274857D02*
X94410476Y-80236761D01*
X94410476Y-80236761D02*
X94532381Y-80236761D01*
X94532381Y-80236761D02*
X94593333Y-80274857D01*
X94898095Y-80770095D02*
X94898095Y-80236761D01*
X94898095Y-80389142D02*
X94928572Y-80312952D01*
X94928572Y-80312952D02*
X94959048Y-80274857D01*
X94959048Y-80274857D02*
X95020000Y-80236761D01*
X95020000Y-80236761D02*
X95080953Y-80236761D01*
X95294285Y-80770095D02*
X95294285Y-80236761D01*
X95294285Y-79970095D02*
X95263809Y-80008190D01*
X95263809Y-80008190D02*
X95294285Y-80046285D01*
X95294285Y-80046285D02*
X95324762Y-80008190D01*
X95324762Y-80008190D02*
X95294285Y-79970095D01*
X95294285Y-79970095D02*
X95294285Y-80046285D01*
X95538095Y-80236761D02*
X95690476Y-80770095D01*
X95690476Y-80770095D02*
X95842857Y-80236761D01*
X96330476Y-80732000D02*
X96269524Y-80770095D01*
X96269524Y-80770095D02*
X96147619Y-80770095D01*
X96147619Y-80770095D02*
X96086666Y-80732000D01*
X96086666Y-80732000D02*
X96056190Y-80655809D01*
X96056190Y-80655809D02*
X96056190Y-80351047D01*
X96056190Y-80351047D02*
X96086666Y-80274857D01*
X96086666Y-80274857D02*
X96147619Y-80236761D01*
X96147619Y-80236761D02*
X96269524Y-80236761D01*
X96269524Y-80236761D02*
X96330476Y-80274857D01*
X96330476Y-80274857D02*
X96360952Y-80351047D01*
X96360952Y-80351047D02*
X96360952Y-80427238D01*
X96360952Y-80427238D02*
X96056190Y-80503428D01*
X96635237Y-80770095D02*
X96635237Y-80236761D01*
X96635237Y-80389142D02*
X96665714Y-80312952D01*
X96665714Y-80312952D02*
X96696190Y-80274857D01*
X96696190Y-80274857D02*
X96757142Y-80236761D01*
X96757142Y-80236761D02*
X96818095Y-80236761D01*
X97366666Y-80770095D02*
X97000951Y-80770095D01*
X97183808Y-80770095D02*
X97183808Y-79970095D01*
X97183808Y-79970095D02*
X97122856Y-80084380D01*
X97122856Y-80084380D02*
X97061904Y-80160571D01*
X97061904Y-80160571D02*
X97000951Y-80198666D01*
X104437619Y-82791666D02*
X103961428Y-83124999D01*
X104437619Y-83363094D02*
X103437619Y-83363094D01*
X103437619Y-83363094D02*
X103437619Y-82982142D01*
X103437619Y-82982142D02*
X103485238Y-82886904D01*
X103485238Y-82886904D02*
X103532857Y-82839285D01*
X103532857Y-82839285D02*
X103628095Y-82791666D01*
X103628095Y-82791666D02*
X103770952Y-82791666D01*
X103770952Y-82791666D02*
X103866190Y-82839285D01*
X103866190Y-82839285D02*
X103913809Y-82886904D01*
X103913809Y-82886904D02*
X103961428Y-82982142D01*
X103961428Y-82982142D02*
X103961428Y-83363094D01*
X103532857Y-82410713D02*
X103485238Y-82363094D01*
X103485238Y-82363094D02*
X103437619Y-82267856D01*
X103437619Y-82267856D02*
X103437619Y-82029761D01*
X103437619Y-82029761D02*
X103485238Y-81934523D01*
X103485238Y-81934523D02*
X103532857Y-81886904D01*
X103532857Y-81886904D02*
X103628095Y-81839285D01*
X103628095Y-81839285D02*
X103723333Y-81839285D01*
X103723333Y-81839285D02*
X103866190Y-81886904D01*
X103866190Y-81886904D02*
X104437619Y-82458332D01*
X104437619Y-82458332D02*
X104437619Y-81839285D01*
X100837619Y-82791666D02*
X100361428Y-83124999D01*
X100837619Y-83363094D02*
X99837619Y-83363094D01*
X99837619Y-83363094D02*
X99837619Y-82982142D01*
X99837619Y-82982142D02*
X99885238Y-82886904D01*
X99885238Y-82886904D02*
X99932857Y-82839285D01*
X99932857Y-82839285D02*
X100028095Y-82791666D01*
X100028095Y-82791666D02*
X100170952Y-82791666D01*
X100170952Y-82791666D02*
X100266190Y-82839285D01*
X100266190Y-82839285D02*
X100313809Y-82886904D01*
X100313809Y-82886904D02*
X100361428Y-82982142D01*
X100361428Y-82982142D02*
X100361428Y-83363094D01*
X100837619Y-81839285D02*
X100837619Y-82410713D01*
X100837619Y-82124999D02*
X99837619Y-82124999D01*
X99837619Y-82124999D02*
X99980476Y-82220237D01*
X99980476Y-82220237D02*
X100075714Y-82315475D01*
X100075714Y-82315475D02*
X100123333Y-82410713D01*
X88467380Y-81816666D02*
X88515000Y-81864285D01*
X88515000Y-81864285D02*
X88562619Y-82007142D01*
X88562619Y-82007142D02*
X88562619Y-82102380D01*
X88562619Y-82102380D02*
X88515000Y-82245237D01*
X88515000Y-82245237D02*
X88419761Y-82340475D01*
X88419761Y-82340475D02*
X88324523Y-82388094D01*
X88324523Y-82388094D02*
X88134047Y-82435713D01*
X88134047Y-82435713D02*
X87991190Y-82435713D01*
X87991190Y-82435713D02*
X87800714Y-82388094D01*
X87800714Y-82388094D02*
X87705476Y-82340475D01*
X87705476Y-82340475D02*
X87610238Y-82245237D01*
X87610238Y-82245237D02*
X87562619Y-82102380D01*
X87562619Y-82102380D02*
X87562619Y-82007142D01*
X87562619Y-82007142D02*
X87610238Y-81864285D01*
X87610238Y-81864285D02*
X87657857Y-81816666D01*
X88562619Y-80864285D02*
X88562619Y-81435713D01*
X88562619Y-81149999D02*
X87562619Y-81149999D01*
X87562619Y-81149999D02*
X87705476Y-81245237D01*
X87705476Y-81245237D02*
X87800714Y-81340475D01*
X87800714Y-81340475D02*
X87848333Y-81435713D01*
X106302619Y-83468095D02*
X106255000Y-83563333D01*
X106255000Y-83563333D02*
X106159761Y-83610952D01*
X106159761Y-83610952D02*
X105302619Y-83610952D01*
X106255000Y-82706190D02*
X106302619Y-82801428D01*
X106302619Y-82801428D02*
X106302619Y-82991904D01*
X106302619Y-82991904D02*
X106255000Y-83087142D01*
X106255000Y-83087142D02*
X106159761Y-83134761D01*
X106159761Y-83134761D02*
X105778809Y-83134761D01*
X105778809Y-83134761D02*
X105683571Y-83087142D01*
X105683571Y-83087142D02*
X105635952Y-82991904D01*
X105635952Y-82991904D02*
X105635952Y-82801428D01*
X105635952Y-82801428D02*
X105683571Y-82706190D01*
X105683571Y-82706190D02*
X105778809Y-82658571D01*
X105778809Y-82658571D02*
X105874047Y-82658571D01*
X105874047Y-82658571D02*
X105969285Y-83134761D01*
X106302619Y-81801428D02*
X105302619Y-81801428D01*
X106255000Y-81801428D02*
X106302619Y-81896666D01*
X106302619Y-81896666D02*
X106302619Y-82087142D01*
X106302619Y-82087142D02*
X106255000Y-82182380D01*
X106255000Y-82182380D02*
X106207380Y-82229999D01*
X106207380Y-82229999D02*
X106112142Y-82277618D01*
X106112142Y-82277618D02*
X105826428Y-82277618D01*
X105826428Y-82277618D02*
X105731190Y-82229999D01*
X105731190Y-82229999D02*
X105683571Y-82182380D01*
X105683571Y-82182380D02*
X105635952Y-82087142D01*
X105635952Y-82087142D02*
X105635952Y-81896666D01*
X105635952Y-81896666D02*
X105683571Y-81801428D01*
X106302619Y-80801428D02*
X106302619Y-81372856D01*
X106302619Y-81087142D02*
X105302619Y-81087142D01*
X105302619Y-81087142D02*
X105445476Y-81182380D01*
X105445476Y-81182380D02*
X105540714Y-81277618D01*
X105540714Y-81277618D02*
X105588333Y-81372856D01*
X88915380Y-88166666D02*
X88963000Y-88214285D01*
X88963000Y-88214285D02*
X89010619Y-88357142D01*
X89010619Y-88357142D02*
X89010619Y-88452380D01*
X89010619Y-88452380D02*
X88963000Y-88595237D01*
X88963000Y-88595237D02*
X88867761Y-88690475D01*
X88867761Y-88690475D02*
X88772523Y-88738094D01*
X88772523Y-88738094D02*
X88582047Y-88785713D01*
X88582047Y-88785713D02*
X88439190Y-88785713D01*
X88439190Y-88785713D02*
X88248714Y-88738094D01*
X88248714Y-88738094D02*
X88153476Y-88690475D01*
X88153476Y-88690475D02*
X88058238Y-88595237D01*
X88058238Y-88595237D02*
X88010619Y-88452380D01*
X88010619Y-88452380D02*
X88010619Y-88357142D01*
X88010619Y-88357142D02*
X88058238Y-88214285D01*
X88058238Y-88214285D02*
X88105857Y-88166666D01*
X88105857Y-87785713D02*
X88058238Y-87738094D01*
X88058238Y-87738094D02*
X88010619Y-87642856D01*
X88010619Y-87642856D02*
X88010619Y-87404761D01*
X88010619Y-87404761D02*
X88058238Y-87309523D01*
X88058238Y-87309523D02*
X88105857Y-87261904D01*
X88105857Y-87261904D02*
X88201095Y-87214285D01*
X88201095Y-87214285D02*
X88296333Y-87214285D01*
X88296333Y-87214285D02*
X88439190Y-87261904D01*
X88439190Y-87261904D02*
X89010619Y-87833332D01*
X89010619Y-87833332D02*
X89010619Y-87214285D01*
X106174095Y-75462619D02*
X106174095Y-74462619D01*
X106174095Y-74938809D02*
X106745523Y-74938809D01*
X106745523Y-75462619D02*
X106745523Y-74462619D01*
X107745523Y-75462619D02*
X107174095Y-75462619D01*
X107459809Y-75462619D02*
X107459809Y-74462619D01*
X107459809Y-74462619D02*
X107364571Y-74605476D01*
X107364571Y-74605476D02*
X107269333Y-74700714D01*
X107269333Y-74700714D02*
X107174095Y-74748333D01*
X89046427Y-91415000D02*
X88951189Y-91462619D01*
X88951189Y-91462619D02*
X88760713Y-91462619D01*
X88760713Y-91462619D02*
X88665475Y-91415000D01*
X88665475Y-91415000D02*
X88617856Y-91367380D01*
X88617856Y-91367380D02*
X88570237Y-91272142D01*
X88570237Y-91272142D02*
X88570237Y-90986428D01*
X88570237Y-90986428D02*
X88617856Y-90891190D01*
X88617856Y-90891190D02*
X88665475Y-90843571D01*
X88665475Y-90843571D02*
X88760713Y-90795952D01*
X88760713Y-90795952D02*
X88951189Y-90795952D01*
X88951189Y-90795952D02*
X89046427Y-90843571D01*
X89903570Y-90795952D02*
X89903570Y-91462619D01*
X89474999Y-90795952D02*
X89474999Y-91319761D01*
X89474999Y-91319761D02*
X89522618Y-91415000D01*
X89522618Y-91415000D02*
X89617856Y-91462619D01*
X89617856Y-91462619D02*
X89760713Y-91462619D01*
X89760713Y-91462619D02*
X89855951Y-91415000D01*
X89855951Y-91415000D02*
X89903570Y-91367380D01*
X90379761Y-91462619D02*
X90379761Y-90795952D01*
X90379761Y-90986428D02*
X90427380Y-90891190D01*
X90427380Y-90891190D02*
X90474999Y-90843571D01*
X90474999Y-90843571D02*
X90570237Y-90795952D01*
X90570237Y-90795952D02*
X90665475Y-90795952D01*
X90998809Y-91462619D02*
X90998809Y-90795952D01*
X90998809Y-90986428D02*
X91046428Y-90891190D01*
X91046428Y-90891190D02*
X91094047Y-90843571D01*
X91094047Y-90843571D02*
X91189285Y-90795952D01*
X91189285Y-90795952D02*
X91284523Y-90795952D01*
X91998809Y-91415000D02*
X91903571Y-91462619D01*
X91903571Y-91462619D02*
X91713095Y-91462619D01*
X91713095Y-91462619D02*
X91617857Y-91415000D01*
X91617857Y-91415000D02*
X91570238Y-91319761D01*
X91570238Y-91319761D02*
X91570238Y-90938809D01*
X91570238Y-90938809D02*
X91617857Y-90843571D01*
X91617857Y-90843571D02*
X91713095Y-90795952D01*
X91713095Y-90795952D02*
X91903571Y-90795952D01*
X91903571Y-90795952D02*
X91998809Y-90843571D01*
X91998809Y-90843571D02*
X92046428Y-90938809D01*
X92046428Y-90938809D02*
X92046428Y-91034047D01*
X92046428Y-91034047D02*
X91570238Y-91129285D01*
X92475000Y-90795952D02*
X92475000Y-91462619D01*
X92475000Y-90891190D02*
X92522619Y-90843571D01*
X92522619Y-90843571D02*
X92617857Y-90795952D01*
X92617857Y-90795952D02*
X92760714Y-90795952D01*
X92760714Y-90795952D02*
X92855952Y-90843571D01*
X92855952Y-90843571D02*
X92903571Y-90938809D01*
X92903571Y-90938809D02*
X92903571Y-91462619D01*
X93236905Y-90795952D02*
X93617857Y-90795952D01*
X93379762Y-90462619D02*
X93379762Y-91319761D01*
X93379762Y-91319761D02*
X93427381Y-91415000D01*
X93427381Y-91415000D02*
X93522619Y-91462619D01*
X93522619Y-91462619D02*
X93617857Y-91462619D01*
X93903572Y-91415000D02*
X93998810Y-91462619D01*
X93998810Y-91462619D02*
X94189286Y-91462619D01*
X94189286Y-91462619D02*
X94284524Y-91415000D01*
X94284524Y-91415000D02*
X94332143Y-91319761D01*
X94332143Y-91319761D02*
X94332143Y-91272142D01*
X94332143Y-91272142D02*
X94284524Y-91176904D01*
X94284524Y-91176904D02*
X94189286Y-91129285D01*
X94189286Y-91129285D02*
X94046429Y-91129285D01*
X94046429Y-91129285D02*
X93951191Y-91081666D01*
X93951191Y-91081666D02*
X93903572Y-90986428D01*
X93903572Y-90986428D02*
X93903572Y-90938809D01*
X93903572Y-90938809D02*
X93951191Y-90843571D01*
X93951191Y-90843571D02*
X94046429Y-90795952D01*
X94046429Y-90795952D02*
X94189286Y-90795952D01*
X94189286Y-90795952D02*
X94284524Y-90843571D01*
X95141667Y-91415000D02*
X95046429Y-91462619D01*
X95046429Y-91462619D02*
X94855953Y-91462619D01*
X94855953Y-91462619D02*
X94760715Y-91415000D01*
X94760715Y-91415000D02*
X94713096Y-91319761D01*
X94713096Y-91319761D02*
X94713096Y-90938809D01*
X94713096Y-90938809D02*
X94760715Y-90843571D01*
X94760715Y-90843571D02*
X94855953Y-90795952D01*
X94855953Y-90795952D02*
X95046429Y-90795952D01*
X95046429Y-90795952D02*
X95141667Y-90843571D01*
X95141667Y-90843571D02*
X95189286Y-90938809D01*
X95189286Y-90938809D02*
X95189286Y-91034047D01*
X95189286Y-91034047D02*
X94713096Y-91129285D01*
X95617858Y-90795952D02*
X95617858Y-91462619D01*
X95617858Y-90891190D02*
X95665477Y-90843571D01*
X95665477Y-90843571D02*
X95760715Y-90795952D01*
X95760715Y-90795952D02*
X95903572Y-90795952D01*
X95903572Y-90795952D02*
X95998810Y-90843571D01*
X95998810Y-90843571D02*
X96046429Y-90938809D01*
X96046429Y-90938809D02*
X96046429Y-91462619D01*
X96475001Y-91415000D02*
X96570239Y-91462619D01*
X96570239Y-91462619D02*
X96760715Y-91462619D01*
X96760715Y-91462619D02*
X96855953Y-91415000D01*
X96855953Y-91415000D02*
X96903572Y-91319761D01*
X96903572Y-91319761D02*
X96903572Y-91272142D01*
X96903572Y-91272142D02*
X96855953Y-91176904D01*
X96855953Y-91176904D02*
X96760715Y-91129285D01*
X96760715Y-91129285D02*
X96617858Y-91129285D01*
X96617858Y-91129285D02*
X96522620Y-91081666D01*
X96522620Y-91081666D02*
X96475001Y-90986428D01*
X96475001Y-90986428D02*
X96475001Y-90938809D01*
X96475001Y-90938809D02*
X96522620Y-90843571D01*
X96522620Y-90843571D02*
X96617858Y-90795952D01*
X96617858Y-90795952D02*
X96760715Y-90795952D01*
X96760715Y-90795952D02*
X96855953Y-90843571D01*
X97475001Y-91462619D02*
X97379763Y-91415000D01*
X97379763Y-91415000D02*
X97332144Y-91367380D01*
X97332144Y-91367380D02*
X97284525Y-91272142D01*
X97284525Y-91272142D02*
X97284525Y-90986428D01*
X97284525Y-90986428D02*
X97332144Y-90891190D01*
X97332144Y-90891190D02*
X97379763Y-90843571D01*
X97379763Y-90843571D02*
X97475001Y-90795952D01*
X97475001Y-90795952D02*
X97617858Y-90795952D01*
X97617858Y-90795952D02*
X97713096Y-90843571D01*
X97713096Y-90843571D02*
X97760715Y-90891190D01*
X97760715Y-90891190D02*
X97808334Y-90986428D01*
X97808334Y-90986428D02*
X97808334Y-91272142D01*
X97808334Y-91272142D02*
X97760715Y-91367380D01*
X97760715Y-91367380D02*
X97713096Y-91415000D01*
X97713096Y-91415000D02*
X97617858Y-91462619D01*
X97617858Y-91462619D02*
X97475001Y-91462619D01*
X98236906Y-91462619D02*
X98236906Y-90795952D01*
X98236906Y-90986428D02*
X98284525Y-90891190D01*
X98284525Y-90891190D02*
X98332144Y-90843571D01*
X98332144Y-90843571D02*
X98427382Y-90795952D01*
X98427382Y-90795952D02*
X98522620Y-90795952D01*
X99379763Y-91462619D02*
X98808335Y-91462619D01*
X99094049Y-91462619D02*
X99094049Y-90462619D01*
X99094049Y-90462619D02*
X98998811Y-90605476D01*
X98998811Y-90605476D02*
X98903573Y-90700714D01*
X98903573Y-90700714D02*
X98808335Y-90748333D01*
D12*
X99075000Y-85200000D02*
X101875000Y-85200000D01*
X99075000Y-87200000D02*
X99075000Y-85200000D01*
X101875000Y-85200000D02*
X101875000Y-87200000D01*
X101875000Y-87200000D02*
X99075000Y-87200000D01*
X101225000Y-73800000D02*
X104025000Y-73800000D01*
X101225000Y-75800000D02*
X101225000Y-73800000D01*
X104025000Y-73800000D02*
X104025000Y-75800000D01*
X104025000Y-75800000D02*
X101225000Y-75800000D01*
X89025000Y-78375000D02*
X99825000Y-78375000D01*
X99825000Y-78375000D02*
X99825000Y-73775000D01*
X99825000Y-73775000D02*
X89025000Y-73775000D01*
X89025000Y-73775000D02*
X89025000Y-78375000D01*
X91677701Y-73105000D02*
G75*
G03*
X91677701Y-73105000I-482701J0D01*
G01*
X104050000Y-78950000D02*
X101250000Y-78950000D01*
X104050000Y-76950000D02*
X104050000Y-78950000D01*
X101250000Y-78950000D02*
X101250000Y-76950000D01*
X101250000Y-76950000D02*
X104050000Y-76950000D01*
D13*
X93925000Y-81035000D02*
X95525000Y-81035000D01*
X95525000Y-84165000D02*
X93925000Y-84165000D01*
D10*
X92250000Y-81655000D02*
G75*
G03*
X92250000Y-81655000I-100000J0D01*
G01*
D12*
X103060000Y-82397936D02*
X103060000Y-82852064D01*
X101590000Y-82397936D02*
X101590000Y-82852064D01*
X99460000Y-82397936D02*
X99460000Y-82852064D01*
X97990000Y-82397936D02*
X97990000Y-82852064D01*
X85472600Y-81998452D02*
X85472600Y-81475948D01*
X86942600Y-81998452D02*
X86942600Y-81475948D01*
X112660000Y-85300000D02*
X113400000Y-85300000D01*
X113400000Y-85300000D02*
X113400000Y-84800000D01*
X106840000Y-85060000D02*
X113160000Y-85060000D01*
X106840000Y-85060000D02*
X106840000Y-79400000D01*
X107300000Y-85060000D02*
X107300000Y-79400000D01*
X112600000Y-85060000D02*
X112600000Y-84290000D01*
X113160000Y-85060000D02*
X113160000Y-84290000D01*
X112600000Y-82710000D02*
X112600000Y-81750000D01*
X113160000Y-82710000D02*
X113160000Y-81750000D01*
X112600000Y-80170000D02*
X112600000Y-79400000D01*
X113160000Y-80170000D02*
X113160000Y-79400000D01*
X106840000Y-79400000D02*
X113160000Y-79400000D01*
X87603000Y-87738748D02*
X87603000Y-88261252D01*
X86133000Y-87738748D02*
X86133000Y-88261252D01*
X93975000Y-90160000D02*
X97425000Y-90160000D01*
X93975000Y-90160000D02*
X92025000Y-90160000D01*
X93975000Y-85040000D02*
X95925000Y-85040000D01*
X93975000Y-85040000D02*
X92025000Y-85040000D01*
%LPC*%
D14*
X99825000Y-86200000D03*
X101125000Y-86200000D03*
X101975000Y-74800000D03*
X103275000Y-74800000D03*
D15*
X90274996Y-74805000D03*
X90274996Y-77345000D03*
X98574996Y-77345000D03*
X98574996Y-74805000D03*
D16*
X111000000Y-89000000D03*
D14*
X103300000Y-77950000D03*
X102000000Y-77950000D03*
D17*
X93550000Y-81650000D03*
X93550000Y-82600000D03*
X93550000Y-83550000D03*
X95900000Y-83550000D03*
X95900000Y-82600000D03*
X95900000Y-81650000D03*
D18*
X102325000Y-81625000D03*
X102325000Y-83625000D03*
X98725000Y-81625000D03*
X98725000Y-83625000D03*
D19*
X86207600Y-82774700D03*
X86207600Y-80699700D03*
D20*
X112540000Y-83500000D03*
X112540000Y-80960000D03*
D21*
X110000000Y-83500000D03*
D22*
X110000000Y-80960000D03*
D23*
X86868000Y-86962500D03*
X86868000Y-89037500D03*
D16*
X111000000Y-75000000D03*
D24*
X96450000Y-89505000D03*
X96450000Y-88235000D03*
X96450000Y-86965000D03*
X96450000Y-85695000D03*
X91500000Y-85695000D03*
X91500000Y-86965000D03*
X91500000Y-88235000D03*
X91500000Y-89505000D03*
D25*
X82000000Y-77000000D03*
D26*
X82000000Y-74460000D03*
D25*
X82000000Y-83500000D03*
D26*
X82000000Y-80960000D03*
D25*
X82000000Y-90000000D03*
D26*
X82000000Y-87460000D03*
%LPD*%
M02*
