G04 #@! TF.GenerationSoftware,KiCad,Pcbnew,7.0.2*
G04 #@! TF.CreationDate,2023-05-22T14:58:51+02:00*
G04 #@! TF.ProjectId,relaismsofet correctie,72656c61-6973-46d7-936f-66657420636f,rev?*
G04 #@! TF.SameCoordinates,Original*
G04 #@! TF.FileFunction,Copper,L1,Top*
G04 #@! TF.FilePolarity,Positive*
%FSLAX46Y46*%
G04 Gerber Fmt 4.6, Leading zero omitted, Abs format (unit mm)*
G04 Created by KiCad (PCBNEW 7.0.2) date 2023-05-22 14:58:51*
%MOMM*%
%LPD*%
G01*
G04 APERTURE LIST*
G04 Aperture macros list*
%AMRoundRect*
0 Rectangle with rounded corners*
0 $1 Rounding radius*
0 $2 $3 $4 $5 $6 $7 $8 $9 X,Y pos of 4 corners*
0 Add a 4 corners polygon primitive as box body*
4,1,4,$2,$3,$4,$5,$6,$7,$8,$9,$2,$3,0*
0 Add four circle primitives for the rounded corners*
1,1,$1+$1,$2,$3*
1,1,$1+$1,$4,$5*
1,1,$1+$1,$6,$7*
1,1,$1+$1,$8,$9*
0 Add four rect primitives between the rounded corners*
20,1,$1+$1,$2,$3,$4,$5,0*
20,1,$1+$1,$4,$5,$6,$7,0*
20,1,$1+$1,$6,$7,$8,$9,0*
20,1,$1+$1,$8,$9,$2,$3,0*%
G04 Aperture macros list end*
G04 #@! TA.AperFunction,SMDPad,CuDef*
%ADD10R,1.000000X1.500000*%
G04 #@! TD*
G04 #@! TA.AperFunction,SMDPad,CuDef*
%ADD11RoundRect,0.375000X0.575000X0.375000X-0.575000X0.375000X-0.575000X-0.375000X0.575000X-0.375000X0*%
G04 #@! TD*
G04 #@! TA.AperFunction,SMDPad,CuDef*
%ADD12RoundRect,0.041300X-0.643700X-0.253700X0.643700X-0.253700X0.643700X0.253700X-0.643700X0.253700X0*%
G04 #@! TD*
G04 #@! TA.AperFunction,SMDPad,CuDef*
%ADD13RoundRect,0.250000X-0.450000X0.350000X-0.450000X-0.350000X0.450000X-0.350000X0.450000X0.350000X0*%
G04 #@! TD*
G04 #@! TA.AperFunction,SMDPad,CuDef*
%ADD14RoundRect,0.250000X0.475000X-0.337500X0.475000X0.337500X-0.475000X0.337500X-0.475000X-0.337500X0*%
G04 #@! TD*
G04 #@! TA.AperFunction,ComponentPad*
%ADD15R,2.200000X2.200000*%
G04 #@! TD*
G04 #@! TA.AperFunction,ComponentPad*
%ADD16C,2.200000*%
G04 #@! TD*
G04 #@! TA.AperFunction,SMDPad,CuDef*
%ADD17RoundRect,0.250000X-0.475000X0.337500X-0.475000X-0.337500X0.475000X-0.337500X0.475000X0.337500X0*%
G04 #@! TD*
G04 #@! TA.AperFunction,SMDPad,CuDef*
%ADD18RoundRect,0.150000X0.825000X0.150000X-0.825000X0.150000X-0.825000X-0.150000X0.825000X-0.150000X0*%
G04 #@! TD*
G04 #@! TA.AperFunction,ComponentPad*
%ADD19R,1.700000X1.700000*%
G04 #@! TD*
G04 #@! TA.AperFunction,ComponentPad*
%ADD20O,1.700000X1.700000*%
G04 #@! TD*
G04 #@! TA.AperFunction,ViaPad*
%ADD21C,0.800000*%
G04 #@! TD*
G04 #@! TA.AperFunction,Conductor*
%ADD22C,0.500000*%
G04 #@! TD*
G04 #@! TA.AperFunction,Conductor*
%ADD23C,0.250000*%
G04 #@! TD*
G04 APERTURE END LIST*
D10*
X99825000Y-86200000D03*
X101125000Y-86200000D03*
X101975000Y-74800000D03*
X103275000Y-74800000D03*
D11*
X90274996Y-74805000D03*
X90274996Y-77345000D03*
X98574996Y-77345000D03*
X98574996Y-74805000D03*
D10*
X103300000Y-77950000D03*
X102000000Y-77950000D03*
D12*
X93550000Y-81650000D03*
X93550000Y-82600000D03*
X93550000Y-83550000D03*
X95900000Y-83550000D03*
X95900000Y-82600000D03*
X95900000Y-81650000D03*
D13*
X102325000Y-81625000D03*
X102325000Y-83625000D03*
X98725000Y-81625000D03*
X98725000Y-83625000D03*
D14*
X86207600Y-82774700D03*
X86207600Y-80699700D03*
D15*
X110000000Y-83500000D03*
D16*
X110000000Y-80960000D03*
D17*
X86868000Y-86962500D03*
X86868000Y-89037500D03*
D18*
X96450000Y-89505000D03*
X96450000Y-88235000D03*
X96450000Y-86965000D03*
X96450000Y-85695000D03*
X91500000Y-85695000D03*
X91500000Y-86965000D03*
X91500000Y-88235000D03*
X91500000Y-89505000D03*
D19*
X82000000Y-77000000D03*
D20*
X82000000Y-74460000D03*
D19*
X82000000Y-83500000D03*
D20*
X82000000Y-80960000D03*
D19*
X82000000Y-90000000D03*
D20*
X82000000Y-87460000D03*
D21*
X91200000Y-84250000D03*
X103625000Y-86025000D03*
D22*
X103840000Y-74800000D02*
X103275000Y-74800000D01*
X98574996Y-74805000D02*
X101970000Y-74805000D01*
X101970000Y-74805000D02*
X101975000Y-74800000D01*
D23*
X91500000Y-86965000D02*
X90397900Y-86965000D01*
X90397900Y-86965000D02*
X86207600Y-82774700D01*
X94875000Y-84575000D02*
X91525000Y-84575000D01*
X91525000Y-84575000D02*
X91200000Y-84250000D01*
X95900000Y-83550000D02*
X94875000Y-84575000D01*
X91500000Y-89505000D02*
X89410500Y-89505000D01*
X89410500Y-89505000D02*
X86868000Y-86962500D01*
X86370500Y-87460000D02*
X82000000Y-87460000D01*
X86868000Y-86962500D02*
X86370500Y-87460000D01*
X88145000Y-74805000D02*
X90274996Y-74805000D01*
X82000000Y-80960000D02*
X82000000Y-80950000D01*
X82000000Y-80950000D02*
X88145000Y-74805000D01*
X85307227Y-83500000D02*
X82000000Y-83500000D01*
X91500000Y-88235000D02*
X90042227Y-88235000D01*
X90042227Y-88235000D02*
X85307227Y-83500000D01*
D22*
X103840000Y-74800000D02*
X110000000Y-80960000D01*
X96669996Y-72900000D02*
X98574996Y-74805000D01*
X83560000Y-72900000D02*
X96669996Y-72900000D01*
X103300000Y-77950000D02*
X106990000Y-77950000D01*
X82000000Y-74460000D02*
X83560000Y-72900000D01*
X106990000Y-77950000D02*
X110000000Y-80960000D01*
X96450000Y-89505000D02*
X96450000Y-88235000D01*
X105265000Y-88235000D02*
X96450000Y-88235000D01*
X110000000Y-83500000D02*
X105265000Y-88235000D01*
X96450000Y-85695000D02*
X97200000Y-84945000D01*
X97200000Y-83257797D02*
X96542203Y-82600000D01*
X96542203Y-82600000D02*
X95900000Y-82600000D01*
X97200000Y-84945000D02*
X97200000Y-83257797D01*
X99825000Y-86200000D02*
X99075000Y-86200000D01*
X99075000Y-86200000D02*
X97200000Y-84325000D01*
X96450000Y-86965000D02*
X96450000Y-85695000D01*
X97200000Y-84325000D02*
X97200000Y-83257797D01*
X99179996Y-77950000D02*
X98574996Y-77345000D01*
X98574996Y-78600004D02*
X98574996Y-77345000D01*
X95000000Y-80200000D02*
X96975000Y-80200000D01*
X93550000Y-81650000D02*
X95000000Y-80200000D01*
X96975000Y-80200000D02*
X98574996Y-78600004D01*
X102000000Y-77950000D02*
X99179996Y-77950000D01*
D23*
X102325000Y-81625000D02*
X98725000Y-81625000D01*
X95900000Y-81650000D02*
X98700000Y-81650000D01*
X98700000Y-81650000D02*
X98725000Y-81625000D01*
G04 #@! TA.AperFunction,Conductor*
G36*
X83200149Y-72020185D02*
G01*
X83245904Y-72072989D01*
X83255848Y-72142147D01*
X83226823Y-72205703D01*
X83201248Y-72228101D01*
X83153901Y-72259241D01*
X83150861Y-72261178D01*
X83085359Y-72301580D01*
X83069916Y-72314160D01*
X83017052Y-72370191D01*
X83014541Y-72372776D01*
X82306176Y-73081141D01*
X82244853Y-73114626D01*
X82198087Y-73115769D01*
X82112570Y-73101500D01*
X82112569Y-73101500D01*
X81887431Y-73101500D01*
X81665363Y-73138556D01*
X81452427Y-73211657D01*
X81254424Y-73318811D01*
X81076760Y-73457094D01*
X80924279Y-73622730D01*
X80801138Y-73811211D01*
X80716272Y-74004689D01*
X80710704Y-74017384D01*
X80671553Y-74171987D01*
X80655435Y-74235636D01*
X80636843Y-74460000D01*
X80655435Y-74684363D01*
X80655435Y-74684366D01*
X80655436Y-74684368D01*
X80703879Y-74875665D01*
X80710705Y-74902618D01*
X80801138Y-75108788D01*
X80801140Y-75108791D01*
X80924278Y-75297268D01*
X81056901Y-75441334D01*
X81075706Y-75461761D01*
X81106629Y-75524416D01*
X81098769Y-75593842D01*
X81054622Y-75647998D01*
X81027811Y-75661927D01*
X80907911Y-75706647D01*
X80792811Y-75792811D01*
X80706647Y-75907910D01*
X80656400Y-76042628D01*
X80650354Y-76098867D01*
X80650000Y-76105481D01*
X80650000Y-76750000D01*
X81566314Y-76750000D01*
X81540507Y-76790156D01*
X81500000Y-76928111D01*
X81500000Y-77071889D01*
X81540507Y-77209844D01*
X81566314Y-77250000D01*
X80650000Y-77250000D01*
X80650000Y-77894518D01*
X80650354Y-77901132D01*
X80656400Y-77957371D01*
X80706647Y-78092089D01*
X80792811Y-78207188D01*
X80907910Y-78293352D01*
X81042628Y-78343599D01*
X81098867Y-78349645D01*
X81105482Y-78350000D01*
X81750000Y-78350000D01*
X81750000Y-77435501D01*
X81857685Y-77484680D01*
X81964237Y-77500000D01*
X82035763Y-77500000D01*
X82142315Y-77484680D01*
X82250000Y-77435501D01*
X82250000Y-78350000D01*
X82894518Y-78350000D01*
X82901132Y-78349645D01*
X82957371Y-78343599D01*
X83092089Y-78293352D01*
X83207188Y-78207188D01*
X83293352Y-78092089D01*
X83343599Y-77957371D01*
X83349645Y-77901132D01*
X83350000Y-77894518D01*
X83350000Y-77250000D01*
X82433686Y-77250000D01*
X82459493Y-77209844D01*
X82500000Y-77071889D01*
X82500000Y-76928111D01*
X82459493Y-76790156D01*
X82433686Y-76750000D01*
X83350000Y-76750000D01*
X83350000Y-76105481D01*
X83349645Y-76098867D01*
X83343599Y-76042628D01*
X83293352Y-75907910D01*
X83207188Y-75792811D01*
X83092089Y-75706647D01*
X82972188Y-75661927D01*
X82916255Y-75620055D01*
X82891838Y-75554591D01*
X82906690Y-75486318D01*
X82924289Y-75461766D01*
X83075722Y-75297268D01*
X83198860Y-75108791D01*
X83289296Y-74902616D01*
X83344564Y-74684368D01*
X83363156Y-74460000D01*
X83345674Y-74249029D01*
X83359754Y-74180595D01*
X83381565Y-74151114D01*
X83837861Y-73694819D01*
X83899185Y-73661334D01*
X83925543Y-73658500D01*
X88927921Y-73658500D01*
X88994960Y-73678185D01*
X89040715Y-73730989D01*
X89050659Y-73800147D01*
X89024287Y-73860536D01*
X88954949Y-73946160D01*
X88874630Y-74103795D01*
X88826655Y-74154591D01*
X88764145Y-74171500D01*
X88228628Y-74171500D01*
X88207892Y-74169211D01*
X88205091Y-74169299D01*
X88137001Y-74171439D01*
X88133106Y-74171500D01*
X88105144Y-74171500D01*
X88101290Y-74171986D01*
X88101283Y-74171987D01*
X88101025Y-74172020D01*
X88089402Y-74172934D01*
X88045110Y-74174326D01*
X88025507Y-74180022D01*
X88006455Y-74183967D01*
X87986199Y-74186526D01*
X87944997Y-74202838D01*
X87933951Y-74206621D01*
X87891402Y-74218983D01*
X87873831Y-74229374D01*
X87856370Y-74237929D01*
X87837383Y-74245447D01*
X87801542Y-74271487D01*
X87791780Y-74277899D01*
X87753639Y-74300455D01*
X87739196Y-74314898D01*
X87724409Y-74327527D01*
X87707892Y-74339528D01*
X87679652Y-74373663D01*
X87671792Y-74382301D01*
X82449102Y-79604991D01*
X82387779Y-79638476D01*
X82341012Y-79639619D01*
X82112569Y-79601500D01*
X81887431Y-79601500D01*
X81665363Y-79638556D01*
X81452427Y-79711657D01*
X81254424Y-79818811D01*
X81076760Y-79957094D01*
X80924279Y-80122730D01*
X80801138Y-80311211D01*
X80711091Y-80516501D01*
X80710704Y-80517384D01*
X80670544Y-80675971D01*
X80655435Y-80735636D01*
X80636843Y-80960000D01*
X80655435Y-81184363D01*
X80655435Y-81184366D01*
X80655436Y-81184368D01*
X80699141Y-81356956D01*
X80710705Y-81402618D01*
X80801138Y-81608788D01*
X80924281Y-81797273D01*
X81069489Y-81955009D01*
X81100412Y-82017663D01*
X81092552Y-82087089D01*
X81048405Y-82141245D01*
X81021595Y-82155173D01*
X80903795Y-82199111D01*
X80786738Y-82286738D01*
X80699110Y-82403796D01*
X80648011Y-82540794D01*
X80644438Y-82574030D01*
X80641500Y-82601362D01*
X80641500Y-84398638D01*
X80641852Y-84401918D01*
X80641853Y-84401924D01*
X80648011Y-84459205D01*
X80699110Y-84596203D01*
X80786738Y-84713261D01*
X80903796Y-84800889D01*
X81040794Y-84851988D01*
X81040797Y-84851988D01*
X81040799Y-84851989D01*
X81101362Y-84858500D01*
X81104672Y-84858500D01*
X82895328Y-84858500D01*
X82898638Y-84858500D01*
X82959201Y-84851989D01*
X82959203Y-84851988D01*
X82959205Y-84851988D01*
X83037124Y-84822924D01*
X83096204Y-84800889D01*
X83213261Y-84713261D01*
X83300889Y-84596204D01*
X83322924Y-84537124D01*
X83351988Y-84459205D01*
X83351988Y-84459203D01*
X83351989Y-84459201D01*
X83358500Y-84398638D01*
X83358500Y-84257500D01*
X83378185Y-84190461D01*
X83430989Y-84144706D01*
X83482500Y-84133500D01*
X84993461Y-84133500D01*
X85060500Y-84153185D01*
X85081142Y-84169819D01*
X86566142Y-85654819D01*
X86599627Y-85716142D01*
X86594643Y-85785834D01*
X86552771Y-85841767D01*
X86487307Y-85866184D01*
X86478462Y-85866500D01*
X86345605Y-85866500D01*
X86345585Y-85866500D01*
X86342456Y-85866501D01*
X86339325Y-85866820D01*
X86339321Y-85866821D01*
X86238574Y-85877112D01*
X86070263Y-85932884D01*
X85919345Y-86025971D01*
X85793971Y-86151345D01*
X85700884Y-86302263D01*
X85645112Y-86470573D01*
X85634819Y-86571324D01*
X85634818Y-86571341D01*
X85634500Y-86574455D01*
X85634500Y-86577601D01*
X85634500Y-86577602D01*
X85634500Y-86702500D01*
X85614815Y-86769539D01*
X85562011Y-86815294D01*
X85510500Y-86826500D01*
X83275956Y-86826500D01*
X83208917Y-86806815D01*
X83172147Y-86770321D01*
X83075723Y-86622732D01*
X82999481Y-86539913D01*
X82923240Y-86457094D01*
X82745576Y-86318811D01*
X82547574Y-86211658D01*
X82547573Y-86211657D01*
X82547572Y-86211657D01*
X82334636Y-86138556D01*
X82112569Y-86101500D01*
X81887431Y-86101500D01*
X81665363Y-86138556D01*
X81452427Y-86211657D01*
X81254424Y-86318811D01*
X81076760Y-86457094D01*
X80924279Y-86622730D01*
X80801138Y-86811211D01*
X80717485Y-87001924D01*
X80710704Y-87017384D01*
X80669763Y-87179056D01*
X80655435Y-87235636D01*
X80636843Y-87460000D01*
X80655435Y-87684363D01*
X80655435Y-87684366D01*
X80655436Y-87684368D01*
X80687715Y-87811836D01*
X80710705Y-87902618D01*
X80801138Y-88108788D01*
X80801140Y-88108791D01*
X80924277Y-88297267D01*
X80924279Y-88297269D01*
X81075706Y-88461761D01*
X81106629Y-88524416D01*
X81098769Y-88593842D01*
X81054622Y-88647998D01*
X81027811Y-88661927D01*
X80907911Y-88706647D01*
X80792811Y-88792811D01*
X80706647Y-88907910D01*
X80656400Y-89042628D01*
X80650354Y-89098867D01*
X80650000Y-89105481D01*
X80650000Y-89750000D01*
X81566314Y-89750000D01*
X81540507Y-89790156D01*
X81500000Y-89928111D01*
X81500000Y-90071889D01*
X81540507Y-90209844D01*
X81566314Y-90250000D01*
X80650000Y-90250000D01*
X80650000Y-90894518D01*
X80650354Y-90901132D01*
X80656400Y-90957371D01*
X80706647Y-91092089D01*
X80792811Y-91207188D01*
X80907910Y-91293352D01*
X81042628Y-91343599D01*
X81098867Y-91349645D01*
X81105482Y-91350000D01*
X81750000Y-91350000D01*
X81750000Y-90435501D01*
X81857685Y-90484680D01*
X81964237Y-90500000D01*
X82035763Y-90500000D01*
X82142315Y-90484680D01*
X82250000Y-90435501D01*
X82250000Y-91350000D01*
X82894518Y-91350000D01*
X82901132Y-91349645D01*
X82957371Y-91343599D01*
X83092089Y-91293352D01*
X83207188Y-91207188D01*
X83293352Y-91092089D01*
X83343599Y-90957371D01*
X83349645Y-90901132D01*
X83350000Y-90894518D01*
X83350000Y-90250000D01*
X82433686Y-90250000D01*
X82459493Y-90209844D01*
X82500000Y-90071889D01*
X82500000Y-89928111D01*
X82459493Y-89790156D01*
X82433686Y-89750000D01*
X83350000Y-89750000D01*
X83350000Y-89287500D01*
X85643001Y-89287500D01*
X85643001Y-89421829D01*
X85643321Y-89428111D01*
X85653493Y-89527695D01*
X85708642Y-89694122D01*
X85800683Y-89843345D01*
X85924654Y-89967316D01*
X86073877Y-90059357D01*
X86240303Y-90114506D01*
X86339890Y-90124680D01*
X86346168Y-90124999D01*
X86617999Y-90124999D01*
X86618000Y-90124998D01*
X86618000Y-89287500D01*
X85643001Y-89287500D01*
X83350000Y-89287500D01*
X83350000Y-89105481D01*
X83349645Y-89098867D01*
X83343599Y-89042628D01*
X83293352Y-88907910D01*
X83207188Y-88792811D01*
X83092089Y-88706647D01*
X82972188Y-88661927D01*
X82916255Y-88620055D01*
X82891838Y-88554591D01*
X82906690Y-88486318D01*
X82924289Y-88461766D01*
X83075722Y-88297268D01*
X83116308Y-88235147D01*
X83172147Y-88149679D01*
X83225294Y-88104322D01*
X83275956Y-88093500D01*
X85663724Y-88093500D01*
X85730763Y-88113185D01*
X85776518Y-88165989D01*
X85786462Y-88235147D01*
X85769263Y-88282597D01*
X85708641Y-88380879D01*
X85653493Y-88547303D01*
X85643319Y-88646890D01*
X85643000Y-88653168D01*
X85643000Y-88787500D01*
X86994000Y-88787500D01*
X87061039Y-88807185D01*
X87106794Y-88859989D01*
X87118000Y-88911500D01*
X87118000Y-90124999D01*
X87389829Y-90124999D01*
X87396111Y-90124678D01*
X87495695Y-90114506D01*
X87662122Y-90059357D01*
X87811345Y-89967316D01*
X87935316Y-89843345D01*
X88027357Y-89694122D01*
X88082506Y-89527696D01*
X88092680Y-89428109D01*
X88092999Y-89421833D01*
X88092999Y-89382769D01*
X88112682Y-89315729D01*
X88165485Y-89269973D01*
X88234643Y-89260028D01*
X88298200Y-89289051D01*
X88304680Y-89295085D01*
X88903412Y-89893817D01*
X88916456Y-89910098D01*
X88918499Y-89912016D01*
X88918500Y-89912018D01*
X88968184Y-89958674D01*
X88970948Y-89961353D01*
X88990730Y-89981135D01*
X88993806Y-89983521D01*
X88994003Y-89983674D01*
X89002872Y-89991249D01*
X89035179Y-90021586D01*
X89053064Y-90031418D01*
X89069325Y-90042099D01*
X89085459Y-90054614D01*
X89126125Y-90072210D01*
X89136612Y-90077348D01*
X89175440Y-90098695D01*
X89195208Y-90103770D01*
X89213619Y-90110073D01*
X89232355Y-90118181D01*
X89276126Y-90125113D01*
X89287541Y-90127477D01*
X89330470Y-90138500D01*
X89350884Y-90138500D01*
X89370283Y-90140027D01*
X89390443Y-90143220D01*
X89434556Y-90139050D01*
X89446226Y-90138500D01*
X90175877Y-90138500D01*
X90242916Y-90158185D01*
X90263558Y-90174819D01*
X90268191Y-90179452D01*
X90411399Y-90264145D01*
X90571165Y-90310561D01*
X90571169Y-90310562D01*
X90608498Y-90313500D01*
X90610943Y-90313500D01*
X92389057Y-90313500D01*
X92391502Y-90313500D01*
X92428831Y-90310562D01*
X92588601Y-90264145D01*
X92731807Y-90179453D01*
X92849453Y-90061807D01*
X92934145Y-89918601D01*
X92980562Y-89758831D01*
X92983500Y-89721502D01*
X92983500Y-89288498D01*
X92980562Y-89251169D01*
X92934145Y-89091399D01*
X92934144Y-89091398D01*
X92841479Y-88934709D01*
X92845197Y-88932509D01*
X92825464Y-88896396D01*
X92830427Y-88826703D01*
X92843441Y-88806451D01*
X92841479Y-88805291D01*
X92880748Y-88738890D01*
X92934145Y-88648601D01*
X92980562Y-88488831D01*
X92983500Y-88451502D01*
X92983500Y-88018498D01*
X92980562Y-87981169D01*
X92957740Y-87902616D01*
X92934145Y-87821399D01*
X92841479Y-87664709D01*
X92845197Y-87662509D01*
X92825464Y-87626396D01*
X92830427Y-87556703D01*
X92843441Y-87536451D01*
X92841479Y-87535291D01*
X92890743Y-87451989D01*
X92934145Y-87378601D01*
X92980562Y-87218831D01*
X92983500Y-87181502D01*
X92983500Y-86748498D01*
X92980562Y-86711169D01*
X92978043Y-86702500D01*
X92934145Y-86551399D01*
X92841479Y-86394709D01*
X92843134Y-86393729D01*
X92819446Y-86350347D01*
X92824430Y-86280655D01*
X92836866Y-86261316D01*
X92834709Y-86260040D01*
X92926280Y-86105200D01*
X92972099Y-85947488D01*
X92972295Y-85945000D01*
X91374000Y-85945000D01*
X91306961Y-85925315D01*
X91261206Y-85872511D01*
X91250000Y-85821000D01*
X91250000Y-84895000D01*
X91750000Y-84895000D01*
X91750000Y-85445000D01*
X92972295Y-85445000D01*
X92972295Y-85444999D01*
X92972099Y-85442511D01*
X92926280Y-85284799D01*
X92842682Y-85143442D01*
X92726557Y-85027317D01*
X92585197Y-84943717D01*
X92427493Y-84897900D01*
X92393076Y-84895191D01*
X92388197Y-84895000D01*
X91750000Y-84895000D01*
X91250000Y-84895000D01*
X90611803Y-84895000D01*
X90606923Y-84895191D01*
X90572506Y-84897900D01*
X90414802Y-84943717D01*
X90273442Y-85027317D01*
X90157317Y-85143442D01*
X90073717Y-85284802D01*
X90028632Y-85439985D01*
X89991026Y-85498871D01*
X89927553Y-85528077D01*
X89858366Y-85518331D01*
X89821875Y-85493071D01*
X87477418Y-83148614D01*
X87443933Y-83087291D01*
X87441099Y-83060933D01*
X87441099Y-82389804D01*
X87441099Y-82389802D01*
X87441099Y-82386656D01*
X87430487Y-82282774D01*
X87374715Y-82114462D01*
X87281630Y-81963548D01*
X87281629Y-81963547D01*
X87281628Y-81963545D01*
X87156251Y-81838168D01*
X87155563Y-81837744D01*
X87153201Y-81835118D01*
X87146004Y-81827921D01*
X87146384Y-81827540D01*
X87108838Y-81785796D01*
X87097617Y-81716833D01*
X87125460Y-81652751D01*
X87142308Y-81638153D01*
X87274916Y-81505545D01*
X87366957Y-81356322D01*
X87422106Y-81189896D01*
X87432280Y-81090309D01*
X87432600Y-81084031D01*
X87432600Y-80949700D01*
X84982601Y-80949700D01*
X84982601Y-81084029D01*
X84982921Y-81090311D01*
X84993093Y-81189895D01*
X85048242Y-81356322D01*
X85140283Y-81505545D01*
X85274504Y-81639766D01*
X85272878Y-81641391D01*
X85306359Y-81678612D01*
X85317583Y-81747575D01*
X85289741Y-81811658D01*
X85259640Y-81837742D01*
X85258948Y-81838168D01*
X85133571Y-81963545D01*
X85040484Y-82114463D01*
X84984712Y-82282773D01*
X84974419Y-82383524D01*
X84974418Y-82383541D01*
X84974100Y-82386655D01*
X84974100Y-82604671D01*
X84974101Y-82742500D01*
X84954417Y-82809539D01*
X84901613Y-82855294D01*
X84850101Y-82866500D01*
X83482500Y-82866500D01*
X83415461Y-82846815D01*
X83369706Y-82794011D01*
X83358500Y-82742500D01*
X83358500Y-82604671D01*
X83358500Y-82601362D01*
X83351989Y-82540799D01*
X83351988Y-82540797D01*
X83351988Y-82540794D01*
X83300889Y-82403796D01*
X83213261Y-82286738D01*
X83096203Y-82199110D01*
X82978405Y-82155173D01*
X82922471Y-82113302D01*
X82898055Y-82047837D01*
X82912907Y-81979564D01*
X82930507Y-81955011D01*
X83075722Y-81797268D01*
X83198860Y-81608791D01*
X83289296Y-81402616D01*
X83344564Y-81184368D01*
X83363156Y-80960000D01*
X83344564Y-80735632D01*
X83314516Y-80616981D01*
X83317142Y-80547161D01*
X83347040Y-80498862D01*
X83396202Y-80449700D01*
X84982600Y-80449700D01*
X85957600Y-80449700D01*
X85957600Y-79612200D01*
X86457600Y-79612200D01*
X86457600Y-80449700D01*
X87432599Y-80449700D01*
X87432599Y-80315370D01*
X87432278Y-80309088D01*
X87422106Y-80209504D01*
X87366957Y-80043077D01*
X87274916Y-79893854D01*
X87150945Y-79769883D01*
X87001722Y-79677842D01*
X86835296Y-79622693D01*
X86735709Y-79612519D01*
X86729432Y-79612200D01*
X86457600Y-79612200D01*
X85957600Y-79612200D01*
X85685771Y-79612200D01*
X85679488Y-79612521D01*
X85579904Y-79622693D01*
X85413477Y-79677842D01*
X85264254Y-79769883D01*
X85140283Y-79893854D01*
X85048242Y-80043077D01*
X84993093Y-80209503D01*
X84982919Y-80309090D01*
X84982600Y-80315368D01*
X84982600Y-80449700D01*
X83396202Y-80449700D01*
X85293579Y-78552324D01*
X89421224Y-78552324D01*
X89581171Y-78592103D01*
X89621804Y-78594858D01*
X89625996Y-78595000D01*
X90923996Y-78595000D01*
X90928187Y-78594858D01*
X90968819Y-78592103D01*
X91128766Y-78552323D01*
X90274997Y-77698553D01*
X90274996Y-77698553D01*
X89421224Y-78552323D01*
X89421224Y-78552324D01*
X85293579Y-78552324D01*
X86051903Y-77794000D01*
X88824996Y-77794000D01*
X88825137Y-77798191D01*
X88827892Y-77838819D01*
X88873827Y-78023521D01*
X88958389Y-78194027D01*
X89009202Y-78257240D01*
X89921443Y-77345000D01*
X90628549Y-77345000D01*
X91540788Y-78257240D01*
X91540789Y-78257239D01*
X91591603Y-78194026D01*
X91676164Y-78023523D01*
X91722099Y-77838819D01*
X91724854Y-77798191D01*
X91724996Y-77794000D01*
X91724996Y-76895999D01*
X91724854Y-76891808D01*
X91722099Y-76851180D01*
X91676164Y-76666478D01*
X91591602Y-76495972D01*
X91540789Y-76432759D01*
X90628549Y-77344999D01*
X90628549Y-77345000D01*
X89921443Y-77345000D01*
X89009201Y-76432758D01*
X88958389Y-76495972D01*
X88873827Y-76666478D01*
X88827892Y-76851180D01*
X88825137Y-76891808D01*
X88824996Y-76895999D01*
X88824996Y-77794000D01*
X86051903Y-77794000D01*
X88371084Y-75474819D01*
X88432408Y-75441334D01*
X88458766Y-75438500D01*
X88764145Y-75438500D01*
X88831184Y-75458185D01*
X88874630Y-75506205D01*
X88919284Y-75593842D01*
X88954949Y-75663839D01*
X89071826Y-75808170D01*
X89216157Y-75925047D01*
X89357231Y-75996928D01*
X89408027Y-76044903D01*
X89424822Y-76112724D01*
X89420923Y-76137373D01*
X90274996Y-76991446D01*
X90274997Y-76991446D01*
X91129630Y-76136810D01*
X91130607Y-76070724D01*
X91169246Y-76012510D01*
X91192756Y-75996930D01*
X91333835Y-75925047D01*
X91478166Y-75808170D01*
X91595043Y-75663839D01*
X91679358Y-75498362D01*
X91727426Y-75318971D01*
X91733496Y-75241843D01*
X91733495Y-74368158D01*
X91727426Y-74291029D01*
X91679358Y-74111638D01*
X91595043Y-73946161D01*
X91525704Y-73860535D01*
X91498813Y-73796048D01*
X91511055Y-73727259D01*
X91558544Y-73676009D01*
X91622071Y-73658500D01*
X96304453Y-73658500D01*
X96371492Y-73678185D01*
X96392134Y-73694819D01*
X97080177Y-74382862D01*
X97113662Y-74444185D01*
X97116496Y-74470543D01*
X97116496Y-75239420D01*
X97116496Y-75239445D01*
X97116497Y-75241842D01*
X97116685Y-75244233D01*
X97116686Y-75244254D01*
X97122566Y-75318971D01*
X97170633Y-75498361D01*
X97240759Y-75635989D01*
X97254949Y-75663839D01*
X97371826Y-75808170D01*
X97516157Y-75925047D01*
X97588007Y-75961656D01*
X97593617Y-75964515D01*
X97644413Y-76012490D01*
X97661208Y-76080311D01*
X97638670Y-76146446D01*
X97593617Y-76185485D01*
X97516156Y-76224953D01*
X97371826Y-76341830D01*
X97254949Y-76486160D01*
X97170633Y-76651637D01*
X97122566Y-76831029D01*
X97116687Y-76905722D01*
X97116686Y-76905738D01*
X97116496Y-76908157D01*
X97116496Y-76910601D01*
X97116496Y-76910602D01*
X97116496Y-77779420D01*
X97116496Y-77779445D01*
X97116497Y-77781842D01*
X97116685Y-77784233D01*
X97116686Y-77784254D01*
X97122566Y-77858971D01*
X97170633Y-78038361D01*
X97254949Y-78203839D01*
X97368124Y-78343599D01*
X97371827Y-78348171D01*
X97476053Y-78432571D01*
X97515765Y-78490058D01*
X97518093Y-78559888D01*
X97485699Y-78616618D01*
X96697138Y-79405181D01*
X96635815Y-79438666D01*
X96609457Y-79441500D01*
X95064295Y-79441500D01*
X95046325Y-79440191D01*
X95032233Y-79438127D01*
X95022211Y-79436659D01*
X95022210Y-79436659D01*
X94972274Y-79441028D01*
X94961467Y-79441500D01*
X94955820Y-79441500D01*
X94952258Y-79441916D01*
X94952246Y-79441917D01*
X94924682Y-79445139D01*
X94921097Y-79445505D01*
X94844419Y-79452214D01*
X94824973Y-79456524D01*
X94752652Y-79482847D01*
X94749249Y-79484030D01*
X94676160Y-79508250D01*
X94658239Y-79516925D01*
X94593901Y-79559241D01*
X94590861Y-79561178D01*
X94525359Y-79601580D01*
X94509916Y-79614160D01*
X94457052Y-79670191D01*
X94454541Y-79672776D01*
X93317138Y-80810181D01*
X93255815Y-80843666D01*
X93229457Y-80846500D01*
X92863256Y-80846500D01*
X92859591Y-80846940D01*
X92859592Y-80846940D01*
X92774899Y-80857110D01*
X92634305Y-80912554D01*
X92513877Y-81003877D01*
X92422554Y-81124305D01*
X92367110Y-81264899D01*
X92367110Y-81264903D01*
X92356500Y-81353256D01*
X92356500Y-81946744D01*
X92356940Y-81950407D01*
X92367110Y-82035100D01*
X92384623Y-82079508D01*
X92390905Y-82149094D01*
X92384624Y-82170486D01*
X92367110Y-82214898D01*
X92357996Y-82290799D01*
X92356500Y-82303256D01*
X92356500Y-82896744D01*
X92356940Y-82900407D01*
X92367110Y-82985099D01*
X92384624Y-83029511D01*
X92390905Y-83099098D01*
X92384624Y-83120489D01*
X92367110Y-83164900D01*
X92361260Y-83213617D01*
X92356500Y-83253256D01*
X92356500Y-83846744D01*
X92356940Y-83850407D01*
X92367110Y-83935100D01*
X92421152Y-84072138D01*
X92422555Y-84075696D01*
X92453664Y-84116718D01*
X92513877Y-84196122D01*
X92552999Y-84225789D01*
X92634304Y-84287445D01*
X92673214Y-84302789D01*
X92774899Y-84342889D01*
X92774901Y-84342889D01*
X92774903Y-84342890D01*
X92863256Y-84353500D01*
X92866956Y-84353500D01*
X94233044Y-84353500D01*
X94236744Y-84353500D01*
X94325097Y-84342890D01*
X94465696Y-84287445D01*
X94586122Y-84196122D01*
X94631530Y-84136243D01*
X94687721Y-84094721D01*
X94757442Y-84090169D01*
X94818556Y-84124033D01*
X94829136Y-84136243D01*
X94869943Y-84190054D01*
X94988510Y-84279966D01*
X95126931Y-84334553D01*
X95210258Y-84344559D01*
X95217622Y-84345000D01*
X95650000Y-84345000D01*
X95650000Y-83527500D01*
X95669685Y-83460461D01*
X95722489Y-83414706D01*
X95774000Y-83403500D01*
X96026000Y-83403500D01*
X96093039Y-83423185D01*
X96138794Y-83475989D01*
X96150000Y-83527500D01*
X96150000Y-84345000D01*
X96317499Y-84345000D01*
X96384538Y-84364685D01*
X96430293Y-84417489D01*
X96441499Y-84469000D01*
X96441499Y-84579457D01*
X96421814Y-84646496D01*
X96405180Y-84667138D01*
X96222138Y-84850181D01*
X96160815Y-84883666D01*
X96134457Y-84886500D01*
X95558498Y-84886500D01*
X95556077Y-84886690D01*
X95556065Y-84886691D01*
X95521165Y-84889438D01*
X95361399Y-84935854D01*
X95218191Y-85020547D01*
X95100547Y-85138191D01*
X95015854Y-85281399D01*
X94969438Y-85441165D01*
X94969137Y-85444999D01*
X94966500Y-85478498D01*
X94966500Y-85911502D01*
X94966690Y-85913923D01*
X94966691Y-85913934D01*
X94969438Y-85948834D01*
X95015854Y-86108600D01*
X95108521Y-86265291D01*
X95104802Y-86267490D01*
X95124543Y-86303642D01*
X95119559Y-86373334D01*
X95106565Y-86393552D01*
X95108521Y-86394709D01*
X95015854Y-86551399D01*
X94969438Y-86711165D01*
X94968424Y-86724058D01*
X94966500Y-86748498D01*
X94966500Y-87181502D01*
X94966690Y-87183923D01*
X94966691Y-87183934D01*
X94969438Y-87218834D01*
X95015854Y-87378600D01*
X95015855Y-87378601D01*
X95096457Y-87514892D01*
X95108521Y-87535290D01*
X95104804Y-87537488D01*
X95124552Y-87573680D01*
X95119545Y-87643370D01*
X95106571Y-87663557D01*
X95108521Y-87664710D01*
X95015854Y-87821399D01*
X94969438Y-87981165D01*
X94969438Y-87981169D01*
X94966500Y-88018498D01*
X94966500Y-88451502D01*
X94966690Y-88453923D01*
X94966691Y-88453934D01*
X94969438Y-88488834D01*
X95015854Y-88648600D01*
X95108521Y-88805291D01*
X95104802Y-88807490D01*
X95124543Y-88843642D01*
X95119559Y-88913334D01*
X95106568Y-88933555D01*
X95108521Y-88934710D01*
X95015854Y-89091399D01*
X94969438Y-89251165D01*
X94968741Y-89260028D01*
X94966500Y-89288498D01*
X94966500Y-89721502D01*
X94966690Y-89723923D01*
X94966691Y-89723934D01*
X94969438Y-89758834D01*
X95015854Y-89918600D01*
X95100547Y-90061808D01*
X95218191Y-90179452D01*
X95361399Y-90264145D01*
X95521165Y-90310561D01*
X95521169Y-90310562D01*
X95558498Y-90313500D01*
X95560943Y-90313500D01*
X97339057Y-90313500D01*
X97341502Y-90313500D01*
X97378831Y-90310562D01*
X97538601Y-90264145D01*
X97681807Y-90179453D01*
X97799453Y-90061807D01*
X97884145Y-89918601D01*
X97930562Y-89758831D01*
X97933500Y-89721502D01*
X97933500Y-89288498D01*
X97930562Y-89251169D01*
X97901779Y-89152095D01*
X97901858Y-89124334D01*
X109499500Y-89124334D01*
X109540429Y-89369615D01*
X109621170Y-89604805D01*
X109621172Y-89604810D01*
X109739526Y-89823509D01*
X109739529Y-89823514D01*
X109866975Y-89987255D01*
X109892262Y-90019744D01*
X110075215Y-90188164D01*
X110283393Y-90324173D01*
X110511119Y-90424063D01*
X110752179Y-90485108D01*
X110937933Y-90500500D01*
X110940503Y-90500500D01*
X111059497Y-90500500D01*
X111062067Y-90500500D01*
X111247821Y-90485108D01*
X111488881Y-90424063D01*
X111716607Y-90324173D01*
X111924785Y-90188164D01*
X112107738Y-90019744D01*
X112260474Y-89823509D01*
X112378828Y-89604810D01*
X112459571Y-89369614D01*
X112500500Y-89124335D01*
X112500500Y-88875665D01*
X112459571Y-88630386D01*
X112378828Y-88395190D01*
X112260474Y-88176491D01*
X112260471Y-88176487D01*
X112260470Y-88176485D01*
X112135609Y-88016065D01*
X112107738Y-87980256D01*
X111924785Y-87811836D01*
X111716607Y-87675827D01*
X111716604Y-87675825D01*
X111591523Y-87620960D01*
X111488881Y-87575937D01*
X111275128Y-87521807D01*
X111247822Y-87514892D01*
X111213854Y-87512077D01*
X111062067Y-87499500D01*
X110937933Y-87499500D01*
X110820111Y-87509262D01*
X110752177Y-87514892D01*
X110630087Y-87545810D01*
X110511119Y-87575937D01*
X110511116Y-87575938D01*
X110511117Y-87575938D01*
X110283395Y-87675825D01*
X110144607Y-87766499D01*
X110075215Y-87811836D01*
X109976600Y-87902618D01*
X109892259Y-87980259D01*
X109739529Y-88176485D01*
X109621170Y-88395194D01*
X109540429Y-88630384D01*
X109499500Y-88875665D01*
X109499500Y-89124334D01*
X97901858Y-89124334D01*
X97901978Y-89082225D01*
X97939920Y-89023555D01*
X98003559Y-88994712D01*
X98020855Y-88993500D01*
X105200706Y-88993500D01*
X105218676Y-88994809D01*
X105222114Y-88995312D01*
X105242789Y-88998341D01*
X105292726Y-88993971D01*
X105303533Y-88993500D01*
X105305571Y-88993500D01*
X105309180Y-88993500D01*
X105340370Y-88989853D01*
X105343851Y-88989498D01*
X105419426Y-88982887D01*
X105419429Y-88982885D01*
X105420594Y-88982784D01*
X105440015Y-88978478D01*
X105441110Y-88978079D01*
X105441113Y-88978079D01*
X105512414Y-88952126D01*
X105515708Y-88950981D01*
X105587738Y-88927114D01*
X105587742Y-88927111D01*
X105588863Y-88926740D01*
X105606751Y-88918080D01*
X105616755Y-88911500D01*
X105671103Y-88875753D01*
X105674129Y-88873826D01*
X105682764Y-88868500D01*
X105738651Y-88834030D01*
X105738655Y-88834025D01*
X105739650Y-88833412D01*
X105755069Y-88820853D01*
X105755870Y-88820003D01*
X105755874Y-88820001D01*
X105807962Y-88764789D01*
X105810408Y-88762271D01*
X109427861Y-85144819D01*
X109489185Y-85111334D01*
X109515543Y-85108500D01*
X111145328Y-85108500D01*
X111148638Y-85108500D01*
X111209201Y-85101989D01*
X111209203Y-85101988D01*
X111209205Y-85101988D01*
X111287124Y-85072924D01*
X111346204Y-85050889D01*
X111463261Y-84963261D01*
X111550889Y-84846204D01*
X111586872Y-84749732D01*
X111601988Y-84709205D01*
X111601988Y-84709203D01*
X111601989Y-84709201D01*
X111608500Y-84648638D01*
X111608500Y-83952548D01*
X111628185Y-83885509D01*
X111680989Y-83839754D01*
X111750147Y-83829810D01*
X111813703Y-83858835D01*
X111837492Y-83886574D01*
X111867983Y-83935100D01*
X111910185Y-84002264D01*
X112037735Y-84129814D01*
X112037737Y-84129815D01*
X112037738Y-84129816D01*
X112190478Y-84225789D01*
X112360745Y-84285368D01*
X112495046Y-84300500D01*
X112498530Y-84300500D01*
X112581470Y-84300500D01*
X112584954Y-84300500D01*
X112719255Y-84285368D01*
X112889522Y-84225789D01*
X113042262Y-84129816D01*
X113169816Y-84002262D01*
X113265789Y-83849522D01*
X113325368Y-83679255D01*
X113345565Y-83500000D01*
X113325368Y-83320745D01*
X113265789Y-83150478D01*
X113169816Y-82997738D01*
X113169815Y-82997737D01*
X113169814Y-82997735D01*
X113042264Y-82870185D01*
X112941158Y-82806656D01*
X112889522Y-82774211D01*
X112719255Y-82714632D01*
X112719251Y-82714631D01*
X112719250Y-82714631D01*
X112588420Y-82699890D01*
X112588410Y-82699889D01*
X112584954Y-82699500D01*
X112495046Y-82699500D01*
X112491590Y-82699889D01*
X112491579Y-82699890D01*
X112360749Y-82714631D01*
X112360746Y-82714631D01*
X112360745Y-82714632D01*
X112190478Y-82774211D01*
X112190476Y-82774211D01*
X112190476Y-82774212D01*
X112037735Y-82870185D01*
X111910184Y-82997736D01*
X111837494Y-83113423D01*
X111785159Y-83159714D01*
X111716106Y-83170362D01*
X111652257Y-83141987D01*
X111613885Y-83083598D01*
X111608500Y-83047451D01*
X111608500Y-82354671D01*
X111608500Y-82351362D01*
X111601989Y-82290799D01*
X111601988Y-82290797D01*
X111601988Y-82290794D01*
X111550889Y-82153796D01*
X111463262Y-82036740D01*
X111461071Y-82035100D01*
X111391524Y-81983037D01*
X111349654Y-81927104D01*
X111344670Y-81857413D01*
X111360109Y-81818981D01*
X111437616Y-81692502D01*
X111534505Y-81458591D01*
X111571148Y-81305960D01*
X111605937Y-81245370D01*
X111667963Y-81213205D01*
X111737532Y-81219681D01*
X111792556Y-81262740D01*
X111808761Y-81293950D01*
X111814209Y-81309518D01*
X111814210Y-81309520D01*
X111814211Y-81309522D01*
X111844016Y-81356956D01*
X111910185Y-81462264D01*
X112037735Y-81589814D01*
X112037737Y-81589815D01*
X112037738Y-81589816D01*
X112190478Y-81685789D01*
X112360745Y-81745368D01*
X112495046Y-81760500D01*
X112498530Y-81760500D01*
X112581470Y-81760500D01*
X112584954Y-81760500D01*
X112719255Y-81745368D01*
X112889522Y-81685789D01*
X113042262Y-81589816D01*
X113169816Y-81462262D01*
X113265789Y-81309522D01*
X113325368Y-81139255D01*
X113345565Y-80960000D01*
X113325368Y-80780745D01*
X113265789Y-80610478D01*
X113169816Y-80457738D01*
X113169815Y-80457737D01*
X113169814Y-80457735D01*
X113042264Y-80330185D01*
X112979867Y-80290979D01*
X112889522Y-80234211D01*
X112719255Y-80174632D01*
X112719251Y-80174631D01*
X112719250Y-80174631D01*
X112588420Y-80159890D01*
X112588410Y-80159889D01*
X112584954Y-80159500D01*
X112495046Y-80159500D01*
X112491590Y-80159889D01*
X112491579Y-80159890D01*
X112360749Y-80174631D01*
X112360746Y-80174631D01*
X112360745Y-80174632D01*
X112190478Y-80234211D01*
X112190476Y-80234211D01*
X112190476Y-80234212D01*
X112037735Y-80330185D01*
X111910185Y-80457735D01*
X111814209Y-80610480D01*
X111808761Y-80626050D01*
X111768037Y-80682824D01*
X111703084Y-80708569D01*
X111634522Y-80695111D01*
X111584121Y-80646722D01*
X111571147Y-80614037D01*
X111570292Y-80610476D01*
X111534505Y-80461409D01*
X111437616Y-80227498D01*
X111305328Y-80011624D01*
X111140898Y-79819102D01*
X110948376Y-79654672D01*
X110732502Y-79522384D01*
X110615546Y-79473939D01*
X110498590Y-79425494D01*
X110252404Y-79366391D01*
X110000000Y-79346526D01*
X109747593Y-79366391D01*
X109598580Y-79402165D01*
X109528798Y-79398674D01*
X109481953Y-79369272D01*
X107571804Y-77459123D01*
X107560021Y-77445489D01*
X107545469Y-77425942D01*
X107545467Y-77425940D01*
X107507060Y-77393712D01*
X107499085Y-77386404D01*
X105237015Y-75124334D01*
X109499500Y-75124334D01*
X109540429Y-75369615D01*
X109619053Y-75598638D01*
X109621172Y-75604810D01*
X109739526Y-75823509D01*
X109739529Y-75823514D01*
X109818556Y-75925047D01*
X109892262Y-76019744D01*
X110075215Y-76188164D01*
X110283393Y-76324173D01*
X110511119Y-76424063D01*
X110752179Y-76485108D01*
X110937933Y-76500500D01*
X110940503Y-76500500D01*
X111059497Y-76500500D01*
X111062067Y-76500500D01*
X111247821Y-76485108D01*
X111488881Y-76424063D01*
X111716607Y-76324173D01*
X111924785Y-76188164D01*
X112107738Y-76019744D01*
X112260474Y-75823509D01*
X112378828Y-75604810D01*
X112459571Y-75369614D01*
X112500500Y-75124335D01*
X112500500Y-74875665D01*
X112459571Y-74630386D01*
X112378828Y-74395190D01*
X112260474Y-74176491D01*
X112260471Y-74176487D01*
X112260470Y-74176485D01*
X112136636Y-74017384D01*
X112107738Y-73980256D01*
X111924785Y-73811836D01*
X111716607Y-73675827D01*
X111716604Y-73675825D01*
X111591523Y-73620960D01*
X111488881Y-73575937D01*
X111294904Y-73526815D01*
X111247822Y-73514892D01*
X111213854Y-73512077D01*
X111062067Y-73499500D01*
X110937933Y-73499500D01*
X110820111Y-73509262D01*
X110752177Y-73514892D01*
X110647107Y-73541500D01*
X110511119Y-73575937D01*
X110511116Y-73575938D01*
X110511117Y-73575938D01*
X110283395Y-73675825D01*
X110254323Y-73694819D01*
X110075215Y-73811836D01*
X109920026Y-73954698D01*
X109892259Y-73980259D01*
X109739529Y-74176485D01*
X109716531Y-74218982D01*
X109630385Y-74378167D01*
X109621170Y-74395194D01*
X109540429Y-74630384D01*
X109499500Y-74875665D01*
X109499500Y-75124334D01*
X105237015Y-75124334D01*
X104421804Y-74309123D01*
X104410021Y-74295489D01*
X104406700Y-74291028D01*
X104395469Y-74275942D01*
X104390160Y-74271487D01*
X104357060Y-74243712D01*
X104349085Y-74236404D01*
X104347653Y-74234972D01*
X104345101Y-74232420D01*
X104342276Y-74230186D01*
X104342269Y-74230180D01*
X104330588Y-74220944D01*
X104290211Y-74163922D01*
X104283499Y-74123677D01*
X104283499Y-74103795D01*
X104283500Y-74001362D01*
X104276989Y-73940799D01*
X104276988Y-73940797D01*
X104276988Y-73940794D01*
X104225889Y-73803796D01*
X104138261Y-73686738D01*
X104021203Y-73599110D01*
X103884205Y-73548011D01*
X103826924Y-73541853D01*
X103826918Y-73541852D01*
X103823638Y-73541500D01*
X102726362Y-73541500D01*
X102723082Y-73541852D01*
X102723075Y-73541853D01*
X102679854Y-73546500D01*
X102665799Y-73548011D01*
X102665798Y-73548011D01*
X102650314Y-73549676D01*
X102650172Y-73548364D01*
X102598635Y-73552048D01*
X102585285Y-73548127D01*
X102526924Y-73541853D01*
X102526918Y-73541852D01*
X102523638Y-73541500D01*
X101426362Y-73541500D01*
X101423082Y-73541852D01*
X101423075Y-73541853D01*
X101365794Y-73548011D01*
X101228796Y-73599110D01*
X101111738Y-73686738D01*
X101024110Y-73803796D01*
X100967567Y-73955392D01*
X100965706Y-73954698D01*
X100946812Y-74000310D01*
X100889418Y-74040156D01*
X100850263Y-74046500D01*
X100022156Y-74046500D01*
X99955117Y-74026815D01*
X99911672Y-73978796D01*
X99895044Y-73946162D01*
X99825705Y-73860536D01*
X99778166Y-73801830D01*
X99633835Y-73684953D01*
X99620552Y-73678185D01*
X99468358Y-73600637D01*
X99326876Y-73562727D01*
X99288967Y-73552570D01*
X99279713Y-73551841D01*
X99214273Y-73546691D01*
X99214258Y-73546690D01*
X99211839Y-73546500D01*
X99209394Y-73546500D01*
X98440539Y-73546500D01*
X98373500Y-73526815D01*
X98352858Y-73510181D01*
X97251800Y-72409123D01*
X97240017Y-72395489D01*
X97225465Y-72375942D01*
X97220150Y-72371482D01*
X97187056Y-72343712D01*
X97179081Y-72336404D01*
X97177649Y-72334972D01*
X97175097Y-72332420D01*
X97172274Y-72330187D01*
X97172263Y-72330178D01*
X97150508Y-72312976D01*
X97147715Y-72310701D01*
X97088744Y-72261219D01*
X97071959Y-72250525D01*
X97042700Y-72236881D01*
X96990261Y-72190708D01*
X96971110Y-72123515D01*
X96991327Y-72056634D01*
X97044493Y-72011300D01*
X97095106Y-72000500D01*
X114875500Y-72000500D01*
X114942539Y-72020185D01*
X114988294Y-72072989D01*
X114999500Y-72124500D01*
X114999500Y-91875500D01*
X114979815Y-91942539D01*
X114927011Y-91988294D01*
X114875500Y-91999500D01*
X80134000Y-91999500D01*
X80066961Y-91979815D01*
X80021206Y-91927011D01*
X80010000Y-91875500D01*
X80010000Y-72124500D01*
X80029685Y-72057461D01*
X80082489Y-72011706D01*
X80134000Y-72000500D01*
X83133110Y-72000500D01*
X83200149Y-72020185D01*
G37*
G04 #@! TD.AperFunction*
G04 #@! TA.AperFunction,Conductor*
G36*
X100942840Y-78728185D02*
G01*
X100988595Y-78780989D01*
X100992353Y-78794687D01*
X100992567Y-78794608D01*
X101049110Y-78946203D01*
X101136738Y-79063261D01*
X101253796Y-79150889D01*
X101390794Y-79201988D01*
X101390797Y-79201988D01*
X101390799Y-79201989D01*
X101451362Y-79208500D01*
X101454672Y-79208500D01*
X102545328Y-79208500D01*
X102548638Y-79208500D01*
X102609201Y-79201989D01*
X102609201Y-79201988D01*
X102624688Y-79200324D01*
X102624829Y-79201636D01*
X102676350Y-79197948D01*
X102689716Y-79201872D01*
X102690796Y-79201988D01*
X102690799Y-79201989D01*
X102751362Y-79208500D01*
X102754672Y-79208500D01*
X103845328Y-79208500D01*
X103848638Y-79208500D01*
X103909201Y-79201989D01*
X103909203Y-79201988D01*
X103909205Y-79201988D01*
X103987124Y-79172924D01*
X104046204Y-79150889D01*
X104163261Y-79063261D01*
X104250889Y-78946204D01*
X104265849Y-78906093D01*
X104307433Y-78794608D01*
X104310621Y-78795797D01*
X104327646Y-78754695D01*
X104385038Y-78714846D01*
X104424199Y-78708500D01*
X106624457Y-78708500D01*
X106691496Y-78728185D01*
X106712138Y-78744819D01*
X108409272Y-80441953D01*
X108442757Y-80503276D01*
X108442165Y-80558580D01*
X108406391Y-80707593D01*
X108386526Y-80960000D01*
X108406391Y-81212404D01*
X108465494Y-81458590D01*
X108467016Y-81462264D01*
X108562384Y-81692502D01*
X108639891Y-81818981D01*
X108658135Y-81886427D01*
X108637018Y-81953030D01*
X108608474Y-81983038D01*
X108536737Y-82036739D01*
X108449110Y-82153796D01*
X108398011Y-82290794D01*
X108391853Y-82348075D01*
X108391500Y-82351362D01*
X108391500Y-82354670D01*
X108391500Y-82354671D01*
X108391500Y-83984457D01*
X108371815Y-84051496D01*
X108355181Y-84072138D01*
X104987138Y-87440181D01*
X104925815Y-87473666D01*
X104899457Y-87476500D01*
X102103165Y-87476500D01*
X102036126Y-87456815D01*
X101990371Y-87404011D01*
X101980427Y-87334853D01*
X102003898Y-87278189D01*
X102068352Y-87192088D01*
X102118599Y-87057371D01*
X102124645Y-87001132D01*
X102125000Y-86994518D01*
X102125000Y-86450000D01*
X100999000Y-86450000D01*
X100931961Y-86430315D01*
X100886206Y-86377511D01*
X100875000Y-86326000D01*
X100875000Y-85950000D01*
X101375000Y-85950000D01*
X102125000Y-85950000D01*
X102125000Y-85405481D01*
X102124645Y-85398867D01*
X102118599Y-85342628D01*
X102068352Y-85207910D01*
X101982188Y-85092811D01*
X101867086Y-85006645D01*
X101748577Y-84962443D01*
X101713843Y-84936442D01*
X101664553Y-84950000D01*
X101375000Y-84950000D01*
X101375000Y-85950000D01*
X100875000Y-85950000D01*
X100875000Y-84950000D01*
X100580482Y-84950000D01*
X100573867Y-84950354D01*
X100502139Y-84958066D01*
X100501665Y-84953664D01*
X100460763Y-84956577D01*
X100443828Y-84951601D01*
X100434203Y-84948011D01*
X100376924Y-84941853D01*
X100376918Y-84941852D01*
X100373638Y-84941500D01*
X99411098Y-84941500D01*
X99344059Y-84921815D01*
X99298304Y-84869011D01*
X99288360Y-84799853D01*
X99317385Y-84736297D01*
X99372094Y-84699794D01*
X99494122Y-84659357D01*
X99643345Y-84567316D01*
X99767316Y-84443345D01*
X99859357Y-84294122D01*
X99914506Y-84127696D01*
X99924680Y-84028109D01*
X99925000Y-84021831D01*
X99925000Y-83875000D01*
X101125001Y-83875000D01*
X101125001Y-84021829D01*
X101125321Y-84028111D01*
X101135493Y-84127695D01*
X101190642Y-84294122D01*
X101282683Y-84443345D01*
X101406654Y-84567316D01*
X101555877Y-84659357D01*
X101703557Y-84708294D01*
X101742493Y-84735252D01*
X101800758Y-84722578D01*
X101804519Y-84722905D01*
X101821884Y-84724679D01*
X101828168Y-84724999D01*
X102074999Y-84724999D01*
X102075000Y-84724998D01*
X102075000Y-83875000D01*
X102575000Y-83875000D01*
X102575000Y-84724999D01*
X102821829Y-84724999D01*
X102828111Y-84724678D01*
X102927695Y-84714506D01*
X103094122Y-84659357D01*
X103243345Y-84567316D01*
X103367316Y-84443345D01*
X103459357Y-84294122D01*
X103514506Y-84127696D01*
X103524680Y-84028109D01*
X103525000Y-84021831D01*
X103525000Y-83875000D01*
X102575000Y-83875000D01*
X102075000Y-83875000D01*
X101125001Y-83875000D01*
X99925000Y-83875000D01*
X98599000Y-83875000D01*
X98531961Y-83855315D01*
X98486206Y-83802511D01*
X98475000Y-83751000D01*
X98475000Y-83499000D01*
X98494685Y-83431961D01*
X98547489Y-83386206D01*
X98599000Y-83375000D01*
X99924999Y-83375000D01*
X99924999Y-83228170D01*
X99924678Y-83221888D01*
X99914506Y-83122304D01*
X99859357Y-82955877D01*
X99767316Y-82806654D01*
X99679353Y-82718691D01*
X99645868Y-82657368D01*
X99650852Y-82587676D01*
X99679351Y-82543330D01*
X99774030Y-82448652D01*
X99854986Y-82317402D01*
X99906933Y-82270679D01*
X99960524Y-82258500D01*
X101089476Y-82258500D01*
X101156515Y-82278185D01*
X101195013Y-82317401D01*
X101215961Y-82351362D01*
X101275971Y-82448654D01*
X101370646Y-82543329D01*
X101404131Y-82604652D01*
X101399147Y-82674344D01*
X101370647Y-82718691D01*
X101282681Y-82806656D01*
X101190642Y-82955877D01*
X101135493Y-83122303D01*
X101125319Y-83221890D01*
X101125000Y-83228168D01*
X101125000Y-83375000D01*
X103524999Y-83375000D01*
X103524999Y-83228170D01*
X103524678Y-83221888D01*
X103514506Y-83122304D01*
X103459357Y-82955877D01*
X103367316Y-82806654D01*
X103279353Y-82718691D01*
X103245868Y-82657368D01*
X103250852Y-82587676D01*
X103279351Y-82543330D01*
X103374030Y-82448652D01*
X103467115Y-82297738D01*
X103522887Y-82129426D01*
X103533500Y-82025545D01*
X103533499Y-81224456D01*
X103522887Y-81120574D01*
X103467115Y-80952262D01*
X103374030Y-80801348D01*
X103374029Y-80801347D01*
X103374028Y-80801345D01*
X103248654Y-80675971D01*
X103097736Y-80582884D01*
X102929426Y-80527112D01*
X102828675Y-80516819D01*
X102828659Y-80516818D01*
X102825545Y-80516500D01*
X102822397Y-80516500D01*
X101827604Y-80516500D01*
X101827584Y-80516500D01*
X101824456Y-80516501D01*
X101821325Y-80516820D01*
X101821321Y-80516821D01*
X101720574Y-80527112D01*
X101552263Y-80582884D01*
X101401345Y-80675971D01*
X101275971Y-80801345D01*
X101225955Y-80882435D01*
X101204928Y-80916526D01*
X101195015Y-80932597D01*
X101143067Y-80979321D01*
X101089476Y-80991500D01*
X99960524Y-80991500D01*
X99893485Y-80971815D01*
X99854985Y-80932597D01*
X99845072Y-80916526D01*
X99774030Y-80801348D01*
X99774029Y-80801347D01*
X99774028Y-80801345D01*
X99648654Y-80675971D01*
X99497736Y-80582884D01*
X99329426Y-80527112D01*
X99228675Y-80516819D01*
X99228659Y-80516818D01*
X99225545Y-80516500D01*
X99222397Y-80516500D01*
X98227604Y-80516500D01*
X98227584Y-80516500D01*
X98224456Y-80516501D01*
X98221325Y-80516820D01*
X98221321Y-80516821D01*
X98120572Y-80527112D01*
X98018970Y-80560780D01*
X97949142Y-80563181D01*
X97889100Y-80527449D01*
X97857908Y-80464929D01*
X97865469Y-80395469D01*
X97892283Y-80355396D01*
X99065877Y-79181802D01*
X99079502Y-79170027D01*
X99099054Y-79155473D01*
X99131274Y-79117072D01*
X99138590Y-79109091D01*
X99139206Y-79108473D01*
X99142576Y-79105105D01*
X99162045Y-79080481D01*
X99164246Y-79077778D01*
X99213028Y-79019644D01*
X99213028Y-79019642D01*
X99213787Y-79018739D01*
X99224461Y-79001983D01*
X99224958Y-79000915D01*
X99224963Y-79000910D01*
X99257054Y-78932089D01*
X99258528Y-78929043D01*
X99292605Y-78861192D01*
X99292606Y-78861186D01*
X99293139Y-78860126D01*
X99299662Y-78841358D01*
X99306669Y-78807426D01*
X99339502Y-78745752D01*
X99400468Y-78711620D01*
X99428107Y-78708500D01*
X100875801Y-78708500D01*
X100942840Y-78728185D01*
G37*
G04 #@! TD.AperFunction*
M02*
