%TF.GenerationSoftware,KiCad,Pcbnew,7.0.2*%
%TF.CreationDate,2023-10-27T14:16:18+02:00*%
%TF.ProjectId,stcs05,73746373-3035-42e6-9b69-6361645f7063,rev?*%
%TF.SameCoordinates,Original*%
%TF.FileFunction,Legend,Top*%
%TF.FilePolarity,Positive*%
%FSLAX46Y46*%
G04 Gerber Fmt 4.6, Leading zero omitted, Abs format (unit mm)*
G04 Created by KiCad (PCBNEW 7.0.2) date 2023-10-27 14:16:18*
%MOMM*%
%LPD*%
G01*
G04 APERTURE LIST*
%ADD10C,0.150000*%
%ADD11C,0.120000*%
%ADD12C,0.127000*%
G04 APERTURE END LIST*
D10*
%TO.C,H2*%
X143013095Y-90162619D02*
X143013095Y-89162619D01*
X143013095Y-89638809D02*
X143584523Y-89638809D01*
X143584523Y-90162619D02*
X143584523Y-89162619D01*
X144013095Y-89257857D02*
X144060714Y-89210238D01*
X144060714Y-89210238D02*
X144155952Y-89162619D01*
X144155952Y-89162619D02*
X144394047Y-89162619D01*
X144394047Y-89162619D02*
X144489285Y-89210238D01*
X144489285Y-89210238D02*
X144536904Y-89257857D01*
X144536904Y-89257857D02*
X144584523Y-89353095D01*
X144584523Y-89353095D02*
X144584523Y-89448333D01*
X144584523Y-89448333D02*
X144536904Y-89591190D01*
X144536904Y-89591190D02*
X143965476Y-90162619D01*
X143965476Y-90162619D02*
X144584523Y-90162619D01*
%TO.C,R2*%
X127595333Y-75772619D02*
X127262000Y-75296428D01*
X127023905Y-75772619D02*
X127023905Y-74772619D01*
X127023905Y-74772619D02*
X127404857Y-74772619D01*
X127404857Y-74772619D02*
X127500095Y-74820238D01*
X127500095Y-74820238D02*
X127547714Y-74867857D01*
X127547714Y-74867857D02*
X127595333Y-74963095D01*
X127595333Y-74963095D02*
X127595333Y-75105952D01*
X127595333Y-75105952D02*
X127547714Y-75201190D01*
X127547714Y-75201190D02*
X127500095Y-75248809D01*
X127500095Y-75248809D02*
X127404857Y-75296428D01*
X127404857Y-75296428D02*
X127023905Y-75296428D01*
X127976286Y-74867857D02*
X128023905Y-74820238D01*
X128023905Y-74820238D02*
X128119143Y-74772619D01*
X128119143Y-74772619D02*
X128357238Y-74772619D01*
X128357238Y-74772619D02*
X128452476Y-74820238D01*
X128452476Y-74820238D02*
X128500095Y-74867857D01*
X128500095Y-74867857D02*
X128547714Y-74963095D01*
X128547714Y-74963095D02*
X128547714Y-75058333D01*
X128547714Y-75058333D02*
X128500095Y-75201190D01*
X128500095Y-75201190D02*
X127928667Y-75772619D01*
X127928667Y-75772619D02*
X128547714Y-75772619D01*
%TO.C,J2*%
X139944619Y-79367333D02*
X140658904Y-79367333D01*
X140658904Y-79367333D02*
X140801761Y-79414952D01*
X140801761Y-79414952D02*
X140897000Y-79510190D01*
X140897000Y-79510190D02*
X140944619Y-79653047D01*
X140944619Y-79653047D02*
X140944619Y-79748285D01*
X140039857Y-78938761D02*
X139992238Y-78891142D01*
X139992238Y-78891142D02*
X139944619Y-78795904D01*
X139944619Y-78795904D02*
X139944619Y-78557809D01*
X139944619Y-78557809D02*
X139992238Y-78462571D01*
X139992238Y-78462571D02*
X140039857Y-78414952D01*
X140039857Y-78414952D02*
X140135095Y-78367333D01*
X140135095Y-78367333D02*
X140230333Y-78367333D01*
X140230333Y-78367333D02*
X140373190Y-78414952D01*
X140373190Y-78414952D02*
X140944619Y-78986380D01*
X140944619Y-78986380D02*
X140944619Y-78367333D01*
%TO.C,R3*%
X123525619Y-81700666D02*
X123049428Y-82033999D01*
X123525619Y-82272094D02*
X122525619Y-82272094D01*
X122525619Y-82272094D02*
X122525619Y-81891142D01*
X122525619Y-81891142D02*
X122573238Y-81795904D01*
X122573238Y-81795904D02*
X122620857Y-81748285D01*
X122620857Y-81748285D02*
X122716095Y-81700666D01*
X122716095Y-81700666D02*
X122858952Y-81700666D01*
X122858952Y-81700666D02*
X122954190Y-81748285D01*
X122954190Y-81748285D02*
X123001809Y-81795904D01*
X123001809Y-81795904D02*
X123049428Y-81891142D01*
X123049428Y-81891142D02*
X123049428Y-82272094D01*
X122525619Y-81367332D02*
X122525619Y-80748285D01*
X122525619Y-80748285D02*
X122906571Y-81081618D01*
X122906571Y-81081618D02*
X122906571Y-80938761D01*
X122906571Y-80938761D02*
X122954190Y-80843523D01*
X122954190Y-80843523D02*
X123001809Y-80795904D01*
X123001809Y-80795904D02*
X123097047Y-80748285D01*
X123097047Y-80748285D02*
X123335142Y-80748285D01*
X123335142Y-80748285D02*
X123430380Y-80795904D01*
X123430380Y-80795904D02*
X123478000Y-80843523D01*
X123478000Y-80843523D02*
X123525619Y-80938761D01*
X123525619Y-80938761D02*
X123525619Y-81224475D01*
X123525619Y-81224475D02*
X123478000Y-81319713D01*
X123478000Y-81319713D02*
X123430380Y-81367332D01*
%TO.C,JP1*%
X131119666Y-71620619D02*
X131119666Y-72334904D01*
X131119666Y-72334904D02*
X131072047Y-72477761D01*
X131072047Y-72477761D02*
X130976809Y-72573000D01*
X130976809Y-72573000D02*
X130833952Y-72620619D01*
X130833952Y-72620619D02*
X130738714Y-72620619D01*
X131595857Y-72620619D02*
X131595857Y-71620619D01*
X131595857Y-71620619D02*
X131976809Y-71620619D01*
X131976809Y-71620619D02*
X132072047Y-71668238D01*
X132072047Y-71668238D02*
X132119666Y-71715857D01*
X132119666Y-71715857D02*
X132167285Y-71811095D01*
X132167285Y-71811095D02*
X132167285Y-71953952D01*
X132167285Y-71953952D02*
X132119666Y-72049190D01*
X132119666Y-72049190D02*
X132072047Y-72096809D01*
X132072047Y-72096809D02*
X131976809Y-72144428D01*
X131976809Y-72144428D02*
X131595857Y-72144428D01*
X133119666Y-72620619D02*
X132548238Y-72620619D01*
X132833952Y-72620619D02*
X132833952Y-71620619D01*
X132833952Y-71620619D02*
X132738714Y-71763476D01*
X132738714Y-71763476D02*
X132643476Y-71858714D01*
X132643476Y-71858714D02*
X132548238Y-71906333D01*
%TO.C,R4*%
X131652619Y-87034666D02*
X131176428Y-87367999D01*
X131652619Y-87606094D02*
X130652619Y-87606094D01*
X130652619Y-87606094D02*
X130652619Y-87225142D01*
X130652619Y-87225142D02*
X130700238Y-87129904D01*
X130700238Y-87129904D02*
X130747857Y-87082285D01*
X130747857Y-87082285D02*
X130843095Y-87034666D01*
X130843095Y-87034666D02*
X130985952Y-87034666D01*
X130985952Y-87034666D02*
X131081190Y-87082285D01*
X131081190Y-87082285D02*
X131128809Y-87129904D01*
X131128809Y-87129904D02*
X131176428Y-87225142D01*
X131176428Y-87225142D02*
X131176428Y-87606094D01*
X130985952Y-86177523D02*
X131652619Y-86177523D01*
X130605000Y-86415618D02*
X131319285Y-86653713D01*
X131319285Y-86653713D02*
X131319285Y-86034666D01*
%TO.C,U2*%
X122613095Y-74612619D02*
X122613095Y-75422142D01*
X122613095Y-75422142D02*
X122660714Y-75517380D01*
X122660714Y-75517380D02*
X122708333Y-75565000D01*
X122708333Y-75565000D02*
X122803571Y-75612619D01*
X122803571Y-75612619D02*
X122994047Y-75612619D01*
X122994047Y-75612619D02*
X123089285Y-75565000D01*
X123089285Y-75565000D02*
X123136904Y-75517380D01*
X123136904Y-75517380D02*
X123184523Y-75422142D01*
X123184523Y-75422142D02*
X123184523Y-74612619D01*
X123613095Y-74707857D02*
X123660714Y-74660238D01*
X123660714Y-74660238D02*
X123755952Y-74612619D01*
X123755952Y-74612619D02*
X123994047Y-74612619D01*
X123994047Y-74612619D02*
X124089285Y-74660238D01*
X124089285Y-74660238D02*
X124136904Y-74707857D01*
X124136904Y-74707857D02*
X124184523Y-74803095D01*
X124184523Y-74803095D02*
X124184523Y-74898333D01*
X124184523Y-74898333D02*
X124136904Y-75041190D01*
X124136904Y-75041190D02*
X123565476Y-75612619D01*
X123565476Y-75612619D02*
X124184523Y-75612619D01*
%TO.C,*%
%TO.C,U1*%
X126400074Y-84666865D02*
X126400074Y-85304286D01*
X126400074Y-85304286D02*
X126437570Y-85379276D01*
X126437570Y-85379276D02*
X126475065Y-85416772D01*
X126475065Y-85416772D02*
X126550056Y-85454267D01*
X126550056Y-85454267D02*
X126700037Y-85454267D01*
X126700037Y-85454267D02*
X126775028Y-85416772D01*
X126775028Y-85416772D02*
X126812523Y-85379276D01*
X126812523Y-85379276D02*
X126850018Y-85304286D01*
X126850018Y-85304286D02*
X126850018Y-84666865D01*
X127637420Y-85454267D02*
X127187476Y-85454267D01*
X127412448Y-85454267D02*
X127412448Y-84666865D01*
X127412448Y-84666865D02*
X127337457Y-84779351D01*
X127337457Y-84779351D02*
X127262467Y-84854342D01*
X127262467Y-84854342D02*
X127187476Y-84891837D01*
%TO.C,R1*%
X136231333Y-72597619D02*
X135898000Y-72121428D01*
X135659905Y-72597619D02*
X135659905Y-71597619D01*
X135659905Y-71597619D02*
X136040857Y-71597619D01*
X136040857Y-71597619D02*
X136136095Y-71645238D01*
X136136095Y-71645238D02*
X136183714Y-71692857D01*
X136183714Y-71692857D02*
X136231333Y-71788095D01*
X136231333Y-71788095D02*
X136231333Y-71930952D01*
X136231333Y-71930952D02*
X136183714Y-72026190D01*
X136183714Y-72026190D02*
X136136095Y-72073809D01*
X136136095Y-72073809D02*
X136040857Y-72121428D01*
X136040857Y-72121428D02*
X135659905Y-72121428D01*
X137183714Y-72597619D02*
X136612286Y-72597619D01*
X136898000Y-72597619D02*
X136898000Y-71597619D01*
X136898000Y-71597619D02*
X136802762Y-71740476D01*
X136802762Y-71740476D02*
X136707524Y-71835714D01*
X136707524Y-71835714D02*
X136612286Y-71883333D01*
%TO.C,C2*%
X131714380Y-77001666D02*
X131762000Y-77049285D01*
X131762000Y-77049285D02*
X131809619Y-77192142D01*
X131809619Y-77192142D02*
X131809619Y-77287380D01*
X131809619Y-77287380D02*
X131762000Y-77430237D01*
X131762000Y-77430237D02*
X131666761Y-77525475D01*
X131666761Y-77525475D02*
X131571523Y-77573094D01*
X131571523Y-77573094D02*
X131381047Y-77620713D01*
X131381047Y-77620713D02*
X131238190Y-77620713D01*
X131238190Y-77620713D02*
X131047714Y-77573094D01*
X131047714Y-77573094D02*
X130952476Y-77525475D01*
X130952476Y-77525475D02*
X130857238Y-77430237D01*
X130857238Y-77430237D02*
X130809619Y-77287380D01*
X130809619Y-77287380D02*
X130809619Y-77192142D01*
X130809619Y-77192142D02*
X130857238Y-77049285D01*
X130857238Y-77049285D02*
X130904857Y-77001666D01*
X130904857Y-76620713D02*
X130857238Y-76573094D01*
X130857238Y-76573094D02*
X130809619Y-76477856D01*
X130809619Y-76477856D02*
X130809619Y-76239761D01*
X130809619Y-76239761D02*
X130857238Y-76144523D01*
X130857238Y-76144523D02*
X130904857Y-76096904D01*
X130904857Y-76096904D02*
X131000095Y-76049285D01*
X131000095Y-76049285D02*
X131095333Y-76049285D01*
X131095333Y-76049285D02*
X131238190Y-76096904D01*
X131238190Y-76096904D02*
X131809619Y-76668332D01*
X131809619Y-76668332D02*
X131809619Y-76049285D01*
%TO.C,C1*%
X126634380Y-86780666D02*
X126682000Y-86828285D01*
X126682000Y-86828285D02*
X126729619Y-86971142D01*
X126729619Y-86971142D02*
X126729619Y-87066380D01*
X126729619Y-87066380D02*
X126682000Y-87209237D01*
X126682000Y-87209237D02*
X126586761Y-87304475D01*
X126586761Y-87304475D02*
X126491523Y-87352094D01*
X126491523Y-87352094D02*
X126301047Y-87399713D01*
X126301047Y-87399713D02*
X126158190Y-87399713D01*
X126158190Y-87399713D02*
X125967714Y-87352094D01*
X125967714Y-87352094D02*
X125872476Y-87304475D01*
X125872476Y-87304475D02*
X125777238Y-87209237D01*
X125777238Y-87209237D02*
X125729619Y-87066380D01*
X125729619Y-87066380D02*
X125729619Y-86971142D01*
X125729619Y-86971142D02*
X125777238Y-86828285D01*
X125777238Y-86828285D02*
X125824857Y-86780666D01*
X126729619Y-85828285D02*
X126729619Y-86399713D01*
X126729619Y-86113999D02*
X125729619Y-86113999D01*
X125729619Y-86113999D02*
X125872476Y-86209237D01*
X125872476Y-86209237D02*
X125967714Y-86304475D01*
X125967714Y-86304475D02*
X126015333Y-86399713D01*
%TO.C,JP2*%
X139237619Y-88033333D02*
X139951904Y-88033333D01*
X139951904Y-88033333D02*
X140094761Y-88080952D01*
X140094761Y-88080952D02*
X140190000Y-88176190D01*
X140190000Y-88176190D02*
X140237619Y-88319047D01*
X140237619Y-88319047D02*
X140237619Y-88414285D01*
X140237619Y-87557142D02*
X139237619Y-87557142D01*
X139237619Y-87557142D02*
X139237619Y-87176190D01*
X139237619Y-87176190D02*
X139285238Y-87080952D01*
X139285238Y-87080952D02*
X139332857Y-87033333D01*
X139332857Y-87033333D02*
X139428095Y-86985714D01*
X139428095Y-86985714D02*
X139570952Y-86985714D01*
X139570952Y-86985714D02*
X139666190Y-87033333D01*
X139666190Y-87033333D02*
X139713809Y-87080952D01*
X139713809Y-87080952D02*
X139761428Y-87176190D01*
X139761428Y-87176190D02*
X139761428Y-87557142D01*
X139332857Y-86604761D02*
X139285238Y-86557142D01*
X139285238Y-86557142D02*
X139237619Y-86461904D01*
X139237619Y-86461904D02*
X139237619Y-86223809D01*
X139237619Y-86223809D02*
X139285238Y-86128571D01*
X139285238Y-86128571D02*
X139332857Y-86080952D01*
X139332857Y-86080952D02*
X139428095Y-86033333D01*
X139428095Y-86033333D02*
X139523333Y-86033333D01*
X139523333Y-86033333D02*
X139666190Y-86080952D01*
X139666190Y-86080952D02*
X140237619Y-86652380D01*
X140237619Y-86652380D02*
X140237619Y-86033333D01*
%TO.C,H1*%
X142748095Y-71074619D02*
X142748095Y-70074619D01*
X142748095Y-70550809D02*
X143319523Y-70550809D01*
X143319523Y-71074619D02*
X143319523Y-70074619D01*
X144319523Y-71074619D02*
X143748095Y-71074619D01*
X144033809Y-71074619D02*
X144033809Y-70074619D01*
X144033809Y-70074619D02*
X143938571Y-70217476D01*
X143938571Y-70217476D02*
X143843333Y-70312714D01*
X143843333Y-70312714D02*
X143748095Y-70360333D01*
%TO.C,J1*%
X118066666Y-68592619D02*
X118066666Y-69306904D01*
X118066666Y-69306904D02*
X118019047Y-69449761D01*
X118019047Y-69449761D02*
X117923809Y-69545000D01*
X117923809Y-69545000D02*
X117780952Y-69592619D01*
X117780952Y-69592619D02*
X117685714Y-69592619D01*
X119066666Y-69592619D02*
X118495238Y-69592619D01*
X118780952Y-69592619D02*
X118780952Y-68592619D01*
X118780952Y-68592619D02*
X118685714Y-68735476D01*
X118685714Y-68735476D02*
X118590476Y-68830714D01*
X118590476Y-68830714D02*
X118495238Y-68878333D01*
D11*
%TO.C,R2*%
X127989064Y-74395000D02*
X127534936Y-74395000D01*
X127989064Y-72925000D02*
X127534936Y-72925000D01*
%TO.C,J2*%
X150202000Y-84334000D02*
X150842000Y-84334000D01*
X150842000Y-84334000D02*
X150842000Y-83934000D01*
X141482000Y-84094000D02*
X150602000Y-84094000D01*
X141482000Y-84094000D02*
X141482000Y-73974000D01*
X149042000Y-84094000D02*
X149042000Y-73974000D01*
X150142000Y-84094000D02*
X150142000Y-73974000D01*
X150602000Y-84094000D02*
X150602000Y-73974000D01*
X146823000Y-83082000D02*
X146930000Y-83188000D01*
X147089000Y-82816000D02*
X147196000Y-82922000D01*
X143888000Y-80146000D02*
X143995000Y-80253000D01*
X144154000Y-79880000D02*
X144261000Y-79987000D01*
X146534000Y-77792000D02*
X146930000Y-78187000D01*
X146816000Y-77541000D02*
X147196000Y-77921000D01*
X143888000Y-75146000D02*
X144268000Y-75526000D01*
X144154000Y-74880000D02*
X144550000Y-75275000D01*
X141482000Y-73974000D02*
X150602000Y-73974000D01*
X147722000Y-81534000D02*
G75*
G03*
X147722000Y-81534000I-2180000J0D01*
G01*
X147722000Y-76534000D02*
G75*
G03*
X147722000Y-76534000I-2180000J0D01*
G01*
%TO.C,R3*%
X120677000Y-81507064D02*
X120677000Y-81052936D01*
X122147000Y-81507064D02*
X122147000Y-81052936D01*
%TO.C,JP1*%
X133353000Y-71358000D02*
X130553000Y-71358000D01*
X133353000Y-69358000D02*
X133353000Y-71358000D01*
X130553000Y-71358000D02*
X130553000Y-69358000D01*
X130553000Y-69358000D02*
X133353000Y-69358000D01*
%TO.C,R4*%
X130275000Y-86640936D02*
X130275000Y-87095064D01*
X128805000Y-86640936D02*
X128805000Y-87095064D01*
%TO.C,U2*%
X123375000Y-74310000D02*
X125175000Y-74310000D01*
X123375000Y-74310000D02*
X122575000Y-74310000D01*
X123375000Y-71190000D02*
X124175000Y-71190000D01*
X123375000Y-71190000D02*
X122575000Y-71190000D01*
D12*
%TO.C,U1*%
X125254000Y-84503000D02*
X125254000Y-79603000D01*
X129104000Y-84503000D02*
X125254000Y-84503000D01*
X125254000Y-79603000D02*
X129104000Y-79603000D01*
X129104000Y-79603000D02*
X129104000Y-84503000D01*
X128704000Y-84228000D02*
G75*
G03*
X128704000Y-84228000I-50000J0D01*
G01*
D11*
%TO.C,R1*%
X136625064Y-71220000D02*
X136170936Y-71220000D01*
X136625064Y-69750000D02*
X136170936Y-69750000D01*
%TO.C,C2*%
X130402000Y-76573748D02*
X130402000Y-77096252D01*
X128932000Y-76573748D02*
X128932000Y-77096252D01*
%TO.C,C1*%
X125322000Y-86352748D02*
X125322000Y-86875252D01*
X123852000Y-86352748D02*
X123852000Y-86875252D01*
%TO.C,JP2*%
X142825000Y-85875000D02*
X142825000Y-88675000D01*
X140825000Y-85875000D02*
X142825000Y-85875000D01*
X142825000Y-88675000D02*
X140825000Y-88675000D01*
X140825000Y-88675000D02*
X140825000Y-85875000D01*
%TO.C,J1*%
X117070000Y-70130000D02*
X118400000Y-70130000D01*
X117070000Y-71460000D02*
X117070000Y-70130000D01*
X117070000Y-72730000D02*
X117070000Y-88030000D01*
X117070000Y-72730000D02*
X119730000Y-72730000D01*
X117070000Y-88030000D02*
X119730000Y-88030000D01*
X119730000Y-72730000D02*
X119730000Y-88030000D01*
%TD*%
M02*
