G04 #@! TF.GenerationSoftware,KiCad,Pcbnew,7.0.9-7.0.9~ubuntu22.04.1*
G04 #@! TF.CreationDate,2023-12-07T11:19:29+01:00*
G04 #@! TF.ProjectId,baseboard,62617365-626f-4617-9264-2e6b69636164,rev?*
G04 #@! TF.SameCoordinates,Original*
G04 #@! TF.FileFunction,Copper,L1,Top*
G04 #@! TF.FilePolarity,Positive*
%FSLAX46Y46*%
G04 Gerber Fmt 4.6, Leading zero omitted, Abs format (unit mm)*
G04 Created by KiCad (PCBNEW 7.0.9-7.0.9~ubuntu22.04.1) date 2023-12-07 11:19:29*
%MOMM*%
%LPD*%
G01*
G04 APERTURE LIST*
G04 Aperture macros list*
%AMRoundRect*
0 Rectangle with rounded corners*
0 $1 Rounding radius*
0 $2 $3 $4 $5 $6 $7 $8 $9 X,Y pos of 4 corners*
0 Add a 4 corners polygon primitive as box body*
4,1,4,$2,$3,$4,$5,$6,$7,$8,$9,$2,$3,0*
0 Add four circle primitives for the rounded corners*
1,1,$1+$1,$2,$3*
1,1,$1+$1,$4,$5*
1,1,$1+$1,$6,$7*
1,1,$1+$1,$8,$9*
0 Add four rect primitives between the rounded corners*
20,1,$1+$1,$2,$3,$4,$5,0*
20,1,$1+$1,$4,$5,$6,$7,0*
20,1,$1+$1,$6,$7,$8,$9,0*
20,1,$1+$1,$8,$9,$2,$3,0*%
G04 Aperture macros list end*
G04 #@! TA.AperFunction,ComponentPad*
%ADD10C,7.000000*%
G04 #@! TD*
G04 #@! TA.AperFunction,SMDPad,CuDef*
%ADD11RoundRect,0.150000X0.587500X0.150000X-0.587500X0.150000X-0.587500X-0.150000X0.587500X-0.150000X0*%
G04 #@! TD*
G04 #@! TA.AperFunction,ComponentPad*
%ADD12R,1.700000X1.700000*%
G04 #@! TD*
G04 #@! TA.AperFunction,ComponentPad*
%ADD13O,1.700000X1.700000*%
G04 #@! TD*
G04 #@! TA.AperFunction,ComponentPad*
%ADD14C,1.700000*%
G04 #@! TD*
G04 #@! TA.AperFunction,ComponentPad*
%ADD15R,2.600000X2.600000*%
G04 #@! TD*
G04 #@! TA.AperFunction,ComponentPad*
%ADD16C,2.600000*%
G04 #@! TD*
G04 #@! TA.AperFunction,SMDPad,CuDef*
%ADD17RoundRect,0.250000X-0.350000X-0.450000X0.350000X-0.450000X0.350000X0.450000X-0.350000X0.450000X0*%
G04 #@! TD*
G04 #@! TA.AperFunction,SMDPad,CuDef*
%ADD18R,2.000000X2.000000*%
G04 #@! TD*
G04 #@! TA.AperFunction,SMDPad,CuDef*
%ADD19RoundRect,0.250000X-0.450000X0.350000X-0.450000X-0.350000X0.450000X-0.350000X0.450000X0.350000X0*%
G04 #@! TD*
G04 #@! TA.AperFunction,SMDPad,CuDef*
%ADD20RoundRect,0.250000X0.450000X-0.350000X0.450000X0.350000X-0.450000X0.350000X-0.450000X-0.350000X0*%
G04 #@! TD*
G04 #@! TA.AperFunction,SMDPad,CuDef*
%ADD21R,0.700000X1.200000*%
G04 #@! TD*
G04 #@! TA.AperFunction,SMDPad,CuDef*
%ADD22R,0.760000X1.200000*%
G04 #@! TD*
G04 #@! TA.AperFunction,SMDPad,CuDef*
%ADD23R,0.800000X1.200000*%
G04 #@! TD*
G04 #@! TA.AperFunction,SMDPad,CuDef*
%ADD24R,1.800000X1.350000*%
G04 #@! TD*
G04 #@! TA.AperFunction,SMDPad,CuDef*
%ADD25R,1.800000X1.500000*%
G04 #@! TD*
G04 #@! TA.AperFunction,SMDPad,CuDef*
%ADD26RoundRect,0.250000X0.350000X0.450000X-0.350000X0.450000X-0.350000X-0.450000X0.350000X-0.450000X0*%
G04 #@! TD*
G04 #@! TA.AperFunction,WasherPad*
%ADD27C,3.000000*%
G04 #@! TD*
G04 #@! TA.AperFunction,SMDPad,CuDef*
%ADD28RoundRect,0.150000X-0.587500X-0.150000X0.587500X-0.150000X0.587500X0.150000X-0.587500X0.150000X0*%
G04 #@! TD*
G04 #@! TA.AperFunction,ComponentPad*
%ADD29C,1.727200*%
G04 #@! TD*
G04 #@! TA.AperFunction,ComponentPad*
%ADD30R,1.727200X1.727200*%
G04 #@! TD*
G04 #@! TA.AperFunction,ViaPad*
%ADD31C,0.800000*%
G04 #@! TD*
G04 #@! TA.AperFunction,Conductor*
%ADD32C,0.500000*%
G04 #@! TD*
G04 #@! TA.AperFunction,Conductor*
%ADD33C,0.250000*%
G04 #@! TD*
G04 APERTURE END LIST*
D10*
X30000000Y-153000000D03*
X110000000Y-58000000D03*
D11*
X100707500Y-86490000D03*
X100707500Y-84590000D03*
X98832500Y-85540000D03*
D12*
X58680000Y-120940000D03*
X58680000Y-118400000D03*
D13*
X58680000Y-115860000D03*
D14*
X58680000Y-113320000D03*
D13*
X58680000Y-110780000D03*
D14*
X58680000Y-108240000D03*
D12*
X58680000Y-105700000D03*
D15*
X106985000Y-143430000D03*
D16*
X106985000Y-138430000D03*
X106985000Y-133430000D03*
D17*
X96266000Y-103886000D03*
X98266000Y-103886000D03*
D18*
X108450000Y-127000000D03*
D10*
X30000000Y-58000000D03*
D18*
X33020000Y-67310000D03*
D15*
X44450000Y-60960000D03*
D16*
X39450000Y-60960000D03*
D12*
X58680000Y-96820000D03*
X58680000Y-94280000D03*
D13*
X58680000Y-91740000D03*
D14*
X58680000Y-89200000D03*
D13*
X58680000Y-86660000D03*
D14*
X58680000Y-84120000D03*
D12*
X58680000Y-81580000D03*
D15*
X106680000Y-121840000D03*
D16*
X106680000Y-116840000D03*
D18*
X107950000Y-99060000D03*
D12*
X58680000Y-145060000D03*
X58680000Y-142520000D03*
D13*
X58680000Y-139980000D03*
D14*
X58680000Y-137440000D03*
D13*
X58680000Y-134900000D03*
D14*
X58680000Y-132360000D03*
D12*
X58680000Y-129820000D03*
D19*
X104648000Y-90710000D03*
X104648000Y-92710000D03*
D20*
X107650000Y-88460000D03*
X107650000Y-86460000D03*
D19*
X96266000Y-90694000D03*
X96266000Y-92694000D03*
D20*
X100600000Y-92630000D03*
X100600000Y-90630000D03*
D18*
X49530000Y-59190000D03*
D21*
X58666000Y-61293000D03*
D22*
X56646000Y-61293000D03*
D23*
X55416000Y-61293000D03*
D21*
X57666000Y-61293000D03*
D22*
X59686000Y-61293000D03*
D23*
X60916000Y-61293000D03*
D24*
X63291000Y-61238000D03*
D25*
X63291000Y-57658000D03*
D24*
X53041000Y-61238000D03*
D25*
X53041000Y-57658000D03*
D26*
X98282000Y-114300000D03*
X96282000Y-114300000D03*
D10*
X110000000Y-153000000D03*
D27*
X69880000Y-58070000D03*
X69880000Y-79090000D03*
X100300000Y-58070000D03*
X100300000Y-79090000D03*
D12*
X68961000Y-64846200D03*
D13*
X68961000Y-67386200D03*
X68961000Y-69926200D03*
X68961000Y-72466200D03*
D15*
X106680000Y-109180000D03*
D16*
X106680000Y-104180000D03*
D28*
X98963000Y-97094000D03*
X98963000Y-98994000D03*
X100838000Y-98044000D03*
D29*
X70104000Y-124460000D03*
X70104000Y-129540000D03*
X90424000Y-127000000D03*
X90424000Y-124460000D03*
X90424000Y-121920000D03*
X90424000Y-119380000D03*
X90424000Y-116840000D03*
X90424000Y-114300000D03*
X90424000Y-111760000D03*
X90424000Y-129540000D03*
X90424000Y-109220000D03*
X90424000Y-106680000D03*
X90424000Y-104140000D03*
X90424000Y-101600000D03*
X90424000Y-99060000D03*
X90424000Y-96520000D03*
X70104000Y-96520000D03*
X70104000Y-99060000D03*
X70104000Y-101600000D03*
X70104000Y-104140000D03*
X70104000Y-106680000D03*
X70104000Y-109220000D03*
X70104000Y-111760000D03*
X70104000Y-114300000D03*
X70104000Y-116840000D03*
D30*
X70104000Y-121920000D03*
D29*
X70104000Y-119380000D03*
X70104000Y-127000000D03*
D18*
X100840000Y-149490000D03*
D31*
X100838000Y-101092000D03*
X54316000Y-63492000D03*
X96774000Y-85598000D03*
X60198000Y-116840000D03*
X62484000Y-121920000D03*
X63246000Y-106172000D03*
X62230000Y-116586000D03*
X73622500Y-88138000D03*
X94234000Y-111506000D03*
X104648000Y-94996000D03*
X98552000Y-94996000D03*
X106426000Y-94996000D03*
X61214000Y-110236000D03*
X102616000Y-90424000D03*
X102616000Y-84836000D03*
D32*
X100838000Y-98044000D02*
X100838000Y-101092000D01*
X60916000Y-61293000D02*
X64469200Y-64846200D01*
D33*
X96832000Y-85540000D02*
X96774000Y-85598000D01*
D32*
X55416000Y-62392000D02*
X54316000Y-63492000D01*
X98832500Y-85540000D02*
X96832000Y-85540000D01*
X55416000Y-61293000D02*
X55416000Y-62392000D01*
X64469200Y-64846200D02*
X68961000Y-64846200D01*
X44450000Y-60960000D02*
X38100000Y-67310000D01*
X56134000Y-99366000D02*
X58680000Y-96820000D01*
X38100000Y-67310000D02*
X33020000Y-67310000D01*
X56134000Y-118394000D02*
X56134000Y-99366000D01*
X58680000Y-96820000D02*
X44450000Y-82590000D01*
X58680000Y-120940000D02*
X56134000Y-118394000D01*
X56134000Y-142514000D02*
X56134000Y-123486000D01*
X44450000Y-82590000D02*
X44450000Y-60960000D01*
X56134000Y-123486000D02*
X58680000Y-120940000D01*
X58680000Y-145060000D02*
X56134000Y-142514000D01*
X56602000Y-64254000D02*
X53546000Y-67310000D01*
X65786000Y-122682000D02*
X65786000Y-68358000D01*
X49530000Y-65532000D02*
X49530000Y-59190000D01*
X59396000Y-59682000D02*
X57110000Y-59682000D01*
X59686000Y-62258000D02*
X59686000Y-61293000D01*
X65786000Y-68358000D02*
X65492000Y-68064000D01*
X59686000Y-59972000D02*
X59396000Y-59682000D01*
X65492000Y-68064000D02*
X59686000Y-62258000D01*
X56646000Y-61293000D02*
X56602000Y-61337000D01*
X57110000Y-59682000D02*
X56646000Y-60146000D01*
X59686000Y-61293000D02*
X59686000Y-59972000D01*
X70104000Y-127000000D02*
X65786000Y-122682000D01*
X56602000Y-61337000D02*
X56602000Y-64254000D01*
X53546000Y-67310000D02*
X51308000Y-67310000D01*
X56646000Y-60146000D02*
X56646000Y-61293000D01*
X51308000Y-67310000D02*
X49530000Y-65532000D01*
D33*
X106985000Y-133430000D02*
X108712000Y-135157000D01*
X108712000Y-135157000D02*
X108712000Y-144953000D01*
X108712000Y-144953000D02*
X104175000Y-149490000D01*
X104175000Y-149490000D02*
X100840000Y-149490000D01*
X106985000Y-138430000D02*
X101854000Y-138430000D01*
X101854000Y-138430000D02*
X90424000Y-127000000D01*
X63246000Y-115346000D02*
X58680000Y-110780000D01*
X63246000Y-130334000D02*
X63246000Y-115346000D01*
X58680000Y-134900000D02*
X63246000Y-130334000D01*
X58680000Y-110780000D02*
X63246000Y-106214000D01*
X63246000Y-106214000D02*
X63246000Y-106172000D01*
X63246000Y-106172000D02*
X63246000Y-91226000D01*
X63246000Y-91226000D02*
X58680000Y-86660000D01*
X58680000Y-115860000D02*
X61504000Y-115860000D01*
X61504000Y-115860000D02*
X62230000Y-116586000D01*
X89662000Y-104140000D02*
X90424000Y-104140000D01*
X73660000Y-88138000D02*
X89662000Y-104140000D01*
X73622500Y-88138000D02*
X73660000Y-88138000D01*
D32*
X96266000Y-109474000D02*
X94234000Y-111506000D01*
X96266000Y-103886000D02*
X96266000Y-109474000D01*
X96266000Y-92694000D02*
X96266000Y-103886000D01*
D33*
X70104000Y-116840000D02*
X72898000Y-114046000D01*
X72898000Y-114046000D02*
X72898000Y-73863200D01*
X72898000Y-73863200D02*
X68961000Y-69926200D01*
D32*
X101600000Y-114300000D02*
X98282000Y-114300000D01*
X106680000Y-109180000D02*
X109474000Y-106386000D01*
X109474000Y-106386000D02*
X109474000Y-100584000D01*
X107650000Y-88460000D02*
X107950000Y-88760000D01*
X107950000Y-88760000D02*
X107950000Y-99060000D01*
X106680000Y-109220000D02*
X101600000Y-114300000D01*
X106680000Y-109180000D02*
X106680000Y-109220000D01*
X109474000Y-100584000D02*
X107950000Y-99060000D01*
X63291000Y-57658000D02*
X53041000Y-57658000D01*
X63291000Y-57658000D02*
X63291000Y-61238000D01*
X53041000Y-57658000D02*
X53041000Y-61238000D01*
X96282000Y-114300000D02*
X90424000Y-114300000D01*
X103124000Y-95154000D02*
X100600000Y-92630000D01*
X96282000Y-114300000D02*
X103124000Y-107458000D01*
X103124000Y-107458000D02*
X103124000Y-95154000D01*
X98552000Y-94996000D02*
X98552000Y-96683000D01*
X98552000Y-96683000D02*
X98963000Y-97094000D01*
X104648000Y-94996000D02*
X104648000Y-94742000D01*
X104648000Y-92710000D02*
X104648000Y-94996000D01*
X93726000Y-90678000D02*
X93726000Y-95758000D01*
X107650000Y-86460000D02*
X100737500Y-86460000D01*
X97282000Y-87122000D02*
X93726000Y-90678000D01*
X100707500Y-86490000D02*
X100075500Y-87122000D01*
X100737500Y-86460000D02*
X100707500Y-86490000D01*
X93726000Y-95758000D02*
X90424000Y-99060000D01*
X100075500Y-87122000D02*
X97282000Y-87122000D01*
X102838000Y-88900000D02*
X98060000Y-88900000D01*
X104648000Y-90710000D02*
X102838000Y-88900000D01*
X108450000Y-127000000D02*
X108450000Y-123610000D01*
X108450000Y-123610000D02*
X106680000Y-121840000D01*
X106426000Y-94996000D02*
X106426000Y-92488000D01*
X106426000Y-92488000D02*
X104648000Y-90710000D01*
X98060000Y-88900000D02*
X96266000Y-90694000D01*
D33*
X57150000Y-135382000D02*
X57150000Y-133890000D01*
X57912000Y-136144000D02*
X57150000Y-135382000D01*
X78740000Y-136144000D02*
X57912000Y-136144000D01*
X90424000Y-124460000D02*
X78740000Y-136144000D01*
X57150000Y-133890000D02*
X58680000Y-132360000D01*
X63754000Y-124968000D02*
X63754000Y-112776000D01*
X81615400Y-130728600D02*
X69514600Y-130728600D01*
X69514600Y-130728600D02*
X63754000Y-124968000D01*
X90424000Y-121920000D02*
X81615400Y-130728600D01*
X63754000Y-112776000D02*
X61214000Y-110236000D01*
X90424000Y-119380000D02*
X87721200Y-119380000D01*
X69611665Y-128188600D02*
X64516000Y-123092935D01*
X87721200Y-119380000D02*
X78912600Y-128188600D01*
X64516000Y-89956000D02*
X58680000Y-84120000D01*
X78912600Y-128188600D02*
X69611665Y-128188600D01*
X64516000Y-123092935D02*
X64516000Y-89956000D01*
D32*
X100600000Y-90630000D02*
X102410000Y-90630000D01*
X100953500Y-84836000D02*
X100707500Y-84590000D01*
X102410000Y-90630000D02*
X102616000Y-90424000D01*
X102616000Y-84836000D02*
X100953500Y-84836000D01*
X98266000Y-99691000D02*
X98266000Y-103886000D01*
X98963000Y-98994000D02*
X98266000Y-99691000D01*
G04 #@! TA.AperFunction,Conductor*
G36*
X61260586Y-116505185D02*
G01*
X61281228Y-116521819D01*
X61291039Y-116531630D01*
X61324524Y-116592953D01*
X61326678Y-116606343D01*
X61344326Y-116774256D01*
X61344327Y-116774259D01*
X61402818Y-116954277D01*
X61402821Y-116954284D01*
X61497467Y-117118216D01*
X61565301Y-117193553D01*
X61624129Y-117258888D01*
X61777265Y-117370148D01*
X61777270Y-117370151D01*
X61950192Y-117447142D01*
X61950197Y-117447144D01*
X62135354Y-117486500D01*
X62135355Y-117486500D01*
X62324644Y-117486500D01*
X62324646Y-117486500D01*
X62470720Y-117455451D01*
X62540386Y-117460767D01*
X62596120Y-117502904D01*
X62620225Y-117568484D01*
X62620500Y-117576741D01*
X62620500Y-130023546D01*
X62600815Y-130090585D01*
X62584181Y-130111227D01*
X60247340Y-132448068D01*
X60186017Y-132481553D01*
X60116325Y-132476569D01*
X60060392Y-132434697D01*
X60035975Y-132369233D01*
X60035659Y-132360387D01*
X60035659Y-132359999D01*
X60021828Y-132201915D01*
X60015063Y-132124592D01*
X59953903Y-131896337D01*
X59854035Y-131682171D01*
X59845315Y-131669718D01*
X59718496Y-131488600D01*
X59718495Y-131488599D01*
X59596179Y-131366283D01*
X59562696Y-131304963D01*
X59567680Y-131235271D01*
X59609551Y-131179337D01*
X59640529Y-131162422D01*
X59772086Y-131113354D01*
X59772093Y-131113350D01*
X59887187Y-131027190D01*
X59887190Y-131027187D01*
X59973350Y-130912093D01*
X59973354Y-130912086D01*
X60023596Y-130777379D01*
X60023598Y-130777372D01*
X60029999Y-130717844D01*
X60030000Y-130717827D01*
X60030000Y-130070000D01*
X59113686Y-130070000D01*
X59139493Y-130029844D01*
X59180000Y-129891889D01*
X59180000Y-129748111D01*
X59139493Y-129610156D01*
X59113686Y-129570000D01*
X60030000Y-129570000D01*
X60030000Y-128922172D01*
X60029999Y-128922155D01*
X60023598Y-128862627D01*
X60023596Y-128862620D01*
X59973354Y-128727913D01*
X59973350Y-128727906D01*
X59887190Y-128612812D01*
X59887187Y-128612809D01*
X59772093Y-128526649D01*
X59772086Y-128526645D01*
X59637379Y-128476403D01*
X59637372Y-128476401D01*
X59577844Y-128470000D01*
X58930000Y-128470000D01*
X58930000Y-129384498D01*
X58822315Y-129335320D01*
X58715763Y-129320000D01*
X58644237Y-129320000D01*
X58537685Y-129335320D01*
X58430000Y-129384498D01*
X58430000Y-128470000D01*
X57782155Y-128470000D01*
X57722627Y-128476401D01*
X57722620Y-128476403D01*
X57587913Y-128526645D01*
X57587906Y-128526649D01*
X57472812Y-128612809D01*
X57472809Y-128612812D01*
X57386649Y-128727906D01*
X57386645Y-128727913D01*
X57336403Y-128862620D01*
X57336401Y-128862627D01*
X57330000Y-128922155D01*
X57330000Y-129570000D01*
X58246314Y-129570000D01*
X58220507Y-129610156D01*
X58180000Y-129748111D01*
X58180000Y-129891889D01*
X58220507Y-130029844D01*
X58246314Y-130070000D01*
X57330000Y-130070000D01*
X57330000Y-130717844D01*
X57336401Y-130777372D01*
X57336403Y-130777379D01*
X57386645Y-130912086D01*
X57386649Y-130912093D01*
X57472809Y-131027187D01*
X57472812Y-131027190D01*
X57587906Y-131113350D01*
X57587913Y-131113354D01*
X57719470Y-131162421D01*
X57775403Y-131204292D01*
X57799821Y-131269756D01*
X57784970Y-131338029D01*
X57763819Y-131366284D01*
X57641503Y-131488600D01*
X57505965Y-131682169D01*
X57505964Y-131682171D01*
X57406098Y-131896335D01*
X57406094Y-131896344D01*
X57344938Y-132124586D01*
X57344936Y-132124596D01*
X57324341Y-132359999D01*
X57324341Y-132360000D01*
X57344936Y-132595403D01*
X57344938Y-132595413D01*
X57371856Y-132695872D01*
X57370193Y-132765722D01*
X57339762Y-132815646D01*
X57096181Y-133059228D01*
X57034858Y-133092713D01*
X56965167Y-133087729D01*
X56909233Y-133045858D01*
X56884816Y-132980393D01*
X56884500Y-132971547D01*
X56884500Y-123848229D01*
X56904185Y-123781190D01*
X56920814Y-123760553D01*
X58354549Y-122326817D01*
X58415872Y-122293333D01*
X58442230Y-122290499D01*
X59577871Y-122290499D01*
X59577872Y-122290499D01*
X59637483Y-122284091D01*
X59772331Y-122233796D01*
X59887546Y-122147546D01*
X59973796Y-122032331D01*
X60024091Y-121897483D01*
X60030500Y-121837873D01*
X60030499Y-120042128D01*
X60024091Y-119982517D01*
X59973796Y-119847669D01*
X59896421Y-119744309D01*
X59872004Y-119678848D01*
X59886855Y-119610575D01*
X59896416Y-119595696D01*
X59973796Y-119492331D01*
X60024091Y-119357483D01*
X60030500Y-119297873D01*
X60030499Y-117502128D01*
X60024091Y-117442517D01*
X59997809Y-117372052D01*
X59973797Y-117307671D01*
X59973793Y-117307664D01*
X59887547Y-117192455D01*
X59887544Y-117192452D01*
X59772335Y-117106206D01*
X59772328Y-117106202D01*
X59640917Y-117057189D01*
X59584983Y-117015318D01*
X59560566Y-116949853D01*
X59575418Y-116881580D01*
X59596563Y-116853332D01*
X59718495Y-116731401D01*
X59853652Y-116538377D01*
X59908229Y-116494752D01*
X59955227Y-116485500D01*
X61193547Y-116485500D01*
X61260586Y-116505185D01*
G37*
G04 #@! TD.AperFunction*
G04 #@! TA.AperFunction,Conductor*
G36*
X73728703Y-89091739D02*
G01*
X73735181Y-89097771D01*
X89073890Y-104436481D01*
X89106414Y-104493721D01*
X89129387Y-104584436D01*
X89129387Y-104584437D01*
X89220198Y-104791466D01*
X89343842Y-104980716D01*
X89343850Y-104980727D01*
X89496950Y-105147036D01*
X89496954Y-105147040D01*
X89675351Y-105285893D01*
X89703165Y-105300945D01*
X89752755Y-105350165D01*
X89767863Y-105418382D01*
X89743692Y-105483937D01*
X89703165Y-105519055D01*
X89675352Y-105534106D01*
X89496955Y-105672959D01*
X89496950Y-105672963D01*
X89343850Y-105839272D01*
X89343842Y-105839283D01*
X89220198Y-106028533D01*
X89129388Y-106235560D01*
X89073892Y-106454710D01*
X89055225Y-106679993D01*
X89055225Y-106680006D01*
X89073892Y-106905289D01*
X89129388Y-107124439D01*
X89220198Y-107331466D01*
X89343842Y-107520716D01*
X89343850Y-107520727D01*
X89451506Y-107637671D01*
X89496954Y-107687040D01*
X89675351Y-107825893D01*
X89703165Y-107840945D01*
X89752755Y-107890165D01*
X89767863Y-107958382D01*
X89743692Y-108023937D01*
X89703165Y-108059055D01*
X89675352Y-108074106D01*
X89496955Y-108212959D01*
X89496950Y-108212963D01*
X89343850Y-108379272D01*
X89343842Y-108379283D01*
X89220198Y-108568533D01*
X89129388Y-108775560D01*
X89073892Y-108994710D01*
X89055225Y-109219993D01*
X89055225Y-109220006D01*
X89073892Y-109445289D01*
X89129388Y-109664439D01*
X89220198Y-109871466D01*
X89343842Y-110060716D01*
X89343850Y-110060727D01*
X89496950Y-110227036D01*
X89496954Y-110227040D01*
X89675351Y-110365893D01*
X89703165Y-110380945D01*
X89752755Y-110430165D01*
X89767863Y-110498382D01*
X89743692Y-110563937D01*
X89703165Y-110599055D01*
X89675352Y-110614106D01*
X89496955Y-110752959D01*
X89496950Y-110752963D01*
X89343850Y-110919272D01*
X89343842Y-110919283D01*
X89220198Y-111108533D01*
X89129388Y-111315560D01*
X89073892Y-111534710D01*
X89055225Y-111759993D01*
X89055225Y-111760006D01*
X89073892Y-111985289D01*
X89129388Y-112204439D01*
X89220198Y-112411466D01*
X89343842Y-112600716D01*
X89343850Y-112600727D01*
X89496950Y-112767036D01*
X89496954Y-112767040D01*
X89675351Y-112905893D01*
X89703165Y-112920945D01*
X89752755Y-112970165D01*
X89767863Y-113038382D01*
X89743692Y-113103937D01*
X89703165Y-113139055D01*
X89675352Y-113154106D01*
X89496955Y-113292959D01*
X89496950Y-113292963D01*
X89343850Y-113459272D01*
X89343842Y-113459283D01*
X89220198Y-113648533D01*
X89129388Y-113855560D01*
X89073892Y-114074710D01*
X89055225Y-114299993D01*
X89055225Y-114300006D01*
X89073892Y-114525289D01*
X89129388Y-114744439D01*
X89220198Y-114951466D01*
X89343842Y-115140716D01*
X89343850Y-115140727D01*
X89469100Y-115276783D01*
X89496954Y-115307040D01*
X89675351Y-115445893D01*
X89703165Y-115460945D01*
X89752755Y-115510165D01*
X89767863Y-115578382D01*
X89743692Y-115643937D01*
X89703165Y-115679055D01*
X89675352Y-115694106D01*
X89496955Y-115832959D01*
X89496950Y-115832963D01*
X89343850Y-115999272D01*
X89343842Y-115999283D01*
X89220198Y-116188533D01*
X89129388Y-116395560D01*
X89073892Y-116614710D01*
X89055225Y-116839993D01*
X89055225Y-116840006D01*
X89073892Y-117065289D01*
X89129388Y-117284439D01*
X89220198Y-117491466D01*
X89343842Y-117680716D01*
X89343850Y-117680727D01*
X89496950Y-117847036D01*
X89496954Y-117847040D01*
X89675351Y-117985893D01*
X89703165Y-118000945D01*
X89752755Y-118050165D01*
X89767863Y-118118382D01*
X89743692Y-118183937D01*
X89703165Y-118219055D01*
X89675352Y-118234106D01*
X89496955Y-118372959D01*
X89496950Y-118372963D01*
X89343850Y-118539272D01*
X89343842Y-118539283D01*
X89239937Y-118698322D01*
X89186791Y-118743678D01*
X89136129Y-118754500D01*
X87803943Y-118754500D01*
X87788322Y-118752775D01*
X87788295Y-118753061D01*
X87780533Y-118752326D01*
X87711372Y-118754500D01*
X87681849Y-118754500D01*
X87674978Y-118755367D01*
X87669159Y-118755825D01*
X87622574Y-118757289D01*
X87622568Y-118757290D01*
X87603326Y-118762880D01*
X87584287Y-118766823D01*
X87564417Y-118769334D01*
X87564403Y-118769337D01*
X87521083Y-118786488D01*
X87515558Y-118788380D01*
X87470813Y-118801380D01*
X87470810Y-118801381D01*
X87453566Y-118811579D01*
X87436105Y-118820133D01*
X87417474Y-118827510D01*
X87417462Y-118827517D01*
X87379770Y-118854902D01*
X87374887Y-118858109D01*
X87334780Y-118881829D01*
X87320614Y-118895995D01*
X87305824Y-118908627D01*
X87289614Y-118920404D01*
X87289611Y-118920407D01*
X87259910Y-118956309D01*
X87255977Y-118960631D01*
X78689828Y-127526781D01*
X78628505Y-127560266D01*
X78602147Y-127563100D01*
X71527878Y-127563100D01*
X71460839Y-127543415D01*
X71415084Y-127490611D01*
X71405140Y-127421453D01*
X71407672Y-127408660D01*
X71408479Y-127405473D01*
X71454107Y-127225293D01*
X71461574Y-127135175D01*
X71472775Y-127000006D01*
X71472775Y-126999993D01*
X71454107Y-126774710D01*
X71454107Y-126774707D01*
X71398611Y-126555559D01*
X71307802Y-126348535D01*
X71184156Y-126159281D01*
X71184153Y-126159278D01*
X71184149Y-126159272D01*
X71031049Y-125992963D01*
X71031048Y-125992962D01*
X71031046Y-125992960D01*
X70852649Y-125854107D01*
X70852647Y-125854106D01*
X70852646Y-125854105D01*
X70852639Y-125854100D01*
X70824836Y-125839055D01*
X70775244Y-125789837D01*
X70760135Y-125721620D01*
X70784306Y-125656064D01*
X70824836Y-125620945D01*
X70852639Y-125605899D01*
X70852642Y-125605896D01*
X70852649Y-125605893D01*
X71031046Y-125467040D01*
X71184156Y-125300719D01*
X71307802Y-125111465D01*
X71398611Y-124904441D01*
X71454107Y-124685293D01*
X71462850Y-124579782D01*
X71472775Y-124460006D01*
X71472775Y-124459993D01*
X71454107Y-124234710D01*
X71454107Y-124234707D01*
X71398611Y-124015559D01*
X71307802Y-123808535D01*
X71276450Y-123760548D01*
X71210879Y-123660184D01*
X71184156Y-123619281D01*
X71184153Y-123619278D01*
X71184149Y-123619272D01*
X71046755Y-123470024D01*
X71015832Y-123407370D01*
X71023692Y-123337944D01*
X71067839Y-123283788D01*
X71094652Y-123269859D01*
X71209684Y-123226955D01*
X71209693Y-123226950D01*
X71324787Y-123140790D01*
X71324790Y-123140787D01*
X71410950Y-123025693D01*
X71410954Y-123025686D01*
X71461196Y-122890979D01*
X71461198Y-122890972D01*
X71467599Y-122831444D01*
X71467600Y-122831427D01*
X71467600Y-122170000D01*
X70547196Y-122170000D01*
X70570845Y-122133201D01*
X70612000Y-121993039D01*
X70612000Y-121846961D01*
X70570845Y-121706799D01*
X70547196Y-121670000D01*
X71467600Y-121670000D01*
X71467600Y-121008572D01*
X71467599Y-121008555D01*
X71461198Y-120949027D01*
X71461196Y-120949020D01*
X71410954Y-120814313D01*
X71410950Y-120814306D01*
X71324790Y-120699212D01*
X71324787Y-120699209D01*
X71209693Y-120613049D01*
X71209686Y-120613045D01*
X71094651Y-120570140D01*
X71038717Y-120528269D01*
X71014300Y-120462804D01*
X71029152Y-120394531D01*
X71046749Y-120369981D01*
X71184156Y-120220719D01*
X71307802Y-120031465D01*
X71398611Y-119824441D01*
X71454107Y-119605293D01*
X71472775Y-119380000D01*
X71472775Y-119379993D01*
X71454107Y-119154710D01*
X71454107Y-119154707D01*
X71398611Y-118935559D01*
X71307802Y-118728535D01*
X71306595Y-118726688D01*
X71223690Y-118599792D01*
X71184156Y-118539281D01*
X71184153Y-118539278D01*
X71184149Y-118539272D01*
X71031049Y-118372963D01*
X71031048Y-118372962D01*
X71031046Y-118372960D01*
X70852649Y-118234107D01*
X70852647Y-118234106D01*
X70852646Y-118234105D01*
X70852639Y-118234100D01*
X70824836Y-118219055D01*
X70775244Y-118169837D01*
X70760135Y-118101620D01*
X70784306Y-118036064D01*
X70824836Y-118000945D01*
X70852639Y-117985899D01*
X70852642Y-117985896D01*
X70852649Y-117985893D01*
X71031046Y-117847040D01*
X71184156Y-117680719D01*
X71307802Y-117491465D01*
X71398611Y-117284441D01*
X71454107Y-117065293D01*
X71461574Y-116975175D01*
X71472775Y-116840006D01*
X71472775Y-116839993D01*
X71454107Y-116614708D01*
X71454107Y-116614704D01*
X71422862Y-116491324D01*
X71425486Y-116421504D01*
X71455384Y-116373204D01*
X73281786Y-114546802D01*
X73294048Y-114536980D01*
X73293865Y-114536759D01*
X73299867Y-114531792D01*
X73299877Y-114531786D01*
X73347241Y-114481348D01*
X73368120Y-114460470D01*
X73372373Y-114454986D01*
X73376150Y-114450563D01*
X73408062Y-114416582D01*
X73417714Y-114399023D01*
X73428389Y-114382772D01*
X73440674Y-114366936D01*
X73459186Y-114324152D01*
X73461742Y-114318935D01*
X73484197Y-114278092D01*
X73489180Y-114258680D01*
X73495477Y-114240291D01*
X73503438Y-114221895D01*
X73510729Y-114175853D01*
X73511908Y-114170162D01*
X73523500Y-114125019D01*
X73523500Y-114104983D01*
X73525027Y-114085582D01*
X73526749Y-114074710D01*
X73528160Y-114065804D01*
X73523775Y-114019415D01*
X73523500Y-114013577D01*
X73523500Y-89185452D01*
X73543185Y-89118413D01*
X73595989Y-89072658D01*
X73665147Y-89062714D01*
X73728703Y-89091739D01*
G37*
G04 #@! TD.AperFunction*
G04 #@! TA.AperFunction,Conductor*
G36*
X60240862Y-89105898D02*
G01*
X60247326Y-89111917D01*
X61303807Y-90168397D01*
X62584181Y-91448771D01*
X62617666Y-91510094D01*
X62620500Y-91536452D01*
X62620500Y-105473312D01*
X62600815Y-105540351D01*
X62588650Y-105556284D01*
X62513466Y-105639784D01*
X62418821Y-105803715D01*
X62418818Y-105803722D01*
X62360327Y-105983740D01*
X62360326Y-105983744D01*
X62346904Y-106111451D01*
X62340540Y-106172002D01*
X62340540Y-106178498D01*
X62338796Y-106178498D01*
X62327765Y-106238803D01*
X62304697Y-106270710D01*
X60247340Y-108328068D01*
X60186017Y-108361553D01*
X60116325Y-108356569D01*
X60060392Y-108314697D01*
X60035975Y-108249233D01*
X60035659Y-108240387D01*
X60035659Y-108239999D01*
X60019828Y-108059055D01*
X60015063Y-108004592D01*
X59953903Y-107776337D01*
X59854035Y-107562171D01*
X59837498Y-107538554D01*
X59718496Y-107368600D01*
X59681361Y-107331465D01*
X59596179Y-107246283D01*
X59562696Y-107184963D01*
X59567680Y-107115271D01*
X59609551Y-107059337D01*
X59640529Y-107042422D01*
X59772086Y-106993354D01*
X59772093Y-106993350D01*
X59887187Y-106907190D01*
X59887190Y-106907187D01*
X59973350Y-106792093D01*
X59973354Y-106792086D01*
X60023596Y-106657379D01*
X60023598Y-106657372D01*
X60029999Y-106597844D01*
X60030000Y-106597827D01*
X60030000Y-105950000D01*
X59113686Y-105950000D01*
X59139493Y-105909844D01*
X59180000Y-105771889D01*
X59180000Y-105628111D01*
X59139493Y-105490156D01*
X59113686Y-105450000D01*
X60030000Y-105450000D01*
X60030000Y-104802172D01*
X60029999Y-104802155D01*
X60023598Y-104742627D01*
X60023596Y-104742620D01*
X59973354Y-104607913D01*
X59973350Y-104607906D01*
X59887190Y-104492812D01*
X59887187Y-104492809D01*
X59772093Y-104406649D01*
X59772086Y-104406645D01*
X59637379Y-104356403D01*
X59637372Y-104356401D01*
X59577844Y-104350000D01*
X58930000Y-104350000D01*
X58930000Y-105264498D01*
X58822315Y-105215320D01*
X58715763Y-105200000D01*
X58644237Y-105200000D01*
X58537685Y-105215320D01*
X58430000Y-105264498D01*
X58430000Y-104350000D01*
X57782155Y-104350000D01*
X57722627Y-104356401D01*
X57722620Y-104356403D01*
X57587913Y-104406645D01*
X57587906Y-104406649D01*
X57472812Y-104492809D01*
X57472809Y-104492812D01*
X57386649Y-104607906D01*
X57386645Y-104607913D01*
X57336403Y-104742620D01*
X57336401Y-104742627D01*
X57330000Y-104802155D01*
X57330000Y-105450000D01*
X58246314Y-105450000D01*
X58220507Y-105490156D01*
X58180000Y-105628111D01*
X58180000Y-105771889D01*
X58220507Y-105909844D01*
X58246314Y-105950000D01*
X57330000Y-105950000D01*
X57330000Y-106597844D01*
X57336401Y-106657372D01*
X57336403Y-106657379D01*
X57386645Y-106792086D01*
X57386649Y-106792093D01*
X57472809Y-106907187D01*
X57472812Y-106907190D01*
X57587906Y-106993350D01*
X57587913Y-106993354D01*
X57719470Y-107042421D01*
X57775403Y-107084292D01*
X57799821Y-107149756D01*
X57784970Y-107218029D01*
X57763819Y-107246284D01*
X57641503Y-107368600D01*
X57505965Y-107562169D01*
X57505964Y-107562171D01*
X57406098Y-107776335D01*
X57406094Y-107776344D01*
X57344938Y-108004586D01*
X57344936Y-108004596D01*
X57324341Y-108239999D01*
X57324341Y-108240000D01*
X57344936Y-108475403D01*
X57344938Y-108475413D01*
X57406094Y-108703655D01*
X57406096Y-108703659D01*
X57406097Y-108703663D01*
X57505965Y-108917830D01*
X57505967Y-108917834D01*
X57641501Y-109111395D01*
X57641506Y-109111402D01*
X57808597Y-109278493D01*
X57808603Y-109278498D01*
X57994158Y-109408425D01*
X58037783Y-109463002D01*
X58044977Y-109532500D01*
X58013454Y-109594855D01*
X57994158Y-109611575D01*
X57808597Y-109741505D01*
X57641505Y-109908597D01*
X57505965Y-110102169D01*
X57505964Y-110102171D01*
X57406098Y-110316335D01*
X57406094Y-110316344D01*
X57344938Y-110544586D01*
X57344936Y-110544596D01*
X57324341Y-110779999D01*
X57324341Y-110780000D01*
X57344936Y-111015403D01*
X57344938Y-111015413D01*
X57406094Y-111243655D01*
X57406096Y-111243659D01*
X57406097Y-111243663D01*
X57440640Y-111317740D01*
X57505965Y-111457830D01*
X57505967Y-111457834D01*
X57641501Y-111651395D01*
X57641506Y-111651402D01*
X57808597Y-111818493D01*
X57808603Y-111818498D01*
X57994158Y-111948425D01*
X58037783Y-112003002D01*
X58044977Y-112072500D01*
X58013454Y-112134855D01*
X57994158Y-112151575D01*
X57808597Y-112281505D01*
X57641505Y-112448597D01*
X57505965Y-112642169D01*
X57505964Y-112642171D01*
X57406098Y-112856335D01*
X57406094Y-112856344D01*
X57344938Y-113084586D01*
X57344936Y-113084596D01*
X57324341Y-113319999D01*
X57324341Y-113320000D01*
X57344936Y-113555403D01*
X57344938Y-113555413D01*
X57406094Y-113783655D01*
X57406096Y-113783659D01*
X57406097Y-113783663D01*
X57505965Y-113997830D01*
X57505967Y-113997834D01*
X57604295Y-114138260D01*
X57626623Y-114170148D01*
X57641501Y-114191395D01*
X57641506Y-114191402D01*
X57808597Y-114358493D01*
X57808603Y-114358498D01*
X57994158Y-114488425D01*
X58037783Y-114543002D01*
X58044977Y-114612500D01*
X58013454Y-114674855D01*
X57994158Y-114691575D01*
X57808597Y-114821505D01*
X57641505Y-114988597D01*
X57505965Y-115182169D01*
X57505964Y-115182171D01*
X57406098Y-115396335D01*
X57406094Y-115396344D01*
X57344938Y-115624586D01*
X57344936Y-115624596D01*
X57324341Y-115859999D01*
X57324341Y-115860000D01*
X57344936Y-116095403D01*
X57344938Y-116095413D01*
X57406094Y-116323655D01*
X57406096Y-116323659D01*
X57406097Y-116323663D01*
X57484279Y-116491324D01*
X57505965Y-116537830D01*
X57505967Y-116537834D01*
X57559797Y-116614710D01*
X57641501Y-116731396D01*
X57641506Y-116731402D01*
X57763430Y-116853326D01*
X57796915Y-116914649D01*
X57791931Y-116984341D01*
X57750059Y-117040274D01*
X57719083Y-117057189D01*
X57587669Y-117106203D01*
X57587664Y-117106206D01*
X57472455Y-117192452D01*
X57472452Y-117192455D01*
X57386206Y-117307664D01*
X57386202Y-117307671D01*
X57335908Y-117442517D01*
X57330646Y-117491465D01*
X57329501Y-117502123D01*
X57329500Y-117502135D01*
X57329500Y-118228770D01*
X57309815Y-118295809D01*
X57257011Y-118341564D01*
X57187853Y-118351508D01*
X57124297Y-118322483D01*
X57117819Y-118316451D01*
X56920819Y-118119451D01*
X56887334Y-118058128D01*
X56884500Y-118031770D01*
X56884500Y-99728229D01*
X56904185Y-99661190D01*
X56920814Y-99640553D01*
X58354549Y-98206817D01*
X58415872Y-98173333D01*
X58442230Y-98170499D01*
X59577871Y-98170499D01*
X59577872Y-98170499D01*
X59637483Y-98164091D01*
X59772331Y-98113796D01*
X59887546Y-98027546D01*
X59973796Y-97912331D01*
X60024091Y-97777483D01*
X60030500Y-97717873D01*
X60030499Y-95922128D01*
X60024091Y-95862517D01*
X60022086Y-95857142D01*
X59973797Y-95727671D01*
X59973795Y-95727668D01*
X59896421Y-95624309D01*
X59872004Y-95558848D01*
X59886855Y-95490575D01*
X59896416Y-95475696D01*
X59973796Y-95372331D01*
X60024091Y-95237483D01*
X60030500Y-95177873D01*
X60030499Y-93382128D01*
X60024091Y-93322517D01*
X60015444Y-93299334D01*
X59973797Y-93187671D01*
X59973793Y-93187664D01*
X59887547Y-93072455D01*
X59887544Y-93072452D01*
X59772335Y-92986206D01*
X59772328Y-92986202D01*
X59640917Y-92937189D01*
X59584983Y-92895318D01*
X59560566Y-92829853D01*
X59575418Y-92761580D01*
X59596563Y-92733332D01*
X59718495Y-92611401D01*
X59854035Y-92417830D01*
X59953903Y-92203663D01*
X60015063Y-91975408D01*
X60035659Y-91740000D01*
X60015063Y-91504592D01*
X59966807Y-91324497D01*
X59953905Y-91276344D01*
X59953904Y-91276343D01*
X59953903Y-91276337D01*
X59854035Y-91062171D01*
X59841530Y-91044311D01*
X59718494Y-90868597D01*
X59551402Y-90701506D01*
X59551396Y-90701501D01*
X59365842Y-90571575D01*
X59322217Y-90516998D01*
X59315023Y-90447500D01*
X59346546Y-90385145D01*
X59365842Y-90368425D01*
X59449293Y-90309992D01*
X59551401Y-90238495D01*
X59718495Y-90071401D01*
X59854035Y-89877830D01*
X59953903Y-89663663D01*
X60015063Y-89435408D01*
X60035659Y-89200000D01*
X60035659Y-89199999D01*
X60035659Y-89199611D01*
X60035707Y-89199445D01*
X60036131Y-89194606D01*
X60037103Y-89194691D01*
X60055344Y-89132572D01*
X60108148Y-89086817D01*
X60177306Y-89076873D01*
X60240862Y-89105898D01*
G37*
G04 #@! TD.AperFunction*
G04 #@! TA.AperFunction,Conductor*
G36*
X99501362Y-89670185D02*
G01*
X99547117Y-89722989D01*
X99557061Y-89792147D01*
X99539862Y-89839596D01*
X99465189Y-89960659D01*
X99465186Y-89960666D01*
X99410001Y-90127203D01*
X99410001Y-90127204D01*
X99410000Y-90127204D01*
X99399500Y-90229983D01*
X99399500Y-91030001D01*
X99399501Y-91030019D01*
X99410000Y-91132796D01*
X99410001Y-91132799D01*
X99465185Y-91299331D01*
X99465187Y-91299336D01*
X99480708Y-91324500D01*
X99557287Y-91448655D01*
X99557289Y-91448657D01*
X99650951Y-91542319D01*
X99684436Y-91603642D01*
X99679452Y-91673334D01*
X99650951Y-91717681D01*
X99557289Y-91811342D01*
X99465187Y-91960663D01*
X99465185Y-91960668D01*
X99448409Y-92011295D01*
X99410001Y-92127203D01*
X99410001Y-92127204D01*
X99410000Y-92127204D01*
X99399500Y-92229983D01*
X99399500Y-93030001D01*
X99399501Y-93030019D01*
X99410000Y-93132796D01*
X99410001Y-93132799D01*
X99431209Y-93196799D01*
X99465186Y-93299334D01*
X99557288Y-93448656D01*
X99681344Y-93572712D01*
X99830666Y-93664814D01*
X99997203Y-93719999D01*
X100099991Y-93730500D01*
X100587769Y-93730499D01*
X100654808Y-93750183D01*
X100675450Y-93766818D01*
X102337181Y-95428549D01*
X102370666Y-95489872D01*
X102373500Y-95516230D01*
X102373500Y-107095769D01*
X102353815Y-107162808D01*
X102337181Y-107183450D01*
X96457449Y-113063181D01*
X96396126Y-113096666D01*
X96369768Y-113099500D01*
X95881998Y-113099500D01*
X95881980Y-113099501D01*
X95779203Y-113110000D01*
X95779200Y-113110001D01*
X95612668Y-113165185D01*
X95612663Y-113165187D01*
X95463342Y-113257289D01*
X95339289Y-113381342D01*
X95339288Y-113381344D01*
X95291217Y-113459281D01*
X95271901Y-113490597D01*
X95219953Y-113537321D01*
X95166362Y-113549500D01*
X91630204Y-113549500D01*
X91563165Y-113529815D01*
X91526396Y-113493322D01*
X91504157Y-113459283D01*
X91504149Y-113459272D01*
X91351049Y-113292963D01*
X91351048Y-113292962D01*
X91351046Y-113292960D01*
X91172649Y-113154107D01*
X91172647Y-113154106D01*
X91172646Y-113154105D01*
X91172639Y-113154100D01*
X91144836Y-113139055D01*
X91095244Y-113089837D01*
X91080135Y-113021620D01*
X91104306Y-112956064D01*
X91144836Y-112920945D01*
X91172639Y-112905899D01*
X91172642Y-112905896D01*
X91172649Y-112905893D01*
X91351046Y-112767040D01*
X91465997Y-112642171D01*
X91504149Y-112600727D01*
X91504150Y-112600725D01*
X91504156Y-112600719D01*
X91627802Y-112411465D01*
X91718611Y-112204441D01*
X91774107Y-111985293D01*
X91788116Y-111816228D01*
X91792775Y-111760006D01*
X91792775Y-111759993D01*
X91774107Y-111534710D01*
X91774107Y-111534707D01*
X91718611Y-111315559D01*
X91627802Y-111108535D01*
X91504156Y-110919281D01*
X91504153Y-110919278D01*
X91504149Y-110919272D01*
X91351049Y-110752963D01*
X91351048Y-110752962D01*
X91351046Y-110752960D01*
X91172649Y-110614107D01*
X91172647Y-110614106D01*
X91172646Y-110614105D01*
X91172639Y-110614100D01*
X91144836Y-110599055D01*
X91095244Y-110549837D01*
X91080135Y-110481620D01*
X91104306Y-110416064D01*
X91144836Y-110380945D01*
X91172639Y-110365899D01*
X91172642Y-110365896D01*
X91172649Y-110365893D01*
X91351046Y-110227040D01*
X91465997Y-110102171D01*
X91504149Y-110060727D01*
X91504150Y-110060725D01*
X91504156Y-110060719D01*
X91627802Y-109871465D01*
X91718611Y-109664441D01*
X91774107Y-109445293D01*
X91792775Y-109220000D01*
X91792775Y-109219993D01*
X91774107Y-108994710D01*
X91774107Y-108994707D01*
X91718611Y-108775559D01*
X91627802Y-108568535D01*
X91504156Y-108379281D01*
X91504153Y-108379278D01*
X91504149Y-108379272D01*
X91351049Y-108212963D01*
X91351048Y-108212962D01*
X91351046Y-108212960D01*
X91172649Y-108074107D01*
X91172647Y-108074106D01*
X91172646Y-108074105D01*
X91172639Y-108074100D01*
X91144836Y-108059055D01*
X91095244Y-108009837D01*
X91080135Y-107941620D01*
X91104306Y-107876064D01*
X91144836Y-107840945D01*
X91172639Y-107825899D01*
X91172642Y-107825896D01*
X91172649Y-107825893D01*
X91351046Y-107687040D01*
X91465997Y-107562171D01*
X91504149Y-107520727D01*
X91504150Y-107520725D01*
X91504156Y-107520719D01*
X91627802Y-107331465D01*
X91718611Y-107124441D01*
X91774107Y-106905293D01*
X91783229Y-106795208D01*
X91792775Y-106680006D01*
X91792775Y-106679993D01*
X91779707Y-106522294D01*
X91774107Y-106454707D01*
X91718611Y-106235559D01*
X91627802Y-106028535D01*
X91596092Y-105980000D01*
X91504157Y-105839283D01*
X91504149Y-105839272D01*
X91351049Y-105672963D01*
X91351048Y-105672962D01*
X91351046Y-105672960D01*
X91172649Y-105534107D01*
X91172647Y-105534106D01*
X91172646Y-105534105D01*
X91172639Y-105534100D01*
X91144836Y-105519055D01*
X91095244Y-105469837D01*
X91080135Y-105401620D01*
X91104306Y-105336064D01*
X91144836Y-105300945D01*
X91172639Y-105285899D01*
X91172642Y-105285896D01*
X91172649Y-105285893D01*
X91351046Y-105147040D01*
X91504156Y-104980719D01*
X91627802Y-104791465D01*
X91718611Y-104584441D01*
X91774107Y-104365293D01*
X91784705Y-104237390D01*
X91792775Y-104140006D01*
X91792775Y-104139993D01*
X91774107Y-103914710D01*
X91774107Y-103914707D01*
X91718611Y-103695559D01*
X91627802Y-103488535D01*
X91504156Y-103299281D01*
X91504153Y-103299278D01*
X91504149Y-103299272D01*
X91351049Y-103132963D01*
X91351048Y-103132962D01*
X91351046Y-103132960D01*
X91172649Y-102994107D01*
X91172647Y-102994106D01*
X91172646Y-102994105D01*
X91172639Y-102994100D01*
X91144836Y-102979055D01*
X91095244Y-102929837D01*
X91080135Y-102861620D01*
X91104306Y-102796064D01*
X91144836Y-102760945D01*
X91172639Y-102745899D01*
X91172642Y-102745896D01*
X91172649Y-102745893D01*
X91351046Y-102607040D01*
X91504156Y-102440719D01*
X91627802Y-102251465D01*
X91718611Y-102044441D01*
X91774107Y-101825293D01*
X91792775Y-101600000D01*
X91792775Y-101599993D01*
X91774107Y-101374710D01*
X91774107Y-101374707D01*
X91718611Y-101155559D01*
X91627802Y-100948535D01*
X91626295Y-100946229D01*
X91504157Y-100759283D01*
X91504149Y-100759272D01*
X91351049Y-100592963D01*
X91351048Y-100592962D01*
X91351046Y-100592960D01*
X91172649Y-100454107D01*
X91172647Y-100454106D01*
X91172646Y-100454105D01*
X91172639Y-100454100D01*
X91144836Y-100439055D01*
X91095244Y-100389837D01*
X91080135Y-100321620D01*
X91104306Y-100256064D01*
X91144836Y-100220945D01*
X91172639Y-100205899D01*
X91172642Y-100205896D01*
X91172649Y-100205893D01*
X91351046Y-100067040D01*
X91504156Y-99900719D01*
X91627802Y-99711465D01*
X91718611Y-99504441D01*
X91774107Y-99285293D01*
X91782076Y-99189119D01*
X91792775Y-99060006D01*
X91792775Y-99059994D01*
X91775904Y-98856397D01*
X91774107Y-98834707D01*
X91774106Y-98834705D01*
X91773998Y-98833394D01*
X91788079Y-98764958D01*
X91809890Y-98735476D01*
X94211638Y-96333727D01*
X94225267Y-96321950D01*
X94244530Y-96307610D01*
X94244532Y-96307606D01*
X94244534Y-96307606D01*
X94262663Y-96285999D01*
X94278113Y-96267585D01*
X94281767Y-96263599D01*
X94287589Y-96257778D01*
X94307928Y-96232054D01*
X94317194Y-96221011D01*
X94357302Y-96173214D01*
X94357304Y-96173209D01*
X94361272Y-96167179D01*
X94361323Y-96167212D01*
X94365369Y-96160860D01*
X94365317Y-96160828D01*
X94369109Y-96154679D01*
X94369111Y-96154677D01*
X94401569Y-96085069D01*
X94436040Y-96016433D01*
X94436043Y-96016417D01*
X94438510Y-96009644D01*
X94438568Y-96009665D01*
X94441043Y-96002546D01*
X94440985Y-96002527D01*
X94443256Y-95995672D01*
X94458784Y-95920467D01*
X94476500Y-95845721D01*
X94476500Y-95845720D01*
X94477339Y-95838548D01*
X94477397Y-95838554D01*
X94478164Y-95831056D01*
X94478104Y-95831051D01*
X94478733Y-95823860D01*
X94476500Y-95747103D01*
X94476500Y-91040229D01*
X94496185Y-90973190D01*
X94512819Y-90952548D01*
X94673083Y-90792284D01*
X94853821Y-90611545D01*
X94915142Y-90578062D01*
X94984833Y-90583046D01*
X95040767Y-90624917D01*
X95065184Y-90690382D01*
X95065500Y-90699228D01*
X95065500Y-91094001D01*
X95065501Y-91094019D01*
X95076000Y-91196796D01*
X95076001Y-91196799D01*
X95131185Y-91363331D01*
X95131187Y-91363336D01*
X95149285Y-91392678D01*
X95218310Y-91504586D01*
X95223289Y-91512657D01*
X95316951Y-91606319D01*
X95350436Y-91667642D01*
X95345452Y-91737334D01*
X95316951Y-91781681D01*
X95223289Y-91875342D01*
X95131187Y-92024663D01*
X95131186Y-92024666D01*
X95076001Y-92191203D01*
X95076001Y-92191204D01*
X95076000Y-92191204D01*
X95065500Y-92293983D01*
X95065500Y-93094001D01*
X95065501Y-93094019D01*
X95076000Y-93196796D01*
X95076001Y-93196799D01*
X95131185Y-93363331D01*
X95131187Y-93363336D01*
X95142778Y-93382128D01*
X95223288Y-93512656D01*
X95347344Y-93636712D01*
X95456597Y-93704099D01*
X95503321Y-93756047D01*
X95515500Y-93809638D01*
X95515500Y-102732042D01*
X95495815Y-102799081D01*
X95456598Y-102837580D01*
X95447344Y-102843287D01*
X95323289Y-102967342D01*
X95231187Y-103116663D01*
X95231185Y-103116668D01*
X95215774Y-103163177D01*
X95176001Y-103283203D01*
X95176001Y-103283204D01*
X95176000Y-103283204D01*
X95165500Y-103385983D01*
X95165500Y-104386001D01*
X95165501Y-104386019D01*
X95176000Y-104488796D01*
X95176001Y-104488799D01*
X95231185Y-104655331D01*
X95231187Y-104655336D01*
X95249894Y-104685665D01*
X95323288Y-104804656D01*
X95447344Y-104928712D01*
X95456591Y-104934416D01*
X95503318Y-104986360D01*
X95515500Y-105039957D01*
X95515500Y-109111769D01*
X95495815Y-109178808D01*
X95479181Y-109199450D01*
X94081228Y-110597402D01*
X94019905Y-110630887D01*
X94019329Y-110631011D01*
X93954196Y-110644856D01*
X93954192Y-110644857D01*
X93781270Y-110721848D01*
X93781265Y-110721851D01*
X93628129Y-110833111D01*
X93501466Y-110973785D01*
X93406821Y-111137715D01*
X93406818Y-111137722D01*
X93348327Y-111317740D01*
X93348326Y-111317744D01*
X93328540Y-111506000D01*
X93348326Y-111694256D01*
X93348327Y-111694259D01*
X93406818Y-111874277D01*
X93406821Y-111874284D01*
X93501467Y-112038216D01*
X93598485Y-112145965D01*
X93628129Y-112178888D01*
X93781265Y-112290148D01*
X93781270Y-112290151D01*
X93954192Y-112367142D01*
X93954197Y-112367144D01*
X94139354Y-112406500D01*
X94139355Y-112406500D01*
X94328644Y-112406500D01*
X94328646Y-112406500D01*
X94513803Y-112367144D01*
X94686730Y-112290151D01*
X94839871Y-112178888D01*
X94966533Y-112038216D01*
X95061179Y-111874284D01*
X95116522Y-111703955D01*
X95146769Y-111654597D01*
X96751642Y-110049724D01*
X96765271Y-110037947D01*
X96784530Y-110023610D01*
X96803408Y-110001112D01*
X96818101Y-109983601D01*
X96821761Y-109979606D01*
X96827590Y-109973778D01*
X96847941Y-109948039D01*
X96853948Y-109940879D01*
X96897302Y-109889214D01*
X96897306Y-109889205D01*
X96901274Y-109883175D01*
X96901325Y-109883208D01*
X96905372Y-109876856D01*
X96905320Y-109876824D01*
X96909112Y-109870675D01*
X96941575Y-109801058D01*
X96959116Y-109766128D01*
X96976040Y-109732433D01*
X96976042Y-109732421D01*
X96978509Y-109725646D01*
X96978567Y-109725667D01*
X96981043Y-109718546D01*
X96980986Y-109718528D01*
X96983257Y-109711673D01*
X96998792Y-109636434D01*
X97004684Y-109611575D01*
X97016500Y-109561721D01*
X97016500Y-109561710D01*
X97017338Y-109554548D01*
X97017398Y-109554555D01*
X97018164Y-109547055D01*
X97018105Y-109547050D01*
X97018734Y-109539860D01*
X97016500Y-109463083D01*
X97016500Y-105039957D01*
X97036185Y-104972918D01*
X97075407Y-104934416D01*
X97084656Y-104928712D01*
X97178319Y-104835049D01*
X97239642Y-104801564D01*
X97309334Y-104806548D01*
X97353681Y-104835049D01*
X97447344Y-104928712D01*
X97596666Y-105020814D01*
X97763203Y-105075999D01*
X97865991Y-105086500D01*
X98666008Y-105086499D01*
X98666016Y-105086498D01*
X98666019Y-105086498D01*
X98722302Y-105080748D01*
X98768797Y-105075999D01*
X98935334Y-105020814D01*
X99084656Y-104928712D01*
X99208712Y-104804656D01*
X99300814Y-104655334D01*
X99355999Y-104488797D01*
X99366500Y-104386009D01*
X99366499Y-103385992D01*
X99366493Y-103385937D01*
X99355999Y-103283203D01*
X99355998Y-103283200D01*
X99306213Y-103132960D01*
X99300814Y-103116666D01*
X99208712Y-102967344D01*
X99084656Y-102843288D01*
X99084655Y-102843287D01*
X99075402Y-102837580D01*
X99028678Y-102785632D01*
X99016500Y-102732042D01*
X99016500Y-100053230D01*
X99036185Y-99986191D01*
X99052819Y-99965549D01*
X99187549Y-99830819D01*
X99248872Y-99797334D01*
X99275230Y-99794500D01*
X99616196Y-99794500D01*
X99634631Y-99793049D01*
X99653069Y-99791598D01*
X99653071Y-99791597D01*
X99653073Y-99791597D01*
X99694691Y-99779505D01*
X99810898Y-99745744D01*
X99952365Y-99662081D01*
X100068581Y-99545865D01*
X100152244Y-99404398D01*
X100198098Y-99246569D01*
X100201000Y-99209694D01*
X100201000Y-98968000D01*
X100220685Y-98900961D01*
X100273489Y-98855206D01*
X100325000Y-98844000D01*
X100588000Y-98844000D01*
X100588000Y-98294000D01*
X101088000Y-98294000D01*
X101088000Y-98844000D01*
X101491144Y-98844000D01*
X101527989Y-98841100D01*
X101527995Y-98841099D01*
X101685693Y-98795283D01*
X101685696Y-98795282D01*
X101827052Y-98711685D01*
X101827061Y-98711678D01*
X101943178Y-98595561D01*
X101943185Y-98595552D01*
X102026781Y-98454198D01*
X102072600Y-98296486D01*
X102072795Y-98294001D01*
X102072795Y-98294000D01*
X101088000Y-98294000D01*
X100588000Y-98294000D01*
X99932315Y-98294000D01*
X99869194Y-98276732D01*
X99810896Y-98242255D01*
X99810893Y-98242254D01*
X99653073Y-98196402D01*
X99653067Y-98196401D01*
X99616196Y-98193500D01*
X99616194Y-98193500D01*
X98309806Y-98193500D01*
X98309804Y-98193500D01*
X98272932Y-98196401D01*
X98272926Y-98196402D01*
X98115106Y-98242254D01*
X98115103Y-98242255D01*
X97973637Y-98325917D01*
X97973629Y-98325923D01*
X97857423Y-98442129D01*
X97857417Y-98442137D01*
X97773755Y-98583603D01*
X97773754Y-98583606D01*
X97727902Y-98741426D01*
X97727901Y-98741432D01*
X97725000Y-98778304D01*
X97725000Y-99122080D01*
X97705315Y-99189119D01*
X97698268Y-99198989D01*
X97684059Y-99216958D01*
X97634695Y-99275789D01*
X97630729Y-99281819D01*
X97630682Y-99281788D01*
X97626630Y-99288147D01*
X97626679Y-99288177D01*
X97622889Y-99294321D01*
X97590424Y-99363941D01*
X97555960Y-99432566D01*
X97553488Y-99439357D01*
X97553432Y-99439336D01*
X97550960Y-99446450D01*
X97551015Y-99446469D01*
X97548742Y-99453327D01*
X97544448Y-99474127D01*
X97533207Y-99528565D01*
X97529106Y-99545870D01*
X97515498Y-99603286D01*
X97514661Y-99610454D01*
X97514601Y-99610447D01*
X97513835Y-99617945D01*
X97513895Y-99617951D01*
X97513265Y-99625140D01*
X97515500Y-99701916D01*
X97515500Y-102732042D01*
X97495815Y-102799081D01*
X97456598Y-102837580D01*
X97447344Y-102843287D01*
X97447343Y-102843288D01*
X97353681Y-102936951D01*
X97292358Y-102970436D01*
X97222666Y-102965452D01*
X97178319Y-102936951D01*
X97084655Y-102843287D01*
X97075402Y-102837580D01*
X97028678Y-102785632D01*
X97016500Y-102732042D01*
X97016500Y-94996000D01*
X97646540Y-94996000D01*
X97666326Y-95184256D01*
X97666327Y-95184259D01*
X97724818Y-95364277D01*
X97724821Y-95364284D01*
X97761924Y-95428549D01*
X97784887Y-95468321D01*
X97801500Y-95530321D01*
X97801500Y-96602765D01*
X97784234Y-96665883D01*
X97773757Y-96683598D01*
X97773754Y-96683607D01*
X97727902Y-96841426D01*
X97727901Y-96841432D01*
X97725000Y-96878304D01*
X97725000Y-97309696D01*
X97727901Y-97346567D01*
X97727902Y-97346573D01*
X97773754Y-97504393D01*
X97773755Y-97504396D01*
X97773756Y-97504398D01*
X97799716Y-97548294D01*
X97857417Y-97645862D01*
X97857423Y-97645870D01*
X97973629Y-97762076D01*
X97973633Y-97762079D01*
X97973635Y-97762081D01*
X98115102Y-97845744D01*
X98129190Y-97849837D01*
X98272926Y-97891597D01*
X98272929Y-97891597D01*
X98272931Y-97891598D01*
X98285222Y-97892565D01*
X98309804Y-97894500D01*
X98309806Y-97894500D01*
X99616196Y-97894500D01*
X99634631Y-97893049D01*
X99653069Y-97891598D01*
X99653071Y-97891597D01*
X99653073Y-97891597D01*
X99694691Y-97879505D01*
X99810898Y-97845744D01*
X99869194Y-97811268D01*
X99932315Y-97794000D01*
X100588000Y-97794000D01*
X100588000Y-97244000D01*
X101088000Y-97244000D01*
X101088000Y-97794000D01*
X102072795Y-97794000D01*
X102072795Y-97793998D01*
X102072600Y-97791513D01*
X102026781Y-97633801D01*
X101943185Y-97492447D01*
X101943178Y-97492438D01*
X101827061Y-97376321D01*
X101827052Y-97376314D01*
X101685696Y-97292717D01*
X101685693Y-97292716D01*
X101527995Y-97246900D01*
X101527989Y-97246899D01*
X101491144Y-97244000D01*
X101088000Y-97244000D01*
X100588000Y-97244000D01*
X100325000Y-97244000D01*
X100257961Y-97224315D01*
X100212206Y-97171511D01*
X100201000Y-97120000D01*
X100201000Y-96878304D01*
X100198098Y-96841432D01*
X100198097Y-96841426D01*
X100152245Y-96683606D01*
X100152244Y-96683603D01*
X100152244Y-96683602D01*
X100068581Y-96542135D01*
X100068579Y-96542133D01*
X100068576Y-96542129D01*
X99952370Y-96425923D01*
X99952362Y-96425917D01*
X99810896Y-96342255D01*
X99810893Y-96342254D01*
X99653073Y-96296402D01*
X99653067Y-96296401D01*
X99616196Y-96293500D01*
X99616194Y-96293500D01*
X99426500Y-96293500D01*
X99359461Y-96273815D01*
X99313706Y-96221011D01*
X99302500Y-96169500D01*
X99302500Y-95530321D01*
X99319113Y-95468321D01*
X99325500Y-95457258D01*
X99379179Y-95364284D01*
X99437674Y-95184256D01*
X99457460Y-94996000D01*
X99437674Y-94807744D01*
X99379179Y-94627716D01*
X99284533Y-94463784D01*
X99157871Y-94323112D01*
X99157870Y-94323111D01*
X99004734Y-94211851D01*
X99004729Y-94211848D01*
X98831807Y-94134857D01*
X98831802Y-94134855D01*
X98686001Y-94103865D01*
X98646646Y-94095500D01*
X98457354Y-94095500D01*
X98424897Y-94102398D01*
X98272197Y-94134855D01*
X98272192Y-94134857D01*
X98099270Y-94211848D01*
X98099265Y-94211851D01*
X97946129Y-94323111D01*
X97819466Y-94463785D01*
X97724821Y-94627715D01*
X97724818Y-94627722D01*
X97666327Y-94807740D01*
X97666326Y-94807744D01*
X97646540Y-94996000D01*
X97016500Y-94996000D01*
X97016500Y-93809638D01*
X97036185Y-93742599D01*
X97075401Y-93704100D01*
X97184656Y-93636712D01*
X97308712Y-93512656D01*
X97400814Y-93363334D01*
X97455999Y-93196797D01*
X97466500Y-93094009D01*
X97466499Y-92293992D01*
X97459960Y-92229983D01*
X97455999Y-92191203D01*
X97455998Y-92191200D01*
X97445416Y-92159266D01*
X97400814Y-92024666D01*
X97308712Y-91875344D01*
X97215049Y-91781681D01*
X97181564Y-91720358D01*
X97186548Y-91650666D01*
X97215049Y-91606319D01*
X97248656Y-91572712D01*
X97308712Y-91512656D01*
X97400814Y-91363334D01*
X97455999Y-91196797D01*
X97466500Y-91094009D01*
X97466499Y-90606228D01*
X97486183Y-90539190D01*
X97502813Y-90518553D01*
X98334548Y-89686819D01*
X98395871Y-89653334D01*
X98422229Y-89650500D01*
X99434323Y-89650500D01*
X99501362Y-89670185D01*
G37*
G04 #@! TD.AperFunction*
G04 #@! TA.AperFunction,Conductor*
G36*
X105613651Y-95407735D02*
G01*
X105644385Y-95443203D01*
X105684659Y-95512960D01*
X105693467Y-95528216D01*
X105820129Y-95668888D01*
X105973265Y-95780148D01*
X105973270Y-95780151D01*
X106146192Y-95857142D01*
X106146197Y-95857144D01*
X106331354Y-95896500D01*
X106331355Y-95896500D01*
X106520644Y-95896500D01*
X106520646Y-95896500D01*
X106705803Y-95857144D01*
X106878730Y-95780151D01*
X107002617Y-95690141D01*
X107068420Y-95666663D01*
X107136474Y-95682488D01*
X107185169Y-95732594D01*
X107199500Y-95790461D01*
X107199500Y-97435500D01*
X107179815Y-97502539D01*
X107127011Y-97548294D01*
X107075501Y-97559500D01*
X106902130Y-97559500D01*
X106902123Y-97559501D01*
X106842516Y-97565908D01*
X106707671Y-97616202D01*
X106707664Y-97616206D01*
X106592455Y-97702452D01*
X106592452Y-97702455D01*
X106506206Y-97817664D01*
X106506202Y-97817671D01*
X106455908Y-97952517D01*
X106449501Y-98012116D01*
X106449501Y-98012123D01*
X106449500Y-98012135D01*
X106449500Y-100107870D01*
X106449501Y-100107876D01*
X106455908Y-100167483D01*
X106506202Y-100302328D01*
X106506206Y-100302335D01*
X106592452Y-100417544D01*
X106592455Y-100417547D01*
X106707664Y-100503793D01*
X106707671Y-100503797D01*
X106842517Y-100554091D01*
X106842516Y-100554091D01*
X106849444Y-100554835D01*
X106902127Y-100560500D01*
X108337769Y-100560499D01*
X108404808Y-100580184D01*
X108425450Y-100596818D01*
X108687181Y-100858548D01*
X108720666Y-100919871D01*
X108723500Y-100946229D01*
X108723500Y-104047962D01*
X108703815Y-104115001D01*
X108651011Y-104160756D01*
X108581853Y-104170700D01*
X108518297Y-104141675D01*
X108480523Y-104082897D01*
X108475847Y-104057228D01*
X108464886Y-103910973D01*
X108464886Y-103910971D01*
X108404857Y-103647966D01*
X108404851Y-103647947D01*
X108306290Y-103396818D01*
X108306291Y-103396818D01*
X108171397Y-103163177D01*
X108117704Y-103095847D01*
X107282546Y-103931004D01*
X107272812Y-103901044D01*
X107184814Y-103762381D01*
X107065097Y-103649960D01*
X106930489Y-103575958D01*
X107765150Y-102741296D01*
X107582517Y-102616779D01*
X107582516Y-102616778D01*
X107339460Y-102499730D01*
X107339462Y-102499730D01*
X107081662Y-102420209D01*
X107081656Y-102420207D01*
X106814898Y-102380000D01*
X106545101Y-102380000D01*
X106278343Y-102420207D01*
X106278337Y-102420209D01*
X106020538Y-102499730D01*
X105777485Y-102616778D01*
X105777476Y-102616783D01*
X105594848Y-102741296D01*
X106432465Y-103578913D01*
X106364371Y-103605874D01*
X106231508Y-103702405D01*
X106126825Y-103828945D01*
X106078368Y-103931921D01*
X105242295Y-103095848D01*
X105188600Y-103163180D01*
X105053709Y-103396818D01*
X104955148Y-103647947D01*
X104955142Y-103647966D01*
X104895113Y-103910971D01*
X104895113Y-103910973D01*
X104874953Y-104179995D01*
X104874953Y-104180004D01*
X104895113Y-104449026D01*
X104895113Y-104449028D01*
X104955142Y-104712033D01*
X104955148Y-104712052D01*
X105053709Y-104963181D01*
X105053708Y-104963181D01*
X105188602Y-105196822D01*
X105242294Y-105264151D01*
X106077452Y-104428992D01*
X106087188Y-104458956D01*
X106175186Y-104597619D01*
X106294903Y-104710040D01*
X106429510Y-104784041D01*
X105594848Y-105618702D01*
X105777483Y-105743220D01*
X105777485Y-105743221D01*
X106020539Y-105860269D01*
X106020537Y-105860269D01*
X106278337Y-105939790D01*
X106278343Y-105939792D01*
X106545101Y-105979999D01*
X106545110Y-105980000D01*
X106814890Y-105980000D01*
X106814898Y-105979999D01*
X107081656Y-105939792D01*
X107081662Y-105939790D01*
X107339461Y-105860269D01*
X107582521Y-105743218D01*
X107765150Y-105618702D01*
X106927534Y-104781086D01*
X106995629Y-104754126D01*
X107128492Y-104657595D01*
X107233175Y-104531055D01*
X107281631Y-104428079D01*
X108117703Y-105264151D01*
X108117704Y-105264150D01*
X108171393Y-105196828D01*
X108171400Y-105196817D01*
X108306290Y-104963181D01*
X108404851Y-104712052D01*
X108404857Y-104712033D01*
X108464886Y-104449028D01*
X108464886Y-104449026D01*
X108475847Y-104302771D01*
X108500486Y-104237390D01*
X108556562Y-104195709D01*
X108626270Y-104190961D01*
X108687479Y-104224654D01*
X108720755Y-104286091D01*
X108723500Y-104312037D01*
X108723500Y-106023770D01*
X108703815Y-106090809D01*
X108687181Y-106111451D01*
X107455450Y-107343181D01*
X107394127Y-107376666D01*
X107367769Y-107379500D01*
X105332129Y-107379500D01*
X105332123Y-107379501D01*
X105272516Y-107385908D01*
X105137671Y-107436202D01*
X105137664Y-107436206D01*
X105022455Y-107522452D01*
X105022452Y-107522455D01*
X104936206Y-107637664D01*
X104936202Y-107637671D01*
X104885908Y-107772517D01*
X104879501Y-107832116D01*
X104879500Y-107832135D01*
X104879500Y-109907769D01*
X104859815Y-109974808D01*
X104843181Y-109995450D01*
X101325451Y-113513181D01*
X101264128Y-113546666D01*
X101237770Y-113549500D01*
X99397638Y-113549500D01*
X99330599Y-113529815D01*
X99292099Y-113490597D01*
X99224712Y-113381344D01*
X99100656Y-113257288D01*
X98951334Y-113165186D01*
X98786774Y-113110656D01*
X98729329Y-113070883D01*
X98702506Y-113006367D01*
X98714821Y-112937591D01*
X98738094Y-112905272D01*
X103609638Y-108033727D01*
X103623267Y-108021950D01*
X103642530Y-108007610D01*
X103642532Y-108007606D01*
X103642534Y-108007606D01*
X103660663Y-107985999D01*
X103676113Y-107967585D01*
X103679767Y-107963599D01*
X103685589Y-107957778D01*
X103705928Y-107932054D01*
X103711162Y-107925815D01*
X103755302Y-107873214D01*
X103755304Y-107873209D01*
X103759272Y-107867179D01*
X103759323Y-107867212D01*
X103763369Y-107860860D01*
X103763317Y-107860828D01*
X103767109Y-107854679D01*
X103767111Y-107854677D01*
X103799569Y-107785069D01*
X103834040Y-107716433D01*
X103834043Y-107716417D01*
X103836510Y-107709644D01*
X103836568Y-107709665D01*
X103839043Y-107702546D01*
X103838985Y-107702527D01*
X103841256Y-107695672D01*
X103856784Y-107620467D01*
X103870601Y-107562171D01*
X103874500Y-107545721D01*
X103874500Y-107545720D01*
X103875339Y-107538548D01*
X103875397Y-107538554D01*
X103876164Y-107531056D01*
X103876104Y-107531051D01*
X103876733Y-107523860D01*
X103874500Y-107447103D01*
X103874500Y-95790461D01*
X103894185Y-95723422D01*
X103946989Y-95677667D01*
X104016147Y-95667723D01*
X104071381Y-95690141D01*
X104195266Y-95780148D01*
X104195270Y-95780151D01*
X104368192Y-95857142D01*
X104368197Y-95857144D01*
X104553354Y-95896500D01*
X104553355Y-95896500D01*
X104742644Y-95896500D01*
X104742646Y-95896500D01*
X104927803Y-95857144D01*
X105100730Y-95780151D01*
X105253871Y-95668888D01*
X105380533Y-95528216D01*
X105429613Y-95443205D01*
X105480179Y-95394991D01*
X105548786Y-95381767D01*
X105613651Y-95407735D01*
G37*
G04 #@! TD.AperFunction*
G04 #@! TA.AperFunction,Conductor*
G36*
X114832539Y-53660185D02*
G01*
X114878294Y-53712989D01*
X114889500Y-53764500D01*
X114889500Y-157355500D01*
X114869815Y-157422539D01*
X114817011Y-157468294D01*
X114765500Y-157479500D01*
X25124500Y-157479500D01*
X25057461Y-157459815D01*
X25011706Y-157407011D01*
X25000500Y-157355500D01*
X25000500Y-153000000D01*
X25995176Y-153000000D01*
X26014461Y-153392550D01*
X26072129Y-153781308D01*
X26167625Y-154162549D01*
X26300016Y-154532559D01*
X26300023Y-154532575D01*
X26468062Y-154887864D01*
X26670109Y-155224958D01*
X26904228Y-155540632D01*
X27000068Y-155646376D01*
X27000069Y-155646376D01*
X28597278Y-154049167D01*
X28627958Y-154094167D01*
X28806360Y-154286438D01*
X28951427Y-154402124D01*
X27353622Y-155999929D01*
X27353622Y-155999930D01*
X27459367Y-156095771D01*
X27775041Y-156329890D01*
X28112135Y-156531937D01*
X28467424Y-156699976D01*
X28467440Y-156699983D01*
X28837450Y-156832374D01*
X29218691Y-156927870D01*
X29607449Y-156985538D01*
X30000000Y-157004823D01*
X30392550Y-156985538D01*
X30781308Y-156927870D01*
X31162549Y-156832374D01*
X31532559Y-156699983D01*
X31532575Y-156699976D01*
X31887864Y-156531937D01*
X32224958Y-156329890D01*
X32540632Y-156095770D01*
X32646376Y-155999929D01*
X31048572Y-154402125D01*
X31193640Y-154286438D01*
X31372042Y-154094167D01*
X31402721Y-154049168D01*
X32999929Y-155646376D01*
X33095770Y-155540632D01*
X33329890Y-155224958D01*
X33531937Y-154887864D01*
X33699976Y-154532575D01*
X33699983Y-154532559D01*
X33832374Y-154162549D01*
X33927870Y-153781308D01*
X33985538Y-153392550D01*
X34004823Y-153000000D01*
X105995176Y-153000000D01*
X106014461Y-153392550D01*
X106072129Y-153781308D01*
X106167625Y-154162549D01*
X106300016Y-154532559D01*
X106300023Y-154532575D01*
X106468062Y-154887864D01*
X106670109Y-155224958D01*
X106904228Y-155540632D01*
X107000068Y-155646376D01*
X107000069Y-155646376D01*
X108597278Y-154049167D01*
X108627958Y-154094167D01*
X108806360Y-154286438D01*
X108951427Y-154402124D01*
X107353622Y-155999929D01*
X107353622Y-155999930D01*
X107459367Y-156095771D01*
X107775041Y-156329890D01*
X108112135Y-156531937D01*
X108467424Y-156699976D01*
X108467440Y-156699983D01*
X108837450Y-156832374D01*
X109218691Y-156927870D01*
X109607449Y-156985538D01*
X110000000Y-157004823D01*
X110392550Y-156985538D01*
X110781308Y-156927870D01*
X111162549Y-156832374D01*
X111532559Y-156699983D01*
X111532575Y-156699976D01*
X111887864Y-156531937D01*
X112224958Y-156329890D01*
X112540632Y-156095770D01*
X112646376Y-155999929D01*
X111048572Y-154402125D01*
X111193640Y-154286438D01*
X111372042Y-154094167D01*
X111402721Y-154049168D01*
X112999929Y-155646376D01*
X113095770Y-155540632D01*
X113329890Y-155224958D01*
X113531937Y-154887864D01*
X113699976Y-154532575D01*
X113699983Y-154532559D01*
X113832374Y-154162549D01*
X113927870Y-153781308D01*
X113985538Y-153392550D01*
X114004823Y-153000000D01*
X113985538Y-152607449D01*
X113927870Y-152218691D01*
X113832374Y-151837450D01*
X113699983Y-151467440D01*
X113699976Y-151467424D01*
X113531937Y-151112135D01*
X113329890Y-150775041D01*
X113095771Y-150459367D01*
X112999930Y-150353622D01*
X112999929Y-150353622D01*
X111402720Y-151950830D01*
X111372042Y-151905833D01*
X111193640Y-151713562D01*
X111048572Y-151597874D01*
X112646376Y-150000069D01*
X112646376Y-150000068D01*
X112540632Y-149904228D01*
X112224958Y-149670109D01*
X111887864Y-149468062D01*
X111532575Y-149300023D01*
X111532559Y-149300016D01*
X111162549Y-149167625D01*
X110781308Y-149072129D01*
X110392550Y-149014461D01*
X110000000Y-148995176D01*
X109607449Y-149014461D01*
X109218691Y-149072129D01*
X108837450Y-149167625D01*
X108467440Y-149300016D01*
X108467424Y-149300023D01*
X108112135Y-149468062D01*
X107775041Y-149670109D01*
X107459368Y-149904228D01*
X107353622Y-150000069D01*
X108951427Y-151597874D01*
X108806360Y-151713562D01*
X108627958Y-151905833D01*
X108597278Y-151950831D01*
X107000069Y-150353622D01*
X106904228Y-150459368D01*
X106670109Y-150775041D01*
X106468062Y-151112135D01*
X106300023Y-151467424D01*
X106300016Y-151467440D01*
X106167625Y-151837450D01*
X106072129Y-152218691D01*
X106014461Y-152607449D01*
X105995176Y-153000000D01*
X34004823Y-153000000D01*
X33985538Y-152607449D01*
X33927870Y-152218691D01*
X33832374Y-151837450D01*
X33699983Y-151467440D01*
X33699976Y-151467424D01*
X33531937Y-151112135D01*
X33329890Y-150775041D01*
X33095771Y-150459367D01*
X32999930Y-150353622D01*
X32999929Y-150353622D01*
X31402720Y-151950830D01*
X31372042Y-151905833D01*
X31193640Y-151713562D01*
X31048572Y-151597874D01*
X32646376Y-150000069D01*
X32646376Y-150000068D01*
X32540632Y-149904228D01*
X32224958Y-149670109D01*
X31887864Y-149468062D01*
X31796394Y-149424800D01*
X68658341Y-149424800D01*
X68678936Y-149660203D01*
X68678938Y-149660213D01*
X68740094Y-149888455D01*
X68740096Y-149888459D01*
X68740097Y-149888463D01*
X68790031Y-149995546D01*
X68839964Y-150102628D01*
X68839965Y-150102630D01*
X68975505Y-150296202D01*
X69142597Y-150463294D01*
X69336169Y-150598834D01*
X69336171Y-150598835D01*
X69550337Y-150698703D01*
X69778592Y-150759863D01*
X69955034Y-150775300D01*
X70072966Y-150775300D01*
X70249408Y-150759863D01*
X70477663Y-150698703D01*
X70691829Y-150598835D01*
X70885401Y-150463295D01*
X71052495Y-150296201D01*
X71188035Y-150102630D01*
X71287903Y-149888463D01*
X71349063Y-149660208D01*
X71369659Y-149424800D01*
X89158341Y-149424800D01*
X89178936Y-149660203D01*
X89178938Y-149660213D01*
X89240094Y-149888455D01*
X89240096Y-149888459D01*
X89240097Y-149888463D01*
X89290031Y-149995546D01*
X89339964Y-150102628D01*
X89339965Y-150102630D01*
X89475505Y-150296202D01*
X89642597Y-150463294D01*
X89836169Y-150598834D01*
X89836171Y-150598835D01*
X90050337Y-150698703D01*
X90278592Y-150759863D01*
X90455034Y-150775300D01*
X90572966Y-150775300D01*
X90749408Y-150759863D01*
X90977663Y-150698703D01*
X91191829Y-150598835D01*
X91385401Y-150463295D01*
X91552495Y-150296201D01*
X91688035Y-150102630D01*
X91787903Y-149888463D01*
X91849063Y-149660208D01*
X91869659Y-149424800D01*
X91849063Y-149189392D01*
X91787903Y-148961137D01*
X91688035Y-148746971D01*
X91688034Y-148746969D01*
X91552494Y-148553397D01*
X91385402Y-148386305D01*
X91191830Y-148250765D01*
X91191828Y-148250764D01*
X91084746Y-148200831D01*
X90977663Y-148150897D01*
X90977659Y-148150896D01*
X90977655Y-148150894D01*
X90749413Y-148089738D01*
X90749403Y-148089736D01*
X90572966Y-148074300D01*
X90455034Y-148074300D01*
X90278596Y-148089736D01*
X90278586Y-148089738D01*
X90050344Y-148150894D01*
X90050335Y-148150898D01*
X89836171Y-148250764D01*
X89836169Y-148250765D01*
X89642597Y-148386305D01*
X89475506Y-148553397D01*
X89475501Y-148553404D01*
X89339967Y-148746965D01*
X89339965Y-148746969D01*
X89240098Y-148961135D01*
X89240094Y-148961144D01*
X89178938Y-149189386D01*
X89178936Y-149189396D01*
X89158341Y-149424799D01*
X89158341Y-149424800D01*
X71369659Y-149424800D01*
X71349063Y-149189392D01*
X71287903Y-148961137D01*
X71188035Y-148746971D01*
X71188034Y-148746969D01*
X71052494Y-148553397D01*
X70885402Y-148386305D01*
X70691830Y-148250765D01*
X70691828Y-148250764D01*
X70584746Y-148200831D01*
X70477663Y-148150897D01*
X70477659Y-148150896D01*
X70477655Y-148150894D01*
X70249413Y-148089738D01*
X70249403Y-148089736D01*
X70072966Y-148074300D01*
X69955034Y-148074300D01*
X69778596Y-148089736D01*
X69778586Y-148089738D01*
X69550344Y-148150894D01*
X69550335Y-148150898D01*
X69336171Y-148250764D01*
X69336169Y-148250765D01*
X69142597Y-148386305D01*
X68975506Y-148553397D01*
X68975501Y-148553404D01*
X68839967Y-148746965D01*
X68839965Y-148746969D01*
X68740098Y-148961135D01*
X68740094Y-148961144D01*
X68678938Y-149189386D01*
X68678936Y-149189396D01*
X68658341Y-149424799D01*
X68658341Y-149424800D01*
X31796394Y-149424800D01*
X31532575Y-149300023D01*
X31532559Y-149300016D01*
X31162549Y-149167625D01*
X30781308Y-149072129D01*
X30392550Y-149014461D01*
X30000000Y-148995176D01*
X29607449Y-149014461D01*
X29218691Y-149072129D01*
X28837450Y-149167625D01*
X28467440Y-149300016D01*
X28467424Y-149300023D01*
X28112135Y-149468062D01*
X27775041Y-149670109D01*
X27459368Y-149904228D01*
X27353622Y-150000069D01*
X28951427Y-151597874D01*
X28806360Y-151713562D01*
X28627958Y-151905833D01*
X28597278Y-151950831D01*
X27000069Y-150353622D01*
X26904228Y-150459368D01*
X26670109Y-150775041D01*
X26468062Y-151112135D01*
X26300023Y-151467424D01*
X26300016Y-151467440D01*
X26167625Y-151837450D01*
X26072129Y-152218691D01*
X26014461Y-152607449D01*
X25995176Y-153000000D01*
X25000500Y-153000000D01*
X25000500Y-145934335D01*
X28239500Y-145934335D01*
X28253143Y-146016094D01*
X28280429Y-146179616D01*
X28361169Y-146414802D01*
X28361172Y-146414811D01*
X28479524Y-146633506D01*
X28479526Y-146633509D01*
X28632262Y-146829744D01*
X28791744Y-146976557D01*
X28815217Y-146998166D01*
X29023393Y-147134173D01*
X29251118Y-147234063D01*
X29492175Y-147295107D01*
X29492179Y-147295108D01*
X29492181Y-147295108D01*
X29492186Y-147295109D01*
X29625376Y-147306145D01*
X29677933Y-147310500D01*
X29677935Y-147310500D01*
X29802065Y-147310500D01*
X29802067Y-147310500D01*
X29863284Y-147305427D01*
X29987813Y-147295109D01*
X29987816Y-147295108D01*
X29987821Y-147295108D01*
X30228881Y-147234063D01*
X30456607Y-147134173D01*
X30664785Y-146998164D01*
X30847738Y-146829744D01*
X31000474Y-146633509D01*
X31118828Y-146414810D01*
X31199571Y-146179614D01*
X31240500Y-145934335D01*
X31240500Y-145685665D01*
X31199571Y-145440386D01*
X31118828Y-145205190D01*
X31000474Y-144986491D01*
X30847738Y-144790256D01*
X30664785Y-144621836D01*
X30664782Y-144621833D01*
X30456606Y-144485826D01*
X30228881Y-144385936D01*
X29987824Y-144324892D01*
X29987813Y-144324890D01*
X29822548Y-144311197D01*
X29802067Y-144309500D01*
X29677933Y-144309500D01*
X29658521Y-144311108D01*
X29492186Y-144324890D01*
X29492175Y-144324892D01*
X29251118Y-144385936D01*
X29023393Y-144485826D01*
X28815217Y-144621833D01*
X28632261Y-144790257D01*
X28479524Y-144986493D01*
X28361172Y-145205188D01*
X28361169Y-145205197D01*
X28280429Y-145440383D01*
X28239500Y-145685665D01*
X28239500Y-145934335D01*
X25000500Y-145934335D01*
X25000500Y-129054334D01*
X28239500Y-129054334D01*
X28280429Y-129299616D01*
X28361169Y-129534802D01*
X28361172Y-129534811D01*
X28479524Y-129753506D01*
X28479526Y-129753509D01*
X28632262Y-129949744D01*
X28759398Y-130066781D01*
X28815217Y-130118166D01*
X29023393Y-130254173D01*
X29251118Y-130354063D01*
X29483918Y-130413016D01*
X29492179Y-130415108D01*
X29492181Y-130415108D01*
X29492186Y-130415109D01*
X29625376Y-130426145D01*
X29677933Y-130430500D01*
X29677935Y-130430500D01*
X29802065Y-130430500D01*
X29802067Y-130430500D01*
X29863284Y-130425427D01*
X29987813Y-130415109D01*
X29987816Y-130415108D01*
X29987821Y-130415108D01*
X30228881Y-130354063D01*
X30456607Y-130254173D01*
X30664785Y-130118164D01*
X30847738Y-129949744D01*
X31000474Y-129753509D01*
X31118828Y-129534810D01*
X31199571Y-129299614D01*
X31240500Y-129054335D01*
X31240500Y-128805665D01*
X31199571Y-128560386D01*
X31118828Y-128325190D01*
X31000474Y-128106491D01*
X30847738Y-127910256D01*
X30664785Y-127741836D01*
X30664782Y-127741833D01*
X30456606Y-127605826D01*
X30228881Y-127505936D01*
X29987824Y-127444892D01*
X29987813Y-127444890D01*
X29822548Y-127431197D01*
X29802067Y-127429500D01*
X29677933Y-127429500D01*
X29658521Y-127431108D01*
X29492186Y-127444890D01*
X29492175Y-127444892D01*
X29251118Y-127505936D01*
X29023393Y-127605826D01*
X28815217Y-127741833D01*
X28632261Y-127910257D01*
X28479524Y-128106493D01*
X28361172Y-128325188D01*
X28361169Y-128325197D01*
X28280429Y-128560383D01*
X28239500Y-128805665D01*
X28239500Y-129054334D01*
X25000500Y-129054334D01*
X25000500Y-121814335D01*
X28239500Y-121814335D01*
X28244944Y-121846961D01*
X28280429Y-122059616D01*
X28361169Y-122294802D01*
X28361172Y-122294811D01*
X28479524Y-122513506D01*
X28479526Y-122513509D01*
X28632262Y-122709744D01*
X28764445Y-122831427D01*
X28815217Y-122878166D01*
X29023393Y-123014173D01*
X29251118Y-123114063D01*
X29428337Y-123158941D01*
X29492179Y-123175108D01*
X29492181Y-123175108D01*
X29492186Y-123175109D01*
X29625376Y-123186145D01*
X29677933Y-123190500D01*
X29677935Y-123190500D01*
X29802065Y-123190500D01*
X29802067Y-123190500D01*
X29863284Y-123185427D01*
X29987813Y-123175109D01*
X29987816Y-123175108D01*
X29987821Y-123175108D01*
X30228881Y-123114063D01*
X30456607Y-123014173D01*
X30664785Y-122878164D01*
X30847738Y-122709744D01*
X31000474Y-122513509D01*
X31118828Y-122294810D01*
X31199571Y-122059614D01*
X31240500Y-121814335D01*
X31240500Y-121565665D01*
X31199571Y-121320386D01*
X31118828Y-121085190D01*
X31000474Y-120866491D01*
X30847738Y-120670256D01*
X30664785Y-120501836D01*
X30664782Y-120501833D01*
X30456606Y-120365826D01*
X30228881Y-120265936D01*
X29987824Y-120204892D01*
X29987813Y-120204890D01*
X29822548Y-120191197D01*
X29802067Y-120189500D01*
X29677933Y-120189500D01*
X29658521Y-120191108D01*
X29492186Y-120204890D01*
X29492175Y-120204892D01*
X29251118Y-120265936D01*
X29023393Y-120365826D01*
X28815217Y-120501833D01*
X28632261Y-120670257D01*
X28479524Y-120866493D01*
X28361172Y-121085188D01*
X28361169Y-121085197D01*
X28280429Y-121320383D01*
X28252418Y-121488248D01*
X28239500Y-121565665D01*
X28239500Y-121814335D01*
X25000500Y-121814335D01*
X25000500Y-104934335D01*
X28239500Y-104934335D01*
X28247240Y-104980719D01*
X28280429Y-105179616D01*
X28361169Y-105414802D01*
X28361172Y-105414811D01*
X28479524Y-105633506D01*
X28479526Y-105633509D01*
X28632262Y-105829744D01*
X28719274Y-105909844D01*
X28815217Y-105998166D01*
X29023393Y-106134173D01*
X29251118Y-106234063D01*
X29395834Y-106270710D01*
X29492179Y-106295108D01*
X29492181Y-106295108D01*
X29492186Y-106295109D01*
X29625376Y-106306145D01*
X29677933Y-106310500D01*
X29677935Y-106310500D01*
X29802065Y-106310500D01*
X29802067Y-106310500D01*
X29863284Y-106305427D01*
X29987813Y-106295109D01*
X29987816Y-106295108D01*
X29987821Y-106295108D01*
X30228881Y-106234063D01*
X30456607Y-106134173D01*
X30664785Y-105998164D01*
X30847738Y-105829744D01*
X31000474Y-105633509D01*
X31118828Y-105414810D01*
X31199571Y-105179614D01*
X31240500Y-104934335D01*
X31240500Y-104685665D01*
X31199571Y-104440386D01*
X31118828Y-104205190D01*
X31000474Y-103986491D01*
X30847738Y-103790256D01*
X30664785Y-103621836D01*
X30664782Y-103621833D01*
X30456606Y-103485826D01*
X30228881Y-103385936D01*
X29987824Y-103324892D01*
X29987813Y-103324890D01*
X29822548Y-103311197D01*
X29802067Y-103309500D01*
X29677933Y-103309500D01*
X29658521Y-103311108D01*
X29492186Y-103324890D01*
X29492175Y-103324892D01*
X29251118Y-103385936D01*
X29023393Y-103485826D01*
X28815217Y-103621833D01*
X28632261Y-103790257D01*
X28479524Y-103986493D01*
X28361172Y-104205188D01*
X28361169Y-104205197D01*
X28280429Y-104440383D01*
X28256391Y-104584439D01*
X28239500Y-104685665D01*
X28239500Y-104934335D01*
X25000500Y-104934335D01*
X25000500Y-97694335D01*
X28239500Y-97694335D01*
X28245479Y-97730165D01*
X28280429Y-97939616D01*
X28361169Y-98174802D01*
X28361172Y-98174811D01*
X28442947Y-98325917D01*
X28479526Y-98393509D01*
X28632262Y-98589744D01*
X28790566Y-98735473D01*
X28815217Y-98758166D01*
X29023393Y-98894173D01*
X29251118Y-98994063D01*
X29428337Y-99038941D01*
X29492179Y-99055108D01*
X29492181Y-99055108D01*
X29492186Y-99055109D01*
X29625376Y-99066145D01*
X29677933Y-99070500D01*
X29677935Y-99070500D01*
X29802065Y-99070500D01*
X29802067Y-99070500D01*
X29863284Y-99065427D01*
X29987813Y-99055109D01*
X29987816Y-99055108D01*
X29987821Y-99055108D01*
X30228881Y-98994063D01*
X30456607Y-98894173D01*
X30664785Y-98758164D01*
X30847738Y-98589744D01*
X31000474Y-98393509D01*
X31118828Y-98174810D01*
X31199571Y-97939614D01*
X31240500Y-97694335D01*
X31240500Y-97445665D01*
X31199571Y-97200386D01*
X31118828Y-96965190D01*
X31000474Y-96746491D01*
X30847738Y-96550256D01*
X30664785Y-96381836D01*
X30664782Y-96381833D01*
X30456606Y-96245826D01*
X30228881Y-96145936D01*
X29987824Y-96084892D01*
X29987813Y-96084890D01*
X29822548Y-96071197D01*
X29802067Y-96069500D01*
X29677933Y-96069500D01*
X29658521Y-96071108D01*
X29492186Y-96084890D01*
X29492175Y-96084892D01*
X29251118Y-96145936D01*
X29023393Y-96245826D01*
X28815217Y-96381833D01*
X28632261Y-96550257D01*
X28479524Y-96746493D01*
X28361172Y-96965188D01*
X28361169Y-96965197D01*
X28280429Y-97200383D01*
X28256036Y-97346567D01*
X28239500Y-97445665D01*
X28239500Y-97694335D01*
X25000500Y-97694335D01*
X25000500Y-80814334D01*
X28239500Y-80814334D01*
X28280429Y-81059616D01*
X28361169Y-81294802D01*
X28361172Y-81294811D01*
X28479524Y-81513506D01*
X28479526Y-81513509D01*
X28632262Y-81709744D01*
X28719274Y-81789844D01*
X28815217Y-81878166D01*
X29023393Y-82014173D01*
X29251118Y-82114063D01*
X29492175Y-82175107D01*
X29492179Y-82175108D01*
X29492181Y-82175108D01*
X29492186Y-82175109D01*
X29625376Y-82186145D01*
X29677933Y-82190500D01*
X29677935Y-82190500D01*
X29802065Y-82190500D01*
X29802067Y-82190500D01*
X29863284Y-82185427D01*
X29987813Y-82175109D01*
X29987816Y-82175108D01*
X29987821Y-82175108D01*
X30228881Y-82114063D01*
X30456607Y-82014173D01*
X30664785Y-81878164D01*
X30847738Y-81709744D01*
X31000474Y-81513509D01*
X31118828Y-81294810D01*
X31199571Y-81059614D01*
X31240500Y-80814335D01*
X31240500Y-80565665D01*
X31199571Y-80320386D01*
X31118828Y-80085190D01*
X31000474Y-79866491D01*
X30847738Y-79670256D01*
X30664785Y-79501836D01*
X30664782Y-79501833D01*
X30456606Y-79365826D01*
X30228881Y-79265936D01*
X29987824Y-79204892D01*
X29987813Y-79204890D01*
X29822548Y-79191197D01*
X29802067Y-79189500D01*
X29677933Y-79189500D01*
X29658521Y-79191108D01*
X29492186Y-79204890D01*
X29492175Y-79204892D01*
X29251118Y-79265936D01*
X29023393Y-79365826D01*
X28815217Y-79501833D01*
X28632261Y-79670257D01*
X28479524Y-79866493D01*
X28361172Y-80085188D01*
X28361169Y-80085197D01*
X28280429Y-80320383D01*
X28239500Y-80565665D01*
X28239500Y-80814334D01*
X25000500Y-80814334D01*
X25000500Y-68357870D01*
X31519500Y-68357870D01*
X31519501Y-68357876D01*
X31525908Y-68417483D01*
X31576202Y-68552328D01*
X31576206Y-68552335D01*
X31662452Y-68667544D01*
X31662455Y-68667547D01*
X31777664Y-68753793D01*
X31777671Y-68753797D01*
X31912517Y-68804091D01*
X31912516Y-68804091D01*
X31919444Y-68804835D01*
X31972127Y-68810500D01*
X34067872Y-68810499D01*
X34127483Y-68804091D01*
X34262331Y-68753796D01*
X34377546Y-68667546D01*
X34463796Y-68552331D01*
X34514091Y-68417483D01*
X34520500Y-68357873D01*
X34520500Y-68184500D01*
X34540185Y-68117461D01*
X34592989Y-68071706D01*
X34644500Y-68060500D01*
X38036295Y-68060500D01*
X38054265Y-68061809D01*
X38078023Y-68065289D01*
X38130068Y-68060735D01*
X38135470Y-68060500D01*
X38143704Y-68060500D01*
X38143709Y-68060500D01*
X38155327Y-68059141D01*
X38176276Y-68056693D01*
X38189028Y-68055577D01*
X38252797Y-68049999D01*
X38252805Y-68049996D01*
X38259866Y-68048539D01*
X38259878Y-68048598D01*
X38267243Y-68046965D01*
X38267229Y-68046906D01*
X38274246Y-68045241D01*
X38274255Y-68045241D01*
X38346423Y-68018974D01*
X38419334Y-67994814D01*
X38419343Y-67994807D01*
X38425882Y-67991760D01*
X38425908Y-67991816D01*
X38432690Y-67988532D01*
X38432663Y-67988478D01*
X38439106Y-67985240D01*
X38439117Y-67985237D01*
X38503283Y-67943034D01*
X38568656Y-67902712D01*
X38568662Y-67902705D01*
X38574325Y-67898229D01*
X38574362Y-67898277D01*
X38580204Y-67893518D01*
X38580164Y-67893471D01*
X38585691Y-67888832D01*
X38585696Y-67888830D01*
X38592581Y-67881533D01*
X38638386Y-67832981D01*
X43487819Y-62983548D01*
X43549142Y-62950063D01*
X43618834Y-62955047D01*
X43674767Y-62996919D01*
X43699184Y-63062383D01*
X43699500Y-63071229D01*
X43699500Y-82526294D01*
X43698191Y-82544263D01*
X43694710Y-82568025D01*
X43699264Y-82620064D01*
X43699500Y-82625470D01*
X43699500Y-82633709D01*
X43703306Y-82666274D01*
X43710000Y-82742791D01*
X43711461Y-82749867D01*
X43711403Y-82749878D01*
X43713034Y-82757237D01*
X43713092Y-82757224D01*
X43714757Y-82764250D01*
X43741025Y-82836424D01*
X43765185Y-82909331D01*
X43768236Y-82915874D01*
X43768182Y-82915898D01*
X43771470Y-82922688D01*
X43771521Y-82922663D01*
X43774761Y-82929113D01*
X43774762Y-82929114D01*
X43774763Y-82929117D01*
X43781485Y-82939337D01*
X43816965Y-82993283D01*
X43857287Y-83058655D01*
X43861766Y-83064319D01*
X43861719Y-83064356D01*
X43866482Y-83070202D01*
X43866528Y-83070164D01*
X43871173Y-83075700D01*
X43927017Y-83128385D01*
X57293181Y-96494549D01*
X57326666Y-96555872D01*
X57329500Y-96582230D01*
X57329500Y-97057769D01*
X57309815Y-97124808D01*
X57293181Y-97145450D01*
X55648358Y-98790272D01*
X55634729Y-98802051D01*
X55615468Y-98816390D01*
X55581898Y-98856397D01*
X55578253Y-98860376D01*
X55572409Y-98866222D01*
X55552059Y-98891959D01*
X55502695Y-98950789D01*
X55498729Y-98956819D01*
X55498682Y-98956788D01*
X55494630Y-98963147D01*
X55494679Y-98963177D01*
X55490889Y-98969321D01*
X55458424Y-99038941D01*
X55423960Y-99107566D01*
X55421488Y-99114357D01*
X55421432Y-99114336D01*
X55418960Y-99121450D01*
X55419015Y-99121469D01*
X55416742Y-99128327D01*
X55408975Y-99165946D01*
X55401207Y-99203565D01*
X55398033Y-99216959D01*
X55383498Y-99278286D01*
X55382661Y-99285454D01*
X55382601Y-99285447D01*
X55381835Y-99292945D01*
X55381895Y-99292951D01*
X55381265Y-99300140D01*
X55383500Y-99376916D01*
X55383500Y-118330294D01*
X55382191Y-118348263D01*
X55378710Y-118372025D01*
X55383264Y-118424064D01*
X55383500Y-118429470D01*
X55383500Y-118437709D01*
X55387306Y-118470274D01*
X55394000Y-118546791D01*
X55395461Y-118553867D01*
X55395403Y-118553878D01*
X55397034Y-118561237D01*
X55397092Y-118561224D01*
X55398757Y-118568250D01*
X55425025Y-118640424D01*
X55449185Y-118713331D01*
X55452236Y-118719874D01*
X55452182Y-118719898D01*
X55455470Y-118726688D01*
X55455521Y-118726663D01*
X55458761Y-118733113D01*
X55458762Y-118733114D01*
X55458763Y-118733117D01*
X55500965Y-118797283D01*
X55541287Y-118862655D01*
X55545766Y-118868319D01*
X55545719Y-118868356D01*
X55550482Y-118874202D01*
X55550528Y-118874164D01*
X55555173Y-118879700D01*
X55611017Y-118932385D01*
X57293181Y-120614549D01*
X57326666Y-120675872D01*
X57329500Y-120702230D01*
X57329500Y-121177769D01*
X57309815Y-121244808D01*
X57293181Y-121265450D01*
X55648358Y-122910272D01*
X55634729Y-122922051D01*
X55615468Y-122936390D01*
X55581898Y-122976397D01*
X55578253Y-122980376D01*
X55572409Y-122986222D01*
X55552059Y-123011959D01*
X55502695Y-123070789D01*
X55498729Y-123076819D01*
X55498682Y-123076788D01*
X55494630Y-123083147D01*
X55494679Y-123083177D01*
X55490889Y-123089321D01*
X55458424Y-123158941D01*
X55423960Y-123227566D01*
X55421488Y-123234357D01*
X55421432Y-123234336D01*
X55418960Y-123241450D01*
X55419015Y-123241469D01*
X55416742Y-123248327D01*
X55409421Y-123283788D01*
X55401207Y-123323565D01*
X55391725Y-123363575D01*
X55383498Y-123398286D01*
X55382661Y-123405454D01*
X55382601Y-123405447D01*
X55381835Y-123412945D01*
X55381895Y-123412951D01*
X55381265Y-123420140D01*
X55383500Y-123496916D01*
X55383500Y-142450294D01*
X55382191Y-142468263D01*
X55378710Y-142492025D01*
X55383264Y-142544064D01*
X55383500Y-142549470D01*
X55383500Y-142557709D01*
X55387306Y-142590274D01*
X55394000Y-142666791D01*
X55395461Y-142673867D01*
X55395403Y-142673878D01*
X55397034Y-142681237D01*
X55397092Y-142681224D01*
X55398757Y-142688250D01*
X55425025Y-142760424D01*
X55449185Y-142833331D01*
X55452236Y-142839874D01*
X55452182Y-142839898D01*
X55455470Y-142846688D01*
X55455521Y-142846663D01*
X55458761Y-142853113D01*
X55458762Y-142853114D01*
X55458763Y-142853117D01*
X55489572Y-142899960D01*
X55500965Y-142917283D01*
X55541287Y-142982655D01*
X55545766Y-142988319D01*
X55545719Y-142988356D01*
X55550482Y-142994202D01*
X55550528Y-142994164D01*
X55555173Y-142999700D01*
X55611017Y-143052385D01*
X57293181Y-144734549D01*
X57326666Y-144795872D01*
X57329500Y-144822230D01*
X57329500Y-145957870D01*
X57329501Y-145957876D01*
X57335908Y-146017483D01*
X57386202Y-146152328D01*
X57386206Y-146152335D01*
X57472452Y-146267544D01*
X57472455Y-146267547D01*
X57587664Y-146353793D01*
X57587671Y-146353797D01*
X57722517Y-146404091D01*
X57722516Y-146404091D01*
X57729444Y-146404835D01*
X57782127Y-146410500D01*
X59577872Y-146410499D01*
X59637483Y-146404091D01*
X59772331Y-146353796D01*
X59887546Y-146267546D01*
X59973796Y-146152331D01*
X60024091Y-146017483D01*
X60030500Y-145957873D01*
X60030499Y-144162128D01*
X60024091Y-144102517D01*
X59973796Y-143967669D01*
X59896421Y-143864309D01*
X59872004Y-143798848D01*
X59886855Y-143730575D01*
X59896416Y-143715696D01*
X59973796Y-143612331D01*
X60024091Y-143477483D01*
X60030500Y-143417873D01*
X60030499Y-141622128D01*
X60024091Y-141562517D01*
X59973796Y-141427669D01*
X59973795Y-141427668D01*
X59973793Y-141427664D01*
X59887547Y-141312455D01*
X59887544Y-141312452D01*
X59772335Y-141226206D01*
X59772328Y-141226202D01*
X59640917Y-141177189D01*
X59584983Y-141135318D01*
X59560566Y-141069853D01*
X59575418Y-141001580D01*
X59596563Y-140973332D01*
X59718495Y-140851401D01*
X59854035Y-140657830D01*
X59953903Y-140443663D01*
X60015063Y-140215408D01*
X60035659Y-139980000D01*
X60034681Y-139968827D01*
X60015063Y-139744596D01*
X60015063Y-139744592D01*
X59953903Y-139516337D01*
X59854035Y-139302171D01*
X59791878Y-139213400D01*
X59718494Y-139108597D01*
X59551402Y-138941506D01*
X59551396Y-138941501D01*
X59365842Y-138811575D01*
X59322217Y-138756998D01*
X59315023Y-138687500D01*
X59346546Y-138625145D01*
X59365842Y-138608425D01*
X59388026Y-138592891D01*
X59551401Y-138478495D01*
X59718495Y-138311401D01*
X59854035Y-138117830D01*
X59953903Y-137903663D01*
X60015063Y-137675408D01*
X60035659Y-137440000D01*
X60015063Y-137204592D01*
X59953903Y-136976337D01*
X59939711Y-136945904D01*
X59929220Y-136876828D01*
X59957740Y-136813044D01*
X60016216Y-136774804D01*
X60052094Y-136769500D01*
X78657257Y-136769500D01*
X78672877Y-136771224D01*
X78672904Y-136770939D01*
X78680660Y-136771671D01*
X78680667Y-136771673D01*
X78749814Y-136769500D01*
X78779350Y-136769500D01*
X78786228Y-136768630D01*
X78792041Y-136768172D01*
X78838627Y-136766709D01*
X78857869Y-136761117D01*
X78876912Y-136757174D01*
X78896792Y-136754664D01*
X78940122Y-136737507D01*
X78945646Y-136735617D01*
X78949396Y-136734527D01*
X78990390Y-136722618D01*
X79007629Y-136712422D01*
X79025103Y-136703862D01*
X79043727Y-136696488D01*
X79043727Y-136696487D01*
X79043732Y-136696486D01*
X79081449Y-136669082D01*
X79086305Y-136665892D01*
X79126420Y-136642170D01*
X79140589Y-136627999D01*
X79155379Y-136615368D01*
X79171587Y-136603594D01*
X79201299Y-136567676D01*
X79205212Y-136563376D01*
X88844127Y-126924461D01*
X88905448Y-126890978D01*
X88975140Y-126895962D01*
X89031073Y-126937834D01*
X89055382Y-127001904D01*
X89073892Y-127225289D01*
X89129388Y-127444439D01*
X89220198Y-127651466D01*
X89343842Y-127840716D01*
X89343850Y-127840727D01*
X89496950Y-128007036D01*
X89496954Y-128007040D01*
X89675351Y-128145893D01*
X89703165Y-128160945D01*
X89752755Y-128210165D01*
X89767863Y-128278382D01*
X89743692Y-128343937D01*
X89703165Y-128379055D01*
X89675352Y-128394106D01*
X89496955Y-128532959D01*
X89496950Y-128532963D01*
X89343850Y-128699272D01*
X89343842Y-128699283D01*
X89220198Y-128888533D01*
X89129388Y-129095560D01*
X89073892Y-129314710D01*
X89055225Y-129539993D01*
X89055225Y-129540006D01*
X89073892Y-129765289D01*
X89129388Y-129984439D01*
X89220198Y-130191466D01*
X89343842Y-130380716D01*
X89343850Y-130380727D01*
X89496631Y-130546689D01*
X89496954Y-130547040D01*
X89675351Y-130685893D01*
X89874169Y-130793488D01*
X89874172Y-130793489D01*
X90087982Y-130866890D01*
X90087984Y-130866890D01*
X90087986Y-130866891D01*
X90310967Y-130904100D01*
X90310968Y-130904100D01*
X90537032Y-130904100D01*
X90537033Y-130904100D01*
X90760014Y-130866891D01*
X90973831Y-130793488D01*
X91172649Y-130685893D01*
X91351046Y-130547040D01*
X91472499Y-130415108D01*
X91504149Y-130380727D01*
X91504150Y-130380725D01*
X91504156Y-130380719D01*
X91627802Y-130191465D01*
X91718611Y-129984441D01*
X91774107Y-129765293D01*
X91792617Y-129541903D01*
X91817770Y-129476722D01*
X91874172Y-129435483D01*
X91943915Y-129431285D01*
X92003874Y-129464465D01*
X101353197Y-138813788D01*
X101363022Y-138826051D01*
X101363243Y-138825869D01*
X101368214Y-138831878D01*
X101394217Y-138856295D01*
X101418635Y-138879226D01*
X101439529Y-138900120D01*
X101445011Y-138904373D01*
X101449443Y-138908157D01*
X101483418Y-138940062D01*
X101500976Y-138949714D01*
X101517233Y-138960393D01*
X101533064Y-138972673D01*
X101552737Y-138981186D01*
X101575833Y-138991182D01*
X101581077Y-138993750D01*
X101621908Y-139016197D01*
X101634523Y-139019435D01*
X101641305Y-139021177D01*
X101659719Y-139027481D01*
X101678104Y-139035438D01*
X101724157Y-139042732D01*
X101729826Y-139043906D01*
X101774981Y-139055500D01*
X101795016Y-139055500D01*
X101814413Y-139057026D01*
X101834196Y-139060160D01*
X101880584Y-139055775D01*
X101886422Y-139055500D01*
X105211745Y-139055500D01*
X105278784Y-139075185D01*
X105324539Y-139127989D01*
X105327167Y-139134184D01*
X105358257Y-139213398D01*
X105493185Y-139447102D01*
X105548404Y-139516344D01*
X105661442Y-139658089D01*
X105848183Y-139831358D01*
X105859259Y-139841635D01*
X106082226Y-139993651D01*
X106325359Y-140110738D01*
X106583228Y-140190280D01*
X106583229Y-140190280D01*
X106583232Y-140190281D01*
X106850063Y-140230499D01*
X106850068Y-140230499D01*
X106850071Y-140230500D01*
X106850072Y-140230500D01*
X107119928Y-140230500D01*
X107119929Y-140230500D01*
X107119936Y-140230499D01*
X107386767Y-140190281D01*
X107386768Y-140190280D01*
X107386772Y-140190280D01*
X107644641Y-140110738D01*
X107887775Y-139993651D01*
X107892645Y-139990330D01*
X107959121Y-139968827D01*
X108026672Y-139986678D01*
X108073849Y-140038215D01*
X108086500Y-140092781D01*
X108086500Y-141506000D01*
X108066815Y-141573039D01*
X108014011Y-141618794D01*
X107962500Y-141630000D01*
X107235000Y-141630000D01*
X107235000Y-142825689D01*
X107226183Y-142820842D01*
X107067114Y-142780000D01*
X106944106Y-142780000D01*
X106822067Y-142795417D01*
X106735000Y-142829889D01*
X106735000Y-141630000D01*
X105637155Y-141630000D01*
X105577627Y-141636401D01*
X105577620Y-141636403D01*
X105442913Y-141686645D01*
X105442906Y-141686649D01*
X105327812Y-141772809D01*
X105327809Y-141772812D01*
X105241649Y-141887906D01*
X105241645Y-141887913D01*
X105191403Y-142022620D01*
X105191401Y-142022627D01*
X105185000Y-142082155D01*
X105185000Y-143180000D01*
X106384272Y-143180000D01*
X106361900Y-143227543D01*
X106331127Y-143388862D01*
X106341439Y-143552766D01*
X106382780Y-143680000D01*
X105185000Y-143680000D01*
X105185000Y-144777844D01*
X105191401Y-144837372D01*
X105191403Y-144837379D01*
X105241645Y-144972086D01*
X105241649Y-144972093D01*
X105327809Y-145087187D01*
X105327812Y-145087190D01*
X105442906Y-145173350D01*
X105442913Y-145173354D01*
X105577620Y-145223596D01*
X105577627Y-145223598D01*
X105637155Y-145229999D01*
X105637172Y-145230000D01*
X106735000Y-145230000D01*
X106735000Y-144034310D01*
X106743817Y-144039158D01*
X106902886Y-144080000D01*
X107025894Y-144080000D01*
X107147933Y-144064583D01*
X107235000Y-144030110D01*
X107235000Y-145230000D01*
X107251047Y-145230000D01*
X107318086Y-145249685D01*
X107363841Y-145302489D01*
X107373785Y-145371647D01*
X107344760Y-145435203D01*
X107338728Y-145441681D01*
X103952228Y-148828181D01*
X103890905Y-148861666D01*
X103864547Y-148864500D01*
X102464499Y-148864500D01*
X102397460Y-148844815D01*
X102351705Y-148792011D01*
X102340499Y-148740500D01*
X102340499Y-148442129D01*
X102340498Y-148442123D01*
X102340497Y-148442116D01*
X102334091Y-148382517D01*
X102284950Y-148250764D01*
X102283797Y-148247671D01*
X102283793Y-148247664D01*
X102197547Y-148132455D01*
X102197544Y-148132452D01*
X102082335Y-148046206D01*
X102082328Y-148046202D01*
X101947482Y-147995908D01*
X101947483Y-147995908D01*
X101887883Y-147989501D01*
X101887881Y-147989500D01*
X101887873Y-147989500D01*
X101887864Y-147989500D01*
X99792129Y-147989500D01*
X99792123Y-147989501D01*
X99732516Y-147995908D01*
X99597671Y-148046202D01*
X99597664Y-148046206D01*
X99482455Y-148132452D01*
X99482452Y-148132455D01*
X99396206Y-148247664D01*
X99396202Y-148247671D01*
X99345908Y-148382517D01*
X99339501Y-148442116D01*
X99339501Y-148442123D01*
X99339500Y-148442135D01*
X99339500Y-150537870D01*
X99339501Y-150537876D01*
X99345908Y-150597483D01*
X99396202Y-150732328D01*
X99396206Y-150732335D01*
X99482452Y-150847544D01*
X99482455Y-150847547D01*
X99597664Y-150933793D01*
X99597671Y-150933797D01*
X99732517Y-150984091D01*
X99732516Y-150984091D01*
X99739444Y-150984835D01*
X99792127Y-150990500D01*
X101887872Y-150990499D01*
X101947483Y-150984091D01*
X102082331Y-150933796D01*
X102197546Y-150847546D01*
X102283796Y-150732331D01*
X102334091Y-150597483D01*
X102340500Y-150537873D01*
X102340500Y-150239500D01*
X102360185Y-150172461D01*
X102412989Y-150126706D01*
X102464500Y-150115500D01*
X104092257Y-150115500D01*
X104107877Y-150117224D01*
X104107904Y-150116939D01*
X104115660Y-150117671D01*
X104115667Y-150117673D01*
X104184814Y-150115500D01*
X104214350Y-150115500D01*
X104221228Y-150114630D01*
X104227041Y-150114172D01*
X104273627Y-150112709D01*
X104292869Y-150107117D01*
X104311912Y-150103174D01*
X104331792Y-150100664D01*
X104375122Y-150083507D01*
X104380646Y-150081617D01*
X104384396Y-150080527D01*
X104425390Y-150068618D01*
X104442629Y-150058422D01*
X104460103Y-150049862D01*
X104478727Y-150042488D01*
X104478727Y-150042487D01*
X104478732Y-150042486D01*
X104516449Y-150015082D01*
X104521305Y-150011892D01*
X104561420Y-149988170D01*
X104575589Y-149973999D01*
X104590379Y-149961368D01*
X104606587Y-149949594D01*
X104636299Y-149913676D01*
X104640212Y-149909376D01*
X109095788Y-145453801D01*
X109108042Y-145443986D01*
X109107859Y-145443764D01*
X109113866Y-145438792D01*
X109113877Y-145438786D01*
X109144775Y-145405882D01*
X109161227Y-145388364D01*
X109171671Y-145377918D01*
X109182120Y-145367471D01*
X109186379Y-145361978D01*
X109190152Y-145357561D01*
X109222062Y-145323582D01*
X109231715Y-145306020D01*
X109242389Y-145289770D01*
X109254673Y-145273936D01*
X109273180Y-145231167D01*
X109275749Y-145225924D01*
X109298196Y-145185093D01*
X109298197Y-145185092D01*
X109303177Y-145165691D01*
X109309478Y-145147288D01*
X109317438Y-145128896D01*
X109324730Y-145082849D01*
X109325911Y-145077152D01*
X109337500Y-145032019D01*
X109337500Y-145011983D01*
X109339027Y-144992582D01*
X109342160Y-144972804D01*
X109337775Y-144926415D01*
X109337500Y-144920577D01*
X109337500Y-135239742D01*
X109339224Y-135224122D01*
X109338939Y-135224096D01*
X109339671Y-135216340D01*
X109339673Y-135216333D01*
X109337500Y-135147185D01*
X109337500Y-135117650D01*
X109336631Y-135110772D01*
X109336172Y-135104943D01*
X109336159Y-135104544D01*
X109334709Y-135058373D01*
X109329122Y-135039144D01*
X109325174Y-135020084D01*
X109322663Y-135000204D01*
X109305512Y-134956887D01*
X109303619Y-134951358D01*
X109290618Y-134906609D01*
X109290616Y-134906606D01*
X109280423Y-134889371D01*
X109271861Y-134871894D01*
X109264487Y-134853270D01*
X109264486Y-134853268D01*
X109237079Y-134815545D01*
X109233888Y-134810686D01*
X109210172Y-134770583D01*
X109210165Y-134770574D01*
X109196006Y-134756415D01*
X109183368Y-134741619D01*
X109171594Y-134725413D01*
X109135688Y-134695709D01*
X109131376Y-134691786D01*
X108680776Y-134241185D01*
X108647291Y-134179862D01*
X108652275Y-134110170D01*
X108652993Y-134108294D01*
X108710334Y-133962195D01*
X108770383Y-133699103D01*
X108790549Y-133430000D01*
X108770383Y-133160897D01*
X108710334Y-132897805D01*
X108611743Y-132646602D01*
X108476815Y-132412898D01*
X108308561Y-132201915D01*
X108308560Y-132201914D01*
X108308557Y-132201910D01*
X108110741Y-132018365D01*
X107931769Y-131896344D01*
X107887775Y-131866349D01*
X107887769Y-131866346D01*
X107887768Y-131866345D01*
X107887767Y-131866344D01*
X107644643Y-131749263D01*
X107644645Y-131749263D01*
X107386773Y-131669720D01*
X107386767Y-131669718D01*
X107119936Y-131629500D01*
X107119929Y-131629500D01*
X106850071Y-131629500D01*
X106850063Y-131629500D01*
X106583232Y-131669718D01*
X106583226Y-131669720D01*
X106325358Y-131749262D01*
X106082230Y-131866346D01*
X105859258Y-132018365D01*
X105661442Y-132201910D01*
X105493185Y-132412898D01*
X105358258Y-132646599D01*
X105358256Y-132646603D01*
X105259666Y-132897804D01*
X105259664Y-132897811D01*
X105199616Y-133160898D01*
X105179451Y-133429995D01*
X105179451Y-133430004D01*
X105199616Y-133699101D01*
X105259664Y-133962188D01*
X105259666Y-133962195D01*
X105317742Y-134110170D01*
X105358257Y-134213398D01*
X105493185Y-134447102D01*
X105531363Y-134494975D01*
X105661442Y-134658089D01*
X105831171Y-134815573D01*
X105859259Y-134841635D01*
X106082226Y-134993651D01*
X106325359Y-135110738D01*
X106583228Y-135190280D01*
X106583229Y-135190280D01*
X106583232Y-135190281D01*
X106850063Y-135230499D01*
X106850068Y-135230499D01*
X106850071Y-135230500D01*
X106850072Y-135230500D01*
X107119928Y-135230500D01*
X107119929Y-135230500D01*
X107119936Y-135230499D01*
X107386767Y-135190281D01*
X107386768Y-135190280D01*
X107386772Y-135190280D01*
X107644641Y-135110738D01*
X107657503Y-135104543D01*
X107726442Y-135093188D01*
X107790578Y-135120907D01*
X107798990Y-135128580D01*
X108050181Y-135379771D01*
X108083666Y-135441094D01*
X108086500Y-135467452D01*
X108086500Y-136767218D01*
X108066815Y-136834257D01*
X108014011Y-136880012D01*
X107944853Y-136889956D01*
X107892651Y-136869673D01*
X107887780Y-136866352D01*
X107887767Y-136866344D01*
X107644643Y-136749263D01*
X107644645Y-136749263D01*
X107386773Y-136669720D01*
X107386767Y-136669718D01*
X107119936Y-136629500D01*
X107119929Y-136629500D01*
X106850071Y-136629500D01*
X106850063Y-136629500D01*
X106583232Y-136669718D01*
X106583226Y-136669720D01*
X106325358Y-136749262D01*
X106082230Y-136866346D01*
X105859258Y-137018365D01*
X105661442Y-137201910D01*
X105493185Y-137412898D01*
X105358258Y-137646599D01*
X105327173Y-137725803D01*
X105284357Y-137781016D01*
X105218487Y-137804317D01*
X105211745Y-137804500D01*
X102164452Y-137804500D01*
X102097413Y-137784815D01*
X102076771Y-137768181D01*
X91775387Y-127466796D01*
X91741902Y-127405473D01*
X91742863Y-127348674D01*
X91774104Y-127225305D01*
X91774104Y-127225304D01*
X91774107Y-127225293D01*
X91774108Y-127225285D01*
X91792775Y-127000006D01*
X91792775Y-126999993D01*
X91774107Y-126774710D01*
X91774107Y-126774707D01*
X91718611Y-126555559D01*
X91627802Y-126348535D01*
X91504156Y-126159281D01*
X91504153Y-126159278D01*
X91504149Y-126159272D01*
X91351049Y-125992963D01*
X91351048Y-125992962D01*
X91351046Y-125992960D01*
X91172649Y-125854107D01*
X91172647Y-125854106D01*
X91172646Y-125854105D01*
X91172639Y-125854100D01*
X91144836Y-125839055D01*
X91095244Y-125789837D01*
X91080135Y-125721620D01*
X91104306Y-125656064D01*
X91144836Y-125620945D01*
X91172639Y-125605899D01*
X91172642Y-125605896D01*
X91172649Y-125605893D01*
X91351046Y-125467040D01*
X91504156Y-125300719D01*
X91627802Y-125111465D01*
X91718611Y-124904441D01*
X91774107Y-124685293D01*
X91782850Y-124579782D01*
X91792775Y-124460006D01*
X91792775Y-124459993D01*
X91774107Y-124234710D01*
X91774107Y-124234707D01*
X91718611Y-124015559D01*
X91627802Y-123808535D01*
X91596450Y-123760548D01*
X91530879Y-123660184D01*
X91504156Y-123619281D01*
X91504153Y-123619278D01*
X91504149Y-123619272D01*
X91351049Y-123452963D01*
X91351048Y-123452962D01*
X91351046Y-123452960D01*
X91172649Y-123314107D01*
X91172647Y-123314106D01*
X91172646Y-123314105D01*
X91172639Y-123314100D01*
X91144836Y-123299055D01*
X91095244Y-123249837D01*
X91081519Y-123187870D01*
X104879500Y-123187870D01*
X104879501Y-123187876D01*
X104885908Y-123247483D01*
X104936202Y-123382328D01*
X104936206Y-123382335D01*
X105022452Y-123497544D01*
X105022455Y-123497547D01*
X105137664Y-123583793D01*
X105137671Y-123583797D01*
X105272517Y-123634091D01*
X105272516Y-123634091D01*
X105279444Y-123634835D01*
X105332127Y-123640500D01*
X107367769Y-123640499D01*
X107434808Y-123660184D01*
X107455450Y-123676818D01*
X107663181Y-123884549D01*
X107696666Y-123945872D01*
X107699500Y-123972230D01*
X107699500Y-125375500D01*
X107679815Y-125442539D01*
X107627011Y-125488294D01*
X107575501Y-125499500D01*
X107402130Y-125499500D01*
X107402123Y-125499501D01*
X107342516Y-125505908D01*
X107207671Y-125556202D01*
X107207664Y-125556206D01*
X107092455Y-125642452D01*
X107092452Y-125642455D01*
X107006206Y-125757664D01*
X107006202Y-125757671D01*
X106955908Y-125892517D01*
X106949501Y-125952116D01*
X106949501Y-125952123D01*
X106949500Y-125952135D01*
X106949500Y-128047870D01*
X106949501Y-128047876D01*
X106955908Y-128107483D01*
X107006202Y-128242328D01*
X107006206Y-128242335D01*
X107092452Y-128357544D01*
X107092455Y-128357547D01*
X107207664Y-128443793D01*
X107207671Y-128443797D01*
X107342517Y-128494091D01*
X107342516Y-128494091D01*
X107349444Y-128494835D01*
X107402127Y-128500500D01*
X109497872Y-128500499D01*
X109557483Y-128494091D01*
X109692331Y-128443796D01*
X109807546Y-128357546D01*
X109893796Y-128242331D01*
X109944091Y-128107483D01*
X109950500Y-128047873D01*
X109950499Y-125952128D01*
X109944091Y-125892517D01*
X109929764Y-125854105D01*
X109893797Y-125757671D01*
X109893793Y-125757664D01*
X109807547Y-125642455D01*
X109807544Y-125642452D01*
X109692335Y-125556206D01*
X109692328Y-125556202D01*
X109557482Y-125505908D01*
X109557483Y-125505908D01*
X109497883Y-125499501D01*
X109497881Y-125499500D01*
X109497873Y-125499500D01*
X109497865Y-125499500D01*
X109324500Y-125499500D01*
X109257461Y-125479815D01*
X109211706Y-125427011D01*
X109200500Y-125375500D01*
X109200500Y-123673705D01*
X109201809Y-123655735D01*
X109202129Y-123653547D01*
X109205289Y-123631977D01*
X109204178Y-123619283D01*
X109200736Y-123579934D01*
X109200500Y-123574528D01*
X109200500Y-123566297D01*
X109200500Y-123566291D01*
X109196693Y-123533724D01*
X109189999Y-123457203D01*
X109189999Y-123457201D01*
X109188539Y-123450129D01*
X109188597Y-123450116D01*
X109186965Y-123442757D01*
X109186906Y-123442772D01*
X109185241Y-123435751D01*
X109185241Y-123435745D01*
X109175625Y-123409324D01*
X109158974Y-123363575D01*
X109134813Y-123290663D01*
X109131764Y-123284124D01*
X109131817Y-123284099D01*
X109128531Y-123277311D01*
X109128479Y-123277338D01*
X109125236Y-123270882D01*
X109124563Y-123269859D01*
X109083034Y-123206716D01*
X109042712Y-123141344D01*
X109042710Y-123141342D01*
X109038234Y-123135681D01*
X109038280Y-123135643D01*
X109033519Y-123129799D01*
X109033474Y-123129838D01*
X109028834Y-123124308D01*
X108972982Y-123071613D01*
X108516818Y-122615449D01*
X108483333Y-122554126D01*
X108480499Y-122527768D01*
X108480499Y-120492129D01*
X108480498Y-120492123D01*
X108480497Y-120492116D01*
X108474091Y-120432517D01*
X108457129Y-120387040D01*
X108423797Y-120297671D01*
X108423793Y-120297664D01*
X108337547Y-120182455D01*
X108337544Y-120182452D01*
X108222335Y-120096206D01*
X108222328Y-120096202D01*
X108087482Y-120045908D01*
X108087483Y-120045908D01*
X108027883Y-120039501D01*
X108027881Y-120039500D01*
X108027873Y-120039500D01*
X108027864Y-120039500D01*
X105332129Y-120039500D01*
X105332123Y-120039501D01*
X105272516Y-120045908D01*
X105137671Y-120096202D01*
X105137664Y-120096206D01*
X105022455Y-120182452D01*
X105022452Y-120182455D01*
X104936206Y-120297664D01*
X104936202Y-120297671D01*
X104885908Y-120432517D01*
X104879501Y-120492116D01*
X104879501Y-120492123D01*
X104879500Y-120492135D01*
X104879500Y-123187870D01*
X91081519Y-123187870D01*
X91080135Y-123181620D01*
X91104306Y-123116064D01*
X91144836Y-123080945D01*
X91172639Y-123065899D01*
X91172642Y-123065896D01*
X91172649Y-123065893D01*
X91351046Y-122927040D01*
X91504156Y-122760719D01*
X91627802Y-122571465D01*
X91718611Y-122364441D01*
X91774107Y-122145293D01*
X91792775Y-121920000D01*
X91792775Y-121919993D01*
X91774107Y-121694710D01*
X91774107Y-121694707D01*
X91718611Y-121475559D01*
X91627802Y-121268535D01*
X91625786Y-121265450D01*
X91508021Y-121085197D01*
X91504156Y-121079281D01*
X91504153Y-121079278D01*
X91504149Y-121079272D01*
X91351045Y-120912959D01*
X91172646Y-120774105D01*
X91172639Y-120774100D01*
X91144836Y-120759055D01*
X91095244Y-120709837D01*
X91080135Y-120641620D01*
X91104306Y-120576064D01*
X91144836Y-120540945D01*
X91172639Y-120525899D01*
X91172642Y-120525896D01*
X91172649Y-120525893D01*
X91351046Y-120387040D01*
X91504156Y-120220719D01*
X91627802Y-120031465D01*
X91718611Y-119824441D01*
X91774107Y-119605293D01*
X91792775Y-119380000D01*
X91792775Y-119379993D01*
X91774107Y-119154710D01*
X91774107Y-119154707D01*
X91718611Y-118935559D01*
X91627802Y-118728535D01*
X91626595Y-118726688D01*
X91543690Y-118599792D01*
X91504156Y-118539281D01*
X91504153Y-118539278D01*
X91504149Y-118539272D01*
X91351049Y-118372963D01*
X91351048Y-118372962D01*
X91351046Y-118372960D01*
X91172649Y-118234107D01*
X91172647Y-118234106D01*
X91172646Y-118234105D01*
X91172639Y-118234100D01*
X91144836Y-118219055D01*
X91095244Y-118169837D01*
X91080135Y-118101620D01*
X91104306Y-118036064D01*
X91144836Y-118000945D01*
X91172639Y-117985899D01*
X91172642Y-117985896D01*
X91172649Y-117985893D01*
X91351046Y-117847040D01*
X91504156Y-117680719D01*
X91627802Y-117491465D01*
X91718611Y-117284441D01*
X91774107Y-117065293D01*
X91781574Y-116975175D01*
X91792775Y-116840006D01*
X91792775Y-116840004D01*
X104874953Y-116840004D01*
X104895113Y-117109026D01*
X104895113Y-117109028D01*
X104955142Y-117372033D01*
X104955148Y-117372052D01*
X105053709Y-117623181D01*
X105053708Y-117623181D01*
X105188602Y-117856822D01*
X105242294Y-117924151D01*
X106077452Y-117088992D01*
X106087188Y-117118956D01*
X106175186Y-117257619D01*
X106294903Y-117370040D01*
X106429510Y-117444041D01*
X105594848Y-118278702D01*
X105777483Y-118403220D01*
X105777485Y-118403221D01*
X106020539Y-118520269D01*
X106020537Y-118520269D01*
X106278337Y-118599790D01*
X106278343Y-118599792D01*
X106545101Y-118639999D01*
X106545110Y-118640000D01*
X106814890Y-118640000D01*
X106814898Y-118639999D01*
X107081656Y-118599792D01*
X107081662Y-118599790D01*
X107339461Y-118520269D01*
X107582521Y-118403218D01*
X107765150Y-118278702D01*
X106927534Y-117441086D01*
X106995629Y-117414126D01*
X107128492Y-117317595D01*
X107233175Y-117191055D01*
X107281631Y-117088079D01*
X108117703Y-117924151D01*
X108117704Y-117924150D01*
X108171393Y-117856828D01*
X108171400Y-117856817D01*
X108306290Y-117623181D01*
X108404851Y-117372052D01*
X108404857Y-117372033D01*
X108464886Y-117109028D01*
X108464886Y-117109026D01*
X108485047Y-116840004D01*
X108485047Y-116839995D01*
X108464886Y-116570973D01*
X108464886Y-116570971D01*
X108404857Y-116307966D01*
X108404851Y-116307947D01*
X108306290Y-116056818D01*
X108306291Y-116056818D01*
X108171397Y-115823177D01*
X108117704Y-115755847D01*
X107282546Y-116591004D01*
X107272812Y-116561044D01*
X107184814Y-116422381D01*
X107065097Y-116309960D01*
X106930489Y-116235958D01*
X107765150Y-115401296D01*
X107582517Y-115276779D01*
X107582516Y-115276778D01*
X107339460Y-115159730D01*
X107339462Y-115159730D01*
X107081662Y-115080209D01*
X107081656Y-115080207D01*
X106814898Y-115040000D01*
X106545101Y-115040000D01*
X106278343Y-115080207D01*
X106278337Y-115080209D01*
X106020538Y-115159730D01*
X105777485Y-115276778D01*
X105777476Y-115276783D01*
X105594848Y-115401296D01*
X106432465Y-116238913D01*
X106364371Y-116265874D01*
X106231508Y-116362405D01*
X106126825Y-116488945D01*
X106078368Y-116591921D01*
X105242295Y-115755848D01*
X105188600Y-115823180D01*
X105053709Y-116056818D01*
X104955148Y-116307947D01*
X104955142Y-116307966D01*
X104895113Y-116570971D01*
X104895113Y-116570973D01*
X104874953Y-116839995D01*
X104874953Y-116840004D01*
X91792775Y-116840004D01*
X91792775Y-116839993D01*
X91774107Y-116614710D01*
X91774107Y-116614707D01*
X91718611Y-116395559D01*
X91627802Y-116188535D01*
X91504156Y-115999281D01*
X91504153Y-115999278D01*
X91504149Y-115999272D01*
X91351049Y-115832963D01*
X91351048Y-115832962D01*
X91351046Y-115832960D01*
X91172649Y-115694107D01*
X91172647Y-115694106D01*
X91172646Y-115694105D01*
X91172639Y-115694100D01*
X91144836Y-115679055D01*
X91095244Y-115629837D01*
X91080135Y-115561620D01*
X91104306Y-115496064D01*
X91144836Y-115460945D01*
X91172639Y-115445899D01*
X91172642Y-115445896D01*
X91172649Y-115445893D01*
X91351046Y-115307040D01*
X91465997Y-115182171D01*
X91504149Y-115140727D01*
X91504150Y-115140725D01*
X91504156Y-115140719D01*
X91526396Y-115106677D01*
X91579542Y-115061322D01*
X91630204Y-115050500D01*
X95166362Y-115050500D01*
X95233401Y-115070185D01*
X95271899Y-115109401D01*
X95339288Y-115218656D01*
X95463344Y-115342712D01*
X95612666Y-115434814D01*
X95779203Y-115489999D01*
X95881991Y-115500500D01*
X96682008Y-115500499D01*
X96682016Y-115500498D01*
X96682019Y-115500498D01*
X96738302Y-115494748D01*
X96784797Y-115489999D01*
X96951334Y-115434814D01*
X97100656Y-115342712D01*
X97194319Y-115249049D01*
X97255642Y-115215564D01*
X97325334Y-115220548D01*
X97369681Y-115249049D01*
X97463344Y-115342712D01*
X97612666Y-115434814D01*
X97779203Y-115489999D01*
X97881991Y-115500500D01*
X98682008Y-115500499D01*
X98682016Y-115500498D01*
X98682019Y-115500498D01*
X98738302Y-115494748D01*
X98784797Y-115489999D01*
X98951334Y-115434814D01*
X99100656Y-115342712D01*
X99224712Y-115218656D01*
X99292099Y-115109402D01*
X99344047Y-115062679D01*
X99397638Y-115050500D01*
X101536295Y-115050500D01*
X101554265Y-115051809D01*
X101578023Y-115055289D01*
X101630068Y-115050735D01*
X101635470Y-115050500D01*
X101643704Y-115050500D01*
X101643709Y-115050500D01*
X101655327Y-115049141D01*
X101676276Y-115046693D01*
X101689028Y-115045577D01*
X101752797Y-115039999D01*
X101752805Y-115039996D01*
X101759866Y-115038539D01*
X101759878Y-115038598D01*
X101767243Y-115036965D01*
X101767229Y-115036906D01*
X101774246Y-115035241D01*
X101774255Y-115035241D01*
X101846423Y-115008974D01*
X101919334Y-114984814D01*
X101919343Y-114984807D01*
X101925882Y-114981760D01*
X101925908Y-114981816D01*
X101932690Y-114978532D01*
X101932663Y-114978478D01*
X101939106Y-114975240D01*
X101939117Y-114975237D01*
X102003283Y-114933034D01*
X102068656Y-114892712D01*
X102068662Y-114892705D01*
X102074325Y-114888229D01*
X102074363Y-114888277D01*
X102080200Y-114883522D01*
X102080161Y-114883475D01*
X102085696Y-114878830D01*
X102138385Y-114822982D01*
X105944549Y-111016818D01*
X106005872Y-110983333D01*
X106032230Y-110980499D01*
X108027871Y-110980499D01*
X108027872Y-110980499D01*
X108087483Y-110974091D01*
X108222331Y-110923796D01*
X108337546Y-110837546D01*
X108423796Y-110722331D01*
X108474091Y-110587483D01*
X108480500Y-110527873D01*
X108480499Y-108492228D01*
X108500184Y-108425190D01*
X108516813Y-108404553D01*
X109959638Y-106961727D01*
X109973267Y-106949950D01*
X109992530Y-106935610D01*
X109992532Y-106935606D01*
X109992534Y-106935606D01*
X110018267Y-106904937D01*
X110026113Y-106895585D01*
X110029767Y-106891599D01*
X110035591Y-106885776D01*
X110055930Y-106860052D01*
X110105302Y-106801214D01*
X110105306Y-106801205D01*
X110109274Y-106795175D01*
X110109325Y-106795208D01*
X110113372Y-106788856D01*
X110113320Y-106788824D01*
X110117112Y-106782675D01*
X110149575Y-106713058D01*
X110177538Y-106657379D01*
X110184040Y-106644433D01*
X110184042Y-106644421D01*
X110186509Y-106637646D01*
X110186567Y-106637667D01*
X110189043Y-106630546D01*
X110188986Y-106630527D01*
X110191255Y-106623680D01*
X110191256Y-106623675D01*
X110191257Y-106623673D01*
X110206791Y-106548437D01*
X110224500Y-106473721D01*
X110224500Y-106473719D01*
X110225339Y-106466548D01*
X110225398Y-106466554D01*
X110226164Y-106459054D01*
X110226105Y-106459049D01*
X110226734Y-106451859D01*
X110224500Y-106375082D01*
X110224500Y-100647705D01*
X110225809Y-100629735D01*
X110229289Y-100605974D01*
X110225310Y-100560498D01*
X110224735Y-100553933D01*
X110224500Y-100548532D01*
X110224500Y-100540297D01*
X110224500Y-100540291D01*
X110220691Y-100507707D01*
X110213998Y-100431202D01*
X110213996Y-100431197D01*
X110212538Y-100424133D01*
X110212597Y-100424120D01*
X110210967Y-100416764D01*
X110210908Y-100416779D01*
X110209241Y-100409751D01*
X110209241Y-100409745D01*
X110182966Y-100337556D01*
X110158813Y-100264665D01*
X110158808Y-100264658D01*
X110155760Y-100258119D01*
X110155815Y-100258092D01*
X110152529Y-100251305D01*
X110152476Y-100251332D01*
X110149238Y-100244883D01*
X110107023Y-100180700D01*
X110066709Y-100115341D01*
X110062233Y-100109681D01*
X110062280Y-100109643D01*
X110057519Y-100103799D01*
X110057474Y-100103838D01*
X110052834Y-100098309D01*
X110052832Y-100098307D01*
X110052830Y-100098304D01*
X110019688Y-100067036D01*
X109996965Y-100045597D01*
X109486818Y-99535450D01*
X109453333Y-99474127D01*
X109450499Y-99447769D01*
X109450499Y-98012129D01*
X109450498Y-98012123D01*
X109450497Y-98012116D01*
X109444091Y-97952517D01*
X109439279Y-97939616D01*
X109393797Y-97817671D01*
X109393793Y-97817664D01*
X109307547Y-97702455D01*
X109307544Y-97702452D01*
X109192335Y-97616206D01*
X109192328Y-97616202D01*
X109057482Y-97565908D01*
X109057483Y-97565908D01*
X108997883Y-97559501D01*
X108997881Y-97559500D01*
X108997873Y-97559500D01*
X108997865Y-97559500D01*
X108824500Y-97559500D01*
X108757461Y-97539815D01*
X108711706Y-97487011D01*
X108700500Y-97435500D01*
X108700500Y-89301195D01*
X108718960Y-89236099D01*
X108784814Y-89129334D01*
X108839999Y-88962797D01*
X108850500Y-88860009D01*
X108850499Y-88059992D01*
X108839999Y-87957203D01*
X108784814Y-87790666D01*
X108692712Y-87641344D01*
X108599049Y-87547681D01*
X108565564Y-87486358D01*
X108570548Y-87416666D01*
X108599049Y-87372319D01*
X108644549Y-87326819D01*
X108692712Y-87278656D01*
X108784814Y-87129334D01*
X108839999Y-86962797D01*
X108850500Y-86860009D01*
X108850499Y-86059992D01*
X108839999Y-85957203D01*
X108784814Y-85790666D01*
X108692712Y-85641344D01*
X108568656Y-85517288D01*
X108419334Y-85425186D01*
X108252797Y-85370001D01*
X108252795Y-85370000D01*
X108150010Y-85359500D01*
X107149998Y-85359500D01*
X107149980Y-85359501D01*
X107047203Y-85370000D01*
X107047200Y-85370001D01*
X106880668Y-85425185D01*
X106880663Y-85425187D01*
X106731342Y-85517289D01*
X106607287Y-85641344D01*
X106601580Y-85650598D01*
X106549632Y-85697322D01*
X106496042Y-85709500D01*
X103319748Y-85709500D01*
X103252709Y-85689815D01*
X103206954Y-85637011D01*
X103197010Y-85567853D01*
X103226035Y-85504297D01*
X103227598Y-85502528D01*
X103250199Y-85477426D01*
X103348533Y-85368216D01*
X103443179Y-85204284D01*
X103501674Y-85024256D01*
X103521460Y-84836000D01*
X103501674Y-84647744D01*
X103443179Y-84467716D01*
X103348533Y-84303784D01*
X103221871Y-84163112D01*
X103221870Y-84163111D01*
X103068734Y-84051851D01*
X103068729Y-84051848D01*
X102895807Y-83974857D01*
X102895802Y-83974855D01*
X102750001Y-83943865D01*
X102710646Y-83935500D01*
X102521354Y-83935500D01*
X102488897Y-83942398D01*
X102336197Y-83974855D01*
X102336192Y-83974857D01*
X102163270Y-84051848D01*
X102163265Y-84051851D01*
X102149548Y-84061818D01*
X102083742Y-84085298D01*
X102076663Y-84085500D01*
X101910568Y-84085500D01*
X101843529Y-84065815D01*
X101818938Y-84043310D01*
X101818598Y-84043651D01*
X101696870Y-83921923D01*
X101696862Y-83921917D01*
X101555396Y-83838255D01*
X101555393Y-83838254D01*
X101397573Y-83792402D01*
X101397567Y-83792401D01*
X101360696Y-83789500D01*
X101360694Y-83789500D01*
X100054306Y-83789500D01*
X100054304Y-83789500D01*
X100017432Y-83792401D01*
X100017426Y-83792402D01*
X99859606Y-83838254D01*
X99859603Y-83838255D01*
X99718137Y-83921917D01*
X99718129Y-83921923D01*
X99601923Y-84038129D01*
X99601917Y-84038137D01*
X99518255Y-84179603D01*
X99518254Y-84179606D01*
X99472402Y-84337426D01*
X99472401Y-84337432D01*
X99469500Y-84374304D01*
X99469500Y-84616000D01*
X99449815Y-84683039D01*
X99397011Y-84728794D01*
X99345500Y-84740000D01*
X99082500Y-84740000D01*
X99082500Y-85290000D01*
X99738185Y-85290000D01*
X99801306Y-85307268D01*
X99859602Y-85341744D01*
X99901224Y-85353836D01*
X100017426Y-85387597D01*
X100017429Y-85387597D01*
X100017431Y-85387598D01*
X100029722Y-85388565D01*
X100054304Y-85390500D01*
X100054306Y-85390500D01*
X100401625Y-85390500D01*
X100468664Y-85410185D01*
X100481325Y-85419505D01*
X100488096Y-85425187D01*
X100542110Y-85470511D01*
X100580811Y-85528683D01*
X100581919Y-85598544D01*
X100545081Y-85657914D01*
X100481994Y-85687943D01*
X100462403Y-85689500D01*
X100054304Y-85689500D01*
X100017432Y-85692401D01*
X100017426Y-85692402D01*
X99859606Y-85738254D01*
X99859603Y-85738255D01*
X99801306Y-85772732D01*
X99738185Y-85790000D01*
X97597705Y-85790000D01*
X97597704Y-85790001D01*
X97597899Y-85792486D01*
X97643718Y-85950198D01*
X97727314Y-86091552D01*
X97727321Y-86091561D01*
X97795579Y-86159819D01*
X97829064Y-86221142D01*
X97824080Y-86290834D01*
X97782208Y-86346767D01*
X97716744Y-86371184D01*
X97707898Y-86371500D01*
X97345705Y-86371500D01*
X97327735Y-86370191D01*
X97303972Y-86366710D01*
X97258890Y-86370655D01*
X97251933Y-86371264D01*
X97246532Y-86371500D01*
X97238288Y-86371500D01*
X97205707Y-86375308D01*
X97129199Y-86382001D01*
X97122133Y-86383461D01*
X97122121Y-86383404D01*
X97114754Y-86385038D01*
X97114768Y-86385094D01*
X97107751Y-86386756D01*
X97035573Y-86413026D01*
X96962662Y-86437187D01*
X96956119Y-86440238D01*
X96956094Y-86440186D01*
X96949314Y-86443468D01*
X96949340Y-86443520D01*
X96942881Y-86446764D01*
X96878709Y-86488970D01*
X96813345Y-86529288D01*
X96807677Y-86533770D01*
X96807641Y-86533724D01*
X96801798Y-86538484D01*
X96801835Y-86538528D01*
X96796310Y-86543164D01*
X96743597Y-86599035D01*
X93240358Y-90102272D01*
X93226729Y-90114051D01*
X93207468Y-90128390D01*
X93173898Y-90168397D01*
X93170253Y-90172376D01*
X93164409Y-90178222D01*
X93144059Y-90203959D01*
X93094695Y-90262789D01*
X93090729Y-90268819D01*
X93090682Y-90268788D01*
X93086630Y-90275147D01*
X93086679Y-90275177D01*
X93082889Y-90281321D01*
X93050424Y-90350941D01*
X93015960Y-90419566D01*
X93013488Y-90426357D01*
X93013432Y-90426336D01*
X93010960Y-90433450D01*
X93011015Y-90433469D01*
X93008742Y-90440327D01*
X93002616Y-90470000D01*
X92993207Y-90515565D01*
X92981262Y-90565965D01*
X92975498Y-90590286D01*
X92974661Y-90597454D01*
X92974601Y-90597447D01*
X92973835Y-90604945D01*
X92973895Y-90604951D01*
X92973265Y-90612140D01*
X92975500Y-90688916D01*
X92975500Y-95395769D01*
X92955815Y-95462808D01*
X92939181Y-95483450D01*
X91990347Y-96432283D01*
X91929024Y-96465768D01*
X91859332Y-96460784D01*
X91803399Y-96418912D01*
X91779089Y-96354843D01*
X91774107Y-96294707D01*
X91718611Y-96075559D01*
X91627802Y-95868535D01*
X91623870Y-95862517D01*
X91535771Y-95727671D01*
X91504156Y-95679281D01*
X91504153Y-95679278D01*
X91504149Y-95679272D01*
X91351049Y-95512963D01*
X91351048Y-95512962D01*
X91351046Y-95512960D01*
X91172649Y-95374107D01*
X91146390Y-95359896D01*
X90973832Y-95266512D01*
X90973827Y-95266510D01*
X90760017Y-95193109D01*
X90592778Y-95165202D01*
X90537033Y-95155900D01*
X90310967Y-95155900D01*
X90266370Y-95163341D01*
X90087982Y-95193109D01*
X89874172Y-95266510D01*
X89874167Y-95266512D01*
X89675352Y-95374106D01*
X89496955Y-95512959D01*
X89496950Y-95512963D01*
X89343850Y-95679272D01*
X89343842Y-95679283D01*
X89220198Y-95868533D01*
X89129388Y-96075560D01*
X89073892Y-96294710D01*
X89055225Y-96519993D01*
X89055225Y-96520006D01*
X89073892Y-96745289D01*
X89129388Y-96964439D01*
X89220198Y-97171466D01*
X89343842Y-97360716D01*
X89343850Y-97360727D01*
X89476110Y-97504398D01*
X89496954Y-97527040D01*
X89675351Y-97665893D01*
X89703165Y-97680945D01*
X89752755Y-97730165D01*
X89767863Y-97798382D01*
X89743692Y-97863937D01*
X89703165Y-97899055D01*
X89675352Y-97914106D01*
X89496955Y-98052959D01*
X89496950Y-98052963D01*
X89343850Y-98219272D01*
X89343842Y-98219283D01*
X89220198Y-98408533D01*
X89129388Y-98615560D01*
X89073892Y-98834710D01*
X89055225Y-99059993D01*
X89055225Y-99060006D01*
X89073892Y-99285289D01*
X89129388Y-99504439D01*
X89220198Y-99711466D01*
X89343842Y-99900716D01*
X89343850Y-99900727D01*
X89477214Y-100045597D01*
X89496954Y-100067040D01*
X89675351Y-100205893D01*
X89703165Y-100220945D01*
X89752755Y-100270165D01*
X89767863Y-100338382D01*
X89743692Y-100403937D01*
X89703165Y-100439055D01*
X89675352Y-100454106D01*
X89496955Y-100592959D01*
X89496950Y-100592963D01*
X89343850Y-100759272D01*
X89343842Y-100759283D01*
X89220198Y-100948533D01*
X89129388Y-101155560D01*
X89073892Y-101374710D01*
X89055225Y-101599993D01*
X89055225Y-101600006D01*
X89073892Y-101825289D01*
X89129388Y-102044439D01*
X89220198Y-102251466D01*
X89343842Y-102440716D01*
X89343850Y-102440727D01*
X89496950Y-102607036D01*
X89496954Y-102607040D01*
X89675351Y-102745893D01*
X89703165Y-102760945D01*
X89752755Y-102810165D01*
X89767863Y-102878382D01*
X89743692Y-102943937D01*
X89703165Y-102979055D01*
X89675351Y-102994106D01*
X89675348Y-102994109D01*
X89607318Y-103047058D01*
X89542324Y-103072700D01*
X89473784Y-103059133D01*
X89443476Y-103036885D01*
X78831391Y-92424800D01*
X89158341Y-92424800D01*
X89178936Y-92660203D01*
X89178938Y-92660213D01*
X89240094Y-92888455D01*
X89240096Y-92888459D01*
X89240097Y-92888463D01*
X89285674Y-92986202D01*
X89339964Y-93102628D01*
X89339965Y-93102630D01*
X89475505Y-93296202D01*
X89642597Y-93463294D01*
X89836169Y-93598834D01*
X89836171Y-93598835D01*
X90050337Y-93698703D01*
X90050343Y-93698704D01*
X90050344Y-93698705D01*
X90105285Y-93713426D01*
X90278592Y-93759863D01*
X90455034Y-93775300D01*
X90572966Y-93775300D01*
X90749408Y-93759863D01*
X90977663Y-93698703D01*
X91191829Y-93598835D01*
X91385401Y-93463295D01*
X91552495Y-93296201D01*
X91688035Y-93102630D01*
X91787903Y-92888463D01*
X91849063Y-92660208D01*
X91869659Y-92424800D01*
X91849063Y-92189392D01*
X91787903Y-91961137D01*
X91688035Y-91746971D01*
X91688034Y-91746969D01*
X91552494Y-91553397D01*
X91385402Y-91386305D01*
X91191830Y-91250765D01*
X91191828Y-91250764D01*
X91033353Y-91176866D01*
X90977663Y-91150897D01*
X90977659Y-91150896D01*
X90977655Y-91150894D01*
X90749413Y-91089738D01*
X90749403Y-91089736D01*
X90572966Y-91074300D01*
X90455034Y-91074300D01*
X90278596Y-91089736D01*
X90278586Y-91089738D01*
X90050344Y-91150894D01*
X90050335Y-91150898D01*
X89836171Y-91250764D01*
X89836169Y-91250765D01*
X89642597Y-91386305D01*
X89475506Y-91553397D01*
X89475501Y-91553404D01*
X89339967Y-91746965D01*
X89339965Y-91746969D01*
X89240098Y-91961135D01*
X89240094Y-91961144D01*
X89178938Y-92189386D01*
X89178936Y-92189396D01*
X89158341Y-92424799D01*
X89158341Y-92424800D01*
X78831391Y-92424800D01*
X74557056Y-88150465D01*
X74523571Y-88089142D01*
X74521416Y-88075744D01*
X74519760Y-88059991D01*
X74508174Y-87949744D01*
X74449679Y-87769716D01*
X74355033Y-87605784D01*
X74228371Y-87465112D01*
X74221335Y-87460000D01*
X74075234Y-87353851D01*
X74075229Y-87353848D01*
X73902307Y-87276857D01*
X73902302Y-87276855D01*
X73737117Y-87241745D01*
X73717146Y-87237500D01*
X73647500Y-87237500D01*
X73580461Y-87217815D01*
X73534706Y-87165011D01*
X73523500Y-87113500D01*
X73523500Y-85289998D01*
X97597704Y-85289998D01*
X97597705Y-85290000D01*
X98582500Y-85290000D01*
X98582500Y-84740000D01*
X98179356Y-84740000D01*
X98142510Y-84742899D01*
X98142504Y-84742900D01*
X97984806Y-84788716D01*
X97984803Y-84788717D01*
X97843447Y-84872314D01*
X97843438Y-84872321D01*
X97727321Y-84988438D01*
X97727314Y-84988447D01*
X97643718Y-85129801D01*
X97597899Y-85287513D01*
X97597704Y-85289998D01*
X73523500Y-85289998D01*
X73523500Y-79090001D01*
X98294390Y-79090001D01*
X98314804Y-79375433D01*
X98375628Y-79655037D01*
X98375630Y-79655043D01*
X98375631Y-79655046D01*
X98454496Y-79866491D01*
X98475635Y-79923166D01*
X98612770Y-80174309D01*
X98612775Y-80174317D01*
X98784254Y-80403387D01*
X98784270Y-80403405D01*
X98986594Y-80605729D01*
X98986612Y-80605745D01*
X99215682Y-80777224D01*
X99215690Y-80777229D01*
X99466833Y-80914364D01*
X99466832Y-80914364D01*
X99466836Y-80914365D01*
X99466839Y-80914367D01*
X99734954Y-81014369D01*
X99734960Y-81014370D01*
X99734962Y-81014371D01*
X100014566Y-81075195D01*
X100014568Y-81075195D01*
X100014572Y-81075196D01*
X100268220Y-81093337D01*
X100299999Y-81095610D01*
X100300000Y-81095610D01*
X100300001Y-81095610D01*
X100328595Y-81093564D01*
X100585428Y-81075196D01*
X100657049Y-81059616D01*
X100865037Y-81014371D01*
X100865037Y-81014370D01*
X100865046Y-81014369D01*
X101133161Y-80914367D01*
X101384315Y-80777226D01*
X101613395Y-80605739D01*
X101815739Y-80403395D01*
X101987226Y-80174315D01*
X102124367Y-79923161D01*
X102224369Y-79655046D01*
X102285196Y-79375428D01*
X102305610Y-79090000D01*
X102285196Y-78804572D01*
X102224369Y-78524954D01*
X102124367Y-78256839D01*
X101987226Y-78005685D01*
X101987224Y-78005682D01*
X101815745Y-77776612D01*
X101815729Y-77776594D01*
X101613405Y-77574270D01*
X101613387Y-77574254D01*
X101384317Y-77402775D01*
X101384309Y-77402770D01*
X101133166Y-77265635D01*
X101133167Y-77265635D01*
X101025915Y-77225632D01*
X100865046Y-77165631D01*
X100865043Y-77165630D01*
X100865037Y-77165628D01*
X100585433Y-77104804D01*
X100300001Y-77084390D01*
X100299999Y-77084390D01*
X100014566Y-77104804D01*
X99734962Y-77165628D01*
X99466833Y-77265635D01*
X99215690Y-77402770D01*
X99215682Y-77402775D01*
X98986612Y-77574254D01*
X98986594Y-77574270D01*
X98784270Y-77776594D01*
X98784254Y-77776612D01*
X98612775Y-78005682D01*
X98612770Y-78005690D01*
X98475635Y-78256833D01*
X98375628Y-78524962D01*
X98314804Y-78804566D01*
X98294390Y-79089998D01*
X98294390Y-79090001D01*
X73523500Y-79090001D01*
X73523500Y-73945942D01*
X73525224Y-73930322D01*
X73524939Y-73930296D01*
X73525671Y-73922540D01*
X73525673Y-73922533D01*
X73523500Y-73853385D01*
X73523500Y-73823850D01*
X73522631Y-73816972D01*
X73522172Y-73811143D01*
X73520709Y-73764572D01*
X73515122Y-73745344D01*
X73511174Y-73726284D01*
X73508663Y-73706404D01*
X73491512Y-73663087D01*
X73489619Y-73657558D01*
X73476618Y-73612809D01*
X73476616Y-73612806D01*
X73466423Y-73595571D01*
X73457861Y-73578094D01*
X73450487Y-73559470D01*
X73450486Y-73559468D01*
X73423079Y-73521745D01*
X73419888Y-73516886D01*
X73412680Y-73504698D01*
X73396170Y-73476780D01*
X73396168Y-73476778D01*
X73396165Y-73476774D01*
X73382006Y-73462615D01*
X73369368Y-73447819D01*
X73357594Y-73431613D01*
X73321688Y-73401909D01*
X73317376Y-73397986D01*
X70301237Y-70381846D01*
X70267752Y-70320523D01*
X70269142Y-70262076D01*
X70296063Y-70161608D01*
X70316659Y-69926200D01*
X70296063Y-69690792D01*
X70234903Y-69462537D01*
X70135035Y-69248371D01*
X69999495Y-69054799D01*
X69999494Y-69054797D01*
X69832402Y-68887706D01*
X69832396Y-68887701D01*
X69646842Y-68757775D01*
X69603217Y-68703198D01*
X69596023Y-68633700D01*
X69627546Y-68571345D01*
X69646842Y-68554625D01*
X69678217Y-68532656D01*
X69832401Y-68424695D01*
X69999495Y-68257601D01*
X70135035Y-68064030D01*
X70234903Y-67849863D01*
X70296063Y-67621608D01*
X70316659Y-67386200D01*
X70296063Y-67150792D01*
X70234903Y-66922537D01*
X70135035Y-66708371D01*
X70028810Y-66556666D01*
X69999496Y-66514800D01*
X69971707Y-66487011D01*
X69877179Y-66392483D01*
X69843696Y-66331163D01*
X69848680Y-66261471D01*
X69890551Y-66205537D01*
X69921529Y-66188622D01*
X70053086Y-66139554D01*
X70053093Y-66139550D01*
X70168187Y-66053390D01*
X70168190Y-66053387D01*
X70254350Y-65938293D01*
X70254354Y-65938286D01*
X70304596Y-65803579D01*
X70304598Y-65803572D01*
X70310999Y-65744044D01*
X70311000Y-65744027D01*
X70311000Y-65096200D01*
X69394686Y-65096200D01*
X69420493Y-65056044D01*
X69461000Y-64918089D01*
X69461000Y-64774311D01*
X69420493Y-64636356D01*
X69394686Y-64596200D01*
X70311000Y-64596200D01*
X70311000Y-63948372D01*
X70310999Y-63948355D01*
X70304598Y-63888827D01*
X70304596Y-63888820D01*
X70254354Y-63754113D01*
X70254350Y-63754106D01*
X70168190Y-63639012D01*
X70168187Y-63639009D01*
X70053093Y-63552849D01*
X70053086Y-63552845D01*
X69918379Y-63502603D01*
X69918372Y-63502601D01*
X69858844Y-63496200D01*
X69211000Y-63496200D01*
X69211000Y-64410698D01*
X69103315Y-64361520D01*
X68996763Y-64346200D01*
X68925237Y-64346200D01*
X68818685Y-64361520D01*
X68711000Y-64410698D01*
X68711000Y-63496200D01*
X68063155Y-63496200D01*
X68003627Y-63502601D01*
X68003620Y-63502603D01*
X67868913Y-63552845D01*
X67868906Y-63552849D01*
X67753812Y-63639009D01*
X67753809Y-63639012D01*
X67667649Y-63754106D01*
X67667645Y-63754113D01*
X67617403Y-63888820D01*
X67617401Y-63888827D01*
X67611000Y-63948355D01*
X67611000Y-64596200D01*
X68527314Y-64596200D01*
X68501507Y-64636356D01*
X68461000Y-64774311D01*
X68461000Y-64918089D01*
X68501507Y-65056044D01*
X68527314Y-65096200D01*
X67611000Y-65096200D01*
X67611000Y-65744044D01*
X67617401Y-65803572D01*
X67617403Y-65803579D01*
X67667645Y-65938286D01*
X67667649Y-65938293D01*
X67753809Y-66053387D01*
X67753812Y-66053390D01*
X67868906Y-66139550D01*
X67868913Y-66139554D01*
X68000470Y-66188621D01*
X68056403Y-66230492D01*
X68080821Y-66295956D01*
X68065970Y-66364229D01*
X68044819Y-66392484D01*
X67922503Y-66514800D01*
X67786965Y-66708369D01*
X67786964Y-66708371D01*
X67687098Y-66922535D01*
X67687094Y-66922544D01*
X67625938Y-67150786D01*
X67625936Y-67150796D01*
X67605341Y-67386199D01*
X67605341Y-67386200D01*
X67625936Y-67621603D01*
X67625938Y-67621613D01*
X67687094Y-67849855D01*
X67687096Y-67849859D01*
X67687097Y-67849863D01*
X67769818Y-68027258D01*
X67786965Y-68064030D01*
X67786967Y-68064034D01*
X67922501Y-68257595D01*
X67922506Y-68257602D01*
X68089597Y-68424693D01*
X68089603Y-68424698D01*
X68275158Y-68554625D01*
X68318783Y-68609202D01*
X68325977Y-68678700D01*
X68294454Y-68741055D01*
X68275158Y-68757775D01*
X68089597Y-68887705D01*
X67922505Y-69054797D01*
X67786965Y-69248369D01*
X67786964Y-69248371D01*
X67687098Y-69462535D01*
X67687094Y-69462544D01*
X67625938Y-69690786D01*
X67625936Y-69690796D01*
X67605341Y-69926199D01*
X67605341Y-69926200D01*
X67625936Y-70161603D01*
X67625938Y-70161613D01*
X67687094Y-70389855D01*
X67687096Y-70389859D01*
X67687097Y-70389863D01*
X67786965Y-70604030D01*
X67786967Y-70604034D01*
X67922501Y-70797595D01*
X67922506Y-70797602D01*
X68089597Y-70964693D01*
X68089603Y-70964698D01*
X68275158Y-71094625D01*
X68318783Y-71149202D01*
X68325977Y-71218700D01*
X68294454Y-71281055D01*
X68275158Y-71297775D01*
X68089597Y-71427705D01*
X67922505Y-71594797D01*
X67786965Y-71788369D01*
X67786964Y-71788371D01*
X67687098Y-72002535D01*
X67687094Y-72002544D01*
X67625938Y-72230786D01*
X67625936Y-72230796D01*
X67605341Y-72466199D01*
X67605341Y-72466200D01*
X67625936Y-72701603D01*
X67625938Y-72701613D01*
X67687094Y-72929855D01*
X67687096Y-72929859D01*
X67687097Y-72929863D01*
X67786965Y-73144030D01*
X67786967Y-73144034D01*
X67895281Y-73298721D01*
X67922505Y-73337601D01*
X68089599Y-73504695D01*
X68113989Y-73521773D01*
X68283165Y-73640232D01*
X68283167Y-73640233D01*
X68283170Y-73640235D01*
X68497337Y-73740103D01*
X68725592Y-73801263D01*
X68905143Y-73816972D01*
X68960999Y-73821859D01*
X68961000Y-73821859D01*
X68961001Y-73821859D01*
X69016857Y-73816972D01*
X69196408Y-73801263D01*
X69424663Y-73740103D01*
X69638830Y-73640235D01*
X69832401Y-73504695D01*
X69999495Y-73337601D01*
X70135035Y-73144030D01*
X70234903Y-72929863D01*
X70296063Y-72701608D01*
X70316659Y-72466200D01*
X70316659Y-72466199D01*
X70316659Y-72465811D01*
X70316707Y-72465645D01*
X70317131Y-72460806D01*
X70318103Y-72460891D01*
X70336344Y-72398772D01*
X70389148Y-72353017D01*
X70458306Y-72343073D01*
X70521862Y-72372098D01*
X70528340Y-72378130D01*
X72236181Y-74085971D01*
X72269666Y-74147294D01*
X72272500Y-74173652D01*
X72272500Y-113735546D01*
X72252815Y-113802585D01*
X72236181Y-113823227D01*
X71683874Y-114375533D01*
X71622551Y-114409018D01*
X71552859Y-114404034D01*
X71496926Y-114362162D01*
X71472617Y-114298093D01*
X71454107Y-114074707D01*
X71398611Y-113855559D01*
X71307802Y-113648535D01*
X71184156Y-113459281D01*
X71184153Y-113459278D01*
X71184149Y-113459272D01*
X71031049Y-113292963D01*
X71031048Y-113292962D01*
X71031046Y-113292960D01*
X70852649Y-113154107D01*
X70852647Y-113154106D01*
X70852646Y-113154105D01*
X70852639Y-113154100D01*
X70824836Y-113139055D01*
X70775244Y-113089837D01*
X70760135Y-113021620D01*
X70784306Y-112956064D01*
X70824836Y-112920945D01*
X70852639Y-112905899D01*
X70852642Y-112905896D01*
X70852649Y-112905893D01*
X71031046Y-112767040D01*
X71145997Y-112642171D01*
X71184149Y-112600727D01*
X71184150Y-112600725D01*
X71184156Y-112600719D01*
X71307802Y-112411465D01*
X71398611Y-112204441D01*
X71454107Y-111985293D01*
X71468116Y-111816228D01*
X71472775Y-111760006D01*
X71472775Y-111759993D01*
X71454107Y-111534710D01*
X71454107Y-111534707D01*
X71398611Y-111315559D01*
X71307802Y-111108535D01*
X71184156Y-110919281D01*
X71184153Y-110919278D01*
X71184149Y-110919272D01*
X71031049Y-110752963D01*
X71031048Y-110752962D01*
X71031046Y-110752960D01*
X70852649Y-110614107D01*
X70852647Y-110614106D01*
X70852646Y-110614105D01*
X70852639Y-110614100D01*
X70824836Y-110599055D01*
X70775244Y-110549837D01*
X70760135Y-110481620D01*
X70784306Y-110416064D01*
X70824836Y-110380945D01*
X70852639Y-110365899D01*
X70852642Y-110365896D01*
X70852649Y-110365893D01*
X71031046Y-110227040D01*
X71145997Y-110102171D01*
X71184149Y-110060727D01*
X71184150Y-110060725D01*
X71184156Y-110060719D01*
X71307802Y-109871465D01*
X71398611Y-109664441D01*
X71454107Y-109445293D01*
X71472775Y-109220000D01*
X71472775Y-109219993D01*
X71454107Y-108994710D01*
X71454107Y-108994707D01*
X71398611Y-108775559D01*
X71307802Y-108568535D01*
X71184156Y-108379281D01*
X71184153Y-108379278D01*
X71184149Y-108379272D01*
X71031049Y-108212963D01*
X71031048Y-108212962D01*
X71031046Y-108212960D01*
X70852649Y-108074107D01*
X70852647Y-108074106D01*
X70852646Y-108074105D01*
X70852639Y-108074100D01*
X70824836Y-108059055D01*
X70775244Y-108009837D01*
X70760135Y-107941620D01*
X70784306Y-107876064D01*
X70824836Y-107840945D01*
X70852639Y-107825899D01*
X70852642Y-107825896D01*
X70852649Y-107825893D01*
X71031046Y-107687040D01*
X71145997Y-107562171D01*
X71184149Y-107520727D01*
X71184150Y-107520725D01*
X71184156Y-107520719D01*
X71307802Y-107331465D01*
X71398611Y-107124441D01*
X71454107Y-106905293D01*
X71463229Y-106795208D01*
X71472775Y-106680006D01*
X71472775Y-106679993D01*
X71459707Y-106522294D01*
X71454107Y-106454707D01*
X71398611Y-106235559D01*
X71307802Y-106028535D01*
X71276092Y-105980000D01*
X71184157Y-105839283D01*
X71184149Y-105839272D01*
X71031049Y-105672963D01*
X71031048Y-105672962D01*
X71031046Y-105672960D01*
X70852649Y-105534107D01*
X70852647Y-105534106D01*
X70852646Y-105534105D01*
X70852639Y-105534100D01*
X70824836Y-105519055D01*
X70775244Y-105469837D01*
X70760135Y-105401620D01*
X70784306Y-105336064D01*
X70824836Y-105300945D01*
X70852639Y-105285899D01*
X70852642Y-105285896D01*
X70852649Y-105285893D01*
X71031046Y-105147040D01*
X71184156Y-104980719D01*
X71307802Y-104791465D01*
X71398611Y-104584441D01*
X71454107Y-104365293D01*
X71464705Y-104237390D01*
X71472775Y-104140006D01*
X71472775Y-104139993D01*
X71454107Y-103914710D01*
X71454107Y-103914707D01*
X71398611Y-103695559D01*
X71307802Y-103488535D01*
X71184156Y-103299281D01*
X71184153Y-103299278D01*
X71184149Y-103299272D01*
X71031049Y-103132963D01*
X71031048Y-103132962D01*
X71031046Y-103132960D01*
X70852649Y-102994107D01*
X70852647Y-102994106D01*
X70852646Y-102994105D01*
X70852639Y-102994100D01*
X70824836Y-102979055D01*
X70775244Y-102929837D01*
X70760135Y-102861620D01*
X70784306Y-102796064D01*
X70824836Y-102760945D01*
X70852639Y-102745899D01*
X70852642Y-102745896D01*
X70852649Y-102745893D01*
X71031046Y-102607040D01*
X71184156Y-102440719D01*
X71307802Y-102251465D01*
X71398611Y-102044441D01*
X71454107Y-101825293D01*
X71472775Y-101600000D01*
X71472775Y-101599993D01*
X71454107Y-101374710D01*
X71454107Y-101374707D01*
X71398611Y-101155559D01*
X71307802Y-100948535D01*
X71306295Y-100946229D01*
X71184157Y-100759283D01*
X71184149Y-100759272D01*
X71031049Y-100592963D01*
X71031048Y-100592962D01*
X71031046Y-100592960D01*
X70852649Y-100454107D01*
X70852647Y-100454106D01*
X70852646Y-100454105D01*
X70852639Y-100454100D01*
X70824836Y-100439055D01*
X70775244Y-100389837D01*
X70760135Y-100321620D01*
X70784306Y-100256064D01*
X70824836Y-100220945D01*
X70852639Y-100205899D01*
X70852642Y-100205896D01*
X70852649Y-100205893D01*
X71031046Y-100067040D01*
X71184156Y-99900719D01*
X71307802Y-99711465D01*
X71398611Y-99504441D01*
X71454107Y-99285293D01*
X71462076Y-99189119D01*
X71472775Y-99060006D01*
X71472775Y-99059993D01*
X71455904Y-98856397D01*
X71454107Y-98834707D01*
X71398611Y-98615559D01*
X71307802Y-98408535D01*
X71184156Y-98219281D01*
X71184153Y-98219278D01*
X71184149Y-98219272D01*
X71031049Y-98052963D01*
X71031048Y-98052962D01*
X71031046Y-98052960D01*
X70852649Y-97914107D01*
X70852647Y-97914106D01*
X70852646Y-97914105D01*
X70852639Y-97914100D01*
X70824836Y-97899055D01*
X70775244Y-97849837D01*
X70760135Y-97781620D01*
X70784306Y-97716064D01*
X70824836Y-97680945D01*
X70852639Y-97665899D01*
X70852642Y-97665896D01*
X70852649Y-97665893D01*
X71031046Y-97527040D01*
X71130832Y-97418643D01*
X71184149Y-97360727D01*
X71184150Y-97360725D01*
X71184156Y-97360719D01*
X71307802Y-97171465D01*
X71398611Y-96964441D01*
X71454107Y-96745293D01*
X71470941Y-96542135D01*
X71472775Y-96520006D01*
X71472775Y-96519993D01*
X71454107Y-96294710D01*
X71454107Y-96294707D01*
X71398611Y-96075559D01*
X71307802Y-95868535D01*
X71303870Y-95862517D01*
X71215771Y-95727671D01*
X71184156Y-95679281D01*
X71184153Y-95679278D01*
X71184149Y-95679272D01*
X71031049Y-95512963D01*
X71031048Y-95512962D01*
X71031046Y-95512960D01*
X70852649Y-95374107D01*
X70826390Y-95359896D01*
X70653832Y-95266512D01*
X70653827Y-95266510D01*
X70440017Y-95193109D01*
X70272778Y-95165202D01*
X70217033Y-95155900D01*
X69990967Y-95155900D01*
X69946370Y-95163341D01*
X69767982Y-95193109D01*
X69554172Y-95266510D01*
X69554167Y-95266512D01*
X69355352Y-95374106D01*
X69176955Y-95512959D01*
X69176950Y-95512963D01*
X69023850Y-95679272D01*
X69023842Y-95679283D01*
X68900198Y-95868533D01*
X68809388Y-96075560D01*
X68753892Y-96294710D01*
X68735225Y-96519993D01*
X68735225Y-96520006D01*
X68753892Y-96745289D01*
X68809388Y-96964439D01*
X68900198Y-97171466D01*
X69023842Y-97360716D01*
X69023850Y-97360727D01*
X69156110Y-97504398D01*
X69176954Y-97527040D01*
X69355351Y-97665893D01*
X69383165Y-97680945D01*
X69432755Y-97730165D01*
X69447863Y-97798382D01*
X69423692Y-97863937D01*
X69383165Y-97899055D01*
X69355352Y-97914106D01*
X69176955Y-98052959D01*
X69176950Y-98052963D01*
X69023850Y-98219272D01*
X69023842Y-98219283D01*
X68900198Y-98408533D01*
X68809388Y-98615560D01*
X68753892Y-98834710D01*
X68735225Y-99059993D01*
X68735225Y-99060006D01*
X68753892Y-99285289D01*
X68809388Y-99504439D01*
X68900198Y-99711466D01*
X69023842Y-99900716D01*
X69023850Y-99900727D01*
X69157214Y-100045597D01*
X69176954Y-100067040D01*
X69355351Y-100205893D01*
X69383165Y-100220945D01*
X69432755Y-100270165D01*
X69447863Y-100338382D01*
X69423692Y-100403937D01*
X69383165Y-100439055D01*
X69355352Y-100454106D01*
X69176955Y-100592959D01*
X69176950Y-100592963D01*
X69023850Y-100759272D01*
X69023842Y-100759283D01*
X68900198Y-100948533D01*
X68809388Y-101155560D01*
X68753892Y-101374710D01*
X68735225Y-101599993D01*
X68735225Y-101600006D01*
X68753892Y-101825289D01*
X68809388Y-102044439D01*
X68900198Y-102251466D01*
X69023842Y-102440716D01*
X69023850Y-102440727D01*
X69176950Y-102607036D01*
X69176954Y-102607040D01*
X69355351Y-102745893D01*
X69383165Y-102760945D01*
X69432755Y-102810165D01*
X69447863Y-102878382D01*
X69423692Y-102943937D01*
X69383165Y-102979055D01*
X69355352Y-102994106D01*
X69176955Y-103132959D01*
X69176950Y-103132963D01*
X69023850Y-103299272D01*
X69023842Y-103299283D01*
X68900198Y-103488533D01*
X68809388Y-103695560D01*
X68753892Y-103914710D01*
X68735225Y-104139993D01*
X68735225Y-104140006D01*
X68753892Y-104365289D01*
X68809388Y-104584439D01*
X68900198Y-104791466D01*
X69023842Y-104980716D01*
X69023850Y-104980727D01*
X69176950Y-105147036D01*
X69176954Y-105147040D01*
X69355351Y-105285893D01*
X69383165Y-105300945D01*
X69432755Y-105350165D01*
X69447863Y-105418382D01*
X69423692Y-105483937D01*
X69383165Y-105519055D01*
X69355352Y-105534106D01*
X69176955Y-105672959D01*
X69176950Y-105672963D01*
X69023850Y-105839272D01*
X69023842Y-105839283D01*
X68900198Y-106028533D01*
X68809388Y-106235560D01*
X68753892Y-106454710D01*
X68735225Y-106679993D01*
X68735225Y-106680006D01*
X68753892Y-106905289D01*
X68809388Y-107124439D01*
X68900198Y-107331466D01*
X69023842Y-107520716D01*
X69023850Y-107520727D01*
X69131506Y-107637671D01*
X69176954Y-107687040D01*
X69355351Y-107825893D01*
X69383165Y-107840945D01*
X69432755Y-107890165D01*
X69447863Y-107958382D01*
X69423692Y-108023937D01*
X69383165Y-108059055D01*
X69355352Y-108074106D01*
X69176955Y-108212959D01*
X69176950Y-108212963D01*
X69023850Y-108379272D01*
X69023842Y-108379283D01*
X68900198Y-108568533D01*
X68809388Y-108775560D01*
X68753892Y-108994710D01*
X68735225Y-109219993D01*
X68735225Y-109220006D01*
X68753892Y-109445289D01*
X68809388Y-109664439D01*
X68900198Y-109871466D01*
X69023842Y-110060716D01*
X69023850Y-110060727D01*
X69176950Y-110227036D01*
X69176954Y-110227040D01*
X69355351Y-110365893D01*
X69383165Y-110380945D01*
X69432755Y-110430165D01*
X69447863Y-110498382D01*
X69423692Y-110563937D01*
X69383165Y-110599055D01*
X69355352Y-110614106D01*
X69176955Y-110752959D01*
X69176950Y-110752963D01*
X69023850Y-110919272D01*
X69023842Y-110919283D01*
X68900198Y-111108533D01*
X68809388Y-111315560D01*
X68753892Y-111534710D01*
X68735225Y-111759993D01*
X68735225Y-111760006D01*
X68753892Y-111985289D01*
X68809388Y-112204439D01*
X68900198Y-112411466D01*
X69023842Y-112600716D01*
X69023850Y-112600727D01*
X69176950Y-112767036D01*
X69176954Y-112767040D01*
X69355351Y-112905893D01*
X69383165Y-112920945D01*
X69432755Y-112970165D01*
X69447863Y-113038382D01*
X69423692Y-113103937D01*
X69383165Y-113139055D01*
X69355352Y-113154106D01*
X69176955Y-113292959D01*
X69176950Y-113292963D01*
X69023850Y-113459272D01*
X69023842Y-113459283D01*
X68900198Y-113648533D01*
X68809388Y-113855560D01*
X68753892Y-114074710D01*
X68735225Y-114299993D01*
X68735225Y-114300006D01*
X68753892Y-114525289D01*
X68809388Y-114744439D01*
X68900198Y-114951466D01*
X69023842Y-115140716D01*
X69023850Y-115140727D01*
X69149100Y-115276783D01*
X69176954Y-115307040D01*
X69355351Y-115445893D01*
X69383165Y-115460945D01*
X69432755Y-115510165D01*
X69447863Y-115578382D01*
X69423692Y-115643937D01*
X69383165Y-115679055D01*
X69355352Y-115694106D01*
X69176955Y-115832959D01*
X69176950Y-115832963D01*
X69023850Y-115999272D01*
X69023842Y-115999283D01*
X68900198Y-116188533D01*
X68809388Y-116395560D01*
X68753892Y-116614710D01*
X68735225Y-116839993D01*
X68735225Y-116840006D01*
X68753892Y-117065289D01*
X68809388Y-117284439D01*
X68900198Y-117491466D01*
X69023842Y-117680716D01*
X69023850Y-117680727D01*
X69176950Y-117847036D01*
X69176954Y-117847040D01*
X69355351Y-117985893D01*
X69383165Y-118000945D01*
X69432755Y-118050165D01*
X69447863Y-118118382D01*
X69423692Y-118183937D01*
X69383165Y-118219055D01*
X69355352Y-118234106D01*
X69176955Y-118372959D01*
X69176950Y-118372963D01*
X69023850Y-118539272D01*
X69023842Y-118539283D01*
X68900198Y-118728533D01*
X68809388Y-118935560D01*
X68753892Y-119154710D01*
X68735225Y-119379993D01*
X68735225Y-119380006D01*
X68753892Y-119605289D01*
X68809388Y-119824439D01*
X68900198Y-120031466D01*
X69013502Y-120204890D01*
X69023844Y-120220719D01*
X69161245Y-120369976D01*
X69192167Y-120432629D01*
X69184307Y-120502055D01*
X69140160Y-120556211D01*
X69113349Y-120570140D01*
X68998311Y-120613046D01*
X68998306Y-120613049D01*
X68883212Y-120699209D01*
X68883209Y-120699212D01*
X68797049Y-120814306D01*
X68797045Y-120814313D01*
X68746803Y-120949020D01*
X68746801Y-120949027D01*
X68740400Y-121008555D01*
X68740400Y-121670000D01*
X69660804Y-121670000D01*
X69637155Y-121706799D01*
X69596000Y-121846961D01*
X69596000Y-121993039D01*
X69637155Y-122133201D01*
X69660804Y-122170000D01*
X68740400Y-122170000D01*
X68740400Y-122831444D01*
X68746801Y-122890972D01*
X68746803Y-122890979D01*
X68797045Y-123025686D01*
X68797049Y-123025693D01*
X68883209Y-123140787D01*
X68883212Y-123140790D01*
X68998306Y-123226950D01*
X68998313Y-123226954D01*
X69113348Y-123269859D01*
X69169282Y-123311730D01*
X69193699Y-123377194D01*
X69178848Y-123445467D01*
X69161245Y-123470024D01*
X69023845Y-123619279D01*
X69023842Y-123619283D01*
X68900198Y-123808533D01*
X68809388Y-124015560D01*
X68753892Y-124234710D01*
X68748909Y-124294844D01*
X68723756Y-124360029D01*
X68667353Y-124401266D01*
X68597610Y-124405464D01*
X68537652Y-124372284D01*
X66572819Y-122407451D01*
X66539334Y-122346128D01*
X66536500Y-122319770D01*
X66536500Y-92424800D01*
X68658341Y-92424800D01*
X68678936Y-92660203D01*
X68678938Y-92660213D01*
X68740094Y-92888455D01*
X68740096Y-92888459D01*
X68740097Y-92888463D01*
X68785674Y-92986202D01*
X68839964Y-93102628D01*
X68839965Y-93102630D01*
X68975505Y-93296202D01*
X69142597Y-93463294D01*
X69336169Y-93598834D01*
X69336171Y-93598835D01*
X69550337Y-93698703D01*
X69550343Y-93698704D01*
X69550344Y-93698705D01*
X69605285Y-93713426D01*
X69778592Y-93759863D01*
X69955034Y-93775300D01*
X70072966Y-93775300D01*
X70249408Y-93759863D01*
X70477663Y-93698703D01*
X70691829Y-93598835D01*
X70885401Y-93463295D01*
X71052495Y-93296201D01*
X71188035Y-93102630D01*
X71287903Y-92888463D01*
X71349063Y-92660208D01*
X71369659Y-92424800D01*
X71349063Y-92189392D01*
X71287903Y-91961137D01*
X71188035Y-91746971D01*
X71188034Y-91746969D01*
X71052494Y-91553397D01*
X70885402Y-91386305D01*
X70691830Y-91250765D01*
X70691828Y-91250764D01*
X70533353Y-91176866D01*
X70477663Y-91150897D01*
X70477659Y-91150896D01*
X70477655Y-91150894D01*
X70249413Y-91089738D01*
X70249403Y-91089736D01*
X70072966Y-91074300D01*
X69955034Y-91074300D01*
X69778596Y-91089736D01*
X69778586Y-91089738D01*
X69550344Y-91150894D01*
X69550335Y-91150898D01*
X69336171Y-91250764D01*
X69336169Y-91250765D01*
X69142597Y-91386305D01*
X68975506Y-91553397D01*
X68975501Y-91553404D01*
X68839967Y-91746965D01*
X68839965Y-91746969D01*
X68740098Y-91961135D01*
X68740094Y-91961144D01*
X68678938Y-92189386D01*
X68678936Y-92189396D01*
X68658341Y-92424799D01*
X68658341Y-92424800D01*
X66536500Y-92424800D01*
X66536500Y-79090001D01*
X67874390Y-79090001D01*
X67894804Y-79375433D01*
X67955628Y-79655037D01*
X67955630Y-79655043D01*
X67955631Y-79655046D01*
X68034496Y-79866491D01*
X68055635Y-79923166D01*
X68192770Y-80174309D01*
X68192775Y-80174317D01*
X68364254Y-80403387D01*
X68364270Y-80403405D01*
X68566594Y-80605729D01*
X68566612Y-80605745D01*
X68795682Y-80777224D01*
X68795690Y-80777229D01*
X69046833Y-80914364D01*
X69046832Y-80914364D01*
X69046836Y-80914365D01*
X69046839Y-80914367D01*
X69314954Y-81014369D01*
X69314960Y-81014370D01*
X69314962Y-81014371D01*
X69594566Y-81075195D01*
X69594568Y-81075195D01*
X69594572Y-81075196D01*
X69848220Y-81093337D01*
X69879999Y-81095610D01*
X69880000Y-81095610D01*
X69880001Y-81095610D01*
X69908595Y-81093564D01*
X70165428Y-81075196D01*
X70237049Y-81059616D01*
X70445037Y-81014371D01*
X70445037Y-81014370D01*
X70445046Y-81014369D01*
X70713161Y-80914367D01*
X70964315Y-80777226D01*
X71193395Y-80605739D01*
X71395739Y-80403395D01*
X71567226Y-80174315D01*
X71704367Y-79923161D01*
X71804369Y-79655046D01*
X71865196Y-79375428D01*
X71885610Y-79090000D01*
X71865196Y-78804572D01*
X71804369Y-78524954D01*
X71704367Y-78256839D01*
X71567226Y-78005685D01*
X71567224Y-78005682D01*
X71395745Y-77776612D01*
X71395729Y-77776594D01*
X71193405Y-77574270D01*
X71193387Y-77574254D01*
X70964317Y-77402775D01*
X70964309Y-77402770D01*
X70713166Y-77265635D01*
X70713167Y-77265635D01*
X70605915Y-77225632D01*
X70445046Y-77165631D01*
X70445043Y-77165630D01*
X70445037Y-77165628D01*
X70165433Y-77104804D01*
X69880001Y-77084390D01*
X69879999Y-77084390D01*
X69594566Y-77104804D01*
X69314962Y-77165628D01*
X69046833Y-77265635D01*
X68795690Y-77402770D01*
X68795682Y-77402775D01*
X68566612Y-77574254D01*
X68566594Y-77574270D01*
X68364270Y-77776594D01*
X68364254Y-77776612D01*
X68192775Y-78005682D01*
X68192770Y-78005690D01*
X68055635Y-78256833D01*
X67955628Y-78524962D01*
X67894804Y-78804566D01*
X67874390Y-79089998D01*
X67874390Y-79090001D01*
X66536500Y-79090001D01*
X66536500Y-68421705D01*
X66537809Y-68403735D01*
X66538129Y-68401547D01*
X66541289Y-68379977D01*
X66539354Y-68357864D01*
X66536736Y-68327934D01*
X66536500Y-68322528D01*
X66536500Y-68314297D01*
X66536500Y-68314291D01*
X66532693Y-68281724D01*
X66525999Y-68205203D01*
X66525999Y-68205201D01*
X66524539Y-68198129D01*
X66524597Y-68198116D01*
X66522965Y-68190757D01*
X66522906Y-68190772D01*
X66521242Y-68183753D01*
X66521241Y-68183745D01*
X66494974Y-68111576D01*
X66470814Y-68038666D01*
X66470809Y-68038659D01*
X66467760Y-68032118D01*
X66467815Y-68032091D01*
X66464533Y-68025313D01*
X66464480Y-68025340D01*
X66461235Y-68018880D01*
X66419028Y-67954708D01*
X66381257Y-67893471D01*
X66378712Y-67889345D01*
X66378711Y-67889344D01*
X66378710Y-67889342D01*
X66374234Y-67883682D01*
X66374281Y-67883644D01*
X66369519Y-67877799D01*
X66369474Y-67877838D01*
X66364834Y-67872309D01*
X66364832Y-67872307D01*
X66364830Y-67872304D01*
X66323150Y-67832981D01*
X66308967Y-67819599D01*
X65990531Y-67501163D01*
X65990512Y-67501145D01*
X61094048Y-62604681D01*
X61060563Y-62543358D01*
X61065547Y-62473666D01*
X61107419Y-62417733D01*
X61172883Y-62393316D01*
X61181729Y-62393000D01*
X61363828Y-62393000D01*
X61363844Y-62392999D01*
X61423372Y-62386598D01*
X61423379Y-62386596D01*
X61558086Y-62336354D01*
X61558093Y-62336350D01*
X61673186Y-62250191D01*
X61746434Y-62152345D01*
X61802368Y-62110474D01*
X61872060Y-62105490D01*
X61933383Y-62138975D01*
X61944967Y-62152344D01*
X62014632Y-62245403D01*
X62018215Y-62250190D01*
X62033455Y-62270547D01*
X62148664Y-62356793D01*
X62148671Y-62356797D01*
X62283517Y-62407091D01*
X62283516Y-62407091D01*
X62290444Y-62407835D01*
X62343127Y-62413500D01*
X64238872Y-62413499D01*
X64298483Y-62407091D01*
X64433331Y-62356796D01*
X64548546Y-62270546D01*
X64634796Y-62155331D01*
X64685091Y-62020483D01*
X64691500Y-61960873D01*
X64691499Y-60515128D01*
X64685091Y-60455517D01*
X64680298Y-60442667D01*
X64634797Y-60320671D01*
X64634793Y-60320664D01*
X64548547Y-60205455D01*
X64548544Y-60205452D01*
X64433335Y-60119206D01*
X64433328Y-60119202D01*
X64298482Y-60068908D01*
X64298483Y-60068908D01*
X64238883Y-60062501D01*
X64238881Y-60062500D01*
X64238873Y-60062500D01*
X64238865Y-60062500D01*
X64165500Y-60062500D01*
X64098461Y-60042815D01*
X64052706Y-59990011D01*
X64041500Y-59938500D01*
X64041500Y-59032499D01*
X64061185Y-58965460D01*
X64113989Y-58919705D01*
X64165500Y-58908499D01*
X64238871Y-58908499D01*
X64238872Y-58908499D01*
X64298483Y-58902091D01*
X64433331Y-58851796D01*
X64548546Y-58765546D01*
X64634796Y-58650331D01*
X64685091Y-58515483D01*
X64691500Y-58455873D01*
X64691500Y-58070001D01*
X67874390Y-58070001D01*
X67894804Y-58355433D01*
X67955628Y-58635037D01*
X67955630Y-58635043D01*
X67955631Y-58635046D01*
X68046045Y-58877454D01*
X68055635Y-58903166D01*
X68192770Y-59154309D01*
X68192775Y-59154317D01*
X68364254Y-59383387D01*
X68364270Y-59383405D01*
X68566594Y-59585729D01*
X68566612Y-59585745D01*
X68795682Y-59757224D01*
X68795690Y-59757229D01*
X69046833Y-59894364D01*
X69046832Y-59894364D01*
X69046836Y-59894365D01*
X69046839Y-59894367D01*
X69314954Y-59994369D01*
X69314960Y-59994370D01*
X69314962Y-59994371D01*
X69594566Y-60055195D01*
X69594568Y-60055195D01*
X69594572Y-60055196D01*
X69842752Y-60072946D01*
X69879999Y-60075610D01*
X69880000Y-60075610D01*
X69880001Y-60075610D01*
X69917248Y-60072946D01*
X70165428Y-60055196D01*
X70183366Y-60051294D01*
X70445037Y-59994371D01*
X70445037Y-59994370D01*
X70445046Y-59994369D01*
X70713161Y-59894367D01*
X70964315Y-59757226D01*
X71193395Y-59585739D01*
X71395739Y-59383395D01*
X71567226Y-59154315D01*
X71704367Y-58903161D01*
X71804369Y-58635046D01*
X71830378Y-58515483D01*
X71865195Y-58355433D01*
X71865195Y-58355432D01*
X71865196Y-58355428D01*
X71885610Y-58070001D01*
X98294390Y-58070001D01*
X98314804Y-58355433D01*
X98375628Y-58635037D01*
X98375630Y-58635043D01*
X98375631Y-58635046D01*
X98466045Y-58877454D01*
X98475635Y-58903166D01*
X98612770Y-59154309D01*
X98612775Y-59154317D01*
X98784254Y-59383387D01*
X98784270Y-59383405D01*
X98986594Y-59585729D01*
X98986612Y-59585745D01*
X99215682Y-59757224D01*
X99215690Y-59757229D01*
X99466833Y-59894364D01*
X99466832Y-59894364D01*
X99466836Y-59894365D01*
X99466839Y-59894367D01*
X99734954Y-59994369D01*
X99734960Y-59994370D01*
X99734962Y-59994371D01*
X100014566Y-60055195D01*
X100014568Y-60055195D01*
X100014572Y-60055196D01*
X100262752Y-60072946D01*
X100299999Y-60075610D01*
X100300000Y-60075610D01*
X100300001Y-60075610D01*
X100337248Y-60072946D01*
X100585428Y-60055196D01*
X100603366Y-60051294D01*
X100865037Y-59994371D01*
X100865037Y-59994370D01*
X100865046Y-59994369D01*
X101133161Y-59894367D01*
X101384315Y-59757226D01*
X101613395Y-59585739D01*
X101815739Y-59383395D01*
X101987226Y-59154315D01*
X102124367Y-58903161D01*
X102224369Y-58635046D01*
X102250378Y-58515483D01*
X102285195Y-58355433D01*
X102285195Y-58355432D01*
X102285196Y-58355428D01*
X102305610Y-58070000D01*
X102300604Y-58000000D01*
X105995176Y-58000000D01*
X106014461Y-58392550D01*
X106072129Y-58781308D01*
X106167625Y-59162549D01*
X106300016Y-59532559D01*
X106300023Y-59532575D01*
X106468062Y-59887864D01*
X106670109Y-60224958D01*
X106904228Y-60540632D01*
X107000068Y-60646376D01*
X107000069Y-60646376D01*
X108597278Y-59049167D01*
X108627958Y-59094167D01*
X108806360Y-59286438D01*
X108951427Y-59402124D01*
X107353622Y-60999929D01*
X107353622Y-60999930D01*
X107459367Y-61095771D01*
X107775041Y-61329890D01*
X108112135Y-61531937D01*
X108467424Y-61699976D01*
X108467440Y-61699983D01*
X108837450Y-61832374D01*
X109218691Y-61927870D01*
X109607449Y-61985538D01*
X110000000Y-62004823D01*
X110392550Y-61985538D01*
X110781308Y-61927870D01*
X111162549Y-61832374D01*
X111532559Y-61699983D01*
X111532575Y-61699976D01*
X111887864Y-61531937D01*
X112224958Y-61329890D01*
X112540632Y-61095770D01*
X112646376Y-60999929D01*
X111048572Y-59402125D01*
X111193640Y-59286438D01*
X111372042Y-59094167D01*
X111402721Y-59049168D01*
X112999929Y-60646376D01*
X113095770Y-60540632D01*
X113329890Y-60224958D01*
X113531937Y-59887864D01*
X113699976Y-59532575D01*
X113699983Y-59532559D01*
X113832374Y-59162549D01*
X113927870Y-58781308D01*
X113985538Y-58392550D01*
X114004823Y-58000000D01*
X113985538Y-57607449D01*
X113927870Y-57218691D01*
X113832374Y-56837450D01*
X113699983Y-56467440D01*
X113699976Y-56467424D01*
X113531937Y-56112135D01*
X113329890Y-55775041D01*
X113095771Y-55459367D01*
X112999930Y-55353622D01*
X112999929Y-55353622D01*
X111402720Y-56950830D01*
X111372042Y-56905833D01*
X111193640Y-56713562D01*
X111048572Y-56597874D01*
X112646376Y-55000069D01*
X112646376Y-55000068D01*
X112540632Y-54904228D01*
X112224958Y-54670109D01*
X111887864Y-54468062D01*
X111532575Y-54300023D01*
X111532559Y-54300016D01*
X111162549Y-54167625D01*
X110781308Y-54072129D01*
X110392550Y-54014461D01*
X110000000Y-53995176D01*
X109607449Y-54014461D01*
X109218691Y-54072129D01*
X108837450Y-54167625D01*
X108467440Y-54300016D01*
X108467424Y-54300023D01*
X108112135Y-54468062D01*
X107775041Y-54670109D01*
X107459368Y-54904228D01*
X107353622Y-55000069D01*
X108951427Y-56597874D01*
X108806360Y-56713562D01*
X108627958Y-56905833D01*
X108597278Y-56950831D01*
X107000069Y-55353622D01*
X106904228Y-55459368D01*
X106670109Y-55775041D01*
X106468062Y-56112135D01*
X106300023Y-56467424D01*
X106300016Y-56467440D01*
X106167625Y-56837450D01*
X106072129Y-57218691D01*
X106014461Y-57607449D01*
X105995176Y-58000000D01*
X102300604Y-58000000D01*
X102285196Y-57784572D01*
X102265908Y-57695908D01*
X102224371Y-57504962D01*
X102224370Y-57504960D01*
X102224369Y-57504954D01*
X102124367Y-57236839D01*
X102114457Y-57218691D01*
X101987229Y-56985690D01*
X101987224Y-56985682D01*
X101815745Y-56756612D01*
X101815729Y-56756594D01*
X101613405Y-56554270D01*
X101613387Y-56554254D01*
X101384317Y-56382775D01*
X101384309Y-56382770D01*
X101133166Y-56245635D01*
X101133167Y-56245635D01*
X101025915Y-56205632D01*
X100865046Y-56145631D01*
X100865043Y-56145630D01*
X100865037Y-56145628D01*
X100585433Y-56084804D01*
X100300001Y-56064390D01*
X100299999Y-56064390D01*
X100014566Y-56084804D01*
X99734962Y-56145628D01*
X99466833Y-56245635D01*
X99215690Y-56382770D01*
X99215682Y-56382775D01*
X98986612Y-56554254D01*
X98986594Y-56554270D01*
X98784270Y-56756594D01*
X98784254Y-56756612D01*
X98612775Y-56985682D01*
X98612770Y-56985690D01*
X98475635Y-57236833D01*
X98375628Y-57504962D01*
X98314804Y-57784566D01*
X98294390Y-58069998D01*
X98294390Y-58070001D01*
X71885610Y-58070001D01*
X71885610Y-58070000D01*
X71865196Y-57784572D01*
X71845908Y-57695908D01*
X71804371Y-57504962D01*
X71804370Y-57504960D01*
X71804369Y-57504954D01*
X71704367Y-57236839D01*
X71694457Y-57218691D01*
X71567229Y-56985690D01*
X71567224Y-56985682D01*
X71395745Y-56756612D01*
X71395729Y-56756594D01*
X71193405Y-56554270D01*
X71193387Y-56554254D01*
X70964317Y-56382775D01*
X70964309Y-56382770D01*
X70713166Y-56245635D01*
X70713167Y-56245635D01*
X70605915Y-56205632D01*
X70445046Y-56145631D01*
X70445043Y-56145630D01*
X70445037Y-56145628D01*
X70165433Y-56084804D01*
X69880001Y-56064390D01*
X69879999Y-56064390D01*
X69594566Y-56084804D01*
X69314962Y-56145628D01*
X69046833Y-56245635D01*
X68795690Y-56382770D01*
X68795682Y-56382775D01*
X68566612Y-56554254D01*
X68566594Y-56554270D01*
X68364270Y-56756594D01*
X68364254Y-56756612D01*
X68192775Y-56985682D01*
X68192770Y-56985690D01*
X68055635Y-57236833D01*
X67955628Y-57504962D01*
X67894804Y-57784566D01*
X67874390Y-58069998D01*
X67874390Y-58070001D01*
X64691500Y-58070001D01*
X64691499Y-56860128D01*
X64685091Y-56800517D01*
X64634796Y-56665669D01*
X64634795Y-56665668D01*
X64634793Y-56665664D01*
X64548547Y-56550455D01*
X64548544Y-56550452D01*
X64433335Y-56464206D01*
X64433328Y-56464202D01*
X64298482Y-56413908D01*
X64298483Y-56413908D01*
X64238883Y-56407501D01*
X64238881Y-56407500D01*
X64238873Y-56407500D01*
X64238864Y-56407500D01*
X62343129Y-56407500D01*
X62343123Y-56407501D01*
X62283516Y-56413908D01*
X62148671Y-56464202D01*
X62148664Y-56464206D01*
X62033455Y-56550452D01*
X62033452Y-56550455D01*
X61947206Y-56665664D01*
X61947202Y-56665671D01*
X61896908Y-56800517D01*
X61895126Y-56808062D01*
X61892853Y-56807525D01*
X61870571Y-56861312D01*
X61813177Y-56901157D01*
X61774024Y-56907500D01*
X54557977Y-56907500D01*
X54490938Y-56887815D01*
X54445183Y-56835011D01*
X54437733Y-56807865D01*
X54436876Y-56808068D01*
X54435092Y-56800520D01*
X54384797Y-56665671D01*
X54384793Y-56665664D01*
X54298547Y-56550455D01*
X54298544Y-56550452D01*
X54183335Y-56464206D01*
X54183328Y-56464202D01*
X54048482Y-56413908D01*
X54048483Y-56413908D01*
X53988883Y-56407501D01*
X53988881Y-56407500D01*
X53988873Y-56407500D01*
X53988864Y-56407500D01*
X52093129Y-56407500D01*
X52093123Y-56407501D01*
X52033516Y-56413908D01*
X51898671Y-56464202D01*
X51898664Y-56464206D01*
X51783455Y-56550452D01*
X51783452Y-56550455D01*
X51697206Y-56665664D01*
X51697202Y-56665671D01*
X51646908Y-56800517D01*
X51643200Y-56835011D01*
X51640501Y-56860123D01*
X51640500Y-56860135D01*
X51640500Y-58455870D01*
X51640501Y-58455876D01*
X51646908Y-58515483D01*
X51697202Y-58650328D01*
X51697206Y-58650335D01*
X51783452Y-58765544D01*
X51783455Y-58765547D01*
X51898664Y-58851793D01*
X51898671Y-58851797D01*
X51943618Y-58868561D01*
X52033517Y-58902091D01*
X52093127Y-58908500D01*
X52166500Y-58908499D01*
X52233538Y-58928183D01*
X52279294Y-58980986D01*
X52290500Y-59032499D01*
X52290500Y-59938500D01*
X52270815Y-60005539D01*
X52218011Y-60051294D01*
X52166502Y-60062500D01*
X52093130Y-60062500D01*
X52093123Y-60062501D01*
X52033516Y-60068908D01*
X51898671Y-60119202D01*
X51898664Y-60119206D01*
X51783455Y-60205452D01*
X51783452Y-60205455D01*
X51697206Y-60320664D01*
X51697202Y-60320671D01*
X51646908Y-60455517D01*
X51640501Y-60515116D01*
X51640501Y-60515123D01*
X51640500Y-60515135D01*
X51640500Y-61960870D01*
X51640501Y-61960876D01*
X51646908Y-62020483D01*
X51697202Y-62155328D01*
X51697206Y-62155335D01*
X51783452Y-62270544D01*
X51783455Y-62270547D01*
X51898664Y-62356793D01*
X51898671Y-62356797D01*
X52033517Y-62407091D01*
X52033516Y-62407091D01*
X52040444Y-62407835D01*
X52093127Y-62413500D01*
X53988872Y-62413499D01*
X54048483Y-62407091D01*
X54183331Y-62356796D01*
X54298546Y-62270546D01*
X54384796Y-62155331D01*
X54384796Y-62155330D01*
X54387031Y-62152345D01*
X54442965Y-62110474D01*
X54512657Y-62105490D01*
X54573980Y-62138975D01*
X54585564Y-62152345D01*
X54658809Y-62250187D01*
X54658812Y-62250190D01*
X54773906Y-62336350D01*
X54773913Y-62336354D01*
X54908620Y-62386596D01*
X54908627Y-62386598D01*
X54968155Y-62392999D01*
X54968172Y-62393000D01*
X55166000Y-62393000D01*
X55166000Y-60193000D01*
X54968155Y-60193000D01*
X54908627Y-60199401D01*
X54908620Y-60199403D01*
X54773913Y-60249645D01*
X54773906Y-60249649D01*
X54658812Y-60335809D01*
X54658810Y-60335811D01*
X54615776Y-60393296D01*
X54559842Y-60435166D01*
X54490150Y-60440149D01*
X54428828Y-60406662D01*
X54400330Y-60362318D01*
X54384796Y-60320669D01*
X54384795Y-60320667D01*
X54384793Y-60320664D01*
X54298547Y-60205455D01*
X54298544Y-60205452D01*
X54183335Y-60119206D01*
X54183328Y-60119202D01*
X54048482Y-60068908D01*
X54048483Y-60068908D01*
X53988883Y-60062501D01*
X53988881Y-60062500D01*
X53988873Y-60062500D01*
X53988865Y-60062500D01*
X53915500Y-60062500D01*
X53848461Y-60042815D01*
X53802706Y-59990011D01*
X53791500Y-59938500D01*
X53791500Y-59032499D01*
X53811185Y-58965460D01*
X53863989Y-58919705D01*
X53915500Y-58908499D01*
X53988871Y-58908499D01*
X53988872Y-58908499D01*
X54048483Y-58902091D01*
X54183331Y-58851796D01*
X54298546Y-58765546D01*
X54384796Y-58650331D01*
X54435091Y-58515483D01*
X54435091Y-58515481D01*
X54436874Y-58507938D01*
X54439146Y-58508474D01*
X54461429Y-58454688D01*
X54518823Y-58414843D01*
X54557976Y-58408500D01*
X61774023Y-58408500D01*
X61841062Y-58428185D01*
X61886817Y-58480989D01*
X61894266Y-58508134D01*
X61895124Y-58507932D01*
X61896907Y-58515479D01*
X61947202Y-58650328D01*
X61947206Y-58650335D01*
X62033452Y-58765544D01*
X62033455Y-58765547D01*
X62148664Y-58851793D01*
X62148671Y-58851797D01*
X62193618Y-58868561D01*
X62283517Y-58902091D01*
X62343127Y-58908500D01*
X62416500Y-58908499D01*
X62483538Y-58928183D01*
X62529294Y-58980986D01*
X62540500Y-59032499D01*
X62540500Y-59938500D01*
X62520815Y-60005539D01*
X62468011Y-60051294D01*
X62416502Y-60062500D01*
X62343130Y-60062500D01*
X62343123Y-60062501D01*
X62283516Y-60068908D01*
X62148671Y-60119202D01*
X62148664Y-60119206D01*
X62033455Y-60205452D01*
X62033452Y-60205455D01*
X61947206Y-60320664D01*
X61947203Y-60320669D01*
X61931670Y-60362317D01*
X61889798Y-60418250D01*
X61824334Y-60442667D01*
X61756061Y-60427815D01*
X61716222Y-60393295D01*
X61673187Y-60335809D01*
X61558093Y-60249649D01*
X61558086Y-60249645D01*
X61423379Y-60199403D01*
X61423372Y-60199401D01*
X61363844Y-60193000D01*
X61166000Y-60193000D01*
X61166000Y-61419000D01*
X61146315Y-61486039D01*
X61093511Y-61531794D01*
X61042000Y-61543000D01*
X60790000Y-61543000D01*
X60722961Y-61523315D01*
X60677206Y-61470511D01*
X60666000Y-61419000D01*
X60666000Y-60193000D01*
X60560500Y-60193000D01*
X60493461Y-60173315D01*
X60447706Y-60120511D01*
X60436500Y-60069000D01*
X60436500Y-60035705D01*
X60437809Y-60017735D01*
X60441231Y-59994371D01*
X60441289Y-59993977D01*
X60436735Y-59941931D01*
X60436500Y-59936528D01*
X60436500Y-59928297D01*
X60436500Y-59928291D01*
X60432693Y-59895724D01*
X60425999Y-59819203D01*
X60425999Y-59819201D01*
X60424539Y-59812129D01*
X60424597Y-59812116D01*
X60422965Y-59804757D01*
X60422906Y-59804772D01*
X60421242Y-59797753D01*
X60421241Y-59797745D01*
X60394974Y-59725576D01*
X60370814Y-59652666D01*
X60370809Y-59652659D01*
X60367760Y-59646118D01*
X60367815Y-59646091D01*
X60364533Y-59639313D01*
X60364480Y-59639340D01*
X60361235Y-59632880D01*
X60319028Y-59568708D01*
X60278710Y-59503342D01*
X60274234Y-59497682D01*
X60274281Y-59497644D01*
X60269519Y-59491799D01*
X60269474Y-59491838D01*
X60264834Y-59486309D01*
X60264832Y-59486307D01*
X60264830Y-59486304D01*
X60234062Y-59457276D01*
X60208967Y-59433599D01*
X59971731Y-59196364D01*
X59959948Y-59182729D01*
X59945611Y-59163471D01*
X59945609Y-59163469D01*
X59934702Y-59154317D01*
X59905585Y-59129885D01*
X59901612Y-59126244D01*
X59898690Y-59123322D01*
X59895780Y-59120411D01*
X59870040Y-59100059D01*
X59811209Y-59050694D01*
X59805180Y-59046729D01*
X59805212Y-59046680D01*
X59798853Y-59042628D01*
X59798822Y-59042679D01*
X59792680Y-59038891D01*
X59792678Y-59038890D01*
X59792677Y-59038889D01*
X59753474Y-59020608D01*
X59723058Y-59006424D01*
X59672405Y-58980986D01*
X59654433Y-58971960D01*
X59654431Y-58971959D01*
X59654430Y-58971959D01*
X59647645Y-58969489D01*
X59647665Y-58969433D01*
X59640549Y-58966959D01*
X59640531Y-58967015D01*
X59633671Y-58964742D01*
X59605841Y-58958996D01*
X59558434Y-58949207D01*
X59509472Y-58937603D01*
X59483719Y-58931499D01*
X59476547Y-58930661D01*
X59476553Y-58930601D01*
X59469055Y-58929835D01*
X59469050Y-58929895D01*
X59461860Y-58929265D01*
X59385083Y-58931500D01*
X57173705Y-58931500D01*
X57155735Y-58930191D01*
X57131972Y-58926710D01*
X57086890Y-58930655D01*
X57079933Y-58931264D01*
X57074532Y-58931500D01*
X57066287Y-58931500D01*
X57040222Y-58934546D01*
X57033705Y-58935308D01*
X57028403Y-58935771D01*
X56957201Y-58942001D01*
X56950134Y-58943461D01*
X56950122Y-58943404D01*
X56942753Y-58945038D01*
X56942767Y-58945095D01*
X56935739Y-58946760D01*
X56886335Y-58964742D01*
X56863563Y-58973030D01*
X56790666Y-58997186D01*
X56790664Y-58997186D01*
X56790661Y-58997188D01*
X56784122Y-59000237D01*
X56784097Y-59000185D01*
X56777308Y-59003471D01*
X56777334Y-59003522D01*
X56770884Y-59006761D01*
X56706716Y-59048964D01*
X56641347Y-59089285D01*
X56635677Y-59093769D01*
X56635641Y-59093723D01*
X56629798Y-59098484D01*
X56629835Y-59098528D01*
X56624310Y-59103164D01*
X56571614Y-59159017D01*
X56160358Y-59570272D01*
X56146729Y-59582051D01*
X56127468Y-59596390D01*
X56093898Y-59636397D01*
X56090253Y-59640376D01*
X56084409Y-59646222D01*
X56064059Y-59671959D01*
X56014695Y-59730789D01*
X56010729Y-59736819D01*
X56010682Y-59736788D01*
X56006630Y-59743147D01*
X56006679Y-59743177D01*
X56002889Y-59749321D01*
X55970424Y-59818941D01*
X55935960Y-59887566D01*
X55933488Y-59894357D01*
X55933432Y-59894336D01*
X55930960Y-59901450D01*
X55931015Y-59901469D01*
X55928742Y-59908327D01*
X55922361Y-59939235D01*
X55913207Y-59983565D01*
X55905109Y-60017735D01*
X55895498Y-60058286D01*
X55894661Y-60065454D01*
X55894601Y-60065447D01*
X55893835Y-60072946D01*
X55893895Y-60072952D01*
X55893295Y-60079809D01*
X55893078Y-60080363D01*
X55892939Y-60081726D01*
X55891806Y-60087214D01*
X55890503Y-60086945D01*
X55867842Y-60144877D01*
X55811250Y-60185855D01*
X55769767Y-60193000D01*
X55666000Y-60193000D01*
X55666000Y-62393000D01*
X55727500Y-62393000D01*
X55794539Y-62412685D01*
X55840294Y-62465489D01*
X55851500Y-62517000D01*
X55851500Y-63891770D01*
X55831815Y-63958809D01*
X55815181Y-63979451D01*
X53271451Y-66523181D01*
X53210128Y-66556666D01*
X53183770Y-66559500D01*
X51670229Y-66559500D01*
X51603190Y-66539815D01*
X51582548Y-66523181D01*
X50316819Y-65257451D01*
X50283334Y-65196128D01*
X50280500Y-65169770D01*
X50280500Y-60814499D01*
X50300185Y-60747460D01*
X50352989Y-60701705D01*
X50404500Y-60690499D01*
X50577871Y-60690499D01*
X50577872Y-60690499D01*
X50637483Y-60684091D01*
X50772331Y-60633796D01*
X50887546Y-60547546D01*
X50973796Y-60432331D01*
X51024091Y-60297483D01*
X51030500Y-60237873D01*
X51030499Y-58142128D01*
X51024091Y-58082517D01*
X51019422Y-58070000D01*
X50973797Y-57947671D01*
X50973793Y-57947664D01*
X50887547Y-57832455D01*
X50887544Y-57832452D01*
X50772335Y-57746206D01*
X50772328Y-57746202D01*
X50637482Y-57695908D01*
X50637483Y-57695908D01*
X50577883Y-57689501D01*
X50577881Y-57689500D01*
X50577873Y-57689500D01*
X50577864Y-57689500D01*
X48482129Y-57689500D01*
X48482123Y-57689501D01*
X48422516Y-57695908D01*
X48287671Y-57746202D01*
X48287664Y-57746206D01*
X48172455Y-57832452D01*
X48172452Y-57832455D01*
X48086206Y-57947664D01*
X48086202Y-57947671D01*
X48035908Y-58082517D01*
X48030681Y-58131144D01*
X48029501Y-58142123D01*
X48029500Y-58142135D01*
X48029500Y-60237870D01*
X48029501Y-60237876D01*
X48035908Y-60297483D01*
X48086202Y-60432328D01*
X48086206Y-60432335D01*
X48172452Y-60547544D01*
X48172455Y-60547547D01*
X48287664Y-60633793D01*
X48287671Y-60633797D01*
X48321398Y-60646376D01*
X48422517Y-60684091D01*
X48482127Y-60690500D01*
X48655500Y-60690499D01*
X48722539Y-60710183D01*
X48768294Y-60762987D01*
X48779500Y-60814499D01*
X48779500Y-65468294D01*
X48778191Y-65486263D01*
X48774710Y-65510025D01*
X48779264Y-65562064D01*
X48779500Y-65567470D01*
X48779500Y-65575709D01*
X48783306Y-65608274D01*
X48790000Y-65684791D01*
X48791461Y-65691867D01*
X48791403Y-65691878D01*
X48793034Y-65699237D01*
X48793092Y-65699224D01*
X48794757Y-65706250D01*
X48821025Y-65778424D01*
X48845185Y-65851331D01*
X48848236Y-65857874D01*
X48848182Y-65857898D01*
X48851470Y-65864688D01*
X48851521Y-65864663D01*
X48854761Y-65871113D01*
X48854762Y-65871114D01*
X48854763Y-65871117D01*
X48896965Y-65935283D01*
X48937287Y-66000655D01*
X48941766Y-66006319D01*
X48941719Y-66006356D01*
X48946482Y-66012202D01*
X48946528Y-66012164D01*
X48951173Y-66017700D01*
X49007017Y-66070385D01*
X50732270Y-67795638D01*
X50744051Y-67809270D01*
X50758388Y-67828528D01*
X50758389Y-67828529D01*
X50758390Y-67828530D01*
X50767472Y-67836150D01*
X50798409Y-67862111D01*
X50802397Y-67865766D01*
X50808216Y-67871585D01*
X50808220Y-67871588D01*
X50808223Y-67871591D01*
X50833959Y-67891940D01*
X50892786Y-67941302D01*
X50892787Y-67941302D01*
X50892789Y-67941304D01*
X50898818Y-67945270D01*
X50898785Y-67945319D01*
X50905147Y-67949372D01*
X50905179Y-67949321D01*
X50911319Y-67953108D01*
X50911323Y-67953111D01*
X50946132Y-67969343D01*
X50980941Y-67985575D01*
X50999336Y-67994813D01*
X51049567Y-68020040D01*
X51049569Y-68020040D01*
X51056357Y-68022511D01*
X51056336Y-68022567D01*
X51063455Y-68025042D01*
X51063474Y-68024986D01*
X51070329Y-68027258D01*
X51145562Y-68042791D01*
X51220279Y-68060500D01*
X51220289Y-68060500D01*
X51227452Y-68061338D01*
X51227444Y-68061397D01*
X51234945Y-68062164D01*
X51234951Y-68062105D01*
X51242140Y-68062734D01*
X51242144Y-68062733D01*
X51242145Y-68062734D01*
X51318918Y-68060500D01*
X53482295Y-68060500D01*
X53500265Y-68061809D01*
X53524023Y-68065289D01*
X53576068Y-68060735D01*
X53581470Y-68060500D01*
X53589704Y-68060500D01*
X53589709Y-68060500D01*
X53601327Y-68059141D01*
X53622276Y-68056693D01*
X53635028Y-68055577D01*
X53698797Y-68049999D01*
X53698805Y-68049996D01*
X53705866Y-68048539D01*
X53705878Y-68048598D01*
X53713243Y-68046965D01*
X53713229Y-68046906D01*
X53720246Y-68045241D01*
X53720255Y-68045241D01*
X53792423Y-68018974D01*
X53865334Y-67994814D01*
X53865343Y-67994807D01*
X53871882Y-67991760D01*
X53871908Y-67991816D01*
X53878690Y-67988532D01*
X53878663Y-67988478D01*
X53885106Y-67985240D01*
X53885117Y-67985237D01*
X53949283Y-67943034D01*
X54014656Y-67902712D01*
X54014662Y-67902705D01*
X54020325Y-67898229D01*
X54020362Y-67898277D01*
X54026204Y-67893518D01*
X54026164Y-67893471D01*
X54031691Y-67888832D01*
X54031696Y-67888830D01*
X54038581Y-67881533D01*
X54084386Y-67832981D01*
X54766581Y-67150786D01*
X57087638Y-64829727D01*
X57101267Y-64817950D01*
X57120530Y-64803610D01*
X57120532Y-64803606D01*
X57120534Y-64803606D01*
X57145114Y-64774311D01*
X57154113Y-64763585D01*
X57157767Y-64759599D01*
X57163591Y-64753776D01*
X57183930Y-64728052D01*
X57233302Y-64669214D01*
X57233306Y-64669205D01*
X57237274Y-64663175D01*
X57237325Y-64663208D01*
X57241369Y-64656860D01*
X57241317Y-64656828D01*
X57245104Y-64650685D01*
X57245111Y-64650677D01*
X57277572Y-64581063D01*
X57312040Y-64512433D01*
X57312041Y-64512427D01*
X57314508Y-64505650D01*
X57314566Y-64505671D01*
X57317043Y-64498544D01*
X57316986Y-64498526D01*
X57319255Y-64491679D01*
X57319256Y-64491674D01*
X57319257Y-64491672D01*
X57334790Y-64416441D01*
X57352500Y-64341721D01*
X57352500Y-64341719D01*
X57353339Y-64334548D01*
X57353398Y-64334554D01*
X57354164Y-64327054D01*
X57354105Y-64327049D01*
X57354734Y-64319859D01*
X57352500Y-64243082D01*
X57352500Y-62517499D01*
X57372185Y-62450460D01*
X57424989Y-62404705D01*
X57476500Y-62393499D01*
X58063871Y-62393499D01*
X58063872Y-62393499D01*
X58123483Y-62387091D01*
X58123485Y-62387090D01*
X58123487Y-62387090D01*
X58131031Y-62385308D01*
X58131377Y-62386775D01*
X58192342Y-62382408D01*
X58207378Y-62386822D01*
X58208511Y-62387089D01*
X58208517Y-62387091D01*
X58268127Y-62393500D01*
X58849826Y-62393499D01*
X58916865Y-62413183D01*
X58962620Y-62465987D01*
X58966348Y-62475089D01*
X58977025Y-62504423D01*
X59001185Y-62577331D01*
X59004236Y-62583874D01*
X59004182Y-62583898D01*
X59007470Y-62590688D01*
X59007521Y-62590663D01*
X59010761Y-62597113D01*
X59010762Y-62597114D01*
X59010763Y-62597117D01*
X59024200Y-62617547D01*
X59052965Y-62661283D01*
X59093287Y-62726655D01*
X59097766Y-62732319D01*
X59097719Y-62732356D01*
X59102482Y-62738202D01*
X59102528Y-62738164D01*
X59107173Y-62743700D01*
X59163017Y-62796385D01*
X64999181Y-68632549D01*
X65032666Y-68693872D01*
X65035500Y-68720230D01*
X65035500Y-89291547D01*
X65015815Y-89358586D01*
X64963011Y-89404341D01*
X64893853Y-89414285D01*
X64830297Y-89385260D01*
X64823819Y-89379228D01*
X60020237Y-84575646D01*
X59986752Y-84514323D01*
X59988142Y-84455876D01*
X60015063Y-84355408D01*
X60035659Y-84120000D01*
X60015063Y-83884592D01*
X59953903Y-83656337D01*
X59854035Y-83442171D01*
X59718495Y-83248599D01*
X59596179Y-83126283D01*
X59562696Y-83064963D01*
X59567680Y-82995271D01*
X59609551Y-82939337D01*
X59640529Y-82922422D01*
X59772086Y-82873354D01*
X59772093Y-82873350D01*
X59887187Y-82787190D01*
X59887190Y-82787187D01*
X59973350Y-82672093D01*
X59973354Y-82672086D01*
X60023596Y-82537379D01*
X60023598Y-82537372D01*
X60029999Y-82477844D01*
X60030000Y-82477827D01*
X60030000Y-81830000D01*
X59113686Y-81830000D01*
X59139493Y-81789844D01*
X59180000Y-81651889D01*
X59180000Y-81508111D01*
X59139493Y-81370156D01*
X59113686Y-81330000D01*
X60030000Y-81330000D01*
X60030000Y-80682172D01*
X60029999Y-80682155D01*
X60023598Y-80622627D01*
X60023596Y-80622620D01*
X59973354Y-80487913D01*
X59973350Y-80487906D01*
X59887190Y-80372812D01*
X59887187Y-80372809D01*
X59772093Y-80286649D01*
X59772086Y-80286645D01*
X59637379Y-80236403D01*
X59637372Y-80236401D01*
X59577844Y-80230000D01*
X58930000Y-80230000D01*
X58930000Y-81144498D01*
X58822315Y-81095320D01*
X58715763Y-81080000D01*
X58644237Y-81080000D01*
X58537685Y-81095320D01*
X58430000Y-81144498D01*
X58430000Y-80230000D01*
X57782155Y-80230000D01*
X57722627Y-80236401D01*
X57722620Y-80236403D01*
X57587913Y-80286645D01*
X57587906Y-80286649D01*
X57472812Y-80372809D01*
X57472809Y-80372812D01*
X57386649Y-80487906D01*
X57386645Y-80487913D01*
X57336403Y-80622620D01*
X57336401Y-80622627D01*
X57330000Y-80682155D01*
X57330000Y-81330000D01*
X58246314Y-81330000D01*
X58220507Y-81370156D01*
X58180000Y-81508111D01*
X58180000Y-81651889D01*
X58220507Y-81789844D01*
X58246314Y-81830000D01*
X57330000Y-81830000D01*
X57330000Y-82477844D01*
X57336401Y-82537372D01*
X57336403Y-82537379D01*
X57386645Y-82672086D01*
X57386649Y-82672093D01*
X57472809Y-82787187D01*
X57472812Y-82787190D01*
X57587906Y-82873350D01*
X57587913Y-82873354D01*
X57719470Y-82922421D01*
X57775403Y-82964292D01*
X57799821Y-83029756D01*
X57784970Y-83098029D01*
X57763819Y-83126284D01*
X57641503Y-83248600D01*
X57505965Y-83442169D01*
X57505964Y-83442171D01*
X57406098Y-83656335D01*
X57406094Y-83656344D01*
X57344938Y-83884586D01*
X57344936Y-83884596D01*
X57324341Y-84119999D01*
X57324341Y-84120000D01*
X57344936Y-84355403D01*
X57344938Y-84355413D01*
X57406094Y-84583655D01*
X57406096Y-84583659D01*
X57406097Y-84583663D01*
X57421176Y-84616000D01*
X57505965Y-84797830D01*
X57505967Y-84797834D01*
X57641501Y-84991395D01*
X57641506Y-84991402D01*
X57808597Y-85158493D01*
X57808603Y-85158498D01*
X57994158Y-85288425D01*
X58037783Y-85343002D01*
X58044977Y-85412500D01*
X58013454Y-85474855D01*
X57994158Y-85491575D01*
X57808597Y-85621505D01*
X57641505Y-85788597D01*
X57505965Y-85982169D01*
X57505964Y-85982171D01*
X57406098Y-86196335D01*
X57406094Y-86196344D01*
X57344938Y-86424586D01*
X57344936Y-86424596D01*
X57324341Y-86659999D01*
X57324341Y-86660000D01*
X57344936Y-86895403D01*
X57344938Y-86895413D01*
X57406094Y-87123655D01*
X57406096Y-87123659D01*
X57406097Y-87123663D01*
X57477532Y-87276855D01*
X57505965Y-87337830D01*
X57505967Y-87337834D01*
X57641501Y-87531395D01*
X57641506Y-87531402D01*
X57808597Y-87698493D01*
X57808603Y-87698498D01*
X57994158Y-87828425D01*
X58037783Y-87883002D01*
X58044977Y-87952500D01*
X58013454Y-88014855D01*
X57994158Y-88031575D01*
X57808597Y-88161505D01*
X57641505Y-88328597D01*
X57505965Y-88522169D01*
X57505964Y-88522171D01*
X57406098Y-88736335D01*
X57406094Y-88736344D01*
X57344938Y-88964586D01*
X57344936Y-88964596D01*
X57324341Y-89199999D01*
X57324341Y-89200000D01*
X57344936Y-89435403D01*
X57344938Y-89435413D01*
X57406094Y-89663655D01*
X57406096Y-89663659D01*
X57406097Y-89663663D01*
X57454419Y-89767289D01*
X57505965Y-89877830D01*
X57505967Y-89877834D01*
X57641501Y-90071395D01*
X57641506Y-90071402D01*
X57808597Y-90238493D01*
X57808603Y-90238498D01*
X57994158Y-90368425D01*
X58037783Y-90423002D01*
X58044977Y-90492500D01*
X58013454Y-90554855D01*
X57994158Y-90571575D01*
X57808597Y-90701505D01*
X57641505Y-90868597D01*
X57505965Y-91062169D01*
X57505964Y-91062171D01*
X57406098Y-91276335D01*
X57406094Y-91276344D01*
X57344938Y-91504586D01*
X57344936Y-91504596D01*
X57324341Y-91739999D01*
X57324341Y-91740000D01*
X57344936Y-91975403D01*
X57344938Y-91975413D01*
X57406094Y-92203655D01*
X57406096Y-92203659D01*
X57406097Y-92203663D01*
X57448221Y-92293998D01*
X57505965Y-92417830D01*
X57505967Y-92417834D01*
X57510845Y-92424800D01*
X57641501Y-92611396D01*
X57641506Y-92611402D01*
X57763430Y-92733326D01*
X57796915Y-92794649D01*
X57791931Y-92864341D01*
X57750059Y-92920274D01*
X57719083Y-92937189D01*
X57587669Y-92986203D01*
X57587664Y-92986206D01*
X57472455Y-93072452D01*
X57472452Y-93072455D01*
X57386206Y-93187664D01*
X57386202Y-93187671D01*
X57335908Y-93322517D01*
X57329800Y-93379334D01*
X57329501Y-93382123D01*
X57329500Y-93382135D01*
X57329500Y-94108770D01*
X57309815Y-94175809D01*
X57257011Y-94221564D01*
X57187853Y-94231508D01*
X57124297Y-94202483D01*
X57117819Y-94196451D01*
X45236819Y-82315451D01*
X45203334Y-82254128D01*
X45200500Y-82227770D01*
X45200500Y-62884499D01*
X45220185Y-62817460D01*
X45272989Y-62771705D01*
X45324500Y-62760499D01*
X45797871Y-62760499D01*
X45797872Y-62760499D01*
X45857483Y-62754091D01*
X45992331Y-62703796D01*
X46107546Y-62617546D01*
X46193796Y-62502331D01*
X46244091Y-62367483D01*
X46250500Y-62307873D01*
X46250499Y-59612128D01*
X46244091Y-59552517D01*
X46236647Y-59532559D01*
X46193797Y-59417671D01*
X46193793Y-59417664D01*
X46107547Y-59302455D01*
X46107544Y-59302452D01*
X45992335Y-59216206D01*
X45992328Y-59216202D01*
X45857482Y-59165908D01*
X45857483Y-59165908D01*
X45797883Y-59159501D01*
X45797881Y-59159500D01*
X45797873Y-59159500D01*
X45797864Y-59159500D01*
X43102129Y-59159500D01*
X43102123Y-59159501D01*
X43042516Y-59165908D01*
X42907671Y-59216202D01*
X42907664Y-59216206D01*
X42792455Y-59302452D01*
X42792452Y-59302455D01*
X42706206Y-59417664D01*
X42706202Y-59417671D01*
X42655908Y-59552517D01*
X42652338Y-59585729D01*
X42649501Y-59612123D01*
X42649500Y-59612135D01*
X42649500Y-61647769D01*
X42629815Y-61714808D01*
X42613181Y-61735450D01*
X37825451Y-66523181D01*
X37764128Y-66556666D01*
X37737770Y-66559500D01*
X34644499Y-66559500D01*
X34577460Y-66539815D01*
X34531705Y-66487011D01*
X34520499Y-66435500D01*
X34520499Y-66262129D01*
X34520498Y-66262123D01*
X34520497Y-66262116D01*
X34514091Y-66202517D01*
X34490607Y-66139554D01*
X34463797Y-66067671D01*
X34463793Y-66067664D01*
X34377547Y-65952455D01*
X34377544Y-65952452D01*
X34262335Y-65866206D01*
X34262328Y-65866202D01*
X34127482Y-65815908D01*
X34127483Y-65815908D01*
X34067883Y-65809501D01*
X34067881Y-65809500D01*
X34067873Y-65809500D01*
X34067864Y-65809500D01*
X31972129Y-65809500D01*
X31972123Y-65809501D01*
X31912516Y-65815908D01*
X31777671Y-65866202D01*
X31777664Y-65866206D01*
X31662455Y-65952452D01*
X31662452Y-65952455D01*
X31576206Y-66067664D01*
X31576202Y-66067671D01*
X31525908Y-66202517D01*
X31519501Y-66262116D01*
X31519501Y-66262123D01*
X31519500Y-66262135D01*
X31519500Y-68357870D01*
X25000500Y-68357870D01*
X25000500Y-58000000D01*
X25995176Y-58000000D01*
X26014461Y-58392550D01*
X26072129Y-58781308D01*
X26167625Y-59162549D01*
X26300016Y-59532559D01*
X26300023Y-59532575D01*
X26468062Y-59887864D01*
X26670109Y-60224958D01*
X26904228Y-60540632D01*
X27000068Y-60646376D01*
X27000069Y-60646376D01*
X28597278Y-59049167D01*
X28627958Y-59094167D01*
X28806360Y-59286438D01*
X28951427Y-59402124D01*
X27353622Y-60999929D01*
X27353622Y-60999930D01*
X27459367Y-61095771D01*
X27775041Y-61329890D01*
X28112135Y-61531937D01*
X28467424Y-61699976D01*
X28467440Y-61699983D01*
X28837450Y-61832374D01*
X29218691Y-61927870D01*
X29607449Y-61985538D01*
X30000000Y-62004823D01*
X30392550Y-61985538D01*
X30781308Y-61927870D01*
X31162549Y-61832374D01*
X31532559Y-61699983D01*
X31532575Y-61699976D01*
X31887864Y-61531937D01*
X32224958Y-61329890D01*
X32540632Y-61095770D01*
X32646376Y-60999929D01*
X32606451Y-60960004D01*
X37644953Y-60960004D01*
X37665113Y-61229026D01*
X37665113Y-61229028D01*
X37725142Y-61492033D01*
X37725148Y-61492052D01*
X37823709Y-61743181D01*
X37823708Y-61743181D01*
X37958602Y-61976822D01*
X38012294Y-62044151D01*
X38012295Y-62044151D01*
X38847452Y-61208993D01*
X38857188Y-61238956D01*
X38945186Y-61377619D01*
X39064903Y-61490040D01*
X39199510Y-61564041D01*
X38364848Y-62398702D01*
X38547483Y-62523220D01*
X38547485Y-62523221D01*
X38790539Y-62640269D01*
X38790537Y-62640269D01*
X39048337Y-62719790D01*
X39048343Y-62719792D01*
X39315101Y-62759999D01*
X39315110Y-62760000D01*
X39584890Y-62760000D01*
X39584898Y-62759999D01*
X39851656Y-62719792D01*
X39851662Y-62719790D01*
X40109461Y-62640269D01*
X40352521Y-62523218D01*
X40535150Y-62398702D01*
X39697534Y-61561086D01*
X39765629Y-61534126D01*
X39898492Y-61437595D01*
X40003175Y-61311055D01*
X40051631Y-61208079D01*
X40887703Y-62044151D01*
X40887704Y-62044150D01*
X40941393Y-61976828D01*
X40941400Y-61976817D01*
X41076290Y-61743181D01*
X41174851Y-61492052D01*
X41174857Y-61492033D01*
X41234886Y-61229028D01*
X41234886Y-61229026D01*
X41255047Y-60960004D01*
X41255047Y-60959995D01*
X41234886Y-60690973D01*
X41234886Y-60690971D01*
X41174857Y-60427966D01*
X41174851Y-60427947D01*
X41076290Y-60176818D01*
X41076291Y-60176818D01*
X40941397Y-59943177D01*
X40887704Y-59875847D01*
X40052546Y-60711004D01*
X40042812Y-60681044D01*
X39954814Y-60542381D01*
X39835097Y-60429960D01*
X39700489Y-60355958D01*
X40535150Y-59521296D01*
X40352517Y-59396779D01*
X40352516Y-59396778D01*
X40109460Y-59279730D01*
X40109462Y-59279730D01*
X39851662Y-59200209D01*
X39851656Y-59200207D01*
X39584898Y-59160000D01*
X39315101Y-59160000D01*
X39048343Y-59200207D01*
X39048337Y-59200209D01*
X38790538Y-59279730D01*
X38547485Y-59396778D01*
X38547476Y-59396783D01*
X38364848Y-59521296D01*
X39202465Y-60358913D01*
X39134371Y-60385874D01*
X39001508Y-60482405D01*
X38896825Y-60608945D01*
X38848368Y-60711921D01*
X38012295Y-59875848D01*
X37958600Y-59943180D01*
X37823709Y-60176818D01*
X37725148Y-60427947D01*
X37725142Y-60427966D01*
X37665113Y-60690971D01*
X37665113Y-60690973D01*
X37644953Y-60959995D01*
X37644953Y-60960004D01*
X32606451Y-60960004D01*
X31048572Y-59402125D01*
X31193640Y-59286438D01*
X31372042Y-59094167D01*
X31402721Y-59049168D01*
X32999929Y-60646376D01*
X33095770Y-60540632D01*
X33329890Y-60224958D01*
X33531937Y-59887864D01*
X33699976Y-59532575D01*
X33699983Y-59532559D01*
X33832374Y-59162549D01*
X33927870Y-58781308D01*
X33985538Y-58392550D01*
X34004823Y-58000000D01*
X33985538Y-57607449D01*
X33927870Y-57218691D01*
X33832374Y-56837450D01*
X33699983Y-56467440D01*
X33699976Y-56467424D01*
X33531937Y-56112135D01*
X33329890Y-55775041D01*
X33095771Y-55459367D01*
X32999930Y-55353622D01*
X32999929Y-55353622D01*
X31402720Y-56950830D01*
X31372042Y-56905833D01*
X31193640Y-56713562D01*
X31048572Y-56597874D01*
X32646376Y-55000069D01*
X32646376Y-55000068D01*
X32540632Y-54904228D01*
X32224958Y-54670109D01*
X31887864Y-54468062D01*
X31532575Y-54300023D01*
X31532559Y-54300016D01*
X31162549Y-54167625D01*
X30781308Y-54072129D01*
X30392550Y-54014461D01*
X30000000Y-53995176D01*
X29607449Y-54014461D01*
X29218691Y-54072129D01*
X28837450Y-54167625D01*
X28467440Y-54300016D01*
X28467424Y-54300023D01*
X28112135Y-54468062D01*
X27775041Y-54670109D01*
X27459368Y-54904228D01*
X27353622Y-55000069D01*
X28951427Y-56597874D01*
X28806360Y-56713562D01*
X28627958Y-56905833D01*
X28597278Y-56950831D01*
X27000069Y-55353622D01*
X26904228Y-55459368D01*
X26670109Y-55775041D01*
X26468062Y-56112135D01*
X26300023Y-56467424D01*
X26300016Y-56467440D01*
X26167625Y-56837450D01*
X26072129Y-57218691D01*
X26014461Y-57607449D01*
X25995176Y-58000000D01*
X25000500Y-58000000D01*
X25000500Y-53764500D01*
X25020185Y-53697461D01*
X25072989Y-53651706D01*
X25124500Y-53640500D01*
X114765500Y-53640500D01*
X114832539Y-53660185D01*
G37*
G04 #@! TD.AperFunction*
M02*
