G04 #@! TF.GenerationSoftware,KiCad,Pcbnew,7.0.9-7.0.9~ubuntu22.04.1*
G04 #@! TF.CreationDate,2023-12-07T11:19:29+01:00*
G04 #@! TF.ProjectId,baseboard,62617365-626f-4617-9264-2e6b69636164,rev?*
G04 #@! TF.SameCoordinates,Original*
G04 #@! TF.FileFunction,Soldermask,Top*
G04 #@! TF.FilePolarity,Negative*
%FSLAX46Y46*%
G04 Gerber Fmt 4.6, Leading zero omitted, Abs format (unit mm)*
G04 Created by KiCad (PCBNEW 7.0.9-7.0.9~ubuntu22.04.1) date 2023-12-07 11:19:29*
%MOMM*%
%LPD*%
G01*
G04 APERTURE LIST*
G04 Aperture macros list*
%AMRoundRect*
0 Rectangle with rounded corners*
0 $1 Rounding radius*
0 $2 $3 $4 $5 $6 $7 $8 $9 X,Y pos of 4 corners*
0 Add a 4 corners polygon primitive as box body*
4,1,4,$2,$3,$4,$5,$6,$7,$8,$9,$2,$3,0*
0 Add four circle primitives for the rounded corners*
1,1,$1+$1,$2,$3*
1,1,$1+$1,$4,$5*
1,1,$1+$1,$6,$7*
1,1,$1+$1,$8,$9*
0 Add four rect primitives between the rounded corners*
20,1,$1+$1,$2,$3,$4,$5,0*
20,1,$1+$1,$4,$5,$6,$7,0*
20,1,$1+$1,$6,$7,$8,$9,0*
20,1,$1+$1,$8,$9,$2,$3,0*%
G04 Aperture macros list end*
%ADD10C,7.000000*%
%ADD11RoundRect,0.150000X0.587500X0.150000X-0.587500X0.150000X-0.587500X-0.150000X0.587500X-0.150000X0*%
%ADD12C,2.500000*%
%ADD13R,1.700000X1.700000*%
%ADD14O,1.700000X1.700000*%
%ADD15C,1.700000*%
%ADD16R,2.600000X2.600000*%
%ADD17C,2.600000*%
%ADD18RoundRect,0.250000X-0.350000X-0.450000X0.350000X-0.450000X0.350000X0.450000X-0.350000X0.450000X0*%
%ADD19R,2.000000X2.000000*%
%ADD20RoundRect,0.250000X-0.450000X0.350000X-0.450000X-0.350000X0.450000X-0.350000X0.450000X0.350000X0*%
%ADD21RoundRect,0.250000X0.450000X-0.350000X0.450000X0.350000X-0.450000X0.350000X-0.450000X-0.350000X0*%
%ADD22R,0.700000X1.200000*%
%ADD23R,0.760000X1.200000*%
%ADD24R,0.800000X1.200000*%
%ADD25R,1.800000X1.350000*%
%ADD26R,1.800000X1.500000*%
%ADD27RoundRect,0.250000X0.350000X0.450000X-0.350000X0.450000X-0.350000X-0.450000X0.350000X-0.450000X0*%
%ADD28C,3.000000*%
%ADD29RoundRect,0.150000X-0.587500X-0.150000X0.587500X-0.150000X0.587500X0.150000X-0.587500X0.150000X0*%
%ADD30C,2.200000*%
%ADD31C,1.727200*%
%ADD32R,1.727200X1.727200*%
G04 APERTURE END LIST*
D10*
X30000000Y-153000000D03*
X110000000Y-58000000D03*
D11*
X100707500Y-86490000D03*
X100707500Y-84590000D03*
X98832500Y-85540000D03*
D12*
X29740000Y-121690000D03*
X29740000Y-104810000D03*
D13*
X58680000Y-120940000D03*
X58680000Y-118400000D03*
D14*
X58680000Y-115860000D03*
D15*
X58680000Y-113320000D03*
D14*
X58680000Y-110780000D03*
D15*
X58680000Y-108240000D03*
D13*
X58680000Y-105700000D03*
D16*
X106985000Y-143430000D03*
D17*
X106985000Y-138430000D03*
X106985000Y-133430000D03*
D18*
X96266000Y-103886000D03*
X98266000Y-103886000D03*
D19*
X108450000Y-127000000D03*
D10*
X30000000Y-58000000D03*
D19*
X33020000Y-67310000D03*
D16*
X44450000Y-60960000D03*
D17*
X39450000Y-60960000D03*
D12*
X29740000Y-97570000D03*
X29740000Y-80690000D03*
D13*
X58680000Y-96820000D03*
X58680000Y-94280000D03*
D14*
X58680000Y-91740000D03*
D15*
X58680000Y-89200000D03*
D14*
X58680000Y-86660000D03*
D15*
X58680000Y-84120000D03*
D13*
X58680000Y-81580000D03*
D16*
X106680000Y-121840000D03*
D17*
X106680000Y-116840000D03*
D19*
X107950000Y-99060000D03*
D12*
X29740000Y-145810000D03*
X29740000Y-128930000D03*
D13*
X58680000Y-145060000D03*
X58680000Y-142520000D03*
D14*
X58680000Y-139980000D03*
D15*
X58680000Y-137440000D03*
D14*
X58680000Y-134900000D03*
D15*
X58680000Y-132360000D03*
D13*
X58680000Y-129820000D03*
D20*
X104648000Y-90710000D03*
X104648000Y-92710000D03*
D21*
X107650000Y-88460000D03*
X107650000Y-86460000D03*
D20*
X96266000Y-90694000D03*
X96266000Y-92694000D03*
D21*
X100600000Y-92630000D03*
X100600000Y-90630000D03*
D19*
X49530000Y-59190000D03*
D22*
X58666000Y-61293000D03*
D23*
X56646000Y-61293000D03*
D24*
X55416000Y-61293000D03*
D22*
X57666000Y-61293000D03*
D23*
X59686000Y-61293000D03*
D24*
X60916000Y-61293000D03*
D25*
X63291000Y-61238000D03*
D26*
X63291000Y-57658000D03*
D25*
X53041000Y-61238000D03*
D26*
X53041000Y-57658000D03*
D27*
X98282000Y-114300000D03*
X96282000Y-114300000D03*
D10*
X110000000Y-153000000D03*
D28*
X69880000Y-58070000D03*
X69880000Y-79090000D03*
X100300000Y-58070000D03*
X100300000Y-79090000D03*
D13*
X68961000Y-64846200D03*
D14*
X68961000Y-67386200D03*
X68961000Y-69926200D03*
X68961000Y-72466200D03*
D16*
X106680000Y-109180000D03*
D17*
X106680000Y-104180000D03*
D29*
X98963000Y-97094000D03*
X98963000Y-98994000D03*
X100838000Y-98044000D03*
D30*
X70014000Y-149424800D03*
X90514000Y-149424800D03*
X70014000Y-92424800D03*
X90514000Y-92424800D03*
D31*
X70104000Y-124460000D03*
X70104000Y-129540000D03*
X90424000Y-127000000D03*
X90424000Y-124460000D03*
X90424000Y-121920000D03*
X90424000Y-119380000D03*
X90424000Y-116840000D03*
X90424000Y-114300000D03*
X90424000Y-111760000D03*
X90424000Y-129540000D03*
X90424000Y-109220000D03*
X90424000Y-106680000D03*
X90424000Y-104140000D03*
X90424000Y-101600000D03*
X90424000Y-99060000D03*
X90424000Y-96520000D03*
X70104000Y-96520000D03*
X70104000Y-99060000D03*
X70104000Y-101600000D03*
X70104000Y-104140000D03*
X70104000Y-106680000D03*
X70104000Y-109220000D03*
X70104000Y-111760000D03*
X70104000Y-114300000D03*
X70104000Y-116840000D03*
D32*
X70104000Y-121920000D03*
D31*
X70104000Y-119380000D03*
X70104000Y-127000000D03*
D19*
X100840000Y-149490000D03*
M02*
