M48
; DRILL file {KiCad 7.0.9-7.0.9~ubuntu22.04.1} date Thu 07 Dec 2023 11:19:24 AM CET
; FORMAT={-:-/ absolute / inch / decimal}
; #@! TF.CreationDate,2023-12-07T11:19:24+01:00
; #@! TF.GenerationSoftware,Kicad,Pcbnew,7.0.9-7.0.9~ubuntu22.04.1
; #@! TF.FileFunction,Plated,1,2,PTH
FMAT,2
INCH
; #@! TA.AperFunction,Plated,PTH,ViaDrill
T1C0.0157
; #@! TA.AperFunction,Plated,PTH,ComponentDrill
T2C0.0394
; #@! TA.AperFunction,Plated,PTH,ComponentDrill
T3C0.0400
; #@! TA.AperFunction,Plated,PTH,ComponentDrill
T4C0.0512
; #@! TA.AperFunction,Plated,PTH,ComponentDrill
T5C0.1378
%
G90
G05
T1
X2.1384Y-2.4997
X2.37Y-4.6
X2.41Y-4.34
X2.45Y-4.59
X2.46Y-4.8
X2.49Y-4.18
X2.8985Y-3.47
X3.71Y-4.39
X3.81Y-3.37
X3.88Y-3.74
X3.97Y-3.98
X4.04Y-3.34
X4.04Y-3.56
X4.12Y-3.74
X4.19Y-3.74
T2
X2.3102Y-3.2118
X2.3102Y-3.3118
X2.3102Y-3.4118
X2.3102Y-3.5118
X2.3102Y-3.6118
X2.3102Y-3.7118
X2.3102Y-3.8118
X2.3102Y-4.1614
X2.3102Y-4.2614
X2.3102Y-4.3614
X2.3102Y-4.4614
X2.3102Y-4.5614
X2.3102Y-4.6614
X2.3102Y-4.7614
X2.3102Y-5.111
X2.3102Y-5.211
X2.3102Y-5.311
X2.3102Y-5.411
X2.3102Y-5.511
X2.3102Y-5.611
X2.3102Y-5.711
X2.715Y-2.553
X2.715Y-2.653
X2.715Y-2.753
X2.715Y-2.853
T3
X2.76Y-3.8
X2.76Y-3.9
X2.76Y-4.0
X2.76Y-4.1
X2.76Y-4.2
X2.76Y-4.3
X2.76Y-4.4
X2.76Y-4.5
X2.76Y-4.6
X2.76Y-4.7
X2.76Y-4.8
X2.76Y-4.9
X2.76Y-5.0
X2.76Y-5.1
X3.56Y-3.8
X3.56Y-3.9
X3.56Y-4.0
X3.56Y-4.1
X3.56Y-4.2
X3.56Y-4.3
X3.56Y-4.4
X3.56Y-4.5
X3.56Y-4.6
X3.56Y-4.7
X3.56Y-4.8
X3.56Y-4.9
X3.56Y-5.0
X3.56Y-5.1
T4
X1.5531Y-2.4
X1.75Y-2.4
X4.2Y-4.1016
X4.2Y-4.2984
X4.2Y-4.6
X4.2Y-4.7969
X4.212Y-5.2531
X4.212Y-5.45
X4.212Y-5.6469
T5
X1.1811Y-2.2835
X1.1811Y-6.0236
X4.3307Y-2.2835
X4.3307Y-6.0236
T0
M30
