G04 #@! TF.GenerationSoftware,KiCad,Pcbnew,7.0.9-7.0.9~ubuntu22.04.1*
G04 #@! TF.CreationDate,2023-12-07T11:19:29+01:00*
G04 #@! TF.ProjectId,baseboard,62617365-626f-4617-9264-2e6b69636164,rev?*
G04 #@! TF.SameCoordinates,Original*
G04 #@! TF.FileFunction,Soldermask,Bot*
G04 #@! TF.FilePolarity,Negative*
%FSLAX46Y46*%
G04 Gerber Fmt 4.6, Leading zero omitted, Abs format (unit mm)*
G04 Created by KiCad (PCBNEW 7.0.9-7.0.9~ubuntu22.04.1) date 2023-12-07 11:19:29*
%MOMM*%
%LPD*%
G01*
G04 APERTURE LIST*
%ADD10C,7.000000*%
%ADD11C,2.500000*%
%ADD12R,1.700000X1.700000*%
%ADD13O,1.700000X1.700000*%
%ADD14C,1.700000*%
%ADD15R,2.600000X2.600000*%
%ADD16C,2.600000*%
%ADD17C,3.000000*%
%ADD18C,2.200000*%
%ADD19C,1.727200*%
%ADD20R,1.727200X1.727200*%
G04 APERTURE END LIST*
D10*
X30000000Y-153000000D03*
X110000000Y-58000000D03*
D11*
X29740000Y-121690000D03*
X29740000Y-104810000D03*
D12*
X58680000Y-120940000D03*
X58680000Y-118400000D03*
D13*
X58680000Y-115860000D03*
D14*
X58680000Y-113320000D03*
D13*
X58680000Y-110780000D03*
D14*
X58680000Y-108240000D03*
D12*
X58680000Y-105700000D03*
D15*
X106985000Y-143430000D03*
D16*
X106985000Y-138430000D03*
X106985000Y-133430000D03*
D10*
X30000000Y-58000000D03*
D15*
X44450000Y-60960000D03*
D16*
X39450000Y-60960000D03*
D11*
X29740000Y-97570000D03*
X29740000Y-80690000D03*
D12*
X58680000Y-96820000D03*
X58680000Y-94280000D03*
D13*
X58680000Y-91740000D03*
D14*
X58680000Y-89200000D03*
D13*
X58680000Y-86660000D03*
D14*
X58680000Y-84120000D03*
D12*
X58680000Y-81580000D03*
D15*
X106680000Y-121840000D03*
D16*
X106680000Y-116840000D03*
D11*
X29740000Y-145810000D03*
X29740000Y-128930000D03*
D12*
X58680000Y-145060000D03*
X58680000Y-142520000D03*
D13*
X58680000Y-139980000D03*
D14*
X58680000Y-137440000D03*
D13*
X58680000Y-134900000D03*
D14*
X58680000Y-132360000D03*
D12*
X58680000Y-129820000D03*
D10*
X110000000Y-153000000D03*
D17*
X69880000Y-58070000D03*
X69880000Y-79090000D03*
X100300000Y-58070000D03*
X100300000Y-79090000D03*
D12*
X68961000Y-64846200D03*
D13*
X68961000Y-67386200D03*
X68961000Y-69926200D03*
X68961000Y-72466200D03*
D15*
X106680000Y-109180000D03*
D16*
X106680000Y-104180000D03*
D18*
X70014000Y-149424800D03*
X90514000Y-149424800D03*
X70014000Y-92424800D03*
X90514000Y-92424800D03*
D19*
X70104000Y-124460000D03*
X70104000Y-129540000D03*
X90424000Y-127000000D03*
X90424000Y-124460000D03*
X90424000Y-121920000D03*
X90424000Y-119380000D03*
X90424000Y-116840000D03*
X90424000Y-114300000D03*
X90424000Y-111760000D03*
X90424000Y-129540000D03*
X90424000Y-109220000D03*
X90424000Y-106680000D03*
X90424000Y-104140000D03*
X90424000Y-101600000D03*
X90424000Y-99060000D03*
X90424000Y-96520000D03*
X70104000Y-96520000D03*
X70104000Y-99060000D03*
X70104000Y-101600000D03*
X70104000Y-104140000D03*
X70104000Y-106680000D03*
X70104000Y-109220000D03*
X70104000Y-111760000D03*
X70104000Y-114300000D03*
X70104000Y-116840000D03*
D20*
X70104000Y-121920000D03*
D19*
X70104000Y-119380000D03*
X70104000Y-127000000D03*
M02*
