G04 #@! TF.GenerationSoftware,KiCad,Pcbnew,7.0.9-7.0.9~ubuntu22.04.1*
G04 #@! TF.CreationDate,2023-12-07T11:19:29+01:00*
G04 #@! TF.ProjectId,baseboard,62617365-626f-4617-9264-2e6b69636164,rev?*
G04 #@! TF.SameCoordinates,Original*
G04 #@! TF.FileFunction,Legend,Top*
G04 #@! TF.FilePolarity,Positive*
%FSLAX46Y46*%
G04 Gerber Fmt 4.6, Leading zero omitted, Abs format (unit mm)*
G04 Created by KiCad (PCBNEW 7.0.9-7.0.9~ubuntu22.04.1) date 2023-12-07 11:19:29*
%MOMM*%
%LPD*%
G01*
G04 APERTURE LIST*
G04 Aperture macros list*
%AMRoundRect*
0 Rectangle with rounded corners*
0 $1 Rounding radius*
0 $2 $3 $4 $5 $6 $7 $8 $9 X,Y pos of 4 corners*
0 Add a 4 corners polygon primitive as box body*
4,1,4,$2,$3,$4,$5,$6,$7,$8,$9,$2,$3,0*
0 Add four circle primitives for the rounded corners*
1,1,$1+$1,$2,$3*
1,1,$1+$1,$4,$5*
1,1,$1+$1,$6,$7*
1,1,$1+$1,$8,$9*
0 Add four rect primitives between the rounded corners*
20,1,$1+$1,$2,$3,$4,$5,0*
20,1,$1+$1,$4,$5,$6,$7,0*
20,1,$1+$1,$6,$7,$8,$9,0*
20,1,$1+$1,$8,$9,$2,$3,0*%
G04 Aperture macros list end*
%ADD10C,0.187500*%
%ADD11C,0.300000*%
%ADD12C,0.200000*%
%ADD13C,0.150000*%
%ADD14C,0.075000*%
%ADD15C,0.120000*%
%ADD16C,7.000000*%
%ADD17RoundRect,0.150000X0.587500X0.150000X-0.587500X0.150000X-0.587500X-0.150000X0.587500X-0.150000X0*%
%ADD18C,2.500000*%
%ADD19R,1.700000X1.700000*%
%ADD20O,1.700000X1.700000*%
%ADD21C,1.700000*%
%ADD22R,2.600000X2.600000*%
%ADD23C,2.600000*%
%ADD24RoundRect,0.250000X-0.350000X-0.450000X0.350000X-0.450000X0.350000X0.450000X-0.350000X0.450000X0*%
%ADD25R,2.000000X2.000000*%
%ADD26RoundRect,0.250000X-0.450000X0.350000X-0.450000X-0.350000X0.450000X-0.350000X0.450000X0.350000X0*%
%ADD27RoundRect,0.250000X0.450000X-0.350000X0.450000X0.350000X-0.450000X0.350000X-0.450000X-0.350000X0*%
%ADD28R,0.700000X1.200000*%
%ADD29R,0.760000X1.200000*%
%ADD30R,0.800000X1.200000*%
%ADD31R,1.800000X1.350000*%
%ADD32R,1.800000X1.500000*%
%ADD33RoundRect,0.250000X0.350000X0.450000X-0.350000X0.450000X-0.350000X-0.450000X0.350000X-0.450000X0*%
%ADD34C,3.000000*%
%ADD35RoundRect,0.150000X-0.587500X-0.150000X0.587500X-0.150000X0.587500X0.150000X-0.587500X0.150000X0*%
%ADD36C,2.200000*%
%ADD37C,1.727200*%
%ADD38R,1.727200X1.727200*%
G04 APERTURE END LIST*
D10*
X112454783Y-142694178D02*
X112383355Y-142658464D01*
X112383355Y-142658464D02*
X112276212Y-142658464D01*
X112276212Y-142658464D02*
X112169069Y-142694178D01*
X112169069Y-142694178D02*
X112097640Y-142765607D01*
X112097640Y-142765607D02*
X112061926Y-142837035D01*
X112061926Y-142837035D02*
X112026212Y-142979892D01*
X112026212Y-142979892D02*
X112026212Y-143087035D01*
X112026212Y-143087035D02*
X112061926Y-143229892D01*
X112061926Y-143229892D02*
X112097640Y-143301321D01*
X112097640Y-143301321D02*
X112169069Y-143372750D01*
X112169069Y-143372750D02*
X112276212Y-143408464D01*
X112276212Y-143408464D02*
X112347640Y-143408464D01*
X112347640Y-143408464D02*
X112454783Y-143372750D01*
X112454783Y-143372750D02*
X112490497Y-143337035D01*
X112490497Y-143337035D02*
X112490497Y-143087035D01*
X112490497Y-143087035D02*
X112347640Y-143087035D01*
X112811926Y-143408464D02*
X112811926Y-142658464D01*
X112811926Y-142658464D02*
X113240497Y-143408464D01*
X113240497Y-143408464D02*
X113240497Y-142658464D01*
X113597640Y-143408464D02*
X113597640Y-142658464D01*
X113597640Y-142658464D02*
X113776211Y-142658464D01*
X113776211Y-142658464D02*
X113883354Y-142694178D01*
X113883354Y-142694178D02*
X113954783Y-142765607D01*
X113954783Y-142765607D02*
X113990497Y-142837035D01*
X113990497Y-142837035D02*
X114026211Y-142979892D01*
X114026211Y-142979892D02*
X114026211Y-143087035D01*
X114026211Y-143087035D02*
X113990497Y-143229892D01*
X113990497Y-143229892D02*
X113954783Y-143301321D01*
X113954783Y-143301321D02*
X113883354Y-143372750D01*
X113883354Y-143372750D02*
X113776211Y-143408464D01*
X113776211Y-143408464D02*
X113597640Y-143408464D01*
D11*
X100544885Y-109004510D02*
X100473457Y-109218796D01*
X100473457Y-109218796D02*
X100402028Y-109290225D01*
X100402028Y-109290225D02*
X100259171Y-109361653D01*
X100259171Y-109361653D02*
X100044885Y-109361653D01*
X100044885Y-109361653D02*
X99902028Y-109290225D01*
X99902028Y-109290225D02*
X99830600Y-109218796D01*
X99830600Y-109218796D02*
X99759171Y-109075939D01*
X99759171Y-109075939D02*
X99759171Y-108504510D01*
X99759171Y-108504510D02*
X101259171Y-108504510D01*
X101259171Y-108504510D02*
X101259171Y-109004510D01*
X101259171Y-109004510D02*
X101187742Y-109147368D01*
X101187742Y-109147368D02*
X101116314Y-109218796D01*
X101116314Y-109218796D02*
X100973457Y-109290225D01*
X100973457Y-109290225D02*
X100830600Y-109290225D01*
X100830600Y-109290225D02*
X100687742Y-109218796D01*
X100687742Y-109218796D02*
X100616314Y-109147368D01*
X100616314Y-109147368D02*
X100544885Y-109004510D01*
X100544885Y-109004510D02*
X100544885Y-108504510D01*
X100187742Y-109933082D02*
X100187742Y-110647368D01*
X99759171Y-109790225D02*
X101259171Y-110290225D01*
X101259171Y-110290225D02*
X99759171Y-110790225D01*
X101259171Y-111075939D02*
X101259171Y-111933082D01*
X99759171Y-111504510D02*
X101259171Y-111504510D01*
D10*
X112061926Y-138328464D02*
X112061926Y-137578464D01*
X112061926Y-137578464D02*
X112240497Y-137578464D01*
X112240497Y-137578464D02*
X112347640Y-137614178D01*
X112347640Y-137614178D02*
X112419069Y-137685607D01*
X112419069Y-137685607D02*
X112454783Y-137757035D01*
X112454783Y-137757035D02*
X112490497Y-137899892D01*
X112490497Y-137899892D02*
X112490497Y-138007035D01*
X112490497Y-138007035D02*
X112454783Y-138149892D01*
X112454783Y-138149892D02*
X112419069Y-138221321D01*
X112419069Y-138221321D02*
X112347640Y-138292750D01*
X112347640Y-138292750D02*
X112240497Y-138328464D01*
X112240497Y-138328464D02*
X112061926Y-138328464D01*
X112776212Y-138114178D02*
X113133355Y-138114178D01*
X112704783Y-138328464D02*
X112954783Y-137578464D01*
X112954783Y-137578464D02*
X113204783Y-138328464D01*
X113347640Y-137578464D02*
X113776212Y-137578464D01*
X113561926Y-138328464D02*
X113561926Y-137578464D01*
X113990498Y-138114178D02*
X114347641Y-138114178D01*
X113919069Y-138328464D02*
X114169069Y-137578464D01*
X114169069Y-137578464D02*
X114419069Y-138328464D01*
D11*
X101187742Y-101670225D02*
X101259171Y-101527368D01*
X101259171Y-101527368D02*
X101259171Y-101313082D01*
X101259171Y-101313082D02*
X101187742Y-101098796D01*
X101187742Y-101098796D02*
X101044885Y-100955939D01*
X101044885Y-100955939D02*
X100902028Y-100884510D01*
X100902028Y-100884510D02*
X100616314Y-100813082D01*
X100616314Y-100813082D02*
X100402028Y-100813082D01*
X100402028Y-100813082D02*
X100116314Y-100884510D01*
X100116314Y-100884510D02*
X99973457Y-100955939D01*
X99973457Y-100955939D02*
X99830600Y-101098796D01*
X99830600Y-101098796D02*
X99759171Y-101313082D01*
X99759171Y-101313082D02*
X99759171Y-101455939D01*
X99759171Y-101455939D02*
X99830600Y-101670225D01*
X99830600Y-101670225D02*
X99902028Y-101741653D01*
X99902028Y-101741653D02*
X100402028Y-101741653D01*
X100402028Y-101741653D02*
X100402028Y-101455939D01*
X99759171Y-102384510D02*
X101259171Y-102384510D01*
X101259171Y-102384510D02*
X99759171Y-103241653D01*
X99759171Y-103241653D02*
X101259171Y-103241653D01*
X99759171Y-103955939D02*
X101259171Y-103955939D01*
X101259171Y-103955939D02*
X101259171Y-104313082D01*
X101259171Y-104313082D02*
X101187742Y-104527368D01*
X101187742Y-104527368D02*
X101044885Y-104670225D01*
X101044885Y-104670225D02*
X100902028Y-104741654D01*
X100902028Y-104741654D02*
X100616314Y-104813082D01*
X100616314Y-104813082D02*
X100402028Y-104813082D01*
X100402028Y-104813082D02*
X100116314Y-104741654D01*
X100116314Y-104741654D02*
X99973457Y-104670225D01*
X99973457Y-104670225D02*
X99830600Y-104527368D01*
X99830600Y-104527368D02*
X99759171Y-104313082D01*
X99759171Y-104313082D02*
X99759171Y-103955939D01*
X36900225Y-66452257D02*
X36757368Y-66380828D01*
X36757368Y-66380828D02*
X36543082Y-66380828D01*
X36543082Y-66380828D02*
X36328796Y-66452257D01*
X36328796Y-66452257D02*
X36185939Y-66595114D01*
X36185939Y-66595114D02*
X36114510Y-66737971D01*
X36114510Y-66737971D02*
X36043082Y-67023685D01*
X36043082Y-67023685D02*
X36043082Y-67237971D01*
X36043082Y-67237971D02*
X36114510Y-67523685D01*
X36114510Y-67523685D02*
X36185939Y-67666542D01*
X36185939Y-67666542D02*
X36328796Y-67809400D01*
X36328796Y-67809400D02*
X36543082Y-67880828D01*
X36543082Y-67880828D02*
X36685939Y-67880828D01*
X36685939Y-67880828D02*
X36900225Y-67809400D01*
X36900225Y-67809400D02*
X36971653Y-67737971D01*
X36971653Y-67737971D02*
X36971653Y-67237971D01*
X36971653Y-67237971D02*
X36685939Y-67237971D01*
X37614510Y-67880828D02*
X37614510Y-66380828D01*
X37614510Y-66380828D02*
X38471653Y-67880828D01*
X38471653Y-67880828D02*
X38471653Y-66380828D01*
X39185939Y-67880828D02*
X39185939Y-66380828D01*
X39185939Y-66380828D02*
X39543082Y-66380828D01*
X39543082Y-66380828D02*
X39757368Y-66452257D01*
X39757368Y-66452257D02*
X39900225Y-66595114D01*
X39900225Y-66595114D02*
X39971654Y-66737971D01*
X39971654Y-66737971D02*
X40043082Y-67023685D01*
X40043082Y-67023685D02*
X40043082Y-67237971D01*
X40043082Y-67237971D02*
X39971654Y-67523685D01*
X39971654Y-67523685D02*
X39900225Y-67666542D01*
X39900225Y-67666542D02*
X39757368Y-67809400D01*
X39757368Y-67809400D02*
X39543082Y-67880828D01*
X39543082Y-67880828D02*
X39185939Y-67880828D01*
D12*
X64598707Y-62152838D02*
X64503469Y-62105219D01*
X64503469Y-62105219D02*
X64360612Y-62105219D01*
X64360612Y-62105219D02*
X64217755Y-62152838D01*
X64217755Y-62152838D02*
X64122517Y-62248076D01*
X64122517Y-62248076D02*
X64074898Y-62343314D01*
X64074898Y-62343314D02*
X64027279Y-62533790D01*
X64027279Y-62533790D02*
X64027279Y-62676647D01*
X64027279Y-62676647D02*
X64074898Y-62867123D01*
X64074898Y-62867123D02*
X64122517Y-62962361D01*
X64122517Y-62962361D02*
X64217755Y-63057600D01*
X64217755Y-63057600D02*
X64360612Y-63105219D01*
X64360612Y-63105219D02*
X64455850Y-63105219D01*
X64455850Y-63105219D02*
X64598707Y-63057600D01*
X64598707Y-63057600D02*
X64646326Y-63009980D01*
X64646326Y-63009980D02*
X64646326Y-62676647D01*
X64646326Y-62676647D02*
X64455850Y-62676647D01*
X65074898Y-63105219D02*
X65074898Y-62105219D01*
X65074898Y-62105219D02*
X65646326Y-63105219D01*
X65646326Y-63105219D02*
X65646326Y-62105219D01*
X66122517Y-63105219D02*
X66122517Y-62105219D01*
X66122517Y-62105219D02*
X66360612Y-62105219D01*
X66360612Y-62105219D02*
X66503469Y-62152838D01*
X66503469Y-62152838D02*
X66598707Y-62248076D01*
X66598707Y-62248076D02*
X66646326Y-62343314D01*
X66646326Y-62343314D02*
X66693945Y-62533790D01*
X66693945Y-62533790D02*
X66693945Y-62676647D01*
X66693945Y-62676647D02*
X66646326Y-62867123D01*
X66646326Y-62867123D02*
X66598707Y-62962361D01*
X66598707Y-62962361D02*
X66503469Y-63057600D01*
X66503469Y-63057600D02*
X66360612Y-63105219D01*
X66360612Y-63105219D02*
X66122517Y-63105219D01*
D11*
X37229510Y-156275828D02*
X37229510Y-154775828D01*
X37229510Y-154775828D02*
X37800939Y-154775828D01*
X37800939Y-154775828D02*
X37943796Y-154847257D01*
X37943796Y-154847257D02*
X38015225Y-154918685D01*
X38015225Y-154918685D02*
X38086653Y-155061542D01*
X38086653Y-155061542D02*
X38086653Y-155275828D01*
X38086653Y-155275828D02*
X38015225Y-155418685D01*
X38015225Y-155418685D02*
X37943796Y-155490114D01*
X37943796Y-155490114D02*
X37800939Y-155561542D01*
X37800939Y-155561542D02*
X37229510Y-155561542D01*
X39015225Y-154775828D02*
X39300939Y-154775828D01*
X39300939Y-154775828D02*
X39443796Y-154847257D01*
X39443796Y-154847257D02*
X39586653Y-154990114D01*
X39586653Y-154990114D02*
X39658082Y-155275828D01*
X39658082Y-155275828D02*
X39658082Y-155775828D01*
X39658082Y-155775828D02*
X39586653Y-156061542D01*
X39586653Y-156061542D02*
X39443796Y-156204400D01*
X39443796Y-156204400D02*
X39300939Y-156275828D01*
X39300939Y-156275828D02*
X39015225Y-156275828D01*
X39015225Y-156275828D02*
X38872368Y-156204400D01*
X38872368Y-156204400D02*
X38729510Y-156061542D01*
X38729510Y-156061542D02*
X38658082Y-155775828D01*
X38658082Y-155775828D02*
X38658082Y-155275828D01*
X38658082Y-155275828D02*
X38729510Y-154990114D01*
X38729510Y-154990114D02*
X38872368Y-154847257D01*
X38872368Y-154847257D02*
X39015225Y-154775828D01*
X40229511Y-155847257D02*
X40943797Y-155847257D01*
X40086654Y-156275828D02*
X40586654Y-154775828D01*
X40586654Y-154775828D02*
X41086654Y-156275828D01*
X42086653Y-155490114D02*
X42300939Y-155561542D01*
X42300939Y-155561542D02*
X42372368Y-155632971D01*
X42372368Y-155632971D02*
X42443796Y-155775828D01*
X42443796Y-155775828D02*
X42443796Y-155990114D01*
X42443796Y-155990114D02*
X42372368Y-156132971D01*
X42372368Y-156132971D02*
X42300939Y-156204400D01*
X42300939Y-156204400D02*
X42158082Y-156275828D01*
X42158082Y-156275828D02*
X41586653Y-156275828D01*
X41586653Y-156275828D02*
X41586653Y-154775828D01*
X41586653Y-154775828D02*
X42086653Y-154775828D01*
X42086653Y-154775828D02*
X42229511Y-154847257D01*
X42229511Y-154847257D02*
X42300939Y-154918685D01*
X42300939Y-154918685D02*
X42372368Y-155061542D01*
X42372368Y-155061542D02*
X42372368Y-155204400D01*
X42372368Y-155204400D02*
X42300939Y-155347257D01*
X42300939Y-155347257D02*
X42229511Y-155418685D01*
X42229511Y-155418685D02*
X42086653Y-155490114D01*
X42086653Y-155490114D02*
X41586653Y-155490114D01*
X43872368Y-156275828D02*
X43015225Y-156275828D01*
X43443796Y-156275828D02*
X43443796Y-154775828D01*
X43443796Y-154775828D02*
X43300939Y-154990114D01*
X43300939Y-154990114D02*
X43158082Y-155132971D01*
X43158082Y-155132971D02*
X43015225Y-155204400D01*
X46443796Y-154847257D02*
X46300939Y-154775828D01*
X46300939Y-154775828D02*
X46086653Y-154775828D01*
X46086653Y-154775828D02*
X45872367Y-154847257D01*
X45872367Y-154847257D02*
X45729510Y-154990114D01*
X45729510Y-154990114D02*
X45658081Y-155132971D01*
X45658081Y-155132971D02*
X45586653Y-155418685D01*
X45586653Y-155418685D02*
X45586653Y-155632971D01*
X45586653Y-155632971D02*
X45658081Y-155918685D01*
X45658081Y-155918685D02*
X45729510Y-156061542D01*
X45729510Y-156061542D02*
X45872367Y-156204400D01*
X45872367Y-156204400D02*
X46086653Y-156275828D01*
X46086653Y-156275828D02*
X46229510Y-156275828D01*
X46229510Y-156275828D02*
X46443796Y-156204400D01*
X46443796Y-156204400D02*
X46515224Y-156132971D01*
X46515224Y-156132971D02*
X46515224Y-155632971D01*
X46515224Y-155632971D02*
X46229510Y-155632971D01*
X47729510Y-156204400D02*
X47586653Y-156275828D01*
X47586653Y-156275828D02*
X47300939Y-156275828D01*
X47300939Y-156275828D02*
X47158081Y-156204400D01*
X47158081Y-156204400D02*
X47086653Y-156061542D01*
X47086653Y-156061542D02*
X47086653Y-155490114D01*
X47086653Y-155490114D02*
X47158081Y-155347257D01*
X47158081Y-155347257D02*
X47300939Y-155275828D01*
X47300939Y-155275828D02*
X47586653Y-155275828D01*
X47586653Y-155275828D02*
X47729510Y-155347257D01*
X47729510Y-155347257D02*
X47800939Y-155490114D01*
X47800939Y-155490114D02*
X47800939Y-155632971D01*
X47800939Y-155632971D02*
X47086653Y-155775828D01*
X48443795Y-156275828D02*
X48443795Y-155275828D01*
X48443795Y-155561542D02*
X48515224Y-155418685D01*
X48515224Y-155418685D02*
X48586653Y-155347257D01*
X48586653Y-155347257D02*
X48729510Y-155275828D01*
X48729510Y-155275828D02*
X48872367Y-155275828D01*
X49586652Y-156275828D02*
X49443795Y-156204400D01*
X49443795Y-156204400D02*
X49372366Y-156132971D01*
X49372366Y-156132971D02*
X49300938Y-155990114D01*
X49300938Y-155990114D02*
X49300938Y-155561542D01*
X49300938Y-155561542D02*
X49372366Y-155418685D01*
X49372366Y-155418685D02*
X49443795Y-155347257D01*
X49443795Y-155347257D02*
X49586652Y-155275828D01*
X49586652Y-155275828D02*
X49800938Y-155275828D01*
X49800938Y-155275828D02*
X49943795Y-155347257D01*
X49943795Y-155347257D02*
X50015224Y-155418685D01*
X50015224Y-155418685D02*
X50086652Y-155561542D01*
X50086652Y-155561542D02*
X50086652Y-155990114D01*
X50086652Y-155990114D02*
X50015224Y-156132971D01*
X50015224Y-156132971D02*
X49943795Y-156204400D01*
X49943795Y-156204400D02*
X49800938Y-156275828D01*
X49800938Y-156275828D02*
X49586652Y-156275828D01*
X50729509Y-156275828D02*
X50729509Y-155275828D01*
X50729509Y-155418685D02*
X50800938Y-155347257D01*
X50800938Y-155347257D02*
X50943795Y-155275828D01*
X50943795Y-155275828D02*
X51158081Y-155275828D01*
X51158081Y-155275828D02*
X51300938Y-155347257D01*
X51300938Y-155347257D02*
X51372367Y-155490114D01*
X51372367Y-155490114D02*
X51372367Y-156275828D01*
X51372367Y-155490114D02*
X51443795Y-155347257D01*
X51443795Y-155347257D02*
X51586652Y-155275828D01*
X51586652Y-155275828D02*
X51800938Y-155275828D01*
X51800938Y-155275828D02*
X51943795Y-155347257D01*
X51943795Y-155347257D02*
X52015224Y-155490114D01*
X52015224Y-155490114D02*
X52015224Y-156275828D01*
X53300938Y-156204400D02*
X53158081Y-156275828D01*
X53158081Y-156275828D02*
X52872367Y-156275828D01*
X52872367Y-156275828D02*
X52729509Y-156204400D01*
X52729509Y-156204400D02*
X52658081Y-156061542D01*
X52658081Y-156061542D02*
X52658081Y-155490114D01*
X52658081Y-155490114D02*
X52729509Y-155347257D01*
X52729509Y-155347257D02*
X52872367Y-155275828D01*
X52872367Y-155275828D02*
X53158081Y-155275828D01*
X53158081Y-155275828D02*
X53300938Y-155347257D01*
X53300938Y-155347257D02*
X53372367Y-155490114D01*
X53372367Y-155490114D02*
X53372367Y-155632971D01*
X53372367Y-155632971D02*
X52658081Y-155775828D01*
X55158080Y-156275828D02*
X55158080Y-154775828D01*
X55158080Y-154775828D02*
X55515223Y-154775828D01*
X55515223Y-154775828D02*
X55729509Y-154847257D01*
X55729509Y-154847257D02*
X55872366Y-154990114D01*
X55872366Y-154990114D02*
X55943795Y-155132971D01*
X55943795Y-155132971D02*
X56015223Y-155418685D01*
X56015223Y-155418685D02*
X56015223Y-155632971D01*
X56015223Y-155632971D02*
X55943795Y-155918685D01*
X55943795Y-155918685D02*
X55872366Y-156061542D01*
X55872366Y-156061542D02*
X55729509Y-156204400D01*
X55729509Y-156204400D02*
X55515223Y-156275828D01*
X55515223Y-156275828D02*
X55158080Y-156275828D01*
X57229509Y-156204400D02*
X57086652Y-156275828D01*
X57086652Y-156275828D02*
X56800938Y-156275828D01*
X56800938Y-156275828D02*
X56658080Y-156204400D01*
X56658080Y-156204400D02*
X56586652Y-156061542D01*
X56586652Y-156061542D02*
X56586652Y-155490114D01*
X56586652Y-155490114D02*
X56658080Y-155347257D01*
X56658080Y-155347257D02*
X56800938Y-155275828D01*
X56800938Y-155275828D02*
X57086652Y-155275828D01*
X57086652Y-155275828D02*
X57229509Y-155347257D01*
X57229509Y-155347257D02*
X57300938Y-155490114D01*
X57300938Y-155490114D02*
X57300938Y-155632971D01*
X57300938Y-155632971D02*
X56586652Y-155775828D01*
X58943794Y-154775828D02*
X59300937Y-156275828D01*
X59300937Y-156275828D02*
X59586651Y-155204400D01*
X59586651Y-155204400D02*
X59872366Y-156275828D01*
X59872366Y-156275828D02*
X60229509Y-154775828D01*
X60800937Y-156275828D02*
X60800937Y-155275828D01*
X60800937Y-154775828D02*
X60729509Y-154847257D01*
X60729509Y-154847257D02*
X60800937Y-154918685D01*
X60800937Y-154918685D02*
X60872366Y-154847257D01*
X60872366Y-154847257D02*
X60800937Y-154775828D01*
X60800937Y-154775828D02*
X60800937Y-154918685D01*
X61729509Y-156275828D02*
X61586652Y-156204400D01*
X61586652Y-156204400D02*
X61515223Y-156061542D01*
X61515223Y-156061542D02*
X61515223Y-154775828D01*
X62943795Y-156275828D02*
X62943795Y-154775828D01*
X62943795Y-156204400D02*
X62800937Y-156275828D01*
X62800937Y-156275828D02*
X62515223Y-156275828D01*
X62515223Y-156275828D02*
X62372366Y-156204400D01*
X62372366Y-156204400D02*
X62300937Y-156132971D01*
X62300937Y-156132971D02*
X62229509Y-155990114D01*
X62229509Y-155990114D02*
X62229509Y-155561542D01*
X62229509Y-155561542D02*
X62300937Y-155418685D01*
X62300937Y-155418685D02*
X62372366Y-155347257D01*
X62372366Y-155347257D02*
X62515223Y-155275828D01*
X62515223Y-155275828D02*
X62800937Y-155275828D01*
X62800937Y-155275828D02*
X62943795Y-155347257D01*
X64229509Y-156204400D02*
X64086652Y-156275828D01*
X64086652Y-156275828D02*
X63800938Y-156275828D01*
X63800938Y-156275828D02*
X63658080Y-156204400D01*
X63658080Y-156204400D02*
X63586652Y-156061542D01*
X63586652Y-156061542D02*
X63586652Y-155490114D01*
X63586652Y-155490114D02*
X63658080Y-155347257D01*
X63658080Y-155347257D02*
X63800938Y-155275828D01*
X63800938Y-155275828D02*
X64086652Y-155275828D01*
X64086652Y-155275828D02*
X64229509Y-155347257D01*
X64229509Y-155347257D02*
X64300938Y-155490114D01*
X64300938Y-155490114D02*
X64300938Y-155632971D01*
X64300938Y-155632971D02*
X63586652Y-155775828D01*
X66086651Y-155704400D02*
X67229509Y-155704400D01*
X69372366Y-155561542D02*
X69372366Y-156275828D01*
X68872366Y-154775828D02*
X69372366Y-155561542D01*
X69372366Y-155561542D02*
X69872366Y-154775828D01*
X70586651Y-156275828D02*
X70443794Y-156204400D01*
X70443794Y-156204400D02*
X70372365Y-156132971D01*
X70372365Y-156132971D02*
X70300937Y-155990114D01*
X70300937Y-155990114D02*
X70300937Y-155561542D01*
X70300937Y-155561542D02*
X70372365Y-155418685D01*
X70372365Y-155418685D02*
X70443794Y-155347257D01*
X70443794Y-155347257D02*
X70586651Y-155275828D01*
X70586651Y-155275828D02*
X70800937Y-155275828D01*
X70800937Y-155275828D02*
X70943794Y-155347257D01*
X70943794Y-155347257D02*
X71015223Y-155418685D01*
X71015223Y-155418685D02*
X71086651Y-155561542D01*
X71086651Y-155561542D02*
X71086651Y-155990114D01*
X71086651Y-155990114D02*
X71015223Y-156132971D01*
X71015223Y-156132971D02*
X70943794Y-156204400D01*
X70943794Y-156204400D02*
X70800937Y-156275828D01*
X70800937Y-156275828D02*
X70586651Y-156275828D01*
X71729508Y-156275828D02*
X71729508Y-155275828D01*
X71729508Y-155561542D02*
X71800937Y-155418685D01*
X71800937Y-155418685D02*
X71872366Y-155347257D01*
X71872366Y-155347257D02*
X72015223Y-155275828D01*
X72015223Y-155275828D02*
X72158080Y-155275828D01*
X72658079Y-156275828D02*
X72658079Y-155275828D01*
X72658079Y-154775828D02*
X72586651Y-154847257D01*
X72586651Y-154847257D02*
X72658079Y-154918685D01*
X72658079Y-154918685D02*
X72729508Y-154847257D01*
X72729508Y-154847257D02*
X72658079Y-154775828D01*
X72658079Y-154775828D02*
X72658079Y-154918685D01*
X74015223Y-156204400D02*
X73872365Y-156275828D01*
X73872365Y-156275828D02*
X73586651Y-156275828D01*
X73586651Y-156275828D02*
X73443794Y-156204400D01*
X73443794Y-156204400D02*
X73372365Y-156132971D01*
X73372365Y-156132971D02*
X73300937Y-155990114D01*
X73300937Y-155990114D02*
X73300937Y-155561542D01*
X73300937Y-155561542D02*
X73372365Y-155418685D01*
X73372365Y-155418685D02*
X73443794Y-155347257D01*
X73443794Y-155347257D02*
X73586651Y-155275828D01*
X73586651Y-155275828D02*
X73872365Y-155275828D01*
X73872365Y-155275828D02*
X74015223Y-155347257D01*
X74658079Y-156275828D02*
X74658079Y-154775828D01*
X74800937Y-155704400D02*
X75229508Y-156275828D01*
X75229508Y-155275828D02*
X74658079Y-155847257D01*
X76800937Y-154775828D02*
X77300937Y-156275828D01*
X77300937Y-156275828D02*
X77800937Y-154775828D01*
X78872365Y-156204400D02*
X78729508Y-156275828D01*
X78729508Y-156275828D02*
X78443794Y-156275828D01*
X78443794Y-156275828D02*
X78300936Y-156204400D01*
X78300936Y-156204400D02*
X78229508Y-156061542D01*
X78229508Y-156061542D02*
X78229508Y-155490114D01*
X78229508Y-155490114D02*
X78300936Y-155347257D01*
X78300936Y-155347257D02*
X78443794Y-155275828D01*
X78443794Y-155275828D02*
X78729508Y-155275828D01*
X78729508Y-155275828D02*
X78872365Y-155347257D01*
X78872365Y-155347257D02*
X78943794Y-155490114D01*
X78943794Y-155490114D02*
X78943794Y-155632971D01*
X78943794Y-155632971D02*
X78229508Y-155775828D01*
X79586650Y-156275828D02*
X79586650Y-155275828D01*
X79586650Y-155561542D02*
X79658079Y-155418685D01*
X79658079Y-155418685D02*
X79729508Y-155347257D01*
X79729508Y-155347257D02*
X79872365Y-155275828D01*
X79872365Y-155275828D02*
X80015222Y-155275828D01*
X80515221Y-156275828D02*
X80515221Y-154775828D01*
X80515221Y-155347257D02*
X80658079Y-155275828D01*
X80658079Y-155275828D02*
X80943793Y-155275828D01*
X80943793Y-155275828D02*
X81086650Y-155347257D01*
X81086650Y-155347257D02*
X81158079Y-155418685D01*
X81158079Y-155418685D02*
X81229507Y-155561542D01*
X81229507Y-155561542D02*
X81229507Y-155990114D01*
X81229507Y-155990114D02*
X81158079Y-156132971D01*
X81158079Y-156132971D02*
X81086650Y-156204400D01*
X81086650Y-156204400D02*
X80943793Y-156275828D01*
X80943793Y-156275828D02*
X80658079Y-156275828D01*
X80658079Y-156275828D02*
X80515221Y-156204400D01*
X81872364Y-156275828D02*
X81872364Y-155275828D01*
X81872364Y-154775828D02*
X81800936Y-154847257D01*
X81800936Y-154847257D02*
X81872364Y-154918685D01*
X81872364Y-154918685D02*
X81943793Y-154847257D01*
X81943793Y-154847257D02*
X81872364Y-154775828D01*
X81872364Y-154775828D02*
X81872364Y-154918685D01*
X83158079Y-156204400D02*
X83015222Y-156275828D01*
X83015222Y-156275828D02*
X82729508Y-156275828D01*
X82729508Y-156275828D02*
X82586650Y-156204400D01*
X82586650Y-156204400D02*
X82515222Y-156061542D01*
X82515222Y-156061542D02*
X82515222Y-155490114D01*
X82515222Y-155490114D02*
X82586650Y-155347257D01*
X82586650Y-155347257D02*
X82729508Y-155275828D01*
X82729508Y-155275828D02*
X83015222Y-155275828D01*
X83015222Y-155275828D02*
X83158079Y-155347257D01*
X83158079Y-155347257D02*
X83229508Y-155490114D01*
X83229508Y-155490114D02*
X83229508Y-155632971D01*
X83229508Y-155632971D02*
X82515222Y-155775828D01*
X83800936Y-156204400D02*
X83943793Y-156275828D01*
X83943793Y-156275828D02*
X84229507Y-156275828D01*
X84229507Y-156275828D02*
X84372364Y-156204400D01*
X84372364Y-156204400D02*
X84443793Y-156061542D01*
X84443793Y-156061542D02*
X84443793Y-155990114D01*
X84443793Y-155990114D02*
X84372364Y-155847257D01*
X84372364Y-155847257D02*
X84229507Y-155775828D01*
X84229507Y-155775828D02*
X84015222Y-155775828D01*
X84015222Y-155775828D02*
X83872364Y-155704400D01*
X83872364Y-155704400D02*
X83800936Y-155561542D01*
X83800936Y-155561542D02*
X83800936Y-155490114D01*
X83800936Y-155490114D02*
X83872364Y-155347257D01*
X83872364Y-155347257D02*
X84015222Y-155275828D01*
X84015222Y-155275828D02*
X84229507Y-155275828D01*
X84229507Y-155275828D02*
X84372364Y-155347257D01*
X84872365Y-155275828D02*
X85443793Y-155275828D01*
X85086650Y-154775828D02*
X85086650Y-156061542D01*
X85086650Y-156061542D02*
X85158079Y-156204400D01*
X85158079Y-156204400D02*
X85300936Y-156275828D01*
X85300936Y-156275828D02*
X85443793Y-156275828D01*
D12*
X66035564Y-70987219D02*
X65702231Y-70511028D01*
X65464136Y-70987219D02*
X65464136Y-69987219D01*
X65464136Y-69987219D02*
X65845088Y-69987219D01*
X65845088Y-69987219D02*
X65940326Y-70034838D01*
X65940326Y-70034838D02*
X65987945Y-70082457D01*
X65987945Y-70082457D02*
X66035564Y-70177695D01*
X66035564Y-70177695D02*
X66035564Y-70320552D01*
X66035564Y-70320552D02*
X65987945Y-70415790D01*
X65987945Y-70415790D02*
X65940326Y-70463409D01*
X65940326Y-70463409D02*
X65845088Y-70511028D01*
X65845088Y-70511028D02*
X65464136Y-70511028D01*
X66368898Y-69987219D02*
X67035564Y-70987219D01*
X67035564Y-69987219D02*
X66368898Y-70987219D01*
X64559374Y-72527219D02*
X65178421Y-72527219D01*
X65178421Y-72527219D02*
X64845088Y-72908171D01*
X64845088Y-72908171D02*
X64987945Y-72908171D01*
X64987945Y-72908171D02*
X65083183Y-72955790D01*
X65083183Y-72955790D02*
X65130802Y-73003409D01*
X65130802Y-73003409D02*
X65178421Y-73098647D01*
X65178421Y-73098647D02*
X65178421Y-73336742D01*
X65178421Y-73336742D02*
X65130802Y-73431980D01*
X65130802Y-73431980D02*
X65083183Y-73479600D01*
X65083183Y-73479600D02*
X64987945Y-73527219D01*
X64987945Y-73527219D02*
X64702231Y-73527219D01*
X64702231Y-73527219D02*
X64606993Y-73479600D01*
X64606993Y-73479600D02*
X64559374Y-73431980D01*
X65464136Y-72527219D02*
X65797469Y-73527219D01*
X65797469Y-73527219D02*
X66130802Y-72527219D01*
X66368898Y-72527219D02*
X66987945Y-72527219D01*
X66987945Y-72527219D02*
X66654612Y-72908171D01*
X66654612Y-72908171D02*
X66797469Y-72908171D01*
X66797469Y-72908171D02*
X66892707Y-72955790D01*
X66892707Y-72955790D02*
X66940326Y-73003409D01*
X66940326Y-73003409D02*
X66987945Y-73098647D01*
X66987945Y-73098647D02*
X66987945Y-73336742D01*
X66987945Y-73336742D02*
X66940326Y-73431980D01*
X66940326Y-73431980D02*
X66892707Y-73479600D01*
X66892707Y-73479600D02*
X66797469Y-73527219D01*
X66797469Y-73527219D02*
X66511755Y-73527219D01*
X66511755Y-73527219D02*
X66416517Y-73479600D01*
X66416517Y-73479600D02*
X66368898Y-73431980D01*
D11*
X99759171Y-122474510D02*
X101259171Y-122474510D01*
X101259171Y-122474510D02*
X101259171Y-123045939D01*
X101259171Y-123045939D02*
X101187742Y-123188796D01*
X101187742Y-123188796D02*
X101116314Y-123260225D01*
X101116314Y-123260225D02*
X100973457Y-123331653D01*
X100973457Y-123331653D02*
X100759171Y-123331653D01*
X100759171Y-123331653D02*
X100616314Y-123260225D01*
X100616314Y-123260225D02*
X100544885Y-123188796D01*
X100544885Y-123188796D02*
X100473457Y-123045939D01*
X100473457Y-123045939D02*
X100473457Y-122474510D01*
X101259171Y-123760225D02*
X99759171Y-124260225D01*
X99759171Y-124260225D02*
X101259171Y-124760225D01*
X55204510Y-66380828D02*
X55204510Y-67595114D01*
X55204510Y-67595114D02*
X55275939Y-67737971D01*
X55275939Y-67737971D02*
X55347368Y-67809400D01*
X55347368Y-67809400D02*
X55490225Y-67880828D01*
X55490225Y-67880828D02*
X55775939Y-67880828D01*
X55775939Y-67880828D02*
X55918796Y-67809400D01*
X55918796Y-67809400D02*
X55990225Y-67737971D01*
X55990225Y-67737971D02*
X56061653Y-67595114D01*
X56061653Y-67595114D02*
X56061653Y-66380828D01*
X56704511Y-67809400D02*
X56918797Y-67880828D01*
X56918797Y-67880828D02*
X57275939Y-67880828D01*
X57275939Y-67880828D02*
X57418797Y-67809400D01*
X57418797Y-67809400D02*
X57490225Y-67737971D01*
X57490225Y-67737971D02*
X57561654Y-67595114D01*
X57561654Y-67595114D02*
X57561654Y-67452257D01*
X57561654Y-67452257D02*
X57490225Y-67309400D01*
X57490225Y-67309400D02*
X57418797Y-67237971D01*
X57418797Y-67237971D02*
X57275939Y-67166542D01*
X57275939Y-67166542D02*
X56990225Y-67095114D01*
X56990225Y-67095114D02*
X56847368Y-67023685D01*
X56847368Y-67023685D02*
X56775939Y-66952257D01*
X56775939Y-66952257D02*
X56704511Y-66809400D01*
X56704511Y-66809400D02*
X56704511Y-66666542D01*
X56704511Y-66666542D02*
X56775939Y-66523685D01*
X56775939Y-66523685D02*
X56847368Y-66452257D01*
X56847368Y-66452257D02*
X56990225Y-66380828D01*
X56990225Y-66380828D02*
X57347368Y-66380828D01*
X57347368Y-66380828D02*
X57561654Y-66452257D01*
X58704510Y-67095114D02*
X58918796Y-67166542D01*
X58918796Y-67166542D02*
X58990225Y-67237971D01*
X58990225Y-67237971D02*
X59061653Y-67380828D01*
X59061653Y-67380828D02*
X59061653Y-67595114D01*
X59061653Y-67595114D02*
X58990225Y-67737971D01*
X58990225Y-67737971D02*
X58918796Y-67809400D01*
X58918796Y-67809400D02*
X58775939Y-67880828D01*
X58775939Y-67880828D02*
X58204510Y-67880828D01*
X58204510Y-67880828D02*
X58204510Y-66380828D01*
X58204510Y-66380828D02*
X58704510Y-66380828D01*
X58704510Y-66380828D02*
X58847368Y-66452257D01*
X58847368Y-66452257D02*
X58918796Y-66523685D01*
X58918796Y-66523685D02*
X58990225Y-66666542D01*
X58990225Y-66666542D02*
X58990225Y-66809400D01*
X58990225Y-66809400D02*
X58918796Y-66952257D01*
X58918796Y-66952257D02*
X58847368Y-67023685D01*
X58847368Y-67023685D02*
X58704510Y-67095114D01*
X58704510Y-67095114D02*
X58204510Y-67095114D01*
X61561653Y-66380828D02*
X60847367Y-66380828D01*
X60847367Y-66380828D02*
X60775939Y-67095114D01*
X60775939Y-67095114D02*
X60847367Y-67023685D01*
X60847367Y-67023685D02*
X60990225Y-66952257D01*
X60990225Y-66952257D02*
X61347367Y-66952257D01*
X61347367Y-66952257D02*
X61490225Y-67023685D01*
X61490225Y-67023685D02*
X61561653Y-67095114D01*
X61561653Y-67095114D02*
X61633082Y-67237971D01*
X61633082Y-67237971D02*
X61633082Y-67595114D01*
X61633082Y-67595114D02*
X61561653Y-67737971D01*
X61561653Y-67737971D02*
X61490225Y-67809400D01*
X61490225Y-67809400D02*
X61347367Y-67880828D01*
X61347367Y-67880828D02*
X60990225Y-67880828D01*
X60990225Y-67880828D02*
X60847367Y-67809400D01*
X60847367Y-67809400D02*
X60775939Y-67737971D01*
X62061653Y-66380828D02*
X62561653Y-67880828D01*
X62561653Y-67880828D02*
X63061653Y-66380828D01*
X101187742Y-115640225D02*
X101259171Y-115497368D01*
X101259171Y-115497368D02*
X101259171Y-115283082D01*
X101259171Y-115283082D02*
X101187742Y-115068796D01*
X101187742Y-115068796D02*
X101044885Y-114925939D01*
X101044885Y-114925939D02*
X100902028Y-114854510D01*
X100902028Y-114854510D02*
X100616314Y-114783082D01*
X100616314Y-114783082D02*
X100402028Y-114783082D01*
X100402028Y-114783082D02*
X100116314Y-114854510D01*
X100116314Y-114854510D02*
X99973457Y-114925939D01*
X99973457Y-114925939D02*
X99830600Y-115068796D01*
X99830600Y-115068796D02*
X99759171Y-115283082D01*
X99759171Y-115283082D02*
X99759171Y-115425939D01*
X99759171Y-115425939D02*
X99830600Y-115640225D01*
X99830600Y-115640225D02*
X99902028Y-115711653D01*
X99902028Y-115711653D02*
X100402028Y-115711653D01*
X100402028Y-115711653D02*
X100402028Y-115425939D01*
X99759171Y-116354510D02*
X101259171Y-116354510D01*
X101259171Y-116354510D02*
X99759171Y-117211653D01*
X99759171Y-117211653D02*
X101259171Y-117211653D01*
X99759171Y-117925939D02*
X101259171Y-117925939D01*
X101259171Y-117925939D02*
X101259171Y-118283082D01*
X101259171Y-118283082D02*
X101187742Y-118497368D01*
X101187742Y-118497368D02*
X101044885Y-118640225D01*
X101044885Y-118640225D02*
X100902028Y-118711654D01*
X100902028Y-118711654D02*
X100616314Y-118783082D01*
X100616314Y-118783082D02*
X100402028Y-118783082D01*
X100402028Y-118783082D02*
X100116314Y-118711654D01*
X100116314Y-118711654D02*
X99973457Y-118640225D01*
X99973457Y-118640225D02*
X99830600Y-118497368D01*
X99830600Y-118497368D02*
X99759171Y-118283082D01*
X99759171Y-118283082D02*
X99759171Y-117925939D01*
D12*
X65559374Y-66177219D02*
X66130802Y-66177219D01*
X65845088Y-67177219D02*
X65845088Y-66177219D01*
X66368898Y-66177219D02*
X67035564Y-67177219D01*
X67035564Y-66177219D02*
X66368898Y-67177219D01*
D10*
X111990497Y-132498464D02*
X112454783Y-132498464D01*
X112454783Y-132498464D02*
X112204783Y-132784178D01*
X112204783Y-132784178D02*
X112311926Y-132784178D01*
X112311926Y-132784178D02*
X112383355Y-132819892D01*
X112383355Y-132819892D02*
X112419069Y-132855607D01*
X112419069Y-132855607D02*
X112454783Y-132927035D01*
X112454783Y-132927035D02*
X112454783Y-133105607D01*
X112454783Y-133105607D02*
X112419069Y-133177035D01*
X112419069Y-133177035D02*
X112383355Y-133212750D01*
X112383355Y-133212750D02*
X112311926Y-133248464D01*
X112311926Y-133248464D02*
X112097640Y-133248464D01*
X112097640Y-133248464D02*
X112026212Y-133212750D01*
X112026212Y-133212750D02*
X111990497Y-133177035D01*
X112669069Y-132498464D02*
X112919069Y-133248464D01*
X112919069Y-133248464D02*
X113169069Y-132498464D01*
X113347640Y-132498464D02*
X113811926Y-132498464D01*
X113811926Y-132498464D02*
X113561926Y-132784178D01*
X113561926Y-132784178D02*
X113669069Y-132784178D01*
X113669069Y-132784178D02*
X113740498Y-132819892D01*
X113740498Y-132819892D02*
X113776212Y-132855607D01*
X113776212Y-132855607D02*
X113811926Y-132927035D01*
X113811926Y-132927035D02*
X113811926Y-133105607D01*
X113811926Y-133105607D02*
X113776212Y-133177035D01*
X113776212Y-133177035D02*
X113740498Y-133212750D01*
X113740498Y-133212750D02*
X113669069Y-133248464D01*
X113669069Y-133248464D02*
X113454783Y-133248464D01*
X113454783Y-133248464D02*
X113383355Y-133212750D01*
X113383355Y-133212750D02*
X113347640Y-133177035D01*
D11*
X45790225Y-67880828D02*
X44933082Y-67880828D01*
X45361653Y-67880828D02*
X45361653Y-66380828D01*
X45361653Y-66380828D02*
X45218796Y-66595114D01*
X45218796Y-66595114D02*
X45075939Y-66737971D01*
X45075939Y-66737971D02*
X44933082Y-66809400D01*
X46361653Y-66523685D02*
X46433081Y-66452257D01*
X46433081Y-66452257D02*
X46575939Y-66380828D01*
X46575939Y-66380828D02*
X46933081Y-66380828D01*
X46933081Y-66380828D02*
X47075939Y-66452257D01*
X47075939Y-66452257D02*
X47147367Y-66523685D01*
X47147367Y-66523685D02*
X47218796Y-66666542D01*
X47218796Y-66666542D02*
X47218796Y-66809400D01*
X47218796Y-66809400D02*
X47147367Y-67023685D01*
X47147367Y-67023685D02*
X46290224Y-67880828D01*
X46290224Y-67880828D02*
X47218796Y-67880828D01*
X47647367Y-66380828D02*
X48147367Y-67880828D01*
X48147367Y-67880828D02*
X48647367Y-66380828D01*
D13*
X34688095Y-153429819D02*
X34688095Y-152429819D01*
X34688095Y-152906009D02*
X35259523Y-152906009D01*
X35259523Y-153429819D02*
X35259523Y-152429819D01*
X35640476Y-152429819D02*
X36259523Y-152429819D01*
X36259523Y-152429819D02*
X35926190Y-152810771D01*
X35926190Y-152810771D02*
X36069047Y-152810771D01*
X36069047Y-152810771D02*
X36164285Y-152858390D01*
X36164285Y-152858390D02*
X36211904Y-152906009D01*
X36211904Y-152906009D02*
X36259523Y-153001247D01*
X36259523Y-153001247D02*
X36259523Y-153239342D01*
X36259523Y-153239342D02*
X36211904Y-153334580D01*
X36211904Y-153334580D02*
X36164285Y-153382200D01*
X36164285Y-153382200D02*
X36069047Y-153429819D01*
X36069047Y-153429819D02*
X35783333Y-153429819D01*
X35783333Y-153429819D02*
X35688095Y-153382200D01*
X35688095Y-153382200D02*
X35640476Y-153334580D01*
X104188095Y-58379819D02*
X104188095Y-57379819D01*
X104188095Y-57856009D02*
X104759523Y-57856009D01*
X104759523Y-58379819D02*
X104759523Y-57379819D01*
X105188095Y-57475057D02*
X105235714Y-57427438D01*
X105235714Y-57427438D02*
X105330952Y-57379819D01*
X105330952Y-57379819D02*
X105569047Y-57379819D01*
X105569047Y-57379819D02*
X105664285Y-57427438D01*
X105664285Y-57427438D02*
X105711904Y-57475057D01*
X105711904Y-57475057D02*
X105759523Y-57570295D01*
X105759523Y-57570295D02*
X105759523Y-57665533D01*
X105759523Y-57665533D02*
X105711904Y-57808390D01*
X105711904Y-57808390D02*
X105140476Y-58379819D01*
X105140476Y-58379819D02*
X105759523Y-58379819D01*
X99674761Y-88490057D02*
X99579523Y-88442438D01*
X99579523Y-88442438D02*
X99484285Y-88347200D01*
X99484285Y-88347200D02*
X99341428Y-88204342D01*
X99341428Y-88204342D02*
X99246190Y-88156723D01*
X99246190Y-88156723D02*
X99150952Y-88156723D01*
X99198571Y-88394819D02*
X99103333Y-88347200D01*
X99103333Y-88347200D02*
X99008095Y-88251961D01*
X99008095Y-88251961D02*
X98960476Y-88061485D01*
X98960476Y-88061485D02*
X98960476Y-87728152D01*
X98960476Y-87728152D02*
X99008095Y-87537676D01*
X99008095Y-87537676D02*
X99103333Y-87442438D01*
X99103333Y-87442438D02*
X99198571Y-87394819D01*
X99198571Y-87394819D02*
X99389047Y-87394819D01*
X99389047Y-87394819D02*
X99484285Y-87442438D01*
X99484285Y-87442438D02*
X99579523Y-87537676D01*
X99579523Y-87537676D02*
X99627142Y-87728152D01*
X99627142Y-87728152D02*
X99627142Y-88061485D01*
X99627142Y-88061485D02*
X99579523Y-88251961D01*
X99579523Y-88251961D02*
X99484285Y-88347200D01*
X99484285Y-88347200D02*
X99389047Y-88394819D01*
X99389047Y-88394819D02*
X99198571Y-88394819D01*
X100579523Y-88394819D02*
X100008095Y-88394819D01*
X100293809Y-88394819D02*
X100293809Y-87394819D01*
X100293809Y-87394819D02*
X100198571Y-87537676D01*
X100198571Y-87537676D02*
X100103333Y-87632914D01*
X100103333Y-87632914D02*
X100008095Y-87680533D01*
X37233980Y-112468819D02*
X37233980Y-111802152D01*
X37233980Y-111897390D02*
X37281599Y-111849771D01*
X37281599Y-111849771D02*
X37376837Y-111802152D01*
X37376837Y-111802152D02*
X37519694Y-111802152D01*
X37519694Y-111802152D02*
X37614932Y-111849771D01*
X37614932Y-111849771D02*
X37662551Y-111945009D01*
X37662551Y-111945009D02*
X37662551Y-112468819D01*
X37662551Y-111945009D02*
X37710170Y-111849771D01*
X37710170Y-111849771D02*
X37805408Y-111802152D01*
X37805408Y-111802152D02*
X37948265Y-111802152D01*
X37948265Y-111802152D02*
X38043504Y-111849771D01*
X38043504Y-111849771D02*
X38091123Y-111945009D01*
X38091123Y-111945009D02*
X38091123Y-112468819D01*
X38710170Y-112468819D02*
X38614932Y-112421200D01*
X38614932Y-112421200D02*
X38567313Y-112373580D01*
X38567313Y-112373580D02*
X38519694Y-112278342D01*
X38519694Y-112278342D02*
X38519694Y-111992628D01*
X38519694Y-111992628D02*
X38567313Y-111897390D01*
X38567313Y-111897390D02*
X38614932Y-111849771D01*
X38614932Y-111849771D02*
X38710170Y-111802152D01*
X38710170Y-111802152D02*
X38853027Y-111802152D01*
X38853027Y-111802152D02*
X38948265Y-111849771D01*
X38948265Y-111849771D02*
X38995884Y-111897390D01*
X38995884Y-111897390D02*
X39043503Y-111992628D01*
X39043503Y-111992628D02*
X39043503Y-112278342D01*
X39043503Y-112278342D02*
X38995884Y-112373580D01*
X38995884Y-112373580D02*
X38948265Y-112421200D01*
X38948265Y-112421200D02*
X38853027Y-112468819D01*
X38853027Y-112468819D02*
X38710170Y-112468819D01*
X39424456Y-112421200D02*
X39519694Y-112468819D01*
X39519694Y-112468819D02*
X39710170Y-112468819D01*
X39710170Y-112468819D02*
X39805408Y-112421200D01*
X39805408Y-112421200D02*
X39853027Y-112325961D01*
X39853027Y-112325961D02*
X39853027Y-112278342D01*
X39853027Y-112278342D02*
X39805408Y-112183104D01*
X39805408Y-112183104D02*
X39710170Y-112135485D01*
X39710170Y-112135485D02*
X39567313Y-112135485D01*
X39567313Y-112135485D02*
X39472075Y-112087866D01*
X39472075Y-112087866D02*
X39424456Y-111992628D01*
X39424456Y-111992628D02*
X39424456Y-111945009D01*
X39424456Y-111945009D02*
X39472075Y-111849771D01*
X39472075Y-111849771D02*
X39567313Y-111802152D01*
X39567313Y-111802152D02*
X39710170Y-111802152D01*
X39710170Y-111802152D02*
X39805408Y-111849771D01*
X40138742Y-111802152D02*
X40519694Y-111802152D01*
X40281599Y-112468819D02*
X40281599Y-111611676D01*
X40281599Y-111611676D02*
X40329218Y-111516438D01*
X40329218Y-111516438D02*
X40424456Y-111468819D01*
X40424456Y-111468819D02*
X40519694Y-111468819D01*
X41233980Y-112421200D02*
X41138742Y-112468819D01*
X41138742Y-112468819D02*
X40948266Y-112468819D01*
X40948266Y-112468819D02*
X40853028Y-112421200D01*
X40853028Y-112421200D02*
X40805409Y-112325961D01*
X40805409Y-112325961D02*
X40805409Y-111945009D01*
X40805409Y-111945009D02*
X40853028Y-111849771D01*
X40853028Y-111849771D02*
X40948266Y-111802152D01*
X40948266Y-111802152D02*
X41138742Y-111802152D01*
X41138742Y-111802152D02*
X41233980Y-111849771D01*
X41233980Y-111849771D02*
X41281599Y-111945009D01*
X41281599Y-111945009D02*
X41281599Y-112040247D01*
X41281599Y-112040247D02*
X40805409Y-112135485D01*
X41567314Y-111802152D02*
X41948266Y-111802152D01*
X41710171Y-111468819D02*
X41710171Y-112325961D01*
X41710171Y-112325961D02*
X41757790Y-112421200D01*
X41757790Y-112421200D02*
X41853028Y-112468819D01*
X41853028Y-112468819D02*
X41948266Y-112468819D01*
X42281600Y-112087866D02*
X43043505Y-112087866D01*
X43948266Y-112421200D02*
X43853028Y-112468819D01*
X43853028Y-112468819D02*
X43662552Y-112468819D01*
X43662552Y-112468819D02*
X43567314Y-112421200D01*
X43567314Y-112421200D02*
X43519695Y-112373580D01*
X43519695Y-112373580D02*
X43472076Y-112278342D01*
X43472076Y-112278342D02*
X43472076Y-111992628D01*
X43472076Y-111992628D02*
X43519695Y-111897390D01*
X43519695Y-111897390D02*
X43567314Y-111849771D01*
X43567314Y-111849771D02*
X43662552Y-111802152D01*
X43662552Y-111802152D02*
X43853028Y-111802152D01*
X43853028Y-111802152D02*
X43948266Y-111849771D01*
X44805409Y-111802152D02*
X44805409Y-112468819D01*
X44376838Y-111802152D02*
X44376838Y-112325961D01*
X44376838Y-112325961D02*
X44424457Y-112421200D01*
X44424457Y-112421200D02*
X44519695Y-112468819D01*
X44519695Y-112468819D02*
X44662552Y-112468819D01*
X44662552Y-112468819D02*
X44757790Y-112421200D01*
X44757790Y-112421200D02*
X44805409Y-112373580D01*
X45281600Y-112468819D02*
X45281600Y-111802152D01*
X45281600Y-111992628D02*
X45329219Y-111897390D01*
X45329219Y-111897390D02*
X45376838Y-111849771D01*
X45376838Y-111849771D02*
X45472076Y-111802152D01*
X45472076Y-111802152D02*
X45567314Y-111802152D01*
X45900648Y-112468819D02*
X45900648Y-111802152D01*
X45900648Y-111992628D02*
X45948267Y-111897390D01*
X45948267Y-111897390D02*
X45995886Y-111849771D01*
X45995886Y-111849771D02*
X46091124Y-111802152D01*
X46091124Y-111802152D02*
X46186362Y-111802152D01*
X46900648Y-112421200D02*
X46805410Y-112468819D01*
X46805410Y-112468819D02*
X46614934Y-112468819D01*
X46614934Y-112468819D02*
X46519696Y-112421200D01*
X46519696Y-112421200D02*
X46472077Y-112325961D01*
X46472077Y-112325961D02*
X46472077Y-111945009D01*
X46472077Y-111945009D02*
X46519696Y-111849771D01*
X46519696Y-111849771D02*
X46614934Y-111802152D01*
X46614934Y-111802152D02*
X46805410Y-111802152D01*
X46805410Y-111802152D02*
X46900648Y-111849771D01*
X46900648Y-111849771D02*
X46948267Y-111945009D01*
X46948267Y-111945009D02*
X46948267Y-112040247D01*
X46948267Y-112040247D02*
X46472077Y-112135485D01*
X47376839Y-111802152D02*
X47376839Y-112468819D01*
X47376839Y-111897390D02*
X47424458Y-111849771D01*
X47424458Y-111849771D02*
X47519696Y-111802152D01*
X47519696Y-111802152D02*
X47662553Y-111802152D01*
X47662553Y-111802152D02*
X47757791Y-111849771D01*
X47757791Y-111849771D02*
X47805410Y-111945009D01*
X47805410Y-111945009D02*
X47805410Y-112468819D01*
X48138744Y-111802152D02*
X48519696Y-111802152D01*
X48281601Y-111468819D02*
X48281601Y-112325961D01*
X48281601Y-112325961D02*
X48329220Y-112421200D01*
X48329220Y-112421200D02*
X48424458Y-112468819D01*
X48424458Y-112468819D02*
X48519696Y-112468819D01*
X48805411Y-111564057D02*
X48853030Y-111516438D01*
X48853030Y-111516438D02*
X48948268Y-111468819D01*
X48948268Y-111468819D02*
X49186363Y-111468819D01*
X49186363Y-111468819D02*
X49281601Y-111516438D01*
X49281601Y-111516438D02*
X49329220Y-111564057D01*
X49329220Y-111564057D02*
X49376839Y-111659295D01*
X49376839Y-111659295D02*
X49376839Y-111754533D01*
X49376839Y-111754533D02*
X49329220Y-111897390D01*
X49329220Y-111897390D02*
X48757792Y-112468819D01*
X48757792Y-112468819D02*
X49376839Y-112468819D01*
X56409411Y-106142561D02*
X56504649Y-106190180D01*
X56504649Y-106190180D02*
X56647506Y-106190180D01*
X56647506Y-106190180D02*
X56790363Y-106142561D01*
X56790363Y-106142561D02*
X56885601Y-106047323D01*
X56885601Y-106047323D02*
X56933220Y-105952085D01*
X56933220Y-105952085D02*
X56980839Y-105761609D01*
X56980839Y-105761609D02*
X56980839Y-105618752D01*
X56980839Y-105618752D02*
X56933220Y-105428276D01*
X56933220Y-105428276D02*
X56885601Y-105333038D01*
X56885601Y-105333038D02*
X56790363Y-105237800D01*
X56790363Y-105237800D02*
X56647506Y-105190180D01*
X56647506Y-105190180D02*
X56552268Y-105190180D01*
X56552268Y-105190180D02*
X56409411Y-105237800D01*
X56409411Y-105237800D02*
X56361792Y-105285419D01*
X56361792Y-105285419D02*
X56361792Y-105618752D01*
X56361792Y-105618752D02*
X56552268Y-105618752D01*
X55933220Y-105190180D02*
X55933220Y-106190180D01*
X55933220Y-106190180D02*
X55361792Y-105190180D01*
X55361792Y-105190180D02*
X55361792Y-106190180D01*
X54885601Y-105190180D02*
X54885601Y-106190180D01*
X54885601Y-106190180D02*
X54647506Y-106190180D01*
X54647506Y-106190180D02*
X54504649Y-106142561D01*
X54504649Y-106142561D02*
X54409411Y-106047323D01*
X54409411Y-106047323D02*
X54361792Y-105952085D01*
X54361792Y-105952085D02*
X54314173Y-105761609D01*
X54314173Y-105761609D02*
X54314173Y-105618752D01*
X54314173Y-105618752D02*
X54361792Y-105428276D01*
X54361792Y-105428276D02*
X54409411Y-105333038D01*
X54409411Y-105333038D02*
X54504649Y-105237800D01*
X54504649Y-105237800D02*
X54647506Y-105190180D01*
X54647506Y-105190180D02*
X54885601Y-105190180D01*
X56749411Y-120460180D02*
X57320839Y-120460180D01*
X57035125Y-120460180D02*
X57035125Y-121460180D01*
X57035125Y-121460180D02*
X57130363Y-121317323D01*
X57130363Y-121317323D02*
X57225601Y-121222085D01*
X57225601Y-121222085D02*
X57320839Y-121174466D01*
X56368458Y-121364942D02*
X56320839Y-121412561D01*
X56320839Y-121412561D02*
X56225601Y-121460180D01*
X56225601Y-121460180D02*
X55987506Y-121460180D01*
X55987506Y-121460180D02*
X55892268Y-121412561D01*
X55892268Y-121412561D02*
X55844649Y-121364942D01*
X55844649Y-121364942D02*
X55797030Y-121269704D01*
X55797030Y-121269704D02*
X55797030Y-121174466D01*
X55797030Y-121174466D02*
X55844649Y-121031609D01*
X55844649Y-121031609D02*
X56416077Y-120460180D01*
X56416077Y-120460180D02*
X55797030Y-120460180D01*
X55511315Y-121460180D02*
X55177982Y-120460180D01*
X55177982Y-120460180D02*
X54844649Y-121460180D01*
X57388458Y-118950180D02*
X56769411Y-118950180D01*
X56769411Y-118950180D02*
X57102744Y-118569228D01*
X57102744Y-118569228D02*
X56959887Y-118569228D01*
X56959887Y-118569228D02*
X56864649Y-118521609D01*
X56864649Y-118521609D02*
X56817030Y-118473990D01*
X56817030Y-118473990D02*
X56769411Y-118378752D01*
X56769411Y-118378752D02*
X56769411Y-118140657D01*
X56769411Y-118140657D02*
X56817030Y-118045419D01*
X56817030Y-118045419D02*
X56864649Y-117997800D01*
X56864649Y-117997800D02*
X56959887Y-117950180D01*
X56959887Y-117950180D02*
X57245601Y-117950180D01*
X57245601Y-117950180D02*
X57340839Y-117997800D01*
X57340839Y-117997800D02*
X57388458Y-118045419D01*
X56483696Y-118950180D02*
X56150363Y-117950180D01*
X56150363Y-117950180D02*
X55817030Y-118950180D01*
X55578934Y-118950180D02*
X54959887Y-118950180D01*
X54959887Y-118950180D02*
X55293220Y-118569228D01*
X55293220Y-118569228D02*
X55150363Y-118569228D01*
X55150363Y-118569228D02*
X55055125Y-118521609D01*
X55055125Y-118521609D02*
X55007506Y-118473990D01*
X55007506Y-118473990D02*
X54959887Y-118378752D01*
X54959887Y-118378752D02*
X54959887Y-118140657D01*
X54959887Y-118140657D02*
X55007506Y-118045419D01*
X55007506Y-118045419D02*
X55055125Y-117997800D01*
X55055125Y-117997800D02*
X55150363Y-117950180D01*
X55150363Y-117950180D02*
X55436077Y-117950180D01*
X55436077Y-117950180D02*
X55531315Y-117997800D01*
X55531315Y-117997800D02*
X55578934Y-118045419D01*
X57020839Y-112857800D02*
X56877982Y-112810180D01*
X56877982Y-112810180D02*
X56639887Y-112810180D01*
X56639887Y-112810180D02*
X56544649Y-112857800D01*
X56544649Y-112857800D02*
X56497030Y-112905419D01*
X56497030Y-112905419D02*
X56449411Y-113000657D01*
X56449411Y-113000657D02*
X56449411Y-113095895D01*
X56449411Y-113095895D02*
X56497030Y-113191133D01*
X56497030Y-113191133D02*
X56544649Y-113238752D01*
X56544649Y-113238752D02*
X56639887Y-113286371D01*
X56639887Y-113286371D02*
X56830363Y-113333990D01*
X56830363Y-113333990D02*
X56925601Y-113381609D01*
X56925601Y-113381609D02*
X56973220Y-113429228D01*
X56973220Y-113429228D02*
X57020839Y-113524466D01*
X57020839Y-113524466D02*
X57020839Y-113619704D01*
X57020839Y-113619704D02*
X56973220Y-113714942D01*
X56973220Y-113714942D02*
X56925601Y-113762561D01*
X56925601Y-113762561D02*
X56830363Y-113810180D01*
X56830363Y-113810180D02*
X56592268Y-113810180D01*
X56592268Y-113810180D02*
X56449411Y-113762561D01*
X55449411Y-112905419D02*
X55497030Y-112857800D01*
X55497030Y-112857800D02*
X55639887Y-112810180D01*
X55639887Y-112810180D02*
X55735125Y-112810180D01*
X55735125Y-112810180D02*
X55877982Y-112857800D01*
X55877982Y-112857800D02*
X55973220Y-112953038D01*
X55973220Y-112953038D02*
X56020839Y-113048276D01*
X56020839Y-113048276D02*
X56068458Y-113238752D01*
X56068458Y-113238752D02*
X56068458Y-113381609D01*
X56068458Y-113381609D02*
X56020839Y-113572085D01*
X56020839Y-113572085D02*
X55973220Y-113667323D01*
X55973220Y-113667323D02*
X55877982Y-113762561D01*
X55877982Y-113762561D02*
X55735125Y-113810180D01*
X55735125Y-113810180D02*
X55639887Y-113810180D01*
X55639887Y-113810180D02*
X55497030Y-113762561D01*
X55497030Y-113762561D02*
X55449411Y-113714942D01*
X54544649Y-112810180D02*
X55020839Y-112810180D01*
X55020839Y-112810180D02*
X55020839Y-113810180D01*
X56960839Y-110307800D02*
X56817982Y-110260180D01*
X56817982Y-110260180D02*
X56579887Y-110260180D01*
X56579887Y-110260180D02*
X56484649Y-110307800D01*
X56484649Y-110307800D02*
X56437030Y-110355419D01*
X56437030Y-110355419D02*
X56389411Y-110450657D01*
X56389411Y-110450657D02*
X56389411Y-110545895D01*
X56389411Y-110545895D02*
X56437030Y-110641133D01*
X56437030Y-110641133D02*
X56484649Y-110688752D01*
X56484649Y-110688752D02*
X56579887Y-110736371D01*
X56579887Y-110736371D02*
X56770363Y-110783990D01*
X56770363Y-110783990D02*
X56865601Y-110831609D01*
X56865601Y-110831609D02*
X56913220Y-110879228D01*
X56913220Y-110879228D02*
X56960839Y-110974466D01*
X56960839Y-110974466D02*
X56960839Y-111069704D01*
X56960839Y-111069704D02*
X56913220Y-111164942D01*
X56913220Y-111164942D02*
X56865601Y-111212561D01*
X56865601Y-111212561D02*
X56770363Y-111260180D01*
X56770363Y-111260180D02*
X56532268Y-111260180D01*
X56532268Y-111260180D02*
X56389411Y-111212561D01*
X55960839Y-110260180D02*
X55960839Y-111260180D01*
X55960839Y-111260180D02*
X55722744Y-111260180D01*
X55722744Y-111260180D02*
X55579887Y-111212561D01*
X55579887Y-111212561D02*
X55484649Y-111117323D01*
X55484649Y-111117323D02*
X55437030Y-111022085D01*
X55437030Y-111022085D02*
X55389411Y-110831609D01*
X55389411Y-110831609D02*
X55389411Y-110688752D01*
X55389411Y-110688752D02*
X55437030Y-110498276D01*
X55437030Y-110498276D02*
X55484649Y-110403038D01*
X55484649Y-110403038D02*
X55579887Y-110307800D01*
X55579887Y-110307800D02*
X55722744Y-110260180D01*
X55722744Y-110260180D02*
X55960839Y-110260180D01*
X55008458Y-110545895D02*
X54532268Y-110545895D01*
X55103696Y-110260180D02*
X54770363Y-111260180D01*
X54770363Y-111260180D02*
X54437030Y-110260180D01*
X56980839Y-108065895D02*
X56504649Y-108065895D01*
X57076077Y-107780180D02*
X56742744Y-108780180D01*
X56742744Y-108780180D02*
X56409411Y-107780180D01*
X56076077Y-107780180D02*
X56076077Y-108780180D01*
X56076077Y-108780180D02*
X55837982Y-108780180D01*
X55837982Y-108780180D02*
X55695125Y-108732561D01*
X55695125Y-108732561D02*
X55599887Y-108637323D01*
X55599887Y-108637323D02*
X55552268Y-108542085D01*
X55552268Y-108542085D02*
X55504649Y-108351609D01*
X55504649Y-108351609D02*
X55504649Y-108208752D01*
X55504649Y-108208752D02*
X55552268Y-108018276D01*
X55552268Y-108018276D02*
X55599887Y-107923038D01*
X55599887Y-107923038D02*
X55695125Y-107827800D01*
X55695125Y-107827800D02*
X55837982Y-107780180D01*
X55837982Y-107780180D02*
X56076077Y-107780180D01*
X54885601Y-108780180D02*
X54790363Y-108780180D01*
X54790363Y-108780180D02*
X54695125Y-108732561D01*
X54695125Y-108732561D02*
X54647506Y-108684942D01*
X54647506Y-108684942D02*
X54599887Y-108589704D01*
X54599887Y-108589704D02*
X54552268Y-108399228D01*
X54552268Y-108399228D02*
X54552268Y-108161133D01*
X54552268Y-108161133D02*
X54599887Y-107970657D01*
X54599887Y-107970657D02*
X54647506Y-107875419D01*
X54647506Y-107875419D02*
X54695125Y-107827800D01*
X54695125Y-107827800D02*
X54790363Y-107780180D01*
X54790363Y-107780180D02*
X54885601Y-107780180D01*
X54885601Y-107780180D02*
X54980839Y-107827800D01*
X54980839Y-107827800D02*
X55028458Y-107875419D01*
X55028458Y-107875419D02*
X55076077Y-107970657D01*
X55076077Y-107970657D02*
X55123696Y-108161133D01*
X55123696Y-108161133D02*
X55123696Y-108399228D01*
X55123696Y-108399228D02*
X55076077Y-108589704D01*
X55076077Y-108589704D02*
X55028458Y-108684942D01*
X55028458Y-108684942D02*
X54980839Y-108732561D01*
X54980839Y-108732561D02*
X54885601Y-108780180D01*
X57043220Y-115330180D02*
X57043220Y-116330180D01*
X55852745Y-116377800D02*
X56709887Y-115092085D01*
X55328935Y-116330180D02*
X55138459Y-116330180D01*
X55138459Y-116330180D02*
X55043221Y-116282561D01*
X55043221Y-116282561D02*
X54947983Y-116187323D01*
X54947983Y-116187323D02*
X54900364Y-115996847D01*
X54900364Y-115996847D02*
X54900364Y-115663514D01*
X54900364Y-115663514D02*
X54947983Y-115473038D01*
X54947983Y-115473038D02*
X55043221Y-115377800D01*
X55043221Y-115377800D02*
X55138459Y-115330180D01*
X55138459Y-115330180D02*
X55328935Y-115330180D01*
X55328935Y-115330180D02*
X55424173Y-115377800D01*
X55424173Y-115377800D02*
X55519411Y-115473038D01*
X55519411Y-115473038D02*
X55567030Y-115663514D01*
X55567030Y-115663514D02*
X55567030Y-115996847D01*
X55567030Y-115996847D02*
X55519411Y-116187323D01*
X55519411Y-116187323D02*
X55424173Y-116282561D01*
X55424173Y-116282561D02*
X55328935Y-116330180D01*
X100784819Y-145001429D02*
X99784819Y-145001429D01*
X100737200Y-145001429D02*
X100784819Y-145096667D01*
X100784819Y-145096667D02*
X100784819Y-145287143D01*
X100784819Y-145287143D02*
X100737200Y-145382381D01*
X100737200Y-145382381D02*
X100689580Y-145430000D01*
X100689580Y-145430000D02*
X100594342Y-145477619D01*
X100594342Y-145477619D02*
X100308628Y-145477619D01*
X100308628Y-145477619D02*
X100213390Y-145430000D01*
X100213390Y-145430000D02*
X100165771Y-145382381D01*
X100165771Y-145382381D02*
X100118152Y-145287143D01*
X100118152Y-145287143D02*
X100118152Y-145096667D01*
X100118152Y-145096667D02*
X100165771Y-145001429D01*
X100784819Y-144096667D02*
X100261009Y-144096667D01*
X100261009Y-144096667D02*
X100165771Y-144144286D01*
X100165771Y-144144286D02*
X100118152Y-144239524D01*
X100118152Y-144239524D02*
X100118152Y-144430000D01*
X100118152Y-144430000D02*
X100165771Y-144525238D01*
X100737200Y-144096667D02*
X100784819Y-144191905D01*
X100784819Y-144191905D02*
X100784819Y-144430000D01*
X100784819Y-144430000D02*
X100737200Y-144525238D01*
X100737200Y-144525238D02*
X100641961Y-144572857D01*
X100641961Y-144572857D02*
X100546723Y-144572857D01*
X100546723Y-144572857D02*
X100451485Y-144525238D01*
X100451485Y-144525238D02*
X100403866Y-144430000D01*
X100403866Y-144430000D02*
X100403866Y-144191905D01*
X100403866Y-144191905D02*
X100356247Y-144096667D01*
X100118152Y-143715714D02*
X100784819Y-143477619D01*
X100118152Y-143239524D02*
X100784819Y-143477619D01*
X100784819Y-143477619D02*
X101022914Y-143572857D01*
X101022914Y-143572857D02*
X101070533Y-143620476D01*
X101070533Y-143620476D02*
X101118152Y-143715714D01*
X99737200Y-142144286D02*
X101022914Y-143001428D01*
X100118152Y-141810952D02*
X100784819Y-141810952D01*
X100213390Y-141810952D02*
X100165771Y-141763333D01*
X100165771Y-141763333D02*
X100118152Y-141668095D01*
X100118152Y-141668095D02*
X100118152Y-141525238D01*
X100118152Y-141525238D02*
X100165771Y-141430000D01*
X100165771Y-141430000D02*
X100261009Y-141382381D01*
X100261009Y-141382381D02*
X100784819Y-141382381D01*
X100784819Y-140906190D02*
X100118152Y-140906190D01*
X99784819Y-140906190D02*
X99832438Y-140953809D01*
X99832438Y-140953809D02*
X99880057Y-140906190D01*
X99880057Y-140906190D02*
X99832438Y-140858571D01*
X99832438Y-140858571D02*
X99784819Y-140906190D01*
X99784819Y-140906190D02*
X99880057Y-140906190D01*
X100118152Y-140001429D02*
X100927676Y-140001429D01*
X100927676Y-140001429D02*
X101022914Y-140049048D01*
X101022914Y-140049048D02*
X101070533Y-140096667D01*
X101070533Y-140096667D02*
X101118152Y-140191905D01*
X101118152Y-140191905D02*
X101118152Y-140334762D01*
X101118152Y-140334762D02*
X101070533Y-140430000D01*
X100737200Y-140001429D02*
X100784819Y-140096667D01*
X100784819Y-140096667D02*
X100784819Y-140287143D01*
X100784819Y-140287143D02*
X100737200Y-140382381D01*
X100737200Y-140382381D02*
X100689580Y-140430000D01*
X100689580Y-140430000D02*
X100594342Y-140477619D01*
X100594342Y-140477619D02*
X100308628Y-140477619D01*
X100308628Y-140477619D02*
X100213390Y-140430000D01*
X100213390Y-140430000D02*
X100165771Y-140382381D01*
X100165771Y-140382381D02*
X100118152Y-140287143D01*
X100118152Y-140287143D02*
X100118152Y-140096667D01*
X100118152Y-140096667D02*
X100165771Y-140001429D01*
X100784819Y-139525238D02*
X99784819Y-139525238D01*
X100784819Y-139096667D02*
X100261009Y-139096667D01*
X100261009Y-139096667D02*
X100165771Y-139144286D01*
X100165771Y-139144286D02*
X100118152Y-139239524D01*
X100118152Y-139239524D02*
X100118152Y-139382381D01*
X100118152Y-139382381D02*
X100165771Y-139477619D01*
X100165771Y-139477619D02*
X100213390Y-139525238D01*
X100118152Y-138763333D02*
X100118152Y-138382381D01*
X99784819Y-138620476D02*
X100641961Y-138620476D01*
X100641961Y-138620476D02*
X100737200Y-138572857D01*
X100737200Y-138572857D02*
X100784819Y-138477619D01*
X100784819Y-138477619D02*
X100784819Y-138382381D01*
X100403866Y-138049047D02*
X100403866Y-137287143D01*
X100737200Y-136858571D02*
X100784819Y-136763333D01*
X100784819Y-136763333D02*
X100784819Y-136572857D01*
X100784819Y-136572857D02*
X100737200Y-136477619D01*
X100737200Y-136477619D02*
X100641961Y-136430000D01*
X100641961Y-136430000D02*
X100594342Y-136430000D01*
X100594342Y-136430000D02*
X100499104Y-136477619D01*
X100499104Y-136477619D02*
X100451485Y-136572857D01*
X100451485Y-136572857D02*
X100451485Y-136715714D01*
X100451485Y-136715714D02*
X100403866Y-136810952D01*
X100403866Y-136810952D02*
X100308628Y-136858571D01*
X100308628Y-136858571D02*
X100261009Y-136858571D01*
X100261009Y-136858571D02*
X100165771Y-136810952D01*
X100165771Y-136810952D02*
X100118152Y-136715714D01*
X100118152Y-136715714D02*
X100118152Y-136572857D01*
X100118152Y-136572857D02*
X100165771Y-136477619D01*
X100737200Y-135620476D02*
X100784819Y-135715714D01*
X100784819Y-135715714D02*
X100784819Y-135906190D01*
X100784819Y-135906190D02*
X100737200Y-136001428D01*
X100737200Y-136001428D02*
X100641961Y-136049047D01*
X100641961Y-136049047D02*
X100261009Y-136049047D01*
X100261009Y-136049047D02*
X100165771Y-136001428D01*
X100165771Y-136001428D02*
X100118152Y-135906190D01*
X100118152Y-135906190D02*
X100118152Y-135715714D01*
X100118152Y-135715714D02*
X100165771Y-135620476D01*
X100165771Y-135620476D02*
X100261009Y-135572857D01*
X100261009Y-135572857D02*
X100356247Y-135572857D01*
X100356247Y-135572857D02*
X100451485Y-136049047D01*
X100118152Y-135144285D02*
X100784819Y-135144285D01*
X100213390Y-135144285D02*
X100165771Y-135096666D01*
X100165771Y-135096666D02*
X100118152Y-135001428D01*
X100118152Y-135001428D02*
X100118152Y-134858571D01*
X100118152Y-134858571D02*
X100165771Y-134763333D01*
X100165771Y-134763333D02*
X100261009Y-134715714D01*
X100261009Y-134715714D02*
X100784819Y-134715714D01*
X100737200Y-134287142D02*
X100784819Y-134191904D01*
X100784819Y-134191904D02*
X100784819Y-134001428D01*
X100784819Y-134001428D02*
X100737200Y-133906190D01*
X100737200Y-133906190D02*
X100641961Y-133858571D01*
X100641961Y-133858571D02*
X100594342Y-133858571D01*
X100594342Y-133858571D02*
X100499104Y-133906190D01*
X100499104Y-133906190D02*
X100451485Y-134001428D01*
X100451485Y-134001428D02*
X100451485Y-134144285D01*
X100451485Y-134144285D02*
X100403866Y-134239523D01*
X100403866Y-134239523D02*
X100308628Y-134287142D01*
X100308628Y-134287142D02*
X100261009Y-134287142D01*
X100261009Y-134287142D02*
X100165771Y-134239523D01*
X100165771Y-134239523D02*
X100118152Y-134144285D01*
X100118152Y-134144285D02*
X100118152Y-134001428D01*
X100118152Y-134001428D02*
X100165771Y-133906190D01*
X100784819Y-133287142D02*
X100737200Y-133382380D01*
X100737200Y-133382380D02*
X100689580Y-133429999D01*
X100689580Y-133429999D02*
X100594342Y-133477618D01*
X100594342Y-133477618D02*
X100308628Y-133477618D01*
X100308628Y-133477618D02*
X100213390Y-133429999D01*
X100213390Y-133429999D02*
X100165771Y-133382380D01*
X100165771Y-133382380D02*
X100118152Y-133287142D01*
X100118152Y-133287142D02*
X100118152Y-133144285D01*
X100118152Y-133144285D02*
X100165771Y-133049047D01*
X100165771Y-133049047D02*
X100213390Y-133001428D01*
X100213390Y-133001428D02*
X100308628Y-132953809D01*
X100308628Y-132953809D02*
X100594342Y-132953809D01*
X100594342Y-132953809D02*
X100689580Y-133001428D01*
X100689580Y-133001428D02*
X100737200Y-133049047D01*
X100737200Y-133049047D02*
X100784819Y-133144285D01*
X100784819Y-133144285D02*
X100784819Y-133287142D01*
X100784819Y-132525237D02*
X100118152Y-132525237D01*
X100308628Y-132525237D02*
X100213390Y-132477618D01*
X100213390Y-132477618D02*
X100165771Y-132429999D01*
X100165771Y-132429999D02*
X100118152Y-132334761D01*
X100118152Y-132334761D02*
X100118152Y-132239523D01*
X100784819Y-131382380D02*
X100784819Y-131953808D01*
X100784819Y-131668094D02*
X99784819Y-131668094D01*
X99784819Y-131668094D02*
X99927676Y-131763332D01*
X99927676Y-131763332D02*
X100022914Y-131858570D01*
X100022914Y-131858570D02*
X100070533Y-131953808D01*
X97099333Y-102690819D02*
X96766000Y-102214628D01*
X96527905Y-102690819D02*
X96527905Y-101690819D01*
X96527905Y-101690819D02*
X96908857Y-101690819D01*
X96908857Y-101690819D02*
X97004095Y-101738438D01*
X97004095Y-101738438D02*
X97051714Y-101786057D01*
X97051714Y-101786057D02*
X97099333Y-101881295D01*
X97099333Y-101881295D02*
X97099333Y-102024152D01*
X97099333Y-102024152D02*
X97051714Y-102119390D01*
X97051714Y-102119390D02*
X97004095Y-102167009D01*
X97004095Y-102167009D02*
X96908857Y-102214628D01*
X96908857Y-102214628D02*
X96527905Y-102214628D01*
X97480286Y-101786057D02*
X97527905Y-101738438D01*
X97527905Y-101738438D02*
X97623143Y-101690819D01*
X97623143Y-101690819D02*
X97861238Y-101690819D01*
X97861238Y-101690819D02*
X97956476Y-101738438D01*
X97956476Y-101738438D02*
X98004095Y-101786057D01*
X98004095Y-101786057D02*
X98051714Y-101881295D01*
X98051714Y-101881295D02*
X98051714Y-101976533D01*
X98051714Y-101976533D02*
X98004095Y-102119390D01*
X98004095Y-102119390D02*
X97432667Y-102690819D01*
X97432667Y-102690819D02*
X98051714Y-102690819D01*
X111196819Y-127690475D02*
X110196819Y-127690475D01*
X110196819Y-127690475D02*
X110196819Y-127309523D01*
X110196819Y-127309523D02*
X110244438Y-127214285D01*
X110244438Y-127214285D02*
X110292057Y-127166666D01*
X110292057Y-127166666D02*
X110387295Y-127119047D01*
X110387295Y-127119047D02*
X110530152Y-127119047D01*
X110530152Y-127119047D02*
X110625390Y-127166666D01*
X110625390Y-127166666D02*
X110673009Y-127214285D01*
X110673009Y-127214285D02*
X110720628Y-127309523D01*
X110720628Y-127309523D02*
X110720628Y-127690475D01*
X110196819Y-126833332D02*
X111196819Y-126499999D01*
X111196819Y-126499999D02*
X110196819Y-126166666D01*
X34513095Y-58454819D02*
X34513095Y-57454819D01*
X34513095Y-57931009D02*
X35084523Y-57931009D01*
X35084523Y-58454819D02*
X35084523Y-57454819D01*
X35989285Y-57788152D02*
X35989285Y-58454819D01*
X35751190Y-57407200D02*
X35513095Y-58121485D01*
X35513095Y-58121485D02*
X36132142Y-58121485D01*
X31924761Y-65766819D02*
X31353333Y-65766819D01*
X31639047Y-65766819D02*
X31639047Y-64766819D01*
X31639047Y-64766819D02*
X31543809Y-64909676D01*
X31543809Y-64909676D02*
X31448571Y-65004914D01*
X31448571Y-65004914D02*
X31353333Y-65052533D01*
X32305714Y-64862057D02*
X32353333Y-64814438D01*
X32353333Y-64814438D02*
X32448571Y-64766819D01*
X32448571Y-64766819D02*
X32686666Y-64766819D01*
X32686666Y-64766819D02*
X32781904Y-64814438D01*
X32781904Y-64814438D02*
X32829523Y-64862057D01*
X32829523Y-64862057D02*
X32877142Y-64957295D01*
X32877142Y-64957295D02*
X32877142Y-65052533D01*
X32877142Y-65052533D02*
X32829523Y-65195390D01*
X32829523Y-65195390D02*
X32258095Y-65766819D01*
X32258095Y-65766819D02*
X32877142Y-65766819D01*
X33162857Y-64766819D02*
X33496190Y-65766819D01*
X33496190Y-65766819D02*
X33829523Y-64766819D01*
X34686666Y-65766819D02*
X34115238Y-65766819D01*
X34400952Y-65766819D02*
X34400952Y-64766819D01*
X34400952Y-64766819D02*
X34305714Y-64909676D01*
X34305714Y-64909676D02*
X34210476Y-65004914D01*
X34210476Y-65004914D02*
X34115238Y-65052533D01*
X40124285Y-64724819D02*
X39552857Y-64724819D01*
X39838571Y-64724819D02*
X39838571Y-63724819D01*
X39838571Y-63724819D02*
X39743333Y-63867676D01*
X39743333Y-63867676D02*
X39648095Y-63962914D01*
X39648095Y-63962914D02*
X39552857Y-64010533D01*
X40505238Y-63820057D02*
X40552857Y-63772438D01*
X40552857Y-63772438D02*
X40648095Y-63724819D01*
X40648095Y-63724819D02*
X40886190Y-63724819D01*
X40886190Y-63724819D02*
X40981428Y-63772438D01*
X40981428Y-63772438D02*
X41029047Y-63820057D01*
X41029047Y-63820057D02*
X41076666Y-63915295D01*
X41076666Y-63915295D02*
X41076666Y-64010533D01*
X41076666Y-64010533D02*
X41029047Y-64153390D01*
X41029047Y-64153390D02*
X40457619Y-64724819D01*
X40457619Y-64724819D02*
X41076666Y-64724819D01*
X41362381Y-63724819D02*
X41695714Y-64724819D01*
X41695714Y-64724819D02*
X42029047Y-63724819D01*
X42362381Y-64724819D02*
X42362381Y-64058152D01*
X42362381Y-63724819D02*
X42314762Y-63772438D01*
X42314762Y-63772438D02*
X42362381Y-63820057D01*
X42362381Y-63820057D02*
X42410000Y-63772438D01*
X42410000Y-63772438D02*
X42362381Y-63724819D01*
X42362381Y-63724819D02*
X42362381Y-63820057D01*
X42838571Y-64058152D02*
X42838571Y-64724819D01*
X42838571Y-64153390D02*
X42886190Y-64105771D01*
X42886190Y-64105771D02*
X42981428Y-64058152D01*
X42981428Y-64058152D02*
X43124285Y-64058152D01*
X43124285Y-64058152D02*
X43219523Y-64105771D01*
X43219523Y-64105771D02*
X43267142Y-64201009D01*
X43267142Y-64201009D02*
X43267142Y-64724819D01*
X44267142Y-64724819D02*
X43695714Y-64724819D01*
X43981428Y-64724819D02*
X43981428Y-63724819D01*
X43981428Y-63724819D02*
X43886190Y-63867676D01*
X43886190Y-63867676D02*
X43790952Y-63962914D01*
X43790952Y-63962914D02*
X43695714Y-64010533D01*
X37132380Y-88084819D02*
X37132380Y-87418152D01*
X37132380Y-87513390D02*
X37179999Y-87465771D01*
X37179999Y-87465771D02*
X37275237Y-87418152D01*
X37275237Y-87418152D02*
X37418094Y-87418152D01*
X37418094Y-87418152D02*
X37513332Y-87465771D01*
X37513332Y-87465771D02*
X37560951Y-87561009D01*
X37560951Y-87561009D02*
X37560951Y-88084819D01*
X37560951Y-87561009D02*
X37608570Y-87465771D01*
X37608570Y-87465771D02*
X37703808Y-87418152D01*
X37703808Y-87418152D02*
X37846665Y-87418152D01*
X37846665Y-87418152D02*
X37941904Y-87465771D01*
X37941904Y-87465771D02*
X37989523Y-87561009D01*
X37989523Y-87561009D02*
X37989523Y-88084819D01*
X38608570Y-88084819D02*
X38513332Y-88037200D01*
X38513332Y-88037200D02*
X38465713Y-87989580D01*
X38465713Y-87989580D02*
X38418094Y-87894342D01*
X38418094Y-87894342D02*
X38418094Y-87608628D01*
X38418094Y-87608628D02*
X38465713Y-87513390D01*
X38465713Y-87513390D02*
X38513332Y-87465771D01*
X38513332Y-87465771D02*
X38608570Y-87418152D01*
X38608570Y-87418152D02*
X38751427Y-87418152D01*
X38751427Y-87418152D02*
X38846665Y-87465771D01*
X38846665Y-87465771D02*
X38894284Y-87513390D01*
X38894284Y-87513390D02*
X38941903Y-87608628D01*
X38941903Y-87608628D02*
X38941903Y-87894342D01*
X38941903Y-87894342D02*
X38894284Y-87989580D01*
X38894284Y-87989580D02*
X38846665Y-88037200D01*
X38846665Y-88037200D02*
X38751427Y-88084819D01*
X38751427Y-88084819D02*
X38608570Y-88084819D01*
X39322856Y-88037200D02*
X39418094Y-88084819D01*
X39418094Y-88084819D02*
X39608570Y-88084819D01*
X39608570Y-88084819D02*
X39703808Y-88037200D01*
X39703808Y-88037200D02*
X39751427Y-87941961D01*
X39751427Y-87941961D02*
X39751427Y-87894342D01*
X39751427Y-87894342D02*
X39703808Y-87799104D01*
X39703808Y-87799104D02*
X39608570Y-87751485D01*
X39608570Y-87751485D02*
X39465713Y-87751485D01*
X39465713Y-87751485D02*
X39370475Y-87703866D01*
X39370475Y-87703866D02*
X39322856Y-87608628D01*
X39322856Y-87608628D02*
X39322856Y-87561009D01*
X39322856Y-87561009D02*
X39370475Y-87465771D01*
X39370475Y-87465771D02*
X39465713Y-87418152D01*
X39465713Y-87418152D02*
X39608570Y-87418152D01*
X39608570Y-87418152D02*
X39703808Y-87465771D01*
X40037142Y-87418152D02*
X40418094Y-87418152D01*
X40179999Y-88084819D02*
X40179999Y-87227676D01*
X40179999Y-87227676D02*
X40227618Y-87132438D01*
X40227618Y-87132438D02*
X40322856Y-87084819D01*
X40322856Y-87084819D02*
X40418094Y-87084819D01*
X41132380Y-88037200D02*
X41037142Y-88084819D01*
X41037142Y-88084819D02*
X40846666Y-88084819D01*
X40846666Y-88084819D02*
X40751428Y-88037200D01*
X40751428Y-88037200D02*
X40703809Y-87941961D01*
X40703809Y-87941961D02*
X40703809Y-87561009D01*
X40703809Y-87561009D02*
X40751428Y-87465771D01*
X40751428Y-87465771D02*
X40846666Y-87418152D01*
X40846666Y-87418152D02*
X41037142Y-87418152D01*
X41037142Y-87418152D02*
X41132380Y-87465771D01*
X41132380Y-87465771D02*
X41179999Y-87561009D01*
X41179999Y-87561009D02*
X41179999Y-87656247D01*
X41179999Y-87656247D02*
X40703809Y-87751485D01*
X41465714Y-87418152D02*
X41846666Y-87418152D01*
X41608571Y-87084819D02*
X41608571Y-87941961D01*
X41608571Y-87941961D02*
X41656190Y-88037200D01*
X41656190Y-88037200D02*
X41751428Y-88084819D01*
X41751428Y-88084819D02*
X41846666Y-88084819D01*
X42180000Y-87703866D02*
X42941905Y-87703866D01*
X43846666Y-88037200D02*
X43751428Y-88084819D01*
X43751428Y-88084819D02*
X43560952Y-88084819D01*
X43560952Y-88084819D02*
X43465714Y-88037200D01*
X43465714Y-88037200D02*
X43418095Y-87989580D01*
X43418095Y-87989580D02*
X43370476Y-87894342D01*
X43370476Y-87894342D02*
X43370476Y-87608628D01*
X43370476Y-87608628D02*
X43418095Y-87513390D01*
X43418095Y-87513390D02*
X43465714Y-87465771D01*
X43465714Y-87465771D02*
X43560952Y-87418152D01*
X43560952Y-87418152D02*
X43751428Y-87418152D01*
X43751428Y-87418152D02*
X43846666Y-87465771D01*
X44703809Y-87418152D02*
X44703809Y-88084819D01*
X44275238Y-87418152D02*
X44275238Y-87941961D01*
X44275238Y-87941961D02*
X44322857Y-88037200D01*
X44322857Y-88037200D02*
X44418095Y-88084819D01*
X44418095Y-88084819D02*
X44560952Y-88084819D01*
X44560952Y-88084819D02*
X44656190Y-88037200D01*
X44656190Y-88037200D02*
X44703809Y-87989580D01*
X45180000Y-88084819D02*
X45180000Y-87418152D01*
X45180000Y-87608628D02*
X45227619Y-87513390D01*
X45227619Y-87513390D02*
X45275238Y-87465771D01*
X45275238Y-87465771D02*
X45370476Y-87418152D01*
X45370476Y-87418152D02*
X45465714Y-87418152D01*
X45799048Y-88084819D02*
X45799048Y-87418152D01*
X45799048Y-87608628D02*
X45846667Y-87513390D01*
X45846667Y-87513390D02*
X45894286Y-87465771D01*
X45894286Y-87465771D02*
X45989524Y-87418152D01*
X45989524Y-87418152D02*
X46084762Y-87418152D01*
X46799048Y-88037200D02*
X46703810Y-88084819D01*
X46703810Y-88084819D02*
X46513334Y-88084819D01*
X46513334Y-88084819D02*
X46418096Y-88037200D01*
X46418096Y-88037200D02*
X46370477Y-87941961D01*
X46370477Y-87941961D02*
X46370477Y-87561009D01*
X46370477Y-87561009D02*
X46418096Y-87465771D01*
X46418096Y-87465771D02*
X46513334Y-87418152D01*
X46513334Y-87418152D02*
X46703810Y-87418152D01*
X46703810Y-87418152D02*
X46799048Y-87465771D01*
X46799048Y-87465771D02*
X46846667Y-87561009D01*
X46846667Y-87561009D02*
X46846667Y-87656247D01*
X46846667Y-87656247D02*
X46370477Y-87751485D01*
X47275239Y-87418152D02*
X47275239Y-88084819D01*
X47275239Y-87513390D02*
X47322858Y-87465771D01*
X47322858Y-87465771D02*
X47418096Y-87418152D01*
X47418096Y-87418152D02*
X47560953Y-87418152D01*
X47560953Y-87418152D02*
X47656191Y-87465771D01*
X47656191Y-87465771D02*
X47703810Y-87561009D01*
X47703810Y-87561009D02*
X47703810Y-88084819D01*
X48037144Y-87418152D02*
X48418096Y-87418152D01*
X48180001Y-87084819D02*
X48180001Y-87941961D01*
X48180001Y-87941961D02*
X48227620Y-88037200D01*
X48227620Y-88037200D02*
X48322858Y-88084819D01*
X48322858Y-88084819D02*
X48418096Y-88084819D01*
X48656192Y-87084819D02*
X49275239Y-87084819D01*
X49275239Y-87084819D02*
X48941906Y-87465771D01*
X48941906Y-87465771D02*
X49084763Y-87465771D01*
X49084763Y-87465771D02*
X49180001Y-87513390D01*
X49180001Y-87513390D02*
X49227620Y-87561009D01*
X49227620Y-87561009D02*
X49275239Y-87656247D01*
X49275239Y-87656247D02*
X49275239Y-87894342D01*
X49275239Y-87894342D02*
X49227620Y-87989580D01*
X49227620Y-87989580D02*
X49180001Y-88037200D01*
X49180001Y-88037200D02*
X49084763Y-88084819D01*
X49084763Y-88084819D02*
X48799049Y-88084819D01*
X48799049Y-88084819D02*
X48703811Y-88037200D01*
X48703811Y-88037200D02*
X48656192Y-87989580D01*
X56749411Y-96340180D02*
X57320839Y-96340180D01*
X57035125Y-96340180D02*
X57035125Y-97340180D01*
X57035125Y-97340180D02*
X57130363Y-97197323D01*
X57130363Y-97197323D02*
X57225601Y-97102085D01*
X57225601Y-97102085D02*
X57320839Y-97054466D01*
X56368458Y-97244942D02*
X56320839Y-97292561D01*
X56320839Y-97292561D02*
X56225601Y-97340180D01*
X56225601Y-97340180D02*
X55987506Y-97340180D01*
X55987506Y-97340180D02*
X55892268Y-97292561D01*
X55892268Y-97292561D02*
X55844649Y-97244942D01*
X55844649Y-97244942D02*
X55797030Y-97149704D01*
X55797030Y-97149704D02*
X55797030Y-97054466D01*
X55797030Y-97054466D02*
X55844649Y-96911609D01*
X55844649Y-96911609D02*
X56416077Y-96340180D01*
X56416077Y-96340180D02*
X55797030Y-96340180D01*
X55511315Y-97340180D02*
X55177982Y-96340180D01*
X55177982Y-96340180D02*
X54844649Y-97340180D01*
X57020839Y-88737800D02*
X56877982Y-88690180D01*
X56877982Y-88690180D02*
X56639887Y-88690180D01*
X56639887Y-88690180D02*
X56544649Y-88737800D01*
X56544649Y-88737800D02*
X56497030Y-88785419D01*
X56497030Y-88785419D02*
X56449411Y-88880657D01*
X56449411Y-88880657D02*
X56449411Y-88975895D01*
X56449411Y-88975895D02*
X56497030Y-89071133D01*
X56497030Y-89071133D02*
X56544649Y-89118752D01*
X56544649Y-89118752D02*
X56639887Y-89166371D01*
X56639887Y-89166371D02*
X56830363Y-89213990D01*
X56830363Y-89213990D02*
X56925601Y-89261609D01*
X56925601Y-89261609D02*
X56973220Y-89309228D01*
X56973220Y-89309228D02*
X57020839Y-89404466D01*
X57020839Y-89404466D02*
X57020839Y-89499704D01*
X57020839Y-89499704D02*
X56973220Y-89594942D01*
X56973220Y-89594942D02*
X56925601Y-89642561D01*
X56925601Y-89642561D02*
X56830363Y-89690180D01*
X56830363Y-89690180D02*
X56592268Y-89690180D01*
X56592268Y-89690180D02*
X56449411Y-89642561D01*
X55449411Y-88785419D02*
X55497030Y-88737800D01*
X55497030Y-88737800D02*
X55639887Y-88690180D01*
X55639887Y-88690180D02*
X55735125Y-88690180D01*
X55735125Y-88690180D02*
X55877982Y-88737800D01*
X55877982Y-88737800D02*
X55973220Y-88833038D01*
X55973220Y-88833038D02*
X56020839Y-88928276D01*
X56020839Y-88928276D02*
X56068458Y-89118752D01*
X56068458Y-89118752D02*
X56068458Y-89261609D01*
X56068458Y-89261609D02*
X56020839Y-89452085D01*
X56020839Y-89452085D02*
X55973220Y-89547323D01*
X55973220Y-89547323D02*
X55877982Y-89642561D01*
X55877982Y-89642561D02*
X55735125Y-89690180D01*
X55735125Y-89690180D02*
X55639887Y-89690180D01*
X55639887Y-89690180D02*
X55497030Y-89642561D01*
X55497030Y-89642561D02*
X55449411Y-89594942D01*
X54544649Y-88690180D02*
X55020839Y-88690180D01*
X55020839Y-88690180D02*
X55020839Y-89690180D01*
X57043220Y-91210180D02*
X57043220Y-92210180D01*
X55852745Y-92257800D02*
X56709887Y-90972085D01*
X55328935Y-92210180D02*
X55138459Y-92210180D01*
X55138459Y-92210180D02*
X55043221Y-92162561D01*
X55043221Y-92162561D02*
X54947983Y-92067323D01*
X54947983Y-92067323D02*
X54900364Y-91876847D01*
X54900364Y-91876847D02*
X54900364Y-91543514D01*
X54900364Y-91543514D02*
X54947983Y-91353038D01*
X54947983Y-91353038D02*
X55043221Y-91257800D01*
X55043221Y-91257800D02*
X55138459Y-91210180D01*
X55138459Y-91210180D02*
X55328935Y-91210180D01*
X55328935Y-91210180D02*
X55424173Y-91257800D01*
X55424173Y-91257800D02*
X55519411Y-91353038D01*
X55519411Y-91353038D02*
X55567030Y-91543514D01*
X55567030Y-91543514D02*
X55567030Y-91876847D01*
X55567030Y-91876847D02*
X55519411Y-92067323D01*
X55519411Y-92067323D02*
X55424173Y-92162561D01*
X55424173Y-92162561D02*
X55328935Y-92210180D01*
X56409411Y-82022561D02*
X56504649Y-82070180D01*
X56504649Y-82070180D02*
X56647506Y-82070180D01*
X56647506Y-82070180D02*
X56790363Y-82022561D01*
X56790363Y-82022561D02*
X56885601Y-81927323D01*
X56885601Y-81927323D02*
X56933220Y-81832085D01*
X56933220Y-81832085D02*
X56980839Y-81641609D01*
X56980839Y-81641609D02*
X56980839Y-81498752D01*
X56980839Y-81498752D02*
X56933220Y-81308276D01*
X56933220Y-81308276D02*
X56885601Y-81213038D01*
X56885601Y-81213038D02*
X56790363Y-81117800D01*
X56790363Y-81117800D02*
X56647506Y-81070180D01*
X56647506Y-81070180D02*
X56552268Y-81070180D01*
X56552268Y-81070180D02*
X56409411Y-81117800D01*
X56409411Y-81117800D02*
X56361792Y-81165419D01*
X56361792Y-81165419D02*
X56361792Y-81498752D01*
X56361792Y-81498752D02*
X56552268Y-81498752D01*
X55933220Y-81070180D02*
X55933220Y-82070180D01*
X55933220Y-82070180D02*
X55361792Y-81070180D01*
X55361792Y-81070180D02*
X55361792Y-82070180D01*
X54885601Y-81070180D02*
X54885601Y-82070180D01*
X54885601Y-82070180D02*
X54647506Y-82070180D01*
X54647506Y-82070180D02*
X54504649Y-82022561D01*
X54504649Y-82022561D02*
X54409411Y-81927323D01*
X54409411Y-81927323D02*
X54361792Y-81832085D01*
X54361792Y-81832085D02*
X54314173Y-81641609D01*
X54314173Y-81641609D02*
X54314173Y-81498752D01*
X54314173Y-81498752D02*
X54361792Y-81308276D01*
X54361792Y-81308276D02*
X54409411Y-81213038D01*
X54409411Y-81213038D02*
X54504649Y-81117800D01*
X54504649Y-81117800D02*
X54647506Y-81070180D01*
X54647506Y-81070180D02*
X54885601Y-81070180D01*
X56980839Y-83945895D02*
X56504649Y-83945895D01*
X57076077Y-83660180D02*
X56742744Y-84660180D01*
X56742744Y-84660180D02*
X56409411Y-83660180D01*
X56076077Y-83660180D02*
X56076077Y-84660180D01*
X56076077Y-84660180D02*
X55837982Y-84660180D01*
X55837982Y-84660180D02*
X55695125Y-84612561D01*
X55695125Y-84612561D02*
X55599887Y-84517323D01*
X55599887Y-84517323D02*
X55552268Y-84422085D01*
X55552268Y-84422085D02*
X55504649Y-84231609D01*
X55504649Y-84231609D02*
X55504649Y-84088752D01*
X55504649Y-84088752D02*
X55552268Y-83898276D01*
X55552268Y-83898276D02*
X55599887Y-83803038D01*
X55599887Y-83803038D02*
X55695125Y-83707800D01*
X55695125Y-83707800D02*
X55837982Y-83660180D01*
X55837982Y-83660180D02*
X56076077Y-83660180D01*
X54885601Y-84660180D02*
X54790363Y-84660180D01*
X54790363Y-84660180D02*
X54695125Y-84612561D01*
X54695125Y-84612561D02*
X54647506Y-84564942D01*
X54647506Y-84564942D02*
X54599887Y-84469704D01*
X54599887Y-84469704D02*
X54552268Y-84279228D01*
X54552268Y-84279228D02*
X54552268Y-84041133D01*
X54552268Y-84041133D02*
X54599887Y-83850657D01*
X54599887Y-83850657D02*
X54647506Y-83755419D01*
X54647506Y-83755419D02*
X54695125Y-83707800D01*
X54695125Y-83707800D02*
X54790363Y-83660180D01*
X54790363Y-83660180D02*
X54885601Y-83660180D01*
X54885601Y-83660180D02*
X54980839Y-83707800D01*
X54980839Y-83707800D02*
X55028458Y-83755419D01*
X55028458Y-83755419D02*
X55076077Y-83850657D01*
X55076077Y-83850657D02*
X55123696Y-84041133D01*
X55123696Y-84041133D02*
X55123696Y-84279228D01*
X55123696Y-84279228D02*
X55076077Y-84469704D01*
X55076077Y-84469704D02*
X55028458Y-84564942D01*
X55028458Y-84564942D02*
X54980839Y-84612561D01*
X54980839Y-84612561D02*
X54885601Y-84660180D01*
X57388458Y-94830180D02*
X56769411Y-94830180D01*
X56769411Y-94830180D02*
X57102744Y-94449228D01*
X57102744Y-94449228D02*
X56959887Y-94449228D01*
X56959887Y-94449228D02*
X56864649Y-94401609D01*
X56864649Y-94401609D02*
X56817030Y-94353990D01*
X56817030Y-94353990D02*
X56769411Y-94258752D01*
X56769411Y-94258752D02*
X56769411Y-94020657D01*
X56769411Y-94020657D02*
X56817030Y-93925419D01*
X56817030Y-93925419D02*
X56864649Y-93877800D01*
X56864649Y-93877800D02*
X56959887Y-93830180D01*
X56959887Y-93830180D02*
X57245601Y-93830180D01*
X57245601Y-93830180D02*
X57340839Y-93877800D01*
X57340839Y-93877800D02*
X57388458Y-93925419D01*
X56483696Y-94830180D02*
X56150363Y-93830180D01*
X56150363Y-93830180D02*
X55817030Y-94830180D01*
X55578934Y-94830180D02*
X54959887Y-94830180D01*
X54959887Y-94830180D02*
X55293220Y-94449228D01*
X55293220Y-94449228D02*
X55150363Y-94449228D01*
X55150363Y-94449228D02*
X55055125Y-94401609D01*
X55055125Y-94401609D02*
X55007506Y-94353990D01*
X55007506Y-94353990D02*
X54959887Y-94258752D01*
X54959887Y-94258752D02*
X54959887Y-94020657D01*
X54959887Y-94020657D02*
X55007506Y-93925419D01*
X55007506Y-93925419D02*
X55055125Y-93877800D01*
X55055125Y-93877800D02*
X55150363Y-93830180D01*
X55150363Y-93830180D02*
X55436077Y-93830180D01*
X55436077Y-93830180D02*
X55531315Y-93877800D01*
X55531315Y-93877800D02*
X55578934Y-93925419D01*
X56960839Y-86187800D02*
X56817982Y-86140180D01*
X56817982Y-86140180D02*
X56579887Y-86140180D01*
X56579887Y-86140180D02*
X56484649Y-86187800D01*
X56484649Y-86187800D02*
X56437030Y-86235419D01*
X56437030Y-86235419D02*
X56389411Y-86330657D01*
X56389411Y-86330657D02*
X56389411Y-86425895D01*
X56389411Y-86425895D02*
X56437030Y-86521133D01*
X56437030Y-86521133D02*
X56484649Y-86568752D01*
X56484649Y-86568752D02*
X56579887Y-86616371D01*
X56579887Y-86616371D02*
X56770363Y-86663990D01*
X56770363Y-86663990D02*
X56865601Y-86711609D01*
X56865601Y-86711609D02*
X56913220Y-86759228D01*
X56913220Y-86759228D02*
X56960839Y-86854466D01*
X56960839Y-86854466D02*
X56960839Y-86949704D01*
X56960839Y-86949704D02*
X56913220Y-87044942D01*
X56913220Y-87044942D02*
X56865601Y-87092561D01*
X56865601Y-87092561D02*
X56770363Y-87140180D01*
X56770363Y-87140180D02*
X56532268Y-87140180D01*
X56532268Y-87140180D02*
X56389411Y-87092561D01*
X55960839Y-86140180D02*
X55960839Y-87140180D01*
X55960839Y-87140180D02*
X55722744Y-87140180D01*
X55722744Y-87140180D02*
X55579887Y-87092561D01*
X55579887Y-87092561D02*
X55484649Y-86997323D01*
X55484649Y-86997323D02*
X55437030Y-86902085D01*
X55437030Y-86902085D02*
X55389411Y-86711609D01*
X55389411Y-86711609D02*
X55389411Y-86568752D01*
X55389411Y-86568752D02*
X55437030Y-86378276D01*
X55437030Y-86378276D02*
X55484649Y-86283038D01*
X55484649Y-86283038D02*
X55579887Y-86187800D01*
X55579887Y-86187800D02*
X55722744Y-86140180D01*
X55722744Y-86140180D02*
X55960839Y-86140180D01*
X55008458Y-86425895D02*
X54532268Y-86425895D01*
X55103696Y-86140180D02*
X54770363Y-87140180D01*
X54770363Y-87140180D02*
X54437030Y-86140180D01*
X102074819Y-120506666D02*
X101074819Y-120506666D01*
X101074819Y-120506666D02*
X101074819Y-120125714D01*
X101074819Y-120125714D02*
X101122438Y-120030476D01*
X101122438Y-120030476D02*
X101170057Y-119982857D01*
X101170057Y-119982857D02*
X101265295Y-119935238D01*
X101265295Y-119935238D02*
X101408152Y-119935238D01*
X101408152Y-119935238D02*
X101503390Y-119982857D01*
X101503390Y-119982857D02*
X101551009Y-120030476D01*
X101551009Y-120030476D02*
X101598628Y-120125714D01*
X101598628Y-120125714D02*
X101598628Y-120506666D01*
X101074819Y-119649523D02*
X102074819Y-119316190D01*
X102074819Y-119316190D02*
X101074819Y-118982857D01*
X102074819Y-118125714D02*
X102074819Y-118697142D01*
X102074819Y-118411428D02*
X101074819Y-118411428D01*
X101074819Y-118411428D02*
X101217676Y-118506666D01*
X101217676Y-118506666D02*
X101312914Y-118601904D01*
X101312914Y-118601904D02*
X101360533Y-118697142D01*
X110421009Y-99798095D02*
X110468628Y-99655238D01*
X110468628Y-99655238D02*
X110516247Y-99607619D01*
X110516247Y-99607619D02*
X110611485Y-99560000D01*
X110611485Y-99560000D02*
X110754342Y-99560000D01*
X110754342Y-99560000D02*
X110849580Y-99607619D01*
X110849580Y-99607619D02*
X110897200Y-99655238D01*
X110897200Y-99655238D02*
X110944819Y-99750476D01*
X110944819Y-99750476D02*
X110944819Y-100131428D01*
X110944819Y-100131428D02*
X109944819Y-100131428D01*
X109944819Y-100131428D02*
X109944819Y-99798095D01*
X109944819Y-99798095D02*
X109992438Y-99702857D01*
X109992438Y-99702857D02*
X110040057Y-99655238D01*
X110040057Y-99655238D02*
X110135295Y-99607619D01*
X110135295Y-99607619D02*
X110230533Y-99607619D01*
X110230533Y-99607619D02*
X110325771Y-99655238D01*
X110325771Y-99655238D02*
X110373390Y-99702857D01*
X110373390Y-99702857D02*
X110421009Y-99798095D01*
X110421009Y-99798095D02*
X110421009Y-100131428D01*
X110659104Y-99179047D02*
X110659104Y-98702857D01*
X110944819Y-99274285D02*
X109944819Y-98940952D01*
X109944819Y-98940952D02*
X110944819Y-98607619D01*
X109944819Y-98417142D02*
X109944819Y-97845714D01*
X110944819Y-98131428D02*
X109944819Y-98131428D01*
X37233980Y-136344819D02*
X37233980Y-135678152D01*
X37233980Y-135773390D02*
X37281599Y-135725771D01*
X37281599Y-135725771D02*
X37376837Y-135678152D01*
X37376837Y-135678152D02*
X37519694Y-135678152D01*
X37519694Y-135678152D02*
X37614932Y-135725771D01*
X37614932Y-135725771D02*
X37662551Y-135821009D01*
X37662551Y-135821009D02*
X37662551Y-136344819D01*
X37662551Y-135821009D02*
X37710170Y-135725771D01*
X37710170Y-135725771D02*
X37805408Y-135678152D01*
X37805408Y-135678152D02*
X37948265Y-135678152D01*
X37948265Y-135678152D02*
X38043504Y-135725771D01*
X38043504Y-135725771D02*
X38091123Y-135821009D01*
X38091123Y-135821009D02*
X38091123Y-136344819D01*
X38710170Y-136344819D02*
X38614932Y-136297200D01*
X38614932Y-136297200D02*
X38567313Y-136249580D01*
X38567313Y-136249580D02*
X38519694Y-136154342D01*
X38519694Y-136154342D02*
X38519694Y-135868628D01*
X38519694Y-135868628D02*
X38567313Y-135773390D01*
X38567313Y-135773390D02*
X38614932Y-135725771D01*
X38614932Y-135725771D02*
X38710170Y-135678152D01*
X38710170Y-135678152D02*
X38853027Y-135678152D01*
X38853027Y-135678152D02*
X38948265Y-135725771D01*
X38948265Y-135725771D02*
X38995884Y-135773390D01*
X38995884Y-135773390D02*
X39043503Y-135868628D01*
X39043503Y-135868628D02*
X39043503Y-136154342D01*
X39043503Y-136154342D02*
X38995884Y-136249580D01*
X38995884Y-136249580D02*
X38948265Y-136297200D01*
X38948265Y-136297200D02*
X38853027Y-136344819D01*
X38853027Y-136344819D02*
X38710170Y-136344819D01*
X39424456Y-136297200D02*
X39519694Y-136344819D01*
X39519694Y-136344819D02*
X39710170Y-136344819D01*
X39710170Y-136344819D02*
X39805408Y-136297200D01*
X39805408Y-136297200D02*
X39853027Y-136201961D01*
X39853027Y-136201961D02*
X39853027Y-136154342D01*
X39853027Y-136154342D02*
X39805408Y-136059104D01*
X39805408Y-136059104D02*
X39710170Y-136011485D01*
X39710170Y-136011485D02*
X39567313Y-136011485D01*
X39567313Y-136011485D02*
X39472075Y-135963866D01*
X39472075Y-135963866D02*
X39424456Y-135868628D01*
X39424456Y-135868628D02*
X39424456Y-135821009D01*
X39424456Y-135821009D02*
X39472075Y-135725771D01*
X39472075Y-135725771D02*
X39567313Y-135678152D01*
X39567313Y-135678152D02*
X39710170Y-135678152D01*
X39710170Y-135678152D02*
X39805408Y-135725771D01*
X40138742Y-135678152D02*
X40519694Y-135678152D01*
X40281599Y-136344819D02*
X40281599Y-135487676D01*
X40281599Y-135487676D02*
X40329218Y-135392438D01*
X40329218Y-135392438D02*
X40424456Y-135344819D01*
X40424456Y-135344819D02*
X40519694Y-135344819D01*
X41233980Y-136297200D02*
X41138742Y-136344819D01*
X41138742Y-136344819D02*
X40948266Y-136344819D01*
X40948266Y-136344819D02*
X40853028Y-136297200D01*
X40853028Y-136297200D02*
X40805409Y-136201961D01*
X40805409Y-136201961D02*
X40805409Y-135821009D01*
X40805409Y-135821009D02*
X40853028Y-135725771D01*
X40853028Y-135725771D02*
X40948266Y-135678152D01*
X40948266Y-135678152D02*
X41138742Y-135678152D01*
X41138742Y-135678152D02*
X41233980Y-135725771D01*
X41233980Y-135725771D02*
X41281599Y-135821009D01*
X41281599Y-135821009D02*
X41281599Y-135916247D01*
X41281599Y-135916247D02*
X40805409Y-136011485D01*
X41567314Y-135678152D02*
X41948266Y-135678152D01*
X41710171Y-135344819D02*
X41710171Y-136201961D01*
X41710171Y-136201961D02*
X41757790Y-136297200D01*
X41757790Y-136297200D02*
X41853028Y-136344819D01*
X41853028Y-136344819D02*
X41948266Y-136344819D01*
X42281600Y-135963866D02*
X43043505Y-135963866D01*
X43948266Y-136297200D02*
X43853028Y-136344819D01*
X43853028Y-136344819D02*
X43662552Y-136344819D01*
X43662552Y-136344819D02*
X43567314Y-136297200D01*
X43567314Y-136297200D02*
X43519695Y-136249580D01*
X43519695Y-136249580D02*
X43472076Y-136154342D01*
X43472076Y-136154342D02*
X43472076Y-135868628D01*
X43472076Y-135868628D02*
X43519695Y-135773390D01*
X43519695Y-135773390D02*
X43567314Y-135725771D01*
X43567314Y-135725771D02*
X43662552Y-135678152D01*
X43662552Y-135678152D02*
X43853028Y-135678152D01*
X43853028Y-135678152D02*
X43948266Y-135725771D01*
X44805409Y-135678152D02*
X44805409Y-136344819D01*
X44376838Y-135678152D02*
X44376838Y-136201961D01*
X44376838Y-136201961D02*
X44424457Y-136297200D01*
X44424457Y-136297200D02*
X44519695Y-136344819D01*
X44519695Y-136344819D02*
X44662552Y-136344819D01*
X44662552Y-136344819D02*
X44757790Y-136297200D01*
X44757790Y-136297200D02*
X44805409Y-136249580D01*
X45281600Y-136344819D02*
X45281600Y-135678152D01*
X45281600Y-135868628D02*
X45329219Y-135773390D01*
X45329219Y-135773390D02*
X45376838Y-135725771D01*
X45376838Y-135725771D02*
X45472076Y-135678152D01*
X45472076Y-135678152D02*
X45567314Y-135678152D01*
X45900648Y-136344819D02*
X45900648Y-135678152D01*
X45900648Y-135868628D02*
X45948267Y-135773390D01*
X45948267Y-135773390D02*
X45995886Y-135725771D01*
X45995886Y-135725771D02*
X46091124Y-135678152D01*
X46091124Y-135678152D02*
X46186362Y-135678152D01*
X46900648Y-136297200D02*
X46805410Y-136344819D01*
X46805410Y-136344819D02*
X46614934Y-136344819D01*
X46614934Y-136344819D02*
X46519696Y-136297200D01*
X46519696Y-136297200D02*
X46472077Y-136201961D01*
X46472077Y-136201961D02*
X46472077Y-135821009D01*
X46472077Y-135821009D02*
X46519696Y-135725771D01*
X46519696Y-135725771D02*
X46614934Y-135678152D01*
X46614934Y-135678152D02*
X46805410Y-135678152D01*
X46805410Y-135678152D02*
X46900648Y-135725771D01*
X46900648Y-135725771D02*
X46948267Y-135821009D01*
X46948267Y-135821009D02*
X46948267Y-135916247D01*
X46948267Y-135916247D02*
X46472077Y-136011485D01*
X47376839Y-135678152D02*
X47376839Y-136344819D01*
X47376839Y-135773390D02*
X47424458Y-135725771D01*
X47424458Y-135725771D02*
X47519696Y-135678152D01*
X47519696Y-135678152D02*
X47662553Y-135678152D01*
X47662553Y-135678152D02*
X47757791Y-135725771D01*
X47757791Y-135725771D02*
X47805410Y-135821009D01*
X47805410Y-135821009D02*
X47805410Y-136344819D01*
X48138744Y-135678152D02*
X48519696Y-135678152D01*
X48281601Y-135344819D02*
X48281601Y-136201961D01*
X48281601Y-136201961D02*
X48329220Y-136297200D01*
X48329220Y-136297200D02*
X48424458Y-136344819D01*
X48424458Y-136344819D02*
X48519696Y-136344819D01*
X49376839Y-136344819D02*
X48805411Y-136344819D01*
X49091125Y-136344819D02*
X49091125Y-135344819D01*
X49091125Y-135344819D02*
X48995887Y-135487676D01*
X48995887Y-135487676D02*
X48900649Y-135582914D01*
X48900649Y-135582914D02*
X48805411Y-135630533D01*
X56749411Y-144580180D02*
X57320839Y-144580180D01*
X57035125Y-144580180D02*
X57035125Y-145580180D01*
X57035125Y-145580180D02*
X57130363Y-145437323D01*
X57130363Y-145437323D02*
X57225601Y-145342085D01*
X57225601Y-145342085D02*
X57320839Y-145294466D01*
X56368458Y-145484942D02*
X56320839Y-145532561D01*
X56320839Y-145532561D02*
X56225601Y-145580180D01*
X56225601Y-145580180D02*
X55987506Y-145580180D01*
X55987506Y-145580180D02*
X55892268Y-145532561D01*
X55892268Y-145532561D02*
X55844649Y-145484942D01*
X55844649Y-145484942D02*
X55797030Y-145389704D01*
X55797030Y-145389704D02*
X55797030Y-145294466D01*
X55797030Y-145294466D02*
X55844649Y-145151609D01*
X55844649Y-145151609D02*
X56416077Y-144580180D01*
X56416077Y-144580180D02*
X55797030Y-144580180D01*
X55511315Y-145580180D02*
X55177982Y-144580180D01*
X55177982Y-144580180D02*
X54844649Y-145580180D01*
X57043220Y-139450180D02*
X57043220Y-140450180D01*
X55852745Y-140497800D02*
X56709887Y-139212085D01*
X55328935Y-140450180D02*
X55138459Y-140450180D01*
X55138459Y-140450180D02*
X55043221Y-140402561D01*
X55043221Y-140402561D02*
X54947983Y-140307323D01*
X54947983Y-140307323D02*
X54900364Y-140116847D01*
X54900364Y-140116847D02*
X54900364Y-139783514D01*
X54900364Y-139783514D02*
X54947983Y-139593038D01*
X54947983Y-139593038D02*
X55043221Y-139497800D01*
X55043221Y-139497800D02*
X55138459Y-139450180D01*
X55138459Y-139450180D02*
X55328935Y-139450180D01*
X55328935Y-139450180D02*
X55424173Y-139497800D01*
X55424173Y-139497800D02*
X55519411Y-139593038D01*
X55519411Y-139593038D02*
X55567030Y-139783514D01*
X55567030Y-139783514D02*
X55567030Y-140116847D01*
X55567030Y-140116847D02*
X55519411Y-140307323D01*
X55519411Y-140307323D02*
X55424173Y-140402561D01*
X55424173Y-140402561D02*
X55328935Y-140450180D01*
X56960839Y-134427800D02*
X56817982Y-134380180D01*
X56817982Y-134380180D02*
X56579887Y-134380180D01*
X56579887Y-134380180D02*
X56484649Y-134427800D01*
X56484649Y-134427800D02*
X56437030Y-134475419D01*
X56437030Y-134475419D02*
X56389411Y-134570657D01*
X56389411Y-134570657D02*
X56389411Y-134665895D01*
X56389411Y-134665895D02*
X56437030Y-134761133D01*
X56437030Y-134761133D02*
X56484649Y-134808752D01*
X56484649Y-134808752D02*
X56579887Y-134856371D01*
X56579887Y-134856371D02*
X56770363Y-134903990D01*
X56770363Y-134903990D02*
X56865601Y-134951609D01*
X56865601Y-134951609D02*
X56913220Y-134999228D01*
X56913220Y-134999228D02*
X56960839Y-135094466D01*
X56960839Y-135094466D02*
X56960839Y-135189704D01*
X56960839Y-135189704D02*
X56913220Y-135284942D01*
X56913220Y-135284942D02*
X56865601Y-135332561D01*
X56865601Y-135332561D02*
X56770363Y-135380180D01*
X56770363Y-135380180D02*
X56532268Y-135380180D01*
X56532268Y-135380180D02*
X56389411Y-135332561D01*
X55960839Y-134380180D02*
X55960839Y-135380180D01*
X55960839Y-135380180D02*
X55722744Y-135380180D01*
X55722744Y-135380180D02*
X55579887Y-135332561D01*
X55579887Y-135332561D02*
X55484649Y-135237323D01*
X55484649Y-135237323D02*
X55437030Y-135142085D01*
X55437030Y-135142085D02*
X55389411Y-134951609D01*
X55389411Y-134951609D02*
X55389411Y-134808752D01*
X55389411Y-134808752D02*
X55437030Y-134618276D01*
X55437030Y-134618276D02*
X55484649Y-134523038D01*
X55484649Y-134523038D02*
X55579887Y-134427800D01*
X55579887Y-134427800D02*
X55722744Y-134380180D01*
X55722744Y-134380180D02*
X55960839Y-134380180D01*
X55008458Y-134665895D02*
X54532268Y-134665895D01*
X55103696Y-134380180D02*
X54770363Y-135380180D01*
X54770363Y-135380180D02*
X54437030Y-134380180D01*
X56409411Y-130262561D02*
X56504649Y-130310180D01*
X56504649Y-130310180D02*
X56647506Y-130310180D01*
X56647506Y-130310180D02*
X56790363Y-130262561D01*
X56790363Y-130262561D02*
X56885601Y-130167323D01*
X56885601Y-130167323D02*
X56933220Y-130072085D01*
X56933220Y-130072085D02*
X56980839Y-129881609D01*
X56980839Y-129881609D02*
X56980839Y-129738752D01*
X56980839Y-129738752D02*
X56933220Y-129548276D01*
X56933220Y-129548276D02*
X56885601Y-129453038D01*
X56885601Y-129453038D02*
X56790363Y-129357800D01*
X56790363Y-129357800D02*
X56647506Y-129310180D01*
X56647506Y-129310180D02*
X56552268Y-129310180D01*
X56552268Y-129310180D02*
X56409411Y-129357800D01*
X56409411Y-129357800D02*
X56361792Y-129405419D01*
X56361792Y-129405419D02*
X56361792Y-129738752D01*
X56361792Y-129738752D02*
X56552268Y-129738752D01*
X55933220Y-129310180D02*
X55933220Y-130310180D01*
X55933220Y-130310180D02*
X55361792Y-129310180D01*
X55361792Y-129310180D02*
X55361792Y-130310180D01*
X54885601Y-129310180D02*
X54885601Y-130310180D01*
X54885601Y-130310180D02*
X54647506Y-130310180D01*
X54647506Y-130310180D02*
X54504649Y-130262561D01*
X54504649Y-130262561D02*
X54409411Y-130167323D01*
X54409411Y-130167323D02*
X54361792Y-130072085D01*
X54361792Y-130072085D02*
X54314173Y-129881609D01*
X54314173Y-129881609D02*
X54314173Y-129738752D01*
X54314173Y-129738752D02*
X54361792Y-129548276D01*
X54361792Y-129548276D02*
X54409411Y-129453038D01*
X54409411Y-129453038D02*
X54504649Y-129357800D01*
X54504649Y-129357800D02*
X54647506Y-129310180D01*
X54647506Y-129310180D02*
X54885601Y-129310180D01*
X57020839Y-136977800D02*
X56877982Y-136930180D01*
X56877982Y-136930180D02*
X56639887Y-136930180D01*
X56639887Y-136930180D02*
X56544649Y-136977800D01*
X56544649Y-136977800D02*
X56497030Y-137025419D01*
X56497030Y-137025419D02*
X56449411Y-137120657D01*
X56449411Y-137120657D02*
X56449411Y-137215895D01*
X56449411Y-137215895D02*
X56497030Y-137311133D01*
X56497030Y-137311133D02*
X56544649Y-137358752D01*
X56544649Y-137358752D02*
X56639887Y-137406371D01*
X56639887Y-137406371D02*
X56830363Y-137453990D01*
X56830363Y-137453990D02*
X56925601Y-137501609D01*
X56925601Y-137501609D02*
X56973220Y-137549228D01*
X56973220Y-137549228D02*
X57020839Y-137644466D01*
X57020839Y-137644466D02*
X57020839Y-137739704D01*
X57020839Y-137739704D02*
X56973220Y-137834942D01*
X56973220Y-137834942D02*
X56925601Y-137882561D01*
X56925601Y-137882561D02*
X56830363Y-137930180D01*
X56830363Y-137930180D02*
X56592268Y-137930180D01*
X56592268Y-137930180D02*
X56449411Y-137882561D01*
X55449411Y-137025419D02*
X55497030Y-136977800D01*
X55497030Y-136977800D02*
X55639887Y-136930180D01*
X55639887Y-136930180D02*
X55735125Y-136930180D01*
X55735125Y-136930180D02*
X55877982Y-136977800D01*
X55877982Y-136977800D02*
X55973220Y-137073038D01*
X55973220Y-137073038D02*
X56020839Y-137168276D01*
X56020839Y-137168276D02*
X56068458Y-137358752D01*
X56068458Y-137358752D02*
X56068458Y-137501609D01*
X56068458Y-137501609D02*
X56020839Y-137692085D01*
X56020839Y-137692085D02*
X55973220Y-137787323D01*
X55973220Y-137787323D02*
X55877982Y-137882561D01*
X55877982Y-137882561D02*
X55735125Y-137930180D01*
X55735125Y-137930180D02*
X55639887Y-137930180D01*
X55639887Y-137930180D02*
X55497030Y-137882561D01*
X55497030Y-137882561D02*
X55449411Y-137834942D01*
X54544649Y-136930180D02*
X55020839Y-136930180D01*
X55020839Y-136930180D02*
X55020839Y-137930180D01*
X56980839Y-132185895D02*
X56504649Y-132185895D01*
X57076077Y-131900180D02*
X56742744Y-132900180D01*
X56742744Y-132900180D02*
X56409411Y-131900180D01*
X56076077Y-131900180D02*
X56076077Y-132900180D01*
X56076077Y-132900180D02*
X55837982Y-132900180D01*
X55837982Y-132900180D02*
X55695125Y-132852561D01*
X55695125Y-132852561D02*
X55599887Y-132757323D01*
X55599887Y-132757323D02*
X55552268Y-132662085D01*
X55552268Y-132662085D02*
X55504649Y-132471609D01*
X55504649Y-132471609D02*
X55504649Y-132328752D01*
X55504649Y-132328752D02*
X55552268Y-132138276D01*
X55552268Y-132138276D02*
X55599887Y-132043038D01*
X55599887Y-132043038D02*
X55695125Y-131947800D01*
X55695125Y-131947800D02*
X55837982Y-131900180D01*
X55837982Y-131900180D02*
X56076077Y-131900180D01*
X54885601Y-132900180D02*
X54790363Y-132900180D01*
X54790363Y-132900180D02*
X54695125Y-132852561D01*
X54695125Y-132852561D02*
X54647506Y-132804942D01*
X54647506Y-132804942D02*
X54599887Y-132709704D01*
X54599887Y-132709704D02*
X54552268Y-132519228D01*
X54552268Y-132519228D02*
X54552268Y-132281133D01*
X54552268Y-132281133D02*
X54599887Y-132090657D01*
X54599887Y-132090657D02*
X54647506Y-131995419D01*
X54647506Y-131995419D02*
X54695125Y-131947800D01*
X54695125Y-131947800D02*
X54790363Y-131900180D01*
X54790363Y-131900180D02*
X54885601Y-131900180D01*
X54885601Y-131900180D02*
X54980839Y-131947800D01*
X54980839Y-131947800D02*
X55028458Y-131995419D01*
X55028458Y-131995419D02*
X55076077Y-132090657D01*
X55076077Y-132090657D02*
X55123696Y-132281133D01*
X55123696Y-132281133D02*
X55123696Y-132519228D01*
X55123696Y-132519228D02*
X55076077Y-132709704D01*
X55076077Y-132709704D02*
X55028458Y-132804942D01*
X55028458Y-132804942D02*
X54980839Y-132852561D01*
X54980839Y-132852561D02*
X54885601Y-132900180D01*
X57388458Y-143070180D02*
X56769411Y-143070180D01*
X56769411Y-143070180D02*
X57102744Y-142689228D01*
X57102744Y-142689228D02*
X56959887Y-142689228D01*
X56959887Y-142689228D02*
X56864649Y-142641609D01*
X56864649Y-142641609D02*
X56817030Y-142593990D01*
X56817030Y-142593990D02*
X56769411Y-142498752D01*
X56769411Y-142498752D02*
X56769411Y-142260657D01*
X56769411Y-142260657D02*
X56817030Y-142165419D01*
X56817030Y-142165419D02*
X56864649Y-142117800D01*
X56864649Y-142117800D02*
X56959887Y-142070180D01*
X56959887Y-142070180D02*
X57245601Y-142070180D01*
X57245601Y-142070180D02*
X57340839Y-142117800D01*
X57340839Y-142117800D02*
X57388458Y-142165419D01*
X56483696Y-143070180D02*
X56150363Y-142070180D01*
X56150363Y-142070180D02*
X55817030Y-143070180D01*
X55578934Y-143070180D02*
X54959887Y-143070180D01*
X54959887Y-143070180D02*
X55293220Y-142689228D01*
X55293220Y-142689228D02*
X55150363Y-142689228D01*
X55150363Y-142689228D02*
X55055125Y-142641609D01*
X55055125Y-142641609D02*
X55007506Y-142593990D01*
X55007506Y-142593990D02*
X54959887Y-142498752D01*
X54959887Y-142498752D02*
X54959887Y-142260657D01*
X54959887Y-142260657D02*
X55007506Y-142165419D01*
X55007506Y-142165419D02*
X55055125Y-142117800D01*
X55055125Y-142117800D02*
X55150363Y-142070180D01*
X55150363Y-142070180D02*
X55436077Y-142070180D01*
X55436077Y-142070180D02*
X55531315Y-142117800D01*
X55531315Y-142117800D02*
X55578934Y-142165419D01*
X106752819Y-91876666D02*
X106276628Y-92209999D01*
X106752819Y-92448094D02*
X105752819Y-92448094D01*
X105752819Y-92448094D02*
X105752819Y-92067142D01*
X105752819Y-92067142D02*
X105800438Y-91971904D01*
X105800438Y-91971904D02*
X105848057Y-91924285D01*
X105848057Y-91924285D02*
X105943295Y-91876666D01*
X105943295Y-91876666D02*
X106086152Y-91876666D01*
X106086152Y-91876666D02*
X106181390Y-91924285D01*
X106181390Y-91924285D02*
X106229009Y-91971904D01*
X106229009Y-91971904D02*
X106276628Y-92067142D01*
X106276628Y-92067142D02*
X106276628Y-92448094D01*
X106181390Y-91305237D02*
X106133771Y-91400475D01*
X106133771Y-91400475D02*
X106086152Y-91448094D01*
X106086152Y-91448094D02*
X105990914Y-91495713D01*
X105990914Y-91495713D02*
X105943295Y-91495713D01*
X105943295Y-91495713D02*
X105848057Y-91448094D01*
X105848057Y-91448094D02*
X105800438Y-91400475D01*
X105800438Y-91400475D02*
X105752819Y-91305237D01*
X105752819Y-91305237D02*
X105752819Y-91114761D01*
X105752819Y-91114761D02*
X105800438Y-91019523D01*
X105800438Y-91019523D02*
X105848057Y-90971904D01*
X105848057Y-90971904D02*
X105943295Y-90924285D01*
X105943295Y-90924285D02*
X105990914Y-90924285D01*
X105990914Y-90924285D02*
X106086152Y-90971904D01*
X106086152Y-90971904D02*
X106133771Y-91019523D01*
X106133771Y-91019523D02*
X106181390Y-91114761D01*
X106181390Y-91114761D02*
X106181390Y-91305237D01*
X106181390Y-91305237D02*
X106229009Y-91400475D01*
X106229009Y-91400475D02*
X106276628Y-91448094D01*
X106276628Y-91448094D02*
X106371866Y-91495713D01*
X106371866Y-91495713D02*
X106562342Y-91495713D01*
X106562342Y-91495713D02*
X106657580Y-91448094D01*
X106657580Y-91448094D02*
X106705200Y-91400475D01*
X106705200Y-91400475D02*
X106752819Y-91305237D01*
X106752819Y-91305237D02*
X106752819Y-91114761D01*
X106752819Y-91114761D02*
X106705200Y-91019523D01*
X106705200Y-91019523D02*
X106657580Y-90971904D01*
X106657580Y-90971904D02*
X106562342Y-90924285D01*
X106562342Y-90924285D02*
X106371866Y-90924285D01*
X106371866Y-90924285D02*
X106276628Y-90971904D01*
X106276628Y-90971904D02*
X106229009Y-91019523D01*
X106229009Y-91019523D02*
X106181390Y-91114761D01*
X106454819Y-87626666D02*
X105978628Y-87959999D01*
X106454819Y-88198094D02*
X105454819Y-88198094D01*
X105454819Y-88198094D02*
X105454819Y-87817142D01*
X105454819Y-87817142D02*
X105502438Y-87721904D01*
X105502438Y-87721904D02*
X105550057Y-87674285D01*
X105550057Y-87674285D02*
X105645295Y-87626666D01*
X105645295Y-87626666D02*
X105788152Y-87626666D01*
X105788152Y-87626666D02*
X105883390Y-87674285D01*
X105883390Y-87674285D02*
X105931009Y-87721904D01*
X105931009Y-87721904D02*
X105978628Y-87817142D01*
X105978628Y-87817142D02*
X105978628Y-88198094D01*
X105454819Y-87293332D02*
X105454819Y-86674285D01*
X105454819Y-86674285D02*
X105835771Y-87007618D01*
X105835771Y-87007618D02*
X105835771Y-86864761D01*
X105835771Y-86864761D02*
X105883390Y-86769523D01*
X105883390Y-86769523D02*
X105931009Y-86721904D01*
X105931009Y-86721904D02*
X106026247Y-86674285D01*
X106026247Y-86674285D02*
X106264342Y-86674285D01*
X106264342Y-86674285D02*
X106359580Y-86721904D01*
X106359580Y-86721904D02*
X106407200Y-86769523D01*
X106407200Y-86769523D02*
X106454819Y-86864761D01*
X106454819Y-86864761D02*
X106454819Y-87150475D01*
X106454819Y-87150475D02*
X106407200Y-87245713D01*
X106407200Y-87245713D02*
X106359580Y-87293332D01*
X98370819Y-91860666D02*
X97894628Y-92193999D01*
X98370819Y-92432094D02*
X97370819Y-92432094D01*
X97370819Y-92432094D02*
X97370819Y-92051142D01*
X97370819Y-92051142D02*
X97418438Y-91955904D01*
X97418438Y-91955904D02*
X97466057Y-91908285D01*
X97466057Y-91908285D02*
X97561295Y-91860666D01*
X97561295Y-91860666D02*
X97704152Y-91860666D01*
X97704152Y-91860666D02*
X97799390Y-91908285D01*
X97799390Y-91908285D02*
X97847009Y-91955904D01*
X97847009Y-91955904D02*
X97894628Y-92051142D01*
X97894628Y-92051142D02*
X97894628Y-92432094D01*
X98370819Y-90908285D02*
X98370819Y-91479713D01*
X98370819Y-91193999D02*
X97370819Y-91193999D01*
X97370819Y-91193999D02*
X97513676Y-91289237D01*
X97513676Y-91289237D02*
X97608914Y-91384475D01*
X97608914Y-91384475D02*
X97656533Y-91479713D01*
X99404819Y-92272857D02*
X98928628Y-92606190D01*
X99404819Y-92844285D02*
X98404819Y-92844285D01*
X98404819Y-92844285D02*
X98404819Y-92463333D01*
X98404819Y-92463333D02*
X98452438Y-92368095D01*
X98452438Y-92368095D02*
X98500057Y-92320476D01*
X98500057Y-92320476D02*
X98595295Y-92272857D01*
X98595295Y-92272857D02*
X98738152Y-92272857D01*
X98738152Y-92272857D02*
X98833390Y-92320476D01*
X98833390Y-92320476D02*
X98881009Y-92368095D01*
X98881009Y-92368095D02*
X98928628Y-92463333D01*
X98928628Y-92463333D02*
X98928628Y-92844285D01*
X99404819Y-91320476D02*
X99404819Y-91891904D01*
X99404819Y-91606190D02*
X98404819Y-91606190D01*
X98404819Y-91606190D02*
X98547676Y-91701428D01*
X98547676Y-91701428D02*
X98642914Y-91796666D01*
X98642914Y-91796666D02*
X98690533Y-91891904D01*
X98404819Y-90701428D02*
X98404819Y-90606190D01*
X98404819Y-90606190D02*
X98452438Y-90510952D01*
X98452438Y-90510952D02*
X98500057Y-90463333D01*
X98500057Y-90463333D02*
X98595295Y-90415714D01*
X98595295Y-90415714D02*
X98785771Y-90368095D01*
X98785771Y-90368095D02*
X99023866Y-90368095D01*
X99023866Y-90368095D02*
X99214342Y-90415714D01*
X99214342Y-90415714D02*
X99309580Y-90463333D01*
X99309580Y-90463333D02*
X99357200Y-90510952D01*
X99357200Y-90510952D02*
X99404819Y-90606190D01*
X99404819Y-90606190D02*
X99404819Y-90701428D01*
X99404819Y-90701428D02*
X99357200Y-90796666D01*
X99357200Y-90796666D02*
X99309580Y-90844285D01*
X99309580Y-90844285D02*
X99214342Y-90891904D01*
X99214342Y-90891904D02*
X99023866Y-90939523D01*
X99023866Y-90939523D02*
X98785771Y-90939523D01*
X98785771Y-90939523D02*
X98595295Y-90891904D01*
X98595295Y-90891904D02*
X98500057Y-90844285D01*
X98500057Y-90844285D02*
X98452438Y-90796666D01*
X98452438Y-90796666D02*
X98404819Y-90701428D01*
X48863333Y-56646819D02*
X48387143Y-56646819D01*
X48387143Y-56646819D02*
X48339524Y-57123009D01*
X48339524Y-57123009D02*
X48387143Y-57075390D01*
X48387143Y-57075390D02*
X48482381Y-57027771D01*
X48482381Y-57027771D02*
X48720476Y-57027771D01*
X48720476Y-57027771D02*
X48815714Y-57075390D01*
X48815714Y-57075390D02*
X48863333Y-57123009D01*
X48863333Y-57123009D02*
X48910952Y-57218247D01*
X48910952Y-57218247D02*
X48910952Y-57456342D01*
X48910952Y-57456342D02*
X48863333Y-57551580D01*
X48863333Y-57551580D02*
X48815714Y-57599200D01*
X48815714Y-57599200D02*
X48720476Y-57646819D01*
X48720476Y-57646819D02*
X48482381Y-57646819D01*
X48482381Y-57646819D02*
X48387143Y-57599200D01*
X48387143Y-57599200D02*
X48339524Y-57551580D01*
X49196667Y-56646819D02*
X49530000Y-57646819D01*
X49530000Y-57646819D02*
X49863333Y-56646819D01*
X50720476Y-57646819D02*
X50149048Y-57646819D01*
X50434762Y-57646819D02*
X50434762Y-56646819D01*
X50434762Y-56646819D02*
X50339524Y-56789676D01*
X50339524Y-56789676D02*
X50244286Y-56884914D01*
X50244286Y-56884914D02*
X50149048Y-56932533D01*
X58499333Y-63283180D02*
X58499333Y-62568895D01*
X58499333Y-62568895D02*
X58546952Y-62426038D01*
X58546952Y-62426038D02*
X58642190Y-62330800D01*
X58642190Y-62330800D02*
X58785047Y-62283180D01*
X58785047Y-62283180D02*
X58880285Y-62283180D01*
X57499333Y-62283180D02*
X58070761Y-62283180D01*
X57785047Y-62283180D02*
X57785047Y-63283180D01*
X57785047Y-63283180D02*
X57880285Y-63140323D01*
X57880285Y-63140323D02*
X57975523Y-63045085D01*
X57975523Y-63045085D02*
X58070761Y-62997466D01*
X97115333Y-116404819D02*
X96782000Y-115928628D01*
X96543905Y-116404819D02*
X96543905Y-115404819D01*
X96543905Y-115404819D02*
X96924857Y-115404819D01*
X96924857Y-115404819D02*
X97020095Y-115452438D01*
X97020095Y-115452438D02*
X97067714Y-115500057D01*
X97067714Y-115500057D02*
X97115333Y-115595295D01*
X97115333Y-115595295D02*
X97115333Y-115738152D01*
X97115333Y-115738152D02*
X97067714Y-115833390D01*
X97067714Y-115833390D02*
X97020095Y-115881009D01*
X97020095Y-115881009D02*
X96924857Y-115928628D01*
X96924857Y-115928628D02*
X96543905Y-115928628D01*
X97591524Y-116404819D02*
X97782000Y-116404819D01*
X97782000Y-116404819D02*
X97877238Y-116357200D01*
X97877238Y-116357200D02*
X97924857Y-116309580D01*
X97924857Y-116309580D02*
X98020095Y-116166723D01*
X98020095Y-116166723D02*
X98067714Y-115976247D01*
X98067714Y-115976247D02*
X98067714Y-115595295D01*
X98067714Y-115595295D02*
X98020095Y-115500057D01*
X98020095Y-115500057D02*
X97972476Y-115452438D01*
X97972476Y-115452438D02*
X97877238Y-115404819D01*
X97877238Y-115404819D02*
X97686762Y-115404819D01*
X97686762Y-115404819D02*
X97591524Y-115452438D01*
X97591524Y-115452438D02*
X97543905Y-115500057D01*
X97543905Y-115500057D02*
X97496286Y-115595295D01*
X97496286Y-115595295D02*
X97496286Y-115833390D01*
X97496286Y-115833390D02*
X97543905Y-115928628D01*
X97543905Y-115928628D02*
X97591524Y-115976247D01*
X97591524Y-115976247D02*
X97686762Y-116023866D01*
X97686762Y-116023866D02*
X97877238Y-116023866D01*
X97877238Y-116023866D02*
X97972476Y-115976247D01*
X97972476Y-115976247D02*
X98020095Y-115928628D01*
X98020095Y-115928628D02*
X98067714Y-115833390D01*
X103904095Y-153454819D02*
X103904095Y-152454819D01*
X103904095Y-152931009D02*
X104475523Y-152931009D01*
X104475523Y-153454819D02*
X104475523Y-152454819D01*
X105475523Y-153454819D02*
X104904095Y-153454819D01*
X105189809Y-153454819D02*
X105189809Y-152454819D01*
X105189809Y-152454819D02*
X105094571Y-152597676D01*
X105094571Y-152597676D02*
X104999333Y-152692914D01*
X104999333Y-152692914D02*
X104904095Y-152740533D01*
X85544066Y-66228619D02*
X85544066Y-66942904D01*
X85544066Y-66942904D02*
X85496447Y-67085761D01*
X85496447Y-67085761D02*
X85401209Y-67181000D01*
X85401209Y-67181000D02*
X85258352Y-67228619D01*
X85258352Y-67228619D02*
X85163114Y-67228619D01*
X85972638Y-66323857D02*
X86020257Y-66276238D01*
X86020257Y-66276238D02*
X86115495Y-66228619D01*
X86115495Y-66228619D02*
X86353590Y-66228619D01*
X86353590Y-66228619D02*
X86448828Y-66276238D01*
X86448828Y-66276238D02*
X86496447Y-66323857D01*
X86496447Y-66323857D02*
X86544066Y-66419095D01*
X86544066Y-66419095D02*
X86544066Y-66514333D01*
X86544066Y-66514333D02*
X86496447Y-66657190D01*
X86496447Y-66657190D02*
X85925019Y-67228619D01*
X85925019Y-67228619D02*
X86544066Y-67228619D01*
X101551009Y-107894285D02*
X101598628Y-107751428D01*
X101598628Y-107751428D02*
X101646247Y-107703809D01*
X101646247Y-107703809D02*
X101741485Y-107656190D01*
X101741485Y-107656190D02*
X101884342Y-107656190D01*
X101884342Y-107656190D02*
X101979580Y-107703809D01*
X101979580Y-107703809D02*
X102027200Y-107751428D01*
X102027200Y-107751428D02*
X102074819Y-107846666D01*
X102074819Y-107846666D02*
X102074819Y-108227618D01*
X102074819Y-108227618D02*
X101074819Y-108227618D01*
X101074819Y-108227618D02*
X101074819Y-107894285D01*
X101074819Y-107894285D02*
X101122438Y-107799047D01*
X101122438Y-107799047D02*
X101170057Y-107751428D01*
X101170057Y-107751428D02*
X101265295Y-107703809D01*
X101265295Y-107703809D02*
X101360533Y-107703809D01*
X101360533Y-107703809D02*
X101455771Y-107751428D01*
X101455771Y-107751428D02*
X101503390Y-107799047D01*
X101503390Y-107799047D02*
X101551009Y-107894285D01*
X101551009Y-107894285D02*
X101551009Y-108227618D01*
X101789104Y-107275237D02*
X101789104Y-106799047D01*
X102074819Y-107370475D02*
X101074819Y-107037142D01*
X101074819Y-107037142D02*
X102074819Y-106703809D01*
X101074819Y-106513332D02*
X101074819Y-105941904D01*
X102074819Y-106227618D02*
X101074819Y-106227618D01*
X102074819Y-105084761D02*
X102074819Y-105656189D01*
X102074819Y-105370475D02*
X101074819Y-105370475D01*
X101074819Y-105370475D02*
X101217676Y-105465713D01*
X101217676Y-105465713D02*
X101312914Y-105560951D01*
X101312914Y-105560951D02*
X101360533Y-105656189D01*
X99805261Y-96194057D02*
X99710023Y-96146438D01*
X99710023Y-96146438D02*
X99614785Y-96051200D01*
X99614785Y-96051200D02*
X99471928Y-95908342D01*
X99471928Y-95908342D02*
X99376690Y-95860723D01*
X99376690Y-95860723D02*
X99281452Y-95860723D01*
X99329071Y-96098819D02*
X99233833Y-96051200D01*
X99233833Y-96051200D02*
X99138595Y-95955961D01*
X99138595Y-95955961D02*
X99090976Y-95765485D01*
X99090976Y-95765485D02*
X99090976Y-95432152D01*
X99090976Y-95432152D02*
X99138595Y-95241676D01*
X99138595Y-95241676D02*
X99233833Y-95146438D01*
X99233833Y-95146438D02*
X99329071Y-95098819D01*
X99329071Y-95098819D02*
X99519547Y-95098819D01*
X99519547Y-95098819D02*
X99614785Y-95146438D01*
X99614785Y-95146438D02*
X99710023Y-95241676D01*
X99710023Y-95241676D02*
X99757642Y-95432152D01*
X99757642Y-95432152D02*
X99757642Y-95765485D01*
X99757642Y-95765485D02*
X99710023Y-95955961D01*
X99710023Y-95955961D02*
X99614785Y-96051200D01*
X99614785Y-96051200D02*
X99519547Y-96098819D01*
X99519547Y-96098819D02*
X99329071Y-96098819D01*
X100138595Y-95194057D02*
X100186214Y-95146438D01*
X100186214Y-95146438D02*
X100281452Y-95098819D01*
X100281452Y-95098819D02*
X100519547Y-95098819D01*
X100519547Y-95098819D02*
X100614785Y-95146438D01*
X100614785Y-95146438D02*
X100662404Y-95194057D01*
X100662404Y-95194057D02*
X100710023Y-95289295D01*
X100710023Y-95289295D02*
X100710023Y-95384533D01*
X100710023Y-95384533D02*
X100662404Y-95527390D01*
X100662404Y-95527390D02*
X100090976Y-96098819D01*
X100090976Y-96098819D02*
X100710023Y-96098819D01*
X67118819Y-147234323D02*
X66118819Y-147234323D01*
X66118819Y-147234323D02*
X66833104Y-146900990D01*
X66833104Y-146900990D02*
X66118819Y-146567657D01*
X66118819Y-146567657D02*
X67118819Y-146567657D01*
X67118819Y-146091466D02*
X66118819Y-146091466D01*
X67118819Y-145520038D02*
X66547390Y-145948609D01*
X66118819Y-145520038D02*
X66690247Y-146091466D01*
X67118819Y-144520038D02*
X66642628Y-144853371D01*
X67118819Y-145091466D02*
X66118819Y-145091466D01*
X66118819Y-145091466D02*
X66118819Y-144710514D01*
X66118819Y-144710514D02*
X66166438Y-144615276D01*
X66166438Y-144615276D02*
X66214057Y-144567657D01*
X66214057Y-144567657D02*
X66309295Y-144520038D01*
X66309295Y-144520038D02*
X66452152Y-144520038D01*
X66452152Y-144520038D02*
X66547390Y-144567657D01*
X66547390Y-144567657D02*
X66595009Y-144615276D01*
X66595009Y-144615276D02*
X66642628Y-144710514D01*
X66642628Y-144710514D02*
X66642628Y-145091466D01*
X67118819Y-143567657D02*
X67118819Y-144139085D01*
X67118819Y-143853371D02*
X66118819Y-143853371D01*
X66118819Y-143853371D02*
X66261676Y-143948609D01*
X66261676Y-143948609D02*
X66356914Y-144043847D01*
X66356914Y-144043847D02*
X66404533Y-144139085D01*
D14*
X88746409Y-109589047D02*
X88246409Y-109589047D01*
X88246409Y-109589047D02*
X88246409Y-109469999D01*
X88246409Y-109469999D02*
X88270219Y-109398571D01*
X88270219Y-109398571D02*
X88317838Y-109350952D01*
X88317838Y-109350952D02*
X88365457Y-109327142D01*
X88365457Y-109327142D02*
X88460695Y-109303333D01*
X88460695Y-109303333D02*
X88532123Y-109303333D01*
X88532123Y-109303333D02*
X88627361Y-109327142D01*
X88627361Y-109327142D02*
X88674980Y-109350952D01*
X88674980Y-109350952D02*
X88722600Y-109398571D01*
X88722600Y-109398571D02*
X88746409Y-109469999D01*
X88746409Y-109469999D02*
X88746409Y-109589047D01*
X88246409Y-108993809D02*
X88246409Y-108946190D01*
X88246409Y-108946190D02*
X88270219Y-108898571D01*
X88270219Y-108898571D02*
X88294028Y-108874761D01*
X88294028Y-108874761D02*
X88341647Y-108850952D01*
X88341647Y-108850952D02*
X88436885Y-108827142D01*
X88436885Y-108827142D02*
X88555933Y-108827142D01*
X88555933Y-108827142D02*
X88651171Y-108850952D01*
X88651171Y-108850952D02*
X88698790Y-108874761D01*
X88698790Y-108874761D02*
X88722600Y-108898571D01*
X88722600Y-108898571D02*
X88746409Y-108946190D01*
X88746409Y-108946190D02*
X88746409Y-108993809D01*
X88746409Y-108993809D02*
X88722600Y-109041428D01*
X88722600Y-109041428D02*
X88698790Y-109065237D01*
X88698790Y-109065237D02*
X88651171Y-109089047D01*
X88651171Y-109089047D02*
X88555933Y-109112856D01*
X88555933Y-109112856D02*
X88436885Y-109112856D01*
X88436885Y-109112856D02*
X88341647Y-109089047D01*
X88341647Y-109089047D02*
X88294028Y-109065237D01*
X88294028Y-109065237D02*
X88270219Y-109041428D01*
X88270219Y-109041428D02*
X88246409Y-108993809D01*
D13*
X99361810Y-151602819D02*
X99980857Y-151602819D01*
X99980857Y-151602819D02*
X99647524Y-151983771D01*
X99647524Y-151983771D02*
X99790381Y-151983771D01*
X99790381Y-151983771D02*
X99885619Y-152031390D01*
X99885619Y-152031390D02*
X99933238Y-152079009D01*
X99933238Y-152079009D02*
X99980857Y-152174247D01*
X99980857Y-152174247D02*
X99980857Y-152412342D01*
X99980857Y-152412342D02*
X99933238Y-152507580D01*
X99933238Y-152507580D02*
X99885619Y-152555200D01*
X99885619Y-152555200D02*
X99790381Y-152602819D01*
X99790381Y-152602819D02*
X99504667Y-152602819D01*
X99504667Y-152602819D02*
X99409429Y-152555200D01*
X99409429Y-152555200D02*
X99361810Y-152507580D01*
X100409429Y-152507580D02*
X100457048Y-152555200D01*
X100457048Y-152555200D02*
X100409429Y-152602819D01*
X100409429Y-152602819D02*
X100361810Y-152555200D01*
X100361810Y-152555200D02*
X100409429Y-152507580D01*
X100409429Y-152507580D02*
X100409429Y-152602819D01*
X100790381Y-151602819D02*
X101409428Y-151602819D01*
X101409428Y-151602819D02*
X101076095Y-151983771D01*
X101076095Y-151983771D02*
X101218952Y-151983771D01*
X101218952Y-151983771D02*
X101314190Y-152031390D01*
X101314190Y-152031390D02*
X101361809Y-152079009D01*
X101361809Y-152079009D02*
X101409428Y-152174247D01*
X101409428Y-152174247D02*
X101409428Y-152412342D01*
X101409428Y-152412342D02*
X101361809Y-152507580D01*
X101361809Y-152507580D02*
X101314190Y-152555200D01*
X101314190Y-152555200D02*
X101218952Y-152602819D01*
X101218952Y-152602819D02*
X100933238Y-152602819D01*
X100933238Y-152602819D02*
X100838000Y-152555200D01*
X100838000Y-152555200D02*
X100790381Y-152507580D01*
X101695143Y-151602819D02*
X102028476Y-152602819D01*
X102028476Y-152602819D02*
X102361809Y-151602819D01*
D15*
X99770000Y-87100000D02*
X101445000Y-87100000D01*
X99770000Y-87100000D02*
X99120000Y-87100000D01*
X99770000Y-83980000D02*
X100420000Y-83980000D01*
X99770000Y-83980000D02*
X99120000Y-83980000D01*
X60680000Y-124750000D02*
X60680000Y-101750000D01*
X60680000Y-124750000D02*
X25680000Y-124750000D01*
X60680000Y-101750000D02*
X25680000Y-101750000D01*
X25680000Y-124750000D02*
X25680000Y-101750000D01*
X111145000Y-146230000D02*
X111885000Y-146230000D01*
X111885000Y-146230000D02*
X111885000Y-145730000D01*
X101724000Y-145990000D02*
X111645000Y-145990000D01*
X101724000Y-145990000D02*
X101724000Y-130870000D01*
X104684000Y-145990000D02*
X104684000Y-130870000D01*
X109585000Y-145990000D02*
X109585000Y-130870000D01*
X111085000Y-145990000D02*
X111085000Y-130870000D01*
X111645000Y-145990000D02*
X111645000Y-130870000D01*
X108008000Y-139657000D02*
X108054000Y-139704000D01*
X108224000Y-139464000D02*
X108259000Y-139499000D01*
X105710000Y-137360000D02*
X105746000Y-137395000D01*
X105916000Y-137155000D02*
X105962000Y-137202000D01*
X108008000Y-134657000D02*
X108054000Y-134704000D01*
X108224000Y-134464000D02*
X108259000Y-134499000D01*
X105710000Y-132360000D02*
X105746000Y-132395000D01*
X105916000Y-132155000D02*
X105962000Y-132202000D01*
X101724000Y-130870000D02*
X111645000Y-130870000D01*
X106301001Y-144964999D02*
G75*
G03*
X107668042Y-144965426I684000J1534992D01*
G01*
X105450001Y-142746001D02*
G75*
G03*
X105449574Y-144113042I1534992J-684000D01*
G01*
X108519999Y-144114000D02*
G75*
G03*
X108665252Y-143401195I-1535000J683999D01*
G01*
X108664999Y-143430000D02*
G75*
G03*
X108519755Y-142746682I-1679999J0D01*
G01*
X107669000Y-141895000D02*
G75*
G03*
X106301958Y-141894574I-684000J-1535000D01*
G01*
X108665000Y-138430000D02*
G75*
G03*
X108665000Y-138430000I-1680000J0D01*
G01*
X108665000Y-133430000D02*
G75*
G03*
X108665000Y-133430000I-1680000J0D01*
G01*
X97038936Y-103151000D02*
X97493064Y-103151000D01*
X97038936Y-104621000D02*
X97493064Y-104621000D01*
X109650000Y-125800000D02*
X109650000Y-128200000D01*
X107250000Y-125800000D02*
X109650000Y-125800000D01*
X109650000Y-128200000D02*
X107250000Y-128200000D01*
X107250000Y-128200000D02*
X107250000Y-125800000D01*
X31820000Y-66110000D02*
X34220000Y-66110000D01*
X31820000Y-68510000D02*
X31820000Y-66110000D01*
X34220000Y-66110000D02*
X34220000Y-68510000D01*
X34220000Y-68510000D02*
X31820000Y-68510000D01*
X47250000Y-56300000D02*
X47250000Y-55660000D01*
X47250000Y-55660000D02*
X46850000Y-55660000D01*
X47010000Y-65020000D02*
X47010000Y-55900000D01*
X47010000Y-65020000D02*
X36890000Y-65020000D01*
X47010000Y-57460000D02*
X36890000Y-57460000D01*
X47010000Y-56360000D02*
X36890000Y-56360000D01*
X47010000Y-55900000D02*
X36890000Y-55900000D01*
X45998000Y-59679000D02*
X46104000Y-59572000D01*
X45732000Y-59413000D02*
X45838000Y-59306000D01*
X43062000Y-62614000D02*
X43169000Y-62507000D01*
X42796000Y-62348000D02*
X42903000Y-62241000D01*
X40708000Y-59968000D02*
X41103000Y-59572000D01*
X40457000Y-59686000D02*
X40837000Y-59306000D01*
X38062000Y-62614000D02*
X38442000Y-62234000D01*
X37796000Y-62348000D02*
X38191000Y-61952000D01*
X36890000Y-65020000D02*
X36890000Y-55900000D01*
X46630000Y-60960000D02*
G75*
G03*
X46630000Y-60960000I-2180000J0D01*
G01*
X41630000Y-60960000D02*
G75*
G03*
X41630000Y-60960000I-2180000J0D01*
G01*
X60680000Y-100630000D02*
X60680000Y-77630000D01*
X60680000Y-100630000D02*
X25680000Y-100630000D01*
X60680000Y-77630000D02*
X25680000Y-77630000D01*
X25680000Y-100630000D02*
X25680000Y-77630000D01*
X111340000Y-124640000D02*
X111980000Y-124640000D01*
X111980000Y-124640000D02*
X111980000Y-124240000D01*
X102620000Y-124400000D02*
X111740000Y-124400000D01*
X102620000Y-124400000D02*
X102620000Y-114280000D01*
X110180000Y-124400000D02*
X110180000Y-114280000D01*
X111280000Y-124400000D02*
X111280000Y-114280000D01*
X111740000Y-124400000D02*
X111740000Y-114280000D01*
X107961000Y-123388000D02*
X108068000Y-123494000D01*
X108227000Y-123122000D02*
X108334000Y-123228000D01*
X105026000Y-120452000D02*
X105133000Y-120559000D01*
X105292000Y-120186000D02*
X105399000Y-120293000D01*
X107672000Y-118098000D02*
X108068000Y-118493000D01*
X107954000Y-117847000D02*
X108334000Y-118227000D01*
X105026000Y-115452000D02*
X105406000Y-115832000D01*
X105292000Y-115186000D02*
X105688000Y-115581000D01*
X102620000Y-114280000D02*
X111740000Y-114280000D01*
X108860000Y-121840000D02*
G75*
G03*
X108860000Y-121840000I-2180000J0D01*
G01*
X108860000Y-116840000D02*
G75*
G03*
X108860000Y-116840000I-2180000J0D01*
G01*
X109150000Y-100260000D02*
X106750000Y-100260000D01*
X109150000Y-97860000D02*
X109150000Y-100260000D01*
X106750000Y-100260000D02*
X106750000Y-97860000D01*
X106750000Y-97860000D02*
X109150000Y-97860000D01*
X60680000Y-148870000D02*
X60680000Y-125870000D01*
X60680000Y-148870000D02*
X25680000Y-148870000D01*
X60680000Y-125870000D02*
X25680000Y-125870000D01*
X25680000Y-148870000D02*
X25680000Y-125870000D01*
X105383000Y-91482936D02*
X105383000Y-91937064D01*
X103913000Y-91482936D02*
X103913000Y-91937064D01*
X106915000Y-87687064D02*
X106915000Y-87232936D01*
X108385000Y-87687064D02*
X108385000Y-87232936D01*
X97001000Y-91466936D02*
X97001000Y-91921064D01*
X95531000Y-91466936D02*
X95531000Y-91921064D01*
X99865000Y-91857064D02*
X99865000Y-91402936D01*
X101335000Y-91857064D02*
X101335000Y-91402936D01*
X48330000Y-57990000D02*
X50730000Y-57990000D01*
X48330000Y-60390000D02*
X48330000Y-57990000D01*
X50730000Y-57990000D02*
X50730000Y-60390000D01*
X50730000Y-60390000D02*
X48330000Y-60390000D01*
X62766000Y-60363000D02*
X62766000Y-58608000D01*
X62766000Y-56660500D02*
X62766000Y-55260500D01*
X53566000Y-60363000D02*
X53566000Y-58608000D01*
X53566000Y-56660500D02*
X53566000Y-55260500D01*
X97509064Y-115035000D02*
X97054936Y-115035000D01*
X97509064Y-113565000D02*
X97054936Y-113565000D01*
X67190000Y-55730000D02*
X67190000Y-81430000D01*
X67631000Y-63516200D02*
X68961000Y-63516200D01*
X67631000Y-64846200D02*
X67631000Y-63516200D01*
X67631000Y-66116200D02*
X67631000Y-73796200D01*
X67631000Y-66116200D02*
X70291000Y-66116200D01*
X67631000Y-73796200D02*
X70291000Y-73796200D01*
X70291000Y-66116200D02*
X70291000Y-73796200D01*
X102990000Y-55730000D02*
X67190000Y-55730000D01*
X102990000Y-55730000D02*
X102990000Y-81430000D01*
X102990000Y-81430000D02*
X67190000Y-81430000D01*
X111340000Y-111980000D02*
X111980000Y-111980000D01*
X111980000Y-111980000D02*
X111980000Y-111580000D01*
X102620000Y-111740000D02*
X111740000Y-111740000D01*
X102620000Y-111740000D02*
X102620000Y-101620000D01*
X110180000Y-111740000D02*
X110180000Y-101620000D01*
X111280000Y-111740000D02*
X111280000Y-101620000D01*
X111740000Y-111740000D02*
X111740000Y-101620000D01*
X107961000Y-110728000D02*
X108068000Y-110834000D01*
X108227000Y-110462000D02*
X108334000Y-110568000D01*
X105026000Y-107792000D02*
X105133000Y-107899000D01*
X105292000Y-107526000D02*
X105399000Y-107633000D01*
X107672000Y-105438000D02*
X108068000Y-105833000D01*
X107954000Y-105187000D02*
X108334000Y-105567000D01*
X105026000Y-102792000D02*
X105406000Y-103172000D01*
X105292000Y-102526000D02*
X105688000Y-102921000D01*
X102620000Y-101620000D02*
X111740000Y-101620000D01*
X108860000Y-109180000D02*
G75*
G03*
X108860000Y-109180000I-2180000J0D01*
G01*
X108860000Y-104180000D02*
G75*
G03*
X108860000Y-104180000I-2180000J0D01*
G01*
X99900500Y-96484000D02*
X98225500Y-96484000D01*
X99900500Y-96484000D02*
X100550500Y-96484000D01*
X99900500Y-99604000D02*
X99250500Y-99604000D01*
X99900500Y-99604000D02*
X100550500Y-99604000D01*
D13*
X90514000Y-151674800D02*
X70014000Y-151674800D01*
X67764000Y-149424800D02*
X67764000Y-86578800D01*
X92764000Y-149424800D02*
X92764000Y-86578800D01*
X90514000Y-84074800D02*
X70014000Y-84074800D01*
X67764000Y-149424800D02*
G75*
G03*
X70014000Y-151674800I2250000J0D01*
G01*
X90514000Y-151674800D02*
G75*
G03*
X92764000Y-149424800I0J2250000D01*
G01*
X70014000Y-84074800D02*
G75*
G03*
X67764000Y-86578800I127000J-2377000D01*
G01*
X92764000Y-86578800D02*
G75*
G03*
X90514000Y-84074800I-2377000J127000D01*
G01*
D15*
X99640000Y-148290000D02*
X102040000Y-148290000D01*
X99640000Y-150690000D02*
X99640000Y-148290000D01*
X102040000Y-148290000D02*
X102040000Y-150690000D01*
X102040000Y-150690000D02*
X99640000Y-150690000D01*
%LPC*%
D16*
X30000000Y-153000000D03*
X110000000Y-58000000D03*
D17*
X100707500Y-86490000D03*
X100707500Y-84590000D03*
X98832500Y-85540000D03*
D18*
X29740000Y-121690000D03*
X29740000Y-104810000D03*
D19*
X58680000Y-120940000D03*
X58680000Y-118400000D03*
D20*
X58680000Y-115860000D03*
D21*
X58680000Y-113320000D03*
D20*
X58680000Y-110780000D03*
D21*
X58680000Y-108240000D03*
D19*
X58680000Y-105700000D03*
D22*
X106985000Y-143430000D03*
D23*
X106985000Y-138430000D03*
X106985000Y-133430000D03*
D24*
X96266000Y-103886000D03*
X98266000Y-103886000D03*
D25*
X108450000Y-127000000D03*
D16*
X30000000Y-58000000D03*
D25*
X33020000Y-67310000D03*
D22*
X44450000Y-60960000D03*
D23*
X39450000Y-60960000D03*
D18*
X29740000Y-97570000D03*
X29740000Y-80690000D03*
D19*
X58680000Y-96820000D03*
X58680000Y-94280000D03*
D20*
X58680000Y-91740000D03*
D21*
X58680000Y-89200000D03*
D20*
X58680000Y-86660000D03*
D21*
X58680000Y-84120000D03*
D19*
X58680000Y-81580000D03*
D22*
X106680000Y-121840000D03*
D23*
X106680000Y-116840000D03*
D25*
X107950000Y-99060000D03*
D18*
X29740000Y-145810000D03*
X29740000Y-128930000D03*
D19*
X58680000Y-145060000D03*
X58680000Y-142520000D03*
D20*
X58680000Y-139980000D03*
D21*
X58680000Y-137440000D03*
D20*
X58680000Y-134900000D03*
D21*
X58680000Y-132360000D03*
D19*
X58680000Y-129820000D03*
D26*
X104648000Y-90710000D03*
X104648000Y-92710000D03*
D27*
X107650000Y-88460000D03*
X107650000Y-86460000D03*
D26*
X96266000Y-90694000D03*
X96266000Y-92694000D03*
D27*
X100600000Y-92630000D03*
X100600000Y-90630000D03*
D25*
X49530000Y-59190000D03*
D28*
X58666000Y-61293000D03*
D29*
X56646000Y-61293000D03*
D30*
X55416000Y-61293000D03*
D28*
X57666000Y-61293000D03*
D29*
X59686000Y-61293000D03*
D30*
X60916000Y-61293000D03*
D31*
X63291000Y-61238000D03*
D32*
X63291000Y-57658000D03*
D31*
X53041000Y-61238000D03*
D32*
X53041000Y-57658000D03*
D33*
X98282000Y-114300000D03*
X96282000Y-114300000D03*
D16*
X110000000Y-153000000D03*
D34*
X69880000Y-58070000D03*
X69880000Y-79090000D03*
X100300000Y-58070000D03*
X100300000Y-79090000D03*
D19*
X68961000Y-64846200D03*
D20*
X68961000Y-67386200D03*
X68961000Y-69926200D03*
X68961000Y-72466200D03*
D22*
X106680000Y-109180000D03*
D23*
X106680000Y-104180000D03*
D35*
X98963000Y-97094000D03*
X98963000Y-98994000D03*
X100838000Y-98044000D03*
D36*
X70014000Y-149424800D03*
X90514000Y-149424800D03*
X70014000Y-92424800D03*
X90514000Y-92424800D03*
D37*
X70104000Y-124460000D03*
X70104000Y-129540000D03*
X90424000Y-127000000D03*
X90424000Y-124460000D03*
X90424000Y-121920000D03*
X90424000Y-119380000D03*
X90424000Y-116840000D03*
X90424000Y-114300000D03*
X90424000Y-111760000D03*
X90424000Y-129540000D03*
X90424000Y-109220000D03*
X90424000Y-106680000D03*
X90424000Y-104140000D03*
X90424000Y-101600000D03*
X90424000Y-99060000D03*
X90424000Y-96520000D03*
X70104000Y-96520000D03*
X70104000Y-99060000D03*
X70104000Y-101600000D03*
X70104000Y-104140000D03*
X70104000Y-106680000D03*
X70104000Y-109220000D03*
X70104000Y-111760000D03*
X70104000Y-114300000D03*
X70104000Y-116840000D03*
D38*
X70104000Y-121920000D03*
D37*
X70104000Y-119380000D03*
X70104000Y-127000000D03*
D25*
X100840000Y-149490000D03*
%LPD*%
M02*
