G04 #@! TF.GenerationSoftware,KiCad,Pcbnew,7.0.2*
G04 #@! TF.CreationDate,2023-10-22T17:07:00+02:00*
G04 #@! TF.ProjectId,aansturing lamp pcb,61616e73-7475-4726-996e-67206c616d70,rev?*
G04 #@! TF.SameCoordinates,Original*
G04 #@! TF.FileFunction,Copper,L2,Bot*
G04 #@! TF.FilePolarity,Positive*
%FSLAX46Y46*%
G04 Gerber Fmt 4.6, Leading zero omitted, Abs format (unit mm)*
G04 Created by KiCad (PCBNEW 7.0.2) date 2023-10-22 17:07:00*
%MOMM*%
%LPD*%
G01*
G04 APERTURE LIST*
G04 #@! TA.AperFunction,ComponentPad*
%ADD10R,2.600000X2.600000*%
G04 #@! TD*
G04 #@! TA.AperFunction,ComponentPad*
%ADD11C,2.600000*%
G04 #@! TD*
G04 #@! TA.AperFunction,ComponentPad*
%ADD12R,1.700000X1.700000*%
G04 #@! TD*
G04 #@! TA.AperFunction,ComponentPad*
%ADD13O,1.700000X1.700000*%
G04 #@! TD*
G04 #@! TA.AperFunction,ViaPad*
%ADD14C,0.800000*%
G04 #@! TD*
G04 APERTURE END LIST*
D10*
X108712000Y-85852000D03*
D11*
X108712000Y-80852000D03*
D12*
X82042000Y-75438000D03*
D13*
X82042000Y-77978000D03*
X82042000Y-80518000D03*
X82042000Y-83058000D03*
X82042000Y-85598000D03*
X82042000Y-88138000D03*
X82042000Y-90678000D03*
D14*
X91948000Y-80391000D03*
X88011000Y-85979000D03*
X95123000Y-86233000D03*
X99060000Y-84328000D03*
G04 #@! TA.AperFunction,Conductor*
G36*
X114942539Y-72020185D02*
G01*
X114988294Y-72072989D01*
X114999500Y-72124500D01*
X114999500Y-94872000D01*
X114979815Y-94939039D01*
X114927011Y-94984794D01*
X114875500Y-94996000D01*
X80134000Y-94996000D01*
X80066961Y-94976315D01*
X80021206Y-94923511D01*
X80010000Y-94872000D01*
X80010000Y-92024335D01*
X109299500Y-92024335D01*
X109340429Y-92269614D01*
X109421172Y-92504810D01*
X109539526Y-92723509D01*
X109539529Y-92723514D01*
X109675036Y-92897612D01*
X109692262Y-92919744D01*
X109875215Y-93088164D01*
X110083393Y-93224173D01*
X110311119Y-93324063D01*
X110552179Y-93385108D01*
X110737933Y-93400500D01*
X110740503Y-93400500D01*
X110859497Y-93400500D01*
X110862067Y-93400500D01*
X111047821Y-93385108D01*
X111288881Y-93324063D01*
X111516607Y-93224173D01*
X111724785Y-93088164D01*
X111907738Y-92919744D01*
X112060474Y-92723509D01*
X112178828Y-92504810D01*
X112259571Y-92269614D01*
X112300500Y-92024335D01*
X112300500Y-91775665D01*
X112259571Y-91530386D01*
X112178828Y-91295190D01*
X112060474Y-91076491D01*
X112060471Y-91076487D01*
X112060470Y-91076485D01*
X111907740Y-90880259D01*
X111907738Y-90880256D01*
X111724785Y-90711836D01*
X111516607Y-90575827D01*
X111516604Y-90575825D01*
X111391523Y-90520960D01*
X111288881Y-90475937D01*
X111099579Y-90427999D01*
X111047822Y-90414892D01*
X111013854Y-90412077D01*
X110862067Y-90399500D01*
X110737933Y-90399500D01*
X110620111Y-90409262D01*
X110552177Y-90414892D01*
X110430087Y-90445810D01*
X110311119Y-90475937D01*
X110311116Y-90475938D01*
X110311117Y-90475938D01*
X110083395Y-90575825D01*
X109944607Y-90666499D01*
X109875215Y-90711836D01*
X109833879Y-90749889D01*
X109692259Y-90880259D01*
X109539529Y-91076485D01*
X109421170Y-91295194D01*
X109340429Y-91530384D01*
X109340429Y-91530386D01*
X109299500Y-91775665D01*
X109299500Y-92024335D01*
X80010000Y-92024335D01*
X80010000Y-88137999D01*
X80678843Y-88137999D01*
X80697435Y-88362363D01*
X80752705Y-88580618D01*
X80843138Y-88786788D01*
X80843140Y-88786791D01*
X80966278Y-88975268D01*
X81118760Y-89140906D01*
X81296424Y-89279189D01*
X81339697Y-89302607D01*
X81389287Y-89351825D01*
X81404395Y-89420042D01*
X81380225Y-89485598D01*
X81351803Y-89513236D01*
X81170918Y-89639893D01*
X81003890Y-89806921D01*
X80868400Y-90000421D01*
X80768569Y-90214507D01*
X80711364Y-90427999D01*
X80711364Y-90428000D01*
X81608314Y-90428000D01*
X81582507Y-90468156D01*
X81542000Y-90606111D01*
X81542000Y-90749889D01*
X81582507Y-90887844D01*
X81608314Y-90928000D01*
X80711364Y-90928000D01*
X80768569Y-91141492D01*
X80868399Y-91355576D01*
X81003893Y-91549081D01*
X81170918Y-91716106D01*
X81364423Y-91851600D01*
X81578509Y-91951430D01*
X81792000Y-92008634D01*
X81792000Y-91113501D01*
X81899685Y-91162680D01*
X82006237Y-91178000D01*
X82077763Y-91178000D01*
X82184315Y-91162680D01*
X82291999Y-91113501D01*
X82291999Y-92008633D01*
X82505490Y-91951430D01*
X82719576Y-91851600D01*
X82913081Y-91716106D01*
X83080106Y-91549081D01*
X83215600Y-91355576D01*
X83315430Y-91141492D01*
X83372636Y-90928000D01*
X82475686Y-90928000D01*
X82501493Y-90887844D01*
X82542000Y-90749889D01*
X82542000Y-90606111D01*
X82501493Y-90468156D01*
X82475686Y-90428000D01*
X83372636Y-90428000D01*
X83372635Y-90427999D01*
X83315430Y-90214507D01*
X83215599Y-90000421D01*
X83080109Y-89806921D01*
X82913081Y-89639893D01*
X82732197Y-89513236D01*
X82688572Y-89458659D01*
X82681380Y-89389160D01*
X82712902Y-89326806D01*
X82744301Y-89302607D01*
X82787576Y-89279189D01*
X82965240Y-89140906D01*
X83117722Y-88975268D01*
X83240860Y-88786791D01*
X83331296Y-88580616D01*
X83386564Y-88362368D01*
X83405156Y-88138000D01*
X83386564Y-87913632D01*
X83331296Y-87695384D01*
X83240860Y-87489209D01*
X83117722Y-87300732D01*
X83021785Y-87196518D01*
X106912000Y-87196518D01*
X106912354Y-87203132D01*
X106918400Y-87259371D01*
X106968647Y-87394089D01*
X107054811Y-87509188D01*
X107169910Y-87595352D01*
X107304628Y-87645599D01*
X107360867Y-87651645D01*
X107367482Y-87652000D01*
X108462000Y-87652000D01*
X108462000Y-86456310D01*
X108470817Y-86461158D01*
X108629886Y-86502000D01*
X108752894Y-86502000D01*
X108874933Y-86486583D01*
X108961999Y-86452110D01*
X108961999Y-87652000D01*
X110056518Y-87652000D01*
X110063132Y-87651645D01*
X110119371Y-87645599D01*
X110254089Y-87595352D01*
X110369188Y-87509188D01*
X110455352Y-87394089D01*
X110505599Y-87259371D01*
X110511645Y-87203132D01*
X110512000Y-87196518D01*
X110512000Y-86102000D01*
X109312728Y-86102000D01*
X109335100Y-86054457D01*
X109365873Y-85893138D01*
X109355561Y-85729234D01*
X109314220Y-85602000D01*
X110512000Y-85602000D01*
X110512000Y-84507481D01*
X110511645Y-84500867D01*
X110505599Y-84444628D01*
X110455352Y-84309910D01*
X110369188Y-84194811D01*
X110254089Y-84108647D01*
X110119371Y-84058400D01*
X110063132Y-84052354D01*
X110056518Y-84052000D01*
X108962000Y-84052000D01*
X108961999Y-85247688D01*
X108953183Y-85242842D01*
X108794114Y-85202000D01*
X108671106Y-85202000D01*
X108549067Y-85217417D01*
X108462000Y-85251889D01*
X108462000Y-84052000D01*
X107367482Y-84052000D01*
X107360867Y-84052354D01*
X107304628Y-84058400D01*
X107169910Y-84108647D01*
X107054811Y-84194811D01*
X106968647Y-84309910D01*
X106918400Y-84444628D01*
X106912354Y-84500867D01*
X106912000Y-84507481D01*
X106912000Y-85602000D01*
X108111272Y-85602000D01*
X108088900Y-85649543D01*
X108058127Y-85810862D01*
X108068439Y-85974766D01*
X108109780Y-86102000D01*
X106912000Y-86102000D01*
X106912000Y-87196518D01*
X83021785Y-87196518D01*
X82965240Y-87135094D01*
X82787576Y-86996811D01*
X82751067Y-86977053D01*
X82701478Y-86927836D01*
X82686370Y-86859619D01*
X82710540Y-86794063D01*
X82751067Y-86758946D01*
X82787576Y-86739189D01*
X82965240Y-86600906D01*
X83117722Y-86435268D01*
X83240860Y-86246791D01*
X83331296Y-86040616D01*
X83386564Y-85822368D01*
X83405156Y-85598000D01*
X83386564Y-85373632D01*
X83331296Y-85155384D01*
X83240860Y-84949209D01*
X83117722Y-84760732D01*
X82965240Y-84595094D01*
X82787576Y-84456811D01*
X82787575Y-84456810D01*
X82751067Y-84437053D01*
X82701477Y-84387833D01*
X82686370Y-84319616D01*
X82710541Y-84254061D01*
X82751066Y-84218946D01*
X82787576Y-84199189D01*
X82965240Y-84060906D01*
X83117722Y-83895268D01*
X83240860Y-83706791D01*
X83331296Y-83500616D01*
X83386564Y-83282368D01*
X83405156Y-83058000D01*
X83386564Y-82833632D01*
X83331296Y-82615384D01*
X83240860Y-82409209D01*
X83117722Y-82220732D01*
X82965240Y-82055094D01*
X82787576Y-81916811D01*
X82751067Y-81897053D01*
X82701478Y-81847836D01*
X82686370Y-81779619D01*
X82710540Y-81714063D01*
X82751067Y-81678946D01*
X82787576Y-81659189D01*
X82965240Y-81520906D01*
X83117722Y-81355268D01*
X83240860Y-81166791D01*
X83331296Y-80960616D01*
X83358801Y-80852000D01*
X106898428Y-80852000D01*
X106918684Y-81122297D01*
X106979001Y-81386561D01*
X107031728Y-81520906D01*
X107078029Y-81638879D01*
X107213557Y-81873621D01*
X107382558Y-82085542D01*
X107581257Y-82269907D01*
X107805215Y-82422599D01*
X108049428Y-82540206D01*
X108293140Y-82615381D01*
X108308442Y-82620101D01*
X108576471Y-82660500D01*
X108576472Y-82660500D01*
X108847529Y-82660500D01*
X108981543Y-82640300D01*
X109115558Y-82620101D01*
X109374572Y-82540206D01*
X109618786Y-82422599D01*
X109842743Y-82269907D01*
X109842746Y-82269903D01*
X109842749Y-82269902D01*
X109930883Y-82188124D01*
X110041442Y-82085542D01*
X110210443Y-81873621D01*
X110345971Y-81638879D01*
X110444999Y-81386559D01*
X110505315Y-81122299D01*
X110525571Y-80852000D01*
X110505315Y-80581701D01*
X110444999Y-80317441D01*
X110345971Y-80065121D01*
X110210443Y-79830379D01*
X110041442Y-79618458D01*
X110041438Y-79618454D01*
X109842749Y-79434097D01*
X109758723Y-79376809D01*
X109618786Y-79281401D01*
X109374572Y-79163794D01*
X109294013Y-79138945D01*
X109115557Y-79083898D01*
X108847529Y-79043500D01*
X108847528Y-79043500D01*
X108576472Y-79043500D01*
X108576471Y-79043500D01*
X108308442Y-79083898D01*
X108049428Y-79163794D01*
X107805217Y-79281399D01*
X107581255Y-79434094D01*
X107382558Y-79618458D01*
X107213556Y-79830380D01*
X107078028Y-80065122D01*
X106979001Y-80317438D01*
X106918684Y-80581702D01*
X106898428Y-80852000D01*
X83358801Y-80852000D01*
X83386564Y-80742368D01*
X83405156Y-80518000D01*
X83386564Y-80293632D01*
X83331296Y-80075384D01*
X83240860Y-79869209D01*
X83117722Y-79680732D01*
X82965240Y-79515094D01*
X82787576Y-79376811D01*
X82751067Y-79357053D01*
X82701478Y-79307836D01*
X82686370Y-79239619D01*
X82710540Y-79174063D01*
X82751067Y-79138946D01*
X82787576Y-79119189D01*
X82965240Y-78980906D01*
X83117722Y-78815268D01*
X83240860Y-78626791D01*
X83331296Y-78420616D01*
X83386564Y-78202368D01*
X83405156Y-77978000D01*
X83386564Y-77753632D01*
X83331296Y-77535384D01*
X83240860Y-77329209D01*
X83117722Y-77140732D01*
X83117721Y-77140731D01*
X83117718Y-77140726D01*
X82972510Y-76982990D01*
X82941587Y-76920336D01*
X82949447Y-76850910D01*
X82993594Y-76796754D01*
X83020396Y-76782829D01*
X83138204Y-76738889D01*
X83255261Y-76651261D01*
X83342889Y-76534204D01*
X83393989Y-76397201D01*
X83400500Y-76336638D01*
X83400500Y-75124335D01*
X109499500Y-75124335D01*
X109540429Y-75369614D01*
X109621172Y-75604810D01*
X109739526Y-75823509D01*
X109739529Y-75823514D01*
X109875036Y-75997612D01*
X109892262Y-76019744D01*
X110075215Y-76188164D01*
X110283393Y-76324173D01*
X110511119Y-76424063D01*
X110752179Y-76485108D01*
X110937933Y-76500500D01*
X110940503Y-76500500D01*
X111059497Y-76500500D01*
X111062067Y-76500500D01*
X111247821Y-76485108D01*
X111488881Y-76424063D01*
X111716607Y-76324173D01*
X111924785Y-76188164D01*
X112107738Y-76019744D01*
X112260474Y-75823509D01*
X112378828Y-75604810D01*
X112459571Y-75369614D01*
X112500500Y-75124335D01*
X112500500Y-74875665D01*
X112459571Y-74630386D01*
X112378828Y-74395190D01*
X112260474Y-74176491D01*
X112260471Y-74176487D01*
X112260470Y-74176485D01*
X112107740Y-73980259D01*
X112107738Y-73980256D01*
X111924785Y-73811836D01*
X111716607Y-73675827D01*
X111716604Y-73675825D01*
X111591523Y-73620960D01*
X111488881Y-73575937D01*
X111308867Y-73530351D01*
X111247822Y-73514892D01*
X111213854Y-73512077D01*
X111062067Y-73499500D01*
X110937933Y-73499500D01*
X110820111Y-73509262D01*
X110752177Y-73514892D01*
X110630087Y-73545810D01*
X110511119Y-73575937D01*
X110511116Y-73575938D01*
X110511117Y-73575938D01*
X110283395Y-73675825D01*
X110144607Y-73766499D01*
X110075215Y-73811836D01*
X110075213Y-73811837D01*
X110075214Y-73811837D01*
X109892259Y-73980259D01*
X109739529Y-74176485D01*
X109621170Y-74395194D01*
X109540429Y-74630384D01*
X109540429Y-74630386D01*
X109499500Y-74875665D01*
X109499500Y-75124335D01*
X83400500Y-75124335D01*
X83400500Y-74539362D01*
X83393989Y-74478799D01*
X83393988Y-74478797D01*
X83393988Y-74478794D01*
X83342889Y-74341796D01*
X83255261Y-74224738D01*
X83138203Y-74137110D01*
X83001205Y-74086011D01*
X82943924Y-74079853D01*
X82943918Y-74079852D01*
X82940638Y-74079500D01*
X81143362Y-74079500D01*
X81140082Y-74079852D01*
X81140075Y-74079853D01*
X81082794Y-74086011D01*
X80945796Y-74137110D01*
X80828738Y-74224738D01*
X80741110Y-74341796D01*
X80690011Y-74478794D01*
X80683853Y-74536075D01*
X80683500Y-74539362D01*
X80683500Y-76336638D01*
X80683852Y-76339918D01*
X80683853Y-76339924D01*
X80690011Y-76397205D01*
X80741110Y-76534203D01*
X80828738Y-76651261D01*
X80945793Y-76738887D01*
X80945796Y-76738889D01*
X81063596Y-76782826D01*
X81119527Y-76824697D01*
X81143944Y-76890161D01*
X81129092Y-76958434D01*
X81111490Y-76982990D01*
X80966279Y-77140730D01*
X80843138Y-77329211D01*
X80752705Y-77535381D01*
X80697435Y-77753636D01*
X80678843Y-77977999D01*
X80697435Y-78202363D01*
X80752705Y-78420618D01*
X80843138Y-78626788D01*
X80843140Y-78626791D01*
X80966278Y-78815268D01*
X81118760Y-78980906D01*
X81296424Y-79119189D01*
X81296426Y-79119190D01*
X81332931Y-79138946D01*
X81382521Y-79188165D01*
X81397629Y-79256382D01*
X81373458Y-79321937D01*
X81332931Y-79357054D01*
X81296426Y-79376809D01*
X81118760Y-79515094D01*
X80966279Y-79680730D01*
X80843138Y-79869211D01*
X80752705Y-80075381D01*
X80697435Y-80293636D01*
X80678843Y-80518000D01*
X80697435Y-80742363D01*
X80697435Y-80742366D01*
X80697436Y-80742368D01*
X80725198Y-80851999D01*
X80752705Y-80960618D01*
X80843138Y-81166788D01*
X80843140Y-81166791D01*
X80966278Y-81355268D01*
X81118760Y-81520906D01*
X81296424Y-81659189D01*
X81332930Y-81678945D01*
X81382520Y-81728162D01*
X81397630Y-81796379D01*
X81373459Y-81861935D01*
X81332933Y-81897052D01*
X81296427Y-81916809D01*
X81118760Y-82055094D01*
X80966279Y-82220730D01*
X80843138Y-82409211D01*
X80752705Y-82615381D01*
X80752704Y-82615384D01*
X80741279Y-82660500D01*
X80697435Y-82833636D01*
X80678843Y-83058000D01*
X80697435Y-83282363D01*
X80752705Y-83500618D01*
X80843138Y-83706788D01*
X80843140Y-83706791D01*
X80966278Y-83895268D01*
X81118760Y-84060906D01*
X81296424Y-84199189D01*
X81332930Y-84218945D01*
X81382520Y-84268162D01*
X81397630Y-84336379D01*
X81373459Y-84401935D01*
X81332933Y-84437052D01*
X81296427Y-84456809D01*
X81296425Y-84456810D01*
X81296424Y-84456811D01*
X81231324Y-84507481D01*
X81118760Y-84595094D01*
X80966279Y-84760730D01*
X80843138Y-84949211D01*
X80752705Y-85155381D01*
X80697435Y-85373636D01*
X80678843Y-85598000D01*
X80697435Y-85822363D01*
X80697435Y-85822366D01*
X80697436Y-85822368D01*
X80736028Y-85974766D01*
X80752705Y-86040618D01*
X80843138Y-86246788D01*
X80843140Y-86246791D01*
X80966278Y-86435268D01*
X81118760Y-86600906D01*
X81296424Y-86739189D01*
X81296426Y-86739190D01*
X81332931Y-86758946D01*
X81382521Y-86808165D01*
X81397629Y-86876382D01*
X81373458Y-86941937D01*
X81332931Y-86977054D01*
X81296426Y-86996809D01*
X81118760Y-87135094D01*
X80966279Y-87300730D01*
X80843138Y-87489211D01*
X80752705Y-87695381D01*
X80697435Y-87913636D01*
X80678843Y-88137999D01*
X80010000Y-88137999D01*
X80010000Y-72124500D01*
X80029685Y-72057461D01*
X80082489Y-72011706D01*
X80134000Y-72000500D01*
X114875500Y-72000500D01*
X114942539Y-72020185D01*
G37*
G04 #@! TD.AperFunction*
M02*
