G04 #@! TF.GenerationSoftware,KiCad,Pcbnew,7.0.2*
G04 #@! TF.CreationDate,2023-10-22T17:07:00+02:00*
G04 #@! TF.ProjectId,aansturing lamp pcb,61616e73-7475-4726-996e-67206c616d70,rev?*
G04 #@! TF.SameCoordinates,Original*
G04 #@! TF.FileFunction,Legend,Top*
G04 #@! TF.FilePolarity,Positive*
%FSLAX46Y46*%
G04 Gerber Fmt 4.6, Leading zero omitted, Abs format (unit mm)*
G04 Created by KiCad (PCBNEW 7.0.2) date 2023-10-22 17:07:00*
%MOMM*%
%LPD*%
G01*
G04 APERTURE LIST*
G04 Aperture macros list*
%AMRoundRect*
0 Rectangle with rounded corners*
0 $1 Rounding radius*
0 $2 $3 $4 $5 $6 $7 $8 $9 X,Y pos of 4 corners*
0 Add a 4 corners polygon primitive as box body*
4,1,4,$2,$3,$4,$5,$6,$7,$8,$9,$2,$3,0*
0 Add four circle primitives for the rounded corners*
1,1,$1+$1,$2,$3*
1,1,$1+$1,$4,$5*
1,1,$1+$1,$6,$7*
1,1,$1+$1,$8,$9*
0 Add four rect primitives between the rounded corners*
20,1,$1+$1,$2,$3,$4,$5,0*
20,1,$1+$1,$4,$5,$6,$7,0*
20,1,$1+$1,$6,$7,$8,$9,0*
20,1,$1+$1,$8,$9,$2,$3,0*%
G04 Aperture macros list end*
%ADD10C,0.200000*%
%ADD11C,0.150000*%
%ADD12C,0.120000*%
%ADD13RoundRect,0.250000X-0.350000X-0.450000X0.350000X-0.450000X0.350000X0.450000X-0.350000X0.450000X0*%
%ADD14RoundRect,0.250000X0.337500X0.475000X-0.337500X0.475000X-0.337500X-0.475000X0.337500X-0.475000X0*%
%ADD15RoundRect,0.250000X0.350000X0.450000X-0.350000X0.450000X-0.350000X-0.450000X0.350000X-0.450000X0*%
%ADD16RoundRect,0.375000X0.575000X0.375000X-0.575000X0.375000X-0.575000X-0.375000X0.575000X-0.375000X0*%
%ADD17C,2.500000*%
%ADD18R,1.500000X1.500000*%
%ADD19RoundRect,0.250000X-0.337500X-0.475000X0.337500X-0.475000X0.337500X0.475000X-0.337500X0.475000X0*%
%ADD20RoundRect,0.150000X-0.512500X-0.150000X0.512500X-0.150000X0.512500X0.150000X-0.512500X0.150000X0*%
%ADD21R,2.600000X2.600000*%
%ADD22C,2.600000*%
%ADD23RoundRect,0.250000X0.275000X0.350000X-0.275000X0.350000X-0.275000X-0.350000X0.275000X-0.350000X0*%
%ADD24RoundRect,0.250000X-0.475000X0.337500X-0.475000X-0.337500X0.475000X-0.337500X0.475000X0.337500X0*%
%ADD25RoundRect,0.102000X0.762000X0.190000X-0.762000X0.190000X-0.762000X-0.190000X0.762000X-0.190000X0*%
%ADD26RoundRect,0.250000X-0.450000X0.350000X-0.450000X-0.350000X0.450000X-0.350000X0.450000X0.350000X0*%
%ADD27RoundRect,0.100000X-0.100000X0.712500X-0.100000X-0.712500X0.100000X-0.712500X0.100000X0.712500X0*%
%ADD28R,1.700000X1.700000*%
%ADD29O,1.700000X1.700000*%
G04 APERTURE END LIST*
D10*
X114837095Y-81610238D02*
X114799000Y-81686428D01*
X114799000Y-81686428D02*
X114722809Y-81724523D01*
X114722809Y-81724523D02*
X114037095Y-81724523D01*
X114799000Y-81000713D02*
X114837095Y-81076904D01*
X114837095Y-81076904D02*
X114837095Y-81229285D01*
X114837095Y-81229285D02*
X114799000Y-81305475D01*
X114799000Y-81305475D02*
X114722809Y-81343571D01*
X114722809Y-81343571D02*
X114418047Y-81343571D01*
X114418047Y-81343571D02*
X114341857Y-81305475D01*
X114341857Y-81305475D02*
X114303761Y-81229285D01*
X114303761Y-81229285D02*
X114303761Y-81076904D01*
X114303761Y-81076904D02*
X114341857Y-81000713D01*
X114341857Y-81000713D02*
X114418047Y-80962618D01*
X114418047Y-80962618D02*
X114494238Y-80962618D01*
X114494238Y-80962618D02*
X114570428Y-81343571D01*
X114837095Y-80276904D02*
X114037095Y-80276904D01*
X114799000Y-80276904D02*
X114837095Y-80353095D01*
X114837095Y-80353095D02*
X114837095Y-80505476D01*
X114837095Y-80505476D02*
X114799000Y-80581666D01*
X114799000Y-80581666D02*
X114760904Y-80619761D01*
X114760904Y-80619761D02*
X114684714Y-80657857D01*
X114684714Y-80657857D02*
X114456142Y-80657857D01*
X114456142Y-80657857D02*
X114379952Y-80619761D01*
X114379952Y-80619761D02*
X114341857Y-80581666D01*
X114341857Y-80581666D02*
X114303761Y-80505476D01*
X114303761Y-80505476D02*
X114303761Y-80353095D01*
X114303761Y-80353095D02*
X114341857Y-80276904D01*
X114532333Y-79286427D02*
X114532333Y-78676904D01*
X114837095Y-78981665D02*
X114227571Y-78981665D01*
X114837095Y-87198238D02*
X114799000Y-87274428D01*
X114799000Y-87274428D02*
X114722809Y-87312523D01*
X114722809Y-87312523D02*
X114037095Y-87312523D01*
X114799000Y-86588713D02*
X114837095Y-86664904D01*
X114837095Y-86664904D02*
X114837095Y-86817285D01*
X114837095Y-86817285D02*
X114799000Y-86893475D01*
X114799000Y-86893475D02*
X114722809Y-86931571D01*
X114722809Y-86931571D02*
X114418047Y-86931571D01*
X114418047Y-86931571D02*
X114341857Y-86893475D01*
X114341857Y-86893475D02*
X114303761Y-86817285D01*
X114303761Y-86817285D02*
X114303761Y-86664904D01*
X114303761Y-86664904D02*
X114341857Y-86588713D01*
X114341857Y-86588713D02*
X114418047Y-86550618D01*
X114418047Y-86550618D02*
X114494238Y-86550618D01*
X114494238Y-86550618D02*
X114570428Y-86931571D01*
X114837095Y-85864904D02*
X114037095Y-85864904D01*
X114799000Y-85864904D02*
X114837095Y-85941095D01*
X114837095Y-85941095D02*
X114837095Y-86093476D01*
X114837095Y-86093476D02*
X114799000Y-86169666D01*
X114799000Y-86169666D02*
X114760904Y-86207761D01*
X114760904Y-86207761D02*
X114684714Y-86245857D01*
X114684714Y-86245857D02*
X114456142Y-86245857D01*
X114456142Y-86245857D02*
X114379952Y-86207761D01*
X114379952Y-86207761D02*
X114341857Y-86169666D01*
X114341857Y-86169666D02*
X114303761Y-86093476D01*
X114303761Y-86093476D02*
X114303761Y-85941095D01*
X114303761Y-85941095D02*
X114341857Y-85864904D01*
X114532333Y-84874427D02*
X114532333Y-84264904D01*
D11*
X89193333Y-86602619D02*
X88860000Y-86126428D01*
X88621905Y-86602619D02*
X88621905Y-85602619D01*
X88621905Y-85602619D02*
X89002857Y-85602619D01*
X89002857Y-85602619D02*
X89098095Y-85650238D01*
X89098095Y-85650238D02*
X89145714Y-85697857D01*
X89145714Y-85697857D02*
X89193333Y-85793095D01*
X89193333Y-85793095D02*
X89193333Y-85935952D01*
X89193333Y-85935952D02*
X89145714Y-86031190D01*
X89145714Y-86031190D02*
X89098095Y-86078809D01*
X89098095Y-86078809D02*
X89002857Y-86126428D01*
X89002857Y-86126428D02*
X88621905Y-86126428D01*
X89526667Y-85602619D02*
X90193333Y-85602619D01*
X90193333Y-85602619D02*
X89764762Y-86602619D01*
X86320333Y-90283380D02*
X86272714Y-90331000D01*
X86272714Y-90331000D02*
X86129857Y-90378619D01*
X86129857Y-90378619D02*
X86034619Y-90378619D01*
X86034619Y-90378619D02*
X85891762Y-90331000D01*
X85891762Y-90331000D02*
X85796524Y-90235761D01*
X85796524Y-90235761D02*
X85748905Y-90140523D01*
X85748905Y-90140523D02*
X85701286Y-89950047D01*
X85701286Y-89950047D02*
X85701286Y-89807190D01*
X85701286Y-89807190D02*
X85748905Y-89616714D01*
X85748905Y-89616714D02*
X85796524Y-89521476D01*
X85796524Y-89521476D02*
X85891762Y-89426238D01*
X85891762Y-89426238D02*
X86034619Y-89378619D01*
X86034619Y-89378619D02*
X86129857Y-89378619D01*
X86129857Y-89378619D02*
X86272714Y-89426238D01*
X86272714Y-89426238D02*
X86320333Y-89473857D01*
X86796524Y-90378619D02*
X86987000Y-90378619D01*
X86987000Y-90378619D02*
X87082238Y-90331000D01*
X87082238Y-90331000D02*
X87129857Y-90283380D01*
X87129857Y-90283380D02*
X87225095Y-90140523D01*
X87225095Y-90140523D02*
X87272714Y-89950047D01*
X87272714Y-89950047D02*
X87272714Y-89569095D01*
X87272714Y-89569095D02*
X87225095Y-89473857D01*
X87225095Y-89473857D02*
X87177476Y-89426238D01*
X87177476Y-89426238D02*
X87082238Y-89378619D01*
X87082238Y-89378619D02*
X86891762Y-89378619D01*
X86891762Y-89378619D02*
X86796524Y-89426238D01*
X86796524Y-89426238D02*
X86748905Y-89473857D01*
X86748905Y-89473857D02*
X86701286Y-89569095D01*
X86701286Y-89569095D02*
X86701286Y-89807190D01*
X86701286Y-89807190D02*
X86748905Y-89902428D01*
X86748905Y-89902428D02*
X86796524Y-89950047D01*
X86796524Y-89950047D02*
X86891762Y-89997666D01*
X86891762Y-89997666D02*
X87082238Y-89997666D01*
X87082238Y-89997666D02*
X87177476Y-89950047D01*
X87177476Y-89950047D02*
X87225095Y-89902428D01*
X87225095Y-89902428D02*
X87272714Y-89807190D01*
X89749333Y-94061619D02*
X89416000Y-93585428D01*
X89177905Y-94061619D02*
X89177905Y-93061619D01*
X89177905Y-93061619D02*
X89558857Y-93061619D01*
X89558857Y-93061619D02*
X89654095Y-93109238D01*
X89654095Y-93109238D02*
X89701714Y-93156857D01*
X89701714Y-93156857D02*
X89749333Y-93252095D01*
X89749333Y-93252095D02*
X89749333Y-93394952D01*
X89749333Y-93394952D02*
X89701714Y-93490190D01*
X89701714Y-93490190D02*
X89654095Y-93537809D01*
X89654095Y-93537809D02*
X89558857Y-93585428D01*
X89558857Y-93585428D02*
X89177905Y-93585428D01*
X90082667Y-93061619D02*
X90701714Y-93061619D01*
X90701714Y-93061619D02*
X90368381Y-93442571D01*
X90368381Y-93442571D02*
X90511238Y-93442571D01*
X90511238Y-93442571D02*
X90606476Y-93490190D01*
X90606476Y-93490190D02*
X90654095Y-93537809D01*
X90654095Y-93537809D02*
X90701714Y-93633047D01*
X90701714Y-93633047D02*
X90701714Y-93871142D01*
X90701714Y-93871142D02*
X90654095Y-93966380D01*
X90654095Y-93966380D02*
X90606476Y-94014000D01*
X90606476Y-94014000D02*
X90511238Y-94061619D01*
X90511238Y-94061619D02*
X90225524Y-94061619D01*
X90225524Y-94061619D02*
X90130286Y-94014000D01*
X90130286Y-94014000D02*
X90082667Y-93966380D01*
X85630095Y-79202619D02*
X85630095Y-78535952D01*
X85630095Y-78631190D02*
X85677714Y-78583571D01*
X85677714Y-78583571D02*
X85772952Y-78535952D01*
X85772952Y-78535952D02*
X85915809Y-78535952D01*
X85915809Y-78535952D02*
X86011047Y-78583571D01*
X86011047Y-78583571D02*
X86058666Y-78678809D01*
X86058666Y-78678809D02*
X86058666Y-79202619D01*
X86058666Y-78678809D02*
X86106285Y-78583571D01*
X86106285Y-78583571D02*
X86201523Y-78535952D01*
X86201523Y-78535952D02*
X86344380Y-78535952D01*
X86344380Y-78535952D02*
X86439619Y-78583571D01*
X86439619Y-78583571D02*
X86487238Y-78678809D01*
X86487238Y-78678809D02*
X86487238Y-79202619D01*
X87106285Y-79202619D02*
X87011047Y-79155000D01*
X87011047Y-79155000D02*
X86963428Y-79107380D01*
X86963428Y-79107380D02*
X86915809Y-79012142D01*
X86915809Y-79012142D02*
X86915809Y-78726428D01*
X86915809Y-78726428D02*
X86963428Y-78631190D01*
X86963428Y-78631190D02*
X87011047Y-78583571D01*
X87011047Y-78583571D02*
X87106285Y-78535952D01*
X87106285Y-78535952D02*
X87249142Y-78535952D01*
X87249142Y-78535952D02*
X87344380Y-78583571D01*
X87344380Y-78583571D02*
X87391999Y-78631190D01*
X87391999Y-78631190D02*
X87439618Y-78726428D01*
X87439618Y-78726428D02*
X87439618Y-79012142D01*
X87439618Y-79012142D02*
X87391999Y-79107380D01*
X87391999Y-79107380D02*
X87344380Y-79155000D01*
X87344380Y-79155000D02*
X87249142Y-79202619D01*
X87249142Y-79202619D02*
X87106285Y-79202619D01*
X87820571Y-79155000D02*
X87915809Y-79202619D01*
X87915809Y-79202619D02*
X88106285Y-79202619D01*
X88106285Y-79202619D02*
X88201523Y-79155000D01*
X88201523Y-79155000D02*
X88249142Y-79059761D01*
X88249142Y-79059761D02*
X88249142Y-79012142D01*
X88249142Y-79012142D02*
X88201523Y-78916904D01*
X88201523Y-78916904D02*
X88106285Y-78869285D01*
X88106285Y-78869285D02*
X87963428Y-78869285D01*
X87963428Y-78869285D02*
X87868190Y-78821666D01*
X87868190Y-78821666D02*
X87820571Y-78726428D01*
X87820571Y-78726428D02*
X87820571Y-78678809D01*
X87820571Y-78678809D02*
X87868190Y-78583571D01*
X87868190Y-78583571D02*
X87963428Y-78535952D01*
X87963428Y-78535952D02*
X88106285Y-78535952D01*
X88106285Y-78535952D02*
X88201523Y-78583571D01*
X88534857Y-78535952D02*
X88915809Y-78535952D01*
X88677714Y-79202619D02*
X88677714Y-78345476D01*
X88677714Y-78345476D02*
X88725333Y-78250238D01*
X88725333Y-78250238D02*
X88820571Y-78202619D01*
X88820571Y-78202619D02*
X88915809Y-78202619D01*
X89630095Y-79155000D02*
X89534857Y-79202619D01*
X89534857Y-79202619D02*
X89344381Y-79202619D01*
X89344381Y-79202619D02*
X89249143Y-79155000D01*
X89249143Y-79155000D02*
X89201524Y-79059761D01*
X89201524Y-79059761D02*
X89201524Y-78678809D01*
X89201524Y-78678809D02*
X89249143Y-78583571D01*
X89249143Y-78583571D02*
X89344381Y-78535952D01*
X89344381Y-78535952D02*
X89534857Y-78535952D01*
X89534857Y-78535952D02*
X89630095Y-78583571D01*
X89630095Y-78583571D02*
X89677714Y-78678809D01*
X89677714Y-78678809D02*
X89677714Y-78774047D01*
X89677714Y-78774047D02*
X89201524Y-78869285D01*
X89963429Y-78535952D02*
X90344381Y-78535952D01*
X90106286Y-78202619D02*
X90106286Y-79059761D01*
X90106286Y-79059761D02*
X90153905Y-79155000D01*
X90153905Y-79155000D02*
X90249143Y-79202619D01*
X90249143Y-79202619D02*
X90344381Y-79202619D01*
X91201524Y-79202619D02*
X90630096Y-79202619D01*
X90915810Y-79202619D02*
X90915810Y-78202619D01*
X90915810Y-78202619D02*
X90820572Y-78345476D01*
X90820572Y-78345476D02*
X90725334Y-78440714D01*
X90725334Y-78440714D02*
X90630096Y-78488333D01*
X106172095Y-92516619D02*
X106172095Y-91516619D01*
X106172095Y-91992809D02*
X106743523Y-91992809D01*
X106743523Y-92516619D02*
X106743523Y-91516619D01*
X107172095Y-91611857D02*
X107219714Y-91564238D01*
X107219714Y-91564238D02*
X107314952Y-91516619D01*
X107314952Y-91516619D02*
X107553047Y-91516619D01*
X107553047Y-91516619D02*
X107648285Y-91564238D01*
X107648285Y-91564238D02*
X107695904Y-91611857D01*
X107695904Y-91611857D02*
X107743523Y-91707095D01*
X107743523Y-91707095D02*
X107743523Y-91802333D01*
X107743523Y-91802333D02*
X107695904Y-91945190D01*
X107695904Y-91945190D02*
X107124476Y-92516619D01*
X107124476Y-92516619D02*
X107743523Y-92516619D01*
X82010666Y-93442619D02*
X82582094Y-93442619D01*
X82296380Y-94442619D02*
X82296380Y-93442619D01*
X83343999Y-93775952D02*
X83343999Y-94585476D01*
X83343999Y-94585476D02*
X83296380Y-94680714D01*
X83296380Y-94680714D02*
X83248761Y-94728333D01*
X83248761Y-94728333D02*
X83153523Y-94775952D01*
X83153523Y-94775952D02*
X83010666Y-94775952D01*
X83010666Y-94775952D02*
X82915428Y-94728333D01*
X83343999Y-94395000D02*
X83248761Y-94442619D01*
X83248761Y-94442619D02*
X83058285Y-94442619D01*
X83058285Y-94442619D02*
X82963047Y-94395000D01*
X82963047Y-94395000D02*
X82915428Y-94347380D01*
X82915428Y-94347380D02*
X82867809Y-94252142D01*
X82867809Y-94252142D02*
X82867809Y-93966428D01*
X82867809Y-93966428D02*
X82915428Y-93871190D01*
X82915428Y-93871190D02*
X82963047Y-93823571D01*
X82963047Y-93823571D02*
X83058285Y-93775952D01*
X83058285Y-93775952D02*
X83248761Y-93775952D01*
X83248761Y-93775952D02*
X83343999Y-93823571D01*
X83820190Y-94442619D02*
X83820190Y-93775952D01*
X83820190Y-93966428D02*
X83867809Y-93871190D01*
X83867809Y-93871190D02*
X83915428Y-93823571D01*
X83915428Y-93823571D02*
X84010666Y-93775952D01*
X84010666Y-93775952D02*
X84105904Y-93775952D01*
X84582095Y-94442619D02*
X84486857Y-94395000D01*
X84486857Y-94395000D02*
X84439238Y-94347380D01*
X84439238Y-94347380D02*
X84391619Y-94252142D01*
X84391619Y-94252142D02*
X84391619Y-93966428D01*
X84391619Y-93966428D02*
X84439238Y-93871190D01*
X84439238Y-93871190D02*
X84486857Y-93823571D01*
X84486857Y-93823571D02*
X84582095Y-93775952D01*
X84582095Y-93775952D02*
X84724952Y-93775952D01*
X84724952Y-93775952D02*
X84820190Y-93823571D01*
X84820190Y-93823571D02*
X84867809Y-93871190D01*
X84867809Y-93871190D02*
X84915428Y-93966428D01*
X84915428Y-93966428D02*
X84915428Y-94252142D01*
X84915428Y-94252142D02*
X84867809Y-94347380D01*
X84867809Y-94347380D02*
X84820190Y-94395000D01*
X84820190Y-94395000D02*
X84724952Y-94442619D01*
X84724952Y-94442619D02*
X84582095Y-94442619D01*
X85772571Y-93775952D02*
X85772571Y-94442619D01*
X85344000Y-93775952D02*
X85344000Y-94299761D01*
X85344000Y-94299761D02*
X85391619Y-94395000D01*
X85391619Y-94395000D02*
X85486857Y-94442619D01*
X85486857Y-94442619D02*
X85629714Y-94442619D01*
X85629714Y-94442619D02*
X85724952Y-94395000D01*
X85724952Y-94395000D02*
X85772571Y-94347380D01*
X86248762Y-93775952D02*
X86248762Y-94442619D01*
X86248762Y-93871190D02*
X86296381Y-93823571D01*
X86296381Y-93823571D02*
X86391619Y-93775952D01*
X86391619Y-93775952D02*
X86534476Y-93775952D01*
X86534476Y-93775952D02*
X86629714Y-93823571D01*
X86629714Y-93823571D02*
X86677333Y-93918809D01*
X86677333Y-93918809D02*
X86677333Y-94442619D01*
X87582095Y-94442619D02*
X87582095Y-93442619D01*
X87582095Y-94395000D02*
X87486857Y-94442619D01*
X87486857Y-94442619D02*
X87296381Y-94442619D01*
X87296381Y-94442619D02*
X87201143Y-94395000D01*
X87201143Y-94395000D02*
X87153524Y-94347380D01*
X87153524Y-94347380D02*
X87105905Y-94252142D01*
X87105905Y-94252142D02*
X87105905Y-93966428D01*
X87105905Y-93966428D02*
X87153524Y-93871190D01*
X87153524Y-93871190D02*
X87201143Y-93823571D01*
X87201143Y-93823571D02*
X87296381Y-93775952D01*
X87296381Y-93775952D02*
X87486857Y-93775952D01*
X87486857Y-93775952D02*
X87582095Y-93823571D01*
X88582095Y-94442619D02*
X88010667Y-94442619D01*
X88296381Y-94442619D02*
X88296381Y-93442619D01*
X88296381Y-93442619D02*
X88201143Y-93585476D01*
X88201143Y-93585476D02*
X88105905Y-93680714D01*
X88105905Y-93680714D02*
X88010667Y-93728333D01*
X101687333Y-87362380D02*
X101639714Y-87410000D01*
X101639714Y-87410000D02*
X101496857Y-87457619D01*
X101496857Y-87457619D02*
X101401619Y-87457619D01*
X101401619Y-87457619D02*
X101258762Y-87410000D01*
X101258762Y-87410000D02*
X101163524Y-87314761D01*
X101163524Y-87314761D02*
X101115905Y-87219523D01*
X101115905Y-87219523D02*
X101068286Y-87029047D01*
X101068286Y-87029047D02*
X101068286Y-86886190D01*
X101068286Y-86886190D02*
X101115905Y-86695714D01*
X101115905Y-86695714D02*
X101163524Y-86600476D01*
X101163524Y-86600476D02*
X101258762Y-86505238D01*
X101258762Y-86505238D02*
X101401619Y-86457619D01*
X101401619Y-86457619D02*
X101496857Y-86457619D01*
X101496857Y-86457619D02*
X101639714Y-86505238D01*
X101639714Y-86505238D02*
X101687333Y-86552857D01*
X102544476Y-86457619D02*
X102354000Y-86457619D01*
X102354000Y-86457619D02*
X102258762Y-86505238D01*
X102258762Y-86505238D02*
X102211143Y-86552857D01*
X102211143Y-86552857D02*
X102115905Y-86695714D01*
X102115905Y-86695714D02*
X102068286Y-86886190D01*
X102068286Y-86886190D02*
X102068286Y-87267142D01*
X102068286Y-87267142D02*
X102115905Y-87362380D01*
X102115905Y-87362380D02*
X102163524Y-87410000D01*
X102163524Y-87410000D02*
X102258762Y-87457619D01*
X102258762Y-87457619D02*
X102449238Y-87457619D01*
X102449238Y-87457619D02*
X102544476Y-87410000D01*
X102544476Y-87410000D02*
X102592095Y-87362380D01*
X102592095Y-87362380D02*
X102639714Y-87267142D01*
X102639714Y-87267142D02*
X102639714Y-87029047D01*
X102639714Y-87029047D02*
X102592095Y-86933809D01*
X102592095Y-86933809D02*
X102544476Y-86886190D01*
X102544476Y-86886190D02*
X102449238Y-86838571D01*
X102449238Y-86838571D02*
X102258762Y-86838571D01*
X102258762Y-86838571D02*
X102163524Y-86886190D01*
X102163524Y-86886190D02*
X102115905Y-86933809D01*
X102115905Y-86933809D02*
X102068286Y-87029047D01*
X91516523Y-79072095D02*
X91973666Y-79072095D01*
X91745094Y-79872095D02*
X91745094Y-79072095D01*
X92545095Y-79834000D02*
X92468904Y-79872095D01*
X92468904Y-79872095D02*
X92316523Y-79872095D01*
X92316523Y-79872095D02*
X92240333Y-79834000D01*
X92240333Y-79834000D02*
X92202237Y-79757809D01*
X92202237Y-79757809D02*
X92202237Y-79453047D01*
X92202237Y-79453047D02*
X92240333Y-79376857D01*
X92240333Y-79376857D02*
X92316523Y-79338761D01*
X92316523Y-79338761D02*
X92468904Y-79338761D01*
X92468904Y-79338761D02*
X92545095Y-79376857D01*
X92545095Y-79376857D02*
X92583190Y-79453047D01*
X92583190Y-79453047D02*
X92583190Y-79529238D01*
X92583190Y-79529238D02*
X92202237Y-79605428D01*
X92926047Y-79338761D02*
X92926047Y-79872095D01*
X92926047Y-79414952D02*
X92964142Y-79376857D01*
X92964142Y-79376857D02*
X93040332Y-79338761D01*
X93040332Y-79338761D02*
X93154618Y-79338761D01*
X93154618Y-79338761D02*
X93230809Y-79376857D01*
X93230809Y-79376857D02*
X93268904Y-79453047D01*
X93268904Y-79453047D02*
X93268904Y-79872095D01*
X93992714Y-79872095D02*
X93992714Y-79453047D01*
X93992714Y-79453047D02*
X93954619Y-79376857D01*
X93954619Y-79376857D02*
X93878428Y-79338761D01*
X93878428Y-79338761D02*
X93726047Y-79338761D01*
X93726047Y-79338761D02*
X93649857Y-79376857D01*
X93992714Y-79834000D02*
X93916523Y-79872095D01*
X93916523Y-79872095D02*
X93726047Y-79872095D01*
X93726047Y-79872095D02*
X93649857Y-79834000D01*
X93649857Y-79834000D02*
X93611761Y-79757809D01*
X93611761Y-79757809D02*
X93611761Y-79681619D01*
X93611761Y-79681619D02*
X93649857Y-79605428D01*
X93649857Y-79605428D02*
X93726047Y-79567333D01*
X93726047Y-79567333D02*
X93916523Y-79567333D01*
X93916523Y-79567333D02*
X93992714Y-79529238D01*
X94373667Y-79872095D02*
X94373667Y-79072095D01*
X94373667Y-79376857D02*
X94449857Y-79338761D01*
X94449857Y-79338761D02*
X94602238Y-79338761D01*
X94602238Y-79338761D02*
X94678429Y-79376857D01*
X94678429Y-79376857D02*
X94716524Y-79414952D01*
X94716524Y-79414952D02*
X94754619Y-79491142D01*
X94754619Y-79491142D02*
X94754619Y-79719714D01*
X94754619Y-79719714D02*
X94716524Y-79795904D01*
X94716524Y-79795904D02*
X94678429Y-79834000D01*
X94678429Y-79834000D02*
X94602238Y-79872095D01*
X94602238Y-79872095D02*
X94449857Y-79872095D01*
X94449857Y-79872095D02*
X94373667Y-79834000D01*
X95211762Y-79872095D02*
X95135572Y-79834000D01*
X95135572Y-79834000D02*
X95097477Y-79757809D01*
X95097477Y-79757809D02*
X95097477Y-79072095D01*
X95821287Y-79834000D02*
X95745096Y-79872095D01*
X95745096Y-79872095D02*
X95592715Y-79872095D01*
X95592715Y-79872095D02*
X95516525Y-79834000D01*
X95516525Y-79834000D02*
X95478429Y-79757809D01*
X95478429Y-79757809D02*
X95478429Y-79453047D01*
X95478429Y-79453047D02*
X95516525Y-79376857D01*
X95516525Y-79376857D02*
X95592715Y-79338761D01*
X95592715Y-79338761D02*
X95745096Y-79338761D01*
X95745096Y-79338761D02*
X95821287Y-79376857D01*
X95821287Y-79376857D02*
X95859382Y-79453047D01*
X95859382Y-79453047D02*
X95859382Y-79529238D01*
X95859382Y-79529238D02*
X95478429Y-79605428D01*
X96621286Y-79872095D02*
X96164143Y-79872095D01*
X96392715Y-79872095D02*
X96392715Y-79072095D01*
X96392715Y-79072095D02*
X96316524Y-79186380D01*
X96316524Y-79186380D02*
X96240334Y-79262571D01*
X96240334Y-79262571D02*
X96164143Y-79300666D01*
X92848095Y-85982619D02*
X92848095Y-86792142D01*
X92848095Y-86792142D02*
X92895714Y-86887380D01*
X92895714Y-86887380D02*
X92943333Y-86935000D01*
X92943333Y-86935000D02*
X93038571Y-86982619D01*
X93038571Y-86982619D02*
X93229047Y-86982619D01*
X93229047Y-86982619D02*
X93324285Y-86935000D01*
X93324285Y-86935000D02*
X93371904Y-86887380D01*
X93371904Y-86887380D02*
X93419523Y-86792142D01*
X93419523Y-86792142D02*
X93419523Y-85982619D01*
X93800476Y-85982619D02*
X94419523Y-85982619D01*
X94419523Y-85982619D02*
X94086190Y-86363571D01*
X94086190Y-86363571D02*
X94229047Y-86363571D01*
X94229047Y-86363571D02*
X94324285Y-86411190D01*
X94324285Y-86411190D02*
X94371904Y-86458809D01*
X94371904Y-86458809D02*
X94419523Y-86554047D01*
X94419523Y-86554047D02*
X94419523Y-86792142D01*
X94419523Y-86792142D02*
X94371904Y-86887380D01*
X94371904Y-86887380D02*
X94324285Y-86935000D01*
X94324285Y-86935000D02*
X94229047Y-86982619D01*
X94229047Y-86982619D02*
X93943333Y-86982619D01*
X93943333Y-86982619D02*
X93848095Y-86935000D01*
X93848095Y-86935000D02*
X93800476Y-86887380D01*
X104348619Y-84590095D02*
X104301000Y-84685333D01*
X104301000Y-84685333D02*
X104205761Y-84732952D01*
X104205761Y-84732952D02*
X103348619Y-84732952D01*
X104301000Y-83828190D02*
X104348619Y-83923428D01*
X104348619Y-83923428D02*
X104348619Y-84113904D01*
X104348619Y-84113904D02*
X104301000Y-84209142D01*
X104301000Y-84209142D02*
X104205761Y-84256761D01*
X104205761Y-84256761D02*
X103824809Y-84256761D01*
X103824809Y-84256761D02*
X103729571Y-84209142D01*
X103729571Y-84209142D02*
X103681952Y-84113904D01*
X103681952Y-84113904D02*
X103681952Y-83923428D01*
X103681952Y-83923428D02*
X103729571Y-83828190D01*
X103729571Y-83828190D02*
X103824809Y-83780571D01*
X103824809Y-83780571D02*
X103920047Y-83780571D01*
X103920047Y-83780571D02*
X104015285Y-84256761D01*
X104348619Y-82923428D02*
X103348619Y-82923428D01*
X104301000Y-82923428D02*
X104348619Y-83018666D01*
X104348619Y-83018666D02*
X104348619Y-83209142D01*
X104348619Y-83209142D02*
X104301000Y-83304380D01*
X104301000Y-83304380D02*
X104253380Y-83351999D01*
X104253380Y-83351999D02*
X104158142Y-83399618D01*
X104158142Y-83399618D02*
X103872428Y-83399618D01*
X103872428Y-83399618D02*
X103777190Y-83351999D01*
X103777190Y-83351999D02*
X103729571Y-83304380D01*
X103729571Y-83304380D02*
X103681952Y-83209142D01*
X103681952Y-83209142D02*
X103681952Y-83018666D01*
X103681952Y-83018666D02*
X103729571Y-82923428D01*
X104348619Y-81923428D02*
X104348619Y-82494856D01*
X104348619Y-82209142D02*
X103348619Y-82209142D01*
X103348619Y-82209142D02*
X103491476Y-82304380D01*
X103491476Y-82304380D02*
X103586714Y-82399618D01*
X103586714Y-82399618D02*
X103634333Y-82494856D01*
X100925333Y-77678619D02*
X100592000Y-77202428D01*
X100353905Y-77678619D02*
X100353905Y-76678619D01*
X100353905Y-76678619D02*
X100734857Y-76678619D01*
X100734857Y-76678619D02*
X100830095Y-76726238D01*
X100830095Y-76726238D02*
X100877714Y-76773857D01*
X100877714Y-76773857D02*
X100925333Y-76869095D01*
X100925333Y-76869095D02*
X100925333Y-77011952D01*
X100925333Y-77011952D02*
X100877714Y-77107190D01*
X100877714Y-77107190D02*
X100830095Y-77154809D01*
X100830095Y-77154809D02*
X100734857Y-77202428D01*
X100734857Y-77202428D02*
X100353905Y-77202428D01*
X101306286Y-76773857D02*
X101353905Y-76726238D01*
X101353905Y-76726238D02*
X101449143Y-76678619D01*
X101449143Y-76678619D02*
X101687238Y-76678619D01*
X101687238Y-76678619D02*
X101782476Y-76726238D01*
X101782476Y-76726238D02*
X101830095Y-76773857D01*
X101830095Y-76773857D02*
X101877714Y-76869095D01*
X101877714Y-76869095D02*
X101877714Y-76964333D01*
X101877714Y-76964333D02*
X101830095Y-77107190D01*
X101830095Y-77107190D02*
X101258667Y-77678619D01*
X101258667Y-77678619D02*
X101877714Y-77678619D01*
X97496333Y-84917619D02*
X97163000Y-84441428D01*
X96924905Y-84917619D02*
X96924905Y-83917619D01*
X96924905Y-83917619D02*
X97305857Y-83917619D01*
X97305857Y-83917619D02*
X97401095Y-83965238D01*
X97401095Y-83965238D02*
X97448714Y-84012857D01*
X97448714Y-84012857D02*
X97496333Y-84108095D01*
X97496333Y-84108095D02*
X97496333Y-84250952D01*
X97496333Y-84250952D02*
X97448714Y-84346190D01*
X97448714Y-84346190D02*
X97401095Y-84393809D01*
X97401095Y-84393809D02*
X97305857Y-84441428D01*
X97305857Y-84441428D02*
X96924905Y-84441428D01*
X98401095Y-83917619D02*
X97924905Y-83917619D01*
X97924905Y-83917619D02*
X97877286Y-84393809D01*
X97877286Y-84393809D02*
X97924905Y-84346190D01*
X97924905Y-84346190D02*
X98020143Y-84298571D01*
X98020143Y-84298571D02*
X98258238Y-84298571D01*
X98258238Y-84298571D02*
X98353476Y-84346190D01*
X98353476Y-84346190D02*
X98401095Y-84393809D01*
X98401095Y-84393809D02*
X98448714Y-84489047D01*
X98448714Y-84489047D02*
X98448714Y-84727142D01*
X98448714Y-84727142D02*
X98401095Y-84822380D01*
X98401095Y-84822380D02*
X98353476Y-84870000D01*
X98353476Y-84870000D02*
X98258238Y-84917619D01*
X98258238Y-84917619D02*
X98020143Y-84917619D01*
X98020143Y-84917619D02*
X97924905Y-84870000D01*
X97924905Y-84870000D02*
X97877286Y-84822380D01*
X97877333Y-87584619D02*
X97401143Y-87584619D01*
X97401143Y-87584619D02*
X97401143Y-86584619D01*
X98163048Y-86679857D02*
X98210667Y-86632238D01*
X98210667Y-86632238D02*
X98305905Y-86584619D01*
X98305905Y-86584619D02*
X98544000Y-86584619D01*
X98544000Y-86584619D02*
X98639238Y-86632238D01*
X98639238Y-86632238D02*
X98686857Y-86679857D01*
X98686857Y-86679857D02*
X98734476Y-86775095D01*
X98734476Y-86775095D02*
X98734476Y-86870333D01*
X98734476Y-86870333D02*
X98686857Y-87013190D01*
X98686857Y-87013190D02*
X98115429Y-87584619D01*
X98115429Y-87584619D02*
X98734476Y-87584619D01*
X113284095Y-73360619D02*
X113284095Y-72360619D01*
X113284095Y-72836809D02*
X113855523Y-72836809D01*
X113855523Y-73360619D02*
X113855523Y-72360619D01*
X114855523Y-73360619D02*
X114284095Y-73360619D01*
X114569809Y-73360619D02*
X114569809Y-72360619D01*
X114569809Y-72360619D02*
X114474571Y-72503476D01*
X114474571Y-72503476D02*
X114379333Y-72598714D01*
X114379333Y-72598714D02*
X114284095Y-72646333D01*
X100387380Y-74276666D02*
X100435000Y-74324285D01*
X100435000Y-74324285D02*
X100482619Y-74467142D01*
X100482619Y-74467142D02*
X100482619Y-74562380D01*
X100482619Y-74562380D02*
X100435000Y-74705237D01*
X100435000Y-74705237D02*
X100339761Y-74800475D01*
X100339761Y-74800475D02*
X100244523Y-74848094D01*
X100244523Y-74848094D02*
X100054047Y-74895713D01*
X100054047Y-74895713D02*
X99911190Y-74895713D01*
X99911190Y-74895713D02*
X99720714Y-74848094D01*
X99720714Y-74848094D02*
X99625476Y-74800475D01*
X99625476Y-74800475D02*
X99530238Y-74705237D01*
X99530238Y-74705237D02*
X99482619Y-74562380D01*
X99482619Y-74562380D02*
X99482619Y-74467142D01*
X99482619Y-74467142D02*
X99530238Y-74324285D01*
X99530238Y-74324285D02*
X99577857Y-74276666D01*
X99482619Y-73943332D02*
X99482619Y-73276666D01*
X99482619Y-73276666D02*
X100482619Y-73705237D01*
X89408095Y-80742619D02*
X89408095Y-81552142D01*
X89408095Y-81552142D02*
X89455714Y-81647380D01*
X89455714Y-81647380D02*
X89503333Y-81695000D01*
X89503333Y-81695000D02*
X89598571Y-81742619D01*
X89598571Y-81742619D02*
X89789047Y-81742619D01*
X89789047Y-81742619D02*
X89884285Y-81695000D01*
X89884285Y-81695000D02*
X89931904Y-81647380D01*
X89931904Y-81647380D02*
X89979523Y-81552142D01*
X89979523Y-81552142D02*
X89979523Y-80742619D01*
X90884285Y-81075952D02*
X90884285Y-81742619D01*
X90646190Y-80695000D02*
X90408095Y-81409285D01*
X90408095Y-81409285D02*
X91027142Y-81409285D01*
X100156619Y-91733666D02*
X99680428Y-92066999D01*
X100156619Y-92305094D02*
X99156619Y-92305094D01*
X99156619Y-92305094D02*
X99156619Y-91924142D01*
X99156619Y-91924142D02*
X99204238Y-91828904D01*
X99204238Y-91828904D02*
X99251857Y-91781285D01*
X99251857Y-91781285D02*
X99347095Y-91733666D01*
X99347095Y-91733666D02*
X99489952Y-91733666D01*
X99489952Y-91733666D02*
X99585190Y-91781285D01*
X99585190Y-91781285D02*
X99632809Y-91828904D01*
X99632809Y-91828904D02*
X99680428Y-91924142D01*
X99680428Y-91924142D02*
X99680428Y-92305094D01*
X100156619Y-90781285D02*
X100156619Y-91352713D01*
X100156619Y-91066999D02*
X99156619Y-91066999D01*
X99156619Y-91066999D02*
X99299476Y-91162237D01*
X99299476Y-91162237D02*
X99394714Y-91257475D01*
X99394714Y-91257475D02*
X99442333Y-91352713D01*
X98582619Y-83131904D02*
X99392142Y-83131904D01*
X99392142Y-83131904D02*
X99487380Y-83084285D01*
X99487380Y-83084285D02*
X99535000Y-83036666D01*
X99535000Y-83036666D02*
X99582619Y-82941428D01*
X99582619Y-82941428D02*
X99582619Y-82750952D01*
X99582619Y-82750952D02*
X99535000Y-82655714D01*
X99535000Y-82655714D02*
X99487380Y-82608095D01*
X99487380Y-82608095D02*
X99392142Y-82560476D01*
X99392142Y-82560476D02*
X98582619Y-82560476D01*
X98677857Y-82131904D02*
X98630238Y-82084285D01*
X98630238Y-82084285D02*
X98582619Y-81989047D01*
X98582619Y-81989047D02*
X98582619Y-81750952D01*
X98582619Y-81750952D02*
X98630238Y-81655714D01*
X98630238Y-81655714D02*
X98677857Y-81608095D01*
X98677857Y-81608095D02*
X98773095Y-81560476D01*
X98773095Y-81560476D02*
X98868333Y-81560476D01*
X98868333Y-81560476D02*
X99011190Y-81608095D01*
X99011190Y-81608095D02*
X99582619Y-82179523D01*
X99582619Y-82179523D02*
X99582619Y-81560476D01*
X103757380Y-74516666D02*
X103805000Y-74564285D01*
X103805000Y-74564285D02*
X103852619Y-74707142D01*
X103852619Y-74707142D02*
X103852619Y-74802380D01*
X103852619Y-74802380D02*
X103805000Y-74945237D01*
X103805000Y-74945237D02*
X103709761Y-75040475D01*
X103709761Y-75040475D02*
X103614523Y-75088094D01*
X103614523Y-75088094D02*
X103424047Y-75135713D01*
X103424047Y-75135713D02*
X103281190Y-75135713D01*
X103281190Y-75135713D02*
X103090714Y-75088094D01*
X103090714Y-75088094D02*
X102995476Y-75040475D01*
X102995476Y-75040475D02*
X102900238Y-74945237D01*
X102900238Y-74945237D02*
X102852619Y-74802380D01*
X102852619Y-74802380D02*
X102852619Y-74707142D01*
X102852619Y-74707142D02*
X102900238Y-74564285D01*
X102900238Y-74564285D02*
X102947857Y-74516666D01*
X103281190Y-73945237D02*
X103233571Y-74040475D01*
X103233571Y-74040475D02*
X103185952Y-74088094D01*
X103185952Y-74088094D02*
X103090714Y-74135713D01*
X103090714Y-74135713D02*
X103043095Y-74135713D01*
X103043095Y-74135713D02*
X102947857Y-74088094D01*
X102947857Y-74088094D02*
X102900238Y-74040475D01*
X102900238Y-74040475D02*
X102852619Y-73945237D01*
X102852619Y-73945237D02*
X102852619Y-73754761D01*
X102852619Y-73754761D02*
X102900238Y-73659523D01*
X102900238Y-73659523D02*
X102947857Y-73611904D01*
X102947857Y-73611904D02*
X103043095Y-73564285D01*
X103043095Y-73564285D02*
X103090714Y-73564285D01*
X103090714Y-73564285D02*
X103185952Y-73611904D01*
X103185952Y-73611904D02*
X103233571Y-73659523D01*
X103233571Y-73659523D02*
X103281190Y-73754761D01*
X103281190Y-73754761D02*
X103281190Y-73945237D01*
X103281190Y-73945237D02*
X103328809Y-74040475D01*
X103328809Y-74040475D02*
X103376428Y-74088094D01*
X103376428Y-74088094D02*
X103471666Y-74135713D01*
X103471666Y-74135713D02*
X103662142Y-74135713D01*
X103662142Y-74135713D02*
X103757380Y-74088094D01*
X103757380Y-74088094D02*
X103805000Y-74040475D01*
X103805000Y-74040475D02*
X103852619Y-73945237D01*
X103852619Y-73945237D02*
X103852619Y-73754761D01*
X103852619Y-73754761D02*
X103805000Y-73659523D01*
X103805000Y-73659523D02*
X103757380Y-73611904D01*
X103757380Y-73611904D02*
X103662142Y-73564285D01*
X103662142Y-73564285D02*
X103471666Y-73564285D01*
X103471666Y-73564285D02*
X103376428Y-73611904D01*
X103376428Y-73611904D02*
X103328809Y-73659523D01*
X103328809Y-73659523D02*
X103281190Y-73754761D01*
D12*
X89132936Y-87055000D02*
X89587064Y-87055000D01*
X89132936Y-88525000D02*
X89587064Y-88525000D01*
X89571252Y-90515000D02*
X89048748Y-90515000D01*
X89571252Y-89045000D02*
X89048748Y-89045000D01*
X89508064Y-92683000D02*
X89053936Y-92683000D01*
X89508064Y-91213000D02*
X89053936Y-91213000D01*
X85532000Y-77992000D02*
X96332000Y-77992000D01*
X96332000Y-77992000D02*
X96332000Y-73392000D01*
X96332000Y-73392000D02*
X85532000Y-73392000D01*
X85532000Y-73392000D02*
X85532000Y-77992000D01*
X88184701Y-72722000D02*
G75*
G03*
X88184701Y-72722000I-482701J0D01*
G01*
X84394000Y-91252000D02*
X86294000Y-91252000D01*
X84394000Y-93152000D02*
X84394000Y-91252000D01*
X86294000Y-91252000D02*
X86294000Y-93152000D01*
X86294000Y-93152000D02*
X84394000Y-93152000D01*
X101719748Y-87911000D02*
X102242252Y-87911000D01*
X101719748Y-89381000D02*
X102242252Y-89381000D01*
X96840000Y-79187000D02*
X98740000Y-79187000D01*
X96840000Y-81087000D02*
X96840000Y-79187000D01*
X98740000Y-79187000D02*
X98740000Y-81087000D01*
X98740000Y-81087000D02*
X96840000Y-81087000D01*
X93870000Y-87250000D02*
X92070000Y-87250000D01*
X93870000Y-87250000D02*
X94670000Y-87250000D01*
X93870000Y-90370000D02*
X93070000Y-90370000D01*
X93870000Y-90370000D02*
X94670000Y-90370000D01*
X113372000Y-88652000D02*
X114012000Y-88652000D01*
X114012000Y-88652000D02*
X114012000Y-88252000D01*
X104652000Y-88412000D02*
X113772000Y-88412000D01*
X104652000Y-88412000D02*
X104652000Y-78292000D01*
X112212000Y-88412000D02*
X112212000Y-78292000D01*
X113312000Y-88412000D02*
X113312000Y-78292000D01*
X113772000Y-88412000D02*
X113772000Y-78292000D01*
X109993000Y-87400000D02*
X110100000Y-87506000D01*
X110259000Y-87134000D02*
X110366000Y-87240000D01*
X107058000Y-84464000D02*
X107165000Y-84571000D01*
X107324000Y-84198000D02*
X107431000Y-84305000D01*
X109704000Y-82110000D02*
X110100000Y-82505000D01*
X109986000Y-81859000D02*
X110366000Y-82239000D01*
X107058000Y-79464000D02*
X107438000Y-79844000D01*
X107324000Y-79198000D02*
X107720000Y-79593000D01*
X104652000Y-78292000D02*
X113772000Y-78292000D01*
X110892000Y-85852000D02*
G75*
G03*
X110892000Y-85852000I-2180000J0D01*
G01*
X110892000Y-80852000D02*
G75*
G03*
X110892000Y-80852000I-2180000J0D01*
G01*
X98112936Y-76365000D02*
X98567064Y-76365000D01*
X98112936Y-77835000D02*
X98567064Y-77835000D01*
X94625936Y-83593000D02*
X95080064Y-83593000D01*
X94625936Y-85063000D02*
X95080064Y-85063000D01*
X98454242Y-89206000D02*
X97633758Y-89206000D01*
X98454242Y-88086000D02*
X97633758Y-88086000D01*
X99075000Y-73848748D02*
X99075000Y-74371252D01*
X97605000Y-73848748D02*
X97605000Y-74371252D01*
X98779000Y-91339936D02*
X98779000Y-91794064D01*
X97309000Y-91339936D02*
X97309000Y-91794064D01*
X103180000Y-82290000D02*
X103180000Y-79365000D01*
X103180000Y-82290000D02*
X103180000Y-83790000D01*
X99960000Y-82290000D02*
X99960000Y-80790000D01*
X99960000Y-82290000D02*
X99960000Y-83790000D01*
X102445000Y-74088748D02*
X102445000Y-74611252D01*
X100975000Y-74088748D02*
X100975000Y-74611252D01*
%LPC*%
D13*
X88360000Y-87790000D03*
X90360000Y-87790000D03*
D14*
X90347500Y-89780000D03*
X88272500Y-89780000D03*
D15*
X90281000Y-91948000D03*
X88281000Y-91948000D03*
D16*
X86781996Y-74422000D03*
X86781996Y-76962000D03*
X95081996Y-76962000D03*
X95081996Y-74422000D03*
D17*
X110800000Y-91900000D03*
D18*
X85344000Y-92202000D03*
D19*
X100943500Y-88646000D03*
X103018500Y-88646000D03*
D18*
X97790000Y-80137000D03*
D20*
X92732500Y-87860000D03*
X92732500Y-88810000D03*
X92732500Y-89760000D03*
X95007500Y-89760000D03*
X95007500Y-87860000D03*
D21*
X108712000Y-85852000D03*
D22*
X108712000Y-80852000D03*
D13*
X97340000Y-77100000D03*
X99340000Y-77100000D03*
X93853000Y-84328000D03*
X95853000Y-84328000D03*
D23*
X99194000Y-88646000D03*
X96894000Y-88646000D03*
D17*
X111000000Y-75000000D03*
D24*
X98340000Y-73072500D03*
X98340000Y-75147500D03*
D25*
X91465400Y-84414200D03*
X91465400Y-83764200D03*
X91465400Y-83113800D03*
X91465400Y-82463800D03*
X89128600Y-82463800D03*
X89128600Y-83113800D03*
X89128600Y-83764200D03*
X89128600Y-84414200D03*
D26*
X98044000Y-90567000D03*
X98044000Y-92567000D03*
D27*
X102545000Y-80177500D03*
X101895000Y-80177500D03*
X101245000Y-80177500D03*
X100595000Y-80177500D03*
X100595000Y-84402500D03*
X101245000Y-84402500D03*
X101895000Y-84402500D03*
X102545000Y-84402500D03*
D24*
X101710000Y-73312500D03*
X101710000Y-75387500D03*
D28*
X82042000Y-75438000D03*
D29*
X82042000Y-77978000D03*
X82042000Y-80518000D03*
X82042000Y-83058000D03*
X82042000Y-85598000D03*
X82042000Y-88138000D03*
X82042000Y-90678000D03*
%LPD*%
M02*
