G04 #@! TF.GenerationSoftware,KiCad,Pcbnew,7.0.2*
G04 #@! TF.CreationDate,2023-10-22T17:07:00+02:00*
G04 #@! TF.ProjectId,aansturing lamp pcb,61616e73-7475-4726-996e-67206c616d70,rev?*
G04 #@! TF.SameCoordinates,Original*
G04 #@! TF.FileFunction,Copper,L1,Top*
G04 #@! TF.FilePolarity,Positive*
%FSLAX46Y46*%
G04 Gerber Fmt 4.6, Leading zero omitted, Abs format (unit mm)*
G04 Created by KiCad (PCBNEW 7.0.2) date 2023-10-22 17:07:00*
%MOMM*%
%LPD*%
G01*
G04 APERTURE LIST*
G04 Aperture macros list*
%AMRoundRect*
0 Rectangle with rounded corners*
0 $1 Rounding radius*
0 $2 $3 $4 $5 $6 $7 $8 $9 X,Y pos of 4 corners*
0 Add a 4 corners polygon primitive as box body*
4,1,4,$2,$3,$4,$5,$6,$7,$8,$9,$2,$3,0*
0 Add four circle primitives for the rounded corners*
1,1,$1+$1,$2,$3*
1,1,$1+$1,$4,$5*
1,1,$1+$1,$6,$7*
1,1,$1+$1,$8,$9*
0 Add four rect primitives between the rounded corners*
20,1,$1+$1,$2,$3,$4,$5,0*
20,1,$1+$1,$4,$5,$6,$7,0*
20,1,$1+$1,$6,$7,$8,$9,0*
20,1,$1+$1,$8,$9,$2,$3,0*%
G04 Aperture macros list end*
G04 #@! TA.AperFunction,SMDPad,CuDef*
%ADD10RoundRect,0.250000X-0.350000X-0.450000X0.350000X-0.450000X0.350000X0.450000X-0.350000X0.450000X0*%
G04 #@! TD*
G04 #@! TA.AperFunction,SMDPad,CuDef*
%ADD11RoundRect,0.250000X0.337500X0.475000X-0.337500X0.475000X-0.337500X-0.475000X0.337500X-0.475000X0*%
G04 #@! TD*
G04 #@! TA.AperFunction,SMDPad,CuDef*
%ADD12RoundRect,0.250000X0.350000X0.450000X-0.350000X0.450000X-0.350000X-0.450000X0.350000X-0.450000X0*%
G04 #@! TD*
G04 #@! TA.AperFunction,SMDPad,CuDef*
%ADD13RoundRect,0.375000X0.575000X0.375000X-0.575000X0.375000X-0.575000X-0.375000X0.575000X-0.375000X0*%
G04 #@! TD*
G04 #@! TA.AperFunction,SMDPad,CuDef*
%ADD14R,1.500000X1.500000*%
G04 #@! TD*
G04 #@! TA.AperFunction,SMDPad,CuDef*
%ADD15RoundRect,0.250000X-0.337500X-0.475000X0.337500X-0.475000X0.337500X0.475000X-0.337500X0.475000X0*%
G04 #@! TD*
G04 #@! TA.AperFunction,SMDPad,CuDef*
%ADD16RoundRect,0.150000X-0.512500X-0.150000X0.512500X-0.150000X0.512500X0.150000X-0.512500X0.150000X0*%
G04 #@! TD*
G04 #@! TA.AperFunction,ComponentPad*
%ADD17R,2.600000X2.600000*%
G04 #@! TD*
G04 #@! TA.AperFunction,ComponentPad*
%ADD18C,2.600000*%
G04 #@! TD*
G04 #@! TA.AperFunction,SMDPad,CuDef*
%ADD19RoundRect,0.250000X0.275000X0.350000X-0.275000X0.350000X-0.275000X-0.350000X0.275000X-0.350000X0*%
G04 #@! TD*
G04 #@! TA.AperFunction,SMDPad,CuDef*
%ADD20RoundRect,0.250000X-0.475000X0.337500X-0.475000X-0.337500X0.475000X-0.337500X0.475000X0.337500X0*%
G04 #@! TD*
G04 #@! TA.AperFunction,SMDPad,CuDef*
%ADD21R,1.524000X0.380000*%
G04 #@! TD*
G04 #@! TA.AperFunction,SMDPad,CuDef*
%ADD22RoundRect,0.250000X-0.450000X0.350000X-0.450000X-0.350000X0.450000X-0.350000X0.450000X0.350000X0*%
G04 #@! TD*
G04 #@! TA.AperFunction,SMDPad,CuDef*
%ADD23RoundRect,0.100000X-0.100000X0.712500X-0.100000X-0.712500X0.100000X-0.712500X0.100000X0.712500X0*%
G04 #@! TD*
G04 #@! TA.AperFunction,ComponentPad*
%ADD24R,1.700000X1.700000*%
G04 #@! TD*
G04 #@! TA.AperFunction,ComponentPad*
%ADD25O,1.700000X1.700000*%
G04 #@! TD*
G04 #@! TA.AperFunction,ViaPad*
%ADD26C,0.800000*%
G04 #@! TD*
G04 #@! TA.AperFunction,Conductor*
%ADD27C,0.250000*%
G04 #@! TD*
G04 APERTURE END LIST*
D10*
X88360000Y-87790000D03*
X90360000Y-87790000D03*
D11*
X90347500Y-89780000D03*
X88272500Y-89780000D03*
D12*
X90281000Y-91948000D03*
X88281000Y-91948000D03*
D13*
X86781996Y-74422000D03*
X86781996Y-76962000D03*
X95081996Y-76962000D03*
X95081996Y-74422000D03*
D14*
X85344000Y-92202000D03*
D15*
X100943500Y-88646000D03*
X103018500Y-88646000D03*
D14*
X97790000Y-80137000D03*
D16*
X92732500Y-87860000D03*
X92732500Y-88810000D03*
X92732500Y-89760000D03*
X95007500Y-89760000D03*
X95007500Y-87860000D03*
D17*
X108712000Y-85852000D03*
D18*
X108712000Y-80852000D03*
D10*
X97340000Y-77100000D03*
X99340000Y-77100000D03*
X93853000Y-84328000D03*
X95853000Y-84328000D03*
D19*
X99194000Y-88646000D03*
X96894000Y-88646000D03*
D20*
X98340000Y-73072500D03*
X98340000Y-75147500D03*
D21*
X91465400Y-84414200D03*
X91465400Y-83764200D03*
X91465400Y-83113800D03*
X91465400Y-82463800D03*
X89128600Y-82463800D03*
X89128600Y-83113800D03*
X89128600Y-83764200D03*
X89128600Y-84414200D03*
D22*
X98044000Y-90567000D03*
X98044000Y-92567000D03*
D23*
X102545000Y-80177500D03*
X101895000Y-80177500D03*
X101245000Y-80177500D03*
X100595000Y-80177500D03*
X100595000Y-84402500D03*
X101245000Y-84402500D03*
X101895000Y-84402500D03*
X102545000Y-84402500D03*
D20*
X101710000Y-73312500D03*
X101710000Y-75387500D03*
D24*
X82042000Y-75438000D03*
D25*
X82042000Y-77978000D03*
X82042000Y-80518000D03*
X82042000Y-83058000D03*
X82042000Y-85598000D03*
X82042000Y-88138000D03*
X82042000Y-90678000D03*
D26*
X91948000Y-80391000D03*
X88011000Y-85979000D03*
X95123000Y-86233000D03*
X99060000Y-84328000D03*
D27*
X101245000Y-88344500D02*
X101245000Y-84402500D01*
X100943500Y-88646000D02*
X101245000Y-88344500D01*
X99134500Y-84402500D02*
X99060000Y-84328000D01*
X88272500Y-89780000D02*
X88272500Y-87877500D01*
X95853000Y-84328000D02*
X95853000Y-85503000D01*
X92477400Y-83108800D02*
X92602796Y-82983404D01*
X92732500Y-88810000D02*
X93416751Y-88810000D01*
X88272500Y-87877500D02*
X88360000Y-87790000D01*
X91465400Y-83108800D02*
X92477400Y-83108800D01*
X92602796Y-82983404D02*
X92602796Y-81045796D01*
X92602796Y-81045796D02*
X91948000Y-80391000D01*
X94615000Y-86233000D02*
X95123000Y-86233000D01*
X93853000Y-86995000D02*
X94615000Y-86233000D01*
X93416751Y-88810000D02*
X93853000Y-88373751D01*
X93853000Y-88373751D02*
X93853000Y-86995000D01*
X100595000Y-84402500D02*
X99134500Y-84402500D01*
X95853000Y-85503000D02*
X95123000Y-86233000D01*
X101895000Y-87522500D02*
X101895000Y-84402500D01*
X103018500Y-88646000D02*
X101895000Y-87522500D01*
X84091996Y-76708000D02*
X86377996Y-74422000D01*
X81153000Y-76708000D02*
X84091996Y-76708000D01*
X86377996Y-74422000D02*
X86781996Y-74422000D01*
X82042000Y-80518000D02*
X80518000Y-78994000D01*
X80518000Y-78994000D02*
X80518000Y-77343000D01*
X80518000Y-77343000D02*
X81153000Y-76708000D01*
X101895000Y-75572500D02*
X101895000Y-80177500D01*
X101710000Y-75387500D02*
X101895000Y-75572500D01*
X93430996Y-72771000D02*
X95081996Y-74422000D01*
X83566000Y-72771000D02*
X93430996Y-72771000D01*
X82042000Y-74295000D02*
X83566000Y-72771000D01*
X82042000Y-75438000D02*
X82042000Y-74295000D01*
X96894000Y-88646000D02*
X94230751Y-88646000D01*
X93116751Y-89760000D02*
X92732500Y-89760000D01*
X90281000Y-91948000D02*
X90544500Y-91948000D01*
X90347500Y-89780000D02*
X92712500Y-89780000D01*
X98044000Y-92567000D02*
X97425000Y-91948000D01*
X97425000Y-91948000D02*
X90281000Y-91948000D01*
X90544500Y-91948000D02*
X92732500Y-89760000D01*
X94230751Y-88646000D02*
X93116751Y-89760000D01*
X92712500Y-89780000D02*
X92732500Y-89760000D01*
X98340000Y-76100000D02*
X97340000Y-77100000D01*
X97790000Y-80137000D02*
X97790000Y-79630004D01*
X95219996Y-77100000D02*
X95081996Y-76962000D01*
X95121996Y-76962000D02*
X95081996Y-76962000D01*
X97340000Y-77100000D02*
X97517500Y-77100000D01*
X97340000Y-77100000D02*
X95219996Y-77100000D01*
X98340000Y-75147500D02*
X98340000Y-76100000D01*
X97517500Y-77100000D02*
X100595000Y-80177500D01*
X97790000Y-79630004D02*
X95121996Y-76962000D01*
X95814500Y-90567000D02*
X98044000Y-90567000D01*
X105283000Y-90170000D02*
X105283000Y-81280000D01*
X95007500Y-89760000D02*
X95814500Y-90567000D01*
X98044000Y-90567000D02*
X104886000Y-90567000D01*
X105283000Y-81280000D02*
X105711000Y-80852000D01*
X104886000Y-90567000D02*
X105283000Y-90170000D01*
X105711000Y-80852000D02*
X108712000Y-80852000D01*
X96266000Y-82042000D02*
X93726000Y-82042000D01*
X93726000Y-82042000D02*
X93726000Y-80518000D01*
X97917000Y-85217000D02*
X97917000Y-83693000D01*
X96901000Y-86233000D02*
X97917000Y-85217000D01*
X95007500Y-87860000D02*
X96634500Y-86233000D01*
X93726000Y-82520600D02*
X93726000Y-82042000D01*
X92202000Y-78994000D02*
X83058000Y-78994000D01*
X92477400Y-83769200D02*
X93726000Y-82520600D01*
X96634500Y-86233000D02*
X96901000Y-86233000D01*
X93726000Y-80518000D02*
X92202000Y-78994000D01*
X91465400Y-83769200D02*
X92477400Y-83769200D01*
X83058000Y-78994000D02*
X82042000Y-77978000D01*
X97917000Y-83693000D02*
X96266000Y-82042000D01*
X89128600Y-82473800D02*
X85166200Y-82473800D01*
X85166200Y-82473800D02*
X82042000Y-85598000D01*
X91465400Y-82473800D02*
X91465400Y-81940400D01*
X91465400Y-81940400D02*
X91059000Y-81534000D01*
X91059000Y-81534000D02*
X83566000Y-81534000D01*
X83566000Y-81534000D02*
X82042000Y-83058000D01*
X87071200Y-83108800D02*
X82042000Y-88138000D01*
X90360000Y-87790000D02*
X92662500Y-87790000D01*
X90360000Y-87790000D02*
X90360000Y-83372700D01*
X92662500Y-87790000D02*
X92732500Y-87860000D01*
X90360000Y-83372700D02*
X90096100Y-83108800D01*
X90096100Y-83108800D02*
X89128600Y-83108800D01*
X89128600Y-83108800D02*
X87071200Y-83108800D01*
X99340000Y-77100000D02*
X99340000Y-77508959D01*
X101245000Y-79413959D02*
X101245000Y-80177500D01*
X99340000Y-77508959D02*
X101245000Y-79413959D01*
X89128600Y-83769200D02*
X88116600Y-83769200D01*
X88011000Y-91948000D02*
X88281000Y-91948000D01*
X86614000Y-85271800D02*
X86614000Y-90551000D01*
X88116600Y-83769200D02*
X86614000Y-85271800D01*
X86614000Y-90551000D02*
X88011000Y-91948000D01*
X91465400Y-84404200D02*
X93776800Y-84404200D01*
X93776800Y-84404200D02*
X93853000Y-84328000D01*
G04 #@! TA.AperFunction,Conductor*
G36*
X97306515Y-72020185D02*
G01*
X97352270Y-72072989D01*
X97362214Y-72142147D01*
X97333189Y-72205703D01*
X97327157Y-72212181D01*
X97272683Y-72266654D01*
X97180642Y-72415877D01*
X97125493Y-72582303D01*
X97115319Y-72681890D01*
X97115000Y-72688168D01*
X97115000Y-72822500D01*
X99564999Y-72822500D01*
X99564999Y-72688170D01*
X99564678Y-72681888D01*
X99554506Y-72582304D01*
X99499357Y-72415877D01*
X99407316Y-72266654D01*
X99352843Y-72212181D01*
X99319358Y-72150858D01*
X99324342Y-72081166D01*
X99366214Y-72025233D01*
X99431678Y-72000816D01*
X99440524Y-72000500D01*
X101023045Y-72000500D01*
X101090084Y-72020185D01*
X101135839Y-72072989D01*
X101145783Y-72142147D01*
X101116758Y-72205703D01*
X101062049Y-72242206D01*
X100915877Y-72290642D01*
X100766654Y-72382683D01*
X100642683Y-72506654D01*
X100550642Y-72655877D01*
X100495493Y-72822303D01*
X100485319Y-72921890D01*
X100485000Y-72928168D01*
X100484999Y-73062499D01*
X100485000Y-73062500D01*
X102934999Y-73062500D01*
X102934999Y-72928170D01*
X102934678Y-72921888D01*
X102924506Y-72822304D01*
X102869357Y-72655877D01*
X102777316Y-72506654D01*
X102653345Y-72382683D01*
X102504122Y-72290642D01*
X102357952Y-72242206D01*
X102300507Y-72202433D01*
X102273684Y-72137917D01*
X102285999Y-72069142D01*
X102333542Y-72017942D01*
X102396956Y-72000500D01*
X114875500Y-72000500D01*
X114942539Y-72020185D01*
X114988294Y-72072989D01*
X114999500Y-72124500D01*
X114999500Y-94872000D01*
X114979815Y-94939039D01*
X114927011Y-94984794D01*
X114875500Y-94996000D01*
X80134000Y-94996000D01*
X80066961Y-94976315D01*
X80021206Y-94923511D01*
X80010000Y-94872000D01*
X80010000Y-92452000D01*
X84094000Y-92452000D01*
X84094000Y-92996518D01*
X84094354Y-93003132D01*
X84100400Y-93059371D01*
X84150647Y-93194089D01*
X84236811Y-93309188D01*
X84351910Y-93395352D01*
X84486628Y-93445599D01*
X84542867Y-93451645D01*
X84549482Y-93452000D01*
X85094000Y-93452000D01*
X85094000Y-92452000D01*
X85594000Y-92452000D01*
X85594000Y-93452000D01*
X86138518Y-93452000D01*
X86145132Y-93451645D01*
X86201371Y-93445599D01*
X86336089Y-93395352D01*
X86451188Y-93309188D01*
X86537352Y-93194089D01*
X86587599Y-93059371D01*
X86593645Y-93003132D01*
X86594000Y-92996518D01*
X86594000Y-92452000D01*
X85594000Y-92452000D01*
X85094000Y-92452000D01*
X84094000Y-92452000D01*
X80010000Y-92452000D01*
X80010000Y-79681266D01*
X80029685Y-79614227D01*
X80082489Y-79568472D01*
X80151647Y-79558528D01*
X80215203Y-79587553D01*
X80221681Y-79593585D01*
X80692936Y-80064840D01*
X80726421Y-80126163D01*
X80725461Y-80182960D01*
X80697435Y-80293634D01*
X80678843Y-80518000D01*
X80697435Y-80742363D01*
X80697435Y-80742366D01*
X80697436Y-80742368D01*
X80751271Y-80954959D01*
X80752705Y-80960618D01*
X80843138Y-81166788D01*
X80843140Y-81166791D01*
X80966278Y-81355268D01*
X81118760Y-81520906D01*
X81296424Y-81659189D01*
X81332930Y-81678945D01*
X81382520Y-81728162D01*
X81397630Y-81796379D01*
X81373459Y-81861935D01*
X81332933Y-81897052D01*
X81296427Y-81916809D01*
X81296425Y-81916810D01*
X81296424Y-81916811D01*
X81187095Y-82001906D01*
X81118760Y-82055094D01*
X80966279Y-82220730D01*
X80843138Y-82409211D01*
X80757329Y-82604840D01*
X80752704Y-82615384D01*
X80742758Y-82654661D01*
X80697435Y-82833636D01*
X80678843Y-83058000D01*
X80697435Y-83282363D01*
X80697435Y-83282366D01*
X80697436Y-83282368D01*
X80749402Y-83487578D01*
X80752705Y-83500618D01*
X80843138Y-83706788D01*
X80843140Y-83706791D01*
X80966278Y-83895268D01*
X81118760Y-84060906D01*
X81296424Y-84199189D01*
X81332930Y-84218945D01*
X81382520Y-84268162D01*
X81397630Y-84336379D01*
X81373459Y-84401935D01*
X81332933Y-84437052D01*
X81296427Y-84456809D01*
X81296425Y-84456810D01*
X81296424Y-84456811D01*
X81231324Y-84507481D01*
X81118760Y-84595094D01*
X80966279Y-84760730D01*
X80843138Y-84949211D01*
X80752923Y-85154884D01*
X80752704Y-85155384D01*
X80726917Y-85257214D01*
X80697435Y-85373636D01*
X80678843Y-85598000D01*
X80697435Y-85822363D01*
X80697435Y-85822366D01*
X80697436Y-85822368D01*
X80736028Y-85974766D01*
X80752705Y-86040618D01*
X80843138Y-86246788D01*
X80843140Y-86246791D01*
X80966278Y-86435268D01*
X81118760Y-86600906D01*
X81296424Y-86739189D01*
X81296426Y-86739190D01*
X81332931Y-86758946D01*
X81382521Y-86808165D01*
X81397629Y-86876382D01*
X81373458Y-86941937D01*
X81332931Y-86977054D01*
X81296426Y-86996809D01*
X81118760Y-87135094D01*
X80966279Y-87300730D01*
X80843138Y-87489211D01*
X80760978Y-87676521D01*
X80752704Y-87695384D01*
X80742758Y-87734661D01*
X80697435Y-87913636D01*
X80678843Y-88137999D01*
X80697435Y-88362363D01*
X80697435Y-88362366D01*
X80697436Y-88362368D01*
X80751856Y-88577268D01*
X80752705Y-88580618D01*
X80843138Y-88786788D01*
X80843140Y-88786791D01*
X80966278Y-88975268D01*
X81118760Y-89140906D01*
X81296424Y-89279189D01*
X81339697Y-89302607D01*
X81389287Y-89351825D01*
X81404395Y-89420042D01*
X81380225Y-89485598D01*
X81351803Y-89513236D01*
X81170918Y-89639893D01*
X81003890Y-89806921D01*
X80868400Y-90000421D01*
X80768569Y-90214507D01*
X80711364Y-90427999D01*
X80711364Y-90428000D01*
X81608314Y-90428000D01*
X81582507Y-90468156D01*
X81542000Y-90606111D01*
X81542000Y-90749889D01*
X81582507Y-90887844D01*
X81608314Y-90928000D01*
X80711364Y-90928000D01*
X80768569Y-91141492D01*
X80868399Y-91355576D01*
X81003893Y-91549081D01*
X81170918Y-91716106D01*
X81364423Y-91851600D01*
X81578509Y-91951430D01*
X81792000Y-92008634D01*
X81792000Y-91113501D01*
X81899685Y-91162680D01*
X82006237Y-91178000D01*
X82077763Y-91178000D01*
X82184315Y-91162680D01*
X82291999Y-91113501D01*
X82291999Y-92008633D01*
X82503363Y-91952000D01*
X84094000Y-91952000D01*
X85094000Y-91952000D01*
X85094000Y-90952000D01*
X84549482Y-90952000D01*
X84542867Y-90952354D01*
X84486628Y-90958400D01*
X84351910Y-91008647D01*
X84236811Y-91094811D01*
X84150647Y-91209910D01*
X84100400Y-91344628D01*
X84094354Y-91400867D01*
X84094000Y-91407481D01*
X84094000Y-91952000D01*
X82503363Y-91952000D01*
X82505490Y-91951430D01*
X82719576Y-91851600D01*
X82913081Y-91716106D01*
X83080106Y-91549081D01*
X83215600Y-91355576D01*
X83315430Y-91141492D01*
X83372636Y-90928000D01*
X82475686Y-90928000D01*
X82501493Y-90887844D01*
X82542000Y-90749889D01*
X82542000Y-90606111D01*
X82501493Y-90468156D01*
X82475686Y-90428000D01*
X83372636Y-90428000D01*
X83372635Y-90427999D01*
X83315430Y-90214507D01*
X83215599Y-90000421D01*
X83080109Y-89806921D01*
X82913081Y-89639893D01*
X82732197Y-89513236D01*
X82688572Y-89458659D01*
X82681380Y-89389160D01*
X82712902Y-89326806D01*
X82744301Y-89302607D01*
X82787576Y-89279189D01*
X82965240Y-89140906D01*
X83117722Y-88975268D01*
X83240860Y-88786791D01*
X83331296Y-88580616D01*
X83386564Y-88362368D01*
X83405156Y-88138000D01*
X83386564Y-87913632D01*
X83358538Y-87802960D01*
X83361162Y-87733142D01*
X83391060Y-87684842D01*
X85768818Y-85307084D01*
X85830142Y-85273599D01*
X85899834Y-85278583D01*
X85955767Y-85320455D01*
X85980184Y-85385919D01*
X85980500Y-85394765D01*
X85980500Y-90467367D01*
X85978210Y-90488108D01*
X85980439Y-90559016D01*
X85980500Y-90562912D01*
X85980500Y-90590856D01*
X85980987Y-90594716D01*
X85980988Y-90594722D01*
X85981019Y-90594965D01*
X85981934Y-90606596D01*
X85983326Y-90650888D01*
X85989022Y-90670492D01*
X85992967Y-90689544D01*
X85995525Y-90709798D01*
X86011838Y-90751001D01*
X86015621Y-90762048D01*
X86024731Y-90793402D01*
X86024533Y-90863272D01*
X85986592Y-90921943D01*
X85922954Y-90950787D01*
X85905655Y-90952000D01*
X85594000Y-90952000D01*
X85594000Y-91952000D01*
X86594000Y-91952000D01*
X86594000Y-91726266D01*
X86613685Y-91659227D01*
X86666489Y-91613472D01*
X86735647Y-91603528D01*
X86799203Y-91632553D01*
X86805681Y-91638585D01*
X87136181Y-91969085D01*
X87169666Y-92030408D01*
X87172500Y-92056766D01*
X87172500Y-92445395D01*
X87172500Y-92445414D01*
X87172501Y-92448544D01*
X87172820Y-92451675D01*
X87172821Y-92451678D01*
X87183112Y-92552425D01*
X87238884Y-92720736D01*
X87331971Y-92871654D01*
X87457345Y-92997028D01*
X87457347Y-92997029D01*
X87457348Y-92997030D01*
X87608262Y-93090115D01*
X87692418Y-93118000D01*
X87776573Y-93145887D01*
X87822602Y-93150589D01*
X87880455Y-93156500D01*
X88681544Y-93156499D01*
X88785426Y-93145887D01*
X88953738Y-93090115D01*
X89104652Y-92997030D01*
X89137287Y-92964395D01*
X89193319Y-92908364D01*
X89254642Y-92874879D01*
X89324334Y-92879863D01*
X89368681Y-92908364D01*
X89457345Y-92997028D01*
X89457347Y-92997029D01*
X89457348Y-92997030D01*
X89608262Y-93090115D01*
X89692418Y-93118000D01*
X89776573Y-93145887D01*
X89822602Y-93150589D01*
X89880455Y-93156500D01*
X90681544Y-93156499D01*
X90785426Y-93145887D01*
X90953738Y-93090115D01*
X91104652Y-92997030D01*
X91230030Y-92871652D01*
X91323115Y-92720738D01*
X91341088Y-92666496D01*
X91380860Y-92609052D01*
X91445375Y-92582228D01*
X91458794Y-92581500D01*
X96711501Y-92581500D01*
X96778540Y-92601185D01*
X96824295Y-92653989D01*
X96835501Y-92705499D01*
X96835501Y-92967544D01*
X96835820Y-92970675D01*
X96835821Y-92970678D01*
X96846112Y-93071425D01*
X96901884Y-93239736D01*
X96994971Y-93390654D01*
X97120345Y-93516028D01*
X97120347Y-93516029D01*
X97120348Y-93516030D01*
X97271262Y-93609115D01*
X97355417Y-93637001D01*
X97439573Y-93664887D01*
X97485602Y-93669589D01*
X97543455Y-93675500D01*
X98544544Y-93675499D01*
X98648426Y-93664887D01*
X98816738Y-93609115D01*
X98967652Y-93516030D01*
X99093030Y-93390652D01*
X99186115Y-93239738D01*
X99241887Y-93071426D01*
X99252500Y-92967545D01*
X99252499Y-92166456D01*
X99241887Y-92062574D01*
X99229216Y-92024335D01*
X109299500Y-92024335D01*
X109304912Y-92056766D01*
X109340429Y-92269615D01*
X109403042Y-92452000D01*
X109421172Y-92504810D01*
X109539526Y-92723509D01*
X109539529Y-92723514D01*
X109590512Y-92789016D01*
X109692262Y-92919744D01*
X109875215Y-93088164D01*
X110083393Y-93224173D01*
X110311119Y-93324063D01*
X110552179Y-93385108D01*
X110737933Y-93400500D01*
X110740503Y-93400500D01*
X110859497Y-93400500D01*
X110862067Y-93400500D01*
X111047821Y-93385108D01*
X111288881Y-93324063D01*
X111516607Y-93224173D01*
X111724785Y-93088164D01*
X111907738Y-92919744D01*
X112060474Y-92723509D01*
X112178828Y-92504810D01*
X112259571Y-92269614D01*
X112300500Y-92024335D01*
X112300500Y-91775665D01*
X112259571Y-91530386D01*
X112178828Y-91295190D01*
X112060474Y-91076491D01*
X112060471Y-91076487D01*
X112060470Y-91076485D01*
X111940184Y-90921943D01*
X111907738Y-90880256D01*
X111724785Y-90711836D01*
X111516607Y-90575827D01*
X111516604Y-90575825D01*
X111369190Y-90511164D01*
X111288881Y-90475937D01*
X111099579Y-90427999D01*
X111047822Y-90414892D01*
X111013854Y-90412077D01*
X110862067Y-90399500D01*
X110737933Y-90399500D01*
X110620111Y-90409262D01*
X110552177Y-90414892D01*
X110437689Y-90443885D01*
X110311119Y-90475937D01*
X110311116Y-90475938D01*
X110311117Y-90475938D01*
X110083395Y-90575825D01*
X109951495Y-90662000D01*
X109875215Y-90711836D01*
X109773051Y-90805885D01*
X109692259Y-90880259D01*
X109539529Y-91076485D01*
X109421170Y-91295194D01*
X109340429Y-91530384D01*
X109322374Y-91638585D01*
X109299500Y-91775665D01*
X109299500Y-92024335D01*
X99229216Y-92024335D01*
X99186115Y-91894262D01*
X99093030Y-91743348D01*
X99093029Y-91743347D01*
X99093028Y-91743345D01*
X99004363Y-91654680D01*
X98970878Y-91593357D01*
X98975862Y-91523665D01*
X99004362Y-91479319D01*
X99093030Y-91390652D01*
X99173986Y-91259402D01*
X99225933Y-91212679D01*
X99279524Y-91200500D01*
X104802367Y-91200500D01*
X104823108Y-91202789D01*
X104825905Y-91202701D01*
X104825909Y-91202702D01*
X104894017Y-91200560D01*
X104897913Y-91200500D01*
X104921958Y-91200500D01*
X104925856Y-91200500D01*
X104929724Y-91200011D01*
X104929947Y-91199983D01*
X104941608Y-91199064D01*
X104985889Y-91197673D01*
X105005498Y-91191975D01*
X105024531Y-91188033D01*
X105044797Y-91185474D01*
X105086006Y-91169157D01*
X105097037Y-91165380D01*
X105139593Y-91153018D01*
X105157160Y-91142628D01*
X105174632Y-91134068D01*
X105193617Y-91126552D01*
X105229475Y-91100498D01*
X105239223Y-91094096D01*
X105277362Y-91071542D01*
X105291800Y-91057103D01*
X105306588Y-91044472D01*
X105323107Y-91032472D01*
X105351359Y-90998319D01*
X105359203Y-90989699D01*
X105671817Y-90677086D01*
X105688096Y-90664045D01*
X105690013Y-90662002D01*
X105690018Y-90662000D01*
X105736691Y-90612295D01*
X105739309Y-90609594D01*
X105759135Y-90589770D01*
X105761660Y-90586513D01*
X105769251Y-90577624D01*
X105799586Y-90545321D01*
X105809419Y-90527432D01*
X105820100Y-90511172D01*
X105832614Y-90495041D01*
X105850207Y-90454381D01*
X105855343Y-90443895D01*
X105876695Y-90405060D01*
X105881773Y-90385277D01*
X105888070Y-90366885D01*
X105896181Y-90348145D01*
X105903112Y-90304376D01*
X105905482Y-90292940D01*
X105916500Y-90250032D01*
X105916499Y-90229623D01*
X105918025Y-90210223D01*
X105921220Y-90190057D01*
X105917047Y-90145919D01*
X105916500Y-90134294D01*
X105916500Y-87196518D01*
X106912000Y-87196518D01*
X106912354Y-87203132D01*
X106918400Y-87259371D01*
X106968647Y-87394089D01*
X107054811Y-87509188D01*
X107169910Y-87595352D01*
X107304628Y-87645599D01*
X107360867Y-87651645D01*
X107367482Y-87652000D01*
X108462000Y-87652000D01*
X108462000Y-86456310D01*
X108470817Y-86461158D01*
X108629886Y-86502000D01*
X108752894Y-86502000D01*
X108874933Y-86486583D01*
X108961999Y-86452110D01*
X108961999Y-87652000D01*
X110056518Y-87652000D01*
X110063132Y-87651645D01*
X110119371Y-87645599D01*
X110254089Y-87595352D01*
X110369188Y-87509188D01*
X110455352Y-87394089D01*
X110505599Y-87259371D01*
X110511645Y-87203132D01*
X110512000Y-87196518D01*
X110512000Y-86102000D01*
X109312728Y-86102000D01*
X109335100Y-86054457D01*
X109365873Y-85893138D01*
X109355561Y-85729234D01*
X109314220Y-85602000D01*
X110512000Y-85602000D01*
X110512000Y-84507481D01*
X110511645Y-84500867D01*
X110505599Y-84444628D01*
X110455352Y-84309910D01*
X110369188Y-84194811D01*
X110254089Y-84108647D01*
X110119371Y-84058400D01*
X110063132Y-84052354D01*
X110056518Y-84052000D01*
X108962000Y-84052000D01*
X108961999Y-85247688D01*
X108953183Y-85242842D01*
X108794114Y-85202000D01*
X108671106Y-85202000D01*
X108549067Y-85217417D01*
X108462000Y-85251889D01*
X108462000Y-84052000D01*
X107367482Y-84052000D01*
X107360867Y-84052354D01*
X107304628Y-84058400D01*
X107169910Y-84108647D01*
X107054811Y-84194811D01*
X106968647Y-84309910D01*
X106918400Y-84444628D01*
X106912354Y-84500867D01*
X106912000Y-84507481D01*
X106912000Y-85602000D01*
X108111272Y-85602000D01*
X108088900Y-85649543D01*
X108058127Y-85810862D01*
X108068439Y-85974766D01*
X108109780Y-86102000D01*
X106912000Y-86102000D01*
X106912000Y-87196518D01*
X105916500Y-87196518D01*
X105916500Y-81609500D01*
X105936185Y-81542461D01*
X105988989Y-81496706D01*
X106040500Y-81485500D01*
X106933291Y-81485500D01*
X107000330Y-81505185D01*
X107046085Y-81557989D01*
X107048716Y-81564191D01*
X107061570Y-81596942D01*
X107077252Y-81636901D01*
X107078029Y-81638879D01*
X107213557Y-81873621D01*
X107382558Y-82085542D01*
X107581257Y-82269907D01*
X107805215Y-82422599D01*
X108049428Y-82540206D01*
X108293140Y-82615381D01*
X108308442Y-82620101D01*
X108576471Y-82660500D01*
X108576472Y-82660500D01*
X108847529Y-82660500D01*
X108981543Y-82640300D01*
X109115558Y-82620101D01*
X109374572Y-82540206D01*
X109618786Y-82422599D01*
X109842743Y-82269907D01*
X109842746Y-82269903D01*
X109842749Y-82269902D01*
X109931896Y-82187185D01*
X110041442Y-82085542D01*
X110210443Y-81873621D01*
X110345971Y-81638879D01*
X110444999Y-81386559D01*
X110505315Y-81122299D01*
X110525571Y-80852000D01*
X110524149Y-80833031D01*
X110505315Y-80581702D01*
X110504491Y-80578091D01*
X110444999Y-80317441D01*
X110435655Y-80293634D01*
X110349999Y-80075384D01*
X110345971Y-80065121D01*
X110210443Y-79830379D01*
X110041442Y-79618458D01*
X110036882Y-79614227D01*
X109842749Y-79434097D01*
X109823673Y-79421091D01*
X109618786Y-79281401D01*
X109374572Y-79163794D01*
X109294676Y-79139149D01*
X109115557Y-79083898D01*
X108847529Y-79043500D01*
X108847528Y-79043500D01*
X108576472Y-79043500D01*
X108576471Y-79043500D01*
X108308442Y-79083898D01*
X108049428Y-79163794D01*
X107805217Y-79281399D01*
X107581255Y-79434094D01*
X107382558Y-79618458D01*
X107213556Y-79830380D01*
X107078028Y-80065122D01*
X107048719Y-80139802D01*
X107005903Y-80195016D01*
X106940033Y-80218317D01*
X106933291Y-80218500D01*
X105794628Y-80218500D01*
X105773892Y-80216211D01*
X105771091Y-80216299D01*
X105706883Y-80218317D01*
X105703001Y-80218439D01*
X105699106Y-80218500D01*
X105671144Y-80218500D01*
X105667290Y-80218986D01*
X105667283Y-80218987D01*
X105667025Y-80219020D01*
X105655402Y-80219934D01*
X105611110Y-80221326D01*
X105591507Y-80227022D01*
X105572456Y-80230967D01*
X105552203Y-80233525D01*
X105511008Y-80249835D01*
X105499962Y-80253616D01*
X105457405Y-80265981D01*
X105439827Y-80276376D01*
X105422360Y-80284933D01*
X105403384Y-80292446D01*
X105367544Y-80318485D01*
X105357786Y-80324895D01*
X105319637Y-80347457D01*
X105305196Y-80361898D01*
X105290409Y-80374527D01*
X105273892Y-80386528D01*
X105245652Y-80420663D01*
X105237792Y-80429301D01*
X104894180Y-80772913D01*
X104877896Y-80785961D01*
X104829339Y-80837668D01*
X104826634Y-80840460D01*
X104806865Y-80860230D01*
X104804487Y-80863293D01*
X104804470Y-80863314D01*
X104804311Y-80863521D01*
X104796753Y-80872368D01*
X104766414Y-80904677D01*
X104756582Y-80922563D01*
X104745901Y-80938823D01*
X104733385Y-80954959D01*
X104715786Y-80995628D01*
X104710648Y-81006117D01*
X104689303Y-81044943D01*
X104684226Y-81064718D01*
X104677925Y-81083123D01*
X104669818Y-81101856D01*
X104662888Y-81145610D01*
X104660520Y-81157046D01*
X104649500Y-81199969D01*
X104649500Y-81220384D01*
X104647973Y-81239783D01*
X104644780Y-81259941D01*
X104648950Y-81304057D01*
X104649500Y-81315726D01*
X104649500Y-89809500D01*
X104629815Y-89876539D01*
X104577011Y-89922294D01*
X104525500Y-89933500D01*
X103915545Y-89933500D01*
X103848506Y-89913815D01*
X103802751Y-89861011D01*
X103792807Y-89791853D01*
X103821832Y-89728297D01*
X103827864Y-89721819D01*
X103955028Y-89594654D01*
X103955027Y-89594654D01*
X103955030Y-89594652D01*
X104048115Y-89443738D01*
X104103887Y-89275426D01*
X104114500Y-89171545D01*
X104114499Y-88120456D01*
X104103887Y-88016574D01*
X104048115Y-87848262D01*
X103955030Y-87697348D01*
X103955029Y-87697347D01*
X103955028Y-87697345D01*
X103829654Y-87571971D01*
X103727867Y-87509188D01*
X103678738Y-87478885D01*
X103678737Y-87478884D01*
X103678736Y-87478884D01*
X103510426Y-87423112D01*
X103409675Y-87412819D01*
X103409659Y-87412818D01*
X103406545Y-87412500D01*
X103403398Y-87412500D01*
X102732267Y-87412500D01*
X102665228Y-87392815D01*
X102644586Y-87376181D01*
X102564819Y-87296414D01*
X102531334Y-87235091D01*
X102528500Y-87208733D01*
X102528500Y-85838999D01*
X102548185Y-85771960D01*
X102600989Y-85726205D01*
X102652500Y-85714999D01*
X102680267Y-85714999D01*
X102688346Y-85714469D01*
X102801631Y-85699556D01*
X102947586Y-85639100D01*
X103072924Y-85542924D01*
X103169100Y-85417586D01*
X103229555Y-85271631D01*
X103244470Y-85158340D01*
X103245000Y-85150269D01*
X103245000Y-84602500D01*
X102727500Y-84602500D01*
X102660461Y-84582815D01*
X102614706Y-84530011D01*
X102603500Y-84478500D01*
X102603500Y-84326500D01*
X102623185Y-84259461D01*
X102675989Y-84213706D01*
X102727500Y-84202500D01*
X103244999Y-84202500D01*
X103244999Y-83654732D01*
X103244469Y-83646653D01*
X103229556Y-83533368D01*
X103169100Y-83387413D01*
X103072924Y-83262075D01*
X102947586Y-83165899D01*
X102801631Y-83105444D01*
X102744999Y-83097987D01*
X102744999Y-83302554D01*
X102725314Y-83369593D01*
X102672510Y-83415348D01*
X102603352Y-83425292D01*
X102539796Y-83396267D01*
X102522624Y-83378041D01*
X102428986Y-83256011D01*
X102393511Y-83228789D01*
X102352309Y-83172361D01*
X102344999Y-83130416D01*
X102344998Y-83097988D01*
X102288369Y-83105444D01*
X102278555Y-83109509D01*
X102209085Y-83116975D01*
X102183654Y-83109507D01*
X102153850Y-83097162D01*
X102038904Y-83082029D01*
X102038902Y-83082028D01*
X102034885Y-83081500D01*
X102030831Y-83081500D01*
X101759170Y-83081500D01*
X101759154Y-83081500D01*
X101755116Y-83081501D01*
X101751104Y-83082029D01*
X101751091Y-83082030D01*
X101636151Y-83097161D01*
X101617450Y-83104907D01*
X101547981Y-83112374D01*
X101522548Y-83104907D01*
X101503850Y-83097162D01*
X101441241Y-83088919D01*
X101388904Y-83082029D01*
X101388902Y-83082028D01*
X101384885Y-83081500D01*
X101380831Y-83081500D01*
X101109170Y-83081500D01*
X101109154Y-83081500D01*
X101105116Y-83081501D01*
X101101104Y-83082029D01*
X101101091Y-83082030D01*
X100986151Y-83097161D01*
X100956341Y-83109508D01*
X100886872Y-83116974D01*
X100861444Y-83109508D01*
X100851632Y-83105444D01*
X100795000Y-83097987D01*
X100795000Y-83130416D01*
X100775315Y-83197455D01*
X100746488Y-83228791D01*
X100711011Y-83256013D01*
X100617375Y-83378042D01*
X100560947Y-83419244D01*
X100491201Y-83423399D01*
X100430281Y-83389186D01*
X100397529Y-83327469D01*
X100395000Y-83302555D01*
X100395000Y-83097987D01*
X100338367Y-83105444D01*
X100192413Y-83165899D01*
X100067075Y-83262075D01*
X99970899Y-83387413D01*
X99910444Y-83533368D01*
X99895529Y-83646659D01*
X99895000Y-83654730D01*
X99895000Y-84202500D01*
X100412501Y-84202500D01*
X100479540Y-84222185D01*
X100525295Y-84274989D01*
X100536500Y-84326497D01*
X100536501Y-84437052D01*
X100536501Y-84478500D01*
X100516816Y-84545539D01*
X100464012Y-84591294D01*
X100412501Y-84602500D01*
X99895001Y-84602500D01*
X99895001Y-85150267D01*
X99895530Y-85158346D01*
X99910443Y-85271631D01*
X99970899Y-85417586D01*
X100067075Y-85542924D01*
X100192413Y-85639100D01*
X100338368Y-85699555D01*
X100451658Y-85714470D01*
X100459729Y-85714999D01*
X100487495Y-85714999D01*
X100554535Y-85734681D01*
X100600292Y-85787484D01*
X100611499Y-85838999D01*
X100611499Y-87294797D01*
X100591814Y-87361836D01*
X100539010Y-87407591D01*
X100500102Y-87418155D01*
X100451574Y-87423112D01*
X100283263Y-87478884D01*
X100132347Y-87571970D01*
X100051995Y-87652322D01*
X99990671Y-87685806D01*
X99920980Y-87680822D01*
X99899218Y-87670179D01*
X99791738Y-87603885D01*
X99623426Y-87548112D01*
X99522675Y-87537819D01*
X99522659Y-87537818D01*
X99519545Y-87537500D01*
X99516397Y-87537500D01*
X98871604Y-87537500D01*
X98871584Y-87537500D01*
X98868456Y-87537501D01*
X98865325Y-87537820D01*
X98865321Y-87537821D01*
X98764574Y-87548112D01*
X98596263Y-87603884D01*
X98445345Y-87696971D01*
X98319971Y-87822345D01*
X98226884Y-87973263D01*
X98171112Y-88141573D01*
X98167357Y-88178331D01*
X98140960Y-88243022D01*
X98083778Y-88283172D01*
X98013967Y-88286034D01*
X97953691Y-88250699D01*
X97922087Y-88188386D01*
X97920641Y-88178326D01*
X97916887Y-88141574D01*
X97909889Y-88120456D01*
X97861115Y-87973262D01*
X97768030Y-87822348D01*
X97768029Y-87822347D01*
X97768028Y-87822345D01*
X97642654Y-87696971D01*
X97559367Y-87645599D01*
X97491738Y-87603885D01*
X97491737Y-87603884D01*
X97491736Y-87603884D01*
X97323426Y-87548112D01*
X97222675Y-87537819D01*
X97222659Y-87537818D01*
X97219545Y-87537500D01*
X97216397Y-87537500D01*
X96571604Y-87537500D01*
X96571584Y-87537500D01*
X96568456Y-87537501D01*
X96565328Y-87537820D01*
X96565318Y-87537821D01*
X96533668Y-87541054D01*
X96464975Y-87528283D01*
X96414092Y-87480402D01*
X96397172Y-87412612D01*
X96419589Y-87346436D01*
X96433381Y-87330021D01*
X96861083Y-86902319D01*
X96922404Y-86868836D01*
X96939163Y-86866500D01*
X96940856Y-86866500D01*
X96944864Y-86865993D01*
X96944947Y-86865983D01*
X96956608Y-86865064D01*
X97000889Y-86863673D01*
X97020498Y-86857975D01*
X97039531Y-86854033D01*
X97059797Y-86851474D01*
X97101006Y-86835157D01*
X97112037Y-86831380D01*
X97154593Y-86819018D01*
X97172160Y-86808628D01*
X97189632Y-86800068D01*
X97208617Y-86792552D01*
X97244475Y-86766498D01*
X97254223Y-86760096D01*
X97292362Y-86737542D01*
X97306800Y-86723103D01*
X97321588Y-86710472D01*
X97338107Y-86698472D01*
X97366359Y-86664319D01*
X97374203Y-86655699D01*
X98305813Y-85724089D01*
X98322099Y-85711044D01*
X98362261Y-85668274D01*
X98370661Y-85659328D01*
X98373310Y-85656593D01*
X98393135Y-85636770D01*
X98395660Y-85633513D01*
X98403251Y-85624624D01*
X98433586Y-85592321D01*
X98443419Y-85574432D01*
X98454100Y-85558172D01*
X98466614Y-85542041D01*
X98484207Y-85501381D01*
X98489343Y-85490895D01*
X98510695Y-85452060D01*
X98515773Y-85432277D01*
X98522070Y-85413885D01*
X98530181Y-85395145D01*
X98537112Y-85351376D01*
X98539478Y-85339953D01*
X98550500Y-85297030D01*
X98550500Y-85276613D01*
X98552027Y-85257214D01*
X98555220Y-85237057D01*
X98551050Y-85192942D01*
X98550500Y-85181273D01*
X98550500Y-83776633D01*
X98552789Y-83755888D01*
X98552701Y-83753095D01*
X98552702Y-83753092D01*
X98550561Y-83684968D01*
X98550500Y-83681073D01*
X98550500Y-83657043D01*
X98550500Y-83653144D01*
X98549983Y-83649058D01*
X98549065Y-83637399D01*
X98547674Y-83593111D01*
X98541977Y-83573501D01*
X98538033Y-83554460D01*
X98535474Y-83534203D01*
X98519161Y-83493002D01*
X98515386Y-83481975D01*
X98503019Y-83439407D01*
X98492622Y-83421828D01*
X98484064Y-83404357D01*
X98476552Y-83385383D01*
X98450505Y-83349532D01*
X98444098Y-83339778D01*
X98421543Y-83301639D01*
X98421542Y-83301638D01*
X98407101Y-83287197D01*
X98394472Y-83272410D01*
X98382472Y-83255893D01*
X98356266Y-83234213D01*
X98348324Y-83227643D01*
X98339685Y-83219781D01*
X96773088Y-81653183D01*
X96760044Y-81636901D01*
X96708331Y-81588340D01*
X96705534Y-81585629D01*
X96688527Y-81568622D01*
X96685770Y-81565865D01*
X96682486Y-81563317D01*
X96673622Y-81555745D01*
X96658990Y-81542005D01*
X96633238Y-81498178D01*
X96599216Y-81495745D01*
X96593305Y-81493365D01*
X96550377Y-81474789D01*
X96539883Y-81469648D01*
X96501062Y-81448305D01*
X96489386Y-81445307D01*
X96481284Y-81443227D01*
X96462879Y-81436926D01*
X96444145Y-81428819D01*
X96444143Y-81428818D01*
X96444142Y-81428818D01*
X96400383Y-81421887D01*
X96388943Y-81419518D01*
X96346031Y-81408500D01*
X96346030Y-81408500D01*
X96325616Y-81408500D01*
X96306217Y-81406973D01*
X96286058Y-81403780D01*
X96286057Y-81403780D01*
X96253318Y-81406874D01*
X96241943Y-81407950D01*
X96230274Y-81408500D01*
X94483500Y-81408500D01*
X94416461Y-81388815D01*
X94370706Y-81336011D01*
X94359500Y-81284500D01*
X94359500Y-80601627D01*
X94361789Y-80580894D01*
X94359561Y-80509999D01*
X94359500Y-80506104D01*
X94359500Y-80482035D01*
X94359500Y-80478144D01*
X94358982Y-80474043D01*
X94358064Y-80462387D01*
X94356673Y-80418110D01*
X94350978Y-80398511D01*
X94347033Y-80379462D01*
X94344474Y-80359203D01*
X94328163Y-80318007D01*
X94324380Y-80306958D01*
X94312018Y-80264406D01*
X94301622Y-80246828D01*
X94293067Y-80229366D01*
X94285552Y-80210383D01*
X94259512Y-80174542D01*
X94253098Y-80164778D01*
X94251720Y-80162449D01*
X94230542Y-80126637D01*
X94216107Y-80112202D01*
X94203470Y-80097407D01*
X94202559Y-80096153D01*
X94191472Y-80080893D01*
X94157324Y-80052643D01*
X94148696Y-80044791D01*
X92709088Y-78605183D01*
X92696044Y-78588902D01*
X92694000Y-78586983D01*
X92694000Y-78586982D01*
X92644315Y-78540325D01*
X92641550Y-78537645D01*
X92624527Y-78520622D01*
X92621770Y-78517865D01*
X92618486Y-78515317D01*
X92609623Y-78507746D01*
X92577321Y-78477414D01*
X92559433Y-78467580D01*
X92543169Y-78456896D01*
X92527040Y-78444385D01*
X92486377Y-78426789D01*
X92475883Y-78421648D01*
X92437062Y-78400305D01*
X92425386Y-78397307D01*
X92417284Y-78395227D01*
X92398879Y-78388926D01*
X92380145Y-78380819D01*
X92380143Y-78380818D01*
X92380142Y-78380818D01*
X92336383Y-78373887D01*
X92324943Y-78371518D01*
X92282031Y-78360500D01*
X92282030Y-78360500D01*
X92261616Y-78360500D01*
X92242217Y-78358973D01*
X92222058Y-78355780D01*
X92222057Y-78355780D01*
X92199323Y-78357929D01*
X92177943Y-78359950D01*
X92166274Y-78360500D01*
X87745806Y-78360500D01*
X87678767Y-78340815D01*
X87633012Y-78288011D01*
X87623068Y-78218853D01*
X87626326Y-78203327D01*
X87635766Y-78169323D01*
X86781997Y-77315553D01*
X86781996Y-77315553D01*
X85928224Y-78169323D01*
X85937665Y-78203327D01*
X85936633Y-78273189D01*
X85897994Y-78331403D01*
X85834016Y-78359485D01*
X85818185Y-78360500D01*
X83505835Y-78360500D01*
X83438796Y-78340815D01*
X83393041Y-78288011D01*
X83383097Y-78218853D01*
X83385629Y-78206061D01*
X83386321Y-78203327D01*
X83386564Y-78202368D01*
X83405156Y-77978000D01*
X83386564Y-77753632D01*
X83331296Y-77535384D01*
X83322489Y-77515307D01*
X83313589Y-77446009D01*
X83343566Y-77382897D01*
X83402906Y-77346011D01*
X83436047Y-77341500D01*
X84008363Y-77341500D01*
X84029104Y-77343789D01*
X84031901Y-77343701D01*
X84031905Y-77343702D01*
X84100013Y-77341560D01*
X84103909Y-77341500D01*
X84127954Y-77341500D01*
X84131852Y-77341500D01*
X84135720Y-77341011D01*
X84135943Y-77340983D01*
X84147604Y-77340064D01*
X84191885Y-77338673D01*
X84211494Y-77332975D01*
X84230527Y-77329033D01*
X84250793Y-77326474D01*
X84292002Y-77310157D01*
X84303033Y-77306380D01*
X84345589Y-77294018D01*
X84363156Y-77283628D01*
X84380628Y-77275068D01*
X84399613Y-77267552D01*
X84435471Y-77241498D01*
X84445219Y-77235096D01*
X84483358Y-77212542D01*
X84497796Y-77198103D01*
X84512584Y-77185472D01*
X84529103Y-77173472D01*
X84557355Y-77139319D01*
X84565199Y-77130699D01*
X85120317Y-76575581D01*
X85181638Y-76542098D01*
X85251330Y-76547082D01*
X85307263Y-76588954D01*
X85331680Y-76654418D01*
X85331996Y-76663264D01*
X85331996Y-77411000D01*
X85332137Y-77415191D01*
X85334892Y-77455819D01*
X85380827Y-77640521D01*
X85465389Y-77811027D01*
X85516202Y-77874240D01*
X86428443Y-76962000D01*
X87135549Y-76962000D01*
X88047788Y-77874240D01*
X88047789Y-77874239D01*
X88098603Y-77811026D01*
X88183164Y-77640523D01*
X88229099Y-77455819D01*
X88231854Y-77415191D01*
X88231996Y-77411000D01*
X88231996Y-76512999D01*
X88231854Y-76508808D01*
X88229099Y-76468180D01*
X88183164Y-76283478D01*
X88098602Y-76112972D01*
X88047789Y-76049759D01*
X87135549Y-76961999D01*
X87135549Y-76962000D01*
X86428443Y-76962000D01*
X86781996Y-76608447D01*
X87636630Y-75753810D01*
X87637607Y-75687724D01*
X87676246Y-75629510D01*
X87699756Y-75613930D01*
X87840835Y-75542047D01*
X87985166Y-75425170D01*
X88102043Y-75280839D01*
X88186358Y-75115362D01*
X88234426Y-74935971D01*
X88240496Y-74858843D01*
X88240495Y-73985158D01*
X88234426Y-73908029D01*
X88186358Y-73728638D01*
X88113065Y-73584794D01*
X88100170Y-73516126D01*
X88126446Y-73451386D01*
X88183552Y-73411128D01*
X88223551Y-73404500D01*
X93117230Y-73404500D01*
X93184269Y-73424185D01*
X93204911Y-73440819D01*
X93592248Y-73828156D01*
X93625733Y-73889479D01*
X93628185Y-73925564D01*
X93623687Y-73982717D01*
X93623685Y-73982742D01*
X93623496Y-73985157D01*
X93623496Y-73987601D01*
X93623496Y-73987602D01*
X93623496Y-74856420D01*
X93623496Y-74856445D01*
X93623497Y-74858842D01*
X93623685Y-74861233D01*
X93623686Y-74861254D01*
X93629566Y-74935971D01*
X93677633Y-75115361D01*
X93677634Y-75115362D01*
X93761949Y-75280839D01*
X93878826Y-75425170D01*
X94023157Y-75542047D01*
X94095007Y-75578656D01*
X94100617Y-75581515D01*
X94151413Y-75629490D01*
X94168208Y-75697311D01*
X94145670Y-75763446D01*
X94100617Y-75802485D01*
X94023156Y-75841953D01*
X93878826Y-75958830D01*
X93761949Y-76103160D01*
X93677633Y-76268637D01*
X93629566Y-76448029D01*
X93623687Y-76522722D01*
X93623686Y-76522738D01*
X93623496Y-76525157D01*
X93623496Y-76527601D01*
X93623496Y-76527602D01*
X93623496Y-77396420D01*
X93623496Y-77396445D01*
X93623497Y-77398842D01*
X93623685Y-77401233D01*
X93623686Y-77401254D01*
X93629566Y-77475971D01*
X93677633Y-77655361D01*
X93761948Y-77820839D01*
X93761949Y-77820839D01*
X93878826Y-77965170D01*
X94023157Y-78082047D01*
X94104317Y-78123400D01*
X94188633Y-78166362D01*
X94226543Y-78176519D01*
X94368025Y-78214430D01*
X94445153Y-78220500D01*
X95433229Y-78220499D01*
X95500268Y-78240183D01*
X95520910Y-78256818D01*
X96496437Y-79232345D01*
X96529922Y-79293668D01*
X96531991Y-79332249D01*
X96532032Y-79331740D01*
X96531997Y-79332377D01*
X96532046Y-79333275D01*
X96531854Y-79335060D01*
X96531853Y-79335078D01*
X96531500Y-79338362D01*
X96531500Y-80935638D01*
X96531852Y-80938918D01*
X96531853Y-80938924D01*
X96538011Y-80996205D01*
X96589110Y-81133203D01*
X96676737Y-81250259D01*
X96676738Y-81250259D01*
X96676739Y-81250261D01*
X96689670Y-81259941D01*
X96716861Y-81280296D01*
X96755058Y-81331322D01*
X96787208Y-81335431D01*
X96793794Y-81337887D01*
X96793796Y-81337889D01*
X96930799Y-81388989D01*
X96991362Y-81395500D01*
X96994672Y-81395500D01*
X98585328Y-81395500D01*
X98588638Y-81395500D01*
X98649201Y-81388989D01*
X98649203Y-81388988D01*
X98649205Y-81388988D01*
X98739607Y-81355269D01*
X98786204Y-81337889D01*
X98903261Y-81250261D01*
X98990889Y-81133204D01*
X99018989Y-81057865D01*
X99041988Y-80996205D01*
X99041988Y-80996203D01*
X99041989Y-80996201D01*
X99048500Y-80935638D01*
X99048500Y-79826265D01*
X99068185Y-79759227D01*
X99120989Y-79713472D01*
X99190147Y-79703528D01*
X99253703Y-79732553D01*
X99260181Y-79738585D01*
X99850181Y-80328585D01*
X99883666Y-80389908D01*
X99886500Y-80416266D01*
X99886500Y-80925829D01*
X99886500Y-80925844D01*
X99886501Y-80929884D01*
X99887029Y-80933896D01*
X99887030Y-80933908D01*
X99902161Y-81048848D01*
X99963476Y-81196876D01*
X100061012Y-81323987D01*
X100145724Y-81388989D01*
X100188124Y-81421524D01*
X100336150Y-81482838D01*
X100455115Y-81498500D01*
X100734884Y-81498499D01*
X100853850Y-81482838D01*
X100872546Y-81475093D01*
X100942010Y-81467622D01*
X100967447Y-81475091D01*
X100986150Y-81482838D01*
X101105115Y-81498500D01*
X101384884Y-81498499D01*
X101503850Y-81482838D01*
X101522548Y-81475092D01*
X101592016Y-81467624D01*
X101617448Y-81475091D01*
X101636150Y-81482838D01*
X101755115Y-81498500D01*
X102034884Y-81498499D01*
X102153850Y-81482838D01*
X102172548Y-81475092D01*
X102242016Y-81467624D01*
X102267448Y-81475091D01*
X102286150Y-81482838D01*
X102405115Y-81498500D01*
X102684884Y-81498499D01*
X102803850Y-81482838D01*
X102951876Y-81421524D01*
X103078987Y-81323987D01*
X103176524Y-81196876D01*
X103237838Y-81048850D01*
X103253500Y-80929885D01*
X103253499Y-79425116D01*
X103237838Y-79306150D01*
X103176524Y-79158124D01*
X103127234Y-79093889D01*
X103078987Y-79031012D01*
X102951875Y-78933475D01*
X102803850Y-78872162D01*
X102688904Y-78857029D01*
X102688902Y-78857028D01*
X102684885Y-78856500D01*
X102680832Y-78856500D01*
X102652500Y-78856500D01*
X102585461Y-78836815D01*
X102539706Y-78784011D01*
X102528500Y-78732500D01*
X102528500Y-76473515D01*
X102548185Y-76406476D01*
X102587404Y-76367976D01*
X102653412Y-76327262D01*
X102658652Y-76324030D01*
X102784030Y-76198652D01*
X102877115Y-76047738D01*
X102932887Y-75879426D01*
X102943500Y-75775545D01*
X102943499Y-75124334D01*
X109499500Y-75124334D01*
X109540429Y-75369615D01*
X109598469Y-75538678D01*
X109621172Y-75604810D01*
X109730991Y-75807738D01*
X109739529Y-75823514D01*
X109875036Y-75997612D01*
X109892262Y-76019744D01*
X110075215Y-76188164D01*
X110283393Y-76324173D01*
X110511119Y-76424063D01*
X110752179Y-76485108D01*
X110937933Y-76500500D01*
X110940503Y-76500500D01*
X111059497Y-76500500D01*
X111062067Y-76500500D01*
X111247821Y-76485108D01*
X111488881Y-76424063D01*
X111716607Y-76324173D01*
X111924785Y-76188164D01*
X112107738Y-76019744D01*
X112260474Y-75823509D01*
X112378828Y-75604810D01*
X112459571Y-75369614D01*
X112500500Y-75124335D01*
X112500500Y-74875665D01*
X112459571Y-74630386D01*
X112378828Y-74395190D01*
X112260474Y-74176491D01*
X112260471Y-74176487D01*
X112260470Y-74176485D01*
X112158650Y-74045667D01*
X112107738Y-73980256D01*
X111924785Y-73811836D01*
X111716607Y-73675827D01*
X111716604Y-73675825D01*
X111591523Y-73620960D01*
X111488881Y-73575937D01*
X111308867Y-73530351D01*
X111247822Y-73514892D01*
X111213854Y-73512077D01*
X111062067Y-73499500D01*
X110937933Y-73499500D01*
X110820111Y-73509262D01*
X110752177Y-73514892D01*
X110630087Y-73545810D01*
X110511119Y-73575937D01*
X110511116Y-73575938D01*
X110511117Y-73575938D01*
X110283395Y-73675825D01*
X110144607Y-73766499D01*
X110075215Y-73811836D01*
X109951674Y-73925564D01*
X109892259Y-73980259D01*
X109739529Y-74176485D01*
X109721097Y-74210544D01*
X109641361Y-74357885D01*
X109621170Y-74395194D01*
X109540429Y-74630384D01*
X109499500Y-74875665D01*
X109499500Y-75124334D01*
X102943499Y-75124334D01*
X102943499Y-74999456D01*
X102932887Y-74895574D01*
X102877115Y-74727262D01*
X102784030Y-74576348D01*
X102784029Y-74576347D01*
X102784028Y-74576345D01*
X102658651Y-74450968D01*
X102657963Y-74450544D01*
X102655601Y-74447918D01*
X102648404Y-74440721D01*
X102648784Y-74440340D01*
X102611238Y-74398596D01*
X102600017Y-74329633D01*
X102627860Y-74265551D01*
X102644708Y-74250953D01*
X102777316Y-74118345D01*
X102869357Y-73969122D01*
X102924506Y-73802696D01*
X102934680Y-73703109D01*
X102935000Y-73696831D01*
X102935000Y-73562500D01*
X100485001Y-73562500D01*
X100485001Y-73696829D01*
X100485321Y-73703111D01*
X100495493Y-73802695D01*
X100550642Y-73969122D01*
X100642683Y-74118345D01*
X100776904Y-74252566D01*
X100775278Y-74254191D01*
X100808759Y-74291412D01*
X100819983Y-74360375D01*
X100792141Y-74424458D01*
X100762040Y-74450542D01*
X100761348Y-74450968D01*
X100635971Y-74576345D01*
X100542884Y-74727263D01*
X100487112Y-74895573D01*
X100476819Y-74996324D01*
X100476818Y-74996341D01*
X100476500Y-74999455D01*
X100476500Y-75002601D01*
X100476500Y-75002602D01*
X100476500Y-75772395D01*
X100476500Y-75772414D01*
X100476501Y-75775544D01*
X100476820Y-75778675D01*
X100476821Y-75778678D01*
X100487112Y-75879425D01*
X100537211Y-76030615D01*
X100542885Y-76047738D01*
X100577070Y-76103160D01*
X100635971Y-76198654D01*
X100761345Y-76324028D01*
X100761347Y-76324029D01*
X100761348Y-76324030D01*
X100912262Y-76417115D01*
X100996417Y-76445001D01*
X101080573Y-76472887D01*
X101097142Y-76474579D01*
X101150103Y-76479990D01*
X101214794Y-76506386D01*
X101254945Y-76563566D01*
X101261500Y-76603348D01*
X101261499Y-78235191D01*
X101241814Y-78302231D01*
X101189010Y-78347985D01*
X101119852Y-78357929D01*
X101056296Y-78328904D01*
X101049818Y-78322872D01*
X100478948Y-77752002D01*
X100445463Y-77690679D01*
X100443271Y-77651723D01*
X100448500Y-77600545D01*
X100448499Y-76599456D01*
X100437887Y-76495574D01*
X100382115Y-76327262D01*
X100289030Y-76176348D01*
X100289029Y-76176347D01*
X100289028Y-76176345D01*
X100163654Y-76050971D01*
X100012736Y-75957884D01*
X99844426Y-75902112D01*
X99743675Y-75891819D01*
X99743659Y-75891818D01*
X99740545Y-75891500D01*
X99737398Y-75891500D01*
X99651079Y-75891500D01*
X99584040Y-75871815D01*
X99538285Y-75819011D01*
X99528341Y-75749853D01*
X99533373Y-75728497D01*
X99562886Y-75639428D01*
X99562887Y-75639426D01*
X99573500Y-75535545D01*
X99573499Y-74759456D01*
X99562887Y-74655574D01*
X99507115Y-74487262D01*
X99414030Y-74336348D01*
X99414029Y-74336347D01*
X99414028Y-74336345D01*
X99288651Y-74210968D01*
X99287963Y-74210544D01*
X99285601Y-74207918D01*
X99278404Y-74200721D01*
X99278784Y-74200340D01*
X99241238Y-74158596D01*
X99230017Y-74089633D01*
X99257860Y-74025551D01*
X99274708Y-74010953D01*
X99407316Y-73878345D01*
X99499357Y-73729122D01*
X99554506Y-73562696D01*
X99564680Y-73463109D01*
X99565000Y-73456831D01*
X99565000Y-73322500D01*
X97115001Y-73322500D01*
X97115001Y-73456829D01*
X97115321Y-73463111D01*
X97125493Y-73562695D01*
X97180642Y-73729122D01*
X97272683Y-73878345D01*
X97406904Y-74012566D01*
X97405278Y-74014191D01*
X97438759Y-74051412D01*
X97449983Y-74120375D01*
X97422141Y-74184458D01*
X97392040Y-74210542D01*
X97391348Y-74210968D01*
X97265971Y-74336345D01*
X97172884Y-74487263D01*
X97117112Y-74655573D01*
X97106819Y-74756324D01*
X97106818Y-74756341D01*
X97106500Y-74759455D01*
X97106500Y-74762601D01*
X97106500Y-74762602D01*
X97106500Y-75532395D01*
X97106500Y-75532414D01*
X97106501Y-75535544D01*
X97106820Y-75538675D01*
X97106821Y-75538678D01*
X97117112Y-75639427D01*
X97146627Y-75728497D01*
X97149028Y-75798325D01*
X97113296Y-75858367D01*
X97050776Y-75889559D01*
X97028922Y-75891500D01*
X96942605Y-75891500D01*
X96942585Y-75891500D01*
X96939456Y-75891501D01*
X96936325Y-75891820D01*
X96936321Y-75891821D01*
X96835574Y-75902112D01*
X96667263Y-75957884D01*
X96504759Y-76058118D01*
X96437366Y-76076558D01*
X96370703Y-76055635D01*
X96343296Y-76030615D01*
X96334493Y-76019744D01*
X96285166Y-75958830D01*
X96140835Y-75841953D01*
X96063372Y-75802483D01*
X96012578Y-75754510D01*
X95995783Y-75686689D01*
X96018320Y-75620555D01*
X96063372Y-75581516D01*
X96140835Y-75542047D01*
X96285166Y-75425170D01*
X96402043Y-75280839D01*
X96486358Y-75115362D01*
X96534426Y-74935971D01*
X96540496Y-74858843D01*
X96540495Y-73985158D01*
X96534426Y-73908029D01*
X96486358Y-73728638D01*
X96402043Y-73563161D01*
X96285166Y-73418830D01*
X96140835Y-73301953D01*
X95975358Y-73217637D01*
X95833876Y-73179727D01*
X95795967Y-73169570D01*
X95786713Y-73168841D01*
X95721273Y-73163691D01*
X95721258Y-73163690D01*
X95718839Y-73163500D01*
X95716394Y-73163500D01*
X94770763Y-73163500D01*
X94703724Y-73143815D01*
X94683082Y-73127181D01*
X93938084Y-72382183D01*
X93925040Y-72365901D01*
X93873327Y-72317340D01*
X93870530Y-72314629D01*
X93853523Y-72297622D01*
X93850766Y-72294865D01*
X93847482Y-72292317D01*
X93838619Y-72284746D01*
X93806317Y-72254414D01*
X93788429Y-72244580D01*
X93772163Y-72233895D01*
X93757444Y-72222477D01*
X93716539Y-72165833D01*
X93712752Y-72096066D01*
X93747285Y-72035326D01*
X93809174Y-72002899D01*
X93833448Y-72000500D01*
X97239476Y-72000500D01*
X97306515Y-72020185D01*
G37*
G04 #@! TD.AperFunction*
G04 #@! TA.AperFunction,Conductor*
G36*
X87952208Y-84932007D02*
G01*
X87987713Y-84958584D01*
X87989066Y-84956777D01*
X88120396Y-85055089D01*
X88257394Y-85106188D01*
X88257397Y-85106188D01*
X88257399Y-85106189D01*
X88317962Y-85112700D01*
X89602500Y-85112700D01*
X89669539Y-85132385D01*
X89715294Y-85185189D01*
X89726500Y-85236700D01*
X89726500Y-86554476D01*
X89706815Y-86621515D01*
X89667598Y-86660013D01*
X89660601Y-86664330D01*
X89536347Y-86740970D01*
X89441670Y-86835647D01*
X89380347Y-86869131D01*
X89310655Y-86864147D01*
X89266308Y-86835646D01*
X89178345Y-86747683D01*
X89029122Y-86655642D01*
X88862696Y-86600493D01*
X88763109Y-86590319D01*
X88756832Y-86590000D01*
X88610000Y-86590000D01*
X88610000Y-88906000D01*
X88590315Y-88973039D01*
X88537511Y-89018794D01*
X88532648Y-89019851D01*
X88522500Y-89030000D01*
X88522500Y-89906000D01*
X88502815Y-89973039D01*
X88450011Y-90018794D01*
X88398500Y-90030000D01*
X88146500Y-90030000D01*
X88079461Y-90010315D01*
X88033706Y-89957511D01*
X88022500Y-89906000D01*
X88022500Y-88639000D01*
X88042185Y-88571961D01*
X88094989Y-88526206D01*
X88099851Y-88525148D01*
X88110000Y-88514999D01*
X88110000Y-86590000D01*
X87963171Y-86590000D01*
X87956888Y-86590321D01*
X87857304Y-86600493D01*
X87690877Y-86655642D01*
X87541656Y-86747681D01*
X87459181Y-86830157D01*
X87397857Y-86863641D01*
X87328166Y-86858657D01*
X87272232Y-86816785D01*
X87247816Y-86751320D01*
X87247500Y-86742475D01*
X87247500Y-85585565D01*
X87267185Y-85518526D01*
X87283815Y-85497888D01*
X87821196Y-84960506D01*
X87882517Y-84927023D01*
X87952208Y-84932007D01*
G37*
G04 #@! TD.AperFunction*
G04 #@! TA.AperFunction,Conductor*
G36*
X91570656Y-88559306D02*
G01*
X91571386Y-88560000D01*
X91822468Y-88560000D01*
X91885589Y-88577268D01*
X91956399Y-88619145D01*
X92116165Y-88665561D01*
X92116169Y-88665562D01*
X92153498Y-88668500D01*
X92155943Y-88668500D01*
X92858500Y-88668500D01*
X92925539Y-88688185D01*
X92971294Y-88740989D01*
X92982500Y-88792500D01*
X92982500Y-88827500D01*
X92962815Y-88894539D01*
X92910011Y-88940294D01*
X92858500Y-88951500D01*
X92153498Y-88951500D01*
X92151077Y-88951690D01*
X92151065Y-88951691D01*
X92116165Y-88954438D01*
X91956399Y-89000854D01*
X91885589Y-89042732D01*
X91822468Y-89060000D01*
X91558439Y-89060000D01*
X91530379Y-89076783D01*
X91460546Y-89074536D01*
X91403013Y-89034891D01*
X91381584Y-88995750D01*
X91377115Y-88982262D01*
X91300137Y-88857462D01*
X91281698Y-88790071D01*
X91301747Y-88726190D01*
X91301421Y-88725989D01*
X91302214Y-88724701D01*
X91302621Y-88723408D01*
X91304193Y-88721493D01*
X91309028Y-88713653D01*
X91309030Y-88713652D01*
X91385664Y-88589409D01*
X91437611Y-88542685D01*
X91506573Y-88531462D01*
X91570656Y-88559306D01*
G37*
G04 #@! TD.AperFunction*
G04 #@! TA.AperFunction,Conductor*
G36*
X96019273Y-82695185D02*
G01*
X96039915Y-82711819D01*
X96244415Y-82916319D01*
X96277900Y-82977642D01*
X96272916Y-83047334D01*
X96231044Y-83103267D01*
X96165580Y-83127684D01*
X96156734Y-83128000D01*
X96103000Y-83128000D01*
X96103000Y-84078000D01*
X96952999Y-84078000D01*
X96952999Y-83924265D01*
X96972684Y-83857226D01*
X97025488Y-83811471D01*
X97094646Y-83801527D01*
X97158202Y-83830552D01*
X97164665Y-83836569D01*
X97247183Y-83919087D01*
X97280666Y-83980406D01*
X97283500Y-84006765D01*
X97283500Y-84903232D01*
X97263815Y-84970271D01*
X97247181Y-84990913D01*
X97131627Y-85106467D01*
X97070304Y-85139952D01*
X97000612Y-85134968D01*
X96944679Y-85093096D01*
X96920262Y-85027632D01*
X96926241Y-84979781D01*
X96942505Y-84930698D01*
X96952680Y-84831109D01*
X96953000Y-84824831D01*
X96953000Y-84578000D01*
X96103000Y-84578000D01*
X96103000Y-85527999D01*
X96144233Y-85527999D01*
X96211272Y-85547684D01*
X96257027Y-85600488D01*
X96266971Y-85669646D01*
X96237946Y-85733202D01*
X96231908Y-85739686D01*
X96229907Y-85741686D01*
X96228686Y-85742908D01*
X96213909Y-85755527D01*
X96197392Y-85767528D01*
X96169152Y-85801663D01*
X96161292Y-85810301D01*
X94956414Y-87015181D01*
X94895091Y-87048666D01*
X94868733Y-87051500D01*
X94428498Y-87051500D01*
X94426077Y-87051690D01*
X94426065Y-87051691D01*
X94391165Y-87054438D01*
X94231399Y-87100854D01*
X94088191Y-87185547D01*
X93959470Y-87314269D01*
X93956668Y-87311467D01*
X93925662Y-87340418D01*
X93856920Y-87352921D01*
X93792331Y-87326275D01*
X93781278Y-87313520D01*
X93780530Y-87314269D01*
X93651808Y-87185547D01*
X93508600Y-87100854D01*
X93348834Y-87054438D01*
X93313934Y-87051691D01*
X93313923Y-87051690D01*
X93311502Y-87051500D01*
X92153498Y-87051500D01*
X92151077Y-87051690D01*
X92151065Y-87051691D01*
X92116165Y-87054438D01*
X91956399Y-87100854D01*
X91891507Y-87139232D01*
X91828386Y-87156500D01*
X91537794Y-87156500D01*
X91470755Y-87136815D01*
X91425000Y-87084011D01*
X91420088Y-87071503D01*
X91402115Y-87017262D01*
X91309030Y-86866348D01*
X91309029Y-86866347D01*
X91309028Y-86866345D01*
X91183654Y-86740971D01*
X91114752Y-86698472D01*
X91052402Y-86660013D01*
X91005679Y-86608067D01*
X90993500Y-86554476D01*
X90993500Y-85236700D01*
X91013185Y-85169661D01*
X91065989Y-85123906D01*
X91117500Y-85112700D01*
X92272728Y-85112700D01*
X92276038Y-85112700D01*
X92336601Y-85106189D01*
X92336603Y-85106188D01*
X92336605Y-85106188D01*
X92490308Y-85048859D01*
X92491514Y-85052093D01*
X92529262Y-85038016D01*
X92538104Y-85037700D01*
X92702796Y-85037700D01*
X92769835Y-85057385D01*
X92808335Y-85096603D01*
X92810884Y-85100736D01*
X92810885Y-85100738D01*
X92873344Y-85202000D01*
X92903971Y-85251654D01*
X93029345Y-85377028D01*
X93029347Y-85377029D01*
X93029348Y-85377030D01*
X93180262Y-85470115D01*
X93264065Y-85497884D01*
X93348573Y-85525887D01*
X93369246Y-85527999D01*
X93452455Y-85536500D01*
X94253544Y-85536499D01*
X94357426Y-85525887D01*
X94525738Y-85470115D01*
X94676652Y-85377030D01*
X94771330Y-85282351D01*
X94832651Y-85248868D01*
X94902343Y-85253852D01*
X94946691Y-85282353D01*
X95034654Y-85370316D01*
X95183877Y-85462357D01*
X95350303Y-85517506D01*
X95449890Y-85527680D01*
X95456168Y-85527999D01*
X95602999Y-85527999D01*
X95603000Y-85527998D01*
X95603000Y-83128000D01*
X95456171Y-83128000D01*
X95449888Y-83128321D01*
X95350304Y-83138493D01*
X95183877Y-83193642D01*
X95034656Y-83285681D01*
X94946691Y-83373647D01*
X94885367Y-83407131D01*
X94815676Y-83402147D01*
X94771329Y-83373646D01*
X94676654Y-83278971D01*
X94525736Y-83185884D01*
X94357426Y-83130112D01*
X94301383Y-83124387D01*
X94236691Y-83097991D01*
X94196540Y-83040810D01*
X94193677Y-82970999D01*
X94223593Y-82916146D01*
X94242586Y-82895921D01*
X94252419Y-82878032D01*
X94263100Y-82861772D01*
X94275614Y-82845641D01*
X94293207Y-82804981D01*
X94298343Y-82794495D01*
X94319695Y-82755660D01*
X94319695Y-82755658D01*
X94327243Y-82741930D01*
X94331030Y-82744012D01*
X94352089Y-82708630D01*
X94414610Y-82677440D01*
X94436461Y-82675500D01*
X95952234Y-82675500D01*
X96019273Y-82695185D01*
G37*
G04 #@! TD.AperFunction*
G04 #@! TA.AperFunction,Conductor*
G36*
X91955273Y-79647185D02*
G01*
X91975915Y-79663819D01*
X93056181Y-80744085D01*
X93089666Y-80805408D01*
X93092500Y-80831766D01*
X93092500Y-81970394D01*
X93090304Y-81993629D01*
X93088724Y-82001908D01*
X93092254Y-82058016D01*
X93092499Y-82065800D01*
X93092500Y-82206831D01*
X93072816Y-82273871D01*
X93056182Y-82294513D01*
X92947579Y-82403115D01*
X92886259Y-82436599D01*
X92816567Y-82431615D01*
X92760633Y-82389744D01*
X92736216Y-82324280D01*
X92735900Y-82315433D01*
X92735900Y-82228471D01*
X92735900Y-82225162D01*
X92729389Y-82164599D01*
X92729388Y-82164597D01*
X92729388Y-82164594D01*
X92678289Y-82027596D01*
X92590661Y-81910538D01*
X92473603Y-81822910D01*
X92336605Y-81771811D01*
X92279324Y-81765653D01*
X92279318Y-81765652D01*
X92276038Y-81765300D01*
X92272728Y-81765300D01*
X92167325Y-81765300D01*
X92100286Y-81745615D01*
X92060464Y-81699658D01*
X92059394Y-81700292D01*
X92055912Y-81694404D01*
X92054531Y-81692811D01*
X92053791Y-81690818D01*
X92046768Y-81678944D01*
X92041022Y-81669228D01*
X92032467Y-81651766D01*
X92024952Y-81632783D01*
X91998912Y-81596942D01*
X91992498Y-81587178D01*
X91969941Y-81549036D01*
X91955507Y-81534602D01*
X91942870Y-81519807D01*
X91936383Y-81510879D01*
X91930872Y-81503293D01*
X91896724Y-81475043D01*
X91888096Y-81467191D01*
X91566088Y-81145183D01*
X91553044Y-81128902D01*
X91551000Y-81126983D01*
X91551000Y-81126982D01*
X91501315Y-81080325D01*
X91498550Y-81077645D01*
X91481527Y-81060622D01*
X91478770Y-81057865D01*
X91475486Y-81055317D01*
X91466623Y-81047746D01*
X91434321Y-81017414D01*
X91416433Y-81007580D01*
X91400169Y-80996896D01*
X91384040Y-80984385D01*
X91343377Y-80966789D01*
X91332883Y-80961648D01*
X91294062Y-80940305D01*
X91282386Y-80937307D01*
X91274284Y-80935227D01*
X91255879Y-80928926D01*
X91248727Y-80925831D01*
X91237145Y-80920819D01*
X91237143Y-80920818D01*
X91237142Y-80920818D01*
X91193383Y-80913887D01*
X91181943Y-80911518D01*
X91139031Y-80900500D01*
X91139030Y-80900500D01*
X91118616Y-80900500D01*
X91099217Y-80898973D01*
X91079058Y-80895780D01*
X91079057Y-80895780D01*
X91053340Y-80898211D01*
X91034943Y-80899950D01*
X91023274Y-80900500D01*
X83649628Y-80900500D01*
X83628892Y-80898211D01*
X83626091Y-80898299D01*
X83573560Y-80899950D01*
X83558001Y-80900439D01*
X83554106Y-80900500D01*
X83526144Y-80900500D01*
X83522290Y-80900986D01*
X83522283Y-80900987D01*
X83522025Y-80901020D01*
X83510371Y-80901935D01*
X83509313Y-80901968D01*
X83441692Y-80884383D01*
X83394313Y-80833031D01*
X83382219Y-80764216D01*
X83385240Y-80747593D01*
X83386564Y-80742368D01*
X83399878Y-80581702D01*
X83405156Y-80518000D01*
X83401533Y-80474281D01*
X83386564Y-80293632D01*
X83331296Y-80075384D01*
X83240860Y-79869209D01*
X83240859Y-79869206D01*
X83208268Y-79819322D01*
X83188080Y-79752432D01*
X83207259Y-79685247D01*
X83259718Y-79639096D01*
X83312076Y-79627500D01*
X91888234Y-79627500D01*
X91955273Y-79647185D01*
G37*
G04 #@! TD.AperFunction*
M02*
