G04 #@! TF.GenerationSoftware,KiCad,Pcbnew,7.0.2*
G04 #@! TF.CreationDate,2023-05-22T10:47:49+02:00*
G04 #@! TF.ProjectId,relaismsofet correctie,72656c61-6973-46d7-936f-66657420636f,rev?*
G04 #@! TF.SameCoordinates,Original*
G04 #@! TF.FileFunction,Copper,L2,Bot*
G04 #@! TF.FilePolarity,Positive*
%FSLAX46Y46*%
G04 Gerber Fmt 4.6, Leading zero omitted, Abs format (unit mm)*
G04 Created by KiCad (PCBNEW 7.0.2) date 2023-05-22 10:47:49*
%MOMM*%
%LPD*%
G01*
G04 APERTURE LIST*
G04 #@! TA.AperFunction,ComponentPad*
%ADD10R,2.200000X2.200000*%
G04 #@! TD*
G04 #@! TA.AperFunction,ComponentPad*
%ADD11C,2.200000*%
G04 #@! TD*
G04 #@! TA.AperFunction,ComponentPad*
%ADD12R,1.700000X1.700000*%
G04 #@! TD*
G04 #@! TA.AperFunction,ComponentPad*
%ADD13O,1.700000X1.700000*%
G04 #@! TD*
G04 #@! TA.AperFunction,ViaPad*
%ADD14C,0.800000*%
G04 #@! TD*
G04 APERTURE END LIST*
D10*
X110000000Y-83500000D03*
D11*
X110000000Y-80960000D03*
D12*
X82000000Y-77000000D03*
D13*
X82000000Y-74460000D03*
D12*
X82000000Y-83500000D03*
D13*
X82000000Y-80960000D03*
D12*
X82000000Y-90000000D03*
D13*
X82000000Y-87460000D03*
D14*
X100500000Y-85425000D03*
X91200000Y-84250000D03*
G04 #@! TA.AperFunction,Conductor*
G36*
X114942539Y-72020185D02*
G01*
X114988294Y-72072989D01*
X114999500Y-72124500D01*
X114999500Y-91875500D01*
X114979815Y-91942539D01*
X114927011Y-91988294D01*
X114875500Y-91999500D01*
X80134000Y-91999500D01*
X80066961Y-91979815D01*
X80021206Y-91927011D01*
X80010000Y-91875500D01*
X80010000Y-87460000D01*
X80636843Y-87460000D01*
X80655435Y-87684363D01*
X80655435Y-87684366D01*
X80655436Y-87684368D01*
X80687715Y-87811836D01*
X80710705Y-87902618D01*
X80801138Y-88108788D01*
X80924279Y-88297269D01*
X81075706Y-88461761D01*
X81106629Y-88524416D01*
X81098769Y-88593842D01*
X81054622Y-88647998D01*
X81027811Y-88661927D01*
X80907911Y-88706647D01*
X80792811Y-88792811D01*
X80706647Y-88907910D01*
X80656400Y-89042628D01*
X80650354Y-89098867D01*
X80650000Y-89105481D01*
X80650000Y-89750000D01*
X81566314Y-89750000D01*
X81540507Y-89790156D01*
X81500000Y-89928111D01*
X81500000Y-90071889D01*
X81540507Y-90209844D01*
X81566314Y-90250000D01*
X80650000Y-90250000D01*
X80650000Y-90894518D01*
X80650354Y-90901132D01*
X80656400Y-90957371D01*
X80706647Y-91092089D01*
X80792811Y-91207188D01*
X80907910Y-91293352D01*
X81042628Y-91343599D01*
X81098867Y-91349645D01*
X81105482Y-91350000D01*
X81750000Y-91350000D01*
X81750000Y-90435501D01*
X81857685Y-90484680D01*
X81964237Y-90500000D01*
X82035763Y-90500000D01*
X82142315Y-90484680D01*
X82250000Y-90435501D01*
X82250000Y-91350000D01*
X82894518Y-91350000D01*
X82901132Y-91349645D01*
X82957371Y-91343599D01*
X83092089Y-91293352D01*
X83207188Y-91207188D01*
X83293352Y-91092089D01*
X83343599Y-90957371D01*
X83349645Y-90901132D01*
X83350000Y-90894518D01*
X83350000Y-90250000D01*
X82433686Y-90250000D01*
X82459493Y-90209844D01*
X82500000Y-90071889D01*
X82500000Y-89928111D01*
X82459493Y-89790156D01*
X82433686Y-89750000D01*
X83350000Y-89750000D01*
X83350000Y-89124334D01*
X109499500Y-89124334D01*
X109540429Y-89369615D01*
X109621170Y-89604805D01*
X109621172Y-89604810D01*
X109739526Y-89823509D01*
X109739529Y-89823514D01*
X109820941Y-89928111D01*
X109892262Y-90019744D01*
X110075215Y-90188164D01*
X110283393Y-90324173D01*
X110511119Y-90424063D01*
X110752179Y-90485108D01*
X110937933Y-90500500D01*
X110940503Y-90500500D01*
X111059497Y-90500500D01*
X111062067Y-90500500D01*
X111247821Y-90485108D01*
X111488881Y-90424063D01*
X111716607Y-90324173D01*
X111924785Y-90188164D01*
X112107738Y-90019744D01*
X112260474Y-89823509D01*
X112378828Y-89604810D01*
X112459571Y-89369614D01*
X112500500Y-89124335D01*
X112500500Y-88875665D01*
X112459571Y-88630386D01*
X112378828Y-88395190D01*
X112260474Y-88176491D01*
X112260471Y-88176487D01*
X112260470Y-88176485D01*
X112107740Y-87980259D01*
X112107738Y-87980256D01*
X111924785Y-87811836D01*
X111716607Y-87675827D01*
X111716604Y-87675825D01*
X111591523Y-87620960D01*
X111488881Y-87575937D01*
X111308867Y-87530351D01*
X111247822Y-87514892D01*
X111213854Y-87512077D01*
X111062067Y-87499500D01*
X110937933Y-87499500D01*
X110820111Y-87509262D01*
X110752177Y-87514892D01*
X110630087Y-87545810D01*
X110511119Y-87575937D01*
X110511116Y-87575938D01*
X110511117Y-87575938D01*
X110283395Y-87675825D01*
X110144607Y-87766499D01*
X110075215Y-87811836D01*
X109976600Y-87902618D01*
X109892259Y-87980259D01*
X109739529Y-88176485D01*
X109621170Y-88395194D01*
X109540429Y-88630384D01*
X109499500Y-88875665D01*
X109499500Y-89124334D01*
X83350000Y-89124334D01*
X83350000Y-89105481D01*
X83349645Y-89098867D01*
X83343599Y-89042628D01*
X83293352Y-88907910D01*
X83207188Y-88792811D01*
X83092089Y-88706647D01*
X82972188Y-88661927D01*
X82916255Y-88620055D01*
X82891838Y-88554591D01*
X82906690Y-88486318D01*
X82924289Y-88461766D01*
X83075722Y-88297268D01*
X83198860Y-88108791D01*
X83289296Y-87902616D01*
X83344564Y-87684368D01*
X83363156Y-87460000D01*
X83344564Y-87235632D01*
X83289296Y-87017384D01*
X83198860Y-86811209D01*
X83075722Y-86622732D01*
X82923240Y-86457094D01*
X82745576Y-86318811D01*
X82547574Y-86211658D01*
X82547573Y-86211657D01*
X82547572Y-86211657D01*
X82334636Y-86138556D01*
X82112569Y-86101500D01*
X81887431Y-86101500D01*
X81665363Y-86138556D01*
X81452427Y-86211657D01*
X81254424Y-86318811D01*
X81076760Y-86457094D01*
X80924279Y-86622730D01*
X80801138Y-86811211D01*
X80710705Y-87017381D01*
X80655435Y-87235636D01*
X80636843Y-87460000D01*
X80010000Y-87460000D01*
X80010000Y-80960000D01*
X80636843Y-80960000D01*
X80655435Y-81184363D01*
X80655435Y-81184366D01*
X80655436Y-81184368D01*
X80687129Y-81309522D01*
X80710705Y-81402618D01*
X80801138Y-81608788D01*
X80924281Y-81797273D01*
X81069489Y-81955009D01*
X81100412Y-82017663D01*
X81092552Y-82087089D01*
X81048405Y-82141245D01*
X81021595Y-82155173D01*
X80903795Y-82199111D01*
X80786738Y-82286738D01*
X80699110Y-82403796D01*
X80648011Y-82540794D01*
X80641853Y-82598075D01*
X80641500Y-82601362D01*
X80641500Y-84398638D01*
X80641852Y-84401918D01*
X80641853Y-84401924D01*
X80648011Y-84459205D01*
X80699110Y-84596203D01*
X80786738Y-84713261D01*
X80903796Y-84800889D01*
X81040794Y-84851988D01*
X81040797Y-84851988D01*
X81040799Y-84851989D01*
X81101362Y-84858500D01*
X81104672Y-84858500D01*
X82895328Y-84858500D01*
X82898638Y-84858500D01*
X82959201Y-84851989D01*
X82959203Y-84851988D01*
X82959205Y-84851988D01*
X83037124Y-84822924D01*
X83096204Y-84800889D01*
X83213261Y-84713261D01*
X83300889Y-84596204D01*
X83351989Y-84459201D01*
X83358500Y-84398638D01*
X83358500Y-82601362D01*
X83351989Y-82540799D01*
X83351988Y-82540797D01*
X83351988Y-82540794D01*
X83300889Y-82403796D01*
X83213261Y-82286738D01*
X83096203Y-82199110D01*
X82978405Y-82155173D01*
X82922471Y-82113302D01*
X82898055Y-82047837D01*
X82912907Y-81979564D01*
X82930507Y-81955011D01*
X83075722Y-81797268D01*
X83198860Y-81608791D01*
X83289296Y-81402616D01*
X83344564Y-81184368D01*
X83363156Y-80960000D01*
X108386526Y-80960000D01*
X108406391Y-81212404D01*
X108465494Y-81458590D01*
X108467016Y-81462264D01*
X108562384Y-81692502D01*
X108626588Y-81797273D01*
X108639891Y-81818981D01*
X108658135Y-81886427D01*
X108637018Y-81953030D01*
X108608474Y-81983038D01*
X108536737Y-82036739D01*
X108449110Y-82153796D01*
X108398011Y-82290794D01*
X108391853Y-82348075D01*
X108391500Y-82351362D01*
X108391500Y-84648638D01*
X108391852Y-84651918D01*
X108391853Y-84651924D01*
X108398011Y-84709205D01*
X108449110Y-84846203D01*
X108536738Y-84963261D01*
X108653796Y-85050889D01*
X108790794Y-85101988D01*
X108790797Y-85101988D01*
X108790799Y-85101989D01*
X108851362Y-85108500D01*
X108854672Y-85108500D01*
X111145328Y-85108500D01*
X111148638Y-85108500D01*
X111209201Y-85101989D01*
X111209203Y-85101988D01*
X111209205Y-85101988D01*
X111287124Y-85072924D01*
X111346204Y-85050889D01*
X111463261Y-84963261D01*
X111550889Y-84846204D01*
X111601989Y-84709201D01*
X111608500Y-84648638D01*
X111608500Y-83952548D01*
X111628185Y-83885509D01*
X111680989Y-83839754D01*
X111750147Y-83829810D01*
X111813703Y-83858835D01*
X111837494Y-83886576D01*
X111910185Y-84002264D01*
X112037735Y-84129814D01*
X112037737Y-84129815D01*
X112037738Y-84129816D01*
X112190478Y-84225789D01*
X112360745Y-84285368D01*
X112495046Y-84300500D01*
X112498530Y-84300500D01*
X112581470Y-84300500D01*
X112584954Y-84300500D01*
X112719255Y-84285368D01*
X112889522Y-84225789D01*
X113042262Y-84129816D01*
X113169816Y-84002262D01*
X113265789Y-83849522D01*
X113325368Y-83679255D01*
X113345565Y-83500000D01*
X113325368Y-83320745D01*
X113265789Y-83150478D01*
X113169816Y-82997738D01*
X113169815Y-82997737D01*
X113169814Y-82997735D01*
X113042264Y-82870185D01*
X112979867Y-82830978D01*
X112889522Y-82774211D01*
X112719255Y-82714632D01*
X112719251Y-82714631D01*
X112719250Y-82714631D01*
X112588420Y-82699890D01*
X112588410Y-82699889D01*
X112584954Y-82699500D01*
X112495046Y-82699500D01*
X112491590Y-82699889D01*
X112491579Y-82699890D01*
X112360749Y-82714631D01*
X112360746Y-82714631D01*
X112360745Y-82714632D01*
X112190478Y-82774211D01*
X112190476Y-82774211D01*
X112190476Y-82774212D01*
X112037735Y-82870185D01*
X111910184Y-82997736D01*
X111837494Y-83113423D01*
X111785159Y-83159714D01*
X111716106Y-83170362D01*
X111652257Y-83141987D01*
X111613885Y-83083598D01*
X111608500Y-83047451D01*
X111608500Y-82354671D01*
X111608500Y-82351362D01*
X111601989Y-82290799D01*
X111601988Y-82290797D01*
X111601988Y-82290794D01*
X111550889Y-82153796D01*
X111463262Y-82036740D01*
X111437778Y-82017663D01*
X111391524Y-81983037D01*
X111349654Y-81927104D01*
X111344670Y-81857413D01*
X111360109Y-81818981D01*
X111373412Y-81797273D01*
X111437616Y-81692502D01*
X111534505Y-81458591D01*
X111571148Y-81305960D01*
X111605937Y-81245370D01*
X111667963Y-81213205D01*
X111737532Y-81219681D01*
X111792556Y-81262740D01*
X111808761Y-81293950D01*
X111814209Y-81309518D01*
X111814210Y-81309520D01*
X111814211Y-81309522D01*
X111814212Y-81309523D01*
X111910185Y-81462264D01*
X112037735Y-81589814D01*
X112037737Y-81589815D01*
X112037738Y-81589816D01*
X112190478Y-81685789D01*
X112360745Y-81745368D01*
X112495046Y-81760500D01*
X112498530Y-81760500D01*
X112581470Y-81760500D01*
X112584954Y-81760500D01*
X112719255Y-81745368D01*
X112889522Y-81685789D01*
X113042262Y-81589816D01*
X113169816Y-81462262D01*
X113265789Y-81309522D01*
X113325368Y-81139255D01*
X113345565Y-80960000D01*
X113325368Y-80780745D01*
X113265789Y-80610478D01*
X113169816Y-80457738D01*
X113169815Y-80457737D01*
X113169814Y-80457735D01*
X113042264Y-80330185D01*
X112979867Y-80290979D01*
X112889522Y-80234211D01*
X112719255Y-80174632D01*
X112719251Y-80174631D01*
X112719250Y-80174631D01*
X112588420Y-80159890D01*
X112588410Y-80159889D01*
X112584954Y-80159500D01*
X112495046Y-80159500D01*
X112491590Y-80159889D01*
X112491579Y-80159890D01*
X112360749Y-80174631D01*
X112360746Y-80174631D01*
X112360745Y-80174632D01*
X112190478Y-80234211D01*
X112190476Y-80234211D01*
X112190476Y-80234212D01*
X112037735Y-80330185D01*
X111910185Y-80457735D01*
X111814209Y-80610480D01*
X111808761Y-80626050D01*
X111768037Y-80682824D01*
X111703084Y-80708569D01*
X111634522Y-80695111D01*
X111584121Y-80646722D01*
X111571147Y-80614037D01*
X111570292Y-80610476D01*
X111534505Y-80461409D01*
X111437616Y-80227498D01*
X111305328Y-80011624D01*
X111140898Y-79819102D01*
X110948376Y-79654672D01*
X110732502Y-79522384D01*
X110615546Y-79473939D01*
X110498590Y-79425494D01*
X110252404Y-79366391D01*
X110000000Y-79346526D01*
X109747595Y-79366391D01*
X109501409Y-79425494D01*
X109267496Y-79522385D01*
X109051625Y-79654671D01*
X109051623Y-79654672D01*
X109051624Y-79654672D01*
X108859102Y-79819102D01*
X108694672Y-80011624D01*
X108562384Y-80227498D01*
X108559603Y-80234212D01*
X108465494Y-80461409D01*
X108406391Y-80707595D01*
X108386526Y-80960000D01*
X83363156Y-80960000D01*
X83344564Y-80735632D01*
X83289296Y-80517384D01*
X83198860Y-80311209D01*
X83075722Y-80122732D01*
X82923240Y-79957094D01*
X82745576Y-79818811D01*
X82547574Y-79711658D01*
X82547573Y-79711657D01*
X82547572Y-79711657D01*
X82334636Y-79638556D01*
X82112569Y-79601500D01*
X81887431Y-79601500D01*
X81665363Y-79638556D01*
X81452427Y-79711657D01*
X81254424Y-79818811D01*
X81076760Y-79957094D01*
X80924279Y-80122730D01*
X80801138Y-80311211D01*
X80710705Y-80517381D01*
X80655435Y-80735636D01*
X80636843Y-80960000D01*
X80010000Y-80960000D01*
X80010000Y-74460000D01*
X80636843Y-74460000D01*
X80655435Y-74684363D01*
X80655435Y-74684366D01*
X80655436Y-74684368D01*
X80703879Y-74875665D01*
X80710705Y-74902618D01*
X80801138Y-75108788D01*
X80924279Y-75297269D01*
X81075706Y-75461761D01*
X81106629Y-75524416D01*
X81098769Y-75593842D01*
X81054622Y-75647998D01*
X81027811Y-75661927D01*
X80907911Y-75706647D01*
X80792811Y-75792811D01*
X80706647Y-75907910D01*
X80656400Y-76042628D01*
X80650354Y-76098867D01*
X80650000Y-76105481D01*
X80650000Y-76750000D01*
X81566314Y-76750000D01*
X81540507Y-76790156D01*
X81500000Y-76928111D01*
X81500000Y-77071889D01*
X81540507Y-77209844D01*
X81566314Y-77250000D01*
X80650000Y-77250000D01*
X80650000Y-77894518D01*
X80650354Y-77901132D01*
X80656400Y-77957371D01*
X80706647Y-78092089D01*
X80792811Y-78207188D01*
X80907910Y-78293352D01*
X81042628Y-78343599D01*
X81098867Y-78349645D01*
X81105482Y-78350000D01*
X81750000Y-78350000D01*
X81750000Y-77435501D01*
X81857685Y-77484680D01*
X81964237Y-77500000D01*
X82035763Y-77500000D01*
X82142315Y-77484680D01*
X82250000Y-77435501D01*
X82250000Y-78350000D01*
X82894518Y-78350000D01*
X82901132Y-78349645D01*
X82957371Y-78343599D01*
X83092089Y-78293352D01*
X83207188Y-78207188D01*
X83293352Y-78092089D01*
X83343599Y-77957371D01*
X83349645Y-77901132D01*
X83350000Y-77894518D01*
X83350000Y-77250000D01*
X82433686Y-77250000D01*
X82459493Y-77209844D01*
X82500000Y-77071889D01*
X82500000Y-76928111D01*
X82459493Y-76790156D01*
X82433686Y-76750000D01*
X83350000Y-76750000D01*
X83350000Y-76105481D01*
X83349645Y-76098867D01*
X83343599Y-76042628D01*
X83293352Y-75907910D01*
X83207188Y-75792811D01*
X83092089Y-75706647D01*
X82972188Y-75661927D01*
X82916255Y-75620055D01*
X82891838Y-75554591D01*
X82906690Y-75486318D01*
X82924289Y-75461766D01*
X83075722Y-75297268D01*
X83188705Y-75124334D01*
X109499500Y-75124334D01*
X109540429Y-75369615D01*
X109619929Y-75601189D01*
X109621172Y-75604810D01*
X109739526Y-75823509D01*
X109739529Y-75823514D01*
X109805218Y-75907910D01*
X109892262Y-76019744D01*
X110075215Y-76188164D01*
X110283393Y-76324173D01*
X110511119Y-76424063D01*
X110752179Y-76485108D01*
X110937933Y-76500500D01*
X110940503Y-76500500D01*
X111059497Y-76500500D01*
X111062067Y-76500500D01*
X111247821Y-76485108D01*
X111488881Y-76424063D01*
X111716607Y-76324173D01*
X111924785Y-76188164D01*
X112107738Y-76019744D01*
X112260474Y-75823509D01*
X112378828Y-75604810D01*
X112459571Y-75369614D01*
X112500500Y-75124335D01*
X112500500Y-74875665D01*
X112459571Y-74630386D01*
X112378828Y-74395190D01*
X112260474Y-74176491D01*
X112260471Y-74176487D01*
X112260470Y-74176485D01*
X112136636Y-74017384D01*
X112107738Y-73980256D01*
X111924785Y-73811836D01*
X111716607Y-73675827D01*
X111716604Y-73675825D01*
X111591523Y-73620960D01*
X111488881Y-73575937D01*
X111308867Y-73530351D01*
X111247822Y-73514892D01*
X111213854Y-73512077D01*
X111062067Y-73499500D01*
X110937933Y-73499500D01*
X110820111Y-73509262D01*
X110752177Y-73514892D01*
X110630087Y-73545810D01*
X110511119Y-73575937D01*
X110511116Y-73575938D01*
X110511117Y-73575938D01*
X110283395Y-73675825D01*
X110144607Y-73766499D01*
X110075215Y-73811836D01*
X110075213Y-73811837D01*
X110075214Y-73811837D01*
X109892259Y-73980259D01*
X109739529Y-74176485D01*
X109621170Y-74395194D01*
X109540429Y-74630384D01*
X109499500Y-74875665D01*
X109499500Y-75124334D01*
X83188705Y-75124334D01*
X83198860Y-75108791D01*
X83289296Y-74902616D01*
X83344564Y-74684368D01*
X83363156Y-74460000D01*
X83344564Y-74235632D01*
X83289296Y-74017384D01*
X83212616Y-73842571D01*
X83198861Y-73811211D01*
X83198860Y-73811209D01*
X83075722Y-73622732D01*
X82923240Y-73457094D01*
X82745576Y-73318811D01*
X82547574Y-73211658D01*
X82547573Y-73211657D01*
X82547572Y-73211657D01*
X82334636Y-73138556D01*
X82112569Y-73101500D01*
X81887431Y-73101500D01*
X81665363Y-73138556D01*
X81452427Y-73211657D01*
X81254424Y-73318811D01*
X81076760Y-73457094D01*
X80924279Y-73622730D01*
X80801138Y-73811211D01*
X80710705Y-74017381D01*
X80655435Y-74235636D01*
X80636843Y-74460000D01*
X80010000Y-74460000D01*
X80010000Y-72124500D01*
X80029685Y-72057461D01*
X80082489Y-72011706D01*
X80134000Y-72000500D01*
X114875500Y-72000500D01*
X114942539Y-72020185D01*
G37*
G04 #@! TD.AperFunction*
M02*
