G04 #@! TF.GenerationSoftware,KiCad,Pcbnew,7.0.2*
G04 #@! TF.CreationDate,2023-05-22T10:47:49+02:00*
G04 #@! TF.ProjectId,relaismsofet correctie,72656c61-6973-46d7-936f-66657420636f,rev?*
G04 #@! TF.SameCoordinates,Original*
G04 #@! TF.FileFunction,Legend,Bot*
G04 #@! TF.FilePolarity,Positive*
%FSLAX46Y46*%
G04 Gerber Fmt 4.6, Leading zero omitted, Abs format (unit mm)*
G04 Created by KiCad (PCBNEW 7.0.2) date 2023-05-22 10:47:49*
%MOMM*%
%LPD*%
G01*
G04 APERTURE LIST*
%ADD10C,0.125000*%
%ADD11C,0.150000*%
%ADD12C,0.120000*%
%ADD13C,2.500000*%
%ADD14C,1.100000*%
%ADD15R,2.200000X2.200000*%
%ADD16C,2.200000*%
%ADD17R,1.700000X1.700000*%
%ADD18O,1.700000X1.700000*%
G04 APERTURE END LIST*
D10*
X84905952Y-81002095D02*
X84905952Y-80202095D01*
X84310714Y-80164000D02*
X84739285Y-81192571D01*
X84048809Y-80202095D02*
X83953571Y-80202095D01*
X83953571Y-80202095D02*
X83905952Y-80240190D01*
X83905952Y-80240190D02*
X83858333Y-80316380D01*
X83858333Y-80316380D02*
X83834523Y-80468761D01*
X83834523Y-80468761D02*
X83834523Y-80735428D01*
X83834523Y-80735428D02*
X83858333Y-80887809D01*
X83858333Y-80887809D02*
X83905952Y-80964000D01*
X83905952Y-80964000D02*
X83953571Y-81002095D01*
X83953571Y-81002095D02*
X84048809Y-81002095D01*
X84048809Y-81002095D02*
X84096428Y-80964000D01*
X84096428Y-80964000D02*
X84144047Y-80887809D01*
X84144047Y-80887809D02*
X84167856Y-80735428D01*
X84167856Y-80735428D02*
X84167856Y-80468761D01*
X84167856Y-80468761D02*
X84144047Y-80316380D01*
X84144047Y-80316380D02*
X84096428Y-80240190D01*
X84096428Y-80240190D02*
X84048809Y-80202095D01*
X85430952Y-86597333D02*
X85050000Y-86597333D01*
X85240476Y-86902095D02*
X85240476Y-86292571D01*
X84573809Y-86102095D02*
X84811904Y-86102095D01*
X84811904Y-86102095D02*
X84835713Y-86483047D01*
X84835713Y-86483047D02*
X84811904Y-86444952D01*
X84811904Y-86444952D02*
X84764285Y-86406857D01*
X84764285Y-86406857D02*
X84645237Y-86406857D01*
X84645237Y-86406857D02*
X84597618Y-86444952D01*
X84597618Y-86444952D02*
X84573809Y-86483047D01*
X84573809Y-86483047D02*
X84549999Y-86559238D01*
X84549999Y-86559238D02*
X84549999Y-86749714D01*
X84549999Y-86749714D02*
X84573809Y-86825904D01*
X84573809Y-86825904D02*
X84597618Y-86864000D01*
X84597618Y-86864000D02*
X84645237Y-86902095D01*
X84645237Y-86902095D02*
X84764285Y-86902095D01*
X84764285Y-86902095D02*
X84811904Y-86864000D01*
X84811904Y-86864000D02*
X84835713Y-86825904D01*
X84407142Y-86102095D02*
X84240476Y-86902095D01*
X84240476Y-86902095D02*
X84073809Y-86102095D01*
X84994047Y-89465190D02*
X85041666Y-89427095D01*
X85041666Y-89427095D02*
X85113095Y-89427095D01*
X85113095Y-89427095D02*
X85184523Y-89465190D01*
X85184523Y-89465190D02*
X85232142Y-89541380D01*
X85232142Y-89541380D02*
X85255952Y-89617571D01*
X85255952Y-89617571D02*
X85279761Y-89769952D01*
X85279761Y-89769952D02*
X85279761Y-89884238D01*
X85279761Y-89884238D02*
X85255952Y-90036619D01*
X85255952Y-90036619D02*
X85232142Y-90112809D01*
X85232142Y-90112809D02*
X85184523Y-90189000D01*
X85184523Y-90189000D02*
X85113095Y-90227095D01*
X85113095Y-90227095D02*
X85065476Y-90227095D01*
X85065476Y-90227095D02*
X84994047Y-90189000D01*
X84994047Y-90189000D02*
X84970238Y-90150904D01*
X84970238Y-90150904D02*
X84970238Y-89884238D01*
X84970238Y-89884238D02*
X85065476Y-89884238D01*
X84755952Y-90227095D02*
X84755952Y-89427095D01*
X84755952Y-89427095D02*
X84470238Y-90227095D01*
X84470238Y-90227095D02*
X84470238Y-89427095D01*
X84232142Y-90227095D02*
X84232142Y-89427095D01*
X84232142Y-89427095D02*
X84113094Y-89427095D01*
X84113094Y-89427095D02*
X84041666Y-89465190D01*
X84041666Y-89465190D02*
X83994047Y-89541380D01*
X83994047Y-89541380D02*
X83970237Y-89617571D01*
X83970237Y-89617571D02*
X83946428Y-89769952D01*
X83946428Y-89769952D02*
X83946428Y-89884238D01*
X83946428Y-89884238D02*
X83970237Y-90036619D01*
X83970237Y-90036619D02*
X83994047Y-90112809D01*
X83994047Y-90112809D02*
X84041666Y-90189000D01*
X84041666Y-90189000D02*
X84113094Y-90227095D01*
X84113094Y-90227095D02*
X84232142Y-90227095D01*
X85019047Y-77140190D02*
X85066666Y-77102095D01*
X85066666Y-77102095D02*
X85138095Y-77102095D01*
X85138095Y-77102095D02*
X85209523Y-77140190D01*
X85209523Y-77140190D02*
X85257142Y-77216380D01*
X85257142Y-77216380D02*
X85280952Y-77292571D01*
X85280952Y-77292571D02*
X85304761Y-77444952D01*
X85304761Y-77444952D02*
X85304761Y-77559238D01*
X85304761Y-77559238D02*
X85280952Y-77711619D01*
X85280952Y-77711619D02*
X85257142Y-77787809D01*
X85257142Y-77787809D02*
X85209523Y-77864000D01*
X85209523Y-77864000D02*
X85138095Y-77902095D01*
X85138095Y-77902095D02*
X85090476Y-77902095D01*
X85090476Y-77902095D02*
X85019047Y-77864000D01*
X85019047Y-77864000D02*
X84995238Y-77825904D01*
X84995238Y-77825904D02*
X84995238Y-77559238D01*
X84995238Y-77559238D02*
X85090476Y-77559238D01*
X84780952Y-77902095D02*
X84780952Y-77102095D01*
X84780952Y-77102095D02*
X84495238Y-77902095D01*
X84495238Y-77902095D02*
X84495238Y-77102095D01*
X84257142Y-77902095D02*
X84257142Y-77102095D01*
X84257142Y-77102095D02*
X84138094Y-77102095D01*
X84138094Y-77102095D02*
X84066666Y-77140190D01*
X84066666Y-77140190D02*
X84019047Y-77216380D01*
X84019047Y-77216380D02*
X83995237Y-77292571D01*
X83995237Y-77292571D02*
X83971428Y-77444952D01*
X83971428Y-77444952D02*
X83971428Y-77559238D01*
X83971428Y-77559238D02*
X83995237Y-77711619D01*
X83995237Y-77711619D02*
X84019047Y-77787809D01*
X84019047Y-77787809D02*
X84066666Y-77864000D01*
X84066666Y-77864000D02*
X84138094Y-77902095D01*
X84138094Y-77902095D02*
X84257142Y-77902095D01*
X84729761Y-84398523D02*
X84491666Y-84398523D01*
X84777380Y-84627095D02*
X84610714Y-83827095D01*
X84610714Y-83827095D02*
X84444047Y-84627095D01*
X84182143Y-83827095D02*
X84134524Y-83827095D01*
X84134524Y-83827095D02*
X84086905Y-83865190D01*
X84086905Y-83865190D02*
X84063095Y-83903285D01*
X84063095Y-83903285D02*
X84039286Y-83979476D01*
X84039286Y-83979476D02*
X84015476Y-84131857D01*
X84015476Y-84131857D02*
X84015476Y-84322333D01*
X84015476Y-84322333D02*
X84039286Y-84474714D01*
X84039286Y-84474714D02*
X84063095Y-84550904D01*
X84063095Y-84550904D02*
X84086905Y-84589000D01*
X84086905Y-84589000D02*
X84134524Y-84627095D01*
X84134524Y-84627095D02*
X84182143Y-84627095D01*
X84182143Y-84627095D02*
X84229762Y-84589000D01*
X84229762Y-84589000D02*
X84253571Y-84550904D01*
X84253571Y-84550904D02*
X84277381Y-84474714D01*
X84277381Y-84474714D02*
X84301190Y-84322333D01*
X84301190Y-84322333D02*
X84301190Y-84131857D01*
X84301190Y-84131857D02*
X84277381Y-83979476D01*
X84277381Y-83979476D02*
X84253571Y-83903285D01*
X84253571Y-83903285D02*
X84229762Y-83865190D01*
X84229762Y-83865190D02*
X84182143Y-83827095D01*
X85705952Y-74622333D02*
X85325000Y-74622333D01*
X85515476Y-74927095D02*
X85515476Y-74317571D01*
X84824999Y-74927095D02*
X85110713Y-74927095D01*
X84967856Y-74927095D02*
X84967856Y-74127095D01*
X84967856Y-74127095D02*
X85015475Y-74241380D01*
X85015475Y-74241380D02*
X85063094Y-74317571D01*
X85063094Y-74317571D02*
X85110713Y-74355666D01*
X84634523Y-74203285D02*
X84610714Y-74165190D01*
X84610714Y-74165190D02*
X84563095Y-74127095D01*
X84563095Y-74127095D02*
X84444047Y-74127095D01*
X84444047Y-74127095D02*
X84396428Y-74165190D01*
X84396428Y-74165190D02*
X84372619Y-74203285D01*
X84372619Y-74203285D02*
X84348809Y-74279476D01*
X84348809Y-74279476D02*
X84348809Y-74355666D01*
X84348809Y-74355666D02*
X84372619Y-74469952D01*
X84372619Y-74469952D02*
X84658333Y-74927095D01*
X84658333Y-74927095D02*
X84348809Y-74927095D01*
X84205952Y-74127095D02*
X84039286Y-74927095D01*
X84039286Y-74927095D02*
X83872619Y-74127095D01*
D11*
X84990333Y-75695619D02*
X84990333Y-76409904D01*
X84990333Y-76409904D02*
X85037952Y-76552761D01*
X85037952Y-76552761D02*
X85133190Y-76648000D01*
X85133190Y-76648000D02*
X85276047Y-76695619D01*
X85276047Y-76695619D02*
X85371285Y-76695619D01*
X84561761Y-75790857D02*
X84514142Y-75743238D01*
X84514142Y-75743238D02*
X84418904Y-75695619D01*
X84418904Y-75695619D02*
X84180809Y-75695619D01*
X84180809Y-75695619D02*
X84085571Y-75743238D01*
X84085571Y-75743238D02*
X84037952Y-75790857D01*
X84037952Y-75790857D02*
X83990333Y-75886095D01*
X83990333Y-75886095D02*
X83990333Y-75981333D01*
X83990333Y-75981333D02*
X84037952Y-76124190D01*
X84037952Y-76124190D02*
X84609380Y-76695619D01*
X84609380Y-76695619D02*
X83990333Y-76695619D01*
X84507733Y-81616419D02*
X84507733Y-82330704D01*
X84507733Y-82330704D02*
X84555352Y-82473561D01*
X84555352Y-82473561D02*
X84650590Y-82568800D01*
X84650590Y-82568800D02*
X84793447Y-82616419D01*
X84793447Y-82616419D02*
X84888685Y-82616419D01*
X83507733Y-82616419D02*
X84079161Y-82616419D01*
X83793447Y-82616419D02*
X83793447Y-81616419D01*
X83793447Y-81616419D02*
X83888685Y-81759276D01*
X83888685Y-81759276D02*
X83983923Y-81854514D01*
X83983923Y-81854514D02*
X84079161Y-81902133D01*
X85008333Y-88087619D02*
X85008333Y-88801904D01*
X85008333Y-88801904D02*
X85055952Y-88944761D01*
X85055952Y-88944761D02*
X85151190Y-89040000D01*
X85151190Y-89040000D02*
X85294047Y-89087619D01*
X85294047Y-89087619D02*
X85389285Y-89087619D01*
X84627380Y-88087619D02*
X84008333Y-88087619D01*
X84008333Y-88087619D02*
X84341666Y-88468571D01*
X84341666Y-88468571D02*
X84198809Y-88468571D01*
X84198809Y-88468571D02*
X84103571Y-88516190D01*
X84103571Y-88516190D02*
X84055952Y-88563809D01*
X84055952Y-88563809D02*
X84008333Y-88659047D01*
X84008333Y-88659047D02*
X84008333Y-88897142D01*
X84008333Y-88897142D02*
X84055952Y-88992380D01*
X84055952Y-88992380D02*
X84103571Y-89040000D01*
X84103571Y-89040000D02*
X84198809Y-89087619D01*
X84198809Y-89087619D02*
X84484523Y-89087619D01*
X84484523Y-89087619D02*
X84579761Y-89040000D01*
X84579761Y-89040000D02*
X84627380Y-88992380D01*
D12*
X80670000Y-73130000D02*
X83330000Y-73130000D01*
X80670000Y-75730000D02*
X80670000Y-73130000D01*
X80670000Y-75730000D02*
X83330000Y-75730000D01*
X80670000Y-77000000D02*
X80670000Y-78330000D01*
X80670000Y-78330000D02*
X82000000Y-78330000D01*
X83330000Y-75730000D02*
X83330000Y-73130000D01*
X80670000Y-79630000D02*
X83330000Y-79630000D01*
X80670000Y-82230000D02*
X80670000Y-79630000D01*
X80670000Y-82230000D02*
X83330000Y-82230000D01*
X80670000Y-83500000D02*
X80670000Y-84830000D01*
X80670000Y-84830000D02*
X82000000Y-84830000D01*
X83330000Y-82230000D02*
X83330000Y-79630000D01*
X80670000Y-86130000D02*
X83330000Y-86130000D01*
X80670000Y-88730000D02*
X80670000Y-86130000D01*
X80670000Y-88730000D02*
X83330000Y-88730000D01*
X80670000Y-90000000D02*
X80670000Y-91330000D01*
X80670000Y-91330000D02*
X82000000Y-91330000D01*
X83330000Y-88730000D02*
X83330000Y-86130000D01*
%LPC*%
D13*
X111000000Y-89000000D03*
D14*
X112540000Y-83500000D03*
X112540000Y-80960000D03*
D15*
X110000000Y-83500000D03*
D16*
X110000000Y-80960000D03*
D13*
X111000000Y-75000000D03*
D17*
X82000000Y-77000000D03*
D18*
X82000000Y-74460000D03*
D17*
X82000000Y-83500000D03*
D18*
X82000000Y-80960000D03*
D17*
X82000000Y-90000000D03*
D18*
X82000000Y-87460000D03*
%LPD*%
M02*
