G04 #@! TF.GenerationSoftware,KiCad,Pcbnew,7.0.2*
G04 #@! TF.CreationDate,2023-12-12T16:56:49+01:00*
G04 #@! TF.ProjectId,stcs05,73746373-3035-42e6-9b69-6361645f7063,rev?*
G04 #@! TF.SameCoordinates,Original*
G04 #@! TF.FileFunction,Copper,L2,Bot*
G04 #@! TF.FilePolarity,Positive*
%FSLAX46Y46*%
G04 Gerber Fmt 4.6, Leading zero omitted, Abs format (unit mm)*
G04 Created by KiCad (PCBNEW 7.0.2) date 2023-12-12 16:56:49*
%MOMM*%
%LPD*%
G01*
G04 APERTURE LIST*
G04 #@! TA.AperFunction,ComponentPad*
%ADD10R,2.600000X2.600000*%
G04 #@! TD*
G04 #@! TA.AperFunction,ComponentPad*
%ADD11C,2.600000*%
G04 #@! TD*
G04 #@! TA.AperFunction,ComponentPad*
%ADD12R,1.700000X1.700000*%
G04 #@! TD*
G04 #@! TA.AperFunction,ComponentPad*
%ADD13O,1.700000X1.700000*%
G04 #@! TD*
G04 #@! TA.AperFunction,ViaPad*
%ADD14C,1.000000*%
G04 #@! TD*
G04 #@! TA.AperFunction,ViaPad*
%ADD15C,0.800000*%
G04 #@! TD*
G04 #@! TA.AperFunction,Conductor*
%ADD16C,0.250000*%
G04 #@! TD*
G04 #@! TA.AperFunction,Conductor*
%ADD17C,0.500000*%
G04 #@! TD*
G04 APERTURE END LIST*
D10*
X145542000Y-81534000D03*
D11*
X145542000Y-76534000D03*
D12*
X118400000Y-71460000D03*
D13*
X118400000Y-74000000D03*
X118400000Y-76540000D03*
X118400000Y-79080000D03*
X118400000Y-81620000D03*
X118400000Y-84160000D03*
X118400000Y-86700000D03*
D14*
X126900000Y-71600000D03*
X132200000Y-86900000D03*
X132207000Y-73660000D03*
D15*
X122301000Y-78105000D03*
X120523000Y-83820000D03*
X125730000Y-75946000D03*
D16*
X132200000Y-86900000D02*
X132207000Y-86893000D01*
D17*
X132207000Y-86893000D02*
X132207000Y-73660000D01*
D16*
X122301000Y-77901000D02*
X118400000Y-74000000D01*
X122301000Y-78105000D02*
X122301000Y-77901000D01*
X120523000Y-83820000D02*
X125730000Y-78613000D01*
X125730000Y-78613000D02*
X125730000Y-75946000D01*
G04 #@! TA.AperFunction,Conductor*
G36*
X151327039Y-67620184D02*
G01*
X151372794Y-67672988D01*
X151384000Y-67724499D01*
X151384000Y-90475500D01*
X151364315Y-90542539D01*
X151311511Y-90588294D01*
X151260000Y-90599500D01*
X129718001Y-90599500D01*
X116524050Y-90551694D01*
X116457082Y-90531767D01*
X116411519Y-90478797D01*
X116400500Y-90427699D01*
X116400500Y-84160000D01*
X117044340Y-84160000D01*
X117064936Y-84395407D01*
X117102420Y-84535299D01*
X117126097Y-84623663D01*
X117225965Y-84837830D01*
X117361505Y-85031401D01*
X117528599Y-85198495D01*
X117714596Y-85328732D01*
X117758219Y-85383307D01*
X117765412Y-85452806D01*
X117733890Y-85515160D01*
X117714595Y-85531880D01*
X117528919Y-85661892D01*
X117361890Y-85828921D01*
X117226400Y-86022421D01*
X117126569Y-86236507D01*
X117069364Y-86449999D01*
X117069364Y-86450000D01*
X117966314Y-86450000D01*
X117940507Y-86490156D01*
X117900000Y-86628111D01*
X117900000Y-86771889D01*
X117940507Y-86909844D01*
X117966314Y-86950000D01*
X117069364Y-86950000D01*
X117126569Y-87163492D01*
X117226399Y-87377576D01*
X117361893Y-87571081D01*
X117528918Y-87738106D01*
X117722423Y-87873600D01*
X117936509Y-87973430D01*
X118150000Y-88030634D01*
X118150000Y-87135501D01*
X118257685Y-87184680D01*
X118364237Y-87200000D01*
X118435763Y-87200000D01*
X118542315Y-87184680D01*
X118650000Y-87135501D01*
X118650000Y-88030633D01*
X118863490Y-87973430D01*
X119077576Y-87873600D01*
X119271081Y-87738106D01*
X119438106Y-87571081D01*
X119573600Y-87377576D01*
X119673430Y-87163492D01*
X119730636Y-86950000D01*
X118833686Y-86950000D01*
X118859493Y-86909844D01*
X118862383Y-86900000D01*
X131194659Y-86900000D01*
X131204317Y-86998066D01*
X131213976Y-87096133D01*
X131271185Y-87284726D01*
X131271186Y-87284727D01*
X131364090Y-87458538D01*
X131489117Y-87610883D01*
X131641462Y-87735910D01*
X131815273Y-87828814D01*
X132003868Y-87886024D01*
X132200000Y-87905341D01*
X132396132Y-87886024D01*
X132584727Y-87828814D01*
X132758538Y-87735910D01*
X132894493Y-87624334D01*
X145799500Y-87624334D01*
X145840429Y-87869615D01*
X145852694Y-87905341D01*
X145921172Y-88104810D01*
X146039526Y-88323509D01*
X146039529Y-88323514D01*
X146175036Y-88497612D01*
X146192262Y-88519744D01*
X146375215Y-88688164D01*
X146583393Y-88824173D01*
X146811119Y-88924063D01*
X147052179Y-88985108D01*
X147237933Y-89000500D01*
X147240503Y-89000500D01*
X147359497Y-89000500D01*
X147362067Y-89000500D01*
X147547821Y-88985108D01*
X147788881Y-88924063D01*
X148016607Y-88824173D01*
X148224785Y-88688164D01*
X148407738Y-88519744D01*
X148560474Y-88323509D01*
X148678828Y-88104810D01*
X148759571Y-87869614D01*
X148800500Y-87624335D01*
X148800500Y-87375665D01*
X148759571Y-87130386D01*
X148678828Y-86895190D01*
X148560474Y-86676491D01*
X148560471Y-86676487D01*
X148560470Y-86676485D01*
X148407740Y-86480259D01*
X148407738Y-86480256D01*
X148224785Y-86311836D01*
X148016607Y-86175827D01*
X148016604Y-86175825D01*
X147891523Y-86120960D01*
X147788881Y-86075937D01*
X147608866Y-86030351D01*
X147547822Y-86014892D01*
X147513854Y-86012077D01*
X147362067Y-85999500D01*
X147237933Y-85999500D01*
X147120111Y-86009262D01*
X147052177Y-86014892D01*
X146930086Y-86045810D01*
X146811119Y-86075937D01*
X146811116Y-86075938D01*
X146811117Y-86075938D01*
X146583395Y-86175825D01*
X146490515Y-86236507D01*
X146375215Y-86311836D01*
X146375213Y-86311837D01*
X146375214Y-86311837D01*
X146192259Y-86480259D01*
X146039529Y-86676485D01*
X145921170Y-86895194D01*
X145840429Y-87130384D01*
X145799500Y-87375665D01*
X145799500Y-87624334D01*
X132894493Y-87624334D01*
X132910883Y-87610883D01*
X133035910Y-87458538D01*
X133128814Y-87284727D01*
X133186024Y-87096132D01*
X133205341Y-86900000D01*
X133186024Y-86703868D01*
X133128814Y-86515273D01*
X133035910Y-86341462D01*
X132985645Y-86280214D01*
X132958334Y-86215905D01*
X132957500Y-86201551D01*
X132957500Y-82878578D01*
X143741500Y-82878578D01*
X143741501Y-82881872D01*
X143741853Y-82885152D01*
X143741854Y-82885159D01*
X143747909Y-82941484D01*
X143760356Y-82974855D01*
X143798204Y-83076331D01*
X143884454Y-83191546D01*
X143999669Y-83277796D01*
X144134517Y-83328091D01*
X144194127Y-83334500D01*
X146889872Y-83334499D01*
X146949483Y-83328091D01*
X147084331Y-83277796D01*
X147199546Y-83191546D01*
X147285796Y-83076331D01*
X147336091Y-82941483D01*
X147342500Y-82881873D01*
X147342499Y-80186128D01*
X147336091Y-80126517D01*
X147285796Y-79991669D01*
X147199546Y-79876454D01*
X147084331Y-79790204D01*
X146949483Y-79739909D01*
X146889873Y-79733500D01*
X146886550Y-79733500D01*
X144197439Y-79733500D01*
X144197420Y-79733500D01*
X144194128Y-79733501D01*
X144190848Y-79733853D01*
X144190840Y-79733854D01*
X144134515Y-79739909D01*
X143999669Y-79790204D01*
X143884454Y-79876454D01*
X143798204Y-79991668D01*
X143747910Y-80126515D01*
X143747909Y-80126517D01*
X143741500Y-80186127D01*
X143741500Y-80189448D01*
X143741500Y-80189449D01*
X143741500Y-82878560D01*
X143741500Y-82878578D01*
X132957500Y-82878578D01*
X132957500Y-76533999D01*
X143736450Y-76533999D01*
X143756616Y-76803100D01*
X143756617Y-76803103D01*
X143816666Y-77066195D01*
X143915257Y-77317398D01*
X144050185Y-77551102D01*
X144218439Y-77762085D01*
X144416259Y-77945635D01*
X144639226Y-78097651D01*
X144882359Y-78214738D01*
X145140228Y-78294280D01*
X145407071Y-78334500D01*
X145676929Y-78334500D01*
X145943772Y-78294280D01*
X146201641Y-78214738D01*
X146444775Y-78097651D01*
X146667741Y-77945635D01*
X146865561Y-77762085D01*
X147033815Y-77551102D01*
X147168743Y-77317398D01*
X147267334Y-77066195D01*
X147327383Y-76803103D01*
X147347549Y-76534000D01*
X147327383Y-76264897D01*
X147267334Y-76001805D01*
X147168743Y-75750602D01*
X147033815Y-75516898D01*
X146865561Y-75305915D01*
X146776202Y-75223002D01*
X146667743Y-75122366D01*
X146555001Y-75045500D01*
X146444775Y-74970349D01*
X146201641Y-74853262D01*
X146122097Y-74828726D01*
X145943771Y-74773719D01*
X145676929Y-74733500D01*
X145407071Y-74733500D01*
X145140228Y-74773719D01*
X144882359Y-74853262D01*
X144639228Y-74970347D01*
X144416257Y-75122366D01*
X144218439Y-75305915D01*
X144050184Y-75516899D01*
X143915257Y-75750601D01*
X143816666Y-76001804D01*
X143756616Y-76264899D01*
X143736450Y-76533999D01*
X132957500Y-76533999D01*
X132957500Y-74366977D01*
X132977185Y-74299938D01*
X132985647Y-74288312D01*
X133042910Y-74218538D01*
X133135814Y-74044727D01*
X133193024Y-73856132D01*
X133212341Y-73660000D01*
X133193024Y-73463868D01*
X133135814Y-73275273D01*
X133042910Y-73101462D01*
X132917883Y-72949117D01*
X132765538Y-72824090D01*
X132725726Y-72802810D01*
X132591726Y-72731185D01*
X132403133Y-72673976D01*
X132305066Y-72664317D01*
X132207000Y-72654659D01*
X132206999Y-72654659D01*
X132010866Y-72673976D01*
X131822273Y-72731185D01*
X131648463Y-72824089D01*
X131496117Y-72949117D01*
X131371089Y-73101463D01*
X131278185Y-73275273D01*
X131220976Y-73463866D01*
X131201659Y-73659999D01*
X131220976Y-73856133D01*
X131278185Y-74044726D01*
X131278186Y-74044727D01*
X131371090Y-74218538D01*
X131384936Y-74235409D01*
X131428353Y-74288312D01*
X131455666Y-74352621D01*
X131456500Y-74366977D01*
X131456500Y-86184492D01*
X131436815Y-86251531D01*
X131428353Y-86263157D01*
X131364089Y-86341462D01*
X131271185Y-86515273D01*
X131213976Y-86703866D01*
X131195133Y-86895190D01*
X131194659Y-86900000D01*
X118862383Y-86900000D01*
X118900000Y-86771889D01*
X118900000Y-86628111D01*
X118859493Y-86490156D01*
X118833686Y-86450000D01*
X119730636Y-86450000D01*
X119730635Y-86449999D01*
X119673430Y-86236507D01*
X119573599Y-86022421D01*
X119438109Y-85828921D01*
X119271081Y-85661893D01*
X119085404Y-85531880D01*
X119041780Y-85477303D01*
X119034587Y-85407804D01*
X119066109Y-85345450D01*
X119085399Y-85328734D01*
X119271401Y-85198495D01*
X119438495Y-85031401D01*
X119574035Y-84837830D01*
X119673903Y-84623663D01*
X119697580Y-84535296D01*
X119733943Y-84475639D01*
X119796790Y-84445109D01*
X119866166Y-84453403D01*
X119909504Y-84484420D01*
X119917129Y-84492889D01*
X120070269Y-84604151D01*
X120243197Y-84681144D01*
X120428352Y-84720500D01*
X120428354Y-84720500D01*
X120617648Y-84720500D01*
X120741083Y-84694262D01*
X120802803Y-84681144D01*
X120975730Y-84604151D01*
X121128871Y-84492888D01*
X121255533Y-84352216D01*
X121350179Y-84188284D01*
X121408674Y-84008256D01*
X121426321Y-83840345D01*
X121452905Y-83775732D01*
X121461952Y-83765636D01*
X126113789Y-79113800D01*
X126129885Y-79100906D01*
X126131873Y-79098787D01*
X126131877Y-79098786D01*
X126177949Y-79049723D01*
X126180534Y-79047055D01*
X126200120Y-79027471D01*
X126202585Y-79024292D01*
X126210167Y-79015416D01*
X126219479Y-79005500D01*
X126240062Y-78983582D01*
X126249712Y-78966027D01*
X126260400Y-78949757D01*
X126272671Y-78933938D01*
X126272673Y-78933936D01*
X126290026Y-78893832D01*
X126295157Y-78883362D01*
X126316197Y-78845092D01*
X126321175Y-78825699D01*
X126327481Y-78807282D01*
X126329018Y-78803728D01*
X126335438Y-78788896D01*
X126342272Y-78745745D01*
X126344635Y-78734331D01*
X126355500Y-78692019D01*
X126355500Y-78671983D01*
X126357027Y-78652584D01*
X126359461Y-78637216D01*
X126360160Y-78632804D01*
X126356047Y-78589303D01*
X126355499Y-78577676D01*
X126355499Y-76644685D01*
X126375184Y-76577647D01*
X126387347Y-76561716D01*
X126462533Y-76478216D01*
X126557179Y-76314284D01*
X126615674Y-76134256D01*
X126635460Y-75946000D01*
X126615674Y-75757744D01*
X126557179Y-75577716D01*
X126557179Y-75577715D01*
X126462533Y-75413783D01*
X126335870Y-75273110D01*
X126182730Y-75161848D01*
X126009802Y-75084855D01*
X125824648Y-75045500D01*
X125824646Y-75045500D01*
X125635354Y-75045500D01*
X125635352Y-75045500D01*
X125450197Y-75084855D01*
X125277269Y-75161848D01*
X125124129Y-75273110D01*
X124997466Y-75413783D01*
X124902820Y-75577715D01*
X124844326Y-75757742D01*
X124824540Y-75946000D01*
X124844326Y-76134257D01*
X124902820Y-76314284D01*
X124997464Y-76478213D01*
X124997466Y-76478215D01*
X124997467Y-76478216D01*
X125043438Y-76529272D01*
X125072650Y-76561714D01*
X125102880Y-76624706D01*
X125104500Y-76644687D01*
X125104500Y-78302546D01*
X125084815Y-78369585D01*
X125068181Y-78390227D01*
X120575228Y-82883181D01*
X120513905Y-82916666D01*
X120487547Y-82919500D01*
X120428352Y-82919500D01*
X120243197Y-82958855D01*
X120070269Y-83035848D01*
X119917129Y-83147110D01*
X119790466Y-83287783D01*
X119728467Y-83395171D01*
X119677900Y-83443386D01*
X119609293Y-83456610D01*
X119544429Y-83430642D01*
X119519505Y-83404294D01*
X119470634Y-83334499D01*
X119438495Y-83288599D01*
X119271401Y-83121505D01*
X119085839Y-82991573D01*
X119042216Y-82936998D01*
X119035022Y-82867500D01*
X119066545Y-82805145D01*
X119085837Y-82788428D01*
X119271401Y-82658495D01*
X119438495Y-82491401D01*
X119574035Y-82297830D01*
X119673903Y-82083663D01*
X119735063Y-81855408D01*
X119755659Y-81620000D01*
X119735063Y-81384592D01*
X119673903Y-81156337D01*
X119574035Y-80942171D01*
X119438495Y-80748599D01*
X119271401Y-80581505D01*
X119085839Y-80451573D01*
X119042215Y-80396997D01*
X119035023Y-80327498D01*
X119066545Y-80265144D01*
X119085831Y-80248432D01*
X119271401Y-80118495D01*
X119438495Y-79951401D01*
X119574035Y-79757830D01*
X119673903Y-79543663D01*
X119735063Y-79315408D01*
X119755659Y-79080000D01*
X119738961Y-78889151D01*
X119735063Y-78844592D01*
X119717190Y-78777888D01*
X119673903Y-78616337D01*
X119574035Y-78402171D01*
X119438495Y-78208599D01*
X119271401Y-78041505D01*
X119085839Y-77911573D01*
X119042216Y-77856998D01*
X119035022Y-77787500D01*
X119066545Y-77725145D01*
X119085837Y-77708428D01*
X119271401Y-77578495D01*
X119438495Y-77411401D01*
X119574035Y-77217830D01*
X119673903Y-77003663D01*
X119735063Y-76775408D01*
X119748248Y-76624706D01*
X119756598Y-76529272D01*
X119782050Y-76464203D01*
X119838641Y-76423224D01*
X119908403Y-76419346D01*
X119967807Y-76452398D01*
X121375104Y-77859695D01*
X121408589Y-77921018D01*
X121410744Y-77960337D01*
X121395540Y-78104999D01*
X121415326Y-78293257D01*
X121473820Y-78473284D01*
X121568466Y-78637216D01*
X121695129Y-78777889D01*
X121848269Y-78889151D01*
X122021197Y-78966144D01*
X122206352Y-79005500D01*
X122206354Y-79005500D01*
X122395648Y-79005500D01*
X122519084Y-78979262D01*
X122580803Y-78966144D01*
X122753730Y-78889151D01*
X122814375Y-78845090D01*
X122906870Y-78777889D01*
X123033533Y-78637216D01*
X123128179Y-78473284D01*
X123161873Y-78369585D01*
X123186674Y-78293256D01*
X123206460Y-78105000D01*
X123186674Y-77916744D01*
X123128179Y-77736716D01*
X123128179Y-77736715D01*
X123033533Y-77572783D01*
X122906870Y-77432110D01*
X122753730Y-77320848D01*
X122580803Y-77243854D01*
X122550241Y-77237359D01*
X122488759Y-77204167D01*
X122488340Y-77203750D01*
X119740237Y-74455646D01*
X119706752Y-74394323D01*
X119708143Y-74335872D01*
X119735063Y-74235408D01*
X119755659Y-74000000D01*
X119735063Y-73764592D01*
X119673903Y-73536337D01*
X119574035Y-73322171D01*
X119438495Y-73128599D01*
X119316569Y-73006673D01*
X119283084Y-72945350D01*
X119288068Y-72875658D01*
X119329940Y-72819725D01*
X119360915Y-72802810D01*
X119492331Y-72753796D01*
X119607546Y-72667546D01*
X119693796Y-72552331D01*
X119744091Y-72417483D01*
X119750500Y-72357873D01*
X119750499Y-70724335D01*
X145899500Y-70724335D01*
X145940429Y-70969614D01*
X146021172Y-71204810D01*
X146139526Y-71423509D01*
X146139529Y-71423514D01*
X146275036Y-71597612D01*
X146292262Y-71619744D01*
X146475215Y-71788164D01*
X146683393Y-71924173D01*
X146911119Y-72024063D01*
X147152179Y-72085108D01*
X147337933Y-72100500D01*
X147340503Y-72100500D01*
X147459497Y-72100500D01*
X147462067Y-72100500D01*
X147647821Y-72085108D01*
X147888881Y-72024063D01*
X148116607Y-71924173D01*
X148324785Y-71788164D01*
X148507738Y-71619744D01*
X148660474Y-71423509D01*
X148778828Y-71204810D01*
X148859571Y-70969614D01*
X148900500Y-70724335D01*
X148900500Y-70475665D01*
X148859571Y-70230386D01*
X148778828Y-69995190D01*
X148660474Y-69776491D01*
X148660471Y-69776487D01*
X148660470Y-69776485D01*
X148507740Y-69580259D01*
X148507738Y-69580256D01*
X148324785Y-69411836D01*
X148116607Y-69275827D01*
X148116604Y-69275825D01*
X147991523Y-69220960D01*
X147888881Y-69175937D01*
X147708867Y-69130351D01*
X147647822Y-69114892D01*
X147613854Y-69112077D01*
X147462067Y-69099500D01*
X147337933Y-69099500D01*
X147220111Y-69109262D01*
X147152177Y-69114892D01*
X147030086Y-69145810D01*
X146911119Y-69175937D01*
X146911116Y-69175938D01*
X146911117Y-69175938D01*
X146683395Y-69275825D01*
X146544607Y-69366499D01*
X146475215Y-69411836D01*
X146475213Y-69411837D01*
X146475214Y-69411837D01*
X146292259Y-69580259D01*
X146139529Y-69776485D01*
X146021170Y-69995194D01*
X145940429Y-70230384D01*
X145917521Y-70367668D01*
X145899500Y-70475665D01*
X145899500Y-70724335D01*
X119750499Y-70724335D01*
X119750499Y-70562128D01*
X119744091Y-70502517D01*
X119693796Y-70367669D01*
X119607546Y-70252454D01*
X119492331Y-70166204D01*
X119357483Y-70115909D01*
X119297873Y-70109500D01*
X119294550Y-70109500D01*
X117505439Y-70109500D01*
X117505420Y-70109500D01*
X117502128Y-70109501D01*
X117498848Y-70109853D01*
X117498840Y-70109854D01*
X117442515Y-70115909D01*
X117307669Y-70166204D01*
X117192454Y-70252454D01*
X117106204Y-70367668D01*
X117055910Y-70502515D01*
X117055909Y-70502517D01*
X117049500Y-70562127D01*
X117049500Y-70565448D01*
X117049500Y-70565449D01*
X117049500Y-72354560D01*
X117049500Y-72354578D01*
X117049501Y-72357872D01*
X117055909Y-72417483D01*
X117106204Y-72552331D01*
X117192454Y-72667546D01*
X117307669Y-72753796D01*
X117419907Y-72795658D01*
X117439082Y-72802810D01*
X117495016Y-72844681D01*
X117519433Y-72910146D01*
X117504581Y-72978419D01*
X117483431Y-73006673D01*
X117361503Y-73128601D01*
X117225965Y-73322170D01*
X117126097Y-73536336D01*
X117064936Y-73764592D01*
X117044340Y-74000000D01*
X117064936Y-74235407D01*
X117088302Y-74322609D01*
X117126097Y-74463663D01*
X117225965Y-74677830D01*
X117361505Y-74871401D01*
X117528599Y-75038495D01*
X117714160Y-75168426D01*
X117757783Y-75223002D01*
X117764976Y-75292501D01*
X117733454Y-75354855D01*
X117714159Y-75371575D01*
X117528595Y-75501508D01*
X117361505Y-75668598D01*
X117225965Y-75862170D01*
X117126097Y-76076336D01*
X117064936Y-76304592D01*
X117044340Y-76540000D01*
X117064936Y-76775407D01*
X117109709Y-76942501D01*
X117126097Y-77003663D01*
X117225965Y-77217830D01*
X117361505Y-77411401D01*
X117528599Y-77578495D01*
X117714160Y-77708426D01*
X117757783Y-77763002D01*
X117764976Y-77832501D01*
X117733454Y-77894855D01*
X117714159Y-77911575D01*
X117528595Y-78041508D01*
X117361505Y-78208598D01*
X117225965Y-78402170D01*
X117126097Y-78616336D01*
X117064936Y-78844592D01*
X117044340Y-79079999D01*
X117064936Y-79315407D01*
X117109709Y-79482502D01*
X117126097Y-79543663D01*
X117225965Y-79757830D01*
X117361505Y-79951401D01*
X117528599Y-80118495D01*
X117714160Y-80248426D01*
X117757783Y-80303002D01*
X117764976Y-80372501D01*
X117733454Y-80434855D01*
X117714159Y-80451575D01*
X117528595Y-80581508D01*
X117361505Y-80748598D01*
X117225965Y-80942170D01*
X117126097Y-81156336D01*
X117064936Y-81384592D01*
X117044340Y-81619999D01*
X117064936Y-81855407D01*
X117109709Y-82022502D01*
X117126097Y-82083663D01*
X117225965Y-82297830D01*
X117361505Y-82491401D01*
X117528599Y-82658495D01*
X117714160Y-82788426D01*
X117757783Y-82843002D01*
X117764976Y-82912501D01*
X117733454Y-82974855D01*
X117714158Y-82991575D01*
X117593115Y-83076331D01*
X117528595Y-83121508D01*
X117361505Y-83288598D01*
X117225965Y-83482170D01*
X117126097Y-83696336D01*
X117064936Y-83924592D01*
X117044340Y-84160000D01*
X116400500Y-84160000D01*
X116400500Y-78220999D01*
X116410260Y-76464203D01*
X116458317Y-67813861D01*
X116478374Y-67746934D01*
X116531431Y-67701473D01*
X116581862Y-67690553D01*
X141346500Y-67600500D01*
X151260003Y-67600500D01*
X151327039Y-67620184D01*
G37*
G04 #@! TD.AperFunction*
M02*
