G04 #@! TF.GenerationSoftware,KiCad,Pcbnew,7.0.2*
G04 #@! TF.CreationDate,2023-12-12T16:56:49+01:00*
G04 #@! TF.ProjectId,stcs05,73746373-3035-42e6-9b69-6361645f7063,rev?*
G04 #@! TF.SameCoordinates,Original*
G04 #@! TF.FileFunction,Copper,L1,Top*
G04 #@! TF.FilePolarity,Positive*
%FSLAX46Y46*%
G04 Gerber Fmt 4.6, Leading zero omitted, Abs format (unit mm)*
G04 Created by KiCad (PCBNEW 7.0.2) date 2023-12-12 16:56:49*
%MOMM*%
%LPD*%
G01*
G04 APERTURE LIST*
G04 Aperture macros list*
%AMRoundRect*
0 Rectangle with rounded corners*
0 $1 Rounding radius*
0 $2 $3 $4 $5 $6 $7 $8 $9 X,Y pos of 4 corners*
0 Add a 4 corners polygon primitive as box body*
4,1,4,$2,$3,$4,$5,$6,$7,$8,$9,$2,$3,0*
0 Add four circle primitives for the rounded corners*
1,1,$1+$1,$2,$3*
1,1,$1+$1,$4,$5*
1,1,$1+$1,$6,$7*
1,1,$1+$1,$8,$9*
0 Add four rect primitives between the rounded corners*
20,1,$1+$1,$2,$3,$4,$5,0*
20,1,$1+$1,$4,$5,$6,$7,0*
20,1,$1+$1,$6,$7,$8,$9,0*
20,1,$1+$1,$8,$9,$2,$3,0*%
G04 Aperture macros list end*
G04 #@! TA.AperFunction,SMDPad,CuDef*
%ADD10RoundRect,0.250000X0.350000X0.450000X-0.350000X0.450000X-0.350000X-0.450000X0.350000X-0.450000X0*%
G04 #@! TD*
G04 #@! TA.AperFunction,ComponentPad*
%ADD11R,2.600000X2.600000*%
G04 #@! TD*
G04 #@! TA.AperFunction,ComponentPad*
%ADD12C,2.600000*%
G04 #@! TD*
G04 #@! TA.AperFunction,SMDPad,CuDef*
%ADD13RoundRect,0.250000X0.450000X-0.350000X0.450000X0.350000X-0.450000X0.350000X-0.450000X-0.350000X0*%
G04 #@! TD*
G04 #@! TA.AperFunction,SMDPad,CuDef*
%ADD14R,1.000000X1.500000*%
G04 #@! TD*
G04 #@! TA.AperFunction,SMDPad,CuDef*
%ADD15RoundRect,0.250000X-0.450000X0.350000X-0.450000X-0.350000X0.450000X-0.350000X0.450000X0.350000X0*%
G04 #@! TD*
G04 #@! TA.AperFunction,SMDPad,CuDef*
%ADD16RoundRect,0.150000X0.512500X0.150000X-0.512500X0.150000X-0.512500X-0.150000X0.512500X-0.150000X0*%
G04 #@! TD*
G04 #@! TA.AperFunction,SMDPad,CuDef*
%ADD17R,1.500000X0.800000*%
G04 #@! TD*
G04 #@! TA.AperFunction,SMDPad,CuDef*
%ADD18RoundRect,0.249999X-1.425001X0.450001X-1.425001X-0.450001X1.425001X-0.450001X1.425001X0.450001X0*%
G04 #@! TD*
G04 #@! TA.AperFunction,SMDPad,CuDef*
%ADD19RoundRect,0.250000X-0.475000X0.337500X-0.475000X-0.337500X0.475000X-0.337500X0.475000X0.337500X0*%
G04 #@! TD*
G04 #@! TA.AperFunction,SMDPad,CuDef*
%ADD20R,1.500000X1.000000*%
G04 #@! TD*
G04 #@! TA.AperFunction,ComponentPad*
%ADD21R,1.700000X1.700000*%
G04 #@! TD*
G04 #@! TA.AperFunction,ComponentPad*
%ADD22O,1.700000X1.700000*%
G04 #@! TD*
G04 #@! TA.AperFunction,ViaPad*
%ADD23C,1.000000*%
G04 #@! TD*
G04 #@! TA.AperFunction,ViaPad*
%ADD24C,0.800000*%
G04 #@! TD*
G04 #@! TA.AperFunction,Conductor*
%ADD25C,0.250000*%
G04 #@! TD*
G04 #@! TA.AperFunction,Conductor*
%ADD26C,0.500000*%
G04 #@! TD*
G04 APERTURE END LIST*
D10*
X128762000Y-73660000D03*
X126762000Y-73660000D03*
D11*
X145542000Y-81534000D03*
D12*
X145542000Y-76534000D03*
D13*
X121412000Y-82280000D03*
X121412000Y-80280000D03*
D14*
X132575000Y-69800000D03*
X131275000Y-69800000D03*
D15*
X129675000Y-86500000D03*
X129675000Y-88500000D03*
D16*
X124637500Y-71800000D03*
X124637500Y-70850000D03*
X124637500Y-69900000D03*
X122362500Y-69900000D03*
X122362500Y-71800000D03*
D13*
X132750000Y-83425000D03*
X132750000Y-81425000D03*
D17*
X129679000Y-83928000D03*
X129679000Y-82678000D03*
X129679000Y-81428000D03*
X129679000Y-80178000D03*
X124679000Y-80178000D03*
X124679000Y-81428000D03*
X124679000Y-82678000D03*
X124679000Y-83928000D03*
D18*
X136525000Y-70150000D03*
X136525000Y-76250000D03*
D19*
X129667000Y-75797500D03*
X129667000Y-77872500D03*
X124375000Y-86487500D03*
X124375000Y-88562500D03*
D20*
X141825000Y-86625000D03*
X141825000Y-87925000D03*
D21*
X118400000Y-71460000D03*
D22*
X118400000Y-74000000D03*
X118400000Y-76540000D03*
X118400000Y-79080000D03*
X118400000Y-81620000D03*
X118400000Y-84160000D03*
X118400000Y-86700000D03*
D23*
X126900000Y-71600000D03*
X132200000Y-86900000D03*
X132207000Y-73660000D03*
D24*
X122301000Y-78105000D03*
X120523000Y-83820000D03*
X125730000Y-75946000D03*
D25*
X129662500Y-86487500D02*
X129675000Y-86500000D01*
D26*
X129679000Y-86496000D02*
X129675000Y-86500000D01*
X129679000Y-83928000D02*
X129679000Y-86496000D01*
D25*
X124375000Y-86487500D02*
X129662500Y-86487500D01*
D26*
X124637500Y-70850000D02*
X126150000Y-70850000D01*
X126150000Y-70850000D02*
X126900000Y-71600000D01*
X145542000Y-81534000D02*
X141825000Y-85251000D01*
X129667000Y-80166000D02*
X129679000Y-80178000D01*
X135378000Y-80178000D02*
X141825000Y-86625000D01*
X129679000Y-80178000D02*
X135378000Y-80178000D01*
X141825000Y-85251000D02*
X141825000Y-86625000D01*
X129667000Y-77872500D02*
X129667000Y-80166000D01*
X118810000Y-71050000D02*
X118400000Y-71460000D01*
X128447000Y-69900000D02*
X132207000Y-73660000D01*
X132575000Y-69800000D02*
X132575000Y-73292000D01*
X132200000Y-86900000D02*
X130600000Y-88500000D01*
D25*
X134797000Y-76250000D02*
X132207000Y-73660000D01*
D26*
X132575000Y-73292000D02*
X132207000Y-73660000D01*
D25*
X136525000Y-76250000D02*
X134797000Y-76250000D01*
D26*
X130600000Y-88500000D02*
X129675000Y-88500000D01*
X122723528Y-71050000D02*
X118810000Y-71050000D01*
X124637500Y-69900000D02*
X128447000Y-69900000D01*
X123873528Y-69900000D02*
X122723528Y-71050000D01*
X124637500Y-69900000D02*
X123873528Y-69900000D01*
D25*
X129292604Y-82678000D02*
X124719604Y-78105000D01*
X120162500Y-74000000D02*
X118400000Y-74000000D01*
X122362500Y-71800000D02*
X120162500Y-74000000D01*
X129679000Y-82678000D02*
X129292604Y-82678000D01*
X124719604Y-78105000D02*
X122301000Y-78105000D01*
X128679000Y-81428000D02*
X123791000Y-76540000D01*
X132747000Y-81428000D02*
X132750000Y-81425000D01*
X129679000Y-81428000D02*
X128679000Y-81428000D01*
X129679000Y-81428000D02*
X132747000Y-81428000D01*
X123791000Y-76540000D02*
X118400000Y-76540000D01*
X126762000Y-73660000D02*
X126497500Y-73660000D01*
X120183000Y-84160000D02*
X120523000Y-83820000D01*
X118400000Y-84160000D02*
X120183000Y-84160000D01*
X125730000Y-75946000D02*
X125730000Y-74692000D01*
X126497500Y-73660000D02*
X124637500Y-71800000D01*
X125730000Y-74692000D02*
X126762000Y-73660000D01*
D26*
X135400000Y-68175000D02*
X136525000Y-69300000D01*
X131275000Y-69800000D02*
X131275000Y-68925000D01*
X139158000Y-70150000D02*
X145542000Y-76534000D01*
X136525000Y-70150000D02*
X139158000Y-70150000D01*
X129975000Y-68500000D02*
X123762500Y-68500000D01*
X123762500Y-68500000D02*
X122362500Y-69900000D01*
X136525000Y-69300000D02*
X136525000Y-70150000D01*
X131275000Y-69800000D02*
X129975000Y-68500000D01*
X131275000Y-68925000D02*
X132025000Y-68175000D01*
X132025000Y-68175000D02*
X135400000Y-68175000D01*
D25*
X124679000Y-80178000D02*
X121514000Y-80178000D01*
X121514000Y-80178000D02*
X121412000Y-80280000D01*
G04 #@! TA.AperFunction,Conductor*
G36*
X151327039Y-67620184D02*
G01*
X151372794Y-67672988D01*
X151384000Y-67724499D01*
X151384000Y-90475500D01*
X151364315Y-90542539D01*
X151311511Y-90588294D01*
X151260000Y-90599500D01*
X129718001Y-90599500D01*
X116524050Y-90551694D01*
X116457082Y-90531767D01*
X116411519Y-90478797D01*
X116400500Y-90427699D01*
X116400500Y-88812500D01*
X123150001Y-88812500D01*
X123150001Y-88946829D01*
X123150321Y-88953111D01*
X123160493Y-89052695D01*
X123215642Y-89219122D01*
X123307683Y-89368345D01*
X123431654Y-89492316D01*
X123580877Y-89584357D01*
X123747303Y-89639506D01*
X123846890Y-89649680D01*
X123853168Y-89649999D01*
X124124999Y-89649999D01*
X124125000Y-89649998D01*
X124125000Y-88812500D01*
X124625000Y-88812500D01*
X124625000Y-89649999D01*
X124896829Y-89649999D01*
X124903111Y-89649678D01*
X125002695Y-89639506D01*
X125169122Y-89584357D01*
X125318345Y-89492316D01*
X125442316Y-89368345D01*
X125534357Y-89219122D01*
X125589506Y-89052696D01*
X125599680Y-88953109D01*
X125600000Y-88946831D01*
X125600000Y-88812500D01*
X124625000Y-88812500D01*
X124125000Y-88812500D01*
X123150001Y-88812500D01*
X116400500Y-88812500D01*
X116400500Y-78220999D01*
X116406162Y-77201819D01*
X116458317Y-67813861D01*
X116478374Y-67746934D01*
X116531431Y-67701473D01*
X116581862Y-67690553D01*
X123246835Y-67666316D01*
X123313943Y-67685756D01*
X123359889Y-67738394D01*
X123370084Y-67807516D01*
X123341291Y-67871176D01*
X123312384Y-67895851D01*
X123292781Y-67907943D01*
X123277664Y-67920256D01*
X123225348Y-67975708D01*
X123222836Y-67978294D01*
X122137951Y-69063181D01*
X122076628Y-69096666D01*
X122050270Y-69099500D01*
X121784306Y-69099500D01*
X121781886Y-69099690D01*
X121781871Y-69099691D01*
X121747427Y-69102402D01*
X121589602Y-69148255D01*
X121448134Y-69231919D01*
X121331919Y-69348134D01*
X121248255Y-69489602D01*
X121202402Y-69647427D01*
X121199691Y-69681871D01*
X121199690Y-69681886D01*
X121199500Y-69684306D01*
X121199500Y-70115694D01*
X121199690Y-70118114D01*
X121199691Y-70118128D01*
X121203399Y-70165235D01*
X121198938Y-70165586D01*
X121198831Y-70210718D01*
X121160917Y-70269406D01*
X121097292Y-70298279D01*
X121079937Y-70299500D01*
X119704834Y-70299500D01*
X119637795Y-70279815D01*
X119611940Y-70255743D01*
X119492331Y-70166204D01*
X119357483Y-70115909D01*
X119301166Y-70109854D01*
X119301165Y-70109853D01*
X119297873Y-70109500D01*
X119294550Y-70109500D01*
X117505439Y-70109500D01*
X117505420Y-70109500D01*
X117502128Y-70109501D01*
X117498848Y-70109853D01*
X117498840Y-70109854D01*
X117442515Y-70115909D01*
X117307669Y-70166204D01*
X117192454Y-70252454D01*
X117106204Y-70367668D01*
X117071587Y-70460483D01*
X117055909Y-70502517D01*
X117049500Y-70562127D01*
X117049500Y-70565448D01*
X117049500Y-70565449D01*
X117049500Y-72354560D01*
X117049500Y-72354578D01*
X117049501Y-72357872D01*
X117049853Y-72361152D01*
X117049854Y-72361159D01*
X117055909Y-72417484D01*
X117075497Y-72470001D01*
X117106204Y-72552331D01*
X117192454Y-72667546D01*
X117307669Y-72753796D01*
X117419907Y-72795658D01*
X117439082Y-72802810D01*
X117495016Y-72844681D01*
X117519433Y-72910146D01*
X117504581Y-72978419D01*
X117483431Y-73006673D01*
X117361503Y-73128601D01*
X117225965Y-73322170D01*
X117126097Y-73536336D01*
X117064936Y-73764592D01*
X117044340Y-74000000D01*
X117064936Y-74235407D01*
X117092687Y-74338974D01*
X117126097Y-74463663D01*
X117225965Y-74677830D01*
X117361505Y-74871401D01*
X117528599Y-75038495D01*
X117714160Y-75168426D01*
X117757783Y-75223002D01*
X117764976Y-75292501D01*
X117733454Y-75354855D01*
X117714159Y-75371575D01*
X117528595Y-75501508D01*
X117361505Y-75668598D01*
X117225965Y-75862170D01*
X117126097Y-76076336D01*
X117064936Y-76304592D01*
X117044340Y-76540000D01*
X117064936Y-76775407D01*
X117102115Y-76914161D01*
X117126097Y-77003663D01*
X117225965Y-77217830D01*
X117361505Y-77411401D01*
X117528599Y-77578495D01*
X117714160Y-77708426D01*
X117757783Y-77763002D01*
X117764976Y-77832501D01*
X117733454Y-77894855D01*
X117714159Y-77911575D01*
X117528595Y-78041508D01*
X117361505Y-78208598D01*
X117225965Y-78402170D01*
X117126097Y-78616336D01*
X117064936Y-78844592D01*
X117044340Y-79079999D01*
X117064936Y-79315407D01*
X117099605Y-79444794D01*
X117126097Y-79543663D01*
X117225965Y-79757830D01*
X117361505Y-79951401D01*
X117528599Y-80118495D01*
X117714160Y-80248426D01*
X117757783Y-80303002D01*
X117764976Y-80372501D01*
X117733454Y-80434855D01*
X117714159Y-80451575D01*
X117528595Y-80581508D01*
X117361505Y-80748598D01*
X117225965Y-80942170D01*
X117126097Y-81156336D01*
X117064936Y-81384592D01*
X117044340Y-81619999D01*
X117064936Y-81855407D01*
X117106078Y-82008950D01*
X117126097Y-82083663D01*
X117225965Y-82297830D01*
X117361505Y-82491401D01*
X117528599Y-82658495D01*
X117714160Y-82788426D01*
X117757783Y-82843002D01*
X117764976Y-82912501D01*
X117733454Y-82974855D01*
X117714158Y-82991575D01*
X117593115Y-83076331D01*
X117528595Y-83121508D01*
X117361505Y-83288598D01*
X117225965Y-83482170D01*
X117126097Y-83696336D01*
X117064936Y-83924592D01*
X117044340Y-84160000D01*
X117064936Y-84395407D01*
X117096849Y-84514506D01*
X117126097Y-84623663D01*
X117225965Y-84837830D01*
X117361505Y-85031401D01*
X117528599Y-85198495D01*
X117714596Y-85328732D01*
X117758219Y-85383307D01*
X117765412Y-85452806D01*
X117733890Y-85515160D01*
X117714595Y-85531880D01*
X117528919Y-85661892D01*
X117361890Y-85828921D01*
X117226400Y-86022421D01*
X117126569Y-86236507D01*
X117069364Y-86449999D01*
X117069364Y-86450000D01*
X117966314Y-86450000D01*
X117940507Y-86490156D01*
X117900000Y-86628111D01*
X117900000Y-86771889D01*
X117940507Y-86909844D01*
X117966314Y-86950000D01*
X117069364Y-86950000D01*
X117126569Y-87163492D01*
X117226399Y-87377576D01*
X117361893Y-87571081D01*
X117528918Y-87738106D01*
X117722423Y-87873600D01*
X117936509Y-87973430D01*
X118150000Y-88030634D01*
X118150000Y-87135501D01*
X118257685Y-87184680D01*
X118364237Y-87200000D01*
X118435763Y-87200000D01*
X118542315Y-87184680D01*
X118650000Y-87135501D01*
X118650000Y-88030633D01*
X118863490Y-87973430D01*
X119077576Y-87873600D01*
X119271081Y-87738106D01*
X119438106Y-87571081D01*
X119573600Y-87377576D01*
X119673430Y-87163492D01*
X119730636Y-86950000D01*
X118833686Y-86950000D01*
X118859493Y-86909844D01*
X118900000Y-86771889D01*
X118900000Y-86628111D01*
X118859493Y-86490156D01*
X118833686Y-86450000D01*
X119730636Y-86450000D01*
X119730635Y-86449999D01*
X119673430Y-86236507D01*
X119573599Y-86022421D01*
X119438109Y-85828921D01*
X119271081Y-85661893D01*
X119085404Y-85531880D01*
X119041780Y-85477303D01*
X119034587Y-85407804D01*
X119066109Y-85345450D01*
X119085399Y-85328734D01*
X119271401Y-85198495D01*
X119438495Y-85031401D01*
X119573653Y-84838374D01*
X119628229Y-84794752D01*
X119675227Y-84785500D01*
X120100256Y-84785500D01*
X120120762Y-84787764D01*
X120123665Y-84787672D01*
X120123667Y-84787673D01*
X120190872Y-84785561D01*
X120194768Y-84785500D01*
X120218448Y-84785500D01*
X120222350Y-84785500D01*
X120226313Y-84784999D01*
X120237962Y-84784080D01*
X120281627Y-84782709D01*
X120300859Y-84777120D01*
X120319918Y-84773174D01*
X120330836Y-84771795D01*
X120339792Y-84770664D01*
X120380407Y-84754582D01*
X120391444Y-84750803D01*
X120433390Y-84738618D01*
X120434826Y-84737768D01*
X120497948Y-84720500D01*
X120617648Y-84720500D01*
X120775003Y-84687053D01*
X120802803Y-84681144D01*
X120975730Y-84604151D01*
X120975729Y-84604151D01*
X121128870Y-84492889D01*
X121159063Y-84459357D01*
X121237199Y-84372578D01*
X123428500Y-84372578D01*
X123428501Y-84375872D01*
X123434909Y-84435483D01*
X123485204Y-84570331D01*
X123571454Y-84685546D01*
X123686669Y-84771796D01*
X123821517Y-84822091D01*
X123881127Y-84828500D01*
X125476872Y-84828499D01*
X125536483Y-84822091D01*
X125671331Y-84771796D01*
X125786546Y-84685546D01*
X125872796Y-84570331D01*
X125923091Y-84435483D01*
X125929500Y-84375873D01*
X125929499Y-83480128D01*
X125923091Y-83420517D01*
X125895421Y-83346332D01*
X125890438Y-83276642D01*
X125895422Y-83259667D01*
X125923091Y-83185483D01*
X125929500Y-83125873D01*
X125929499Y-82230128D01*
X125923091Y-82170517D01*
X125895154Y-82095616D01*
X125890171Y-82025927D01*
X125895156Y-82008950D01*
X125922597Y-81935378D01*
X125928646Y-81879114D01*
X125929000Y-81872518D01*
X125929000Y-81678000D01*
X123429000Y-81678000D01*
X123429000Y-81872518D01*
X123429354Y-81879132D01*
X123435400Y-81935373D01*
X123462844Y-82008952D01*
X123467828Y-82078644D01*
X123462844Y-82095618D01*
X123434909Y-82170515D01*
X123428854Y-82226833D01*
X123428500Y-82230127D01*
X123428500Y-82233448D01*
X123428500Y-82233449D01*
X123428500Y-83122560D01*
X123428500Y-83122578D01*
X123428501Y-83125872D01*
X123428853Y-83129152D01*
X123428854Y-83129159D01*
X123434909Y-83185485D01*
X123462577Y-83259667D01*
X123467561Y-83329358D01*
X123462577Y-83346331D01*
X123434909Y-83420513D01*
X123428854Y-83476833D01*
X123428500Y-83480127D01*
X123428500Y-83483448D01*
X123428500Y-83483449D01*
X123428500Y-84372560D01*
X123428500Y-84372578D01*
X121237199Y-84372578D01*
X121255533Y-84352216D01*
X121350179Y-84188284D01*
X121408674Y-84008256D01*
X121428460Y-83820000D01*
X121408674Y-83631744D01*
X121360490Y-83483449D01*
X121350179Y-83451715D01*
X121255533Y-83287783D01*
X121193850Y-83219277D01*
X121163620Y-83156285D01*
X121162000Y-83136305D01*
X121162000Y-82530000D01*
X121662000Y-82530000D01*
X121662000Y-83379999D01*
X121908829Y-83379999D01*
X121915111Y-83379678D01*
X122014695Y-83369506D01*
X122181122Y-83314357D01*
X122330345Y-83222316D01*
X122454316Y-83098345D01*
X122546357Y-82949122D01*
X122601506Y-82782696D01*
X122611680Y-82683109D01*
X122612000Y-82676831D01*
X122612000Y-82530000D01*
X121662000Y-82530000D01*
X121162000Y-82530000D01*
X120212001Y-82530000D01*
X120212001Y-82676829D01*
X120212321Y-82683111D01*
X120222493Y-82782695D01*
X120240699Y-82837635D01*
X120243101Y-82907463D01*
X120207369Y-82967505D01*
X120173429Y-82989918D01*
X120070269Y-83035848D01*
X119917129Y-83147110D01*
X119790467Y-83287782D01*
X119728466Y-83395171D01*
X119677898Y-83443386D01*
X119609291Y-83456608D01*
X119544427Y-83430640D01*
X119519504Y-83404293D01*
X119502493Y-83379999D01*
X119438495Y-83288599D01*
X119271401Y-83121505D01*
X119085839Y-82991573D01*
X119042216Y-82936998D01*
X119035022Y-82867500D01*
X119066545Y-82805145D01*
X119085837Y-82788428D01*
X119271401Y-82658495D01*
X119438495Y-82491401D01*
X119574035Y-82297830D01*
X119673903Y-82083663D01*
X119735063Y-81855408D01*
X119755659Y-81620000D01*
X119735063Y-81384592D01*
X119673903Y-81156337D01*
X119574035Y-80942171D01*
X119438495Y-80748599D01*
X119271401Y-80581505D01*
X119085839Y-80451573D01*
X119042215Y-80396997D01*
X119035023Y-80327498D01*
X119066545Y-80265144D01*
X119085831Y-80248432D01*
X119271401Y-80118495D01*
X119438495Y-79951401D01*
X119574035Y-79757830D01*
X119673903Y-79543663D01*
X119735063Y-79315408D01*
X119755659Y-79080000D01*
X119753437Y-79054608D01*
X119735063Y-78844592D01*
X119709767Y-78750185D01*
X119673903Y-78616337D01*
X119574035Y-78402171D01*
X119438495Y-78208599D01*
X119271401Y-78041505D01*
X119085839Y-77911573D01*
X119042216Y-77856998D01*
X119035022Y-77787500D01*
X119066545Y-77725145D01*
X119085837Y-77708428D01*
X119271401Y-77578495D01*
X119438495Y-77411401D01*
X119573653Y-77218374D01*
X119628229Y-77174752D01*
X119675227Y-77165500D01*
X121680456Y-77165500D01*
X121747495Y-77185185D01*
X121793250Y-77237989D01*
X121803194Y-77307147D01*
X121774169Y-77370703D01*
X121753341Y-77389818D01*
X121695129Y-77432110D01*
X121568466Y-77572783D01*
X121473820Y-77736715D01*
X121415326Y-77916742D01*
X121395540Y-78104999D01*
X121415326Y-78293257D01*
X121473820Y-78473284D01*
X121568466Y-78637216D01*
X121695129Y-78777889D01*
X121848267Y-78889150D01*
X121860989Y-78894814D01*
X121968111Y-78942508D01*
X122021349Y-78987759D01*
X122041670Y-79054608D01*
X122022625Y-79121831D01*
X121970259Y-79168087D01*
X121912026Y-79179501D01*
X121912009Y-79179500D01*
X121908863Y-79179500D01*
X120915140Y-79179500D01*
X120915120Y-79179500D01*
X120911992Y-79179501D01*
X120908860Y-79179820D01*
X120908858Y-79179821D01*
X120809203Y-79190000D01*
X120642665Y-79245186D01*
X120493342Y-79337288D01*
X120369288Y-79461342D01*
X120277186Y-79610665D01*
X120222000Y-79777202D01*
X120211819Y-79876858D01*
X120211817Y-79876878D01*
X120211500Y-79879991D01*
X120211500Y-79883138D01*
X120211500Y-79883139D01*
X120211500Y-80676858D01*
X120211500Y-80676877D01*
X120211501Y-80680008D01*
X120211820Y-80683140D01*
X120211821Y-80683141D01*
X120222000Y-80782796D01*
X120277186Y-80949334D01*
X120369288Y-81098657D01*
X120463303Y-81192672D01*
X120496788Y-81253995D01*
X120491804Y-81323687D01*
X120463304Y-81368034D01*
X120369681Y-81461656D01*
X120277642Y-81610877D01*
X120222493Y-81777303D01*
X120212319Y-81876890D01*
X120212000Y-81883168D01*
X120212000Y-82030000D01*
X122611999Y-82030000D01*
X122611999Y-81883170D01*
X122611678Y-81876888D01*
X122601506Y-81777304D01*
X122546357Y-81610877D01*
X122454316Y-81461654D01*
X122360696Y-81368034D01*
X122327211Y-81306711D01*
X122332195Y-81237019D01*
X122360694Y-81192673D01*
X122454712Y-81098656D01*
X122546814Y-80949334D01*
X122566974Y-80888494D01*
X122606747Y-80831051D01*
X122671263Y-80804228D01*
X122684680Y-80803500D01*
X123309948Y-80803500D01*
X123376987Y-80823185D01*
X123422742Y-80875989D01*
X123433237Y-80940756D01*
X123429354Y-80976869D01*
X123429000Y-80983481D01*
X123429000Y-81178000D01*
X125929000Y-81178000D01*
X125929000Y-80983481D01*
X125928646Y-80976885D01*
X125922597Y-80920619D01*
X125895156Y-80847048D01*
X125890171Y-80777357D01*
X125895153Y-80760386D01*
X125923091Y-80685483D01*
X125929500Y-80625873D01*
X125929499Y-80498845D01*
X125949183Y-80431808D01*
X126001987Y-80386053D01*
X126071145Y-80376109D01*
X126134701Y-80405133D01*
X126141180Y-80411166D01*
X128392181Y-82662167D01*
X128425666Y-82723490D01*
X128428500Y-82749848D01*
X128428500Y-83122560D01*
X128428500Y-83122578D01*
X128428501Y-83125872D01*
X128428853Y-83129152D01*
X128428854Y-83129159D01*
X128434909Y-83185485D01*
X128462577Y-83259667D01*
X128467561Y-83329358D01*
X128462577Y-83346331D01*
X128434909Y-83420513D01*
X128428854Y-83476833D01*
X128428500Y-83480127D01*
X128428500Y-83483448D01*
X128428500Y-83483449D01*
X128428500Y-84372560D01*
X128428500Y-84372578D01*
X128428501Y-84375872D01*
X128434909Y-84435483D01*
X128485204Y-84570331D01*
X128571454Y-84685546D01*
X128686669Y-84771796D01*
X128804448Y-84815725D01*
X128836110Y-84827534D01*
X128835542Y-84829055D01*
X128882302Y-84848422D01*
X128922152Y-84905813D01*
X128928499Y-84944976D01*
X128928500Y-85381894D01*
X128908816Y-85448933D01*
X128869597Y-85487433D01*
X128756341Y-85557289D01*
X128632288Y-85681342D01*
X128557191Y-85803096D01*
X128505243Y-85849821D01*
X128451652Y-85862000D01*
X125623348Y-85862000D01*
X125556309Y-85842315D01*
X125517809Y-85803096D01*
X125442711Y-85681342D01*
X125318657Y-85557288D01*
X125169334Y-85465186D01*
X125002797Y-85410000D01*
X124903141Y-85399819D01*
X124903122Y-85399818D01*
X124900009Y-85399500D01*
X124896860Y-85399500D01*
X123853140Y-85399500D01*
X123853120Y-85399500D01*
X123849992Y-85399501D01*
X123846860Y-85399820D01*
X123846858Y-85399821D01*
X123747203Y-85410000D01*
X123580665Y-85465186D01*
X123431342Y-85557288D01*
X123307288Y-85681342D01*
X123215186Y-85830665D01*
X123160000Y-85997202D01*
X123149819Y-86096858D01*
X123149817Y-86096878D01*
X123149500Y-86099991D01*
X123149500Y-86103138D01*
X123149500Y-86103139D01*
X123149500Y-86871858D01*
X123149500Y-86871877D01*
X123149501Y-86875008D01*
X123149820Y-86878140D01*
X123149821Y-86878141D01*
X123160000Y-86977796D01*
X123215186Y-87144334D01*
X123307288Y-87293657D01*
X123431340Y-87417709D01*
X123431342Y-87417710D01*
X123431344Y-87417712D01*
X123434652Y-87419752D01*
X123481379Y-87471698D01*
X123492603Y-87540660D01*
X123464762Y-87604744D01*
X123434659Y-87630830D01*
X123431654Y-87632683D01*
X123307683Y-87756654D01*
X123215642Y-87905877D01*
X123160493Y-88072303D01*
X123150319Y-88171890D01*
X123150000Y-88178168D01*
X123150000Y-88312500D01*
X125599999Y-88312500D01*
X125599999Y-88178170D01*
X125599678Y-88171888D01*
X125589506Y-88072304D01*
X125534357Y-87905877D01*
X125442316Y-87756654D01*
X125318344Y-87632682D01*
X125315343Y-87630831D01*
X125268618Y-87578883D01*
X125257397Y-87509921D01*
X125285240Y-87445839D01*
X125315345Y-87419753D01*
X125318656Y-87417712D01*
X125442712Y-87293656D01*
X125509929Y-87184680D01*
X125517809Y-87171904D01*
X125569757Y-87125179D01*
X125623348Y-87113000D01*
X128436232Y-87113000D01*
X128503271Y-87132685D01*
X128541771Y-87171904D01*
X128632286Y-87318654D01*
X128632287Y-87318655D01*
X128632288Y-87318656D01*
X128725951Y-87412319D01*
X128759435Y-87473640D01*
X128754451Y-87543332D01*
X128725951Y-87587680D01*
X128632287Y-87681344D01*
X128540186Y-87830665D01*
X128485000Y-87997202D01*
X128474819Y-88096858D01*
X128474817Y-88096878D01*
X128474500Y-88099991D01*
X128474500Y-88103138D01*
X128474500Y-88103139D01*
X128474500Y-88896858D01*
X128474500Y-88896877D01*
X128474501Y-88900008D01*
X128474820Y-88903140D01*
X128474821Y-88903141D01*
X128485000Y-89002796D01*
X128540186Y-89169334D01*
X128632288Y-89318657D01*
X128756342Y-89442711D01*
X128812895Y-89477592D01*
X128905666Y-89534814D01*
X129017016Y-89571712D01*
X129072202Y-89589999D01*
X129171858Y-89600180D01*
X129171859Y-89600180D01*
X129174991Y-89600500D01*
X130175008Y-89600499D01*
X130277797Y-89589999D01*
X130444334Y-89534814D01*
X130593656Y-89442712D01*
X130717712Y-89318656D01*
X130745060Y-89274315D01*
X130797004Y-89227592D01*
X130808173Y-89222895D01*
X130844800Y-89209564D01*
X130848096Y-89208419D01*
X130919334Y-89184814D01*
X130919336Y-89184812D01*
X130920536Y-89184415D01*
X130938063Y-89175929D01*
X130939112Y-89175238D01*
X130939117Y-89175237D01*
X131001806Y-89134005D01*
X131004798Y-89132099D01*
X131068656Y-89092712D01*
X131068656Y-89092711D01*
X131069729Y-89092050D01*
X131084824Y-89079753D01*
X131085692Y-89078832D01*
X131085696Y-89078830D01*
X131137185Y-89024253D01*
X131139631Y-89021735D01*
X131986366Y-88175000D01*
X140575000Y-88175000D01*
X140575000Y-88469518D01*
X140575354Y-88476132D01*
X140581400Y-88532371D01*
X140631647Y-88667089D01*
X140717811Y-88782188D01*
X140832910Y-88868352D01*
X140967628Y-88918599D01*
X141023867Y-88924645D01*
X141030482Y-88925000D01*
X141575000Y-88925000D01*
X141575000Y-88175000D01*
X142075000Y-88175000D01*
X142075000Y-88925000D01*
X142619518Y-88925000D01*
X142626132Y-88924645D01*
X142682371Y-88918599D01*
X142817089Y-88868352D01*
X142932188Y-88782188D01*
X143018352Y-88667089D01*
X143068599Y-88532371D01*
X143074645Y-88476132D01*
X143075000Y-88469518D01*
X143075000Y-88175000D01*
X142075000Y-88175000D01*
X141575000Y-88175000D01*
X140575000Y-88175000D01*
X131986366Y-88175000D01*
X132230775Y-87930591D01*
X132292096Y-87897108D01*
X132306295Y-87894871D01*
X132396132Y-87886024D01*
X132584727Y-87828814D01*
X132758538Y-87735910D01*
X132910883Y-87610883D01*
X133035910Y-87458538D01*
X133128814Y-87284727D01*
X133186024Y-87096132D01*
X133205341Y-86900000D01*
X133186024Y-86703868D01*
X133128814Y-86515273D01*
X133035910Y-86341462D01*
X132910883Y-86189117D01*
X132758538Y-86064090D01*
X132671406Y-86017517D01*
X132584726Y-85971185D01*
X132396133Y-85913976D01*
X132298066Y-85904317D01*
X132200000Y-85894659D01*
X132199999Y-85894659D01*
X132003866Y-85913976D01*
X131815273Y-85971185D01*
X131641463Y-86064089D01*
X131489117Y-86189117D01*
X131364089Y-86341463D01*
X131271185Y-86515273D01*
X131213976Y-86703865D01*
X131205127Y-86793700D01*
X131178965Y-86858487D01*
X131169405Y-86869225D01*
X131087180Y-86951450D01*
X131025857Y-86984935D01*
X130956165Y-86979951D01*
X130900232Y-86938079D01*
X130875815Y-86872615D01*
X130875499Y-86863795D01*
X130875499Y-86099992D01*
X130864999Y-85997203D01*
X130809814Y-85830666D01*
X130717712Y-85681344D01*
X130717711Y-85681342D01*
X130593658Y-85557289D01*
X130488402Y-85492367D01*
X130441678Y-85440419D01*
X130429499Y-85386828D01*
X130429499Y-85198491D01*
X130429499Y-84944973D01*
X130449184Y-84877937D01*
X130501988Y-84832182D01*
X130530117Y-84824465D01*
X130536481Y-84822091D01*
X130536483Y-84822091D01*
X130671331Y-84771796D01*
X130786546Y-84685546D01*
X130872796Y-84570331D01*
X130923091Y-84435483D01*
X130929500Y-84375873D01*
X130929499Y-83675000D01*
X131550001Y-83675000D01*
X131550001Y-83821829D01*
X131550321Y-83828111D01*
X131560493Y-83927695D01*
X131615642Y-84094122D01*
X131707683Y-84243345D01*
X131831654Y-84367316D01*
X131980877Y-84459357D01*
X132147303Y-84514506D01*
X132246890Y-84524680D01*
X132253168Y-84524999D01*
X132499999Y-84524999D01*
X132500000Y-84524998D01*
X132500000Y-83675000D01*
X132999999Y-83675000D01*
X132999999Y-84524998D01*
X133000000Y-84524999D01*
X133246829Y-84524999D01*
X133253111Y-84524678D01*
X133352695Y-84514506D01*
X133519122Y-84459357D01*
X133668345Y-84367316D01*
X133792316Y-84243345D01*
X133884357Y-84094122D01*
X133939506Y-83927696D01*
X133949680Y-83828109D01*
X133950000Y-83821831D01*
X133950000Y-83675000D01*
X132999999Y-83675000D01*
X132500000Y-83675000D01*
X131550001Y-83675000D01*
X130929499Y-83675000D01*
X130929499Y-83480128D01*
X130923091Y-83420517D01*
X130895421Y-83346332D01*
X130890438Y-83276642D01*
X130895422Y-83259667D01*
X130923091Y-83185483D01*
X130929500Y-83125873D01*
X130929499Y-82230128D01*
X130925266Y-82190752D01*
X130937672Y-82121995D01*
X130985283Y-82070858D01*
X131048556Y-82053500D01*
X131520793Y-82053500D01*
X131587832Y-82073185D01*
X131626330Y-82112402D01*
X131658225Y-82164112D01*
X131707288Y-82243657D01*
X131801303Y-82337672D01*
X131834788Y-82398995D01*
X131829804Y-82468687D01*
X131801304Y-82513034D01*
X131707681Y-82606656D01*
X131615642Y-82755877D01*
X131560493Y-82922303D01*
X131550319Y-83021890D01*
X131550000Y-83028168D01*
X131550000Y-83175000D01*
X133949998Y-83175000D01*
X133949999Y-83028170D01*
X133949678Y-83021888D01*
X133939506Y-82922304D01*
X133884357Y-82755877D01*
X133792316Y-82606654D01*
X133698696Y-82513034D01*
X133665211Y-82451711D01*
X133670195Y-82382019D01*
X133698694Y-82337673D01*
X133792712Y-82243656D01*
X133884814Y-82094334D01*
X133939999Y-81927797D01*
X133950500Y-81825009D01*
X133950499Y-81052499D01*
X133970183Y-80985461D01*
X134022987Y-80939706D01*
X134074499Y-80928500D01*
X135015770Y-80928500D01*
X135082809Y-80948185D01*
X135103451Y-80964819D01*
X140538181Y-86399549D01*
X140571666Y-86460872D01*
X140574500Y-86487230D01*
X140574500Y-87169560D01*
X140574500Y-87169578D01*
X140574501Y-87172872D01*
X140574853Y-87176152D01*
X140574854Y-87176159D01*
X140582574Y-87247968D01*
X140581990Y-87248030D01*
X140585855Y-87302074D01*
X140581466Y-87317019D01*
X140575354Y-87373867D01*
X140575000Y-87380481D01*
X140575000Y-87675000D01*
X143075000Y-87675000D01*
X143075000Y-87624335D01*
X145799500Y-87624335D01*
X145800584Y-87630830D01*
X145840429Y-87869615D01*
X145920598Y-88103139D01*
X145921172Y-88104810D01*
X146039526Y-88323509D01*
X146039529Y-88323514D01*
X146153169Y-88469518D01*
X146192262Y-88519744D01*
X146375215Y-88688164D01*
X146583393Y-88824173D01*
X146811119Y-88924063D01*
X147052179Y-88985108D01*
X147237933Y-89000500D01*
X147240503Y-89000500D01*
X147359497Y-89000500D01*
X147362067Y-89000500D01*
X147547821Y-88985108D01*
X147788881Y-88924063D01*
X148016607Y-88824173D01*
X148224785Y-88688164D01*
X148407738Y-88519744D01*
X148560474Y-88323509D01*
X148678828Y-88104810D01*
X148759571Y-87869614D01*
X148800500Y-87624335D01*
X148800500Y-87375665D01*
X148759571Y-87130386D01*
X148678828Y-86895190D01*
X148560474Y-86676491D01*
X148560471Y-86676487D01*
X148560470Y-86676485D01*
X148407740Y-86480259D01*
X148407738Y-86480256D01*
X148224785Y-86311836D01*
X148016607Y-86175827D01*
X148016604Y-86175825D01*
X147891523Y-86120960D01*
X147788881Y-86075937D01*
X147608866Y-86030351D01*
X147547822Y-86014892D01*
X147513854Y-86012077D01*
X147362067Y-85999500D01*
X147237933Y-85999500D01*
X147120111Y-86009262D01*
X147052177Y-86014892D01*
X146930086Y-86045810D01*
X146811119Y-86075937D01*
X146788678Y-86085780D01*
X146583395Y-86175825D01*
X146546393Y-86200000D01*
X146375215Y-86311836D01*
X146343032Y-86341463D01*
X146192259Y-86480259D01*
X146039529Y-86676485D01*
X146039526Y-86676491D01*
X145930399Y-86878141D01*
X145921170Y-86895194D01*
X145840429Y-87130384D01*
X145813184Y-87293657D01*
X145799500Y-87375665D01*
X145799500Y-87624335D01*
X143075000Y-87624335D01*
X143075000Y-87380481D01*
X143074646Y-87373885D01*
X143066933Y-87302138D01*
X143067912Y-87302032D01*
X143064142Y-87249362D01*
X143069086Y-87232526D01*
X143072583Y-87200000D01*
X143075500Y-87172873D01*
X143075499Y-86077128D01*
X143069091Y-86017517D01*
X143018796Y-85882669D01*
X142932546Y-85767454D01*
X142817331Y-85681204D01*
X142817330Y-85681203D01*
X142817328Y-85681202D01*
X142735059Y-85650517D01*
X142679125Y-85608646D01*
X142654709Y-85543181D01*
X142669561Y-85474908D01*
X142690709Y-85446658D01*
X144766549Y-83370817D01*
X144827872Y-83337333D01*
X144854230Y-83334499D01*
X146886561Y-83334499D01*
X146889872Y-83334499D01*
X146949483Y-83328091D01*
X147084331Y-83277796D01*
X147199546Y-83191546D01*
X147285796Y-83076331D01*
X147336091Y-82941483D01*
X147342500Y-82881873D01*
X147342499Y-80186128D01*
X147336091Y-80126517D01*
X147285796Y-79991669D01*
X147199546Y-79876454D01*
X147084331Y-79790204D01*
X146949483Y-79739909D01*
X146889873Y-79733500D01*
X146886550Y-79733500D01*
X144197439Y-79733500D01*
X144197420Y-79733500D01*
X144194128Y-79733501D01*
X144190848Y-79733853D01*
X144190840Y-79733854D01*
X144134515Y-79739909D01*
X143999669Y-79790204D01*
X143884454Y-79876454D01*
X143798204Y-79991668D01*
X143747910Y-80126515D01*
X143747909Y-80126517D01*
X143741500Y-80186127D01*
X143741500Y-80189448D01*
X143741500Y-80189449D01*
X143741500Y-82221769D01*
X143721815Y-82288808D01*
X143705181Y-82309450D01*
X141339358Y-84675272D01*
X141325727Y-84687053D01*
X141306468Y-84701391D01*
X141274635Y-84739328D01*
X141267338Y-84747292D01*
X141265972Y-84748657D01*
X141265950Y-84748681D01*
X141263409Y-84751223D01*
X141261173Y-84754050D01*
X141261171Y-84754053D01*
X141244176Y-84775546D01*
X141241905Y-84778334D01*
X141236930Y-84784264D01*
X141236636Y-84784614D01*
X141178466Y-84823319D01*
X141108605Y-84824431D01*
X141053961Y-84792594D01*
X138550175Y-82288808D01*
X135953728Y-79692360D01*
X135941946Y-79678727D01*
X135927609Y-79659469D01*
X135889666Y-79627631D01*
X135881691Y-79620323D01*
X135880329Y-79618961D01*
X135877777Y-79616409D01*
X135853444Y-79597169D01*
X135850647Y-79594890D01*
X135792251Y-79545890D01*
X135775821Y-79535422D01*
X135706691Y-79503186D01*
X135703447Y-79501615D01*
X135635306Y-79467394D01*
X135616903Y-79460997D01*
X135542211Y-79445574D01*
X135538692Y-79444794D01*
X135464490Y-79427208D01*
X135445121Y-79425229D01*
X135368869Y-79427448D01*
X135365263Y-79427500D01*
X130837230Y-79427500D01*
X130770191Y-79407815D01*
X130762919Y-79402767D01*
X130671331Y-79334204D01*
X130536479Y-79283907D01*
X130528243Y-79283022D01*
X130463692Y-79256283D01*
X130423845Y-79198890D01*
X130417500Y-79159733D01*
X130417500Y-78991057D01*
X130437185Y-78924018D01*
X130476401Y-78885520D01*
X130610656Y-78802712D01*
X130734712Y-78678656D01*
X130826814Y-78529334D01*
X130881999Y-78362797D01*
X130892500Y-78260009D01*
X130892499Y-77484992D01*
X130881999Y-77382203D01*
X130826814Y-77215666D01*
X130734712Y-77066344D01*
X130734711Y-77066342D01*
X130610659Y-76942290D01*
X130607345Y-76940246D01*
X130560620Y-76888299D01*
X130549396Y-76819336D01*
X130577238Y-76755254D01*
X130607348Y-76729164D01*
X130610348Y-76727313D01*
X130734316Y-76603345D01*
X130826357Y-76454122D01*
X130881506Y-76287696D01*
X130891680Y-76188109D01*
X130892000Y-76181831D01*
X130892000Y-76047500D01*
X128442001Y-76047500D01*
X128442001Y-76181829D01*
X128442321Y-76188111D01*
X128452493Y-76287695D01*
X128507642Y-76454122D01*
X128599683Y-76603345D01*
X128723654Y-76727316D01*
X128726656Y-76729168D01*
X128773380Y-76781117D01*
X128784601Y-76850079D01*
X128756757Y-76914161D01*
X128726659Y-76940242D01*
X128723344Y-76942286D01*
X128599288Y-77066342D01*
X128507186Y-77215665D01*
X128452000Y-77382202D01*
X128441819Y-77481858D01*
X128441817Y-77481878D01*
X128441500Y-77484991D01*
X128441500Y-77488138D01*
X128441500Y-77488139D01*
X128441500Y-78256858D01*
X128441500Y-78256877D01*
X128441501Y-78260008D01*
X128441820Y-78263140D01*
X128441821Y-78263141D01*
X128452000Y-78362796D01*
X128507186Y-78529334D01*
X128599288Y-78678657D01*
X128723342Y-78802711D01*
X128723344Y-78802712D01*
X128857597Y-78885519D01*
X128904321Y-78937465D01*
X128916500Y-78991057D01*
X128916500Y-79162387D01*
X128896815Y-79229426D01*
X128844011Y-79275181D01*
X128835834Y-79278569D01*
X128686668Y-79334204D01*
X128571454Y-79420454D01*
X128485204Y-79535668D01*
X128434909Y-79670516D01*
X128432561Y-79692360D01*
X128428500Y-79730127D01*
X128428500Y-79733430D01*
X128428499Y-79733449D01*
X128428499Y-79993547D01*
X128408814Y-80060587D01*
X128356010Y-80106342D01*
X128286851Y-80116285D01*
X128223296Y-80087260D01*
X128216818Y-80081228D01*
X126350328Y-78214738D01*
X124291802Y-76156211D01*
X124278906Y-76140113D01*
X124227775Y-76092098D01*
X124224978Y-76089387D01*
X124208227Y-76072636D01*
X124205471Y-76069880D01*
X124202290Y-76067412D01*
X124193422Y-76059837D01*
X124161582Y-76029938D01*
X124144024Y-76020285D01*
X124127764Y-76009604D01*
X124111936Y-75997327D01*
X124071851Y-75979980D01*
X124061361Y-75974841D01*
X124023091Y-75953802D01*
X124003691Y-75948821D01*
X123985284Y-75942519D01*
X123966897Y-75934562D01*
X123923758Y-75927729D01*
X123912324Y-75925361D01*
X123870019Y-75914500D01*
X123849984Y-75914500D01*
X123830586Y-75912973D01*
X123818684Y-75911088D01*
X123810805Y-75909840D01*
X123810804Y-75909840D01*
X123797602Y-75911088D01*
X123767325Y-75913950D01*
X123755656Y-75914500D01*
X119675226Y-75914500D01*
X119608187Y-75894815D01*
X119573651Y-75861623D01*
X119565348Y-75849765D01*
X119438495Y-75668599D01*
X119271401Y-75501505D01*
X119085839Y-75371573D01*
X119042215Y-75316997D01*
X119035023Y-75247498D01*
X119066545Y-75185144D01*
X119085831Y-75168432D01*
X119271401Y-75038495D01*
X119438495Y-74871401D01*
X119573653Y-74678374D01*
X119628229Y-74634752D01*
X119675227Y-74625500D01*
X120079756Y-74625500D01*
X120100262Y-74627764D01*
X120103165Y-74627672D01*
X120103167Y-74627673D01*
X120170372Y-74625561D01*
X120174268Y-74625500D01*
X120197948Y-74625500D01*
X120201850Y-74625500D01*
X120205813Y-74624999D01*
X120217462Y-74624080D01*
X120261127Y-74622709D01*
X120280359Y-74617120D01*
X120299418Y-74613174D01*
X120305696Y-74612381D01*
X120319292Y-74610664D01*
X120359907Y-74594582D01*
X120370944Y-74590803D01*
X120412890Y-74578618D01*
X120430129Y-74568422D01*
X120447602Y-74559862D01*
X120449168Y-74559242D01*
X120466232Y-74552486D01*
X120501564Y-74526814D01*
X120511330Y-74520400D01*
X120548918Y-74498171D01*
X120548917Y-74498171D01*
X120548920Y-74498170D01*
X120563085Y-74484004D01*
X120577873Y-74471373D01*
X120594087Y-74459594D01*
X120621938Y-74425926D01*
X120629779Y-74417309D01*
X122410271Y-72636819D01*
X122471595Y-72603334D01*
X122497953Y-72600500D01*
X122938249Y-72600500D01*
X122940694Y-72600500D01*
X122977569Y-72597598D01*
X123135398Y-72551744D01*
X123276865Y-72468081D01*
X123393081Y-72351865D01*
X123393265Y-72351552D01*
X123395197Y-72349748D01*
X123404158Y-72340788D01*
X123404464Y-72341094D01*
X123444328Y-72303868D01*
X123513069Y-72291360D01*
X123577660Y-72318001D01*
X123606729Y-72351544D01*
X123606735Y-72351555D01*
X123606919Y-72351865D01*
X123723135Y-72468081D01*
X123754625Y-72486704D01*
X123864602Y-72551744D01*
X124022427Y-72597597D01*
X124022431Y-72597598D01*
X124059306Y-72600500D01*
X124502048Y-72600500D01*
X124569087Y-72620185D01*
X124589729Y-72636819D01*
X125625180Y-73672271D01*
X125658665Y-73733594D01*
X125661499Y-73759950D01*
X125661500Y-73824543D01*
X125641816Y-73891583D01*
X125625181Y-73912226D01*
X125346208Y-74191199D01*
X125330110Y-74204096D01*
X125282096Y-74255225D01*
X125279392Y-74258016D01*
X125262628Y-74274780D01*
X125262621Y-74274787D01*
X125259880Y-74277529D01*
X125257499Y-74280597D01*
X125257490Y-74280608D01*
X125257411Y-74280711D01*
X125249842Y-74289572D01*
X125219935Y-74321420D01*
X125210285Y-74338974D01*
X125199609Y-74355228D01*
X125187326Y-74371063D01*
X125169975Y-74411158D01*
X125164838Y-74421644D01*
X125143802Y-74459907D01*
X125138821Y-74479309D01*
X125132520Y-74497711D01*
X125124561Y-74516102D01*
X125117728Y-74559242D01*
X125115360Y-74570674D01*
X125104499Y-74612977D01*
X125104500Y-74633016D01*
X125102973Y-74652414D01*
X125099839Y-74672196D01*
X125103949Y-74715676D01*
X125104499Y-74727343D01*
X125104500Y-75247312D01*
X125084816Y-75314351D01*
X125072650Y-75330284D01*
X124997466Y-75413783D01*
X124902820Y-75577715D01*
X124844326Y-75757742D01*
X124824540Y-75946000D01*
X124844326Y-76134257D01*
X124902820Y-76314284D01*
X124997466Y-76478216D01*
X125124129Y-76618889D01*
X125277269Y-76730151D01*
X125450197Y-76807144D01*
X125635352Y-76846500D01*
X125635354Y-76846500D01*
X125824648Y-76846500D01*
X125952444Y-76819336D01*
X126009803Y-76807144D01*
X126182730Y-76730151D01*
X126186636Y-76727313D01*
X126335870Y-76618889D01*
X126462533Y-76478216D01*
X126557179Y-76314284D01*
X126598176Y-76188109D01*
X126615674Y-76134256D01*
X126635460Y-75946000D01*
X126615674Y-75757744D01*
X126557179Y-75577716D01*
X126557179Y-75577715D01*
X126462535Y-75413786D01*
X126450478Y-75400396D01*
X126387347Y-75330282D01*
X126357119Y-75267293D01*
X126355500Y-75247323D01*
X126355500Y-75002451D01*
X126375185Y-74935412D01*
X126391819Y-74914771D01*
X126409772Y-74896818D01*
X126471095Y-74863333D01*
X126497453Y-74860499D01*
X127158859Y-74860499D01*
X127162008Y-74860499D01*
X127264797Y-74849999D01*
X127431334Y-74794814D01*
X127580656Y-74702712D01*
X127674673Y-74608694D01*
X127735994Y-74575211D01*
X127805686Y-74580195D01*
X127850034Y-74608696D01*
X127943654Y-74702316D01*
X128092877Y-74794357D01*
X128259303Y-74849506D01*
X128358890Y-74859680D01*
X128365167Y-74859999D01*
X128458713Y-74859999D01*
X128525752Y-74879683D01*
X128571508Y-74932486D01*
X128581452Y-75001645D01*
X128564253Y-75049095D01*
X128507642Y-75140877D01*
X128452493Y-75307303D01*
X128442319Y-75406890D01*
X128442000Y-75413168D01*
X128442000Y-75547500D01*
X130891999Y-75547500D01*
X130891999Y-75413170D01*
X130891678Y-75406888D01*
X130881506Y-75307304D01*
X130826357Y-75140877D01*
X130734316Y-74991654D01*
X130610345Y-74867683D01*
X130461122Y-74775642D01*
X130294696Y-74720493D01*
X130195109Y-74710319D01*
X130188832Y-74710000D01*
X129845286Y-74710000D01*
X129778247Y-74690315D01*
X129732492Y-74637511D01*
X129722548Y-74568353D01*
X129739747Y-74520904D01*
X129796357Y-74429122D01*
X129851506Y-74262696D01*
X129861680Y-74163109D01*
X129862000Y-74156831D01*
X129862000Y-73910000D01*
X128636000Y-73910000D01*
X128568961Y-73890315D01*
X128523206Y-73837511D01*
X128512000Y-73786000D01*
X128512000Y-73409999D01*
X129011999Y-73409999D01*
X129012000Y-73410000D01*
X129861998Y-73410000D01*
X129861999Y-73163170D01*
X129861678Y-73156888D01*
X129851506Y-73057304D01*
X129796357Y-72890877D01*
X129704316Y-72741654D01*
X129580345Y-72617683D01*
X129431122Y-72525642D01*
X129264696Y-72470493D01*
X129165109Y-72460319D01*
X129158832Y-72460000D01*
X129012000Y-72460000D01*
X129011999Y-73409999D01*
X128512000Y-73409999D01*
X128512000Y-72460000D01*
X128365171Y-72460000D01*
X128358888Y-72460321D01*
X128259304Y-72470493D01*
X128092877Y-72525642D01*
X127943656Y-72617681D01*
X127850034Y-72711304D01*
X127788711Y-72744788D01*
X127719019Y-72739804D01*
X127674672Y-72711303D01*
X127580657Y-72617288D01*
X127431334Y-72525186D01*
X127264797Y-72470000D01*
X127165141Y-72459819D01*
X127165122Y-72459818D01*
X127162009Y-72459500D01*
X127158860Y-72459500D01*
X126365141Y-72459500D01*
X126365121Y-72459500D01*
X126361992Y-72459501D01*
X126358860Y-72459820D01*
X126358858Y-72459821D01*
X126256929Y-72470233D01*
X126188236Y-72457463D01*
X126156647Y-72434556D01*
X125836346Y-72114255D01*
X125802861Y-72052932D01*
X125800425Y-72016980D01*
X125800213Y-72020558D01*
X125800308Y-72018129D01*
X125800500Y-72015694D01*
X125800500Y-71584306D01*
X125797598Y-71547431D01*
X125751744Y-71389602D01*
X125750578Y-71387630D01*
X125733395Y-71319906D01*
X125750579Y-71261386D01*
X125751281Y-71260198D01*
X125797099Y-71102488D01*
X125797295Y-71100000D01*
X125531815Y-71100000D01*
X125468694Y-71082732D01*
X125410397Y-71048255D01*
X125252572Y-71002402D01*
X125218128Y-70999691D01*
X125218114Y-70999690D01*
X125215694Y-70999500D01*
X124511500Y-70999500D01*
X124444461Y-70979815D01*
X124398706Y-70927011D01*
X124387500Y-70875500D01*
X124387500Y-70824500D01*
X124407185Y-70757461D01*
X124459989Y-70711706D01*
X124511500Y-70700500D01*
X125213249Y-70700500D01*
X125215694Y-70700500D01*
X125252569Y-70697598D01*
X125346924Y-70670185D01*
X125397732Y-70655424D01*
X125432327Y-70650500D01*
X128084770Y-70650500D01*
X128151809Y-70670185D01*
X128172451Y-70686819D01*
X131176405Y-73690773D01*
X131209890Y-73752096D01*
X131212127Y-73766298D01*
X131220976Y-73856135D01*
X131278185Y-74044726D01*
X131356477Y-74191199D01*
X131371090Y-74218538D01*
X131496117Y-74370883D01*
X131648462Y-74495910D01*
X131822273Y-74588814D01*
X132010868Y-74646024D01*
X132207000Y-74665341D01*
X132258560Y-74660262D01*
X132327204Y-74673280D01*
X132358394Y-74695984D01*
X134296196Y-76633787D01*
X134309093Y-76649885D01*
X134310381Y-76651094D01*
X134311258Y-76652586D01*
X134313210Y-76655023D01*
X134319606Y-76665101D01*
X134318881Y-76665560D01*
X134345777Y-76711334D01*
X134349500Y-76741488D01*
X134349500Y-76750010D01*
X134349818Y-76753123D01*
X134349819Y-76753142D01*
X134360000Y-76852798D01*
X134415186Y-77019335D01*
X134507288Y-77168657D01*
X134631342Y-77292711D01*
X134631344Y-77292712D01*
X134780665Y-77384814D01*
X134892016Y-77421712D01*
X134947201Y-77439999D01*
X135046857Y-77450180D01*
X135046858Y-77450180D01*
X135049990Y-77450500D01*
X135053139Y-77450500D01*
X137996861Y-77450500D01*
X138000010Y-77450500D01*
X138102798Y-77439999D01*
X138269335Y-77384814D01*
X138418656Y-77292712D01*
X138542712Y-77168656D01*
X138634814Y-77019335D01*
X138689999Y-76852798D01*
X138700500Y-76750010D01*
X138700500Y-75749990D01*
X138689999Y-75647202D01*
X138634814Y-75480665D01*
X138567526Y-75371574D01*
X138542711Y-75331342D01*
X138418657Y-75207288D01*
X138269335Y-75115186D01*
X138102798Y-75060000D01*
X138003142Y-75049819D01*
X138003123Y-75049818D01*
X138000010Y-75049500D01*
X135049990Y-75049500D01*
X135046877Y-75049817D01*
X135046857Y-75049819D01*
X134947201Y-75060000D01*
X134780664Y-75115186D01*
X134719452Y-75152942D01*
X134652059Y-75171382D01*
X134585396Y-75150459D01*
X134566675Y-75135084D01*
X133248390Y-73816799D01*
X133214905Y-73755476D01*
X133219889Y-73685784D01*
X133223689Y-73676714D01*
X133249816Y-73620684D01*
X133251372Y-73617469D01*
X133285040Y-73550433D01*
X133285040Y-73550431D01*
X133285609Y-73549299D01*
X133292002Y-73530906D01*
X133307431Y-73456184D01*
X133308212Y-73452660D01*
X133318324Y-73409999D01*
X133325500Y-73379721D01*
X133325500Y-73379720D01*
X133325791Y-73378493D01*
X133327770Y-73359121D01*
X133327733Y-73357858D01*
X133327734Y-73357855D01*
X133325550Y-73282800D01*
X133325499Y-73279331D01*
X133325499Y-71049748D01*
X133345184Y-70982710D01*
X133375183Y-70950486D01*
X133432546Y-70907546D01*
X133518796Y-70792331D01*
X133569091Y-70657483D01*
X133575500Y-70597873D01*
X133575499Y-69049499D01*
X133595184Y-68982461D01*
X133647987Y-68936706D01*
X133699499Y-68925500D01*
X134513769Y-68925500D01*
X134580808Y-68945185D01*
X134626563Y-68997989D01*
X134636507Y-69067147D01*
X134607482Y-69130703D01*
X134601450Y-69137181D01*
X134507288Y-69231342D01*
X134415186Y-69380664D01*
X134360000Y-69547201D01*
X134349819Y-69646857D01*
X134349817Y-69646877D01*
X134349500Y-69649990D01*
X134349500Y-70650010D01*
X134349818Y-70653123D01*
X134349819Y-70653142D01*
X134360000Y-70752798D01*
X134415186Y-70919335D01*
X134507288Y-71068657D01*
X134631342Y-71192711D01*
X134631344Y-71192712D01*
X134780665Y-71284814D01*
X134892016Y-71321712D01*
X134947201Y-71339999D01*
X135046857Y-71350180D01*
X135046858Y-71350180D01*
X135049990Y-71350500D01*
X135053139Y-71350500D01*
X137996861Y-71350500D01*
X138000010Y-71350500D01*
X138102798Y-71339999D01*
X138269335Y-71284814D01*
X138418656Y-71192712D01*
X138542712Y-71068656D01*
X138610099Y-70959403D01*
X138662048Y-70912679D01*
X138715639Y-70900500D01*
X138795770Y-70900500D01*
X138862809Y-70920185D01*
X138883451Y-70936819D01*
X143796398Y-75849765D01*
X143829883Y-75911088D01*
X143824899Y-75980780D01*
X143824174Y-75982672D01*
X143818423Y-75997327D01*
X143816665Y-76001807D01*
X143756616Y-76264899D01*
X143736450Y-76533999D01*
X143756616Y-76803100D01*
X143816666Y-77066195D01*
X143915257Y-77317398D01*
X144050185Y-77551102D01*
X144218439Y-77762085D01*
X144416259Y-77945635D01*
X144639226Y-78097651D01*
X144882359Y-78214738D01*
X145140228Y-78294280D01*
X145407071Y-78334500D01*
X145676929Y-78334500D01*
X145943772Y-78294280D01*
X146201641Y-78214738D01*
X146444775Y-78097651D01*
X146667741Y-77945635D01*
X146865561Y-77762085D01*
X147033815Y-77551102D01*
X147168743Y-77317398D01*
X147267334Y-77066195D01*
X147327383Y-76803103D01*
X147347549Y-76534000D01*
X147327383Y-76264897D01*
X147267334Y-76001805D01*
X147168743Y-75750602D01*
X147033815Y-75516898D01*
X146865561Y-75305915D01*
X146826854Y-75270000D01*
X146667743Y-75122366D01*
X146576270Y-75060001D01*
X146444775Y-74970349D01*
X146201641Y-74853262D01*
X146102545Y-74822695D01*
X145943771Y-74773719D01*
X145676929Y-74733500D01*
X145407071Y-74733500D01*
X145140226Y-74773720D01*
X144984532Y-74821745D01*
X144914669Y-74822695D01*
X144860302Y-74790935D01*
X140793702Y-70724334D01*
X145899500Y-70724334D01*
X145940429Y-70969615D01*
X146019815Y-71200857D01*
X146021172Y-71204810D01*
X146139526Y-71423509D01*
X146139529Y-71423514D01*
X146175437Y-71469648D01*
X146292262Y-71619744D01*
X146475215Y-71788164D01*
X146683393Y-71924173D01*
X146911119Y-72024063D01*
X147152179Y-72085108D01*
X147337933Y-72100500D01*
X147340503Y-72100500D01*
X147459497Y-72100500D01*
X147462067Y-72100500D01*
X147647821Y-72085108D01*
X147888881Y-72024063D01*
X148116607Y-71924173D01*
X148324785Y-71788164D01*
X148507738Y-71619744D01*
X148660474Y-71423509D01*
X148778828Y-71204810D01*
X148859571Y-70969614D01*
X148900500Y-70724335D01*
X148900500Y-70475665D01*
X148859571Y-70230386D01*
X148778828Y-69995190D01*
X148660474Y-69776491D01*
X148660471Y-69776487D01*
X148660470Y-69776485D01*
X148558650Y-69645667D01*
X148507738Y-69580256D01*
X148324785Y-69411836D01*
X148116607Y-69275827D01*
X148116604Y-69275825D01*
X147991523Y-69220960D01*
X147888881Y-69175937D01*
X147708867Y-69130351D01*
X147647822Y-69114892D01*
X147613854Y-69112077D01*
X147462067Y-69099500D01*
X147337933Y-69099500D01*
X147243946Y-69107288D01*
X147152177Y-69114892D01*
X147064162Y-69137181D01*
X146911119Y-69175937D01*
X146911116Y-69175938D01*
X146911117Y-69175938D01*
X146683395Y-69275825D01*
X146572717Y-69348135D01*
X146475215Y-69411836D01*
X146305512Y-69568059D01*
X146292259Y-69580259D01*
X146139529Y-69776485D01*
X146021170Y-69995194D01*
X145940429Y-70230384D01*
X145899500Y-70475665D01*
X145899500Y-70724334D01*
X140793702Y-70724334D01*
X139733728Y-69664360D01*
X139721946Y-69650727D01*
X139721397Y-69649990D01*
X139707610Y-69631470D01*
X139669667Y-69599631D01*
X139661691Y-69592323D01*
X139660329Y-69590961D01*
X139657777Y-69588409D01*
X139633444Y-69569169D01*
X139630647Y-69566890D01*
X139572251Y-69517890D01*
X139555821Y-69507422D01*
X139486691Y-69475186D01*
X139483447Y-69473615D01*
X139415306Y-69439394D01*
X139396903Y-69432997D01*
X139322211Y-69417574D01*
X139318692Y-69416794D01*
X139244490Y-69399208D01*
X139225121Y-69397229D01*
X139148869Y-69399448D01*
X139145263Y-69399500D01*
X138715639Y-69399500D01*
X138648600Y-69379815D01*
X138610100Y-69340597D01*
X138554722Y-69250816D01*
X138542712Y-69231344D01*
X138542711Y-69231343D01*
X138542710Y-69231341D01*
X138418657Y-69107288D01*
X138269335Y-69015186D01*
X138102798Y-68960000D01*
X138003142Y-68949819D01*
X138003123Y-68949818D01*
X138000010Y-68949500D01*
X137996861Y-68949500D01*
X137259798Y-68949500D01*
X137192759Y-68929815D01*
X137154259Y-68890596D01*
X137117050Y-68830270D01*
X137104750Y-68815172D01*
X137049290Y-68762848D01*
X137046703Y-68760335D01*
X136117246Y-67830878D01*
X136083761Y-67769555D01*
X136088745Y-67699863D01*
X136130617Y-67643930D01*
X136196081Y-67619513D01*
X136204468Y-67619198D01*
X141346500Y-67600500D01*
X151260003Y-67600500D01*
X151327039Y-67620184D01*
G37*
G04 #@! TD.AperFunction*
M02*
